<?xml version="1.0" encoding="utf-8"?>
<!-- Generator: Adobe Illustrator 23.1.0, SVG Export Plug-In . SVG Version: 6.00 Build 0)  -->
<svg version="1.1" xmlns="http://www.w3.org/2000/svg" xmlns:xlink="http://www.w3.org/1999/xlink" x="0px" y="0px"
	 viewBox="0 0 478.7 500.9" style="enable-background:new 0 0 478.7 500.9;" xml:space="preserve">
	 <style>
            #Adel {
                animation: pulse 3s ease-in-out alternate infinite;
                transform-origin: center;
            }
            @keyframes pulse {
                from {
                    transform: scale(1);
                }
                to {
                    transform: scale(1.1);
                }
            }
        </style>
<style type="text/css">
	.st0{fill:url(#SVGID_1_);}
	.st1{fill:url(#SVGID_2_);}
	.st2{fill:url(#SVGID_3_);}
	.st3{fill:url(#SVGID_4_);}
	.st4{fill:url(#SVGID_5_);}
	.st5{fill:url(#SVGID_6_);}
	.st6{fill:url(#SVGID_7_);}
	.st7{fill:url(#SVGID_8_);}
	.st8{fill:url(#SVGID_9_);}
	.st9{fill:url(#SVGID_10_);}
	.st10{fill:url(#SVGID_11_);}
	.st11{fill:url(#SVGID_12_);}
	.st12{fill:url(#SVGID_13_);}
	.st13{fill:url(#SVGID_14_);}
	.st14{fill:url(#SVGID_15_);}
	.st15{fill:url(#SVGID_16_);}
	.st16{fill:url(#SVGID_17_);}
	.st17{fill:url(#SVGID_18_);}
	.st18{fill:url(#SVGID_19_);}
	.st19{fill:url(#SVGID_20_);}
	.st20{fill:url(#SVGID_21_);}
	.st21{fill:url(#SVGID_22_);}
	.st22{fill:url(#SVGID_23_);}
	.st23{fill:url(#SVGID_24_);}
	.st24{fill:url(#SVGID_25_);}
	.st25{fill:url(#SVGID_26_);}
	.st26{fill:url(#SVGID_27_);}
	.st27{fill:url(#SVGID_28_);}
	.st28{fill:url(#SVGID_29_);}
	.st29{fill:url(#SVGID_30_);}
	.st30{fill:url(#SVGID_31_);}
	.st31{fill:url(#SVGID_32_);}
	.st32{fill:url(#SVGID_33_);}
	.st33{fill:url(#SVGID_34_);}
	.st34{fill:url(#SVGID_35_);}
	.st35{fill:url(#SVGID_36_);}
	.st36{fill:url(#SVGID_37_);}
	.st37{fill:url(#SVGID_38_);}
	.st38{fill:url(#SVGID_39_);}
	.st39{fill:url(#SVGID_40_);}
	.st40{fill:url(#SVGID_41_);}
	.st41{fill:url(#SVGID_42_);}
	.st42{fill:url(#SVGID_43_);}
	.st43{fill:url(#SVGID_44_);}
	.st44{fill:url(#SVGID_45_);}
	.st45{fill:url(#SVGID_46_);}
	.st46{fill:url(#SVGID_47_);}
	.st47{fill:url(#SVGID_48_);}
	.st48{fill:url(#SVGID_49_);}
	.st49{fill:url(#SVGID_50_);}
	.st50{fill:url(#SVGID_51_);}
	.st51{fill:url(#SVGID_52_);}
	.st52{fill:url(#SVGID_53_);}
	.st53{fill:url(#SVGID_54_);}
	.st54{fill:url(#SVGID_55_);}
	.st55{fill:url(#SVGID_56_);}
	.st56{fill:url(#SVGID_57_);}
	.st57{fill:url(#SVGID_58_);}
	.st58{fill:url(#SVGID_59_);}
	.st59{fill:url(#SVGID_60_);}
	.st60{fill:url(#SVGID_61_);}
	.st61{fill:url(#SVGID_62_);}
	.st62{fill:url(#SVGID_63_);}
	.st63{fill:url(#SVGID_64_);}
	.st64{fill:url(#SVGID_65_);}
	.st65{fill:url(#SVGID_66_);}
	.st66{fill:url(#SVGID_67_);}
	.st67{fill:url(#SVGID_68_);}
	.st68{fill:url(#SVGID_69_);}
	.st69{fill:url(#SVGID_70_);}
	.st70{fill:url(#SVGID_71_);}
	.st71{fill:url(#SVGID_72_);}
	.st72{fill:url(#SVGID_73_);}
	.st73{fill:url(#SVGID_74_);}
	.st74{fill:url(#SVGID_75_);}
	.st75{fill:url(#SVGID_76_);}
	.st76{fill:url(#SVGID_77_);}
	.st77{fill:url(#SVGID_78_);}
	.st78{fill:url(#SVGID_79_);}
	.st79{fill:url(#SVGID_80_);}
	.st80{fill:url(#SVGID_81_);}
	.st81{fill:url(#SVGID_82_);}
	.st82{fill:url(#SVGID_83_);}
	.st83{fill:url(#SVGID_84_);}
	.st84{fill:url(#SVGID_85_);}
	.st85{fill:url(#SVGID_86_);}
	.st86{fill:url(#SVGID_87_);}
	.st87{fill:url(#SVGID_88_);}
	.st88{fill:url(#SVGID_89_);}
	.st89{fill:url(#SVGID_90_);}
	.st90{fill:url(#SVGID_91_);}
	.st91{fill:url(#SVGID_92_);}
	.st92{fill:url(#SVGID_93_);}
	.st93{fill:url(#SVGID_94_);}
	.st94{fill:url(#SVGID_95_);}
	.st95{fill:url(#SVGID_96_);}
	.st96{fill:url(#SVGID_97_);}
	.st97{fill:url(#SVGID_98_);}
	.st98{fill:url(#SVGID_99_);}
	.st99{fill:url(#SVGID_100_);}
	.st100{fill:url(#SVGID_101_);}
	.st101{fill:url(#SVGID_102_);}
	.st102{fill:url(#SVGID_103_);}
	.st103{fill:#DDDDDD;}
	.st104{fill:#E6E7E8;}
	.st105{fill:url(#SVGID_104_);}
	.st106{fill:#4C4540;}
	.st107{fill:#D3CCC7;}
	.st108{fill:#ECBE91;}
	.st109{opacity:0.54;fill:#DDA783;}
	.st110{fill:#C17378;}
	.st111{fill:url(#SVGID_105_);}
	.st112{fill:url(#SVGID_106_);}
	.st113{fill:url(#SVGID_107_);}
	.st114{fill:url(#SVGID_108_);}
	.st115{fill:#726D6A;}
	.st116{opacity:0.11;fill:#4C4540;}
	.st117{opacity:0.66;fill:#D3CCC7;}
	.st118{opacity:0.32;fill:#DDA783;}
	.st119{fill:url(#SVGID_109_);}
	.st120{fill:url(#SVGID_110_);}
	.st121{fill:url(#SVGID_111_);}
	.st122{fill:url(#SVGID_112_);}
	.st123{fill:url(#SVGID_113_);}
	.st124{fill:url(#SVGID_114_);}
	.st125{fill:url(#SVGID_115_);}
	.st126{fill:#ECBE91;stroke:#E5B68B;stroke-miterlimit:10;}
</style>
<g id="Layer_7">
	
		<radialGradient id="SVGID_1_" cx="206.8905" cy="225.9938" r="191.6669" fx="266.1664" fy="295.2037" gradientUnits="userSpaceOnUse">
		<stop  offset="0.5069" style="stop-color:#0085B7"/>
		<stop  offset="1" style="stop-color:#14286B"/>
	</radialGradient>
	<path class="st0" d="M342,278.7c-0.3,1.3-0.5,2.5-0.4,3.8c0.1,2,0.6,3.6,1.5,5c0.9,1.5,2.1,2.8,3.5,4.2c2.5,2.4,5.7,4.9,9.1,8.7
		c0.4,0.5,0.8,1,1.3,1.5c6.3,7.5,10.3,16.3,12.7,25.6c1.2,4.8,2,9.6,2.4,14.5c0.1,1.5,0.2,3,0.3,4.6c0.5,13.4-1.8,26.5-5.3,36.8
		c-1.2,3.3-2.7,7.5-5.7,12.6c-3.4,5.6-7.5,10.2-11.8,14c-10.2,8.9-21.5,13-27.9,15.2c-0.5,0.2-0.9,0.3-1.3,0.4
		c-2.1,0.7-4.3,1.4-6.6,2c-0.4,0.1-0.8,0.2-1.2,0.3c-0.4,0.1-0.7,0.2-1.1,0.3c-1,0.2-1.9,0.5-2.9,0.7c-2.3,0.5-4.6,0.9-7,1.3
		c-14.3,2.2-29.3,1.8-35.8-5.3c-0.1-0.1-0.2-0.2-0.2-0.3c-1.4-1.5-4.5-5.3-10-9.1c-4.2-3-8.1-4.8-10.9-5.8c-2.2-0.2-4.7-0.5-7.5-0.8
		c-3.2-0.4-6.7-0.9-10.5-1.5c-8.2-1.3-12.9-2.1-19.1-3.9c-12.8-3.6-12.2-5.9-19.1-6.4c-11.6-0.8-21.3,5-22,5.4
		c-5.8,3.6-6.1,6.2-9.9,6.8c-6.8,1-10.4-6.5-18.2-11.2c-11.8-7.2-26.4-3.7-44.6,0.7c-18.5,4.4-21.3,9.3-33.7,8.5
		c-5.1-0.3-17-1.1-24.3-9.6c-10.8-12.6-4.7-34,2-45.4c4.6-7.8,10.4-12.7,18-19.1c13.8-11.5,18.9-10.4,26.2-19.6
		c2.6-3.3,11.1-13.9,9.7-26.4c-1.3-11.7-10-12.4-17.2-29.3c-2.9-6.8-7.5-17.5-4.2-28.2c2.2-7,7.1-12.1,22.8-22.4
		c21.3-13.9,26.9-14.3,41.5-23.5c10.9-6.9,27.3-17.3,39.6-36.3c10-15.5,13.4-30.8,14.8-40.8c-0.4-3.1-7.2-55.5,22.3-76.8
		c3.2-2.3,12-8.7,24.8-9c11.4-0.3,24.8,4.3,32.3,14.2c4.5,5.9,6.4,13.2,10.2,27.9c1.7,6.4,2.4,10.7,4.3,14.2c0.8,1.4,1.7,2.7,3,3.9
		c1.5,1.5,3.2,2.6,4.8,3.4c0.5,0.3,1.1,0.5,1.6,0.7c0.4,0.2,0.8,0.3,1.2,0.4c1.4,0.5,2.8,0.8,4.1,1c1.5,0.3,2.8,0.4,3.9,0.5
		c0.9,0.1,1.8,0.2,2.7,0.4c18.1,2.6,49.1,12,58.9,30.7c4.1,7.8,4.2,16.7,4.3,23.3c0.1,4.2-0.3,5.3-2.6,24.6
		c-2,16.2-2.2,19.2-1.7,23.7c0.4,3.6,1.1,10.3,4.6,17.7c6.3,13.3,14.7,14.6,16.2,21.9c1.1,5.5-1.7,14.4-21.5,28.6
		c-1.2,0.7-2.5,1.5-3.7,2.3c-5.7,3.7-11.4,8.3-14.5,13.5C343.2,275.4,342.4,277,342,278.7z"/>
	<linearGradient id="SVGID_2_" gradientUnits="userSpaceOnUse" x1="312.1434" y1="343.1986" x2="413.9139" y2="444.9692">
		<stop  offset="0" style="stop-color:#0067A2"/>
		<stop  offset="1" style="stop-color:#14286B"/>
	</linearGradient>
	<path class="st1" d="M436.1,380.9c4.9,26.5-2.7,41.5-6.6,47.7c-3.7,5.9-12.6,12.5-30.1,25.6c-10.9,8.1-19,14.1-25.1,18.2
		c-3.3,2.2-6.1,3.9-8.5,5.1c-1.6,0.8-2.9,1.3-4.2,1.7c-9.9,2.8-23,1.2-49.3-2.3c-17.8-2.3-14.1-3.1-37.1-6.4
		c-18.2-2.6-22.4-2.4-28.8-6.4c-9.3-5.8-19.9-18.4-16.8-30.9c1.3-5.2,4.9-10.5,9.5-13.3c1.9-1.1,3.9-1.9,6-2
		c6.9-0.4,11.3,5.8,16.9,10.7c0.1,0,0.1,0.1,0.2,0.1c1.5,1.3,3.1,2.5,4.7,3.6c5.7,3.8,12,6.4,18.6,8.1c9.3,2.4,19.1,2.8,27.7,2
		c2.4-0.2,4.7-0.5,6.9-0.9c1.1-0.2,2.2-0.4,3.2-0.6c0.3-0.1,0.6-0.1,1-0.2c0.2,0,0.3-0.1,0.4-0.1c0.3-0.1,0.7-0.2,1-0.3
		c2.8-0.7,5.4-1.6,7.9-2.6c0,0,0,0,0,0c3.8-1.6,7.3-3.4,10.5-5.4c10.3-6.5,17-14.4,20.2-18.5c0.4-0.5,0.7-1,1-1.3
		c0-0.1,0.1-0.1,0.1-0.2c16.6-22,17-46.6,16.3-64.5c0-0.9-0.1-1.8-0.1-2.7c-1.3-26.8-9.2-47.1-9.2-47.1s4.6-33.9,28.3-34.2
		c12.1-0.2,20.5,1.3,26.4,6.1c2,1.6,7.6,6.9,10.9,24.7c3,16.1,1.2,26.7-0.3,46.2C436.9,350.1,436.1,363.9,436.1,380.9z"/>
	<linearGradient id="SVGID_3_" gradientUnits="userSpaceOnUse" x1="80.2197" y1="279.7126" x2="67.4902" y2="301.7608">
		<stop  offset="0" style="stop-color:#119A89"/>
		<stop  offset="0.8408" style="stop-color:#145A87"/>
		<stop  offset="1" style="stop-color:#224193"/>
	</linearGradient>
	<path class="st2" d="M78.5,280.4c0,0-11.7,5.6-11.9,14.2s2.6,7.7,2.6,7.7s8.2-3.6,8.2-7c0-3.4,5.4-9.7,5.4-9.7
		S86.5,279.9,78.5,280.4z"/>
	<linearGradient id="SVGID_4_" gradientUnits="userSpaceOnUse" x1="72.6172" y1="257.9972" x2="63.9786" y2="272.9597">
		<stop  offset="0" style="stop-color:#119A89"/>
		<stop  offset="0.8408" style="stop-color:#145A87"/>
		<stop  offset="1" style="stop-color:#224193"/>
	</linearGradient>
	<path class="st3" d="M65.9,254.1c-0.4-0.1-3.5-0.7-5.3,1.2c-1.6,1.6-1.2,4.2-1.1,5.4c0.3,2.6,1.5,3.2,1.3,5.6
		c-0.1,0.9-0.3,1.4-0.1,2.3c0.3,1.2,1.1,2,1.7,2.6c2.6,2.3,5.3,4.7,9.2,4.5c2-0.1,5.5-1,6.1-3.2c0.3-1.2-0.3-2.3-0.6-3.1
		c-0.3-0.6-0.9-1.5-4.3-4c-0.9-0.6-1.6-1.2-2.1-1.5c-0.2-0.4-0.5-1.1-0.7-2c-0.4-1.3-0.5-2.2-0.5-2.5
		C69.3,258.4,68.6,256.7,65.9,254.1z"/>
	<linearGradient id="SVGID_5_" gradientUnits="userSpaceOnUse" x1="165.5192" y1="121.9621" x2="150.0502" y2="137.431">
		<stop  offset="0" style="stop-color:#119A89"/>
		<stop  offset="0.8408" style="stop-color:#145A87"/>
		<stop  offset="1" style="stop-color:#224193"/>
	</linearGradient>
	<path class="st4" d="M156.4,142.1c1.7-0.8,12.2-18,7.4-21.8c-1.1-0.9-3.4-1.3-8.4,1.1c-0.7,0.5-6.1,4.6-5.6,8.2
		c0.1,0.9,0.7,2.6,0.9,3c0.8,2.4,1.4,3.1,1.6,3.3c0.8,1,1,0.8,1.3,1.4c0.4,1-0.2,1.7,0.1,3.2c0.1,0.4,0.2,0.6,0.3,0.8
		c0.3,0.4,0.8,0.9,1.5,1C155.4,142.3,155.9,142.3,156.4,142.1z"/>
	<linearGradient id="SVGID_6_" gradientUnits="userSpaceOnUse" x1="190.6503" y1="79.7957" x2="156.7628" y2="99.3606">
		<stop  offset="0" style="stop-color:#119A89"/>
		<stop  offset="0.8408" style="stop-color:#145A87"/>
		<stop  offset="1" style="stop-color:#224193"/>
	</linearGradient>
	<path class="st5" d="M177,109.9c-1.8,1.1-9.1,5.5-12.2,3c-0.9-0.7-1.2-1.8-1.3-2.5c-1.6-8.4,3.1-44.8,15.5-45.2
		c1.6,0,2.9,0.5,3.8,1c0.8,1.2,2,3.5,2.3,6.6c0.5,5.1-1.8,8.9-2.6,10c-0.6,4.2-0.4,7.7-0.1,10.5c0.6,4.7,1.8,6.7,1,9.6
		C182.9,105.2,181.1,107.7,177,109.9z"/>
	<linearGradient id="SVGID_7_" gradientUnits="userSpaceOnUse" x1="279.708" y1="46.8085" x2="279.708" y2="28.6802">
		<stop  offset="0" style="stop-color:#119A89"/>
		<stop  offset="0.8408" style="stop-color:#145A87"/>
		<stop  offset="1" style="stop-color:#224193"/>
	</linearGradient>
	<path class="st6" d="M272.6,30c-0.4,1.3-1.5,6,0.9,10.5c0.5,0.9,1.6,2.9,4,4.5c2.2,1.4,4.3,1.7,5.3,1.8c0.8-0.1,4.3-0.5,4.5-1.9
		c0.1-0.4-0.1-0.7-0.2-0.9c-1.3-2.3-3.9-5.1-6.4-6.8c-0.2-0.1-0.8-0.5-1.4-1.1c-0.1-0.1-0.7-0.7-1.1-1.3c-1.2-1.7-0.4-3.1-1.5-4.7
		c-0.2-0.3-0.6-0.8-1.4-1.3c-0.2-0.1-0.7-0.2-1.2,0C273.1,29,272.7,29.9,272.6,30z"/>
	<linearGradient id="SVGID_8_" gradientUnits="userSpaceOnUse" x1="297.5556" y1="82.1587" x2="297.5556" y2="50.505">
		<stop  offset="0" style="stop-color:#119A89"/>
		<stop  offset="0.8408" style="stop-color:#145A87"/>
		<stop  offset="1" style="stop-color:#224193"/>
	</linearGradient>
	<path class="st7" d="M308.6,82.1c-1,0-1.8-0.1-2.7-0.4c-2.2-0.8-4-2.6-6.8-4.5c-0.2-0.1-0.4-0.3-0.7-0.4c-0.2-0.1-0.4-0.3-0.7-0.4
		c-0.3-0.2-0.7-0.4-1-0.6c-2.9-1.6-5.2-2.2-7.1-2.7c-1.8-0.5-3.2-0.8-4.5-1.7c-0.5-0.4-1-0.9-1.5-1.6c-1.3-1.8-2.4-4.8-1.5-10.2
		c0.5-7.7,3-8.8,3.6-9c3-1.1,7.1,3,13.5,9.3c1.3,1.3,2.7,2.6,4.1,4.3c0.2,0.2,0.3,0.4,0.5,0.5c0.3,0.4,0.6,0.7,0.9,1.1
		c0.2,0.2,0.3,0.4,0.5,0.6c0.8,1.1,1.6,2.2,2.3,3.2c0,0,0,0,0,0c0.6,0.8,1.1,1.7,1.6,2.5c0.8,1.4,1.6,2.8,2.2,4c0.5,1,0.9,2,1.3,2.9
		C312.8,79.1,315,81.8,308.6,82.1z"/>
	<linearGradient id="SVGID_9_" gradientUnits="userSpaceOnUse" x1="194.0213" y1="403.4618" x2="188.761" y2="412.5728">
		<stop  offset="0" style="stop-color:#119A89"/>
		<stop  offset="0.8408" style="stop-color:#145A87"/>
		<stop  offset="1" style="stop-color:#224193"/>
	</linearGradient>
	<path class="st8" d="M182.1,401c0,0,11-2.3,17.5,8.3c6.6,10.6-6.6,3.3-6.6,3.3s-14.4-3.4-13.4-7.1C180.6,402,182.1,401,182.1,401z"
		/>
	<linearGradient id="SVGID_10_" gradientUnits="userSpaceOnUse" x1="225.034" y1="406.0013" x2="214.4971" y2="424.2517">
		<stop  offset="0" style="stop-color:#119A89"/>
		<stop  offset="0.8408" style="stop-color:#145A87"/>
		<stop  offset="1" style="stop-color:#224193"/>
	</linearGradient>
	<path class="st9" d="M207.4,408.6c-0.8,0.5-2.8,1.7-3.1,3.6c-0.2,1.4,0.5,2.7,0.6,2.9c1.4,2.2,3.9,1.9,7.7,3.7
		c1.1,0.5,2.7,1.4,4.5,2.9c0.7,3.5,2.7,6.3,5.1,6.8c2.6,0.6,4.7-1.5,8-4.6c1.7-1.6,7.9-7.4,6.2-10.7c-0.6-1.2-1.9-1.6-2.8-1.9
		C223.3,408,213.5,405,207.4,408.6z"/>
	<linearGradient id="SVGID_11_" gradientUnits="userSpaceOnUse" x1="349.8259" y1="291.6164" x2="377.7613" y2="263.681">
		<stop  offset="0" style="stop-color:#119A89"/>
		<stop  offset="0.8408" style="stop-color:#145A87"/>
		<stop  offset="1" style="stop-color:#224193"/>
	</linearGradient>
	<path class="st10" d="M374.7,276.9c-3.4,4.7-5.3,4.2-8.5,8.6c-5,6.7-3.4,11.6-6.4,12.5c-0.7,0.2-1.4,0.2-2.2-0.1
		c-2.3-0.7-5-3-6.9-6.1c-0.8-1.3-1.5-2.8-1.9-4.3c-0.2-0.6-0.3-1.3-0.4-1.9c-0.6-4.1,0.7-7.6,1.8-9.7c0.5-1,1-1.7,1.2-1.9
		c3-4.1,7.5-5.4,16.6-8c6.3-1.8,9.6-2.7,10.9-1.2C380.7,267,377.1,273.5,374.7,276.9z"/>
	<linearGradient id="SVGID_12_" gradientUnits="userSpaceOnUse" x1="389.8692" y1="263.9394" x2="411.2934" y2="242.5152">
		<stop  offset="0" style="stop-color:#119A89"/>
		<stop  offset="0.8408" style="stop-color:#145A87"/>
		<stop  offset="1" style="stop-color:#224193"/>
	</linearGradient>
	<path class="st11" d="M415,248.3c-2.1-1.6-8.5-5.9-16.8-5c-1.8,0.2-11.1,1.1-13.7,7.6c-1.1,2.8-1.1,7,1.2,8.8
		c2.4,1.9,6.5,0.6,11.2-0.9c5.2-1.6,5.2-2.8,8.2-3c4.5-0.2,5.9,2.4,9.4,1.5c2.8-0.7,5.8-3.5,5.3-5.9
		C419.3,249.9,417.4,248.7,415,248.3z"/>
	<linearGradient id="SVGID_13_" gradientUnits="userSpaceOnUse" x1="363.7062" y1="401.567" x2="324.7583" y2="334.1073">
		<stop  offset="0.4832" style="stop-color:#119A89"/>
		<stop  offset="0.9615" style="stop-color:#224193;stop-opacity:0.5"/>
	</linearGradient>
	<path class="st12" d="M367,383.2c-1.2,3.3-2.7,7.5-5.7,12.6c-3.4,5.6-7.5,10.2-11.8,14c-2.1,0.4-4.6-0.2-6.3-1.5
		c-2.9-2.2-3.3-5.8-3.3-6.2c-0.4-3.7,1.8-5.6,0.7-8c-0.5-1.1-1.7-2.2-3-2.5c-3.7-0.8-6.1,4.8-10.8,6.8c-2.9,1.2-7.5,1.4-15.3-3.6
		c-1.4-1.8-2.7-3.8-3.7-6.1c-6.8-14.5-1.1-30.3,1-35.2c4-8.4,9-13.6,12.2-16.4c0,0,14.6-13,42.3-11.6c1.2,0.1,4,0.3,6.6,2.1
		c1.2,4.8,2,9.6,2.4,14.5c-2,1.2-4.1,1.7-4,2.7c0.1,0.8,1.7,1.4,4.3,1.9C372.8,359.9,370.5,373,367,383.2z"/>
	<linearGradient id="SVGID_14_" gradientUnits="userSpaceOnUse" x1="407.7486" y1="425.1825" x2="367.7134" y2="355.8395">
		<stop  offset="0.4832" style="stop-color:#119A89"/>
		<stop  offset="0.9078" style="stop-color:#10938B"/>
	</linearGradient>
	<path class="st13" d="M412.1,421c-0.6,1-1.8,3.1-4.1,3.9c-3,1.1-6.7-0.1-9.5-3.1c-2.3-2.9-5.5-6.8-9.5-11.3c-2.7-3.1-5-5.7-5.9-5.2
		c-1.3,0.8,3.1,7.3,0.6,13.5c-0.3,0.8-1.4,3.4-3.9,4.6c-2.9,1.4-6.6,0.6-9.7-2c-1.1-1.7-2.6-4.3-4.3-7.8c-0.2-0.5-0.4-0.9-0.6-1.3
		c16.6-22,17-46.6,16.3-64.5c6.2,0.7,9.1,0.7,10.4,2.9c1,1.7,0.8,4,0.1,5.5c-1.5,3.4-5.9,3.3-6.2,5.7c-0.2,1.4,1.2,3,2.5,3.7
		c4.1,2.5,7.9-2.5,14.2-1.6c4,0.6,8.4,3.6,9.8,8.1c1.7,5-0.3,11.4-3.4,12.4c-2.3,0.8-4.7-1.7-6.4-0.4c-1.1,0.8-1.1,2.6-1.2,3.2
		c-0.1,4.5,3.9,6.2,8.1,13.1c1.3,2.1,2.7,4.5,3.6,8.1C413.6,411,414.9,416.3,412.1,421z"/>
	<linearGradient id="SVGID_15_" gradientUnits="userSpaceOnUse" x1="130.7234" y1="418.5029" x2="183.3183" y2="418.5029">
		<stop  offset="0" style="stop-color:#A1B03A"/>
		<stop  offset="0.9464" style="stop-color:#1F5F1D"/>
	</linearGradient>
	<path class="st14" d="M130.7,381.7c0,0,59.6,23.1,51.9,64c-0.4,1.9-1.3,7.7-5.1,9.2c-8.7,3.5-24.3-17.5-26.7-20.6
		C144,425.2,134,408.4,130.7,381.7z"/>
	
		<linearGradient id="SVGID_16_" gradientUnits="userSpaceOnUse" x1="261.7567" y1="172.5299" x2="314.3516" y2="172.5299" gradientTransform="matrix(0.518 0.8554 -0.8554 0.518 285.146 -175.7448)">
		<stop  offset="0.4832" style="stop-color:#119A89"/>
		<stop  offset="0.9615" style="stop-color:#224193"/>
	</linearGradient>
	<path class="st15" d="M304.6,118.5c0,0,11.1,63-27.9,77.6c-1.9,0.7-7.2,2.8-10.5,0.4c-7.5-5.6,2.3-29.9,3.8-33.5
		C274.3,152.3,283.5,135.1,304.6,118.5z"/>
	
		<linearGradient id="SVGID_17_" gradientUnits="userSpaceOnUse" x1="182.0043" y1="133.8035" x2="267.2759" y2="82.1514" gradientTransform="matrix(0.4748 0.8801 0.8801 -0.4748 28.137 -64.3372)">
		<stop  offset="0" style="stop-color:#A1B03A"/>
		<stop  offset="0.9464" style="stop-color:#1F5F1D"/>
	</linearGradient>
	<path class="st16" d="M239.4,131.2c4-1.1,16.5-4.8,22.1-16.2c0.9-1.8,1.5-3.6,1.9-5.3c-0.7-7.4-3.1-10.3-5.2-11.6
		c-3.5-2.1-8.1-0.9-9.4-3.7c-0.4-1-0.4-2.2,0.1-3.1c1-1.9,3.2-1.4,5.3-3.4c0.2-0.2,2.2-2.2,2.2-5.1c-0.1-2.7-2-5.6-4.5-6.1
		c-0.6-0.1-1.1-0.1-1.5,0c-3.4-1.2-4.2-2.8-4.5-3.7c-0.5-1.8,0.8-3.4,2.7-7.3c1.3-2.7,2.2-5,2.7-6.5c0.1-3.2-1.2-6-3.5-7.2
		c-2-1-4-0.5-4.7-0.3c-5.1,1.3-6.9,7.3-8,6.8c-0.7-0.3-0.3-3.1,0.3-6.3c0.9-4.7,1.7-8.6,2.4-11.5c0.5-3.3-0.6-6.2-2.7-7.6
		c-1.7-1.1-3.5-0.9-4.4-0.8c-4.2,0.4-6.9,3.8-8,5.3c-1.8,2.3-2.6,4.4-3.3,6.2c-2.2,6-1.3,9.4-4.1,11.4c-0.4,0.3-1.5,1.1-2.5,0.8
		c-1.7-0.5-1.3-3.2-2.9-4.3c-2.1-1.5-7,0.3-9.3,3.8c-2,3.1-1.8,7.3-0.2,10.2c2.5,4.5,7.4,4.6,7.9,8.4c0.1,1.1-0.1,2.8-1.1,3.3
		c-1.6,0.9-3.7-1.9-6.5-1.3c-1.3,0.3-2.8,1.3-3.3,2.7c-1,2.5,1.8,5,6.2,13.3c1.5,2.7,2.2,4.5,1.6,5.1c-0.9,0.8-3.5-2.4-6.5-1.7
		c-3,0.7-5,5.1-4.9,8.7c0.1,2.6,1.3,4.5,1.9,5.3c12.6,18.5,27.7,21.7,27.7,21.7C226.7,131.9,232.3,132.6,239.4,131.2z"/>
	<linearGradient id="SVGID_18_" gradientUnits="userSpaceOnUse" x1="349.2791" y1="455.2466" x2="388.6547" y2="431.3954">
		<stop  offset="0" style="stop-color:#A1B03A"/>
		<stop  offset="0.9464" style="stop-color:#1F5F1D"/>
	</linearGradient>
	<path class="st17" d="M380.2,450.1c0.5,2.4,3.6,2.3,5.5,5.1c1.2,1.8,1.6,4.5,0.5,6.5c-1.2,2.3-4.2,3.6-5.6,2.8
		c-1.1-0.6-1-2.4-2.1-2.6c-0.7-0.2-1.3,0.4-1.5,0.6c-1.7,1.5-0.9,3.6-1.9,7.5c-0.2,0.7-0.4,1.5-0.8,2.4c-3.3,2.2-6.1,3.9-8.5,5.1
		c-1.4-0.8-2.3-2.7-2.2-4.8c0.2-1.9,0.5-4.4,0.8-7.5c0.2-2.1,0.3-3.9-0.2-4c-0.7-0.2-1.5,3.6-4.6,4.7c-0.4,0.1-1.7,0.6-3,0
		c-1.5-0.7-2.5-2.4-2.6-4.5c0.2-1,0.6-2.5,1.3-4.3c1-2.6,1.7-3.7,1.3-4.8c-0.2-0.6-0.8-1.5-3-2.2c-0.2,0-0.6,0.1-1,0
		c-1.6-0.2-3-2-3.2-3.7c-0.2-1.8,0.9-3.2,1.1-3.4c1.2-1.4,2.6-1.1,3.1-2.4c0.2-0.6,0.2-1.4-0.1-2c-1-1.7-3.8-0.8-6.2-2
		c-1.1-0.5-2.3-1.7-3.2-4.3c10.3-6.5,17-14.4,20.2-18.5c0.7,0,1.4,0.1,2,0.1c0.4,0,0.7,0.1,1,0.1c0,0,6.9,1,14.5,8.1
		c1.4,1.3,2.9,2.9,4.3,4.7c0.4,0.5,1.3,1.7,1.5,3.3c0.3,2.3-0.7,5.2-2.5,5.8c-1.8,0.6-3.7-1.4-4.2-0.8c-0.3,0.4,0.3,1.5,1.3,3.2
		c3.3,5.2,5.2,6.6,4.8,8.3c-0.3,0.9-1.2,1.6-1.9,1.8c-1.7,0.5-3.2-1.2-4.2-0.6C380.1,448.4,380,449.4,380.2,450.1z"/>
	<linearGradient id="SVGID_19_" gradientUnits="userSpaceOnUse" x1="239.0313" y1="429.5031" x2="262.1313" y2="429.5031">
		<stop  offset="0" style="stop-color:#A1B03A"/>
		<stop  offset="0.9464" style="stop-color:#1F5F1D"/>
	</linearGradient>
	<path class="st18" d="M262,428.7c0.1,0,0.1,0.1,0.2,0.1c-5.1,6.8-9.6,11.5-10.3,12.2c-3.8-3.7-9.7-10.7-12.8-21
		c1.9-1.1,3.9-1.9,6-2C251.9,417.6,256.4,423.8,262,428.7z"/>
	<linearGradient id="SVGID_20_" gradientUnits="userSpaceOnUse" x1="236.8146" y1="394.6245" x2="277.579" y2="394.6245">
		<stop  offset="0" style="stop-color:#A1B03A"/>
		<stop  offset="0.9464" style="stop-color:#1F5F1D"/>
	</linearGradient>
	<path class="st19" d="M265.3,424.4c-1.4-1.5-4.5-5.3-10-9.1c-4.2-3-8.1-4.8-10.9-5.8c-2.2-0.2-4.7-0.5-7.5-0.8
		c-1.4-19.5,6.8-40.8,17.4-43.5c6.8-1.7,13.6,4.5,15,5.8c6.1,5.5,7.3,12.8,7.9,16.4C279.3,399.9,272.4,413.9,265.3,424.4z"/>
	<linearGradient id="SVGID_21_" gradientUnits="userSpaceOnUse" x1="245.9175" y1="462.9517" x2="284.7657" y2="439.4199">
		<stop  offset="0" style="stop-color:#865CA0"/>
		<stop  offset="0.2687" style="stop-color:#8B56A3"/>
		<stop  offset="1" style="stop-color:#1F958C;stop-opacity:0.4"/>
	</linearGradient>
	<path class="st20" d="M284.7,453.3c-0.5,1.3-1,2.7-1.8,4.2c-0.2,0.4-0.7,1.3-1.7,2c-1.4,0.9-3.6,1.1-4.5,0.1
		c-0.9-1-0.2-2.8-0.7-2.9c-0.3-0.1-0.9,0.6-1.7,1.8c-2.4,3.7-2.8,5.3-4,5.5c-0.7,0.1-1.4-0.3-1.8-0.7c-0.8-1-0.2-2.4-0.9-2.8
		c-0.4-0.3-1.1,0-1.6,0.3c-1.4,1.1-0.4,3-1.7,5c-0.8,1.3-2.5,2.4-4.1,2.3c-1.9-0.1-3.6-1.6-3.5-2.7c0.1-0.9,1.3-1.4,1.1-2.1
		c-0.1-0.5-0.6-0.7-0.8-0.8c-1.4-0.6-2.6,0.5-5.5,1c-0.5,0.1-1.1,0.2-1.8,0.2c-2.4-1.5-4.3-2.7-5.8-3.9c0.1-1.2,1.1-2.3,2.5-2.8
		c1.3-0.4,3-1,5.1-1.7c1.4-0.5,2.6-1,2.6-1.3c0-0.5-2.8,0.1-4.4-1.5c-0.2-0.2-0.9-0.9-0.9-1.9c0-1.1,0.8-2.3,2.2-3
		c0.7-0.1,1.8-0.3,3.2-0.5c2-0.2,2.9,0,3.5-0.6c0.3-0.3,0.8-1,0.5-2.6c-0.1-0.1-0.2-0.3-0.3-0.6c-0.3-1.1,0.4-2.5,1.5-3.2
		c1.1-0.7,2.4-0.4,2.5-0.3c1.2,0.4,1.5,1.3,2.5,1.3c0.4,0,1-0.3,1.3-0.7c0.8-1.1-0.6-2.7-0.5-4.5c0.1-0.8,0.4-1.9,1.7-3.2
		c5.7,3.8,12,6.4,18.6,8.1c0.1,0.1,0.1,0.3,0.1,0.4c0.1,0.2,0.2,0.5,0.2,0.7C285.8,441.6,287.1,446.3,284.7,453.3z"/>
	
		<linearGradient id="SVGID_22_" gradientUnits="userSpaceOnUse" x1="314.7084" y1="519.5753" x2="335.853" y2="519.5753" gradientTransform="matrix(-1.1702 -0.2863 0.2809 -1.148 549.0952 1148.3234)">
		<stop  offset="0" style="stop-color:#A1B03A"/>
		<stop  offset="0.9464" style="stop-color:#1F5F1D"/>
	</linearGradient>
	<path class="st21" d="M323.7,474.1c0,0-26.1-14.6-19.2-27.5c0.3-0.6,1.3-2.4,3.2-2.5c4.4-0.2,10,8.7,10.9,10
		C321.1,458,324.4,464.8,323.7,474.1z"/>
	
		<linearGradient id="SVGID_23_" gradientUnits="userSpaceOnUse" x1="339.3329" y1="590.0427" x2="355.6555" y2="590.0427" gradientTransform="matrix(1.8682 0.6229 -0.7234 2.1699 203.0722 -1191.8082)">
		<stop  offset="0.4832" style="stop-color:#119A89"/>
		<stop  offset="0.9615" style="stop-color:#224193"/>
	</linearGradient>
	<path class="st22" d="M421.9,271.1c3.9,4.7,12.8,16.7,14.4,33.6c0.5,5.6-0.7,12.5-3.2,26.4c-0.8,4.4-1.5,7.5-3.1,7.8
		c-2.9,0.5-6.7-8.2-8.9-13.2c-5.4-12.3-8.4-19.2-8-29.2C413.6,284.8,418.6,275.9,421.9,271.1z"/>
	
		<linearGradient id="SVGID_24_" gradientUnits="userSpaceOnUse" x1="239.001" y1="614.9838" x2="260.1456" y2="614.9838" gradientTransform="matrix(1.0972 1.9262 -2.4503 1.3958 1554.4977 -1193.187)">
		<stop  offset="0.4832" style="stop-color:#119A89"/>
		<stop  offset="0.9615" style="stop-color:#224193"/>
	</linearGradient>
	<path class="st23" d="M336.3,110.5c0,0,9.6,55.6-23.1,66.4c-1.6,0.5-6.1,2.1-8.9-0.2c-6.4-5.3,1.8-26,3-29.1
		C310.9,138.5,318.6,123.9,336.3,110.5z"/>
	<linearGradient id="SVGID_25_" gradientUnits="userSpaceOnUse" x1="283.4081" y1="203.5405" x2="354.169" y2="162.6867">
		<stop  offset="1.396648e-02" style="stop-color:#2D6833"/>
		<stop  offset="0.9464" style="stop-color:#C6A251"/>
	</linearGradient>
	<path class="st24" d="M337.7,152.9c1.1-0.4,3.4-1.2,6.4-0.8c2.5,0.4,4.3,1.4,5.2,2c0.3,0.9,0.8,2.5,0.6,4.3c-0.2,3.6-2.3,6-3.1,6.8
		c-5.8,2.4-11.7,4.9-17.5,7.3c-0.3,1.7,0.2,2.4,0.5,2.8c2.1,2,6.8-4,15.4-4.7c0,0,8.1-0.7,9.6-3.1c0,0,0.1-0.1,0.1-0.1
		c0.4,0,1.1,3.9,0.6,7.3c-0.2,1.5-0.7,4-2.6,6.8c-6.3,0.3-12.7,0.7-19,1c-1.9,0.5-3.8,1-5.7,1.5c0.9,0.9,1.8,1.9,2.7,2.8
		c3.6-0.3,7.1-0.5,10.7-0.8l9.1,0.5c0,0.9,0,3.9-2,6.8c-2.1,2.9-5,3.9-5.9,4.1c-3.6-0.6-7.5-1.6-11.7-2.9c-3-0.9-5.7-1.9-8.2-2.9
		c-1,0.6-2,1.2-3.1,1.8l13.9,7.7h6.4c0,0.9-0.2,4.9-3.3,7.8c-0.1,0.1-3.6,3.2-7.9,2.7c-8.3-1-11.6-14.5-15.4-13.6
		c-0.6,0.2-1.6,0.8-2.3,3.4c1.9,2,3.7,3.9,5.6,5.9c1,3.1,2,6.1,3.1,9.2c-4.7,6.2-8,6.7-9.7,6.5c-1.7-0.2-2.3-1.1-9.4-7
		c-4.3-3.5-5.3-4.2-6.3-4.9c-3.4-2.1-6.6-3.2-8.7-3.7c-0.7-2.5-1.4-5-2.1-7.5l-3.8-7.9c-2-4.4-3.9-8.7-5.9-13.1
		c-0.1-0.4-0.7-2.9,0.9-5.2c1.8-2.5,4.7-2.7,5-2.7c2,3.1,3.9,6.3,5.9,9.4c0,0,9.9,8,10.5,7.3c0-0.1,0-0.1,0-0.2
		c-0.5-1.9-5.1-8.4-6.5-10.8c0,0-3.5-9.8-3.4-9.7l0,0c0.2-2.3,1.1-2.8,1.4-2.9c1.6-0.8,4.8,1,7.4,5c3.6,4.1,7.2,8.2,10.8,12.2
		c-1.2-4.3-2.3-8.6-3.5-12.9c-2.9-2.4-5.8-4.8-8.7-7.1c1.1-0.9,3.9-3,8.2-3.3c2.6-0.2,4.8,0.4,6,0.9c1.1,2.2,2.4,5.2,3.3,8.8
		c1,4,1.2,7.6,1.1,10.2c1.9-0.3,3.8-0.6,5.7-0.9c-1.3-1.8-2.7-4.3-3.8-7.4c-2-5.6-1.9-10.6-1.5-13.6c0.3-1.1,0.6-2.2,0.9-3.4
		c1.4-0.4,4-1,7.1-0.7c3.3,0.3,5.7,1.5,7,2.3c-1.1,3-2.2,6-3.3,8.9c0.1,2.6,0.1,5.3,0.2,7.9l7.5-14.1
		C333.9,155.9,335.8,154.4,337.7,152.9z"/>
	
		<linearGradient id="SVGID_26_" gradientUnits="userSpaceOnUse" x1="119.4694" y1="250.0442" x2="190.2303" y2="209.1903" gradientTransform="matrix(0.2876 -0.9577 0.9577 0.2876 -132.8199 311.5943)">
		<stop  offset="1.396648e-02" style="stop-color:#2D6833"/>
		<stop  offset="0.9464" style="stop-color:#C6A251"/>
	</linearGradient>
	<path class="st25" d="M108.2,202.6c-0.1-1.1-0.2-3.6,1.1-6.3c1.1-2.3,2.6-3.7,3.5-4.4c1-0.1,2.6,0,4.3,0.6c3.4,1.3,5.1,4,5.6,4.9
		c0.6,6.3,1.3,12.6,1.9,18.8c1.6,0.7,2.4,0.5,2.8,0.3c2.5-1.4-1.9-7.6-0.1-16.1c0,0,1.7-7.9-0.2-10.1c0,0-0.1-0.1-0.1-0.2
		c0.1-0.4,4.1,0.1,7.1,1.5c1.4,0.6,3.6,1.9,5.7,4.4c-1.5,6.2-3,12.3-4.5,18.5c-0.1,2-0.1,4-0.2,5.9c1.2-0.6,2.3-1.2,3.5-1.8
		c0.8-3.5,1.5-7,2.3-10.5l3.1-8.5c0.9,0.2,3.7,1.1,5.9,3.9c2.2,2.9,2.3,5.9,2.3,6.8c-1.6,3.2-3.7,6.8-6.1,10.4
		c-1.7,2.6-3.5,4.9-5.2,7c0.3,1.2,0.6,2.3,0.9,3.5l11.4-11.1l1.8-6.1c0.8,0.3,4.6,1.6,6.5,5.4c0.1,0.2,2.1,4.4,0.3,8.4
		c-3.4,7.6-17.2,7-17.4,10.9c0,0.7,0.3,1.7,2.6,3.2c2.4-1.2,4.8-2.5,7.2-3.7c3.2-0.1,6.5-0.2,9.7-0.3c4.6,6.3,4.1,9.6,3.4,11.2
		c-0.7,1.5-1.7,1.9-9.4,7c-4.6,3.1-5.6,3.8-6.4,4.6c-3,2.6-4.9,5.4-6.1,7.3c-2.6,0-5.2-0.1-7.8-0.1l-8.6,1.4
		c-4.7,0.6-9.5,1.2-14.2,1.9c-0.4,0-3-0.1-4.8-2.4c-1.9-2.4-1.2-5.2-1.1-5.5c3.6-1,7.2-1.9,10.7-2.9c0,0,10.5-7.1,10-7.9
		c0-0.1-0.1-0.1-0.2-0.1c-2,0-9.6,2.5-12.2,3.1c0,0-10.4,0.5-10.3,0.5l0,0c-2.1-0.9-2.4-1.9-2.4-2.2c-0.3-1.8,2.3-4.3,6.9-5.7
		c4.9-2.3,9.9-4.5,14.8-6.8c-4.4-0.1-8.9-0.2-13.3-0.3c-3.1,2.1-6.2,4.2-9.3,6.3c-0.5-1.3-1.8-4.6-0.9-8.8c0.6-2.6,1.8-4.4,2.6-5.5
		c2.4-0.5,5.7-0.8,9.4-0.6c4.1,0.2,7.6,1,10.1,1.8c0.3-1.9,0.5-3.8,0.8-5.8c-2.1,0.7-4.9,1.4-8.2,1.5c-6,0.3-10.7-1.3-13.4-2.4
		c-1-0.6-2-1.2-3-1.9c0-1.5,0.2-4.1,1.4-7c1.3-3,3.1-5,4.2-6.1c2.5,1.9,5.1,3.8,7.6,5.7c2.5,0.7,5.1,1.4,7.6,2.1l-11.4-11.2
		C109.9,207,109,204.8,108.2,202.6z"/>
	
		<linearGradient id="SVGID_27_" gradientUnits="userSpaceOnUse" x1="94.5213" y1="299.3956" x2="155.9413" y2="299.3956" gradientTransform="matrix(0.8834 0.4657 -0.5 0.9486 160.1275 -44.3399)">
		<stop  offset="0" style="stop-color:#A1B03A"/>
		<stop  offset="0.9464" style="stop-color:#1F5F1D"/>
	</linearGradient>
	<path class="st26" d="M110.8,252c6.2,3.7,16.7,11.3,23.7,24.5c12,22.6,10.4,54.8-2.6,60.8c-7.3,3.4-17.1-2-19.1-3.1
		c-8.8-4.8-12.5-12.7-14.3-16.6C86.7,292.1,109.3,254.4,110.8,252z"/>
	<linearGradient id="SVGID_28_" gradientUnits="userSpaceOnUse" x1="43.0105" y1="391.2224" x2="128.282" y2="339.5703">
		<stop  offset="0.4832" style="stop-color:#119A89"/>
		<stop  offset="0.9615" style="stop-color:#224193"/>
	</linearGradient>
	<path class="st27" d="M133.4,350.5c1,4.1,3.6,16.8-3.7,27.2c-1.1,1.6-2.4,3-3.8,4.2c-6.8,2.9-10.5,2.2-12.6,0.9
		c-3.5-2.1-4.7-6.7-7.7-6.5c-1.1,0.1-2.1,0.7-2.7,1.5c-1.3,1.8,0.3,3.5-0.5,6.3c-0.1,0.3-0.9,3-3.4,4.3c-2.4,1.2-5.9,0.9-7.5-1.1
		c-0.4-0.5-0.6-1-0.8-1.3c-2.7-2.4-4.5-2.4-5.4-2.2c-1.9,0.4-2.6,2.3-5.2,5.9c-1.7,2.4-3.3,4.3-4.4,5.4c-2.8,1.6-5.9,1.8-8,0.4
		c-1.8-1.2-2.3-3.3-2.5-4c-1.2-5.1,3.1-9.6,2.2-10.3c-0.6-0.5-2.8,1.2-5.4,3.3c-3.7,3-6.8,5.6-9,7.5c-2.7,2-5.8,2.5-8,1.2
		c-1.7-1-2.4-2.6-2.8-3.5c-1.6-3.9,0.1-7.9,0.8-9.6c1.1-2.7,2.6-4.4,3.9-5.8c4.2-4.8,7.6-5.6,8.1-9.1c0.1-0.5,0.3-1.8-0.5-2.6
		c-1.2-1.2-3.4,0.4-5.2-0.5c-2.3-1.2-3-6.3-1.1-10c1.8-3.2,5.6-5,8.9-5c5.1,0,7.5,4.4,11.1,2.9c1.1-0.4,2.4-1.4,2.4-2.6
		c0-1.8-3.4-2.3-4.2-5.1c-0.4-1.2-0.2-3.1,0.8-4.2c1.8-2.1,5.3-0.8,14.7-0.8c3.1,0,5-0.2,5.2-1c0.3-1.2-3.7-2-4.5-4.9
		c-0.8-3,2.1-6.8,5.4-8.4c2.3-1.1,4.6-0.9,5.6-0.8c22.3,2.3,32.2,14.1,32.2,14.1C128,339,131.3,343.6,133.4,350.5z"/>
	<g id="Layer_8">
		
			<linearGradient id="SVGID_29_" gradientUnits="userSpaceOnUse" x1="486.2284" y1="638.178" x2="502.266" y2="638.178" gradientTransform="matrix(-0.8517 -0.4047 0.3984 -0.8384 311.9452 1108.2983)">
			<stop  offset="0" style="stop-color:#865CA0"/>
			<stop  offset="0.2687" style="stop-color:#8B56A3"/>
			<stop  offset="1" style="stop-color:#1F958C;stop-opacity:0.4"/>
		</linearGradient>
		<path class="st28" d="M148.8,383.3c0,0-13.4-11.7-7.8-18.3c0.3-0.3,1-1.3,2.2-1.1c2.6,0.4,4.8,6.3,5.1,7.1
			C149.2,373.6,150.3,378,148.8,383.3z"/>
		
			<linearGradient id="SVGID_30_" gradientUnits="userSpaceOnUse" x1="467.5525" y1="636.4417" x2="483.5901" y2="636.4417" gradientTransform="matrix(-0.9356 -0.1171 0.1153 -0.921 531.1714 1025.4908)">
			<stop  offset="0" style="stop-color:#865CA0"/>
			<stop  offset="0.2687" style="stop-color:#8B56A3"/>
			<stop  offset="1" style="stop-color:#1F958C;stop-opacity:0.4"/>
		</linearGradient>
		<path class="st29" d="M166.2,392.1c0,0-16.4-6.9-13.2-15c0.2-0.4,0.6-1.5,1.7-1.7c2.6-0.4,6.5,4.5,7.1,5.2
			C163.5,382.7,165.9,386.5,166.2,392.1z"/>
		
			<linearGradient id="SVGID_31_" gradientUnits="userSpaceOnUse" x1="452.8741" y1="631.0669" x2="468.9117" y2="631.0669" gradientTransform="matrix(-0.7779 -9.738703e-02 8.123072e-02 -0.6488 479.006 841.9185)">
			<stop  offset="0" style="stop-color:#865CA0"/>
			<stop  offset="0.2687" style="stop-color:#8B56A3"/>
			<stop  offset="1" style="stop-color:#1F958C;stop-opacity:0.4"/>
		</linearGradient>
		<path class="st30" d="M177.3,393.7c0,0-13.7-5.1-11.2-10.8c0.1-0.3,0.5-1.1,1.4-1.2c2.1-0.3,5.5,3.2,6,3.8
			C175,387,177,389.7,177.3,393.7z"/>
		
			<linearGradient id="SVGID_32_" gradientUnits="userSpaceOnUse" x1="438.2375" y1="632.1641" x2="454.2751" y2="632.1641" gradientTransform="matrix(-0.7644 0.1742 -0.1453 -0.6376 616.162 713.6061)">
			<stop  offset="0" style="stop-color:#865CA0"/>
			<stop  offset="0.2687" style="stop-color:#8B56A3"/>
			<stop  offset="1" style="stop-color:#1F958C;stop-opacity:0.4"/>
		</linearGradient>
		<path class="st31" d="M190.5,392.1c0,0-14.6-0.1-14.2-6.3c0-0.3,0.1-1.2,0.9-1.6c1.9-1,6.2,1.2,6.9,1.5
			C186,386.7,188.9,388.5,190.5,392.1z"/>
		
			<linearGradient id="SVGID_33_" gradientUnits="userSpaceOnUse" x1="420.8859" y1="622.8812" x2="436.9235" y2="622.8812" gradientTransform="matrix(-0.7813 6.473834e-02 -5.399827e-02 -0.6517 566.1447 769.3591)">
			<stop  offset="0" style="stop-color:#865CA0"/>
			<stop  offset="0.2687" style="stop-color:#8B56A3"/>
			<stop  offset="1" style="stop-color:#1F958C;stop-opacity:0.4"/>
		</linearGradient>
		<path class="st32" d="M204.1,396c0,0-14.5-2.2-13.1-8.2c0.1-0.3,0.2-1.1,1.1-1.4c2-0.7,6,2.1,6.6,2.5
			C200.4,390,203,392.2,204.1,396z"/>
		
			<linearGradient id="SVGID_34_" gradientUnits="userSpaceOnUse" x1="460.2581" y1="649.105" x2="476.2957" y2="649.105" gradientTransform="matrix(-0.428 0.6568 -0.5478 -0.357 724.7703 297.4676)">
			<stop  offset="0" style="stop-color:#865CA0"/>
			<stop  offset="0.2687" style="stop-color:#8B56A3"/>
			<stop  offset="1" style="stop-color:#1F958C;stop-opacity:0.4"/>
		</linearGradient>
		<path class="st33" d="M176.6,371c0,0-10.6,10.1-14.6,5.3c-0.2-0.2-0.8-0.9-0.4-1.8c0.7-2,5.3-3.5,6-3.7
			C169.6,370.2,173,369.5,176.6,371z"/>
		
			<linearGradient id="SVGID_35_" gradientUnits="userSpaceOnUse" x1="404.3288" y1="617.5572" x2="420.3664" y2="617.5572" gradientTransform="matrix(-0.7813 6.473834e-02 -5.399827e-02 -0.6517 566.1447 769.3591)">
			<stop  offset="0" style="stop-color:#865CA0"/>
			<stop  offset="0.2687" style="stop-color:#8B56A3"/>
			<stop  offset="1" style="stop-color:#1F958C;stop-opacity:0.4"/>
		</linearGradient>
		<path class="st34" d="M217.3,398.4c0,0-14.5-2.2-13.1-8.2c0.1-0.3,0.2-1.1,1.1-1.4c2-0.7,6,2.1,6.6,2.5
			C213.7,392.4,216.2,394.6,217.3,398.4z"/>
		
			<linearGradient id="SVGID_36_" gradientUnits="userSpaceOnUse" x1="386.8909" y1="609.8738" x2="402.9285" y2="609.8738" gradientTransform="matrix(-0.7813 6.473834e-02 -5.399827e-02 -0.6517 566.1447 769.3591)">
			<stop  offset="0" style="stop-color:#865CA0"/>
			<stop  offset="0.2687" style="stop-color:#8B56A3"/>
			<stop  offset="1" style="stop-color:#1F958C;stop-opacity:0.4"/>
		</linearGradient>
		<path class="st35" d="M231.4,402.3c0,0-14.5-2.2-13.1-8.2c0.1-0.3,0.2-1.1,1.1-1.4c2-0.7,6,2.1,6.6,2.5
			C227.7,396.3,230.3,398.5,231.4,402.3z"/>
		
			<linearGradient id="SVGID_37_" gradientUnits="userSpaceOnUse" x1="377.9889" y1="680.009" x2="394.0265" y2="680.009" gradientTransform="matrix(-0.6672 -0.4116 -0.3433 0.5565 710.6428 166.6411)">
			<stop  offset="0" style="stop-color:#865CA0"/>
			<stop  offset="0.2687" style="stop-color:#8B56A3"/>
			<stop  offset="1" style="stop-color:#1F958C;stop-opacity:0.4"/>
		</linearGradient>
		<path class="st36" d="M227.8,385c0,0-13.9-4.6-15.4,1.4c-0.1,0.3-0.3,1.1,0.3,1.8c1.5,1.5,6.3,0.9,7,0.8
			C221.8,388.7,225.1,387.9,227.8,385z"/>
		
			<linearGradient id="SVGID_38_" gradientUnits="userSpaceOnUse" x1="395.8396" y1="687.203" x2="411.8772" y2="687.203" gradientTransform="matrix(-0.6672 -0.4116 -0.3433 0.5565 710.6428 166.6411)">
			<stop  offset="0" style="stop-color:#865CA0"/>
			<stop  offset="0.2687" style="stop-color:#8B56A3"/>
			<stop  offset="1" style="stop-color:#1F958C;stop-opacity:0.4"/>
		</linearGradient>
		<path class="st37" d="M213.4,381.6c0,0-13.9-4.6-15.4,1.4c-0.1,0.3-0.3,1.1,0.3,1.8c1.5,1.5,6.3,0.9,7,0.8
			C207.4,385.4,210.7,384.5,213.4,381.6z"/>
		
			<linearGradient id="SVGID_39_" gradientUnits="userSpaceOnUse" x1="414.1657" y1="695.5637" x2="430.2033" y2="695.5637" gradientTransform="matrix(-0.6672 -0.4116 -0.3433 0.5565 710.6428 166.6411)">
			<stop  offset="0" style="stop-color:#865CA0"/>
			<stop  offset="0.2687" style="stop-color:#8B56A3"/>
			<stop  offset="1" style="stop-color:#1F958C;stop-opacity:0.4"/>
		</linearGradient>
		<path class="st38" d="M198.3,378.7c0,0-13.9-4.6-15.4,1.4c-0.1,0.3-0.3,1.1,0.3,1.8c1.5,1.5,6.3,0.9,7,0.8
			C192.3,382.5,195.6,381.6,198.3,378.7z"/>
		
			<linearGradient id="SVGID_40_" gradientUnits="userSpaceOnUse" x1="428.7976" y1="700.2366" x2="444.8352" y2="700.2366" gradientTransform="matrix(-0.6927 -0.1805 -0.1384 0.531 577.6445 84.7186)">
			<stop  offset="0" style="stop-color:#865CA0"/>
			<stop  offset="0.2687" style="stop-color:#8B56A3"/>
			<stop  offset="1" style="stop-color:#1F958C;stop-opacity:0.4"/>
		</linearGradient>
		<path class="st39" d="M184.9,374.8c0,0-13.3-0.5-12.9,4.7c0,0.2,0,1,0.8,1.4c1.7,0.9,5.7-0.7,6.3-1
			C180.7,379.2,183.3,377.8,184.9,374.8z"/>
		
			<linearGradient id="SVGID_41_" gradientUnits="userSpaceOnUse" x1="459.2874" y1="671.5281" x2="475.325" y2="671.5281" gradientTransform="matrix(-0.307 0.4711 -0.7854 -0.5118 828.5019 491.0667)">
			<stop  offset="0" style="stop-color:#865CA0"/>
			<stop  offset="0.2687" style="stop-color:#8B56A3"/>
			<stop  offset="1" style="stop-color:#1F958C;stop-opacity:0.4"/>
		</linearGradient>
		<path class="st40" d="M166.5,367.9c0,0-9.6,5.9-16,0.2c-0.3-0.3-1.2-1.1-1.1-1.8c0.2-1.6,5.3-1.5,6.1-1.5
			C157.7,364.9,161.6,365.4,166.5,367.9z"/>
		
			<linearGradient id="SVGID_42_" gradientUnits="userSpaceOnUse" x1="455.9835" y1="683.7495" x2="472.0211" y2="683.7495" gradientTransform="matrix(-0.307 0.4711 -0.7854 -0.5118 828.5019 491.0667)">
			<stop  offset="0" style="stop-color:#865CA0"/>
			<stop  offset="0.2687" style="stop-color:#8B56A3"/>
			<stop  offset="1" style="stop-color:#1F958C;stop-opacity:0.4"/>
		</linearGradient>
		<path class="st41" d="M157.9,360.1c0,0-9.6,5.9-16,0.2c-0.3-0.3-1.2-1.1-1.1-1.8c0.2-1.6,5.3-1.5,6.1-1.5
			C149.1,357.1,153,357.6,157.9,360.1z"/>
		
			<linearGradient id="SVGID_43_" gradientUnits="userSpaceOnUse" x1="417.6338" y1="498.0943" x2="433.6714" y2="498.0943" gradientTransform="matrix(-0.2731 0.4191 -0.5692 -0.3709 632.2501 399.0185)">
			<stop  offset="0" style="stop-color:#865CA0"/>
			<stop  offset="0.2687" style="stop-color:#8B56A3"/>
			<stop  offset="1" style="stop-color:#1F958C;stop-opacity:0.4"/>
		</linearGradient>
		<path class="st42" d="M239.3,392.3c0,0-7.9,5.7-12.4,1.4c-0.2-0.2-0.9-0.8-0.7-1.4c0.3-1.4,4.2-1.7,4.8-1.7
			C232.7,390.5,235.7,390.6,239.3,392.3z"/>
		<linearGradient id="SVGID_44_" gradientUnits="userSpaceOnUse" x1="226.159" y1="374.7697" x2="135.4468" y2="374.7697">
			<stop  offset="0" style="stop-color:#865CA0"/>
			<stop  offset="0.2687" style="stop-color:#8B56A3"/>
			<stop  offset="1" style="stop-color:#5B2B5E"/>
		</linearGradient>
		<path class="st43" d="M135.4,356.6c0.4,0.8,1.1,2,2.3,3.2c3.1,3.2,5.3,2.3,8,5.3c1.5,1.7,1.5,2.6,3.6,4.6c0.8,0.7,1,0.8,2.8,2.1
			c2.4,1.7,4.3,3.2,5.9,4.6c3.5,2.8,3.7,3.2,5.1,3.8c1.7,0.7,1.9,0.2,4.7,0.9c3.7,0.9,3.8,1.7,6.6,2.2c2,0.3,2.1-0.1,5.2,0.2
			c2.5,0.2,3.9,0.5,5.7,0.9c2.2,0.4,5.4,0.8,9.4,0.9c1.8,0.9,4.6,2,8.2,2.6c3.1,0.5,3.1,0.1,5.9,0.7c2.3,0.5,2.9,1,9,2.9
			c1.2,0.4,1.7,0.5,2.5,0.7c2.4,0.6,4.4,0.8,5.7,0.9c-0.8-0.3-2-0.7-3.5-1.1c-3.9-1.1-5.1-1-7.9-2c-3.2-1-2.6-1.5-5.1-2.2
			c-3.3-0.9-4.5-0.3-7.7-0.9c-1.6-0.3-3.8-0.9-6.3-2.4c-4-0.1-7.2-0.5-9.4-0.8c-2.3-0.4-3-0.6-5.4-0.9c-4.2-0.5-4.4,0-6.7-0.6
			c-2.5-0.6-2.8-1.4-6-2.4c-1.8-0.6-3.3-0.9-4.3-1c-0.5-0.3-7.4-5.1-11-7.9c-0.9-0.7-1.7-1.4-2.6-2.3c-1.5-1.5-2.5-2.7-2.7-2.9
			C146.3,364,143.4,361.5,135.4,356.6z"/>
		
			<linearGradient id="SVGID_45_" gradientUnits="userSpaceOnUse" x1="341.9542" y1="648.5418" x2="361.2017" y2="648.5418" gradientTransform="matrix(-0.4551 -0.8259 0.813 -0.448 -88.2433 968.8203)">
			<stop  offset="0" style="stop-color:#865CA0"/>
			<stop  offset="0.2687" style="stop-color:#8B56A3"/>
			<stop  offset="1" style="stop-color:#1F958C;stop-opacity:0.4"/>
		</linearGradient>
		<path class="st44" d="M275.5,400.3c0,0-4.8-20.7,5.2-23.3c0.5-0.1,1.9-0.5,2.8,0.5c2.2,2.2,0.3,9.4,0,10.5
			C282.6,391.1,280.6,396.1,275.5,400.3z"/>
		
			<linearGradient id="SVGID_46_" gradientUnits="userSpaceOnUse" x1="324.1061" y1="598.9445" x2="343.287" y2="598.9445" gradientTransform="matrix(-0.6911 -0.6415 0.6315 -0.6803 138.0766 1029.6238)">
			<stop  offset="0" style="stop-color:#865CA0"/>
			<stop  offset="0.2687" style="stop-color:#8B56A3"/>
			<stop  offset="1" style="stop-color:#1F958C;stop-opacity:0.4"/>
		</linearGradient>
		<path class="st45" d="M286.1,420.9c0,0-11-18.2-2.3-23.8c0.4-0.3,1.6-1.1,2.8-0.5c2.7,1.4,3.2,8.9,3.2,10
			C290,409.9,289.7,415.3,286.1,420.9z"/>
		
			<linearGradient id="SVGID_47_" gradientUnits="userSpaceOnUse" x1="277.6152" y1="576.9642" x2="296.7795" y2="576.9642" gradientTransform="matrix(-0.5746 -0.5333 0.4448 -0.4793 202.9332 850.1413)">
			<stop  offset="0" style="stop-color:#865CA0"/>
			<stop  offset="0.2687" style="stop-color:#8B56A3"/>
			<stop  offset="1" style="stop-color:#1F958C;stop-opacity:0.4"/>
		</linearGradient>
		<path class="st46" d="M295.7,430.3c0,0-9.6-14.6-3.3-18.3c0.3-0.2,1.2-0.7,2.1-0.2c2.2,1.2,3,7,3.1,7.8
			C298,422.1,298.2,426.2,295.7,430.3z"/>
		<linearGradient id="SVGID_48_" gradientUnits="userSpaceOnUse" x1="299.2555" y1="425.4858" x2="308.3913" y2="425.4858">
			<stop  offset="0" style="stop-color:#865CA0"/>
			<stop  offset="0.2687" style="stop-color:#8B56A3"/>
			<stop  offset="1" style="stop-color:#1F958C;stop-opacity:0.4"/>
		</linearGradient>
		<path class="st47" d="M308.4,428.7c-2.3,0.5-4.6,0.9-7,1.3c-1.9-2.8-3-5.8-1.1-8c0.2-0.3,0.9-1.1,2-0.9c2.5,0.4,5.2,5.5,5.6,6.3
			C308,427.7,308.2,428.2,308.4,428.7z"/>
		<linearGradient id="SVGID_49_" gradientUnits="userSpaceOnUse" x1="313.0813" y1="446.4837" x2="320.6309" y2="446.4837">
			<stop  offset="0" style="stop-color:#865CA0"/>
			<stop  offset="0.2687" style="stop-color:#8B56A3"/>
			<stop  offset="1" style="stop-color:#1F958C;stop-opacity:0.4"/>
		</linearGradient>
		<path class="st48" d="M319.8,451.3c0,0-4.3-4.3-6.7-8.8c2.4-0.2,4.7-0.5,6.9-0.9C320.6,444.1,321.1,447.5,319.8,451.3z"/>
		
			<linearGradient id="SVGID_50_" gradientUnits="userSpaceOnUse" x1="420.8966" y1="441.4032" x2="439.8098" y2="441.4032" gradientTransform="matrix(-0.731 0.2832 -0.2362 -0.6097 720.3878 551.6934)">
			<stop  offset="0" style="stop-color:#865CA0"/>
			<stop  offset="0.2687" style="stop-color:#8B56A3"/>
			<stop  offset="1" style="stop-color:#1F958C;stop-opacity:0.4"/>
		</linearGradient>
		<path class="st49" d="M310.7,407.7c0,0-17.1,2.4-17.6-5c0-0.4-0.1-1.4,0.8-2c2.1-1.5,7.5,0.3,8.3,0.6
			C304.5,402,308.2,403.7,310.7,407.7z"/>
		
			<linearGradient id="SVGID_51_" gradientUnits="userSpaceOnUse" x1="232.9448" y1="518.5838" x2="252.0437" y2="518.5838" gradientTransform="matrix(-0.672 -0.4037 0.3367 -0.5605 316.0434 842.127)">
			<stop  offset="0" style="stop-color:#865CA0"/>
			<stop  offset="0.2687" style="stop-color:#8B56A3"/>
			<stop  offset="1" style="stop-color:#1F958C;stop-opacity:0.4"/>
		</linearGradient>
		<path class="st50" d="M330.8,462.9c0,0-12.4-12.2-6.9-17.2c0.3-0.2,1-0.9,2.1-0.6c2.4,0.8,4.3,6.2,4.6,7
			C331.4,454.5,332.4,458.4,330.8,462.9z"/>
		
			<linearGradient id="SVGID_52_" gradientUnits="userSpaceOnUse" x1="212.2179" y1="509.2499" x2="231.3168" y2="509.2499" gradientTransform="matrix(-0.672 -0.4037 0.3367 -0.5605 316.0434 842.127)">
			<stop  offset="0" style="stop-color:#865CA0"/>
			<stop  offset="0.2687" style="stop-color:#8B56A3"/>
			<stop  offset="1" style="stop-color:#1F958C;stop-opacity:0.4"/>
		</linearGradient>
		<path class="st51" d="M341.6,476.5c0,0-12.4-12.2-6.9-17.2c0.3-0.2,1-0.9,2.1-0.6c2.4,0.8,4.3,6.2,4.6,7
			C342.2,468.1,343.2,472,341.6,476.5z"/>
		
			<linearGradient id="SVGID_53_" gradientUnits="userSpaceOnUse" x1="189.9093" y1="635.7748" x2="209.0259" y2="635.7748" gradientTransform="matrix(-0.3013 -0.7237 -0.6037 0.2513 785.3198 437.2419)">
			<stop  offset="0" style="stop-color:#865CA0"/>
			<stop  offset="0.2687" style="stop-color:#8B56A3"/>
			<stop  offset="1" style="stop-color:#1F958C;stop-opacity:0.4"/>
		</linearGradient>
		<path class="st52" d="M350.1,457.2c0,0-10.1-14.2-15.8-9.4c-0.3,0.2-1.1,0.9-0.9,2c0.4,2.5,5.4,5.3,6.2,5.7
			C341.8,456.6,345.5,458.1,350.1,457.2z"/>
		<linearGradient id="SVGID_54_" gradientUnits="userSpaceOnUse" x1="325.4912" y1="440.955" x2="338.6313" y2="440.955">
			<stop  offset="0" style="stop-color:#865CA0"/>
			<stop  offset="0.2687" style="stop-color:#8B56A3"/>
			<stop  offset="1" style="stop-color:#1F958C;stop-opacity:0.4"/>
		</linearGradient>
		<path class="st53" d="M338.6,443.8c-4.6,0.9-8.3-0.6-10.5-1.8c-0.3-0.2-1.4-0.8-2.6-1.6c2.8-0.7,5.4-1.6,7.9-2.6c0,0,0,0,0,0
			C336.4,440.6,338.6,443.8,338.6,443.8z"/>
		<linearGradient id="SVGID_55_" gradientUnits="userSpaceOnUse" x1="309.4403" y1="423.7285" x2="321.4813" y2="423.7285">
			<stop  offset="0" style="stop-color:#865CA0"/>
			<stop  offset="0.2687" style="stop-color:#8B56A3"/>
			<stop  offset="1" style="stop-color:#1F958C;stop-opacity:0.4"/>
		</linearGradient>
		<path class="st54" d="M321.5,425c-0.5,0.2-0.9,0.3-1.3,0.4c-2.1,0.7-4.3,1.4-6.6,2c-1.7-1.1-3.8-2.8-4.1-4.4
			c-0.2-1.1,0.6-1.8,0.9-2C313.5,418.3,318.1,421.6,321.5,425z"/>
		
			<linearGradient id="SVGID_56_" gradientUnits="userSpaceOnUse" x1="231.4293" y1="728.1295" x2="250.4552" y2="728.1295" gradientTransform="matrix(-0.4569 -0.551 -0.4224 0.3502 725.1968 293.0709)">
			<stop  offset="0" style="stop-color:#865CA0"/>
			<stop  offset="0.2687" style="stop-color:#8B56A3"/>
			<stop  offset="1" style="stop-color:#1F958C;stop-opacity:0.4"/>
		</linearGradient>
		<path class="st55" d="M316,417.2c0,0-12.4-9.8-15.6-4.5c-0.2,0.3-0.6,1-0.2,1.9c1,2.1,5.9,3.3,6.7,3.5
			C309,418.6,312.5,419,316,417.2z"/>
		
			<linearGradient id="SVGID_57_" gradientUnits="userSpaceOnUse" x1="405.2859" y1="529.2418" x2="424.1389" y2="529.2418" gradientTransform="matrix(-0.5243 0.2031 -0.3387 -0.8741 691.5355 769.4292)">
			<stop  offset="0" style="stop-color:#865CA0"/>
			<stop  offset="0.2687" style="stop-color:#8B56A3"/>
			<stop  offset="1" style="stop-color:#1F958C;stop-opacity:0.4"/>
		</linearGradient>
		<path class="st56" d="M303.1,397.7c0,0-13.3-1-15.5-11.1c-0.1-0.5-0.4-1.9,0.2-2.5c1.3-1.5,6.2,2.3,6.9,2.8
			C296.7,388.5,300.1,391.7,303.1,397.7z"/>
		
			<linearGradient id="SVGID_58_" gradientUnits="userSpaceOnUse" x1="401.2604" y1="543.8732" x2="420.1135" y2="543.8732" gradientTransform="matrix(-0.5243 0.2031 -0.3387 -0.8741 691.5355 769.4292)">
			<stop  offset="0" style="stop-color:#865CA0"/>
			<stop  offset="0.2687" style="stop-color:#8B56A3"/>
			<stop  offset="1" style="stop-color:#1F958C;stop-opacity:0.4"/>
		</linearGradient>
		<path class="st57" d="M300.3,384.1c0,0-13.3-1-15.5-11.1c-0.1-0.5-0.4-1.9,0.2-2.5c1.3-1.5,6.2,2.3,6.9,2.8
			C293.9,374.9,297.3,378.1,300.3,384.1z"/>
		
			<linearGradient id="SVGID_59_" gradientUnits="userSpaceOnUse" x1="350.7202" y1="279.8484" x2="369.5956" y2="279.8484" gradientTransform="matrix(-0.4665 0.1807 -0.2454 -0.6335 585.9783 580.0994)">
			<stop  offset="0" style="stop-color:#865CA0"/>
			<stop  offset="0.2687" style="stop-color:#8B56A3"/>
			<stop  offset="1" style="stop-color:#1F958C;stop-opacity:0.4"/>
		</linearGradient>
		<path class="st58" d="M356.1,472.4c0,0-11.5,0-12.8-7.4c-0.1-0.4-0.3-1.4,0.3-1.9c1.2-1.2,5.2,1.3,5.8,1.7
			C351.1,465.9,353.8,468.1,356.1,472.4z"/>
		<linearGradient id="SVGID_60_" gradientUnits="userSpaceOnUse" x1="312.3613" y1="396.4587" x2="280.9575" y2="396.4587">
			<stop  offset="0" style="stop-color:#865CA0"/>
			<stop  offset="0.2687" style="stop-color:#8B56A3"/>
			<stop  offset="1" style="stop-color:#5B2B5E"/>
		</linearGradient>
		<path class="st59" d="M312.4,427.7c-0.4,0.1-0.7,0.2-1.1,0.3c-0.4-0.4-0.8-0.8-1.1-1.1c-1.6-1.7-2.7-3-4.9-4.9
			c-2.8-2.4-3.2-2.1-4.9-3.8c-2.4-2.4-2-3.3-4.9-6.8c-2.3-2.7-2.7-2.3-3.9-4.2c-0.9-1.5-0.9-2-2.3-7.2c-0.7-2.5-1.4-5.2-2.5-8.6
			c-0.8-2.5-1-2.8-1.3-4c-0.7-3.4,0-4.3-0.4-7c-0.6-4.8-3.3-5.5-4.1-10.8c-0.3-2-0.2-3.7,0-4.7c4.3,10.3,5.3,14.8,5.5,17
			c0,0.4,0.1,2.3,0.5,4.7c0.3,1.5,0.6,2.7,0.9,4c1.4,5.3,4.8,14.8,5,15.4c0.8,0.9,2.1,2.2,3.4,4c2.4,3.3,2.2,4.3,4.1,6.6
			c1.8,2.2,2.4,1.9,6.1,5.3c2.1,1.9,2.6,2.7,4.5,4.6C311.5,426.9,311.9,427.3,312.4,427.7z"/>
		<linearGradient id="SVGID_61_" gradientUnits="userSpaceOnUse" x1="343.0513" y1="452.2587" x2="323.1212" y2="452.2587">
			<stop  offset="0" style="stop-color:#865CA0"/>
			<stop  offset="0.2687" style="stop-color:#8B56A3"/>
			<stop  offset="1" style="stop-color:#5B2B5E"/>
		</linearGradient>
		<path class="st60" d="M343.1,463.7c-1.2-1-3-2.6-4.9-4.8c-0.6-0.7-1-1.3-1.9-2.4c-4.5-6.1-4.8-7-6.6-9.1c-2.2-2.6-2.6-2.1-5.2-4.8
			c-0.5-0.5-1-1.1-1.4-1.6c0.3-0.1,0.6-0.1,1-0.2c2.7,2.9,4.2,3.1,6.7,6.3c1.9,2.5,1.1,2.5,3.4,5.7c2.1,2.9,3.3,3.6,6.2,7.4
			C341.6,461.7,342.5,462.9,343.1,463.7z"/>
		
			<linearGradient id="SVGID_62_" gradientUnits="userSpaceOnUse" x1="518.8074" y1="793.2834" x2="534.1583" y2="793.2834" gradientTransform="matrix(-0.1564 0.9299 0.9154 0.1539 -375.4131 -481.9866)">
			<stop  offset="0" style="stop-color:#865CA0"/>
			<stop  offset="0.2687" style="stop-color:#8B56A3"/>
			<stop  offset="1" style="stop-color:#1F958C;stop-opacity:0.4"/>
		</linearGradient>
		<path class="st61" d="M257.5,120.5c0,0,4.8,17.7,18.6,17.6c0.7,0,2.6,0,3.3-1c1.6-2.2-4.6-7.6-5.5-8.4
			C271.2,126.3,266.2,122.7,257.5,120.5z"/>
		
			<linearGradient id="SVGID_63_" gradientUnits="userSpaceOnUse" x1="452.5604" y1="792.4066" x2="466.9241" y2="792.4066" gradientTransform="matrix(-0.4401 0.8339 0.8209 0.4333 -181.9301 -614.2064)">
			<stop  offset="0" style="stop-color:#865CA0"/>
			<stop  offset="0.2687" style="stop-color:#8B56A3"/>
			<stop  offset="1" style="stop-color:#1F958C;stop-opacity:0.4"/>
		</linearGradient>
		<path class="st62" d="M260.1,101.6c0,0-4.3,17,9.5,19.6c0.7,0.1,2.6,0.5,3.8-0.2c2.7-1.7-0.7-7.8-1.2-8.7
			C270.7,109.6,267.5,105.3,260.1,101.6z"/>
		
			<linearGradient id="SVGID_64_" gradientUnits="userSpaceOnUse" x1="434.1149" y1="853.9956" x2="448.8419" y2="853.9956" gradientTransform="matrix(-0.3659 0.6933 0.5783 0.3052 -61.3728 -466.2662)">
			<stop  offset="0" style="stop-color:#865CA0"/>
			<stop  offset="0.2687" style="stop-color:#8B56A3"/>
			<stop  offset="1" style="stop-color:#1F958C;stop-opacity:0.4"/>
		</linearGradient>
		<path class="st63" d="M267.2,92c0,0-4.5,13.8,5.5,15.4c0.5,0.1,1.8,0.3,2.8-0.3c2.1-1.5,0.1-6.3-0.2-7
			C274.4,98,272.4,94.7,267.2,92z"/>
		
			<linearGradient id="SVGID_65_" gradientUnits="userSpaceOnUse" x1="354.3899" y1="837.0532" x2="371.0905" y2="837.0532" gradientTransform="matrix(-0.5807 0.5266 0.4393 0.4844 122.3776 -505.1501)">
			<stop  offset="0" style="stop-color:#865CA0"/>
			<stop  offset="0.2687" style="stop-color:#8B56A3"/>
			<stop  offset="1" style="stop-color:#1F958C;stop-opacity:0.4"/>
		</linearGradient>
		<path class="st64" d="M280.4,82.7c0,0-12.1,11.4-3.2,14.9c0.4,0.2,1.6,0.7,2.9,0.3c2.9-0.9,3.6-5.6,3.7-6.3
			C284.1,89.6,284,86.3,280.4,82.7z"/>
		<linearGradient id="SVGID_66_" gradientUnits="userSpaceOnUse" x1="285.3013" y1="71.4637" x2="289.7713" y2="71.4637">
			<stop  offset="0" style="stop-color:#865CA0"/>
			<stop  offset="0.2687" style="stop-color:#8B56A3"/>
			<stop  offset="1" style="stop-color:#1F958C;stop-opacity:0.4"/>
		</linearGradient>
		<path class="st65" d="M289.8,73.2c-1.8-0.5-3.2-0.8-4.5-1.7c0.6-1,1.1-1.7,1.1-1.7C287.9,70.9,289,72,289.8,73.2z"/>
		<linearGradient id="SVGID_67_" gradientUnits="userSpaceOnUse" x1="282.4389" y1="81.2408" x2="290.6212" y2="81.2408">
			<stop  offset="0" style="stop-color:#865CA0"/>
			<stop  offset="0.2687" style="stop-color:#8B56A3"/>
			<stop  offset="1" style="stop-color:#1F958C;stop-opacity:0.4"/>
		</linearGradient>
		<path class="st66" d="M290.6,84.4c-0.3,0.3-0.6,0.6-1,0.8c-1.2,0.5-2.5,0.1-2.9,0c-4.4-1.3-4.8-4.7-3.9-8c0.8,1.4,1.7,2.7,3,3.9
			C287.3,82.5,289,83.6,290.6,84.4z"/>
		
			<linearGradient id="SVGID_68_" gradientUnits="userSpaceOnUse" x1="271.2113" y1="725.9151" x2="296.1692" y2="725.9151" gradientTransform="matrix(-0.7835 -2.556627e-02 -2.132479e-02 0.6536 525.6605 -355.7122)">
			<stop  offset="0" style="stop-color:#865CA0"/>
			<stop  offset="0.2687" style="stop-color:#8B56A3"/>
			<stop  offset="1" style="stop-color:#1F958C;stop-opacity:0.4"/>
		</linearGradient>
		<path class="st67" d="M297.8,106.8c0,0-22.7,1.9-19.5,7.9c0.2,0.3,0.6,1.1,2,1.5c3.4,0.7,9.2-1.9,10.1-2.3
			C293.1,112.7,296.8,110.5,297.8,106.8z"/>
		
			<linearGradient id="SVGID_69_" gradientUnits="userSpaceOnUse" x1="343.3068" y1="840.523" x2="358.9175" y2="840.523" gradientTransform="matrix(-0.5007 0.6032 0.5031 0.4177 48.0247 -496.1046)">
			<stop  offset="0" style="stop-color:#865CA0"/>
			<stop  offset="0.2687" style="stop-color:#8B56A3"/>
			<stop  offset="1" style="stop-color:#1F958C;stop-opacity:0.4"/>
		</linearGradient>
		<path class="st68" d="M294.2,58c0,0-9.1,12.6,0.3,15.3c0.4,0.1,1.7,0.5,2.9,0c2.6-1.1,2.2-5.9,2.1-6.7
			C299.4,64.7,298.4,61.3,294.2,58z"/>
		
			<linearGradient id="SVGID_70_" gradientUnits="userSpaceOnUse" x1="325.0314" y1="835.0839" x2="340.6421" y2="835.0839" gradientTransform="matrix(-0.5007 0.6032 0.5031 0.4177 48.0247 -496.1046)">
			<stop  offset="0" style="stop-color:#865CA0"/>
			<stop  offset="0.2687" style="stop-color:#8B56A3"/>
			<stop  offset="1" style="stop-color:#1F958C;stop-opacity:0.4"/>
		</linearGradient>
		<path class="st69" d="M300.6,44.7c0,0-9.1,12.6,0.3,15.3c0.4,0.1,1.7,0.5,2.9,0c2.6-1.1,2.2-5.9,2.1-6.7
			C305.8,51.4,304.9,48,300.6,44.7z"/>
		
			<linearGradient id="SVGID_71_" gradientUnits="userSpaceOnUse" x1="439.3562" y1="447.1407" x2="454.7918" y2="447.1407" gradientTransform="matrix(-4.503816e-02 0.7827 -0.6528 -3.756646e-02 624.7853 -269.1698)">
			<stop  offset="0" style="stop-color:#865CA0"/>
			<stop  offset="0.2687" style="stop-color:#8B56A3"/>
			<stop  offset="1" style="stop-color:#1F958C;stop-opacity:0.4"/>
		</linearGradient>
		<path class="st70" d="M321.4,58.4c0,0-5.3,13.6-14.8,11.1c-0.5-0.1-1.8-0.5-2.2-1.4c-0.8-2.1,4-5.4,4.8-5.9
			C311.2,60.7,315.1,58.7,321.4,58.4z"/>
		<linearGradient id="SVGID_72_" gradientUnits="userSpaceOnUse" x1="299.1413" y1="76.6837" x2="313.9213" y2="76.6837">
			<stop  offset="0" style="stop-color:#865CA0"/>
			<stop  offset="0.2687" style="stop-color:#8B56A3"/>
			<stop  offset="1" style="stop-color:#1F958C;stop-opacity:0.4"/>
		</linearGradient>
		<path class="st71" d="M313.9,71.6c0,0-0.8,2.2-2.5,4.6c-1.3,2-3.2,4.2-5.6,5.6c-2.2-0.8-4-2.6-6.8-4.5c1.1-1,2.2-1.7,2.5-2
			c1.5-1.1,4-2.4,7.6-3.2C310.7,71.9,312.2,71.7,313.9,71.6z"/>
		<linearGradient id="SVGID_73_" gradientUnits="userSpaceOnUse" x1="288.1622" y1="91.5166" x2="304.1613" y2="91.5166">
			<stop  offset="0" style="stop-color:#865CA0"/>
			<stop  offset="0.2687" style="stop-color:#8B56A3"/>
			<stop  offset="1" style="stop-color:#1F958C;stop-opacity:0.4"/>
		</linearGradient>
		<path class="st72" d="M304.2,87.4c-2,3.8-6.7,10.6-13.7,8.7c-0.5-0.1-1.8-0.5-2.2-1.4c-0.8-2.1,4-5.4,4.8-5.9
			c1.1-0.7,2.5-1.6,4.6-2.3c1.5,0.3,2.8,0.4,3.9,0.5C302.3,87.2,303.2,87.3,304.2,87.4z"/>
		
			<linearGradient id="SVGID_74_" gradientUnits="userSpaceOnUse" x1="430.3379" y1="420.5519" x2="448.0309" y2="420.5519" gradientTransform="matrix(-0.249 0.6711 -0.5145 -0.1909 615.7171 -113.2281)">
			<stop  offset="0" style="stop-color:#865CA0"/>
			<stop  offset="0.2687" style="stop-color:#8B56A3"/>
			<stop  offset="1" style="stop-color:#1F958C;stop-opacity:0.4"/>
		</linearGradient>
		<path class="st73" d="M299.4,98c0,0-10.4,10.6-17.3,7.1c-0.3-0.2-1.3-0.7-1.2-1.5c0.2-1.9,5.7-3.9,6.6-4.2
			C289.9,98.4,294.1,97.3,299.4,98z"/>
		
			<linearGradient id="SVGID_75_" gradientUnits="userSpaceOnUse" x1="197.5154" y1="724.8769" x2="221.6448" y2="724.8769" gradientTransform="matrix(-0.562 -1.833769e-02 -3.057115e-02 0.9369 426.4332 -551.6592)">
			<stop  offset="0" style="stop-color:#865CA0"/>
			<stop  offset="0.2687" style="stop-color:#8B56A3"/>
			<stop  offset="1" style="stop-color:#1F958C;stop-opacity:0.4"/>
		</linearGradient>
		<path class="st74" d="M293.5,116.5c0,0-16.2,3.7-13.6,12.3c0.1,0.4,0.4,1.6,1.5,2c2.4,0.9,6.5-3.2,7.1-3.8
			C290.3,125.2,292.9,121.9,293.5,116.5z"/>
		
			<linearGradient id="SVGID_76_" gradientUnits="userSpaceOnUse" x1="190.5443" y1="737.0656" x2="214.6737" y2="737.0656" gradientTransform="matrix(-0.562 -1.833769e-02 -3.057115e-02 0.9369 426.4332 -551.6592)">
			<stop  offset="0" style="stop-color:#865CA0"/>
			<stop  offset="0.2687" style="stop-color:#8B56A3"/>
			<stop  offset="1" style="stop-color:#1F958C;stop-opacity:0.4"/>
		</linearGradient>
		<path class="st75" d="M297.1,128c0,0-16.2,3.7-13.6,12.3c0.1,0.4,0.4,1.6,1.5,2c2.4,0.9,6.5-3.2,7.1-3.8
			C293.8,136.8,296.4,133.5,297.1,128z"/>
		
			<linearGradient id="SVGID_77_" gradientUnits="userSpaceOnUse" x1="111.9577" y1="574.45" x2="136.3925" y2="574.45" gradientTransform="matrix(-0.5 -1.631432e-02 -2.215561e-02 0.679 389.4191 -338.0754)">
			<stop  offset="0" style="stop-color:#865CA0"/>
			<stop  offset="0.2687" style="stop-color:#8B56A3"/>
			<stop  offset="1" style="stop-color:#1F958C;stop-opacity:0.4"/>
		</linearGradient>
		<path class="st76" d="M320.9,44.8c0,0-14.4,2.5-12.2,8.8c0.1,0.3,0.4,1.2,1.3,1.5c2.1,0.7,5.8-2.2,6.4-2.7
			C318,51.1,320.3,48.8,320.9,44.8z"/>
		<linearGradient id="SVGID_78_" gradientUnits="userSpaceOnUse" x1="293.4613" y1="116.3737" x2="273.9808" y2="116.3737">
			<stop  offset="0" style="stop-color:#865CA0"/>
			<stop  offset="0.2687" style="stop-color:#8B56A3"/>
			<stop  offset="1" style="stop-color:#5B2B5E"/>
		</linearGradient>
		<path class="st77" d="M292.3,85.1c0.4,0.2,0.8,0.3,1.2,0.4c-2.3,2.4-3.8,4.4-4.9,6c-1.4,2-1.6,2.7-3.3,4.7
			c-2.8,3.5-3.8,3.4-4.9,5.5c-1.2,2.3-0.4,3-1.7,6.2c-0.7,1.7-1.5,3-2.2,3.9c0,0.6,0.8,8.9,1.7,13.5c0.2,1.1,0.5,2.2,1,3.4
			c0.8,2.1,1.6,3.6,1.8,3.9c1,1.8,2,5.7,2,14.9c-0.7-0.8-1.8-2.1-2.4-3.8c-1.8-4.4,1.3-5.5-0.5-9.5c-1-2.2-2.3-2.8-3.2-5.7
			c-0.3-1-0.2-1.3-0.5-3.5c-0.4-2.9-0.9-5.3-1.3-7.4c-0.9-4.5-1.3-4.9-0.9-6.3c0.5-1.8,1.2-1.6,2.7-4.2c1.8-3.4,0.8-4,2.6-6.5
			c1.3-1.8,1.9-1.6,4.1-4.2c1.8-2,2.5-3.3,3.6-5C288.2,89.9,289.8,87.7,292.3,85.1z"/>
		<linearGradient id="SVGID_79_" gradientUnits="userSpaceOnUse" x1="309.0713" y1="65.5687" x2="296.8313" y2="65.5687">
			<stop  offset="0" style="stop-color:#865CA0"/>
			<stop  offset="0.2687" style="stop-color:#8B56A3"/>
			<stop  offset="1" style="stop-color:#5B2B5E"/>
		</linearGradient>
		<path class="st78" d="M309.1,54.7c-0.3,0.8-0.7,2-1.4,3.4c-1.6,3.4-2.7,4.4-3.7,6.7c-0.1,0.2-0.2,0.4-0.3,0.7
			c-1.2,3.1-0.2,2.9-1.3,5.4c-1.3,2.8-3,3.5-4.6,5.7c-0.3-0.2-0.7-0.4-1-0.6c0-0.1,0.1-0.1,0.1-0.2c1.8-2.7,2.5-2.4,4-5
			c1-1.8,1.1-2.6,2.6-6.6c0.3-0.6,0.6-1.4,0.9-2.2c0.5-1.1,0.7-1.7,1.1-2.4C306.7,57.4,308.1,55.7,309.1,54.7z"/>
	</g>
	
		<linearGradient id="SVGID_80_" gradientUnits="userSpaceOnUse" x1="351.1453" y1="513.7921" x2="372.2899" y2="513.7921" gradientTransform="matrix(-0.4361 -0.6493 0.9119 -0.6124 -13.4779 1005.0738)">
		<stop  offset="0" style="stop-color:#A1B03A"/>
		<stop  offset="0.9464" style="stop-color:#1F5F1D"/>
	</linearGradient>
	<path class="st79" d="M292.1,469c0,0-4.3-19.7,8-25c0.6-0.3,2.3-1,3.4-0.3c2.5,1.6-0.4,9.5-0.8,10.7
		C301.4,457.8,298.6,463.4,292.1,469z"/>
	
		<linearGradient id="SVGID_81_" gradientUnits="userSpaceOnUse" x1="232.5528" y1="547.8084" x2="253.6974" y2="547.8084" gradientTransform="matrix(-1.1626 0.3158 -0.3098 -1.1405 871.4996 943.9545)">
		<stop  offset="0" style="stop-color:#A1B03A"/>
		<stop  offset="0.9464" style="stop-color:#1F5F1D"/>
	</linearGradient>
	<path class="st80" d="M434.8,404.9c0,0-29.9-0.2-30.1-14.8c0-0.7-0.1-2.7,1.6-3.7c3.7-2.3,13,2.8,14.3,3.5
		C424.6,392.1,430.8,396.4,434.8,404.9z"/>
	
		<linearGradient id="SVGID_82_" gradientUnits="userSpaceOnUse" x1="376.8603" y1="782.4066" x2="396.1079" y2="782.4066" gradientTransform="matrix(-0.1232 -0.9349 0.9203 -0.1213 -281.3048 743.3909)">
		<stop  offset="0" style="stop-color:#865CA0"/>
		<stop  offset="0.2687" style="stop-color:#8B56A3"/>
		<stop  offset="1" style="stop-color:#1F958C;stop-opacity:0.4"/>
	</linearGradient>
	<path class="st81" d="M383.3,297.4c0,0,3.1-21.1,13.3-19.8c0.5,0.1,1.9,0.2,2.5,1.4c1.2,2.8-3.2,8.9-3.9,9.8
		C393.3,291.4,389.7,295.4,383.3,297.4z"/>
	
		<linearGradient id="SVGID_83_" gradientUnits="userSpaceOnUse" x1="315.9209" y1="737.1762" x2="335.1019" y2="737.1762" gradientTransform="matrix(-0.4102 -0.8491 0.8358 -0.4038 -92.6472 882.4091)">
		<stop  offset="0" style="stop-color:#865CA0"/>
		<stop  offset="0.2687" style="stop-color:#8B56A3"/>
		<stop  offset="1" style="stop-color:#1F958C;stop-opacity:0.4"/>
	</linearGradient>
	<path class="st82" d="M385.7,320.5c0,0-3.6-20.9,6.5-23c0.5-0.1,1.9-0.4,2.8,0.6c2,2.3-0.3,9.4-0.6,10.5
		C393.4,311.7,391.1,316.6,385.7,320.5z"/>
	
		<linearGradient id="SVGID_84_" gradientUnits="userSpaceOnUse" x1="267.7702" y1="773.1884" x2="286.9345" y2="773.1884" gradientTransform="matrix(-0.341 -0.7059 0.5888 -0.2844 33.096 738.8506)">
		<stop  offset="0" style="stop-color:#865CA0"/>
		<stop  offset="0.2687" style="stop-color:#8B56A3"/>
		<stop  offset="1" style="stop-color:#1F958C;stop-opacity:0.4"/>
	</linearGradient>
	<path class="st83" d="M391.3,332.7c0,0-3.7-17.1,3.6-18.2c0.3-0.1,1.4-0.2,2.1,0.6c1.6,2,0.3,7.6,0,8.4
		C396.4,326,395,329.8,391.3,332.7z"/>
	
		<linearGradient id="SVGID_85_" gradientUnits="userSpaceOnUse" x1="221.1257" y1="689.5071" x2="240.1773" y2="689.5071" gradientTransform="matrix(-0.5616 -0.547 0.4562 -0.4685 215.347 784.2458)">
		<stop  offset="0" style="stop-color:#865CA0"/>
		<stop  offset="0.2687" style="stop-color:#8B56A3"/>
		<stop  offset="1" style="stop-color:#1F958C;stop-opacity:0.4"/>
	</linearGradient>
	<path class="st84" d="M401.2,344.9c0,0-9.2-14.7-2.7-18.3c0.3-0.2,1.2-0.7,2.1-0.1c2.2,1.3,2.8,7,2.9,7.9
		C403.8,336.8,403.8,340.9,401.2,344.9z"/>
	
		<linearGradient id="SVGID_86_" gradientUnits="userSpaceOnUse" x1="209.3039" y1="714.6913" x2="228.4028" y2="714.6913" gradientTransform="matrix(-0.479 -0.6206 0.5177 -0.3995 141.3629 772.5614)">
		<stop  offset="0" style="stop-color:#865CA0"/>
		<stop  offset="0.2687" style="stop-color:#8B56A3"/>
		<stop  offset="1" style="stop-color:#1F958C;stop-opacity:0.4"/>
	</linearGradient>
	<path class="st85" d="M406,361.1c0,0-7.1-15.9-0.2-18.6c0.3-0.1,1.3-0.5,2.1,0.2c2,1.6,1.8,7.4,1.8,8.2
		C409.7,353.4,409.1,357.5,406,361.1z"/>
	
		<linearGradient id="SVGID_87_" gradientUnits="userSpaceOnUse" x1="269.425" y1="516.6707" x2="288.3381" y2="516.6707" gradientTransform="matrix(-0.784 -2.319942e-03 1.935136e-03 -0.6539 623.6901 649.2469)">
		<stop  offset="0" style="stop-color:#865CA0"/>
		<stop  offset="0.2687" style="stop-color:#8B56A3"/>
		<stop  offset="1" style="stop-color:#1F958C;stop-opacity:0.4"/>
	</linearGradient>
	<path class="st86" d="M413.5,317.1c0,0-16.8-4-14.6-11.1c0.1-0.3,0.4-1.3,1.5-1.6c2.5-0.6,6.9,3,7.5,3.6
		C409.8,309.6,412.6,312.5,413.5,317.1z"/>
	
		<linearGradient id="SVGID_88_" gradientUnits="userSpaceOnUse" x1="189.6368" y1="708.1818" x2="208.7357" y2="708.1818" gradientTransform="matrix(-0.479 -0.6206 0.5177 -0.3995 141.3629 772.5614)">
		<stop  offset="0" style="stop-color:#865CA0"/>
		<stop  offset="0.2687" style="stop-color:#8B56A3"/>
		<stop  offset="1" style="stop-color:#1F958C;stop-opacity:0.4"/>
	</linearGradient>
	<path class="st87" d="M412.1,375.9c0,0-7.1-15.9-0.2-18.6c0.3-0.1,1.3-0.5,2.1,0.2c2,1.6,1.8,7.4,1.8,8.2
		C415.7,368.2,415.1,372.3,412.1,375.9z"/>
	
		<linearGradient id="SVGID_89_" gradientUnits="userSpaceOnUse" x1="168.9099" y1="698.8478" x2="188.0088" y2="698.8478" gradientTransform="matrix(-0.479 -0.6206 0.5177 -0.3995 141.3629 772.5614)">
		<stop  offset="0" style="stop-color:#865CA0"/>
		<stop  offset="0.2687" style="stop-color:#8B56A3"/>
		<stop  offset="1" style="stop-color:#1F958C;stop-opacity:0.4"/>
	</linearGradient>
	<path class="st88" d="M417.1,392.5c0,0-7.1-15.9-0.2-18.6c0.3-0.1,1.3-0.5,2.1,0.2c2,1.6,1.8,7.4,1.8,8.2
		C420.8,384.8,420.2,388.9,417.1,392.5z"/>
	
		<linearGradient id="SVGID_90_" gradientUnits="userSpaceOnUse" x1="248.9049" y1="452.3611" x2="268.0215" y2="452.3611" gradientTransform="matrix(-1.717085e-02 -0.7838 -0.6537 1.432230e-02 725.8305 566.285)">
		<stop  offset="0" style="stop-color:#865CA0"/>
		<stop  offset="0.2687" style="stop-color:#8B56A3"/>
		<stop  offset="1" style="stop-color:#1F958C;stop-opacity:0.4"/>
	</linearGradient>
	<path class="st89" d="M432.1,377.5c0,0-4.3-16.9-11.3-14.5c-0.3,0.1-1.3,0.4-1.6,1.5c-0.6,2.5,3.1,6.9,3.7,7.5
		C424.6,374,427.5,376.7,432.1,377.5z"/>
	
		<linearGradient id="SVGID_91_" gradientUnits="userSpaceOnUse" x1="270.2173" y1="460.7447" x2="289.3339" y2="460.7447" gradientTransform="matrix(-1.717085e-02 -0.7838 -0.6537 1.432230e-02 725.8305 566.285)">
		<stop  offset="0" style="stop-color:#865CA0"/>
		<stop  offset="0.2687" style="stop-color:#8B56A3"/>
		<stop  offset="1" style="stop-color:#1F958C;stop-opacity:0.4"/>
	</linearGradient>
	<path class="st90" d="M426.3,361c0,0-4.3-16.9-11.3-14.5c-0.3,0.1-1.3,0.4-1.6,1.5c-0.6,2.5,3.1,6.9,3.7,7.5
		C418.7,357.4,421.7,360.1,426.3,361z"/>
	
		<linearGradient id="SVGID_92_" gradientUnits="userSpaceOnUse" x1="292.0924" y1="470.5054" x2="311.209" y2="470.5054" gradientTransform="matrix(-1.717085e-02 -0.7838 -0.6537 1.432230e-02 725.8305 566.285)">
		<stop  offset="0" style="stop-color:#865CA0"/>
		<stop  offset="0.2687" style="stop-color:#8B56A3"/>
		<stop  offset="1" style="stop-color:#1F958C;stop-opacity:0.4"/>
	</linearGradient>
	<path class="st91" d="M419.5,344c0,0-4.3-16.9-11.3-14.5c-0.3,0.1-1.3,0.4-1.6,1.5c-0.6,2.5,3.1,6.9,3.7,7.5
		C412,340.4,414.9,343.1,419.5,344z"/>
	
		<linearGradient id="SVGID_93_" gradientUnits="userSpaceOnUse" x1="244.0416" y1="494.4458" x2="263.0674" y2="494.4458" gradientTransform="matrix(-0.2249 -0.6796 -0.5209 0.1724 722.3147 410.1194)">
		<stop  offset="0" style="stop-color:#865CA0"/>
		<stop  offset="0.2687" style="stop-color:#8B56A3"/>
		<stop  offset="1" style="stop-color:#1F958C;stop-opacity:0.4"/>
	</linearGradient>
	<path class="st92" d="M414.9,327.9c0,0-7.9-13.7-12.9-9.9c-0.2,0.2-0.9,0.7-0.9,1.7c0.2,2.3,4.3,5.2,5,5.6
		C407.9,326.6,411,328.3,414.9,327.9z"/>
	
		<linearGradient id="SVGID_94_" gradientUnits="userSpaceOnUse" x1="194.109" y1="581.745" x2="212.9621" y2="581.745" gradientTransform="matrix(-0.5623 -1.664356e-03 2.773857e-03 -0.9374 517.5559 841.5405)">
		<stop  offset="0" style="stop-color:#865CA0"/>
		<stop  offset="0.2687" style="stop-color:#8B56A3"/>
		<stop  offset="1" style="stop-color:#1F958C;stop-opacity:0.4"/>
	</linearGradient>
	<path class="st93" d="M410,305c0,0-12-5.7-10.4-15.9c0.1-0.5,0.3-1.9,1.1-2.3c1.8-0.9,4.9,4.3,5.4,5.1
		C407.4,294.2,409.4,298.4,410,305z"/>
	
		<linearGradient id="SVGID_95_" gradientUnits="userSpaceOnUse" x1="190.0835" y1="596.3764" x2="208.9366" y2="596.3764" gradientTransform="matrix(-0.5623 -1.664356e-03 2.773857e-03 -0.9374 517.5559 841.5405)">
		<stop  offset="0" style="stop-color:#865CA0"/>
		<stop  offset="0.2687" style="stop-color:#8B56A3"/>
		<stop  offset="1" style="stop-color:#1F958C;stop-opacity:0.4"/>
	</linearGradient>
	<path class="st94" d="M412.3,291.3c0,0-12-5.7-10.4-15.9c0.1-0.5,0.3-1.9,1.1-2.3c1.8-0.9,4.9,4.3,5.4,5.1
		C409.7,280.5,411.7,284.7,412.3,291.3z"/>
	
		<linearGradient id="SVGID_96_" gradientUnits="userSpaceOnUse" x1="113.3508" y1="352.2942" x2="132.2261" y2="352.2942" gradientTransform="matrix(-0.5003 -1.480596e-03 2.010335e-03 -0.6794 488.1622 626.7753)">
		<stop  offset="0" style="stop-color:#865CA0"/>
		<stop  offset="0.2687" style="stop-color:#8B56A3"/>
		<stop  offset="1" style="stop-color:#1F958C;stop-opacity:0.4"/>
	</linearGradient>
	<path class="st95" d="M432.1,393.9c0,0-10.7-4.2-9.3-11.5c0.1-0.4,0.3-1.4,0.9-1.7c1.6-0.6,4.4,3.2,4.8,3.7
		C429.8,386.1,431.6,389.1,432.1,393.9z"/>
	
		<linearGradient id="SVGID_97_" gradientUnits="userSpaceOnUse" x1="390.6918" y1="298.0352" x2="282.7059" y2="298.0352" gradientTransform="matrix(0.5435 0.8394 -0.8394 0.5435 479.4854 -120.8114)">
		<stop  offset="0" style="stop-color:#865CA0"/>
		<stop  offset="0.2687" style="stop-color:#8B56A3"/>
		<stop  offset="1" style="stop-color:#5B2B5E"/>
	</linearGradient>
	<path class="st96" d="M401.4,266.5c-0.5,0.9-1.3,2.5-1.7,4.4c-1.2,5.2,1.1,6.8-0.1,11.5c-0.7,2.6-1.7,3.2-2.2,6.6
		c-0.2,1.2-0.1,1.5-0.3,4.2c-0.2,3.5-0.5,6.4-0.8,8.9c-0.6,5.3-0.8,5.8-0.5,7.5c0.4,2.2,1,2,2.1,5.3c1.4,4.2,0.7,4.9,2.1,8.1
		c1,2.2,1.4,2.1,3.2,5.4c1.4,2.6,1.9,4.2,2.8,6.3c1,2.5,2.6,5.9,5.1,10c0.3,2.4,1,5.9,2.6,9.9c1.4,3.4,1.9,3.1,3.1,6.3
		c0.9,2.6,0.9,3.6,2.8,10.9c0.4,1.4,0.6,2.1,0.9,2.9c0.9,2.8,2,4.9,2.8,6.3c-0.2-1-0.6-2.4-1.1-4.2c-1.4-4.6-2.2-5.8-3.1-9.2
		c-1-3.9-0.2-3.6-1.1-6.6c-1.2-3.9-2.6-4.7-4-8.3c-0.7-1.8-1.5-4.4-1.6-7.9c-2.5-4.1-4.1-7.5-5.2-10c-1.1-2.5-1.3-3.4-2.5-6
		c-2.2-4.5-2.9-4.4-3.7-7.1c-0.9-2.9-0.4-3.7-1.4-7.6c-0.6-2.1-1.2-3.8-1.7-4.9c0-0.7,0.4-10.8,0.9-16.2c0.1-1.3,0.3-2.6,0.6-4.1
		c0.5-2.5,1.1-4.2,1.2-4.6C401,282.3,401.7,277.6,401.4,266.5z"/>
	<linearGradient id="SVGID_98_" gradientUnits="userSpaceOnUse" x1="352.8163" y1="295.5033" x2="358.6632" y2="292.1276">
		<stop  offset="0" style="stop-color:#865CA0"/>
		<stop  offset="0.2687" style="stop-color:#8B56A3"/>
		<stop  offset="1" style="stop-color:#1F958C"/>
	</linearGradient>
	<path class="st97" d="M350.6,291.7l8.2,0.7c0,0.8-0.1,3-1.3,5.4C355.2,297.1,352.6,294.8,350.6,291.7z"/>
	<linearGradient id="SVGID_99_" gradientUnits="userSpaceOnUse" x1="317.066" y1="254.9173" x2="317.066" y2="330.1552">
		<stop  offset="0" style="stop-color:#A1B03A"/>
		<stop  offset="0.9464" style="stop-color:#1F5F1D"/>
	</linearGradient>
	<path class="st98" d="M355.7,300.4c-2.3,2.4-4.9,3.1-5.8,3.3c-0.8-0.2-1.7-0.3-2.5-0.5c-2.2-0.5-4.5-1.1-6.9-1.8
		c-1.1-0.3-2.1-0.6-3.2-1c-3.2-1.1-6.1-2.2-8.8-3.4c-1.1,0.6-2.3,1.2-3.4,1.9l9.9,5.8l5,2.9l6.6,0.2l0.3,0c0,0.6-0.2,2.9-1.4,5.2
		c0,0,0,0,0,0c-0.5,1-1.3,2-2.4,3c-0.2,0.1-4,3.3-8.7,2.6c-3.8-0.6-6.5-3.4-8.7-6.5c-3.1-4.3-5.2-8.9-7.6-8.4
		c-0.7,0.2-1.7,0.8-2.6,3.6c2,2.1,4,4.3,5.9,6.4c0.2,0.7,0.5,1.4,0.7,2.2c0.8,2.6,1.6,5.1,2.4,7.7c-5.3,6.5-8.9,6.9-10.7,6.6
		c-0.5-0.1-0.9-0.2-1.3-0.4c-1.3-0.7-3.1-2.5-8.7-7.3c-4.5-3.9-5.6-4.7-6.6-5.3c-3.6-2.3-7-3.5-9.3-4.2c-0.7-2.7-1.4-5.4-2.1-8
		l-3.9-8.4c-2-4.7-4-9.4-6-14.1c-0.1-0.4-0.7-3.1,1.1-5.5c2-2.6,5.1-2.7,5.5-2.7c2,3.4,4.1,6.8,6.1,10.2c0,0,10.5,8.8,11.1,8.1
		c0.1-0.1,0-0.2,0-0.2c-0.5-2-5.3-9.1-6.8-11.7c0,0-3.5-10.4-3.5-10.4c0.2-1.2,0.5-1.9,0.8-2.4c0.3-0.5,0.6-0.6,0.8-0.7
		c1.8-0.8,5.1,1.2,7.9,5.5c3.8,4.4,7.6,8.9,11.3,13.3c-1.2-4.6-2.3-9.2-3.4-13.8c-0.1-0.1-0.2-0.2-0.3-0.3c-3-2.5-5.9-5-8.9-7.5
		c1.2-0.9,4.4-3.1,9-3.3c2.9-0.1,5.2,0.6,6.5,1.1c0.6,1.2,1.3,2.7,1.8,4.3c0,0,0,0,0,0c0.6,1.5,1.1,3.3,1.5,5.1
		c1,4.3,1.1,8.1,0.9,10.9c2.1-0.3,4.2-0.5,6.3-0.8c-1.3-1.9-2.8-4.6-3.9-8c-1.6-5-1.7-9.5-1.5-12.7c0-0.7,0.1-1.3,0.2-1.8
		c0.4-1.2,0.8-2.4,1.1-3.5c1.6-0.4,4.3-1,7.7-0.5c1.9,0.2,3.4,0.7,4.7,1.2c1.2,0.5,2.1,1,2.8,1.4c-0.3,0.8-0.7,1.6-1,2.4
		c-0.8,1.8-1.5,3.7-2.3,5.5c-0.2,0.5-0.4,1-0.6,1.5c0,2.8,0,5.6,0,8.4l8.5-14.8c0.7-0.5,1.4-1,2.1-1.5c1.4-1,2.7-2,4.1-2.9
		c1.2-0.4,3.7-1.2,6.9-0.6c1.8,0.3,3.2,0.9,4.2,1.5c0.6,0.3,1,0.6,1.4,0.9c0.2,0.6,0.4,1.4,0.5,2.3c-5.7,3.7-11.4,8.3-14.5,13.5
		c-2.7,1-5.4,2-8.1,3c-0.3,1.8,0.1,2.6,0.5,3c1.1,1.1,2.9,0.1,5.6-1.2c-0.3,1.3-0.5,2.5-0.4,3.8c0.1,2,0.6,3.6,1.5,5
		c-0.8,0-1.5,0-2.3,0.1c-2.1,0.5-4.2,1-6.3,1.5c1,1,1.9,2,2.8,3.1c3.1-0.1,6.2-0.3,9.3-0.4C349.1,294,352.3,296.6,355.7,300.4z"/>
	<linearGradient id="SVGID_100_" gradientUnits="userSpaceOnUse" x1="347.8656" y1="285.9586" x2="365.9211" y2="275.5342">
		<stop  offset="0" style="stop-color:#865CA0"/>
		<stop  offset="0.2687" style="stop-color:#8B56A3"/>
		<stop  offset="1" style="stop-color:#1F958C"/>
	</linearGradient>
	<path class="st99" d="M364.4,280c-0.3,1.6-0.9,4.2-3,7.1c-4.3,0.1-8.5,0.2-12.8,0.3c-0.2-0.6-0.3-1.3-0.4-1.9
		c-0.6-4.1,0.7-7.6,1.8-9.7c1-0.2,2.1-0.4,3.3-0.4c0,0,8.8-0.4,10.5-3c0,0,0.1-0.1,0.1-0.1C364.4,272.3,365,276.4,364.4,280z"/>
	
		<linearGradient id="SVGID_101_" gradientUnits="userSpaceOnUse" x1="327.0433" y1="632.5824" x2="348.1879" y2="632.5824" gradientTransform="matrix(0.4596 1.9149 -2.2241 0.5338 1580.7311 -660.319)">
		<stop  offset="0" style="stop-color:#865CA0"/>
		<stop  offset="0.2687" style="stop-color:#8B56A3"/>
		<stop  offset="1" style="stop-color:#1F958C"/>
	</linearGradient>
	<path class="st100" d="M348.1,297.8c0,0-4.1,49.5-32.1,50c-1.3,0-5.2,0.2-7-2.5c-3.9-6.1,6.9-21.5,8.5-23.8
		C322.2,314.9,331.3,304.6,348.1,297.8z"/>
	
		<linearGradient id="SVGID_102_" gradientUnits="userSpaceOnUse" x1="318.8562" y1="242.9341" x2="410.2041" y2="203.5312" gradientTransform="matrix(-1.0469 -0.4285 0.4067 -0.9935 607.2476 616.5036)">
		<stop  offset="0.1525" style="stop-color:#CCA5CD"/>
		<stop  offset="0.9615" style="stop-color:#224193;stop-opacity:0.8"/>
	</linearGradient>
	<path class="st101" d="M260.5,229.2c0.6-4.5,3.1-18.3,14.9-25.4c1.9-1.1,3.8-2,5.7-2.6c8.4,0,11.9,2.4,13.6,4.5
		c2.8,3.6,2.2,8.7,5.4,9.8c1.1,0.4,2.5,0.2,3.4-0.4c2-1.2,1.1-3.6,3.1-6c0.2-0.2,2.2-2.6,5.4-2.8c3.1-0.2,6.5,1.7,7.4,4.3
		c0.2,0.6,0.3,1.2,0.3,1.7c1.9,3.5,3.7,4.3,4.7,4.5c2.1,0.4,3.6-1.2,7.8-3.6c2.8-1.7,5.2-2.8,6.8-3.5c3.6-0.4,6.9,0.7,8.5,3
		c1.4,2,1.1,4.3,1,5c-0.8,5.6-7.1,8.2-6.5,9.3c0.4,0.8,3.5,0,6.9-0.9c5.1-1.4,9.4-2.7,12.5-3.6c3.6-0.8,7,0,8.9,2.2
		c1.4,1.7,1.5,3.7,1.5,4.7c0.1,4.6-3.3,7.8-4.8,9.2c-2.3,2.1-4.5,3.2-6.4,4.1c-6.4,2.9-10.2,2.3-12.2,5.5c-0.3,0.5-1,1.7-0.5,2.8
		c0.8,1.8,3.7,1.1,5.2,2.7c1.9,2.2,0.6,7.6-2.9,10.4c-3.2,2.5-7.9,2.6-11.3,1.1c-5.3-2.2-6.1-7.6-10.4-7.7c-1.3,0-3.1,0.4-3.6,1.5
		c-0.8,1.8,2.6,3.8,2.3,6.9c-0.1,1.4-1,3.1-2.5,3.9c-2.7,1.3-5.8-1.5-15.7-5.5c-3.3-1.3-5.3-2-5.9-1.3c-0.8,1,3.1,3.6,2.7,6.8
		c-0.4,3.3-4.9,5.9-9,6.1c-2.9,0.1-5.2-1-6.2-1.6c-22.4-11.8-28-27.8-28-27.8C261.5,243,259.9,236.9,260.5,229.2z"/>
</g>
<g id="Adel">
	<g>
		<linearGradient id="SVGID_103_" gradientUnits="userSpaceOnUse" x1="154.2054" y1="241.3274" x2="154.2054" y2="255.3363">
			<stop  offset="0.4832" style="stop-color:#C8CACC"/>
			<stop  offset="0.9615" style="stop-color:#808285"/>
		</linearGradient>
		<path class="st102" d="M138.1,243.8c-0.1,0.9-0.2,1.9-0.3,3c-0.1,3.1,0.2,5.8,0.8,8c3.8,0.3,8,0.5,12.3,0.5c6.8,0,13.1-0.4,18.7-1
			c0.5-1.6,0.9-3.8,1-6.4c0.1-2.7-0.2-4.9-0.6-6.6c-0.5,0.9-1.4,2.2-2.9,3.3c-1.8,1.5-3.6,2-5.7,2.7c-2.3,0.7-4.1,0.9-6.3,1.2
			c-0.9,0.1-5.5,0.6-8.6,0.1c-1.1-0.2-2.3-0.5-2.3-0.5c-1.2-0.3-1.9-0.6-2.2-0.7c-0.9-0.3-1.3-0.6-1.6-0.7c-0.3-0.2-0.7-0.4-1-0.7
			C139.1,245.8,138.4,245.1,138.1,243.8z"/>
		<path class="st103" d="M138.1,244.2c0.2,1.7,1.7,2.8,2.2,3.1c1,0.7,2,1,4.1,1.3c2.2,0.3,4.5,0.6,7.8,0.5c2-0.1,3.4-0.3,6.1-0.8
			c2.7-0.4,4.2-0.7,6-1.4c1.8-0.7,3.1-1.5,4-2c0.8-0.8,1.8-2.1,1.6-3.6c-0.2-2.9-4.5-4.6-6.5-5.2c-9.6-3.2-19.1,1-19.1,1
			c-1.1,0.4-4.5,1.6-5.9,4.8C138,243.1,138.1,244,138.1,244.2z"/>
		<path class="st104" d="M139.7,243.6c-0.4-0.6-0.8-1.1-1.2-1.7c0.2-0.5,0.6-1.1,1.1-1.8c0.7-0.9,1.5-1.4,2.1-1.8
			c1.4-0.7,3.2-1.5,5.3-2.2c2.7-0.8,5.1-1.2,7.1-1.3c1.6-0.1,3.6-0.1,6,0.4c2.8,0.5,5,1.4,6.5,2.2c0.6,0.3,1.4,0.7,2.1,1.5
			c0.4,0.4,0.6,0.7,0.9,1.1c-0.5,0.8-1,1.6-1.5,2.4C158.7,242.8,149.2,243.2,139.7,243.6z"/>
		<linearGradient id="SVGID_104_" gradientUnits="userSpaceOnUse" x1="153.0073" y1="225.9623" x2="154.517" y2="254.2351">
			<stop  offset="0" style="stop-color:#A97C50"/>
			<stop  offset="0.2936" style="stop-color:#A97C50"/>
			<stop  offset="0.4162" style="stop-color:#A97C50"/>
			<stop  offset="0.8078" style="stop-color:#3C2415"/>
		</linearGradient>
		<path class="st105" d="M139.7,243.6c0.1-0.3,0.3-0.8,0.6-1.3c0.8-1.3,2-2,3.5-2.7c2.1-0.9,4-1.4,5.7-1.7c2.2-0.4,4.5-0.8,7.7-0.6
			c1.5,0.1,3.3,0.3,5.4,0.9c0.3,0.1,1.5,0.5,3,1.3c1.5,0.8,2.4,1.3,2.5,2.2c0.1,0.9-0.6,1.7-1,2.1c-1.4,0.6-2.7,1.1-4.1,1.7
			c-1,0.4-4.9,1.6-10.3,2c-0.8,0.1-3.3,0.2-6.6-0.2c-4-0.5-5.3-1.3-5.9-2.3C139.9,244.5,139.8,243.9,139.7,243.6z"/>
		<path class="st106" d="M186.3,158.7c-0.7,0.9-1.4,1.8-2,2.7c1.6-2.3,3.1-4.3,4.6-6.1C188,156.4,187.2,157.6,186.3,158.7z"/>
		<path class="st107" d="M193.6,150c-1.3,1.3-2.9,3-4.7,5.2c0.6-0.9,1.3-1.8,2.2-2.9C192,151.4,192.8,150.7,193.6,150z"/>
		<path class="st108" d="M220.6,227.2c-2.2-7.4-4.5-14.8-6.7-22.3c4.7-1,8.7-2,11.7-2.9c7.8-2.3,10.4-3.7,12.5-5.5
			c1.9-1.6,3.1-3.1,3.9-4.3c3.3,10.6,6.6,21.1,9.8,31.7c-6-0.9-11-1.1-14.6-1c-5,0.1-7.5,0.6-9.1,1.1
			C224.9,225,222.3,226.2,220.6,227.2z"/>
		<path class="st108" d="M183.5,162.5c0.7,6.5,2.5,15.3,6.8,24c2.2,4.4,4.3,7.2,6.3,9.3c1.8,2,4.5,4.8,8.9,6.9
			c3.3,1.5,6.3,2.1,8.4,2.2c2.9-0.6,5.9-1.3,9.1-2.2c2.3-0.6,4.5-1.3,6.6-2c1.7-0.5,4-1.4,5.9-2.5c4.5-2.5,6.8-6.3,9.4-10.7
			c2.2-3.7,4-6.7,4.6-11.3c0.4-3.4-0.1-6.2-0.5-8c0,0,4.9-3.6,5.9-7.7c1-4.1,1.3-10.1,1.3-10.1s-0.9-10.1-7.5-2.6
			c-1.3,1.5-2.4,2.9-2.4,2.9c0,0,0.5-0.7,1.2-1.5c0.7-0.8,1-1.2,1.2-1.4c0.5-0.5,0.8-0.6,0.9-1c0.2-0.5,0.1-0.9,0-1.2
			c-0.8-3.3-1.2-5-1.6-5.8c-7.5-14.5-16.8-18.9-16.8-18.9c-6.8-1.9-14.6-3.3-15.2-2.9C215.4,118.6,189.2,164.2,183.5,162.5z"/>
		<path class="st109" d="M213.9,205c-1.4,0-3.4-0.1-5.6-0.9c-2.5-0.8-4.2-1.9-5.8-3.1c-3.6-2.6-6.2-5.4-8-7.7
			c-2.4-3.1-3.6-5.7-4.7-8c-1.3-2.7-2.1-4.9-3.5-9.3c-3.5-10.3-3-12.3-2.7-13.2c0.5-1.8,1.6-3.2,3.6-6.1c2-2.8,3.8-4.7,4.3-5.2
			c0,0,4.6-4.9,13.3-15.3c3.3-4,7.5-10,11.4-18.6c2.4,0.5,4.8,1.1,7.2,1.6c2.6,0.6,5.2,1.3,7.8,1.9c4.4,2.7,7.3,5.6,9.2,7.7
			c2.2,2.4,3.6,4.6,4.9,6.5c1.9,2.9,2.6,4.5,2.9,5.1c0.6,1.5,2.2,5.7,1.5,6.1c-0.7,0.4-3.5-2.2-12.8-14.8l-7.4-6.3l-7.9-1.4
			l-2.6-0.3c-6.7,13.4-10.3,18-12.4,19.5c-0.5,0.4-2.3,1.6-2.7,3.6c-0.2,0.9,0,1.5,0.4,3.9c0,0,0,0.3,0.4,3.9
			c0.4,3.7-0.7,4.4-1.2,10.8c-0.2,2.3-0.2,4.2-0.6,8c-0.1,0.6-0.1,1.1-0.2,1.5c0.2,0.3,0.5,0.7,0.9,1c0.9,0.7,1.6,0.5,2.5,1
			c1,0.6,1.5,1.6,1.8,2.3c0.7,1.4,0.6,2.7,0.5,3.3c0.5,2.4,0.5,4.2,0.3,5.5c-0.1,1-0.4,2.3-0.7,4.7c-0.1,0.6-0.1,1.2-0.2,1.5
			c0,0.8,0,1.9,0.5,3.2c0,0.1,0.3,0.7,0.7,1.5C210.4,201.5,213.2,204.3,213.9,205z"/>
		<path class="st110" d="M197.2,185.3c0.3,0.1,0.9,0.3,1.5,0.6c1.5,0.7,2.3,1.4,3.3,2.1c0.3,0.2,1.8,1.1,3.5,1.5
			c2.9,0.7,5.4-0.2,6.9-0.8c1.5-0.6,2.6-1,3.7-2.1c0.5-0.5,1-1.2,2.2-2.3c0.4-0.4,0.8-0.7,1.1-0.9c-0.5-0.1-1.3-0.2-2.2-0.4
			c-1.6-0.3-3.5-0.7-5.7-0.7c0,0-1.1,0-2.2,0.5c-0.3,0.1-0.6,0.3-0.7,0.7c-0.1,0.4,0,0.9,0.1,0.9c0,0,0,0,0-0.4c0-0.2,0-0.4,0-0.5
			c-0.2-0.1-0.5-0.3-0.9-0.5c-1.6-0.6-3.2,0.1-4.9,0.7C201.3,184.2,199.5,184.8,197.2,185.3z"/>
		<linearGradient id="SVGID_105_" gradientUnits="userSpaceOnUse" x1="255.578" y1="163.9694" x2="255.578" y2="211.8158">
			<stop  offset="0.4872" style="stop-color:#4C4540"/>
			<stop  offset="0.8034" style="stop-color:#2F2A25"/>
		</linearGradient>
		<path class="st111" d="M248,211.8c0,0,24.1-10.7,21.8-13.4c-2.4-2.7-7-4.1-6.8-12.3c0.2-8.1-9.7-22.1-9.7-22.1
			c-0.6,0.8-1.2,1.6-2.1,2.4c-0.7,0.7-1.4,1.3-2.1,1.9c0.3,1.8,1,7.7-0.4,11.9c-0.4,1.1-0.9,2.3-0.9,2.3c-0.2,0.5-0.8,1.8-2.9,5.2
			c-0.9,1.6-1.4,2.3-1.7,2.8c-1.4,2.1-2,2.7-2.1,3.8c-0.1,1,0.3,1.7,0.8,2.6c1,2,1.6,4.2,2.6,6.1C245.6,204.9,246.9,207.7,248,211.8
			z"/>
		<linearGradient id="SVGID_106_" gradientUnits="userSpaceOnUse" x1="191.9177" y1="162.5107" x2="191.9177" y2="243.3914">
			<stop  offset="0.4872" style="stop-color:#4C4540"/>
			<stop  offset="0.8034" style="stop-color:#2F2A25"/>
		</linearGradient>
		<path class="st112" d="M183.5,162.5c-4.4,3.9-10.9,10.8-15.2,21c-1.7,4-4.5,10.7-4,19.5c0.1,1.8,0.3,3.1,0.7,5.5
			c2.6,16.6,7.7,21.8,11.6,31.4c0.2,0.5,0.7,1.8,2,2.7c1.4,0.9,2.9,0.9,3.5,0.9c9.9-0.4,28.2-13,28.2-13c2.4-1.7,5.6-3.9,9.4-6.6
			c-1.9-6.3-3.8-12.6-5.7-18.9c-0.9-0.2-8.8-1.8-12.4-4.6c-1.4-1.1-3-2.6-3-2.6s-1.5-1.4-2.7-2.7c-3.6-4-6.5-10.6-6.9-11.5
			c-1.9-4.3-2.8-7.8-3.5-10.6C184.4,168.8,183.8,165.2,183.5,162.5z"/>
		<linearGradient id="SVGID_107_" gradientUnits="userSpaceOnUse" x1="187.316" y1="102.3823" x2="187.316" y2="208.3233">
			<stop  offset="0.4872" style="stop-color:#797471"/>
			<stop  offset="0.8034" style="stop-color:#3C3A38"/>
		</linearGradient>
		<path class="st113" d="M208.2,102.4c0.9,2.2,1.9,4.5,3.2,7c1.6,3.1,3.2,5.9,4.9,8.3c-9.5,19.4-15.4,26.9-19.2,30.2
			c-0.9,0.8-5.1,4.3-9.8,9.9c-1.7,2-3,3.7-3.7,4.8c-4.9,4.6-8.3,9.1-10.4,12.5c-2.5,3.9-5.6,8.8-7.1,15.7c-0.6,2.7-1,6.2-1.1,9.2
			c-0.1,3.8,0,6.5,0,6.5c0.1,1.4,0.1,1.9,0.1,1.9c-0.4,0.1-4-11.7-5.6-23.4c-2.4-18,0.7-32.5,2.2-38.3c2.9-11.3,5.7-22.5,15.5-31.7
			c2.1-2,7.7-7.2,16.8-10.2C199.6,102.7,204.7,102.4,208.2,102.4z"/>
		<linearGradient id="SVGID_108_" gradientUnits="userSpaceOnUse" x1="241.5274" y1="100.8504" x2="241.5274" y2="199.3004">
			<stop  offset="0.4872" style="stop-color:#797471"/>
			<stop  offset="0.8034" style="stop-color:#3C3A38"/>
		</linearGradient>
		<path class="st114" d="M226.6,101c-3-0.2-6.5-0.3-10.4,0.1c-3,0.3-5.7,0.7-8,1.3c1,2.4,2.2,5,3.5,7.6c1.4,2.9,2.9,5.7,4.4,8.3
			c1.6,0.1,3.7,0.3,6,0.7c2.3,0.4,3.9,0.9,4.3,1c1.4,0.4,5.4,1.6,9.1,4.2c3.7,2.5,5.5,5.2,8.5,9.6c0,0,2.2,3.2,5.6,11.7
			c0.1,0.3,0.2,0.7,0.2,0.8c0,0.2,0,0.3,0,0.5c0,0.1-0.1,0.3-0.1,0.3c0.7-0.5,1.4-1,2.2-1.4c0.3-0.2,1.2-0.5,2-0.2
			c0.9,0.3,1.3,1.2,1.7,2.1c0.2,0.5,0.5,1.3,0.7,2.4c0.1,1.8,0,4.1-0.5,6.6c-0.6,3.1-1.5,5.6-2.4,7.4c1.6,2.3,3.2,4.8,4.8,7.8
			c1.2,2.2,2.2,4.4,3.1,6.4c0.6,2.3,1.2,4.6,1.8,6.8c-0.2,1.1-0.3,2.8,0.2,4.8c0.3,1.2,0.8,2.2,1.2,2.9c0.2,0.4,0.6,1,1,1.7
			c0.7,0.9,1.3,1.5,1.8,2c0.7,0.6,1.6,1.6,2.6,2.9c0.2-0.3,0.5-0.7,1-1.2c0.5-0.5,1-0.9,1.1-1c1.2-1,1.7-3.2,1.8-3.7
			c2.2-10.5,0.7-18.9,0.7-18.9c-2.6-14.5-3.9-21.8-6.7-29.1c-2.3-5.8-5.8-13.5-11.4-21.8c-1.1-2.6-2.9-5.9-5.9-9.3
			c-4.9-5.6-10.5-8.3-13.7-9.5C233.3,103.5,229.9,102.3,226.6,101z"/>
		<path class="st109" d="M241.3,193.6c-1.7,3.4-4.1,7.5-7.6,11.8c-2.6,3.2-5.2,5.8-7.6,7.8c0.4,3.7,0.7,7.4,1.1,11.1
			c-1,0.3-2,0.6-3.1,1.1c-1.4,0.6-2.5,1.2-3.6,1.8c-2.2-7.4-4.5-14.8-6.7-22.3c4.3-0.4,10-1.5,15.3-4c3.3-1.6,7-3.9,7.6-4.2
			C238.7,195.5,240.2,194.4,241.3,193.6z"/>
		<path class="st115" d="M200.9,145.7c-0.5-0.1-0.9-0.2-1.4-0.3c-0.7,0.7-1.4,1.4-2.1,2.1c0.3-0.2,0.7-0.4,1.2-0.4
			c0.5,0,0.6,0.3,1.5,0.7c0.4,0.2,0.9,0.4,1.9,0.7c0.5,0.2,0.9,0.3,1.2,0.4c0.2-0.3,0.4-0.7,0.5-1.3c0-0.2,0.1-0.5,0.1-0.7
			c-0.3-0.2-0.7-0.4-1.2-0.7C201.9,145.9,201.3,145.8,200.9,145.7z"/>
		<path class="st106" d="M198.6,147.1c0.2-0.3,0.5-0.6,0.7-0.8c0.4-0.4,0.6-0.6,0.8-0.6c0.1,0,0.2,0,0.3-0.1c-0.3-0.1-0.6-0.1-1-0.2
			c-0.7,0.7-1.3,1.4-2,2.1c0.1-0.1,0.3-0.2,0.5-0.3C198.2,147.1,198.5,147.1,198.6,147.1z"/>
		<path class="st116" d="M197,147.8c0.4,0,0.7,0,0.9,0c0.3,0,0.7,0.1,1.1,0.2c0.3,0.1,0.5,0.2,0.6,0.2c0.3,0.1,0.4,0.3,0.8,0.5
			c0.2,0.2,0.3,0.2,0.5,0.3c0,0,0.2,0.1,0.5,0.3l0,0c-4.8,6.2-9.6,12.5-14.4,18.7c-0.6-0.6-1.2-1.4-1.7-2.3
			c-0.8-1.3-1.3-2.5-1.6-3.4c1.8-2.6,4.1-5.4,6.7-8.2C192.6,151.8,194.9,149.6,197,147.8z"/>
		<path class="st115" d="M208.6,146.9c0,0-0.4,1.5,0.5,1.7c0.9,0.2,8.4-3,8.4-3c1.1,0,2,0,2.7,0c2.8,0.1,3.6,0.4,3.9,0.6
			c0.7,0.3,0.8,0.6,2,1.5c1.2,0.9,2.3,1.7,3.2,2.4c-0.3-0.7-0.8-1.6-1.6-2.5c-1.1-1.4-2.2-2.2-3-2.6c-1-0.3-2.2-0.5-3.6-0.6
			c-1.5-0.1-2.8-0.1-3.9-0.1c-1.5,0-3.6,0.3-5.8,1.2C210.4,145.9,209.4,146.4,208.6,146.9z"/>
		<path class="st117" d="M211.4,150.9c0.9-1.3,1.8-2,2-2.2c0.5-0.4,1.4-1.2,2.7-1.6c1.7-0.6,3.2-0.4,4.5-0.3
			c1.2,0.1,2.3,0.3,3.5,0.9c2.1,1.1,3.2,2.9,3.7,3.8c0.6,1,1.5,3,1.4,5.7c0,0.9-0.1,2.9-1.5,4.9c-0.9,1.3-1.9,2.1-2.4,2.4
			c-2.6,1.7-5.3,1.6-6.4,1.5c-2.6-0.2-4.5-1.3-5.5-2c-0.8-0.7-2.3-2.1-3.2-4.3c-0.7-1.8-0.7-3.4-0.7-3.7c0-1.4,0.3-2.4,0.5-2.8
			C210.6,152.1,211.1,151.4,211.4,150.9z"/>
		<path class="st117" d="M204,159c0.1,1,0.2,3.8-1.6,6.4c-0.9,1.4-2.1,2.2-2.6,2.6c-1.4,0.9-2.7,1.3-3.5,1.5c-1,0.3-2.7,0.5-4.6,0.1
			c-1.5-0.3-2.5-0.9-2.7-1c-0.5-0.3-2-1.2-3-2.9c0,0-0.9-1.4-1.5-3.8c0,0-0.1-0.4-0.1-0.4l0,0c0.7-0.9,1.4-1.9,2.1-2.8
			c0.9-1.2,1.8-2.4,2.6-3.5c0.6-0.9,1.3-1.8,2.2-2.9c0.9-0.9,1.7-1.7,2.5-2.3c0.4-0.3,0.8-0.7,1.2-1c2.3,0.3,3.8,1,4.6,1.5
			c0.9,0.6,1.4,1.1,1.6,1.2c0.6,0.6,1,1.3,1.6,2.7C203,155.6,203.5,157.1,204,159z"/>
		<path class="st106" d="M227.6,147.4c-0.9-0.4-2.3-1-4-1.4c-1.7-0.4-4-1-6.8-0.3c-1.1,0.3-3.2,0.7-5.1,2.4c-1,0.9-1.7,1.9-3.1,2.3
			c-0.4,0.1-1,0.2-2.2,0.3c-1.2,0.1-1.8,0.2-2.4,0.1c-1-0.1-1.6-0.5-2.4-1c-1.4-0.8-1.5-1.3-2.6-1.6c0,0-0.8-0.3-2-0.3
			c-0.7,0-1.9,0.8-3.3,2.2c0.4-0.3,0.7-0.6,1.1-0.9c2.3,0.3,3.8,1,4.6,1.5c0.9,0.6,1.4,1.1,1.6,1.2c0.6,0.6,1,1.3,1.6,2.7
			c0.5,1.1,1,2.6,1.4,4.5c0.1,1,0.2,3.8-1.6,6.5c-0.9,1.4-2.1,2.2-2.7,2.6c-1.4,0.9-2.7,1.3-3.5,1.5c-1,0.3-2.7,0.5-4.6,0.1
			c-1.5-0.3-2.5-0.9-2.7-1c-0.5-0.3-2-1.2-3-2.9c0,0-0.9-1.4-1.5-3.8l-0.1-0.4c-0.2,0.3-0.4,0.6-0.7,1c0.2,0.6,0.5,1.5,1,2.5
			c0.5,0.9,1.8,3.4,4.4,4.8c2.6,1.4,5.1,1,7,0.7c1.5-0.2,3.4-0.5,5.2-1.9c2-1.5,2.8-3.5,3.3-4.7c0.8-1.9,0.9-3.5,1-4.6
			c0-1.5-0.2-2.8-0.5-3.7c-0.1,0-0.7-0.3-0.8-1.1c-0.1-0.7,0.3-1.2,0.3-1.3c0.6-0.5,1.2-0.6,1.5-0.7c0.3-0.1,1.4-0.3,2.2,0.4
			c0.1,0.1,0.5,0.4,0.6,1c0,0.5-0.2,0.9-0.2,1c-0.7,1.2,0.3,4.1,0.5,4.7c1,2.8,2.8,4.5,3.3,4.9c2.3,2,4.8,2.6,5.9,2.8
			c0.9,0.1,5.3,0.8,8.8-2.1c2.7-2.3,3.3-5.4,3.5-6.4c0.3-1.8,0.2-3.3,0.1-4.2c-0.2-1.9-0.7-3.4-1.1-4.4c6-0.3,12-0.5,18-0.8l1.2-1.4
			l0.9-1C242.3,147.1,234.9,147.2,227.6,147.4z M227.9,162.1c-0.9,1.4-1.9,2.1-2.4,2.4c-2.6,1.7-5.3,1.6-6.3,1.5
			c-2.6-0.2-4.5-1.3-5.5-2c-0.8-0.7-2.3-2.1-3.2-4.3c-0.7-1.8-0.7-3.4-0.7-3.7c0-1.4,0.3-2.4,0.5-2.8c0.4-1.1,0.9-1.8,1.2-2.3
			c0.9-1.3,1.8-2,2-2.2c0.5-0.4,1.4-1.2,2.8-1.6c1.7-0.6,3.2-0.4,4.5-0.3c1.2,0.1,2.3,0.3,3.5,0.9c0.3,0.2,0.6,0.4,1,0.6
			c0.4,0.3,0.7,0.5,1,0.8c0.1,0.1,0.1,0.1,0.2,0.2c0.1,0.1,0.1,0.1,0.2,0.2c0.3,0.4,0.7,0.8,1,1.3c0.3,0.5,0.5,0.9,0.7,1.3
			c0.1,0.2,0.2,0.4,0.3,0.6c0.1,0.4,0.3,0.9,0.4,1.3c0.3,0.9,0.4,2,0.4,3.2C229.4,158.1,229.3,160.1,227.9,162.1z"/>
		<path class="st118" d="M248.6,151c0.1-0.3,0.7-1.6,1.5-2.6c0.5-0.6,0.9-0.9,1.1-1.1c0.2-0.1,0.3-0.2,0.4-0.3
			c0.2-0.1,0.9-0.5,1.7-0.3c1,0.2,1.7,1.1,1.8,2.3c0,1.8-0.2,2.7-0.4,2.7c-0.1,0-0.3-0.3-0.6-0.8c0-0.1-0.1-1.1-0.8-1.6
			c-0.8-0.5-2.3-0.2-3.1,1.1C249.7,150.6,249.1,150.8,248.6,151z"/>
		<path class="st118" d="M249.3,153.4c0.2-0.1,1.2-0.6,2.5-0.3c1.3,0.4,1.9,1.4,2,1.6c0.1,0.7,0.1,1.6,0,2.6c0,0.6-0.1,1.1-0.2,1.6
			c0,0.1,0,1.7-1.3,2.4c-0.6,0.3-1.1,0.4-1.4,0.4c0.1-1.2,0.3-2.3,0.4-3.5c-0.1-0.6-0.3-1.4-0.6-2.2
			C250.2,154.8,249.7,154,249.3,153.4z"/>
		<linearGradient id="SVGID_109_" gradientUnits="userSpaceOnUse" x1="251.1385" y1="222.8608" x2="251.1385" y2="366.4369">
			<stop  offset="0.4335" style="stop-color:#CBA5CD"/>
			<stop  offset="0.8034" style="stop-color:#B190B4"/>
		</linearGradient>
		<path class="st119" d="M248,366.1c8,0.4,17.1,0.5,26.9-0.3c7.2-0.6,13.8-1.4,19.8-2.5c2.2-0.5,5.2-1.6,7-4.2
			c2.6-3.8,1.1-8.5-1.7-17.9c-2.5-8.4-4.9-16.9-7.5-25.3c-2.2-7-2.7-9.5-5.4-19.2c-3-10.7-7.7-27.4-15.5-52.9
			c-1.1-2.7-3.1-6.6-6.5-10.6c-1.9-2.2-4.5-5.2-8.9-7.5c-4.7-2.4-8.9-2.6-14.1-2.9c-2.6-0.1-5.5,0.1-11.2,0.7
			c-2.9,0.3-5.7,0.6-8.5,2.6c0,0-0.7,0.5-1.3,1.1c-8.7,8-14.9,27.8-14.9,27.8c-7.5,22.7-7.9,27.2-6.2,32.3c1.1,3.5,2.3,4.5,6.9,11.3
			c6.7,10,8.3,13.9,15.9,26.9C227.9,334.6,236,347.9,248,366.1z"/>
		<linearGradient id="SVGID_110_" gradientUnits="userSpaceOnUse" x1="172.4952" y1="281.8723" x2="172.4952" y2="377.649">
			<stop  offset="3.356507e-07" style="stop-color:#CBA5CD"/>
			<stop  offset="0.8078" style="stop-color:#B190B4"/>
		</linearGradient>
		<path class="st120" d="M146,281.9l13.8,0.3c2.9,7.5,5.9,15,8.8,22.6c1.4,2.4,3.5,6.2,5.5,10.9c2.6,6,2.1,6.5,4.3,11.8
			c2.6,6.2,3.3,5.7,9.8,18.3c1.7,3.3,4.8,9.5,4.8,9.5l0,0l5.9,7.6c-0.9,1.5-2.2,3.5-3.9,5.7c-1.9,2.4-3.4,4.3-5.6,5.9
			c-1.5,1.1-4.9,3.1-10.4,3.2c-1.3-0.1-3.3-0.3-5.5-1.1c-9.1-3.1-13.6-11.9-15.9-16.4C151.5,348.3,146.5,319.8,146,281.9z"/>
		<linearGradient id="SVGID_111_" gradientUnits="userSpaceOnUse" x1="205.6531" y1="264.5107" x2="205.6531" y2="379.949">
			<stop  offset="3.356507e-07" style="stop-color:#CBA5CD"/>
			<stop  offset="0.8078" style="stop-color:#B190B4"/>
		</linearGradient>
		<path class="st121" d="M183.3,264.5l-23.5,17.6c13.3,35.6,25.7,61.7,32.7,72.3c4.3,6.6,10.3,12.7,11.2,13.7
			c5.5,5.7,8.5,8.7,13.6,10.4c2.6,0.9,9,2.7,16.1,0.1c9.2-3.3,13.1-11.5,14.8-15.1c4.8-10,3.2-19.4,2.4-23
			c-15.3-5.9-24.3-13.8-29.5-19.7c-5.2-5.9-3.5-4.8-17.1-26.8c-6.2-10.1-11.3-18.5-14.8-24.2C188.9,269.2,188.4,268.3,183.3,264.5z"
			/>
		<linearGradient id="SVGID_112_" gradientUnits="userSpaceOnUse" x1="175.2224" y1="281.8245" x2="175.2224" y2="377.5523">
			<stop  offset="0.4872" style="stop-color:#AC8CAF"/>
			<stop  offset="0.8034" style="stop-color:#6C5870"/>
		</linearGradient>
		<path class="st122" d="M151.5,282.7c0.3,1.8,0.3,2,0.3,2c1,2.3,1.6,4.7,2.6,7c0.7,1.6,1.2,3.2,1.8,4.8c1.2,3.1,3.1,9.3,6.2,22.5
			c0.1,5,0.3,10,0.4,15.1c-0.5,3.6-0.8,8.3-0.5,13.8c0.1,1.6,0.4,5.7,1.5,11c0.8,4.1,2.3,9.4,4.9,15.5c1.3,0.9,3.9,2.5,7.6,3.1
			c3.8,0.6,6.8-0.1,8.4-0.5c1.8-0.5,5.3-1.8,8.7-4.9c3.6-3.4,5.1-7.2,5.7-9c-5.8-8.6-11.8-18.6-17.5-29.8
			c-9.5-18.7-15.7-36.3-19.9-51.2c-1.1,0.6-2,0.8-2.6,0.9c-1.3,0.3-2.3,0.2-4.3,0.1c-1-0.1-1.8-0.2-2.3-0.2c-0.2-0.1-0.7-0.2-0.8,0
			C151.5,282.6,151.5,282.6,151.5,282.7z"/>
		<linearGradient id="SVGID_113_" gradientUnits="userSpaceOnUse" x1="216.6048" y1="225.8985" x2="216.6048" y2="320.3698">
			<stop  offset="0.4872" style="stop-color:#AC8CAF"/>
			<stop  offset="0.8034" style="stop-color:#6C5870"/>
		</linearGradient>
		<path class="st123" d="M222.9,225.9c2.4,0.4,3.7,8.8,2.7,16.4c-0.5,3.4-1,4.5-4,13.7c-1.5,4.6-2.6,8.4-3.3,11
			c9.8-3.8,13.2-2.5,14.7-1c2.9,3-0.9,8.7-6.3,27.6c-3.6,12.6-6.7,26.8-6.7,26.8l-20.1-33c-0.2-0.6-0.5-1.6-0.7-2.9c0,0,0,0,0,0
			c0,0-0.2-1.5-0.1-3.1c0.1-2.8,1.5-8.2,1.5-8.2c0.7-2.8,1.4-5.1,2.1-7.3c0.3-0.8,0.4-1.4,0.8-2.5c0.7-2.3,1.5-4.7,2.5-7.7
			c1-3,1.6-4.7,1.8-5.2c0.2-0.6,0.6-1.5,1-2.6c0.5-1.2,1.1-2.8,2.1-4.9c2.3-5.1,4.4-8.7,5-9.7c1.1-1.9,2-3.2,3.3-4.7
			C221,226.8,222,225.7,222.9,225.9z"/>
		<linearGradient id="SVGID_114_" gradientUnits="userSpaceOnUse" x1="206.8574" y1="275.7647" x2="206.8574" y2="380.0031">
			<stop  offset="0.4872" style="stop-color:#AC8CAF"/>
			<stop  offset="0.8034" style="stop-color:#6C5870"/>
		</linearGradient>
		<path class="st124" d="M252.2,355.1c-1.7,2.3-6.4,7.9-14.8,10.6c-5.5,1.7-10.3,1.5-13,1.1c-10.8-6.2-15-12.8-16.7-17.9
			c-0.8-2.3-1.4-7.9-2.6-19c-1.2-11.3-1.5-16-4.3-17c-3.3-1.3-6.2,4.2-10,3.1c-4-1.2-3.4-7.8-8.1-14.9c-3.2-4.9-7.5-7.9-10.5-9.5
			c-1-5.2-1.9-10.4-2.9-15.6c-1.5,1-3.1,2.1-4.8,3.5c-1.1,0.9-2.1,1.8-2.9,2.6c1.5,6.5,3.8,15.1,7.4,24.9
			c5,13.5,10.1,23.1,13.8,29.9c3.9,7.3,9.2,16.3,16.2,26.3c1.2,1.7,3.1,4.2,5.6,6.8c2.8,2.9,5.1,5.3,8.6,7.2c2,1.1,5.8,2.8,11.1,3
			c2,0.2,6.3,0.3,11.1-1.8c5.3-2.4,8.1-6.2,9.2-7.9c0.9-1.4,1.7-2.9,2.6-4.5C249.2,362,250.8,358.5,252.2,355.1z"/>
		<linearGradient id="SVGID_115_" gradientUnits="userSpaceOnUse" x1="275.1602" y1="306.3756" x2="275.1602" y2="366.8601">
			<stop  offset="0.4872" style="stop-color:#AC8CAF"/>
			<stop  offset="0.8034" style="stop-color:#6C5870"/>
		</linearGradient>
		<path class="st125" d="M298,334.1c-19.1,11.3-24.1,10.7-25.6,9.1c-1.1-1.2-0.5-2.9,0.6-12.4c0,0,0,0,0,0
			c0.8-10.2,1.5-10.8,1.1-12.9c-0.5-2.9-1.9-5-3.1-6.8c-1.9-2.7-3.3-4.7-4.6-4.6c-2.4,0.3-2.8,7.5-5.4,19.5
			c-2.6,12-5.5,20.3-6.1,22.1c-1.4,4.4-3.9,10.7-7.9,18.1c2.9,0.2,15.7,1,21.1,0.7c0.4,0,0.7,0,0.7,0c1.6-0.1,4.4-0.3,9.1-0.8
			c6-0.7,11.7-1.6,16.9-2.6c1.1-0.2,4-0.7,6.1-3.1c0.3-0.4,1.3-1.5,1.9-3.4c1-2.8,0.7-5.6-1.1-11.6
			C300.9,342.2,299.7,338.4,298,334.1z"/>
		<path class="st126" d="M183.3,264.5c0.6-1.4-0.2-3.1-3.2-6.9c-4.1-5.3-6.1-8-10-10.5c-1.7-1.1-4.3-2.6-7.8-3.7
			c-2.2,0.2-2.8,0.9-3.1,1.3c-1,1.9,1.5,5.6,6.3,9.5c-3.4,0.4-7.2,0.8-11.1,1c-5.5,0.2-10.6,0.1-15.2-0.2c-0.4,0.1-1.6,0.6-2.4,2
			c-0.2,0.3-0.8,1.5-0.5,2.9c0.3,1.6,1.7,2.8,3.4,3.2c3.8-0.1,7.5-0.2,11.3-0.3c0.3,0,0.5-0.1,0.5-0.1c0-0.1-4.4,0.1-13.2,0.4
			c-0.3,0.1-1.4,0.7-1.8,2c-0.5,1.4,0.2,2.8,0.9,3.6c0.9,1,2.5,1,5.7,1.1c1.8,0.1,3.5,0,5.7-0.2c0.8,0,1.2-0.1,1.2-0.1
			c0-0.1-4.6,0.6-9.3,0.3c-0.5,0-1.6-0.1-2.3,0.5c-0.6,0.6-0.8,1.6-0.6,2.3c0.2,1.1,0.9,1.7,1.1,1.8c1,0.8,2.3,0.8,3.4,0.7
			c6.4-0.2,7.3-0.2,7.3-0.3c0-0.1-2.7,0.2-8.4,0.1c-0.4,0-0.7,0-1,0c-0.3,0.2-1.3,1-1.4,2.2c-0.1,1.7,1.7,2.9,2,3.1
			c0.5,0.3,1.3,0.5,2.8,0.9c0.8,0.2,1.5,0.3,2,0.4c2.8,0.1,5.1,0.2,6.6,0.3c4.1,0.3,5.4,0.7,7.4,0c1.6-0.6,2.2-1.3,4.4-3.2
			c2.4-2.1,1.4-0.9,8.8-6.5c7.5-5.7,6.6-5.4,8-6.1C182,265.8,182.9,265.5,183.3,264.5z"/>
	</g>
	<g id="Body">
		<g id="Layer_5">
		</g>
	</g>
	<g id="Head">
		<g id="Layer_6">
		</g>
	</g>
</g>
</svg>
