<?xml version="1.0" encoding="utf-8"?>
<!-- Generator: Adobe Illustrator 23.1.0, SVG Export Plug-In . SVG Version: 6.00 Build 0)  -->
<svg version="1.1" xmlns="http://www.w3.org/2000/svg" xmlns:xlink="http://www.w3.org/1999/xlink" x="0px" y="0px"
	 viewBox="0 0 612 792" style="enable-background:new 0 0 612 792;" xml:space="preserve">
<style type="text/css">
	.st0{fill:url(#SVGID_1_);}
	.st1{fill:url(#SVGID_2_);}
	.st2{fill:url(#SVGID_3_);}
	.st3{fill:url(#SVGID_4_);}
	.st4{fill:url(#SVGID_5_);}
	.st5{fill:url(#SVGID_6_);}
	.st6{fill:url(#SVGID_7_);}
	.st7{fill:url(#SVGID_8_);}
	.st8{fill:url(#SVGID_9_);}
	.st9{fill:url(#SVGID_10_);}
	.st10{fill:url(#SVGID_11_);}
	.st11{fill:url(#SVGID_12_);}
	.st12{fill:url(#SVGID_13_);}
	.st13{fill:url(#SVGID_14_);}
	.st14{fill:url(#SVGID_15_);}
	.st15{fill:url(#SVGID_16_);}
	.st16{fill:url(#SVGID_17_);}
	.st17{fill:url(#SVGID_18_);}
	.st18{fill:url(#SVGID_19_);}
	.st19{fill:url(#SVGID_20_);}
	.st20{fill:url(#SVGID_21_);}
	.st21{fill:url(#SVGID_22_);}
	.st22{fill:url(#SVGID_23_);}
	.st23{fill:url(#SVGID_24_);}
	.st24{fill:url(#SVGID_25_);}
	.st25{fill:url(#SVGID_26_);}
	.st26{fill:url(#SVGID_27_);}
	.st27{fill:url(#SVGID_28_);}
	.st28{fill:url(#SVGID_29_);}
	.st29{fill:url(#SVGID_30_);}
	.st30{fill:url(#SVGID_31_);}
	.st31{fill:url(#SVGID_32_);}
	.st32{fill:url(#SVGID_33_);}
	.st33{fill:url(#SVGID_34_);}
	.st34{fill:url(#SVGID_35_);}
	.st35{fill:url(#SVGID_36_);}
	.st36{fill:url(#SVGID_37_);}
	.st37{fill:url(#SVGID_38_);}
	.st38{fill:url(#SVGID_39_);}
	.st39{fill:url(#SVGID_40_);}
	.st40{fill:url(#SVGID_41_);}
	.st41{fill:url(#SVGID_42_);}
	.st42{fill:url(#SVGID_43_);}
	.st43{fill:url(#SVGID_44_);}
	.st44{fill:url(#SVGID_45_);}
	.st45{fill:url(#SVGID_46_);}
	.st46{fill:url(#SVGID_47_);}
	.st47{fill:url(#SVGID_48_);}
	.st48{fill:url(#SVGID_49_);}
	.st49{fill:url(#SVGID_50_);}
	.st50{fill:url(#SVGID_51_);}
	.st51{fill:url(#SVGID_52_);}
	.st52{fill:url(#SVGID_53_);}
	.st53{fill:url(#SVGID_54_);}
	.st54{fill:url(#SVGID_55_);}
	.st55{fill:url(#SVGID_56_);}
	.st56{fill:url(#SVGID_57_);}
	.st57{fill:url(#SVGID_58_);}
	.st58{fill:url(#SVGID_59_);}
	.st59{fill:url(#SVGID_60_);}
	.st60{fill:url(#SVGID_61_);}
	.st61{fill:url(#SVGID_62_);}
	.st62{fill:#FFFFFF;}
	.st63{fill:#00A79D;}
	.st64{fill:#94D3CD;}
	.st65{fill:url(#SVGID_63_);}
	.st66{fill:url(#SVGID_64_);}
	.st67{fill:url(#SVGID_65_);}
	.st68{fill:url(#SVGID_66_);}
	.st69{fill:url(#SVGID_67_);}
	.st70{fill:url(#SVGID_68_);}
	.st71{fill:url(#SVGID_69_);}
	.st72{fill:url(#SVGID_70_);}
	.st73{fill:url(#SVGID_71_);}
	.st74{fill:url(#SVGID_72_);}
</style>
<g id="Layer_4">
	<radialGradient id="SVGID_1_" cx="293.5497" cy="405.2565" r="220.9052" gradientUnits="userSpaceOnUse">
		<stop  offset="2.717173e-07" style="stop-color:#DA565C"/>
		<stop  offset="0.9567" style="stop-color:#70455C"/>
	</radialGradient>
	<path class="st0" d="M486.8,602.7c-0.4,0.8-0.7,1.4-1,1.8c0,0-6,3.2-15.2,7c-11.3,4.7-27.3,10.2-42.5,11.5h0
		c-3.3,0.3-6.5,0.4-9.6,0.2c-4-0.2-7.8-0.8-11.3-1.9c-11.5-3.5-27.5-5-42.9-5.5c-4.8-0.2-9.4-0.2-13.9-0.2
		c-18.9,0-34.1,1.2-34.1,1.2c0,0-22.5,21.3-48.5,25.7c-7.5,1.3-18.8-0.7-41.4-4.8c-30.5-5.5-34.8-9.9-36.8-13.3
		c-8.7-14.7,11.6-35.7-28.9-33.2c-25.3,1.5-37.9-2-44.9-5.4c-16.4-8.1-27.7-32.7-24.7-53c3.5-23.3,24.1-28.8,30.6-62.1
		c2.3-11.7,1-17.6,0.7-19.2c-3.6-16-15.9-17.9-21.5-34c-0.9-2.5-5.9-18,1.2-30.2c4.6-7.9,11.6-9.7,33.5-18.5
		c8.6-3.5,21.2-8.7,36.4-15.7c31.5-15.8,67.4-37,63.8-52.2c-0.7-2.8-2.5-4.5-3.9-5.9c-18.4-18-40.5-59-31.4-83.5
		c1.9-5.1,8.1-17.4,32.4-25.8c7.6-2.3,51.6-15.6,85.8-17.9c5.1-0.3,18.2-1,32.3,4.9c10.9,4.6,14.5,9.7,15.4,11.2
		c5.4,8.3,1,13.6,4.3,19.9c7,13,31.8,0.7,54.1,14.6c16.5,10.2,22.4,29,24.6,37c0.2,0.6,0.3,1.1,0.4,1.5c2.1,8,4.6,17.2,0.5,27.6
		c-0.9,2.3-2,4.5-3.3,6.3c-1,1.6-2.2,3-3.4,4.3c-4.7,5.1-9.9,7.9-12.2,9c-3.1,3-6.9,7.5-6.1,12.3c0.1,0.5,0.2,0.9,0.3,1.3
		c0,0,0,0,0,0c0.6,1.7,1.8,2.9,3.2,3.9c1.9,1.5,4.1,2.8,5.4,5c3.7,6.4-0.7,19.5-10.2,31.1c-4.7,5.7-10.7,11.1-17.6,15.1
		c-22.6,13-41.9,3.4-50.5,17.6c-3.7,6.1-2,10.9-8.7,22.2c-5,8.3-8.3,9.7-11.5,14.8c-7.6,12.1-6.4,31.6,1.3,43.2
		c1.3,1.9,2.6,3.4,4.1,4.7c4.1,3.4,9.7,5.2,19.6,7.4c2.3,0.5,4.8,1.1,7.6,1.7c0.5,0.1,1,0.2,1.6,0.3c0.7,0.2,1.5,0.3,2.2,0.5
		c3.5,0.8,7.4,1.6,11.8,2.6c1.1,0.3,2.3,0.5,3.5,0.8c1.8,0.4,3.6,0.8,5.5,1.3c4.2,1,8.7,2.1,13.5,3.3c2.5,0.6,4.8,1.2,7,1.8
		c0.3,0.1,0.6,0.2,0.9,0.2c27.6,7.3,37,11.8,45.2,16.9c11.3,7,24.5,15.1,31.7,30.6c2.3,4.9,3.6,9.8,4.3,14.6
		C498.7,577.4,490.3,596,486.8,602.7z"/>
	<linearGradient id="SVGID_2_" gradientUnits="userSpaceOnUse" x1="420.1212" y1="372.3598" x2="524.2859" y2="372.3598">
		<stop  offset="0.2229" style="stop-color:#8B5167"/>
		<stop  offset="1" style="stop-color:#563044"/>
	</linearGradient>
	<path class="st1" d="M510.3,387.5c-1.9,8-2.9,12.7-2.7,19.4c0.6,17.6,9.6,27.8,4.6,33.9c-2,2.5-5.2,3-7.4,3.2
		c-18.6,1.8-54.3,24.7-66.9,13.8c-0.3-0.3-0.3-0.3-4-7.3c-12.4-23.8-13.2-25-13.7-28.5c-0.7-4.8,0.8-3.2,3.8-23
		c2.5-16.2,1.4-16.3,3.3-20.2c4.3-8.7,9.6-7.5,19.5-19.6c3.6-4.4,6.5-7.9,7.9-11.6v0c0.6-1.5,0.9-3,1-4.7c0-0.2,0-0.3,0-0.5
		c0.2-7.4-4.9-9.9-7.2-17.6c-1.6-5.4-2-13.9,4.8-26.5c0,0,5.5-15,18-14.2c0.7,0,1.4,0.1,2.1,0.3c0.1,0,0.3,0,0.4,0.1
		c2.5,0.5,5.6,1.2,9,2.1c2.2,0.6,4.4,1.2,6.8,1.9c14.7,4.5,31.5,11.6,32.2,19c2.1,21.6,3.4,41.1,1.7,46.3
		C519.7,365.5,514.3,370.2,510.3,387.5z"/>
	<linearGradient id="SVGID_3_" gradientUnits="userSpaceOnUse" x1="446.037" y1="252.2153" x2="494.4764" y2="252.2153">
		<stop  offset="0.2229" style="stop-color:#8B5167"/>
		<stop  offset="1" style="stop-color:#563044"/>
	</linearGradient>
	<path class="st2" d="M491.7,278.9c-0.5,0.6-1.1,1-1.7,1.4c-1.7,0.9-2.9,0.2-5.3-0.5c-1.6-0.5-3.9-1-7.2-1c-1,0-1.9,0-2.7,0
		c-0.6,0-1.2,0-1.8,0c-1.4,0-2.7-0.1-4.3-0.6c-0.5-0.2-3.5-1-5.5-2.8c-6.4-5.6,0.9-16.3-5.4-25.5c-2.1-3-3.5-2.8-7.4-8.2
		c-4.3-5.8-4.5-8.6-4.3-10.2c0-0.7,0.3-4.1,2.8-6.1c3.6-3,9.3-1,12.8,0.2c2.3,0.8,10.4,3.6,14.9,11.7c3.9,6.9,0.4,9.4,4.1,15.8
		c2.7,4.8,6.2,6.3,9,8.3c1.9,1.3,3.5,2.8,4.3,5.5c0.1,0.2,0.1,0.4,0.2,0.6C495.1,271.5,494,276.3,491.7,278.9z"/>
</g>
<g id="Layer_6">
	
		<linearGradient id="SVGID_4_" gradientUnits="userSpaceOnUse" x1="358.1591" y1="487.3002" x2="443.4307" y2="435.6481" gradientTransform="matrix(1.3874 0.5904 0.7122 -1.6737 -572.4407 767.3586)">
		<stop  offset="0.3609" style="stop-color:#C89789"/>
		<stop  offset="1" style="stop-color:#3E2962"/>
	</linearGradient>
	<path class="st3" d="M367.9,284.8c4.3-6.2,17-26.1,14.2-47.6c-0.4-3.4-1.2-6.5-2.2-9.3c-7.4-8.9-13.1-9.8-16.9-9
		c-6.3,1.4-11.3,8.5-15.3,6.4c-1.4-0.7-2.4-2.5-2.6-4.1c-0.5-3.7,2.8-5.7,3.7-10.8c0.1-0.5,0.9-5.6-1.7-9.3
		c-2.5-3.5-7.5-4.9-11.2-2.6c-0.9,0.6-1.6,1.2-2,1.8c-5.5,2.4-7.9,1.4-9,0.5c-2.3-1.8-2-5.3-3-12.9c-0.7-5.1-1.6-9.1-2.2-11.7
		c-2.7-4.4-6.9-6.5-10.8-5.4c-3.4,1-5.6,4.1-6.3,5.2c-5.3,7.8-2.5,17.8-4.3,18.6c-1.2,0.5-3.1-3.7-5.1-8.6c-3-7.2-5.4-13.4-7.1-17.9
		c-2.3-4.9-6.2-7.5-10.2-6.8c-3.1,0.6-5.2,3-6.4,4.2c-5,5.6-5.5,13.2-5.7,16.5c-0.3,5.1,0.5,8.8,1.3,12c2.4,10.5,6.6,13.8,4.8,20
		c-0.3,0.9-1,3.2-2.6,4.1c-2.6,1.4-4.5-2.7-7.5-2.2c-4,0.6-8.7,8.8-8.6,16c0.1,6.4,4.2,11.7,8.8,13.6c7.1,3,13.6-2.8,17.5,1.6
		c1.2,1.3,2.3,3.8,1.5,5.7c-1.2,3.1-6.4,1.9-9.5,6.1c-1.4,1.9-2.5,5-1.9,7.5c1,4.5,6.8,4.4,19.8,10.1c4.3,1.9,6.8,3.3,6.6,4.7
		c-0.4,2.1-6.6,1.1-9.8,5.6c-3.2,4.5-2,12.7,1.4,17.3c2.4,3.2,5.7,4.3,7.1,4.7c32.5,9.3,54.8-4.6,54.8-4.6
		C352.2,300.8,360.1,295.1,367.9,284.8z"/>
	<g>
		
			<linearGradient id="SVGID_5_" gradientUnits="userSpaceOnUse" x1="440.9717" y1="745.774" x2="475.6014" y2="745.774" gradientTransform="matrix(-0.6808 0.6524 0.6422 0.6702 104.9145 -203.8687)">
			<stop  offset="0" style="stop-color:#865CA0"/>
			<stop  offset="0.2687" style="stop-color:#8B56A3"/>
			<stop  offset="1" style="stop-color:#1F958C;stop-opacity:0.4"/>
		</linearGradient>
		<path class="st4" d="M272,571.5c0,0-12.7,34.5-2.3,44.8c0.5,0.5,1.9,2,3.3,0.8c3.2-2.7,3.6-16.8,3.6-18.9
			C276.8,592.1,276.3,581.9,272,571.5z"/>
		
			<linearGradient id="SVGID_6_" gradientUnits="userSpaceOnUse" x1="426.8674" y1="700.298" x2="456.1843" y2="700.298" gradientTransform="matrix(-0.8511 0.4059 0.3996 0.8378 382.4212 -203.1789)">
			<stop  offset="0" style="stop-color:#865CA0"/>
			<stop  offset="0.2687" style="stop-color:#8B56A3"/>
			<stop  offset="1" style="stop-color:#1F958C;stop-opacity:0.4"/>
		</linearGradient>
		<path class="st5" d="M291.1,540.5c0,0-18.7,26.4-10.9,41.4c0.4,0.7,1.4,2.8,3,2.4c3.6-0.9,6.7-14.1,7.1-16.1
			C291.7,562.4,293.3,552.6,291.1,540.5z"/>
		
			<linearGradient id="SVGID_7_" gradientUnits="userSpaceOnUse" x1="384.1004" y1="653.4145" x2="412.7237" y2="653.4145" gradientTransform="matrix(-0.7076 0.3375 0.2815 0.5902 398.7188 25.6237)">
			<stop  offset="0" style="stop-color:#865CA0"/>
			<stop  offset="0.2687" style="stop-color:#8B56A3"/>
			<stop  offset="1" style="stop-color:#1F958C;stop-opacity:0.4"/>
		</linearGradient>
		<path class="st6" d="M305.2,529.1c0,0-15.9,20.7-10.1,31c0.3,0.5,1.1,2,2.4,1.5c2.9-1,5.8-10.8,6.2-12.3
			C305.1,545.1,306.6,537.8,305.2,529.1z"/>
		
			<linearGradient id="SVGID_8_" gradientUnits="userSpaceOnUse" x1="406.3991" y1="605.0374" x2="429.81" y2="605.0374" gradientTransform="matrix(-0.7803 7.548311e-02 6.296063e-02 0.6509 603.6889 111.0163)">
			<stop  offset="0" style="stop-color:#865CA0"/>
			<stop  offset="0.2687" style="stop-color:#8B56A3"/>
			<stop  offset="1" style="stop-color:#1F958C;stop-opacity:0.4"/>
		</linearGradient>
		<path class="st7" d="M323.5,523.1c0,0-19.4,10.6-16,23.6c0.2,0.6,0.6,2.4,1.9,2.7c2.9,0.7,7.8-7,8.5-8.1
			C319.9,538,322.9,532,323.5,523.1z"/>
		
			<linearGradient id="SVGID_9_" gradientUnits="userSpaceOnUse" x1="360.5009" y1="600.0477" x2="385.7981" y2="600.0477" gradientTransform="matrix(-0.7619 0.1847 0.154 0.6355 525.0172 69.6479)">
			<stop  offset="0" style="stop-color:#865CA0"/>
			<stop  offset="0.2687" style="stop-color:#8B56A3"/>
			<stop  offset="1" style="stop-color:#1F958C;stop-opacity:0.4"/>
		</linearGradient>
		<path class="st8" d="M339.7,505c0,0-18.2,14.9-13.8,27c0.2,0.6,0.8,2.3,2.1,2.3c3,0,7.1-8.7,7.7-10C337.5,520.6,340,514,339.7,505
			z"/>
		
			<linearGradient id="SVGID_10_" gradientUnits="userSpaceOnUse" x1="533.9935" y1="629.1804" x2="557.5719" y2="629.1804" gradientTransform="matrix(-0.6131 -0.4885 -0.4075 0.5114 893.0951 523.7036)">
			<stop  offset="0" style="stop-color:#865CA0"/>
			<stop  offset="0.2687" style="stop-color:#8B56A3"/>
			<stop  offset="1" style="stop-color:#1F958C;stop-opacity:0.4"/>
		</linearGradient>
		<path class="st9" d="M314.4,578.2c0,0-18.5-14.1-21.7-1c-0.2,0.6-0.6,2.4,0.2,4.1c1.8,3.8,8.6,3.7,9.6,3.7
			C305.4,584.9,310.1,584,314.4,578.2z"/>
		
			<linearGradient id="SVGID_11_" gradientUnits="userSpaceOnUse" x1="335.7074" y1="584.3933" x2="361.0046" y2="584.3933" gradientTransform="matrix(-0.7619 0.1847 0.154 0.6355 525.0172 69.6479)">
			<stop  offset="0" style="stop-color:#865CA0"/>
			<stop  offset="0.2687" style="stop-color:#8B56A3"/>
			<stop  offset="1" style="stop-color:#1F958C;stop-opacity:0.4"/>
		</linearGradient>
		<path class="st10" d="M356.2,490.5c0,0-18.2,14.9-13.8,27c0.2,0.6,0.8,2.3,2.1,2.3c3,0,7.1-8.7,7.7-10
			C354,506,356.4,499.4,356.2,490.5z"/>
		
			<linearGradient id="SVGID_12_" gradientUnits="userSpaceOnUse" x1="309.2547" y1="563.3224" x2="334.5519" y2="563.3224" gradientTransform="matrix(-0.7619 0.1847 0.154 0.6355 525.0172 69.6479)">
			<stop  offset="0" style="stop-color:#865CA0"/>
			<stop  offset="0.2687" style="stop-color:#8B56A3"/>
			<stop  offset="1" style="stop-color:#1F958C;stop-opacity:0.4"/>
		</linearGradient>
		<path class="st11" d="M373.1,472.2c0,0-18.2,14.9-13.8,27c0.2,0.6,0.8,2.3,2.1,2.3c3,0,7.1-8.7,7.7-10
			C370.9,487.8,373.3,481.2,373.1,472.2z"/>
		
			<linearGradient id="SVGID_13_" gradientUnits="userSpaceOnUse" x1="250.639" y1="859.5457" x2="276.8821" y2="859.5457" gradientTransform="matrix(-0.5036 0.6008 -0.5011 -0.4201 927.4736 717.7267)">
			<stop  offset="0" style="stop-color:#865CA0"/>
			<stop  offset="0.2687" style="stop-color:#8B56A3"/>
			<stop  offset="1" style="stop-color:#1F958C;stop-opacity:0.4"/>
		</linearGradient>
		<path class="st12" d="M376,511.9c0,0-16.4,19.7-21.1,8c-0.2-0.6-0.9-2.2-0.3-4.1c1.3-4.3,7.9-6.4,8.9-6.7
			C366.4,508.2,371.2,507.6,376,511.9z"/>
		
			<linearGradient id="SVGID_14_" gradientUnits="userSpaceOnUse" x1="282.0411" y1="863.1018" x2="308.2842" y2="863.1018" gradientTransform="matrix(-0.5036 0.6008 -0.5011 -0.4201 927.4736 717.7267)">
			<stop  offset="0" style="stop-color:#865CA0"/>
			<stop  offset="0.2687" style="stop-color:#8B56A3"/>
			<stop  offset="1" style="stop-color:#1F958C;stop-opacity:0.4"/>
		</linearGradient>
		<path class="st13" d="M358.4,529.2c0,0-16.4,19.7-21.1,8c-0.2-0.6-0.9-2.2-0.3-4.1c1.3-4.3,7.9-6.4,8.9-6.7
			C348.8,525.6,353.6,525,358.4,529.2z"/>
		
			<linearGradient id="SVGID_15_" gradientUnits="userSpaceOnUse" x1="313.9359" y1="868.4604" x2="340.179" y2="868.4604" gradientTransform="matrix(-0.5036 0.6008 -0.5011 -0.4201 927.4736 717.7267)">
			<stop  offset="0" style="stop-color:#865CA0"/>
			<stop  offset="0.2687" style="stop-color:#8B56A3"/>
			<stop  offset="1" style="stop-color:#1F958C;stop-opacity:0.4"/>
		</linearGradient>
		<path class="st14" d="M339.7,546.1c0,0-16.4,19.7-21.1,8c-0.2-0.6-0.9-2.2-0.3-4.1c1.3-4.3,7.9-6.4,8.9-6.7
			C330.1,542.5,334.8,541.9,339.7,546.1z"/>
		
			<linearGradient id="SVGID_16_" gradientUnits="userSpaceOnUse" x1="342.7346" y1="935.0881" x2="365.5923" y2="935.0881" gradientTransform="matrix(-0.6006 0.3895 -0.2986 -0.4604 804.7197 855.1839)">
			<stop  offset="0" style="stop-color:#865CA0"/>
			<stop  offset="0.2687" style="stop-color:#8B56A3"/>
			<stop  offset="1" style="stop-color:#1F958C;stop-opacity:0.4"/>
		</linearGradient>
		<path class="st15" d="M323.6,564.2c0,0-17.4,10.6-19.2-0.9c-0.1-0.5-0.4-2.1,0.5-3.5c1.9-3.1,7.9-2.5,8.7-2.4
			C316.1,557.7,320.2,558.9,323.6,564.2z"/>
		
			<linearGradient id="SVGID_17_" gradientUnits="userSpaceOnUse" x1="534.6817" y1="710.9019" x2="555.4159" y2="710.9019" gradientTransform="matrix(-0.4398 -0.3504 -0.5842 0.7331 944.8942 268.6716)">
			<stop  offset="0" style="stop-color:#865CA0"/>
			<stop  offset="0.2687" style="stop-color:#8B56A3"/>
			<stop  offset="1" style="stop-color:#1F958C;stop-opacity:0.4"/>
		</linearGradient>
		<path class="st16" d="M302.3,591.9c0,0-15.4-5.8-21.3,11c-0.3,0.8-1.1,3.1-0.7,4.6c1,3.4,7.7-0.6,8.7-1.1
			C291.9,604.7,296.8,600.9,302.3,591.9z"/>
		
			<linearGradient id="SVGID_18_" gradientUnits="userSpaceOnUse" x1="520.442" y1="735.2219" x2="541.1761" y2="735.2219" gradientTransform="matrix(-0.4398 -0.3504 -0.5842 0.7331 944.8942 268.6716)">
			<stop  offset="0" style="stop-color:#865CA0"/>
			<stop  offset="0.2687" style="stop-color:#8B56A3"/>
			<stop  offset="1" style="stop-color:#1F958C;stop-opacity:0.4"/>
		</linearGradient>
		<path class="st17" d="M294.3,614.7c0,0-15.4-5.8-21.3,11c-0.3,0.8-1.1,3.1-0.7,4.6c1,3.4,7.7-0.6,8.7-1.1
			C283.9,627.5,288.9,623.7,294.3,614.7z"/>
		
			<linearGradient id="SVGID_19_" gradientUnits="userSpaceOnUse" x1="529.7592" y1="408.4031" x2="551.3494" y2="408.4031" gradientTransform="matrix(-0.3913 -0.3117 -0.4234 0.5313 762.6221 443.4685)">
			<stop  offset="0" style="stop-color:#865CA0"/>
			<stop  offset="0.2687" style="stop-color:#8B56A3"/>
			<stop  offset="1" style="stop-color:#1F958C;stop-opacity:0.4"/>
		</linearGradient>
		<path class="st18" d="M388.1,487.9c0,0-13-6.6-17.1,5.9c-0.2,0.6-0.8,2.3-0.4,3.6c1,2.8,6.4,0.6,7.2,0.2
			C380.1,496.6,384,494.3,388.1,487.9z"/>
		
			<linearGradient id="SVGID_20_" gradientUnits="userSpaceOnUse" x1="395.7513" y1="586.5873" x2="251.9728" y2="586.5873" gradientTransform="matrix(0.9491 -0.315 -0.315 -0.9491 195.5922 1225.8574)">
			<stop  offset="0" style="stop-color:#865CA0"/>
			<stop  offset="0.2687" style="stop-color:#8B56A3"/>
			<stop  offset="1" style="stop-color:#5B2B5E"/>
		</linearGradient>
		<path class="st19" d="M266,638.2c0.2-2,0.6-5.1,1.7-8.5c2.7-9,6-8.7,8.3-17c1.3-4.6,0.8-6.7,2.8-12.4c0.7-2,1-2.4,2.8-6.4
			c2.4-5.4,4.2-9.9,5.8-13.9c3.4-8.5,3.5-9.5,5.1-11.6c2-2.7,2.4-1.8,5.9-5.3c4.5-4.5,4.3-6.4,7.8-9.4c2.5-2.1,2.9-1.4,6.9-4.1
			c3.2-2.2,4.9-3.9,7.2-6c2.7-2.4,6.7-5.6,12.1-8.7c2-3.1,5.2-7.5,9.7-11.4c3.8-3.3,4.1-2.3,7.5-5.6c2.8-2.7,3.5-4.2,10.6-12.6
			c1.4-1.6,2.1-2.4,3-3.3c2.9-2.9,5.4-4.8,7.2-5.9c-0.9,1.1-2.3,2.9-4.1,4.8c-4.7,5.2-6.3,5.9-9.6,9.8c-3.8,4.5-2.8,5-5.9,8.3
			c-3.9,4.3-5.8,3.8-9.8,7.5c-1.9,1.8-4.6,4.7-7.3,9.7c-5.3,3-9.4,6.1-12.1,8.5c-2.8,2.4-3.7,3.5-6.7,5.7c-5.3,4-5.9,3.1-8.7,6
			c-3,3.1-3.1,4.9-6.9,9.5c-2.1,2.5-3.9,4.1-5.2,5.2c-0.5,1-7.6,16.2-11,24.8c-0.9,2.1-1.6,4.2-2.4,6.7c-1.3,4.2-2.1,7.5-2.3,8.2
			C277.2,614.6,274.4,622.1,266,638.2z"/>
	</g>
	<g>
		
			<linearGradient id="SVGID_21_" gradientUnits="userSpaceOnUse" x1="188.8461" y1="565.151" x2="223.4758" y2="565.151" gradientTransform="matrix(-0.6808 0.6524 0.6422 0.6702 104.9145 -203.8687)">
			<stop  offset="2.717173e-07" style="stop-color:#DA565C"/>
			<stop  offset="0.9567" style="stop-color:#A1474C"/>
		</linearGradient>
		<path class="st20" d="M327.6,286c0,0-12.7,34.5-2.3,44.8c0.5,0.5,1.9,2,3.3,0.8c3.2-2.7,3.6-16.8,3.6-18.9
			C332.5,306.5,332,296.4,327.6,286z"/>
		
			<linearGradient id="SVGID_22_" gradientUnits="userSpaceOnUse" x1="243.2295" y1="448.4603" x2="272.5464" y2="448.4603" gradientTransform="matrix(-0.8511 0.4059 0.3996 0.8378 382.4212 -203.1789)">
			<stop  offset="2.717173e-07" style="stop-color:#DA565C"/>
			<stop  offset="0.9567" style="stop-color:#A1474C"/>
		</linearGradient>
		<path class="st21" d="M346.8,254.9c0,0-18.7,26.4-10.9,41.4c0.4,0.7,1.4,2.8,3,2.4c3.6-0.9,6.7-14.1,7.1-16.1
			C347.4,276.9,348.9,267.1,346.8,254.9z"/>
		
			<linearGradient id="SVGID_23_" gradientUnits="userSpaceOnUse" x1="163.2225" y1="295.923" x2="191.8458" y2="295.923" gradientTransform="matrix(-0.7076 0.3375 0.2815 0.5902 398.7188 25.6237)">
			<stop  offset="2.717173e-07" style="stop-color:#DA565C"/>
			<stop  offset="0.9567" style="stop-color:#A1474C"/>
		</linearGradient>
		<path class="st22" d="M360.9,243.6c0,0-15.9,20.7-10.1,31c0.3,0.5,1.1,2,2.4,1.5c2.9-1,5.8-10.8,6.2-12.3
			C360.7,259.5,362.3,252.3,360.9,243.6z"/>
		
			<linearGradient id="SVGID_24_" gradientUnits="userSpaceOnUse" x1="300.6549" y1="178.5964" x2="324.0658" y2="178.5964" gradientTransform="matrix(-0.7803 7.548311e-02 6.296063e-02 0.6509 603.6889 111.0163)">
			<stop  offset="2.717173e-07" style="stop-color:#DA565C"/>
			<stop  offset="0.9567" style="stop-color:#A1474C"/>
		</linearGradient>
		<path class="st23" d="M379.1,237.5c0,0-19.4,10.6-16,23.6c0.2,0.6,0.6,2.4,1.9,2.7c2.9,0.7,7.8-7,8.5-8.1
			C375.6,252.4,378.6,246.4,379.1,237.5z"/>
		
			<linearGradient id="SVGID_25_" gradientUnits="userSpaceOnUse" x1="205.6966" y1="195.7223" x2="230.9939" y2="195.7223" gradientTransform="matrix(-0.7619 0.1847 0.154 0.6355 525.0172 69.6479)">
			<stop  offset="2.717173e-07" style="stop-color:#DA565C"/>
			<stop  offset="0.9567" style="stop-color:#A1474C"/>
		</linearGradient>
		<path class="st24" d="M395.4,219.5c0,0-18.2,14.9-13.8,27c0.2,0.6,0.8,2.3,2.1,2.3c3,0,7.1-8.7,7.7-10
			C393.2,235,395.6,228.4,395.4,219.5z"/>
		
			<linearGradient id="SVGID_26_" gradientUnits="userSpaceOnUse" x1="705.4321" y1="234.619" x2="729.0106" y2="234.619" gradientTransform="matrix(-0.6131 -0.4885 -0.4075 0.5114 893.0951 523.7036)">
			<stop  offset="2.717173e-07" style="stop-color:#DA565C"/>
			<stop  offset="0.9567" style="stop-color:#A1474C"/>
		</linearGradient>
		<path class="st25" d="M370,292.7c0,0-18.5-14.1-21.7-1c-0.2,0.6-0.6,2.4,0.2,4.1c1.8,3.8,8.6,3.7,9.6,3.7
			C361.1,299.4,365.8,298.4,370,292.7z"/>
		
			<linearGradient id="SVGID_27_" gradientUnits="userSpaceOnUse" x1="180.9031" y1="180.0679" x2="206.2003" y2="180.0679" gradientTransform="matrix(-0.7619 0.1847 0.154 0.6355 525.0172 69.6479)">
			<stop  offset="2.717173e-07" style="stop-color:#DA565C"/>
			<stop  offset="0.9567" style="stop-color:#A1474C"/>
		</linearGradient>
		<path class="st26" d="M411.9,205c0,0-18.2,14.9-13.8,27c0.2,0.6,0.8,2.3,2.1,2.3c3,0,7.1-8.7,7.7-10
			C409.7,220.5,412.1,213.9,411.9,205z"/>
		
			<linearGradient id="SVGID_28_" gradientUnits="userSpaceOnUse" x1="154.4504" y1="158.997" x2="179.7477" y2="158.997" gradientTransform="matrix(-0.7619 0.1847 0.154 0.6355 525.0172 69.6479)">
			<stop  offset="2.717173e-07" style="stop-color:#DA565C"/>
			<stop  offset="0.9567" style="stop-color:#A1474C"/>
		</linearGradient>
		<path class="st27" d="M428.8,186.7c0,0-18.2,14.9-13.8,27c0.2,0.6,0.8,2.3,2.1,2.3c3,0,7.1-8.7,7.7-10
			C426.6,202.2,429,195.6,428.8,186.7z"/>
		
			<linearGradient id="SVGID_29_" gradientUnits="userSpaceOnUse" x1="-74.1013" y1="1074.8284" x2="-47.8583" y2="1074.8284" gradientTransform="matrix(-0.5036 0.6008 -0.5011 -0.4201 927.4736 717.7267)">
			<stop  offset="2.717173e-07" style="stop-color:#DA565C"/>
			<stop  offset="0.9567" style="stop-color:#A1474C"/>
		</linearGradient>
		<path class="st28" d="M431.7,226.3c0,0-16.4,19.7-21.1,8c-0.2-0.6-0.9-2.2-0.3-4.1c1.3-4.3,7.9-6.4,8.9-6.7
			C422.1,222.6,426.8,222.1,431.7,226.3z"/>
		
			<linearGradient id="SVGID_30_" gradientUnits="userSpaceOnUse" x1="-42.6992" y1="1078.3845" x2="-16.4561" y2="1078.3845" gradientTransform="matrix(-0.5036 0.6008 -0.5011 -0.4201 927.4736 717.7267)">
			<stop  offset="2.717173e-07" style="stop-color:#DA565C"/>
			<stop  offset="0.9567" style="stop-color:#A1474C"/>
		</linearGradient>
		<path class="st29" d="M414.1,243.7c0,0-16.4,19.7-21.1,8c-0.2-0.6-0.9-2.2-0.3-4.1c1.3-4.3,7.9-6.4,8.9-6.7
			C404.5,240,409.2,239.4,414.1,243.7z"/>
		
			<linearGradient id="SVGID_31_" gradientUnits="userSpaceOnUse" x1="-10.8044" y1="1083.743" x2="15.4386" y2="1083.743" gradientTransform="matrix(-0.5036 0.6008 -0.5011 -0.4201 927.4736 717.7267)">
			<stop  offset="2.717173e-07" style="stop-color:#DA565C"/>
			<stop  offset="0.9567" style="stop-color:#A1474C"/>
		</linearGradient>
		<path class="st30" d="M395.3,260.6c0,0-16.4,19.7-21.1,8c-0.2-0.6-0.9-2.2-0.3-4.1c1.3-4.3,7.9-6.4,8.9-6.7
			C385.7,256.9,390.5,256.3,395.3,260.6z"/>
		
			<linearGradient id="SVGID_32_" gradientUnits="userSpaceOnUse" x1="60.4314" y1="1316.4688" x2="83.2891" y2="1316.4688" gradientTransform="matrix(-0.6006 0.3895 -0.2986 -0.4604 804.7197 855.1839)">
			<stop  offset="2.717173e-07" style="stop-color:#DA565C"/>
			<stop  offset="0.9567" style="stop-color:#A1474C"/>
		</linearGradient>
		<path class="st31" d="M379.2,278.7c0,0-17.4,10.6-19.2-0.9c-0.1-0.5-0.4-2.1,0.5-3.5c1.9-3.1,7.9-2.5,8.7-2.4
			C371.8,272.2,375.9,273.4,379.2,278.7z"/>
		
			<linearGradient id="SVGID_33_" gradientUnits="userSpaceOnUse" x1="773.6961" y1="435.6742" x2="794.4303" y2="435.6742" gradientTransform="matrix(-0.4398 -0.3504 -0.5842 0.7331 944.8942 268.6716)">
			<stop  offset="2.717173e-07" style="stop-color:#DA565C"/>
			<stop  offset="0.9567" style="stop-color:#A1474C"/>
		</linearGradient>
		<path class="st32" d="M357.9,306.3c0,0-15.4-5.8-21.3,11c-0.3,0.8-1.1,3.1-0.7,4.6c1,3.4,7.7-0.6,8.7-1.1
			C347.5,319.1,352.5,315.4,357.9,306.3z"/>
		
			<linearGradient id="SVGID_34_" gradientUnits="userSpaceOnUse" x1="759.4564" y1="459.9941" x2="780.1906" y2="459.9941" gradientTransform="matrix(-0.4398 -0.3504 -0.5842 0.7331 944.8942 268.6716)">
			<stop  offset="2.717173e-07" style="stop-color:#DA565C"/>
			<stop  offset="0.9567" style="stop-color:#A1474C"/>
		</linearGradient>
		<path class="st33" d="M350,329.2c0,0-15.4-5.8-21.3,11c-0.3,0.8-1.1,3.1-0.7,4.6c1,3.4,7.7-0.6,8.7-1.1
			C339.6,341.9,344.5,338.2,350,329.2z"/>
		
			<linearGradient id="SVGID_35_" gradientUnits="userSpaceOnUse" x1="798.4189" y1="28.6343" x2="820.0091" y2="28.6343" gradientTransform="matrix(-0.3913 -0.3117 -0.4234 0.5313 762.6221 443.4685)">
			<stop  offset="2.717173e-07" style="stop-color:#DA565C"/>
			<stop  offset="0.9567" style="stop-color:#A1474C"/>
		</linearGradient>
		<path class="st34" d="M443.7,202.4c0,0-13-6.6-17.1,5.9c-0.2,0.6-0.8,2.3-0.4,3.6c1,2.8,6.4,0.6,7.2,0.2
			C435.8,211.1,439.7,208.8,443.7,202.4z"/>
		
			<linearGradient id="SVGID_36_" gradientUnits="userSpaceOnUse" x1="538.5297" y1="840.051" x2="394.7512" y2="840.051" gradientTransform="matrix(0.9491 -0.315 -0.315 -0.9491 195.5922 1225.8574)">
			<stop  offset="2.717173e-07" style="stop-color:#DA565C"/>
			<stop  offset="0.9567" style="stop-color:#A1474C"/>
		</linearGradient>
		<path class="st35" d="M321.7,352.7c0.2-2,0.6-5.1,1.7-8.5c2.7-9,6-8.7,8.3-17c1.3-4.6,0.8-6.7,2.8-12.4c0.7-2,1-2.4,2.8-6.4
			c2.4-5.4,4.2-9.9,5.8-13.9c3.4-8.5,3.5-9.5,5.1-11.6c2-2.7,2.4-1.8,5.9-5.3c4.5-4.5,4.2-6.4,7.8-9.4c2.5-2.1,2.9-1.4,6.9-4.1
			c3.2-2.2,4.9-3.9,7.2-6c2.7-2.4,6.7-5.6,12.1-8.7c2-3.1,5.2-7.5,9.7-11.4c3.8-3.3,4.1-2.3,7.5-5.6c2.8-2.7,3.5-4.2,10.6-12.6
			c1.4-1.6,2.1-2.4,3-3.3c2.9-2.9,5.4-4.8,7.2-5.9c-0.9,1.1-2.3,2.9-4.1,4.8c-4.7,5.2-6.3,5.9-9.6,9.8c-3.8,4.5-2.8,5-5.9,8.3
			c-3.9,4.3-5.8,3.8-9.8,7.5c-1.9,1.8-4.6,4.7-7.3,9.7c-5.3,3-9.4,6.1-12.1,8.5c-2.8,2.4-3.7,3.5-6.7,5.7c-5.3,4-5.9,3.1-8.7,6
			c-3,3.1-3.1,4.9-6.9,9.5c-2.1,2.5-3.9,4.1-5.2,5.2c-0.5,1-7.6,16.2-11,24.8c-0.9,2.1-1.6,4.2-2.4,6.7c-1.3,4.2-2.1,7.5-2.3,8.2
			C332.9,329.1,330.1,336.6,321.7,352.7z"/>
	</g>
	<g>
		
			<linearGradient id="SVGID_37_" gradientUnits="userSpaceOnUse" x1="363.1913" y1="518.1384" x2="397.821" y2="518.1384" gradientTransform="matrix(-0.135 0.9332 0.9187 0.1329 -286.4583 45.4897)">
			<stop  offset="0" style="stop-color:#865CA0"/>
			<stop  offset="0.2687" style="stop-color:#8B56A3"/>
			<stop  offset="1" style="stop-color:#1F958C;stop-opacity:0.4"/>
		</linearGradient>
		<path class="st36" d="M123.9,450.9c0,0,11.3,35,25.8,36.7c0.7,0.1,2.7,0.4,3.1-1.4c0.9-4.1-7.5-15.4-8.8-17.1
			C140.3,464.1,133.7,456.4,123.9,450.9z"/>
		
			<linearGradient id="SVGID_38_" gradientUnits="userSpaceOnUse" x1="423.2928" y1="459.367" x2="452.6096" y2="459.367" gradientTransform="matrix(-0.4209 0.8438 0.8306 0.4143 -67.3392 -124.7962)">
			<stop  offset="0" style="stop-color:#865CA0"/>
			<stop  offset="0.2687" style="stop-color:#8B56A3"/>
			<stop  offset="1" style="stop-color:#1F958C;stop-opacity:0.4"/>
		</linearGradient>
		<path class="st37" d="M119.9,414.6c0,0,1.5,32.3,16.9,39.3c0.7,0.3,2.9,1.4,3.9,0.1c2.2-2.9-3.5-15.2-4.3-17.1
			C133.9,431.6,129,422.9,119.9,414.6z"/>
		
			<linearGradient id="SVGID_39_" gradientUnits="userSpaceOnUse" x1="379.8008" y1="311.4054" x2="408.4242" y2="311.4054" gradientTransform="matrix(-0.3499 0.7015 0.5852 0.2918 86.3523 45.4835)">
			<stop  offset="0" style="stop-color:#865CA0"/>
			<stop  offset="0.2687" style="stop-color:#8B56A3"/>
			<stop  offset="1" style="stop-color:#1F958C;stop-opacity:0.4"/>
		</linearGradient>
		<path class="st38" d="M124,397c0,0,0.2,26.1,11.2,30.6c0.5,0.2,2,0.9,2.8-0.2c1.7-2.6-2.1-12.1-2.6-13.5
			C133.7,409.7,130.4,403,124,397z"/>
		
			<linearGradient id="SVGID_40_" gradientUnits="userSpaceOnUse" x1="499.7968" y1="281.8368" x2="523.2077" y2="281.8368" gradientTransform="matrix(-0.5685 0.5398 0.4503 0.4742 300.4495 -13.398)">
			<stop  offset="0" style="stop-color:#865CA0"/>
			<stop  offset="0.2687" style="stop-color:#8B56A3"/>
			<stop  offset="1" style="stop-color:#1F958C;stop-opacity:0.4"/>
		</linearGradient>
		<path class="st39" d="M134.6,381c0,0-8.7,20.3,1.9,28.4c0.5,0.4,2,1.5,3.2,1c2.8-1.3,1.8-10.3,1.7-11.6
			C141,394.9,139.7,388.4,134.6,381z"/>
		
			<linearGradient id="SVGID_41_" gradientUnits="userSpaceOnUse" x1="414.9848" y1="264.2947" x2="440.282" y2="264.2947" gradientTransform="matrix(-0.4867 0.6145 0.5126 0.406 212.9849 2.4301)">
			<stop  offset="0" style="stop-color:#865CA0"/>
			<stop  offset="0.2687" style="stop-color:#8B56A3"/>
			<stop  offset="1" style="stop-color:#1F958C;stop-opacity:0.4"/>
		</linearGradient>
		<path class="st40" d="M136.4,356.8c0,0-5.2,23,5.7,29.8c0.5,0.3,2,1.3,3.1,0.5c2.4-1.8,0.2-11.2-0.1-12.6
			C144.2,370.4,142,363.7,136.4,356.8z"/>
		
			<linearGradient id="SVGID_42_" gradientUnits="userSpaceOnUse" x1="788.6093" y1="474.8607" x2="812.1877" y2="474.8607" gradientTransform="matrix(-0.7839 -7.565671e-03 -6.310467e-03 0.6539 782.5663 133.6735)">
			<stop  offset="0" style="stop-color:#865CA0"/>
			<stop  offset="0.2687" style="stop-color:#8B56A3"/>
			<stop  offset="1" style="stop-color:#1F958C;stop-opacity:0.4"/>
		</linearGradient>
		<path class="st41" d="M161.4,430.1c0,0-23.2,0.3-17.7,12.5c0.3,0.6,1,2.3,2.7,3.1c3.8,1.9,9-2.4,9.8-3
			C158.5,440.9,161.6,437.2,161.4,430.1z"/>
		
			<linearGradient id="SVGID_43_" gradientUnits="userSpaceOnUse" x1="390.1913" y1="248.6403" x2="415.4885" y2="248.6403" gradientTransform="matrix(-0.4867 0.6145 0.5126 0.406 212.9849 2.4301)">
			<stop  offset="0" style="stop-color:#865CA0"/>
			<stop  offset="0.2687" style="stop-color:#8B56A3"/>
			<stop  offset="1" style="stop-color:#1F958C;stop-opacity:0.4"/>
		</linearGradient>
		<path class="st42" d="M140.4,335.2c0,0-5.2,23,5.7,29.8c0.5,0.3,2,1.3,3.1,0.5c2.4-1.8,0.2-11.2-0.1-12.6
			C148.2,348.8,146.1,342.1,140.4,335.2z"/>
		
			<linearGradient id="SVGID_44_" gradientUnits="userSpaceOnUse" x1="363.7386" y1="227.5694" x2="389.0358" y2="227.5694" gradientTransform="matrix(-0.4867 0.6145 0.5126 0.406 212.9849 2.4301)">
			<stop  offset="0" style="stop-color:#865CA0"/>
			<stop  offset="0.2687" style="stop-color:#8B56A3"/>
			<stop  offset="1" style="stop-color:#1F958C;stop-opacity:0.4"/>
		</linearGradient>
		<path class="st43" d="M142.5,310.4c0,0-5.2,23,5.7,29.8c0.5,0.3,2,1.3,3.1,0.5c2.4-1.8,0.2-11.2-0.1-12.6
			C150.3,324,148.2,317.3,142.5,310.4z"/>
		
			<linearGradient id="SVGID_45_" gradientUnits="userSpaceOnUse" x1="128.2906" y1="1168.5455" x2="154.5336" y2="1168.5455" gradientTransform="matrix(-2.705249e-02 0.7835 -0.6535 -2.256459e-02 929.097 265.4142)">
			<stop  offset="0" style="stop-color:#865CA0"/>
			<stop  offset="0.2687" style="stop-color:#8B56A3"/>
			<stop  offset="1" style="stop-color:#1F958C;stop-opacity:0.4"/>
		</linearGradient>
		<path class="st44" d="M169.2,339.8c0,0-0.8,25.6-11.7,19.3c-0.5-0.3-2-1.1-2.8-3c-1.6-4.2,2.3-9.9,2.9-10.8
			C159.3,342.8,162.7,339.4,169.2,339.8z"/>
		
			<linearGradient id="SVGID_46_" gradientUnits="userSpaceOnUse" x1="159.6927" y1="1172.1017" x2="185.9357" y2="1172.1017" gradientTransform="matrix(-2.705249e-02 0.7835 -0.6535 -2.256459e-02 929.097 265.4142)">
			<stop  offset="0" style="stop-color:#865CA0"/>
			<stop  offset="0.2687" style="stop-color:#8B56A3"/>
			<stop  offset="1" style="stop-color:#1F958C;stop-opacity:0.4"/>
		</linearGradient>
		<path class="st45" d="M166,364.3c0,0-0.8,25.6-11.7,19.3c-0.5-0.3-2-1.1-2.8-3c-1.6-4.2,2.3-9.9,2.9-10.8
			C156.1,367.4,159.5,364,166,364.3z"/>
		
			<linearGradient id="SVGID_47_" gradientUnits="userSpaceOnUse" x1="191.5875" y1="1177.4603" x2="217.8305" y2="1177.4603" gradientTransform="matrix(-2.705249e-02 0.7835 -0.6535 -2.256459e-02 929.097 265.4142)">
			<stop  offset="0" style="stop-color:#865CA0"/>
			<stop  offset="0.2687" style="stop-color:#8B56A3"/>
			<stop  offset="1" style="stop-color:#1F958C;stop-opacity:0.4"/>
		</linearGradient>
		<path class="st46" d="M161.6,389.2c0,0-0.8,25.6-11.7,19.3c-0.5-0.3-2-1.1-2.8-3c-1.6-4.2,2.3-9.9,2.9-10.8
			C151.8,392.2,155.2,388.8,161.6,389.2z"/>
		
			<linearGradient id="SVGID_48_" gradientUnits="userSpaceOnUse" x1="297.4501" y1="1338.4016" x2="320.3078" y2="1338.4016" gradientTransform="matrix(-0.2335 0.6767 -0.5187 -0.179 916.9752 449.3057)">
			<stop  offset="0" style="stop-color:#865CA0"/>
			<stop  offset="0.2687" style="stop-color:#8B56A3"/>
			<stop  offset="1" style="stop-color:#1F958C;stop-opacity:0.4"/>
		</linearGradient>
		<path class="st47" d="M160,413.4c0,0-7.2,19.1-15.7,11.1c-0.4-0.4-1.6-1.4-1.8-3c-0.4-3.6,4.7-6.8,5.4-7.3
			C150.2,412.8,154.2,411.2,160,413.4z"/>
		
			<linearGradient id="SVGID_49_" gradientUnits="userSpaceOnUse" x1="889.659" y1="603.2556" x2="910.3931" y2="603.2556" gradientTransform="matrix(-0.5623 -5.426334e-03 -9.046889e-03 0.9374 666.3933 -99.1961)">
			<stop  offset="0" style="stop-color:#865CA0"/>
			<stop  offset="0.2687" style="stop-color:#8B56A3"/>
			<stop  offset="1" style="stop-color:#1F958C;stop-opacity:0.4"/>
		</linearGradient>
		<path class="st48" d="M160.3,448.3c0,0-15.7,4.9-10,21.8c0.3,0.8,1,3.2,2.3,4.1c2.9,2.1,5.8-5.2,6.2-6.3
			C160,464.7,161.5,458.7,160.3,448.3z"/>
		
			<linearGradient id="SVGID_50_" gradientUnits="userSpaceOnUse" x1="875.4193" y1="627.5755" x2="896.1534" y2="627.5755" gradientTransform="matrix(-0.5623 -5.426334e-03 -9.046889e-03 0.9374 666.3933 -99.1961)">
			<stop  offset="0" style="stop-color:#865CA0"/>
			<stop  offset="0.2687" style="stop-color:#8B56A3"/>
			<stop  offset="1" style="stop-color:#1F958C;stop-opacity:0.4"/>
		</linearGradient>
		<path class="st49" d="M168.1,471.2c0,0-15.7,4.9-10,21.8c0.3,0.8,1,3.2,2.3,4.1c2.9,2.1,5.8-5.2,6.2-6.3
			C167.8,487.6,169.3,481.6,168.1,471.2z"/>
		
			<linearGradient id="SVGID_51_" gradientUnits="userSpaceOnUse" x1="928.7648" y1="259.8689" x2="950.355" y2="259.8689" gradientTransform="matrix(-0.5002 -4.827671e-03 -6.556450e-03 0.6793 630.353 150.7602)">
			<stop  offset="0" style="stop-color:#865CA0"/>
			<stop  offset="0.2687" style="stop-color:#8B56A3"/>
			<stop  offset="1" style="stop-color:#1F958C;stop-opacity:0.4"/>
		</linearGradient>
		<path class="st50" d="M163.9,313.5c0,0-14.3,2.8-9.8,15.2c0.2,0.6,0.8,2.3,1.9,3c2.5,1.6,5.4-3.5,5.8-4.2
			C163,325.3,164.7,321.1,163.9,313.5z"/>
		
			<linearGradient id="SVGID_52_" gradientUnits="userSpaceOnUse" x1="371.3142" y1="808.9136" x2="227.5357" y2="808.9136" gradientTransform="matrix(0.554 -0.8325 -0.8325 -0.554 665.1223 1116.3928)">
			<stop  offset="0" style="stop-color:#865CA0"/>
			<stop  offset="0.2687" style="stop-color:#8B56A3"/>
			<stop  offset="1" style="stop-color:#5B2B5E"/>
		</linearGradient>
		<path class="st51" d="M160.3,507.1c-1.1-1.7-2.6-4.4-3.9-7.7c-3.4-8.7-0.6-10.5-3.9-18.6c-1.8-4.4-3.5-5.7-5.4-11.5
			c-0.7-2-0.7-2.5-1.8-6.8c-1.4-5.7-2.8-10.4-4-14.6c-2.5-8.7-3.1-9.6-3.2-12.3c-0.1-3.3,0.7-2.9,1.3-7.8c0.7-6.3-0.6-7.6,0.4-12.2
			c0.7-3.2,1.4-2.9,2.9-7.4c1.2-3.7,1.4-6.1,2-9.2c0.7-3.6,1.9-8.6,4.2-14.3c-0.3-3.7-0.5-9.1,0.6-14.9c1-4.9,1.8-4.3,2.4-9
			c0.5-3.8,0.2-5.4,0.6-16.5c0.1-2.1,0.2-3.1,0.3-4.4c0.5-4.1,1.3-7.1,2-9.1c0,1.5-0.1,3.7-0.3,6.3c-0.5,7-1.4,8.5-1.6,13.7
			c-0.2,5.9,0.8,5.7,0.5,10.2c-0.5,5.8-2.2,6.6-3.1,11.9c-0.4,2.6-0.7,6.5,0.2,12.2c-2.3,5.6-3.6,10.6-4.3,14.2
			c-0.7,3.7-0.8,5-1.8,8.7c-1.7,6.4-2.8,6.1-3.2,10c-0.4,4.3,0.6,5.7,0.4,11.8c-0.1,3.2-0.6,5.7-0.9,7.3c0.3,1.1,4,17.4,6.6,26.3
			c0.6,2.2,1.3,4.3,2.2,6.8c1.5,4.1,2.9,7.2,3.3,7.8C154.5,481.6,157,489.3,160.3,507.1z"/>
	</g>
	<linearGradient id="SVGID_53_" gradientUnits="userSpaceOnUse" x1="484.66" y1="253.1086" x2="500.9413" y2="253.1086">
		<stop  offset="2.717173e-07" style="stop-color:#DA565C"/>
		<stop  offset="0.9567" style="stop-color:#A1474C"/>
	</linearGradient>
	<path class="st52" d="M484.7,279.8c1.8-6.9,3.5-13,5-18.5c7.5-27.3,10.5-36.5,11.2-35.7c0.8,1-1.7,17.3-6.7,41.8
		c-0.7,3.6-1.5,7.4-2.4,11.4c-0.5,0.6-1.1,1-1.7,1.4C488.3,281.1,487,280.5,484.7,279.8z"/>
	<linearGradient id="SVGID_54_" gradientUnits="userSpaceOnUse" x1="473" y1="273.435" x2="476.47" y2="273.435">
		<stop  offset="2.717173e-07" style="stop-color:#DA565C"/>
		<stop  offset="0.9567" style="stop-color:#A1474C"/>
	</linearGradient>
	<path class="st53" d="M474.8,278.8c-0.6,0-1.2,0-1.8,0c1.1-3.5,2.3-7.1,3.5-10.7C475.9,271.6,475.3,275.2,474.8,278.8z"/>
	<linearGradient id="SVGID_55_" gradientUnits="userSpaceOnUse" x1="445.8058" y1="352.895" x2="500.9784" y2="352.895">
		<stop  offset="2.717173e-07" style="stop-color:#DA565C"/>
		<stop  offset="0.9567" style="stop-color:#A1474C"/>
	</linearGradient>
	<path class="st54" d="M485,368.4c-5.8,17.6-8,22.5-9.2,25c-7.6,16.1-16,24.1-21.7,28.3c-1.1-0.2-4.4-1-6.5-6.6
		c-1.7-4.4-1.9-9.8-1.7-16.2c0.5-16.7,3.6-29,5.8-38.2c1.4-5.8,2.4-10,3.1-13.1v0c0.4-1.9,0.7-3.4,1-4.7c1.3-6.4,1.3-7.5,4.7-20.5
		c2.8-10.7,6.4-23.8,10.9-38.4c0.7,0,1.4,0.1,2.1,0.3c0.1,0,0.3,0,0.4,0.1c-1.8,11-3.5,22-5.3,33.1c-5.1,28.3-10.3,56.5-15.4,84.8
		c12.9-51.2,22.5-88.7,29.7-115.7c2.2,0.6,4.4,1.2,6.8,1.9c-5.6,25.3-13,55.7-21.8,86c-3.7,12.8-7.1,23.6-9.8,32.1
		c32.3-76.2,41.8-94.6,42.8-92.7C502.2,316.4,489.1,356.1,485,368.4z"/>
	
		<linearGradient id="SVGID_56_" gradientUnits="userSpaceOnUse" x1="398.0123" y1="424.9809" x2="444.4655" y2="424.9809" gradientTransform="matrix(0.9888 -0.863 0.9106 1.0433 -404.1688 439.8004)">
		<stop  offset="0" style="stop-color:#4981BA"/>
		<stop  offset="0.4592" style="stop-color:#C498BD"/>
	</linearGradient>
	<path class="st55" d="M446.1,607.9c1.8-6.9,3.2-18.3-1.1-35.6c-0.7-2.7-2.1-7.9-8.7-25.2c-4.7-12.2-19.5-51.2-22.2-52.4
		c-2-0.9,2.3,19.5,25.4,98.9c-3.2-8.3-7.5-18.8-12.7-31C397,492.5,360.9,427,358.3,426.4c-2-0.4,13.4,35.6,74.8,166.9
		c-13.9-25.1-27.8-50.3-41.6-75.4c-8.4-14.4-16.8-28.8-25.1-43.2c8,20.8,15.8,38.7,22,52.3c8.7,18.8,5.6,10.5,17.4,35.2
		c4.1,8.5,9.4,20,19.6,33.3c3.9,5.1,7.6,9.2,11.6,11.5C442.1,609.9,445.2,608.5,446.1,607.9z"/>
	
		<linearGradient id="SVGID_57_" gradientUnits="userSpaceOnUse" x1="448.5845" y1="143.9829" x2="495.0377" y2="143.9829" gradientTransform="matrix(1.301 0.1732 -0.1192 0.8951 -370.8436 10.7931)">
		<stop  offset="0" style="stop-color:#4981BA"/>
		<stop  offset="0.4592" style="stop-color:#C498BD"/>
	</linearGradient>
	<path class="st56" d="M194.9,281.3c6.2-1.8,15.4-5.6,24.8-14.8c1.5-1.4,4.2-4.2,12.1-14.6c5.5-7.3,23.2-30.7,22.2-32.6
		c-0.8-1.4-12.3,9-53.3,52.9c3.7-5,8.3-11.4,13.5-19.1c29.6-43.7,51.7-88.8,50.3-90.4c-1.1-1.2-16.3,21.3-68,106
		c8.4-17.3,16.9-34.7,25.3-52c4.5-10.2,9.1-20.3,13.6-30.5c-9.4,12.5-16.8,23.7-22.3,32.4c-7.5,12.1-3.7,7.2-13.2,23.2
		c-3.3,5.5-7.8,13-10.3,23.6c-1,4.1-1.3,7.6-0.2,10.7C190.6,279.9,193.8,281,194.9,281.3z"/>
	
		<linearGradient id="SVGID_58_" gradientUnits="userSpaceOnUse" x1="146.5161" y1="573.4586" x2="217.2771" y2="532.6048" gradientTransform="matrix(0.5364 -1.7862 1.7729 0.5324 -728.5139 558.3818)">
		<stop  offset="0.3609" style="stop-color:#C89789"/>
		<stop  offset="1" style="stop-color:#4981BA"/>
	</linearGradient>
	<path class="st57" d="M306.1,478.1c-0.2-2.1-0.3-6.7,2.1-11.8c2-4.3,4.8-6.9,6.4-8.3c1.9-0.1,4.8,0,8,1.2c6.3,2.4,9.4,7.4,10.4,9.1
		c1.2,11.7,2.3,23.4,3.5,35.1c2.9,1.4,4.4,1,5.2,0.5c4.7-2.7-3.5-14.2-0.1-30.1c0,0,3.2-14.8-0.3-18.7c0,0-0.2-0.2-0.1-0.3
		c0.2-0.8,7.5,0.2,13.2,2.7c2.6,1.1,6.6,3.4,10.6,8.2c-2.8,11.5-5.6,23-8.4,34.5c-0.1,3.7-0.2,7.4-0.4,11.1c2.1-1.1,4.3-2.2,6.4-3.3
		c1.4-6.5,2.9-13,4.3-19.5l5.8-15.9c1.6,0.4,6.9,2,10.9,7.3c4.1,5.3,4.2,11,4.2,12.7c-3.1,6-6.8,12.6-11.4,19.5
		c-3.2,4.8-6.4,9.1-9.6,13c0.5,2.2,1.1,4.3,1.6,6.5l21.2-20.7l3.4-11.4c1.5,0.5,8.5,2.9,12,10.1c0.2,0.3,3.8,8.2,0.6,15.6
		c-6.3,14.3-32,13-32.3,20.4c-0.1,1.2,0.5,3.2,4.9,5.9c4.5-2.3,8.9-4.6,13.4-6.9c6-0.2,12-0.4,17.9-0.6c8.6,11.7,7.6,17.9,6.3,20.8
		c-1.2,2.9-3.1,3.5-17.5,13.1c-8.6,5.7-10.3,7.2-12,8.6c-5.6,4.9-9.1,10-11.3,13.6c-4.8-0.1-9.7-0.1-14.5-0.2l-16,2.7
		c-8.8,1.2-17.6,2.3-26.3,3.5c-0.7,0-5.5-0.2-8.8-4.4c-3.5-4.5-2.2-9.8-2.1-10.3c6.6-1.8,13.3-3.6,19.9-5.5c0,0,19.4-13.4,18.6-14.8
		c-0.1-0.1-0.3-0.1-0.3-0.1c-3.7,0-17.7,4.6-22.7,5.9c-0.1,0-19.3,1-19,1l0,0c-3.9-1.6-4.4-3.5-4.5-4.1c-0.6-3.3,4.3-8,12.8-10.6
		c9.2-4.3,18.3-8.5,27.5-12.8c-8.2-0.2-16.5-0.4-24.7-0.6c-5.8,3.9-11.5,7.8-17.3,11.7c-1-2.4-3.3-8.7-1.5-16.4
		c1.1-4.8,3.3-8.3,4.8-10.2c4.5-0.9,10.5-1.6,17.4-1.2c7.7,0.4,14,1.9,18.7,3.4c0.5-3.6,1-7.2,1.5-10.7c-3.9,1.3-9,2.6-15.2,2.9
		c-11.1,0.5-19.8-2.4-24.9-4.5c-1.8-1.2-3.6-2.3-5.5-3.5c0-2.8,0.3-7.6,2.6-13c2.4-5.7,5.8-9.4,7.8-11.3c4.7,3.6,9.4,7.1,14.1,10.7
		c4.7,1.3,9.4,2.6,14.1,3.9l-21.1-20.9C309.3,486.4,307.7,482.3,306.1,478.1z"/>
	
		<linearGradient id="SVGID_59_" gradientUnits="userSpaceOnUse" x1="277.3373" y1="438.6351" x2="315.3178" y2="416.7071" gradientTransform="matrix(1.8066 -0.4629 0.4594 1.7932 -236.6423 -242.706)">
		<stop  offset="0.3609" style="stop-color:#C89789"/>
		<stop  offset="1" style="stop-color:#4981BA"/>
	</linearGradient>
	<path class="st58" d="M506,353.3c0.9-0.7,3-2,6-2.3c2.5-0.3,4.5,0.3,5.6,0.7c0.6,0.8,1.3,2.2,1.7,4c0.7,3.6-0.8,6.4-1.3,7.3
		c-5.1,3.8-10.1,7.6-15.2,11.3c0.2,1.7,0.8,2.3,1.2,2.6c2.5,1.4,5.6-5.5,13.8-8.4c0,0,7.7-2.6,8.5-5.3c0,0,0-0.1,0.1-0.1
		c0.4-0.1,2,3.5,2.4,6.8c0.2,1.5,0.3,4-0.8,7.1c-6.1,1.9-12.1,3.8-18.2,5.7c-1.7,1-3.5,1.9-5.2,2.9c1.1,0.7,2.2,1.4,3.3,2
		c3.4-1.1,6.8-2.3,10.2-3.4l8.9-1.7c0.3,0.9,1,3.7-0.3,7c-1.3,3.4-3.9,5-4.7,5.4c-3.6,0.3-7.7,0.4-12.1,0.2c-3.1-0.1-6-0.4-8.6-0.8
		c-0.8,0.8-1.7,1.7-2.5,2.5l15.4,4l6.2-1.6c0.2,0.8,1,4.7-1.3,8.3c-0.1,0.2-2.7,4-7,4.6c-8.3,1.1-14.8-11.1-18.3-9.2
		c-0.6,0.3-1.3,1.1-1.4,3.9c2.3,1.4,4.6,2.8,6.9,4.3c1.7,2.7,3.5,5.4,5.2,8.1c-3,7.2-6.1,8.4-7.8,8.7c-1.7,0.2-2.5-0.5-10.9-4.4
		c-5-2.3-6.2-2.8-7.3-3.1c-3.8-1.2-7.1-1.4-9.4-1.4c-1.3-2.2-2.6-4.5-3.9-6.7l-5.7-6.6c-3-3.7-5.9-7.4-8.9-11.1
		c-0.2-0.3-1.4-2.6-0.4-5.3c1.1-2.9,3.9-3.7,4.2-3.8c2.7,2.5,5.3,5.1,8,7.6c0,0,11.5,5.2,11.9,4.4c0-0.1,0-0.1,0-0.2
		c-1-1.7-7-6.9-9-8.8c0,0-5.8-8.6-5.7-8.5l0,0c-0.3-2.2,0.4-3,0.6-3.2c1.4-1.2,4.9-0.3,8.4,3c4.5,3,9,6.1,13.5,9.1
		c-2.2-3.8-4.4-7.7-6.6-11.5c-3.4-1.6-6.8-3.1-10.2-4.7c0.8-1.1,3.1-3.9,7.1-5.2c2.5-0.8,4.7-0.8,6-0.6c1.7,1.8,3.6,4.4,5.4,7.7
		c2,3.6,3,7,3.6,9.5c1.8-0.8,3.6-1.5,5.4-2.3c-1.7-1.4-3.7-3.4-5.5-6.2c-3.3-4.9-4.4-9.8-4.8-12.7c0-1.2,0.1-2.3,0.1-3.5
		c1.3-0.8,3.6-2,6.7-2.4c3.3-0.5,5.9,0.1,7.4,0.5c-0.3,3.1-0.7,6.3-1,9.4c0.7,2.5,1.4,5,2.1,7.6l3.7-15.5
		C503.1,357,504.6,355.2,506,353.3z"/>
	<linearGradient id="SVGID_60_" gradientUnits="userSpaceOnUse" x1="413.4814" y1="297.06" x2="443.98" y2="297.06">
		<stop  offset="0.4832" style="stop-color:#119A89"/>
		<stop  offset="0.9615" style="stop-color:#224193"/>
	</linearGradient>
	<path class="st59" d="M444,295.2c-4.7,5.1-9.9,7.9-12.2,9c-3.1,3-6.9,7.5-6.1,12.3c0.1,0.5,0.2,0.9,0.3,1.3
		c-0.3-0.3-0.6-0.5-0.9-0.7c-14-11.2-11.5-38.9-11.3-40.7c4.6,0.4,12.8,1.8,20.5,7.4c0.8,0.5,1.5,1.1,2.2,1.7
		c0.1,0.1,0.1,0.1,0.2,0.2c0.1,0.1,0.2,0.1,0.3,0.2c2.5,2.2,4.8,4.7,6.8,7.3C443.8,293.8,443.9,294.5,444,295.2z"/>
	<linearGradient id="SVGID_61_" gradientUnits="userSpaceOnUse" x1="425.1218" y1="267.95" x2="452.857" y2="267.95">
		<stop  offset="0.4832" style="stop-color:#119A89"/>
		<stop  offset="0.9615" style="stop-color:#224193"/>
	</linearGradient>
	<path class="st60" d="M450.7,284.6c-0.9,2.3-2,4.5-3.3,6.3c-5-0.8-8.4-3.5-10.4-5c-0.1-0.1-0.2-0.1-0.3-0.2
		c-0.1-0.1-0.1-0.1-0.2-0.2c-13.7-11.3-11.3-38.7-11.1-40.5c4.6,0.4,12.8,1.8,20.5,7.4c1.3,1,2.6,2,3.8,3.1c0.2,0.6,0.3,1.1,0.4,1.5
		C452.3,265,454.7,274.2,450.7,284.6z"/>
	<linearGradient id="SVGID_62_" gradientUnits="userSpaceOnUse" x1="412.1318" y1="337.265" x2="435.8726" y2="337.265">
		<stop  offset="0.4832" style="stop-color:#119A89"/>
		<stop  offset="0.9615" style="stop-color:#224193"/>
	</linearGradient>
	<path class="st61" d="M424.4,357.8c-0.1-0.1-0.3-0.2-0.4-0.3c-0.1-0.1-0.2-0.1-0.3-0.2c-0.1-0.1-0.1-0.1-0.2-0.2
		c-13.7-11.3-11.3-38.7-11.1-40.5c3.9,0.3,10.2,1.4,16.8,5c1.9,1.5,4.1,2.8,5.4,5C438.3,333.1,433.9,346.3,424.4,357.8z"/>
</g>
<g id="Layer_2">
	<g>
		<path class="st62" d="M235.2,366.5h-49.5c-5.9,0-10.7-4.8-10.7-10.7V247c0-5.9,4.8-10.7,10.7-10.7h49.5c5.9,0,10.7,4.8,10.7,10.7
			v108.8C245.9,361.7,241.1,366.5,235.2,366.5z"/>
		<path class="st62" d="M316.1,366.5h-49.5c-5.9,0-10.7-4.8-10.7-10.7V247c0-5.9,4.8-10.7,10.7-10.7h49.5c5.9,0,10.7,4.8,10.7,10.7
			v108.8C326.8,361.7,322,366.5,316.1,366.5z"/>
		<path class="st62" d="M397,366.5h-49.5c-5.9,0-10.7-4.8-10.7-10.7V247c0-5.9,4.8-10.7,10.7-10.7H397c5.9,0,10.7,4.8,10.7,10.7
			v108.8C407.8,361.7,402.9,366.5,397,366.5z"/>
		<path class="st62" d="M316.1,505.4h-49.5c-5.9,0-10.7-4.8-10.7-10.7V385.9c0-5.9,4.8-10.7,10.7-10.7h49.5
			c5.9,0,10.7,4.8,10.7,10.7v108.8C326.8,500.6,322,505.4,316.1,505.4z"/>
		<path class="st62" d="M397,505.4h-49.5c-5.9,0-10.7-4.8-10.7-10.7V385.9c0-5.9,4.8-10.7,10.7-10.7H397c5.9,0,10.7,4.8,10.7,10.7
			v108.8C407.8,500.6,402.9,505.4,397,505.4z"/>
		<path class="st62" d="M478.7,505.4h-49.5c-5.9,0-10.7-4.8-10.7-10.7V385.9c0-5.9,4.8-10.7,10.7-10.7h49.5
			c5.9,0,10.7,4.8,10.7,10.7v108.8C489.5,500.6,484.6,505.4,478.7,505.4z"/>
		<path class="st63" d="M227.8,360.3H193c-4.4,0-8-3.6-8-8l0,0c0-4.4,3.6-8,8-8h34.8c4.4,0,8,3.6,8,8l0,0
			C235.8,356.7,232.2,360.3,227.8,360.3z"/>
		<path class="st63" d="M389.7,262.1h-34.8c-4.4,0-8-3.6-8-8v0c0-4.4,3.6-8,8-8h34.8c4.4,0,8,3.6,8,8v0
			C397.7,258.5,394.1,262.1,389.7,262.1z"/>
		<path class="st63" d="M390,498.8h-34.8c-4.4,0-8-3.6-8-8l0,0c0-4.4,3.6-8,8-8H390c4.4,0,8,3.6,8,8l0,0
			C398.1,495.2,394.5,498.8,390,498.8z"/>
		<path class="st63" d="M471.4,498.8h-34.8c-4.4,0-8-3.6-8-8l0,0c0-4.4,3.6-8,8-8h34.8c4.4,0,8,3.6,8,8l0,0
			C479.4,495.2,475.8,498.8,471.4,498.8z"/>
		<path class="st63" d="M227.8,289.1H193c-4.4,0-8-3.6-8-8v-31.3c0-4.4,3.6-8,8-8h34.8c4.4,0,8,3.6,8,8v31.3
			C235.8,285.5,232.2,289.1,227.8,289.1z"/>
		<path class="st63" d="M390,360.3h-34.8c-4.4,0-8-3.6-8-8V321c0-4.4,3.6-8,8-8H390c4.4,0,8,3.6,8,8v31.3
			C398.1,356.7,394.5,360.3,390,360.3z"/>
		<path class="st63" d="M308.7,297.6H274c-4.4,0-8-3.6-8-8v-39.8c0-4.4,3.6-8,8-8h34.8c4.4,0,8,3.6,8,8v39.8
			C316.8,294,313.1,297.6,308.7,297.6z"/>
		<path class="st63" d="M308.7,342.2H274c-4.4,0-8-3.6-8-8v-24.7c0-4.4,3.6-8,8-8h34.8c4.4,0,8,3.6,8,8v24.7
			C316.8,338.6,313.1,342.2,308.7,342.2z"/>
		<path class="st63" d="M308.7,498.8H274c-4.4,0-8-3.6-8-8v-98.3c0-4.4,3.6-8,8-8h34.8c4.4,0,8,3.6,8,8v98.3
			C316.8,495.2,313.1,498.8,308.7,498.8z"/>
		<path class="st63" d="M389.7,476.2h-34.8c-4.4,0-8-3.6-8-8v-39.8c0-4.4,3.6-8,8-8h34.8c4.4,0,8,3.6,8,8v39.8
			C397.7,472.6,394.1,476.2,389.7,476.2z"/>
		<path class="st63" d="M364.6,415h-14.5c-4.4,0-8-3.6-8-8v-18c0-4.4,3.6-8,8-8h14.5c4.4,0,8,3.6,8,8v18
			C372.7,411.4,369,415,364.6,415z"/>
		<path class="st63" d="M461.2,442.8h-14.5c-4.4,0-8-3.6-8-8v-18c0-4.4,3.6-8,8-8h14.5c4.4,0,8,3.6,8,8v18
			C469.3,439.2,465.7,442.8,461.2,442.8z"/>
		<path class="st64" d="M226.7,309.9h-32.6c-2.3,0-4.2-1.9-4.2-4.2l0,0c0-2.3,1.9-4.2,4.2-4.2h32.6c2.3,0,4.2,1.9,4.2,4.2l0,0
			C230.9,308,229,309.9,226.7,309.9z"/>
		<path class="st64" d="M232.1,320.9h-43.3c-2.3,0-4.2-1.9-4.2-4.2l0,0c0-2.3,1.9-4.2,4.2-4.2h43.3c2.3,0,4.2,1.9,4.2,4.2l0,0
			C236.3,319,234.4,320.9,232.1,320.9z"/>
		<path class="st64" d="M313,359.2h-43.3c-2.3,0-4.2-1.9-4.2-4.2l0,0c0-2.3,1.9-4.2,4.2-4.2H313c2.3,0,4.2,1.9,4.2,4.2l0,0
			C317.2,357.3,315.3,359.2,313,359.2z"/>
		<path class="st64" d="M394.3,273.9H351c-2.3,0-4.2-1.9-4.2-4.2l0,0c0-2.3,1.9-4.2,4.2-4.2h43.3c2.3,0,4.2,1.9,4.2,4.2l0,0
			C398.5,272,396.6,273.9,394.3,273.9z"/>
		<path class="st64" d="M394.3,285.6H351c-2.3,0-4.2-1.9-4.2-4.2l0,0c0-2.3,1.9-4.2,4.2-4.2h43.3c2.3,0,4.2,1.9,4.2,4.2l0,0
			C398.5,283.7,396.6,285.6,394.3,285.6z"/>
		<path class="st64" d="M394.3,297.6H351c-2.3,0-4.2-1.9-4.2-4.2l0,0c0-2.3,1.9-4.2,4.2-4.2h43.3c2.3,0,4.2,1.9,4.2,4.2l0,0
			C398.5,295.7,396.6,297.6,394.3,297.6z"/>
		<path class="st64" d="M398.8,389.4h-18.6c-2.3,0-4.2-1.9-4.2-4.2v0c0-2.3,1.9-4.2,4.2-4.2h18.6c2.3,0,4.2,1.9,4.2,4.2v0
			C403,387.5,401.1,389.4,398.8,389.4z"/>
		<path class="st64" d="M398.8,400.2h-18.6c-2.3,0-4.2-1.9-4.2-4.2l0,0c0-2.3,1.9-4.2,4.2-4.2h18.6c2.3,0,4.2,1.9,4.2,4.2l0,0
			C403,398.3,401.1,400.2,398.8,400.2z"/>
		<path class="st64" d="M463.3,456.7h-18.6c-2.3,0-4.2-1.9-4.2-4.2l0,0c0-2.3,1.9-4.2,4.2-4.2h18.6c2.3,0,4.2,1.9,4.2,4.2l0,0
			C467.5,454.8,465.6,456.7,463.3,456.7z"/>
	</g>
</g>
<g id="Layer_3">
	<linearGradient id="SVGID_63_" gradientUnits="userSpaceOnUse" x1="181.9709" y1="356.7782" x2="187.3136" y2="395.7808">
		<stop  offset="2.717173e-07" style="stop-color:#DA565C"/>
		<stop  offset="0.9567" style="stop-color:#A1474C"/>
	</linearGradient>
	<path class="st65" d="M177.1,432c4.9-4.3,11.7-11.8,16.6-24.7c0.8-2,2.1-5.9,5-19.4c2-9.5,8.5-39.8,6.8-41.3
		c-1.3-1.1-7.6,13.9-27,74c1.3-6.5,2.9-14.7,4.5-24.3c9-55.3,10.6-108.9,8.6-109.9c-1.5-0.8-6.1,27.7-18.4,132.5
		c0.5-20.6,1.1-41.2,1.6-61.8c0-11.9-0.1-23.8-0.1-35.7c-3.5,16.2-5.6,30.3-7,41.2c-1.9,15-0.4,8.6-2.5,28.3
		c-0.7,6.8-1.8,16,0.3,27.5c0.8,4.5,1.9,8.1,4.2,10.7C172.7,432.4,176,432.2,177.1,432z"/>
	
		<linearGradient id="SVGID_64_" gradientUnits="userSpaceOnUse" x1="346.2334" y1="378.5629" x2="431.4743" y2="326.8625" gradientTransform="matrix(0.1767 1.9888 2.0871 -0.1854 -570.9548 -254.6084)">
		<stop  offset="0.3609" style="stop-color:#C89789"/>
		<stop  offset="1" style="stop-color:#3E2962"/>
	</linearGradient>
	<path class="st66" d="M211.2,551.1c8.7,1.2,35.8,4,56-12.4c3.2-2.6,5.9-5.4,8.2-8.3c4.9-14.1,2.7-21.4-0.4-25.3
		c-5-6.6-14.9-8.1-15-14.1c0-2.1,1.1-4.3,2.7-5.6c3.5-2.8,7.3-0.1,13-2.2c0.6-0.2,6.2-2.3,8.4-7.7c2.2-5.1,0.8-11.9-3.6-14.8
		c-1.1-0.7-2.1-1.1-2.9-1.3c-5.5-4.9-5.8-8.4-5.5-10.3c0.6-3.8,4.3-5.6,11.3-11.4c4.8-3.9,8.3-7.5,10.5-9.8c2.9-5.9,2.7-12-0.6-15.9
		c-2.9-3.4-7.3-4.1-8.8-4.2c-10.9-1.5-19.4,7.9-21.1,6.3c-1.2-1.1,2.1-5.9,5.8-11.3c5.6-8,10.5-14.5,14.1-19.3
		c3.6-5.6,4.1-11.9,1.1-16.2c-2.3-3.3-6-4.3-7.8-4.9c-8.4-2.5-16.4,1.6-19.8,3.4c-5.3,2.8-8.6,6-11.4,8.8
		c-9.2,9.3-10.3,16.2-17.5,17.8c-1.1,0.2-3.8,0.8-5.6-0.5c-2.8-2.2,0.2-6.9-2-10.2c-2.9-4.3-13.8-4.9-21-0.3
		c-6.4,4.1-9.5,12-8.8,18.6c1,10.2,10.4,14.2,8.1,21.5c-0.7,2.2-2.5,5-4.9,5.3c-3.8,0.4-5.5-6.3-11.4-7.4c-2.6-0.5-6.4,0.1-8.7,2.3
		c-4,3.9-0.6,10.6,0.9,29.4c0.5,6.2,0.5,10-1.1,10.6c-2.4,0.8-4.8-7.1-11.1-8.1c-6.3-1-13.9,5.4-16.6,12.2
		c-1.9,4.8-1.1,9.3-0.8,11.2c8.7,43.8,35.1,61.5,35.1,61.5C186.2,542.4,196.4,548.2,211.2,551.1z"/>
	
		<linearGradient id="SVGID_65_" gradientUnits="userSpaceOnUse" x1="315.6038" y1="641.1237" x2="377.0238" y2="641.1237" gradientTransform="matrix(0.2482 0.9243 -0.9817 0.2636 676.2748 36.0954)">
		<stop  offset="0.4832" style="stop-color:#119A89"/>
		<stop  offset="0.9615" style="stop-color:#224193"/>
	</linearGradient>
	<path class="st67" d="M158.1,488.2c1.4,6.8,3,19.1-1.7,32.6c-7.9,23.1-31.3,42.9-43.9,37.7c-7.1-2.9-9.7-13.3-10.2-15.5
		c-2.3-9.3,0.7-17,2.3-20.8C114.7,497.2,155.5,488.7,158.1,488.2z"/>
	
		<linearGradient id="SVGID_66_" gradientUnits="userSpaceOnUse" x1="320.7522" y1="616.2068" x2="382.1721" y2="616.2068" gradientTransform="matrix(-0.413 0.8634 -0.917 -0.4386 866.2065 500.7667)">
		<stop  offset="0.4832" style="stop-color:#119A89"/>
		<stop  offset="0.9615" style="stop-color:#224193"/>
	</linearGradient>
	<path class="st68" d="M199.3,522.3c-3.3,6.1-10.2,16.4-22.5,23.7c-21,12.4-51.7,12.2-57.8,0c-3.4-6.8,1.3-16.4,2.3-18.4
		c4.3-8.6,11.6-12.5,15.3-14.3C160.4,500.8,197,520.9,199.3,522.3z"/>
	
		<linearGradient id="SVGID_67_" gradientUnits="userSpaceOnUse" x1="354.5866" y1="613.7999" x2="416.0066" y2="613.7999" gradientTransform="matrix(-0.7848 0.5961 -0.6328 -0.8331 845.043 850.1623)">
		<stop  offset="0.4832" style="stop-color:#119A89"/>
		<stop  offset="0.9615" style="stop-color:#224193"/>
	</linearGradient>
	<path class="st69" d="M199.4,578.2c-5.9,4-17.1,10.2-31.8,11.1c-25.1,1.5-53.1-13.2-53-27.2c0.1-7.9,8.9-14.4,10.8-15.8
		c8-5.9,16.5-5.9,20.8-5.9C173.9,540.3,197.8,575.8,199.4,578.2z"/>
	
		<linearGradient id="SVGID_68_" gradientUnits="userSpaceOnUse" x1="391.0244" y1="296.4193" x2="484.1062" y2="296.4193" gradientTransform="matrix(0.6628 0.9536 1.2188 -0.8472 -429.0486 371.5136)">
		<stop  offset="2.717173e-07" style="stop-color:#DA565C"/>
		<stop  offset="0.9567" style="stop-color:#A1474C"/>
	</linearGradient>
	<path class="st70" d="M241.5,588.3c5.6-2.5,22.9-10.9,30.6-26.5c1.2-2.5,2.1-4.9,2.7-7.2c-1-9-4.3-11.9-7.3-12.8
		c-4.9-1.6-11.3,1.2-13.1-1.8c-0.6-1.1-0.5-2.6,0.1-3.9c1.3-2.7,4.4-2.7,7.3-5.8c0.3-0.3,3.1-3.4,3-7c-0.1-3.4-2.8-6.3-6.3-6.3
		c-0.8,0-1.6,0.2-2.1,0.4c-4.7-0.6-5.9-2.2-6.2-3.3c-0.7-2.1,1.1-4.4,3.7-9.9c1.8-3.7,3-6.8,3.7-8.8c0.1-4-1.7-7.1-4.8-7.9
		c-2.7-0.7-5.6,0.6-6.5,1c-7,3.2-9.6,11.1-11.1,10.8c-1-0.2-0.4-3.7,0.4-7.9c1.2-6.1,2.3-11.2,3.2-15c0.6-4.2-0.8-7.6-3.8-8.7
		c-2.3-0.8-4.8-0.1-6.1,0.3c-5.8,1.8-9.5,6.8-11.1,8.9c-2.5,3.3-3.6,6.2-4.5,8.6c-3,8.1-1.7,12-5.7,15.4c-0.6,0.5-2.1,1.8-3.5,1.7
		c-2.3-0.1-1.8-3.6-4-4.5c-3-1.2-9.8,2.5-12.9,7.4c-2.8,4.4-2.4,9.5-0.2,12.7c3.4,4.8,10.3,3.5,10.9,8.1c0.2,1.4-0.1,3.5-1.5,4.5
		c-2.2,1.6-5.1-1.3-9,0.3c-1.7,0.7-3.9,2.4-4.6,4.3c-1.3,3.4,2.6,5.6,8.7,14.7c2,3,3.1,5,2.3,5.8c-1.2,1.3-4.9-1.9-9-0.2
		c-4.1,1.7-7,7.8-6.7,12.3c0.2,3.2,1.9,5.1,2.7,6c17.6,19.3,38.6,18.8,38.6,18.8C223.9,592.9,231.7,592.2,241.5,588.3z"/>
	<linearGradient id="SVGID_69_" gradientUnits="userSpaceOnUse" x1="409.5211" y1="593.1749" x2="470.7" y2="593.1749">
		<stop  offset="0.4832" style="stop-color:#119A89"/>
		<stop  offset="0.9615" style="stop-color:#224193"/>
	</linearGradient>
	<path class="st71" d="M470.7,611.5c-11.3,4.7-27.3,10.2-42.5,11.5h0c-15.3-13.3-18.1-39.7-18.6-52.5c0-0.1,0-0.2,0-0.2
		c-0.1-3.8,0-6.3,0-6.9c1.9,0.1,4.2,0.2,6.8,0.5c0.1,0,0.3,0,0.4,0c0.9,0.1,1.8,0.3,2.7,0.4c2.8,0.5,5.8,1.2,9,2.2
		c1.2,0.4,2.4,0.8,3.6,1.3c3.2,1.3,6.5,2.9,9.8,4.9c1.4,0.9,2.7,1.8,4,2.7C458.6,585.1,468.2,599.8,470.7,611.5z"/>
	<linearGradient id="SVGID_70_" gradientUnits="userSpaceOnUse" x1="449.0772" y1="567.06" x2="496.4188" y2="567.06">
		<stop  offset="0.4832" style="stop-color:#119A89"/>
		<stop  offset="0.9615" style="stop-color:#224193"/>
	</linearGradient>
	<path class="st72" d="M486.8,602.7c-9.9-0.5-16.6-5.8-19.9-8.5c-21.6-17.3-17.8-60-17.5-62.8c7.1,0.7,19.7,2.8,31.7,11.4
		c5.6,4,10.5,9,14.7,14.5C498.7,577.4,490.3,596,486.8,602.7z"/>
	<linearGradient id="SVGID_71_" gradientUnits="userSpaceOnUse" x1="361.4984" y1="604.6799" x2="418.61" y2="604.6799">
		<stop  offset="0.4832" style="stop-color:#119A89"/>
		<stop  offset="0.9615" style="stop-color:#224193"/>
	</linearGradient>
	<path class="st73" d="M418.6,623.2c-4-0.2-7.8-0.8-11.3-1.9c-11.5-3.5-27.5-5-42.9-5.5c-1.3-5.7-2-11.3-2.4-16.1
		c-0.6-7.3-0.5-12.7-0.4-13.6c5,0.2,12.7,0.9,21.2,4c3.6,1.3,7.4,3.1,11.1,5.5C404.5,602.4,413.5,613,418.6,623.2z"/>
	
		<linearGradient id="SVGID_72_" gradientUnits="userSpaceOnUse" x1="118.5168" y1="512.0367" x2="156.4972" y2="490.1086" gradientTransform="matrix(1.8066 -0.4629 0.4594 1.7932 -236.6423 -242.706)">
		<stop  offset="0.3609" style="stop-color:#C89789"/>
		<stop  offset="1" style="stop-color:#4981BA"/>
	</linearGradient>
	<path class="st74" d="M252.8,558.4c0.9-0.7,3-2,6-2.3c2.5-0.3,4.5,0.3,5.6,0.7c0.6,0.8,1.3,2.2,1.7,4c0.7,3.6-0.8,6.4-1.3,7.3
		c-5.1,3.8-10.1,7.6-15.2,11.3c0.2,1.7,0.8,2.3,1.2,2.6c2.5,1.4,5.6-5.5,13.8-8.4c0,0,7.7-2.6,8.5-5.3c0,0,0-0.1,0.1-0.1
		c0.4-0.1,2,3.5,2.4,6.8c0.2,1.5,0.3,4-0.8,7.1c-6.1,1.9-12.1,3.8-18.2,5.7c-1.7,1-3.5,1.9-5.2,2.9c1.1,0.7,2.2,1.4,3.3,2
		c3.4-1.1,6.8-2.3,10.2-3.4l8.9-1.7c0.3,0.9,1,3.7-0.3,7c-1.3,3.4-3.9,5-4.7,5.4c-3.6,0.3-7.7,0.4-12.1,0.2c-3.1-0.1-6-0.4-8.6-0.8
		c-0.8,0.8-1.7,1.7-2.5,2.5l15.4,4l6.2-1.6c0.2,0.8,1,4.7-1.3,8.3c-0.1,0.2-2.7,4-7,4.6c-8.3,1.1-14.8-11.1-18.3-9.2
		c-0.6,0.3-1.3,1.1-1.4,3.9c2.3,1.4,4.6,2.8,6.9,4.3c1.7,2.7,3.5,5.4,5.2,8.1c-3,7.2-6.1,8.4-7.8,8.7c-1.7,0.2-2.5-0.5-10.9-4.4
		c-5-2.3-6.2-2.8-7.3-3.1c-3.8-1.2-7.1-1.4-9.4-1.4c-1.3-2.2-2.6-4.5-3.9-6.7l-5.7-6.6c-3-3.7-5.9-7.4-8.9-11.1
		c-0.2-0.3-1.4-2.6-0.4-5.3c1.1-2.9,3.9-3.7,4.2-3.8c2.7,2.5,5.3,5.1,8,7.6c0,0,11.5,5.2,11.9,4.4c0-0.1,0-0.1,0-0.2
		c-1-1.7-7-6.9-9-8.8c0,0-5.8-8.6-5.7-8.5l0,0c-0.3-2.2,0.4-3,0.6-3.2c1.4-1.2,4.9-0.3,8.4,3c4.5,3,9,6.1,13.5,9.1
		c-2.2-3.8-4.4-7.7-6.6-11.5c-3.4-1.6-6.8-3.1-10.2-4.7c0.8-1.1,3.1-3.9,7.1-5.2c2.5-0.8,4.7-0.8,6-0.6c1.7,1.8,3.6,4.4,5.4,7.7
		c2,3.6,3,7,3.6,9.5c1.8-0.8,3.6-1.5,5.4-2.3c-1.7-1.4-3.7-3.4-5.5-6.2c-3.3-4.9-4.4-9.8-4.8-12.7c0-1.2,0.1-2.3,0.1-3.5
		c1.3-0.8,3.6-2,6.7-2.4c3.3-0.5,5.9,0.1,7.4,0.5c-0.3,3.1-0.7,6.3-1,9.4c0.7,2.5,1.4,5,2.1,7.6l3.7-15.5
		C249.9,562.2,251.4,560.3,252.8,558.4z"/>
</g>
</svg>
