<?xml version="1.0" encoding="utf-8"?>
<!-- Generator: Adobe Illustrator 23.1.0, SVG Export Plug-In . SVG Version: 6.00 Build 0)  -->
<svg version="1.1" xmlns="http://www.w3.org/2000/svg" xmlns:xlink="http://www.w3.org/1999/xlink" x="0px" y="0px"
	 viewBox="0 0 612 792" style="enable-background:new 0 0 612 792;" xml:space="preserve">
<style type="text/css">
	.st0{fill:url(#SVGID_1_);}
	.st1{fill:url(#SVGID_2_);}
	.st2{fill:url(#SVGID_3_);}
	.st3{fill:url(#SVGID_4_);}
	.st4{fill:url(#SVGID_5_);}
	.st5{fill:url(#SVGID_6_);}
	.st6{fill:url(#SVGID_7_);}
	.st7{fill:url(#SVGID_8_);}
	.st8{fill:url(#SVGID_9_);}
	.st9{fill:url(#SVGID_10_);}
	.st10{fill:url(#SVGID_11_);}
	.st11{fill:url(#SVGID_12_);}
	.st12{fill:url(#SVGID_13_);}
	.st13{fill:url(#SVGID_14_);}
	.st14{fill:url(#SVGID_15_);}
	.st15{fill:url(#SVGID_16_);}
	.st16{fill:url(#SVGID_17_);}
	.st17{fill:url(#SVGID_18_);}
	.st18{fill:url(#SVGID_19_);}
	.st19{fill:url(#SVGID_20_);}
	.st20{fill:url(#SVGID_21_);}
	.st21{fill:url(#SVGID_22_);}
	.st22{fill:url(#SVGID_23_);}
	.st23{fill:url(#SVGID_24_);}
	.st24{fill:url(#SVGID_25_);}
	.st25{fill:url(#SVGID_26_);}
	.st26{fill:url(#SVGID_27_);}
	.st27{fill:url(#SVGID_28_);}
	.st28{fill:url(#SVGID_29_);}
	.st29{fill:url(#SVGID_30_);}
	.st30{fill:url(#SVGID_31_);}
	.st31{fill:url(#SVGID_32_);}
	.st32{fill:url(#SVGID_33_);}
	.st33{fill:url(#SVGID_34_);}
	.st34{fill:url(#SVGID_35_);}
	.st35{fill:url(#SVGID_36_);}
	.st36{fill:url(#SVGID_37_);}
	.st37{fill:url(#SVGID_38_);}
	.st38{fill:url(#SVGID_39_);}
	.st39{fill:url(#SVGID_40_);}
	.st40{fill:url(#SVGID_41_);}
	.st41{fill:url(#SVGID_42_);}
	.st42{fill:url(#SVGID_43_);}
	.st43{fill:url(#SVGID_44_);}
	.st44{fill:url(#SVGID_45_);}
	.st45{fill:url(#SVGID_46_);}
	.st46{fill:url(#SVGID_47_);}
	.st47{fill:url(#SVGID_48_);}
	.st48{fill:url(#SVGID_49_);}
	.st49{fill:url(#SVGID_50_);}
	.st50{fill:url(#SVGID_51_);}
	.st51{fill:url(#SVGID_52_);}
	.st52{fill:url(#SVGID_53_);}
	.st53{fill:url(#SVGID_54_);}
	.st54{fill:url(#SVGID_55_);}
	.st55{fill:url(#SVGID_56_);}
	.st56{fill:url(#SVGID_57_);}
	.st57{fill:url(#SVGID_58_);}
	.st58{fill:url(#SVGID_59_);}
	.st59{fill:url(#SVGID_60_);}
	.st60{fill:url(#SVGID_61_);}
	.st61{fill:url(#SVGID_62_);}
	.st62{fill:url(#SVGID_63_);}
	.st63{fill:url(#SVGID_64_);}
	.st64{fill:url(#SVGID_65_);}
	.st65{fill:url(#SVGID_66_);}
	.st66{fill:url(#SVGID_67_);}
	.st67{fill:url(#SVGID_68_);}
	.st68{fill:url(#SVGID_69_);}
	.st69{fill:url(#SVGID_70_);}
	.st70{fill:url(#SVGID_71_);}
	.st71{fill:url(#SVGID_72_);}
	.st72{fill:url(#SVGID_73_);}
	.st73{fill:url(#SVGID_74_);}
	.st74{fill:url(#SVGID_75_);}
	.st75{fill:url(#SVGID_76_);}
	.st76{fill:url(#SVGID_77_);}
	.st77{fill:url(#SVGID_78_);}
	.st78{fill:url(#SVGID_79_);}
	.st79{fill:url(#SVGID_80_);}
	.st80{fill:url(#SVGID_81_);}
	.st81{fill:url(#SVGID_82_);}
	.st82{fill:url(#SVGID_83_);}
	.st83{fill:url(#SVGID_84_);}
	.st84{fill:url(#SVGID_85_);}
	.st85{fill:url(#SVGID_86_);}
	.st86{fill:url(#SVGID_87_);}
	.st87{fill:url(#SVGID_88_);}
	.st88{fill:url(#SVGID_89_);}
	.st89{fill:url(#SVGID_90_);}
	.st90{fill:url(#SVGID_91_);}
	.st91{fill:url(#SVGID_92_);}
	.st92{fill:url(#SVGID_93_);}
	.st93{fill:url(#SVGID_94_);}
	.st94{fill:url(#SVGID_95_);}
	.st95{clip-path:url(#SVGID_97_);}
	.st96{clip-path:url(#SVGID_98_);}
</style>
<g id="Layer_2">
	<radialGradient id="SVGID_1_" cx="309.7839" cy="390.9368" r="222.1674" gradientUnits="userSpaceOnUse">
		<stop  offset="1.385225e-07" style="stop-color:#9D7B99"/>
		<stop  offset="0.6341" style="stop-color:#342434"/>
		<stop  offset="1" style="stop-color:#2D1E2E"/>
	</radialGradient>
	<path class="st0" d="M552.8,309.9c-0.5,3.4-1.3,6.6-2.5,9.7c-5.3,13.5-16.8,24.1-27.8,33.5c-2.5,2.2-5,4.2-7.4,6.3
		c-11.1,9.6-19.7,18.2-17.3,28.2c0.1,0.3,0.2,0.6,0.3,0.9c1.8,5.6,6.4,9.2,8.2,14.7c0.6,1.9,0.9,4,0.6,6.4
		c-0.9,7.6-6.4,13-11.7,17.4c-5.3,4.4-10.6,8-15.9,11c-3.3,1.9-6.5,3.6-9.8,5.1c-4.5,2.1-9,4-13.2,5.6c-0.6,0.2-1.2,0.5-1.8,0.7
		c-0.7,0.3-1.5,0.6-2.2,0.8c-0.3,0.1-0.6,0.2-0.8,0.3c-1.1,0.4-2.2,0.8-3.3,1.2h0c-0.4,0.1-0.7,0.3-1,0.4c-1.8,0.6-3.5,1.2-5.2,1.8
		c0,0,0,0,0,0c-0.6,0.2-1.2,0.4-1.8,0.6c-1.4,0.5-2.8,1-4.1,1.4c-27.1,9.5-41.6,14.5-51.2,16.5c-17.4,3.6-17.6,2-49.4,7.2
		c-9.2,1.5-16.8,2.8-23.1,3.9c-1,0.2-1.9,0.3-2.8,0.5c-4.6,0.8-8.5,1.6-11.9,2.4c-4.5,1-7.8,2-10.4,3.1
		c-10.4,4.5-16.2,9.6-21.3,15.8c-5.3,6.4-9.9,14.1-18.1,23.5c-1.5,1.7-3.1,3.5-4.9,5.3c-2.7,2.8-5.7,5.7-9.1,8.8
		c-0.4,0.4-0.8,0.7-1.2,1.1c-0.7,0.6-1.7,1.5-3,2.6c-2.2,1.8-5.3,4.3-9.1,7.1c-1.8,1.3-3.8,2.8-6,4.3c-4.7,3.2-10.2,6.6-16.4,10
		c-4.4,2.4-9.2,4.8-14.3,7.1c-0.9,0.4-1.7,0.8-2.6,1.2c-0.6,0.3-1.2,0.5-1.8,0.8c-0.3,0.2-0.7,0.3-1.1,0.5c-1.8,0.8-3.7,1.5-5.6,2.2
		c-4,1.5-8.2,3-12.6,4.3c-16.4,4.9-34.5,7.8-54.3,3.8c-8-1.7-17.5-3.7-24.5-10.1c-1.4-1.3-2.8-2.8-4-4.5c-7-10.3-5.5-23.1-4.9-28.1
		c0.8-6.9,2.7-10.5,4.6-15.7c1.3-3.4,2.6-7.6,3.6-14c0-0.3,0.1-0.6,0.1-0.9c0.3-2.1,0.6-4,0.9-5.7c0.6-4.4,0.6-7.7-0.2-11.7
		c-1.1-4.8-3.1-8.2-5.3-11c-3.5-4.4-7.5-7.3-9-11.8c-2.5-7.6,2.1-21,35.2-46.4c18.4-17.5,35-23.7,46.6-26.2c0.8-0.2,1.5-0.3,2.3-0.5
		c19.7-3.7,32,1.7,53.5-4.5c0.2,0,0.4-0.1,0.5-0.2c3.3-1,6.3-2.1,9.3-3.3l0.1,0c8.9-3.7,16.1-8.4,21.5-12.6c1.5-1.2,2.9-2.3,4.2-3.4
		c3.5-3.1,8.6-6.2,13.5-9.9l0,0c1.9-1.5,3.8-3,5.6-4.7c4.8-4.5,8.7-9.9,9.8-17c0.1-0.3,0.1-0.7,0.2-1.1c0.1-0.9,0.3-1.8,0.5-2.8
		c1.4-6.6,5-14.6,9-22c0.2-0.3,0.3-0.6,0.5-0.9c6.4-11.8,13.6-21.9,13.6-21.9c15.1-18,29.4-30,39.7-37.7c19.9-14.8,37.6-22.7,43-41
		c1-3.5,1.8-8.2,5.7-13.2c1.3-1.7,8.1-10,25.3-12.9c15.5-2.6,27,1.3,42,5.5c51.3,14.2,55,6.8,67.4,17.6c9,7.9,13.9,20.5,23.1,45.4
		c0.3,0.7,0.5,1.4,0.8,2.1c0,0,0,0.1,0.1,0.1c1.4,3.7,2.6,7.2,3.8,10.4c1,2.8,2,5.5,2.9,8C551.4,295.5,553.6,303.8,552.8,309.9z"/>
	<radialGradient id="SVGID_2_" cx="343.9524" cy="549.3494" r="124.588" gradientUnits="userSpaceOnUse">
		<stop  offset="1.385225e-07" style="stop-color:#60495E"/>
		<stop  offset="1" style="stop-color:#2D1E2E"/>
	</radialGradient>
	<path class="st1" d="M471.4,515.8c-4.3,13.6-0.8,20.3-8.2,32.3c-5.2,8.4-11.7,13-16.7,16.3c-27,18.4-42.8,29.2-58,35.9
		c-3.1,1.4-6.2,2.6-9.4,3.6c-10.6,3.5-17.8,4.6-24.3,4.8c-3.7,0.1-7.2,0-11-0.2c-3.8-0.2-7.8-0.3-12.7-0.2c-0.7,0-1.5,0-2.3,0.1
		c-0.1,0-0.1,0-0.1,0c-0.8,0-1.5,0.1-2.3,0.1c-0.3,0-0.6,0-0.8,0.1h-0.1c-5.4,0.3-11.8,1-19.7,2.4c-0.2,0-0.3,0-0.5,0.1
		c-56.8,9.7-81.7,33.7-103.3,19.1c-1.4-1-12.3-8.3-12.1-17.8c0.1-5.1,3.4-8.8,8.6-12.4c6.4-4.5,15.9-8.9,26.1-15.9
		c1.6-1.1,3.3-2.3,4.9-3.6c6-4.5,12-10,17.9-17c2.4-2.9,4.1-5.2,5.5-7.3c0.1-0.1,0.2-0.3,0.3-0.4c4-6.2,4.9-10.2,13.9-20.4
		c2.7-3.1,5.6-6.4,8.8-9.7c7.8-8.1,17-16.1,29.4-21.3c3.7-1.6,7-2.6,10.2-3.2c15.7-3.3,26.7,2.1,53.8-6.3c8.1-2.5,8-3,27.9-10.9
		c15.1-6,27.1-10.4,37-13.6c3-1,5.8-1.8,8.4-2.5c2.9-0.8,5.6-1.5,8.2-2.1c0.2,0,0.4-0.1,0.5-0.1c0.8-0.2,1.7-0.3,2.5-0.5
		c9.7-1.8,17.2-1.8,25-0.6c7.3,1.2,16.6,2.7,18.7,8.5C501.1,483,479.4,490.4,471.4,515.8z"/>
	<linearGradient id="SVGID_3_" gradientUnits="userSpaceOnUse" x1="82.6614" y1="616.8394" x2="181.5378" y2="616.8394">
		<stop  offset="1.385225e-07" style="stop-color:#60495E"/>
		<stop  offset="1" style="stop-color:#2D1E2E"/>
	</linearGradient>
	<path class="st2" d="M181.4,595c-1,3.3-7.6,8.5-11.1,20.8c-0.1,0.3-0.1,0.5-0.2,0.7h0c-2.3,8.8-0.2,11.5-2.9,15.9
		c-6.3,10.4-27.3,11-41.9,7.1c-26.6-7-46.5-32.7-42.1-40.1c0.1-0.1,0.1-0.2,0.2-0.3c3.5-4.6,16.9,3.8,43.9,2.6
		c19.2-0.8,34.6-6,44-8.4c1.1-0.3,2.2-0.5,3.1-0.7c0.5-0.1,0.9-0.2,1.3-0.2c2.9-0.5,4.8-0.3,5.5,1
		C181.6,593.8,181.6,594.3,181.4,595z"/>
	<linearGradient id="SVGID_4_" gradientUnits="userSpaceOnUse" x1="43.2969" y1="506.4439" x2="72.9276" y2="506.4439">
		<stop  offset="1.385225e-07" style="stop-color:#60495E"/>
		<stop  offset="1" style="stop-color:#2D1E2E"/>
	</linearGradient>
	<path class="st3" d="M72.8,514.3c-0.2,2.4-0.5,5.2-1,9c-1.9,15-3.5,16-4.3,16.3c-3.4,1.4-8.1-3.2-11-5.9
		c-2.4-2.3-8.6-8.3-11.5-18.6c-5.3-19,3.3-41.9,10.2-42.1c4.4-0.1,8.4,9.1,13.3,20.4c2.4,5.7,3.5,9.7,4,12.3v0
		c0.2,1.2,0.3,2,0.4,2.5C73,510.1,73,512,72.8,514.3z"/>
	<linearGradient id="SVGID_5_" gradientUnits="userSpaceOnUse" x1="41.9476" y1="440.5655" x2="88.4777" y2="440.5655">
		<stop  offset="1.385225e-07" style="stop-color:#60495E"/>
		<stop  offset="1" style="stop-color:#2D1E2E"/>
	</linearGradient>
	<path class="st4" d="M48,464.6c8.3,0.6,15-5.7,18.1-8.7c6.3-6.1,4.4-7.7,11-14c5.7-5.4,8.4-5.5,10.2-9.7c2-4.6,1.5-11.5-2.3-14.3
		c-4.9-3.6-13.1,1-17.4,3.3c-8.9,4.9-13.4,12-17.1,17.9c-2.4,3.8-12,19.1-7.4,24C44.3,464.3,46,464.4,48,464.6z"/>
	<linearGradient id="SVGID_6_" gradientUnits="userSpaceOnUse" x1="503.6707" y1="377.3391" x2="532.839" y2="377.3391">
		<stop  offset="0" style="stop-color:#FFFFFF"/>
		<stop  offset="0" style="stop-color:#00736D"/>
		<stop  offset="0.5536" style="stop-color:#005651"/>
		<stop  offset="1" style="stop-color:#00534D"/>
	</linearGradient>
	<path class="st5" d="M531.9,366.4c-0.3,2.1-0.7,4.6-1.1,7.3c-0.1,0.5-0.1,0.9-0.2,1.4c-2.2,14-3.7,17-5.9,19.6
		c-0.7,0.8-7.1,7.9-13.3,6.1c-6.1-1.8-9-11.6-7.3-18.8c0.6-2.6,1.8-4.6,10.5-13.5c1.3-1.4,2.5-2.6,3.7-3.8c3.1-3.1,5.5-5.6,7.5-7.5
		c3.1-2.8,5-4,6-3.5C533.3,354.5,533,358.5,531.9,366.4z"/>
	<radialGradient id="SVGID_7_" cx="502.8526" cy="436.4291" r="23.5542" gradientUnits="userSpaceOnUse">
		<stop  offset="1.385225e-07" style="stop-color:#60495E"/>
		<stop  offset="1" style="stop-color:#2D1E2E"/>
	</radialGradient>
	<path class="st6" d="M521.3,444.1c-4.7,10-14.2,13.2-19.5,15.3c-4.5,1.7-13.3,5.1-17.6,0.8c-3.4-3.3-2.9-10.2-0.3-14.5
		c0.9-1.5,1.9-2.4,3.1-3.2c1.9-1.2,4.5-2.2,8.4-5c4.9-3.5,9.7-6.8,12.9-12.3c4.4-7.7,2.3-14,4.8-14.6c0,0,0,0,0,0
		c2.9-0.6,8,7.3,9.8,15C523.6,428.1,525.3,435.8,521.3,444.1z"/>
</g>
<g id="Layer_5">
	
		<linearGradient id="SVGID_8_" gradientUnits="userSpaceOnUse" x1="360.5607" y1="422.1569" x2="421.9807" y2="422.1569" gradientTransform="matrix(0.4234 -0.4818 0.8055 0.7078 -95.9868 436.0993)">
		<stop  offset="0" style="stop-color:#865CA0"/>
		<stop  offset="0.2687" style="stop-color:#8B56A3"/>
		<stop  offset="1" style="stop-color:#1F958C;stop-opacity:0.4"/>
	</linearGradient>
	<path class="st7" d="M369.8,537.4c3.4-3.2,10.2-8.2,21.7-8.6c19.7-0.8,47.5,12,52.4,23.7c2.7,6.6-2.1,11.8-3.2,12.9
		c-4.4,4.7-11.3,4.6-14.7,4.5C403.8,569.5,371.9,539.4,369.8,537.4z"/>
	<g>
		<linearGradient id="SVGID_9_" gradientUnits="userSpaceOnUse" x1="77.09" y1="527.3157" x2="90.2093" y2="527.3157">
			<stop  offset="0" style="stop-color:#865CA0"/>
			<stop  offset="0.2687" style="stop-color:#8B56A3"/>
			<stop  offset="1" style="stop-color:#1F958C;stop-opacity:0.4"/>
		</linearGradient>
		<path class="st8" d="M89.7,539c-0.9,1.3-2.7,0.6-3.4,0.4c-4.2-1.4-7.1-5.3-9.3-9.9c1.3-3.4,2.6-7.6,3.6-14c0-0.3,0.1-0.6,0.1-0.9
			c1.8,2.5,3.2,4.9,4.3,7c0.4,0.7,0.7,1.4,1,2c0.3,0.8,1.6,3.5,2.7,6.6C89.9,533.8,90.8,537.5,89.7,539z"/>
		<linearGradient id="SVGID_10_" gradientUnits="userSpaceOnUse" x1="76.16" y1="493.894" x2="88.6674" y2="493.894">
			<stop  offset="0" style="stop-color:#865CA0"/>
			<stop  offset="0.2687" style="stop-color:#8B56A3"/>
			<stop  offset="1" style="stop-color:#1F958C;stop-opacity:0.4"/>
		</linearGradient>
		<path class="st9" d="M87.1,511.4c-1.3,0.8-3.1-0.5-3.7-0.9c-0.6-0.4-1.2-0.9-1.7-1.4c0.6-4.4,0.6-7.7-0.2-11.7
			c-1.1-4.8-3.1-8.2-5.3-11c0.6-5.8,1.9-10.3,1.9-10.3c6.5,8.5,8.7,16.3,9.6,21C88,498.8,90,509.6,87.1,511.4z"/>
		
			<linearGradient id="SVGID_11_" gradientUnits="userSpaceOnUse" x1="576.9587" y1="405.6307" x2="599.8581" y2="405.6307" gradientTransform="matrix(-0.5313 0.5765 0.4809 0.4431 206.4274 -41.5597)">
			<stop  offset="0" style="stop-color:#865CA0"/>
			<stop  offset="0.2687" style="stop-color:#8B56A3"/>
			<stop  offset="1" style="stop-color:#1F958C;stop-opacity:0.4"/>
		</linearGradient>
		<path class="st10" d="M86.9,463.4c0,0-7.1,20.3,2.2,26.3c0.4,0.3,1.7,1.1,2.8,0.4c2.4-1.6,1.4-9.9,1.2-11.1
			C92.7,475.4,91.4,469.5,86.9,463.4z"/>
		
			<linearGradient id="SVGID_12_" gradientUnits="userSpaceOnUse" x1="658.7191" y1="453.5958" x2="679.2238" y2="453.5958" gradientTransform="matrix(-0.6962 0.3604 0.3006 0.5807 428.4534 -38.55)">
			<stop  offset="0" style="stop-color:#865CA0"/>
			<stop  offset="0.2687" style="stop-color:#8B56A3"/>
			<stop  offset="1" style="stop-color:#1F958C;stop-opacity:0.4"/>
		</linearGradient>
		<path class="st11" d="M101.6,453.4c0,0-14,13.8-6.1,22.5c0.4,0.4,1.5,1.6,2.8,1.5c3-0.4,4.6-7.6,4.8-8.6
			C103.8,465.6,104.4,460.2,101.6,453.4z"/>
		
			<linearGradient id="SVGID_13_" gradientUnits="userSpaceOnUse" x1="596.2016" y1="413.0197" x2="617.4111" y2="413.0197" gradientTransform="matrix(-0.6385 0.4549 0.3794 0.5326 340.0385 -47.6814)">
			<stop  offset="0" style="stop-color:#865CA0"/>
			<stop  offset="0.2687" style="stop-color:#8B56A3"/>
			<stop  offset="1" style="stop-color:#1F958C;stop-opacity:0.4"/>
		</linearGradient>
		<path class="st12" d="M110,435c0,0-11.4,16.7-2.8,24.4c0.4,0.4,1.6,1.5,2.8,1.1c2.8-0.9,3.3-8.6,3.4-9.8
			C113.7,447.3,113.5,441.6,110,435z"/>
		
			<linearGradient id="SVGID_14_" gradientUnits="userSpaceOnUse" x1="804.7742" y1="716.5219" x2="828.5861" y2="716.5219" gradientTransform="matrix(-0.7509 -0.2254 -0.188 0.6263 850.6164 236.8499)">
			<stop  offset="0" style="stop-color:#865CA0"/>
			<stop  offset="0.2687" style="stop-color:#8B56A3"/>
			<stop  offset="1" style="stop-color:#1F958C;stop-opacity:0.4"/>
		</linearGradient>
		<path class="st13" d="M113.7,497.5c0,0-22.4-5-20.5,5.7c0.1,0.5,0.3,2,1.7,3c3.1,2.3,9.3,0.2,10.3-0.1
			C107.8,505.2,111.9,503.1,113.7,497.5z"/>
		
			<linearGradient id="SVGID_15_" gradientUnits="userSpaceOnUse" x1="574.1979" y1="402.0604" x2="595.4074" y2="402.0604" gradientTransform="matrix(-0.6385 0.4549 0.3794 0.5326 340.0385 -47.6814)">
			<stop  offset="0" style="stop-color:#865CA0"/>
			<stop  offset="0.2687" style="stop-color:#8B56A3"/>
			<stop  offset="1" style="stop-color:#1F958C;stop-opacity:0.4"/>
		</linearGradient>
		<path class="st14" d="M119.9,419.1c0,0-11.4,16.7-2.8,24.4c0.4,0.4,1.6,1.5,2.8,1.1c2.8-0.9,3.3-8.6,3.4-9.8
			C123.6,431.5,123.4,425.8,119.9,419.1z"/>
		
			<linearGradient id="SVGID_16_" gradientUnits="userSpaceOnUse" x1="551.0527" y1="386.5557" x2="572.2622" y2="386.5557" gradientTransform="matrix(-0.6385 0.4549 0.3794 0.5326 340.0385 -47.6814)">
			<stop  offset="0" style="stop-color:#865CA0"/>
			<stop  offset="0.2687" style="stop-color:#8B56A3"/>
			<stop  offset="1" style="stop-color:#1F958C;stop-opacity:0.4"/>
		</linearGradient>
		<path class="st15" d="M128.8,400.3c0,0-11.4,16.7-2.8,24.4c0.4,0.4,1.6,1.5,2.8,1.1c2.8-0.9,3.3-8.6,3.4-9.8
			C132.5,412.7,132.3,407,128.8,400.3z"/>
		
			<linearGradient id="SVGID_17_" gradientUnits="userSpaceOnUse" x1="351.2909" y1="1174.5387" x2="373.5594" y2="1174.5387" gradientTransform="matrix(-0.244 0.745 -0.6214 -0.2035 954.7086 404.1571)">
			<stop  offset="0" style="stop-color:#865CA0"/>
			<stop  offset="0.2687" style="stop-color:#8B56A3"/>
			<stop  offset="1" style="stop-color:#1F958C;stop-opacity:0.4"/>
		</linearGradient>
		<path class="st16" d="M146.2,429.2c0,0-7.9,19.7-16.6,12.3c-0.4-0.4-1.6-1.4-1.8-3c-0.4-3.6,5-7.2,5.8-7.7
			C135.9,429.3,140.1,427.5,146.2,429.2z"/>
		
			<linearGradient id="SVGID_18_" gradientUnits="userSpaceOnUse" x1="377.4113" y1="1180.1685" x2="399.6798" y2="1180.1685" gradientTransform="matrix(-0.244 0.745 -0.6214 -0.2035 954.7086 404.1571)">
			<stop  offset="0" style="stop-color:#865CA0"/>
			<stop  offset="0.2687" style="stop-color:#8B56A3"/>
			<stop  offset="1" style="stop-color:#1F958C;stop-opacity:0.4"/>
		</linearGradient>
		<path class="st17" d="M136.3,447.5c0,0-7.9,19.7-16.6,12.3c-0.4-0.4-1.6-1.4-1.8-2.9c-0.4-3.6,5-7.2,5.8-7.7
			C126.1,447.6,130.2,445.8,136.3,447.5z"/>
		
			<linearGradient id="SVGID_19_" gradientUnits="userSpaceOnUse" x1="404.0243" y1="1187.6006" x2="426.2928" y2="1187.6006" gradientTransform="matrix(-0.244 0.745 -0.6214 -0.2035 954.7086 404.1571)">
			<stop  offset="0" style="stop-color:#865CA0"/>
			<stop  offset="0.2687" style="stop-color:#8B56A3"/>
			<stop  offset="1" style="stop-color:#1F958C;stop-opacity:0.4"/>
		</linearGradient>
		<path class="st18" d="M125.2,465.8c0,0-7.9,19.7-16.6,12.3c-0.4-0.4-1.6-1.4-1.8-3c-0.4-3.6,5-7.2,5.8-7.7
			C114.9,466,119.1,464.1,125.2,465.8z"/>
		
			<linearGradient id="SVGID_20_" gradientUnits="userSpaceOnUse" x1="517.4785" y1="1265.1608" x2="538.4732" y2="1265.1608" gradientTransform="matrix(-0.4125 0.585 -0.4484 -0.3162 891.9028 577.4154)">
			<stop  offset="0" style="stop-color:#865CA0"/>
			<stop  offset="0.2687" style="stop-color:#8B56A3"/>
			<stop  offset="1" style="stop-color:#1F958C;stop-opacity:0.4"/>
		</linearGradient>
		<path class="st19" d="M117,484.2c0,0-12.2,13.2-18.2,5.1c-0.3-0.4-1.1-1.5-0.9-2.8c0.6-2.9,6.4-4.2,7.2-4.4
			C107.7,481.6,111.9,481.2,117,484.2z"/>
		
			<linearGradient id="SVGID_21_" gradientUnits="userSpaceOnUse" x1="914.4682" y1="767.3254" x2="935.7109" y2="767.3254" gradientTransform="matrix(-0.5386 -0.1617 -0.2695 0.8978 803.8196 -19.1471)">
			<stop  offset="0" style="stop-color:#865CA0"/>
			<stop  offset="0.2687" style="stop-color:#8B56A3"/>
			<stop  offset="1" style="stop-color:#1F958C;stop-opacity:0.4"/>
		</linearGradient>
		<path class="st20" d="M107.5,511.4c0,0-16.4,0.2-15.7,14.7c0,0.7,0.1,2.7,1.1,3.7c2.2,2.2,7-2.7,7.7-3.5
			C102.6,524.1,105.8,519.8,107.5,511.4z"/>
		
			<linearGradient id="SVGID_22_" gradientUnits="userSpaceOnUse" x1="902.6" y1="786.9059" x2="923.8427" y2="786.9059" gradientTransform="matrix(-0.5386 -0.1617 -0.2695 0.8978 803.8196 -19.1471)">
			<stop  offset="0" style="stop-color:#865CA0"/>
			<stop  offset="0.2687" style="stop-color:#8B56A3"/>
			<stop  offset="1" style="stop-color:#1F958C;stop-opacity:0.4"/>
		</linearGradient>
		<path class="st21" d="M108.6,530.9c0,0-16.4,0.2-15.7,14.7c0,0.7,0.1,2.7,1.1,3.7c2.2,2.2,7-2.7,7.7-3.5
			C103.8,543.6,106.9,539.3,108.6,530.9z"/>
		
			<linearGradient id="SVGID_23_" gradientUnits="userSpaceOnUse" x1="942.1118" y1="522.0706" x2="964.1885" y2="522.0706" gradientTransform="matrix(-0.4791 -0.1438 -0.1953 0.6507 699.659 210.913)">
			<stop  offset="0" style="stop-color:#865CA0"/>
			<stop  offset="0.2687" style="stop-color:#8B56A3"/>
			<stop  offset="1" style="stop-color:#1F958C;stop-opacity:0.4"/>
		</linearGradient>
		<path class="st22" d="M148.5,407.6c0,0-14.5-1.1-13.6,9.6c0,0.5,0.1,2,1,2.8c2,1.8,6.1-1.5,6.7-2
			C144.4,416.5,147.1,413.6,148.5,407.6z"/>
		
			<linearGradient id="SVGID_24_" gradientUnits="userSpaceOnUse" x1="219.0514" y1="730.9236" x2="96.4556" y2="730.9236" gradientTransform="matrix(0.7638 -0.6455 -0.6455 -0.7638 464.3959 1148.0931)">
			<stop  offset="0" style="stop-color:#865CA0"/>
			<stop  offset="0.2687" style="stop-color:#8B56A3"/>
			<stop  offset="1" style="stop-color:#5B2B5E"/>
		</linearGradient>
		<path class="st23" d="M91.1,557c-0.5-1.5-1.3-4-1.6-6.9c-0.8-7.5,2.4-8.3,1.4-15.3c-0.5-3.9-1.7-5.2-2-10.1
			c-0.1-1.7,0-2.1,0.2-5.7c0.2-4.8,0.2-8.7,0.2-12.2c0-7.4-0.3-8.2,0.4-10.2c0.8-2.6,1.5-2.1,3.4-5.8c2.5-4.7,1.6-6,3.8-9.4
			c1.6-2.4,2.1-1.9,4.9-5.1c2.2-2.6,3.1-4.4,4.5-6.7c1.6-2.6,4.2-6.2,8-10.1c0.7-3,2-7.2,4.8-11.4c2.3-3.6,2.9-3,4.9-6.5
			c1.6-2.9,1.7-4.2,5.2-12.6c0.7-1.6,1-2.4,1.5-3.4c1.6-3.1,3.3-5.2,4.4-6.6c-0.4,1.1-1.1,2.8-2,4.8c-2.5,5.3-3.7,6.3-5.3,10.3
			c-1.8,4.5-0.8,4.6-2.4,8c-2.1,4.4-4,4.6-6.3,8.6c-1.1,1.9-2.5,4.9-3.2,9.5c-3.8,3.9-6.4,7.4-8.1,10c-1.7,2.7-2.1,3.7-4.1,6.3
			c-3.5,4.6-4.3,4.1-5.8,7.1c-1.6,3.2-1,4.6-2.9,9.2c-1,2.5-2.1,4.3-2.9,5.5c-0.1,0.9-1,14.4-1,21.9c0,1.8,0.1,3.6,0.2,5.7
			c0.3,3.6,0.8,6.2,0.9,6.8C92.7,535.9,92.9,542.4,91.1,557z"/>
	</g>
	
		<linearGradient id="SVGID_25_" gradientUnits="userSpaceOnUse" x1="194.3244" y1="558.1991" x2="252.5329" y2="524.5924" gradientTransform="matrix(-1.0059 -1.5704 -1.5588 0.9984 1313.2644 369.9895)">
		<stop  offset="0.3609" style="stop-color:#C89789"/>
		<stop  offset="1" style="stop-color:#4981BA"/>
	</linearGradient>
	<path class="st24" d="M267.7,510.5c-0.3-1.7-1.3-5.4-4.3-8.9c-2.5-2.9-5.4-4.4-6.9-5.1c-1.5,0.3-3.8,1-6.1,2.7
		c-4.4,3.3-5.8,8-6.1,9.5c1.7,9.5,3.4,19,5.1,28.6c-2,1.7-3.3,1.8-4,1.6c-4.3-1-0.4-12-6.7-23.8c0,0-5.9-11-4-14.9
		c0,0,0.1-0.2,0-0.3c-0.4-0.6-5.9,1.8-9.8,5.1c-1.8,1.5-4.5,4.2-6.6,8.9c4.8,8.5,9.6,16.9,14.4,25.4c0.9,2.9,1.9,5.8,2.8,8.7
		c-1.9-0.4-3.9-0.8-5.8-1.2c-2.6-4.8-5.2-9.7-7.8-14.5l-8.2-11.3c-1.2,0.7-5,3.2-7,8.2c-2,5.1-0.8,9.7-0.4,11
		c3.8,4.1,8.2,8.5,13.4,12.8c3.6,3.1,7.2,5.8,10.5,8.1c0.1,1.8,0.1,3.6,0.2,5.5l-21.4-11.6l-5.3-8.2c-1.1,0.7-6.1,4.2-7.2,10.7
		c-0.1,0.3-1.2,7.3,3.1,12.5c8.2,9.9,28.2,3.1,30.2,8.8c0.3,1,0.3,2.7-2.5,5.8c-4.1-0.8-8.1-1.6-12.2-2.4c-4.8,1.2-9.5,2.4-14.3,3.6
		c-4.1,11.2-2,15.9-0.3,17.9c1.6,2,3.3,2.1,16.8,6.4c8.1,2.6,9.8,3.3,11.4,4.1c5.5,2.7,9.5,5.9,12,8.2c3.8-1.1,7.6-2.3,11.4-3.4
		l13.2-1.5c7.2-1.1,14.4-2.1,21.6-3.2c0.5-0.2,4.3-1.4,6-5.5c1.8-4.4-0.4-8.2-0.7-8.6c-5.7,0.1-11.3,0.1-17,0.2c0,0-18.4-6.2-18-7.5
		c0-0.1,0.2-0.2,0.2-0.2c2.9-0.9,15-0.3,19.3-0.5c0.1,0,15.5-3.6,15.3-3.5l0,0c2.7-2.2,2.6-3.8,2.6-4.2c-0.3-2.8-5.2-5.4-12.5-5.5
		c-8.2-1.3-16.4-2.6-24.6-3.9c6.5-2,12.9-4,19.4-6c5.4,1.8,10.9,3.6,16.3,5.4c0.3-2.1,0.6-7.6-2.5-13.3c-1.9-3.6-4.5-5.8-6.1-7
		c-3.8,0.3-8.6,1.1-14,2.9c-6,2-10.7,4.7-14,6.9c-1.2-2.7-2.4-5.4-3.6-8.2c3.4,0.2,7.7,0,12.7-1.1c8.9-2.1,15.2-6.3,18.7-9.2
		c1.2-1.3,2.4-2.7,3.5-4c-0.6-2.2-2-6-5-9.7c-3.2-3.9-6.7-6.1-8.8-7.2c-2.9,3.9-5.8,7.8-8.7,11.6c-3.4,2.1-6.9,4.2-10.3,6.2l12-21.2
		C267,517.7,267.4,514.1,267.7,510.5z"/>
	
		<linearGradient id="SVGID_26_" gradientUnits="userSpaceOnUse" x1="118.1989" y1="405.7112" x2="179.6188" y2="405.7112" gradientTransform="matrix(0.9966 6.410531e-02 -6.883445e-02 1.0701 68.1276 76.3152)">
		<stop  offset="0" style="stop-color:#865CA0"/>
		<stop  offset="0.2687" style="stop-color:#8B56A3"/>
		<stop  offset="1" style="stop-color:#1F958C;stop-opacity:0.4"/>
	</linearGradient>
	<path class="st25" d="M160.5,482.2c7.2,0.9,19.9,3.5,31.7,12.7c20.2,15.7,31.9,45.8,22.5,56.6c-5.3,6.1-16.4,5.2-18.7,5
		c-10-0.8-16.6-6.5-19.8-9.3C154.8,528.7,160.1,485.1,160.5,482.2z"/>
	<linearGradient id="SVGID_27_" gradientUnits="userSpaceOnUse" x1="78.2798" y1="572.851" x2="172.0021" y2="516.0067">
		<stop  offset="0.3609" style="stop-color:#C89789"/>
		<stop  offset="1" style="stop-color:#3E2962"/>
	</linearGradient>
	<path class="st26" d="M183.8,575.4c-0.9,0.4-1.7,0.8-2.6,1.2c-0.6,0.3-1.2,0.5-1.8,0.8c-0.3,0.2-0.7,0.3-1.1,0.5
		c-1.8,0.8-3.7,1.5-5.6,2.2c-4,1.5-8.2,3-12.6,4.3c-16.4,4.9-34.5,7.8-54.3,3.8c-8-1.7-17.5-3.7-24.5-10.1c1.2-1.6,2.7-2.8,4.3-3.3
		c4.6-1.4,9,3.3,10.3,1.9c0.9-0.9-0.4-3.6-2.8-7.6c-7.3-12.4-11.8-15.9-10.4-19.9c0.8-2.3,3.2-3.9,5.2-4.5c4.4-1.2,7.8,2.9,10.3,1.3
		c1.5-1,1.9-3.5,1.6-5.3c-0.8-5.8-8.7-5.5-12.7-12.1c-2.6-4.3-3.2-10.8-0.1-15.7c3.4-5.5,11.1-8.8,14.5-6.8c2.6,1.5,2.1,5.8,4.8,6.4
		c1.7,0.4,3.3-1,4-1.5c4.4-3.5,2.8-8.6,6.1-18.1c1-2.9,2.2-6.2,4.9-9.9c1.8-2.4,5.9-7.8,12.5-9c1.5-0.3,4.4-0.7,7,0.7
		c3.5,1.9,5.2,6.4,4.6,11.5c-0.9,4.5-2.1,10.6-3.3,18c-0.8,5-1.4,9.3-0.3,9.7c1.7,0.6,4.5-8.8,12.5-11.4c0.8-0.3,2.9-0.9,5.2-0.6
		c0.7,0.1,1.5,0.3,2.3,0.6c3.6,1.6,5.8,5.8,5.7,10.8c-0.8,2.3-2,5.9-4,10.2c-0.2,0.5-0.4,0.9-0.6,1.3c-2.6,5.4-4.2,7.7-3.4,10.3
		c0.4,1.4,1.8,3.7,7.2,5.2c0.6-0.1,1.5-0.2,2.5-0.1c0.3,0,0.5,0.1,0.8,0.2c1.2,0.3,2.4,1,3.3,1.9c1.5,1.3,2.6,3.2,3.1,5.2
		c0.1,0.6,0.2,1.1,0.2,1.7c0.2,4.4-2.9,7.8-3.3,8.1c-1.3,1.3-2.6,2-3.8,2.6c-1.9,0.9-3.5,1.4-4.4,3.3c-0.7,1.4-0.7,3.3,0,4.8
		c0.8,1.5,2.2,2.2,4.1,2.5c2.9,0.6,6.8,0.4,10.2,1.9c0.3,0.1,0.5,0.2,0.8,0.4c0.1,0,0.1,0.1,0.2,0.1c0.5,0.3,1,0.6,1.5,1
		C182.5,574.1,183.2,574.7,183.8,575.4z"/>
	<linearGradient id="SVGID_28_" gradientUnits="userSpaceOnUse" x1="98.9747" y1="624.5804" x2="173.0493" y2="579.6526">
		<stop  offset="0.3609" style="stop-color:#C89789"/>
		<stop  offset="1" style="stop-color:#3E2962"/>
	</linearGradient>
	<path class="st27" d="M181.4,595c-1,3.3-7.6,8.5-11.1,20.8c-0.1,0.3-0.1,0.5-0.2,0.7h0c-7.5,5.2-15.1,7.9-18.6,9
		c-11.2,2.9-20.1,2.4-25.4,1.6c0,0-22.5-3.1-42.7-28.1c3.5-4.6,16.9,3.8,43.9,2.6c19.2-0.8,34.6-6,44-8.4c1.1-0.3,2.2-0.5,3.1-0.7
		c0.5-0.1,0.9-0.2,1.3-0.2c2.9-0.5,4.8-0.3,5.5,1C181.6,593.8,181.6,594.3,181.4,595z"/>
	
		<linearGradient id="SVGID_29_" gradientUnits="userSpaceOnUse" x1="599.6531" y1="350.4674" x2="646.1063" y2="350.4674" gradientTransform="matrix(1.2083 0.5125 -0.5407 1.2748 -41.6454 -464.3338)">
		<stop  offset="0" style="stop-color:#4981BA"/>
		<stop  offset="0.4592" style="stop-color:#C498BD"/>
	</linearGradient>
	<path class="st28" d="M462.5,382.3c7-1.4,17.9-5.1,31.6-16.5c2.2-1.8,6.2-5.3,18.9-18.8c8.9-9.5,37.5-39.9,37.4-42.9
		c-0.1-2.2-16.5,10.6-77.9,66c6-6.5,13.6-14.9,22.4-25c50-57.5,93.2-118.5,92.5-121.1c-0.5-2-26.2,27.6-117.5,140.2
		c16.5-23.5,33.1-46.9,49.6-70.4c9.3-13.8,18.6-27.7,27.9-41.5c-15.3,16.3-27.9,31.1-37.4,42.6c-13.1,16-7,9.7-24.1,31
		c-5.9,7.4-13.9,17.2-21.3,32.2c-2.9,5.8-4.9,10.8-5.3,15.5C458.9,379.6,461.6,381.7,462.5,382.3z"/>
	<linearGradient id="SVGID_30_" gradientUnits="userSpaceOnUse" x1="459.3877" y1="404.235" x2="506.9389" y2="404.235">
		<stop  offset="1.396648e-02" style="stop-color:#2D6833"/>
		<stop  offset="0.9464" style="stop-color:#C6A251"/>
	</linearGradient>
	<path class="st29" d="M506.8,409.6c-0.9,7.6-6.4,13-11.7,17.4c-5.3,4.4-10.6,8-15.9,11c-1.4-1-2.5-2-3.4-2.8
		c-1.5-1.3-3-2.8-4.2-4.4c-0.6-0.7-1.2-1.5-1.7-2.3c-1.2-1.8-2.3-3.6-3.3-5.6c-2.8-5.6-4.5-11.8-5.6-18v0
		c-1.9-10.5-1.8-20.7-1.4-27.4v0c0.2-3.9,0.6-6.6,0.6-7.2c4.7,0.6,11.8,1.9,19.5,5.4c2.1,0.9,4.2,2,6.3,3.3c2,1.2,4,2.5,5.9,4
		c2.1,1.6,4.2,3.5,6.1,5.4c1.8,5.6,6.4,9.2,8.2,14.7C506.8,405,507.1,407.1,506.8,409.6z"/>
	<linearGradient id="SVGID_31_" gradientUnits="userSpaceOnUse" x1="487.06" y1="427.6891" x2="517.7012" y2="427.6891">
		<stop  offset="1.396648e-02" style="stop-color:#2D6833"/>
		<stop  offset="0.9464" style="stop-color:#C6A251"/>
	</linearGradient>
	<path class="st30" d="M514.4,439.6c-5.3,6.1-16.4,5.2-18.7,5c-3.2-0.3-6.1-1-8.6-2c1.9-1.2,4.5-2.2,8.4-5
		c4.9-3.5,9.7-6.8,12.9-12.3c4.4-7.7,2.3-14,4.8-14.6c0,0,0,0,0,0C518.4,422.4,519.5,433.8,514.4,439.6z"/>
	<linearGradient id="SVGID_32_" gradientUnits="userSpaceOnUse" x1="481.2043" y1="367.72" x2="522.42" y2="367.72">
		<stop  offset="1.396648e-02" style="stop-color:#2D6833"/>
		<stop  offset="0.9464" style="stop-color:#C6A251"/>
	</linearGradient>
	<path class="st31" d="M498,388.5c1.8,5.6,6.4,9.2,8.2,14.7c-3.9-2-6.7-4.5-8.5-6c-5.5-4.7-9.2-11.1-11.7-18.1
		c-0.7-1.9-1.3-3.9-1.8-5.9c-1-3.9-1.7-7.8-2.1-11.6v0c-0.1-0.6-0.1-1.1-0.2-1.7v0c-0.4-3.3-0.5-6.6-0.6-9.6c0-0.7,0-1.4,0-2.1
		c-0.1-8.5,0.7-14.9,0.8-15.9c2.5,0.3,5.6,0.8,9.2,1.7c0.8,0.2,1.7,0.5,2.6,0.7c2.4,0.7,5,1.7,7.6,2.8c1.6,0.7,3.2,1.5,4.8,2.4
		c1.4,0.8,2.9,1.7,4.3,2.6c1.1,0.7,2.2,1.5,3.3,2.3c0.2,0.2,0.4,0.3,0.7,0.5c2.9,2.3,5.6,4.9,8,7.6c-2.5,2.2-5,4.2-7.4,6.3
		c-11.1,9.6-19.7,18.2-17.3,28.2C497.8,387.8,497.9,388.1,498,388.5z"/>
	<linearGradient id="SVGID_33_" gradientUnits="userSpaceOnUse" x1="503.6707" y1="379.1233" x2="531.92" y2="379.1233">
		<stop  offset="1.396648e-02" style="stop-color:#2D6833"/>
		<stop  offset="0.9464" style="stop-color:#C6A251"/>
	</linearGradient>
	<path class="st32" d="M531.9,366.4c-0.3,2.1-0.7,4.6-1.1,7.3c-0.1,0.5-0.1,0.9-0.2,1.4c-2.2,14-3.7,17-5.9,19.6
		c-0.7,0.8-7.1,7.9-13.3,6.1c-6.1-1.8-9-11.6-7.3-18.8c0.6-2.6,1.8-4.6,10.5-13.5c1.3-1.4,2.5-2.6,3.7-3.8c3.1-3.1,5.5-5.6,7.5-7.5
		C528.1,360.2,530.2,363.2,531.9,366.4z"/>
	<linearGradient id="SVGID_34_" gradientUnits="userSpaceOnUse" x1="518.31" y1="364.3558" x2="532.839" y2="364.3558">
		<stop  offset="1.396648e-02" style="stop-color:#2D6833"/>
		<stop  offset="0.9464" style="stop-color:#C6A251"/>
	</linearGradient>
	<path class="st33" d="M531.9,366.4c-0.3,2.1-0.7,4.6-1.1,7.3c-0.1,0.5-0.1,0.9-0.2,1.4c0,0-0.1,0-0.1,0c-5.9-2.7-9.7-6.8-12.2-10.3
		c3.1-3.1,5.5-5.6,7.5-7.5c3.1-2.8,5-4,6-3.5C533.3,354.5,533,358.5,531.9,366.4z"/>
	<linearGradient id="SVGID_35_" gradientUnits="userSpaceOnUse" x1="510.3517" y1="326.255" x2="550.26" y2="326.255">
		<stop  offset="1.396648e-02" style="stop-color:#2D6833"/>
		<stop  offset="0.9464" style="stop-color:#C6A251"/>
	</linearGradient>
	<path class="st34" d="M522.4,353.1c-2.5,2.2-5,4.2-7.4,6.3c-1.8-3.3-3-6.9-3.8-10.6c-0.4-2-0.7-4.1-0.8-6.2
		c-0.1-2.1-0.1-4.3-0.1-6.4c0.2-3.6,0.6-7.3,1.3-10.8v0c1.3-7.1,3.4-13.7,5.4-19.1v0c2.7-7.2,5.3-12.3,5.7-13.1
		c1,0.5,2.2,1.2,3.5,1.9c2,1.2,4.3,2.6,6.6,4.4c3.3,2.4,6.7,5.5,9.9,9.2c0.8,0.9,1.6,1.9,2.3,2.9c1.1,1.4,2.1,2.9,3.1,4.4
		c0.7,1.2,1.4,2.4,2.1,3.6C545,333.1,533.4,343.7,522.4,353.1z"/>
	<g>
		<linearGradient id="SVGID_36_" gradientUnits="userSpaceOnUse" x1="456.24" y1="437.805" x2="471.93" y2="437.805">
			<stop  offset="0" style="stop-color:#865CA0"/>
			<stop  offset="0.2687" style="stop-color:#8B56A3"/>
			<stop  offset="1" style="stop-color:#1F958C;stop-opacity:0.4"/>
		</linearGradient>
		<path class="st35" d="M471.9,426.9c0,0-0.1,1.6-0.3,4c-0.3,3.1-1,7.6-2.2,12.3c-4.5,2.1-9,4-13.2,5.6c0.7-1.6,1.2-2.8,1.4-3.3
			c2-4.2,5.6-10.8,12.3-16.9C470.6,428,471.2,427.4,471.9,426.9z"/>
		
			<linearGradient id="SVGID_37_" gradientUnits="userSpaceOnUse" x1="295.6461" y1="717.0904" x2="318.7376" y2="717.0904" gradientTransform="matrix(0.639 0.6934 -0.6826 0.629 754.9858 -247.8765)">
			<stop  offset="0" style="stop-color:#865CA0"/>
			<stop  offset="0.2687" style="stop-color:#8B56A3"/>
			<stop  offset="1" style="stop-color:#1F958C;stop-opacity:0.4"/>
		</linearGradient>
		<path class="st36" d="M465.7,397.8c0,0,7.6,25.4-5.3,34.3c-0.6,0.4-2.4,1.7-3.7,0.9c-3-1.8-0.9-12.6-0.6-14.2
			C456.9,414.1,459.2,406.3,465.7,397.8z"/>
		
			<linearGradient id="SVGID_38_" gradientUnits="userSpaceOnUse" x1="229.112" y1="681.4347" x2="252.0115" y2="681.4347" gradientTransform="matrix(0.5313 0.5765 -0.4809 0.4431 654.738 -41.5597)">
			<stop  offset="0" style="stop-color:#865CA0"/>
			<stop  offset="0.2687" style="stop-color:#8B56A3"/>
			<stop  offset="1" style="stop-color:#1F958C;stop-opacity:0.4"/>
		</linearGradient>
		<path class="st37" d="M456.8,385.1c0,0,7.1,20.3-2.2,26.3c-0.4,0.3-1.7,1.1-2.8,0.4c-2.4-1.6-1.4-9.9-1.2-11.1
			C451,397.1,452.3,391.2,456.8,385.1z"/>
		
			<linearGradient id="SVGID_39_" gradientUnits="userSpaceOnUse" x1="253.2159" y1="570.3684" x2="273.7206" y2="570.3684" gradientTransform="matrix(0.6962 0.3604 -0.3006 0.5807 432.7119 -38.55)">
			<stop  offset="0" style="stop-color:#865CA0"/>
			<stop  offset="0.2687" style="stop-color:#8B56A3"/>
			<stop  offset="1" style="stop-color:#1F958C;stop-opacity:0.4"/>
		</linearGradient>
		<path class="st38" d="M442.1,375.1c0,0,14,13.8,6.1,22.5c-0.4,0.4-1.5,1.6-2.8,1.5c-3-0.4-4.6-7.6-4.8-8.6
			C439.9,387.3,439.4,381.9,442.1,375.1z"/>
		
			<linearGradient id="SVGID_40_" gradientUnits="userSpaceOnUse" x1="208.4664" y1="597.1234" x2="229.6759" y2="597.1234" gradientTransform="matrix(0.6385 0.4549 -0.3794 0.5326 521.1268 -47.6814)">
			<stop  offset="0" style="stop-color:#865CA0"/>
			<stop  offset="0.2687" style="stop-color:#8B56A3"/>
			<stop  offset="1" style="stop-color:#1F958C;stop-opacity:0.4"/>
		</linearGradient>
		<path class="st39" d="M433.7,356.7c0,0,11.4,16.7,2.8,24.4c-0.4,0.4-1.6,1.5-2.8,1.1c-2.8-0.9-3.3-8.6-3.4-9.8
			C430,369,430.2,363.3,433.7,356.7z"/>
		
			<linearGradient id="SVGID_41_" gradientUnits="userSpaceOnUse" x1="445.6888" y1="462.2621" x2="469.5007" y2="462.2621" gradientTransform="matrix(0.7509 -0.2254 0.188 0.6263 10.549 236.8499)">
			<stop  offset="0" style="stop-color:#865CA0"/>
			<stop  offset="0.2687" style="stop-color:#8B56A3"/>
			<stop  offset="1" style="stop-color:#1F958C;stop-opacity:0.4"/>
		</linearGradient>
		<path class="st40" d="M430.1,419.2c0,0,22.4-5,20.5,5.7c-0.1,0.5-0.3,2-1.7,3c-3.1,2.3-9.3,0.2-10.3-0.1
			C435.9,426.9,431.9,424.8,430.1,419.2z"/>
		
			<linearGradient id="SVGID_42_" gradientUnits="userSpaceOnUse" x1="186.4627" y1="586.1641" x2="207.6722" y2="586.1641" gradientTransform="matrix(0.6385 0.4549 -0.3794 0.5326 521.1268 -47.6814)">
			<stop  offset="0" style="stop-color:#865CA0"/>
			<stop  offset="0.2687" style="stop-color:#8B56A3"/>
			<stop  offset="1" style="stop-color:#1F958C;stop-opacity:0.4"/>
		</linearGradient>
		<path class="st41" d="M423.8,340.8c0,0,11.4,16.7,2.8,24.4c-0.4,0.4-1.6,1.5-2.8,1.1c-2.8-0.9-3.3-8.6-3.4-9.8
			C420.1,353.1,420.3,347.4,423.8,340.8z"/>
		
			<linearGradient id="SVGID_43_" gradientUnits="userSpaceOnUse" x1="163.3175" y1="570.6594" x2="184.527" y2="570.6594" gradientTransform="matrix(0.6385 0.4549 -0.3794 0.5326 521.1268 -47.6814)">
			<stop  offset="0" style="stop-color:#865CA0"/>
			<stop  offset="0.2687" style="stop-color:#8B56A3"/>
			<stop  offset="1" style="stop-color:#1F958C;stop-opacity:0.4"/>
		</linearGradient>
		<path class="st42" d="M414.9,322c0,0,11.4,16.7,2.8,24.4c-0.4,0.4-1.6,1.5-2.8,1.1c-2.8-0.9-3.3-8.6-3.4-9.8
			C411.2,334.4,411.4,328.7,414.9,322z"/>
		
			<linearGradient id="SVGID_44_" gradientUnits="userSpaceOnUse" x1="130.3506" y1="750.4872" x2="152.6192" y2="750.4872" gradientTransform="matrix(0.244 0.745 0.6214 -0.2035 -93.5432 404.1571)">
			<stop  offset="0" style="stop-color:#865CA0"/>
			<stop  offset="0.2687" style="stop-color:#8B56A3"/>
			<stop  offset="1" style="stop-color:#1F958C;stop-opacity:0.4"/>
		</linearGradient>
		<path class="st43" d="M397.5,350.9c0,0,7.9,19.7,16.6,12.3c0.4-0.4,1.6-1.4,1.8-3c0.4-3.6-5-7.2-5.8-7.7
			C407.8,351,403.6,349.1,397.5,350.9z"/>
		
			<linearGradient id="SVGID_45_" gradientUnits="userSpaceOnUse" x1="156.471" y1="756.1169" x2="178.7395" y2="756.1169" gradientTransform="matrix(0.244 0.745 0.6214 -0.2035 -93.5432 404.1571)">
			<stop  offset="0" style="stop-color:#865CA0"/>
			<stop  offset="0.2687" style="stop-color:#8B56A3"/>
			<stop  offset="1" style="stop-color:#1F958C;stop-opacity:0.4"/>
		</linearGradient>
		<path class="st44" d="M407.4,369.2c0,0,7.9,19.7,16.6,12.3c0.4-0.4,1.6-1.4,1.8-3c0.4-3.6-5-7.2-5.8-7.7
			C417.7,369.3,413.5,367.5,407.4,369.2z"/>
		
			<linearGradient id="SVGID_46_" gradientUnits="userSpaceOnUse" x1="183.084" y1="763.5491" x2="205.3526" y2="763.5491" gradientTransform="matrix(0.244 0.745 0.6214 -0.2035 -93.5432 404.1571)">
			<stop  offset="0" style="stop-color:#865CA0"/>
			<stop  offset="0.2687" style="stop-color:#8B56A3"/>
			<stop  offset="1" style="stop-color:#1F958C;stop-opacity:0.4"/>
		</linearGradient>
		<path class="st45" d="M418.5,387.5c0,0,7.9,19.7,16.6,12.3c0.4-0.4,1.6-1.4,1.8-3c0.4-3.6-5-7.2-5.8-7.7
			C428.8,387.6,424.6,385.8,418.5,387.5z"/>
		
			<linearGradient id="SVGID_47_" gradientUnits="userSpaceOnUse" x1="172.509" y1="874.6678" x2="193.5037" y2="874.6678" gradientTransform="matrix(0.4125 0.585 0.4484 -0.3162 -30.7375 577.4154)">
			<stop  offset="0" style="stop-color:#865CA0"/>
			<stop  offset="0.2687" style="stop-color:#8B56A3"/>
			<stop  offset="1" style="stop-color:#1F958C;stop-opacity:0.4"/>
		</linearGradient>
		<path class="st46" d="M426.8,405.9c0,0,12.2,13.2,18.2,5.1c0.3-0.4,1.1-1.5,0.9-2.8c-0.6-2.9-6.4-4.2-7.2-4.4
			C436.1,403.3,431.8,402.9,426.8,405.9z"/>
		
			<linearGradient id="SVGID_48_" gradientUnits="userSpaceOnUse" x1="413.843" y1="589.9656" x2="435.0857" y2="589.9656" gradientTransform="matrix(0.5386 -0.1617 0.2695 0.8978 57.3458 -19.1471)">
			<stop  offset="0" style="stop-color:#865CA0"/>
			<stop  offset="0.2687" style="stop-color:#8B56A3"/>
			<stop  offset="1" style="stop-color:#1F958C;stop-opacity:0.4"/>
		</linearGradient>
		<path class="st47" d="M436.2,433c0,0,16.4,0.2,15.7,14.7c0,0.7-0.1,2.7-1.1,3.7c-2.2,2.2-7-2.7-7.7-3.5
			C441.1,445.7,437.9,441.4,436.2,433z"/>
		<linearGradient id="SVGID_49_" gradientUnits="userSpaceOnUse" x1="435.12" y1="454.265" x2="441.87" y2="454.265">
			<stop  offset="0" style="stop-color:#865CA0"/>
			<stop  offset="0.2687" style="stop-color:#8B56A3"/>
			<stop  offset="1" style="stop-color:#1F958C;stop-opacity:0.4"/>
		</linearGradient>
		<path class="st48" d="M441.9,453.9c-0.6,0.2-1.2,0.4-1.8,0.6c-1.4,0.5-2.8,1-4.1,1.4c-0.3-1.1-0.6-2.2-0.8-3.4c0,0,2.4,0,5.3,0.9
			C440.9,453.5,441.4,453.7,441.9,453.9z"/>
		<linearGradient id="SVGID_50_" gradientUnits="userSpaceOnUse" x1="442.66" y1="468.7146" x2="450.8509" y2="468.7146">
			<stop  offset="0" style="stop-color:#865CA0"/>
			<stop  offset="0.2687" style="stop-color:#8B56A3"/>
			<stop  offset="1" style="stop-color:#1F958C;stop-opacity:0.4"/>
		</linearGradient>
		<path class="st49" d="M450.8,466c0,0.4,0,0.8,0,1.3c0,0.7-0.1,2.7-1.1,3.7c-1.8,1.9-5.6-1.4-7.1-2.9
			C445.6,467.2,448.3,466.5,450.8,466z"/>
		
			<linearGradient id="SVGID_51_" gradientUnits="userSpaceOnUse" x1="379.3933" y1="277.3434" x2="401.4701" y2="277.3434" gradientTransform="matrix(0.4791 -0.1438 0.1953 0.6507 161.5063 210.913)">
			<stop  offset="0" style="stop-color:#865CA0"/>
			<stop  offset="0.2687" style="stop-color:#8B56A3"/>
			<stop  offset="1" style="stop-color:#1F958C;stop-opacity:0.4"/>
		</linearGradient>
		<path class="st50" d="M395.3,329.3c0,0,14.5-1.1,13.6,9.6c0,0.5-0.1,2-1,2.8c-2,1.8-6.1-1.5-6.7-2
			C399.4,338.2,396.6,335.3,395.3,329.3z"/>
		<linearGradient id="SVGID_52_" gradientUnits="userSpaceOnUse" x1="454.3787" y1="471.995" x2="451.39" y2="471.995">
			<stop  offset="0" style="stop-color:#865CA0"/>
			<stop  offset="0.2687" style="stop-color:#8B56A3"/>
			<stop  offset="1" style="stop-color:#5B2B5E"/>
		</linearGradient>
		<path class="st51" d="M453.9,465.3c0.4,1.6,0.7,3.5,0.4,6.5c-0.3,2.9-1.1,5.3-1.6,6.9c-0.7-5.3-1-9.5-1.2-12.8
			C452.2,465.6,453.1,465.5,453.9,465.3z"/>
		<linearGradient id="SVGID_53_" gradientUnits="userSpaceOnUse" x1="454.8408" y1="395.465" x2="408.7" y2="395.465">
			<stop  offset="0" style="stop-color:#865CA0"/>
			<stop  offset="0.2687" style="stop-color:#8B56A3"/>
			<stop  offset="1" style="stop-color:#5B2B5E"/>
		</linearGradient>
		<path class="st52" d="M454.8,446.4c-0.1,1.2-0.2,2.2-0.3,3c-0.7,0.3-1.5,0.6-2.2,0.8c0.1-0.8,0.2-1.7,0.3-2.6
			c0.2-2.1,0.2-3.9,0.2-5.8c0-7.5-1-21-1-21.9c-0.8-1.2-1.9-3-2.9-5.5c-1.9-4.6-1.3-6-2.9-9.2c-1.5-3-2.4-2.5-5.8-7.1
			c-2-2.6-2.4-3.7-4.1-6.3c-1.7-2.6-4.3-6.2-8.1-10c-0.7-4.6-2.1-7.6-3.2-9.5c-2.4-4-4.3-4.1-6.3-8.5c-1.6-3.4-0.5-3.5-2.4-8
			c-1.6-4-2.8-5-5.3-10.3c-0.9-2-1.6-3.7-2-4.9c1.2,1.4,2.9,3.5,4.4,6.6c0.5,1,0.8,1.7,1.5,3.4c3.5,8.5,3.6,9.8,5.2,12.6
			c1.9,3.5,2.5,2.8,4.9,6.5c2.7,4.2,4,8.5,4.8,11.4c3.8,3.9,6.3,7.5,8,10.1c1.4,2.3,2.3,4.1,4.5,6.7c2.7,3.2,3.3,2.8,4.9,5.1
			c2.2,3.3,1.3,4.7,3.8,9.4c1.9,3.7,2.6,3.2,3.4,5.8c0.7,2.1,0.4,2.9,0.4,10.3c0,3.5,0,7.4,0.2,12.2
			C454.8,444.3,454.9,444.7,454.8,446.4z"/>
	</g>
	<linearGradient id="SVGID_54_" gradientUnits="userSpaceOnUse" x1="259.4182" y1="446.9179" x2="342.9942" y2="398.7462">
		<stop  offset="1.396648e-02" style="stop-color:#2D6833"/>
		<stop  offset="0.9464" style="stop-color:#C6A251"/>
	</linearGradient>
	<path class="st53" d="M348.8,436.2c-3.3,7.3-3.9,8.9-4.3,10.5c-1.6,5.5-1.9,10.3-1.8,13.5c-3.2,1.9-6.4,3.9-9.6,5.8l-9.4,8.3
		c-3.8,3.1-7.6,6.3-11.4,9.4c-1,0.2-1.9,0.3-2.8,0.5c-4.6,0.8-8.5,1.6-11.9,2.4c-2.1-1.8-2.8-4.1-2.9-4.4c3.6-3.9,7.2-7.8,10.8-11.7
		c0,0,7.3-16.7,6.1-17.3c-0.1-0.1-0.2,0-0.3,0.1c-2.4,1.5-9.7,10.3-12.5,13.1c0,0-12.1,8.4-12.1,8.4c-0.6,0.1-1.1,0.1-1.6,0.1
		c-2,0-2.7-0.7-3-1c-1.7-1.9-0.5-7,4.1-12.2c4.3-6.5,8.5-13,12.8-19.6c-4.7,2.8-9.3,5.5-14,8.3c-0.8,0.5-1.6,1-2.5,1.5
		c-1.6,3.7-3.3,7.3-4.9,11c-0.5,1.3-1.1,2.5-1.7,3.7c-0.9-0.6-2.6-1.9-4.3-4c-0.2-0.2-0.3-0.4-0.5-0.6c-0.4-0.5-0.8-1.1-1.1-1.7
		c-0.7-1.1-1.3-2.4-1.8-3.8c-1.3-3.6-1.2-6.8-1-8.7c2.3-2.1,5.3-4.6,9.1-6.9c0.6-0.4,1.2-0.7,1.8-1c5.2-2.9,10-4.5,13.7-5.4
		c-1.1-2.5-2.3-5.1-3.4-7.7c-2,2.5-4.9,5.4-8.8,8.1c-1.1,0.7-2.1,1.4-3.1,2c-0.5,0.3-1,0.6-1.5,0.8c-5.3,2.8-10.3,3.9-13.5,4.4
		c-1.7,0-3.3,0-5,0c-1.2-1.8-2.9-5.1-3.6-9.6c-0.8-4.7,0-8.5,0.5-10.6c4.5,0.4,9.1,0.8,13.6,1.3c3.6-1.1,7.2-2.2,10.8-3.3l-22.3-5.1
		c-2.7-2-5.4-4.1-8.2-6.2c-1-1.3-2.9-4.3-3.5-8.6c-0.5-3.6,0.3-6.5,0.8-8c1.2-0.9,3.1-2,5.7-2.5c5.1-1,9.2,1,10.5,1.7
		c5.6,7.2,11.1,14.4,16.7,21.6c2.4-0.3,3.3-1.1,3.7-1.8c2-3.6-8.1-7.9-12.3-19.7c0,0-4-11-7.8-12.2c0,0-0.2,0-0.2-0.1
		c-0.2-0.6,5-3,9.8-3.6c2.1-0.3,5.7-0.5,10.3,1c2.9,8.7,5.7,17.4,8.6,26c1.4,2.5,2.9,4.9,4.3,7.4c1-1.6,1.9-3.2,2.9-4.8
		c-1.7-4.9-3.4-9.7-5.1-14.6l-2.7-12.8c1-0.3,4-1.1,7.7-0.4c0.8,0.1,1.6,0.4,2.4,0.7c4.9,1.8,7.3,5.5,7.9,6.6
		c0.5,5.2,0.7,11,0.5,17.4c-0.1,1.9-0.2,3.8-0.3,5.5c-0.2,2.4-0.4,4.7-0.7,6.9c1.2,1.2,2.5,2.4,3.7,3.6l1.6-6.8l3.8-15.5l-2.4-8.9
		c1.2-0.3,6.8-1.6,12,1.7c0.2,0.1,5.8,3.8,6.7,10c1.7,11.9-15.6,21.6-12.9,26.5c0.5,0.8,1.7,1.9,5.6,1.9c2-3.3,4-6.7,6-10
		c3.8-2.6,7.7-5.1,11.5-7.7c10.4,4.2,12.3,8.6,12.7,11C355.2,422.8,354.3,424,348.8,436.2z"/>
	<linearGradient id="SVGID_55_" gradientUnits="userSpaceOnUse" x1="328.8589" y1="523.4213" x2="429.3619" y2="462.4642">
		<stop  offset="0.3609" style="stop-color:#C89789"/>
		<stop  offset="1" style="stop-color:#3E2962"/>
	</linearGradient>
	<path class="st54" d="M397.2,484.1c15.1-6,27.1-10.4,37-13.6c-11.2,24.9-26.9,35.4-26.9,35.4c-5.8,3.8-16,9.6-30.8,12.5
		c-8.7,1.2-35.8,4-56-12.4c-1.9-1.5-3.5-3.1-5.1-4.7c15.7-3.3,26.7,2.1,53.8-6.3C377.4,492.5,377.3,492,397.2,484.1z"/>
	<linearGradient id="SVGID_56_" gradientUnits="userSpaceOnUse" x1="286.2971" y1="445.8576" x2="405.7496" y2="373.4073">
		<stop  offset="0.3609" style="stop-color:#C89789"/>
		<stop  offset="1" style="stop-color:#3E2962"/>
	</linearGradient>
	<path class="st55" d="M442.5,444.5c-0.2,0.7-0.3,1.4-0.5,2.2c-0.5,2.3-1.1,4.6-1.7,6.8c-0.1,0.4-0.2,0.8-0.3,1.1
		c-1.4,0.5-2.8,1-4.1,1.4c-27.1,9.5-41.6,14.5-51.2,16.5c-17.4,3.6-17.6,2-49.4,7.2c-9.2,1.5-16.8,2.8-23.1,3.9
		c-1,0.2-1.9,0.3-2.8,0.5c-0.2-5.7,1.4-9.3,3.2-11.7c5-6.6,14.9-8.1,15-14.1c0-2.1-1.1-4.3-2.7-5.6c-3.5-2.8-7.3-0.1-13-2.2
		c-0.6-0.2-6.2-2.3-8.5-7.7c-2.2-5.1-0.8-11.8,3.6-14.8c1.1-0.7,2.1-1.1,2.9-1.3c5.5-4.9,5.8-8.4,5.5-10.3c-0.3-2-1.5-3.5-3.6-5.3
		c-1.2-1-2.8-2.2-4.7-3.7c-0.9-0.7-1.9-1.5-3-2.4c-4.8-3.9-8.3-7.5-10.5-9.8c-2.9-5.9-2.7-12,0.6-15.9c0.7-0.9,1.6-1.5,2.4-2.1
		c2.5-1.6,5.2-2,6.3-2.2c10.8-1.5,19.4,7.9,21.1,6.3c1.2-1.1-2.1-5.9-5.8-11.3c-5.6-8-10.5-14.5-14.1-19.3
		c-3.6-5.6-4.1-11.9-1.1-16.2c2.3-3.3,6-4.3,7.8-4.9c8.4-2.5,16.4,1.6,19.8,3.4c5.3,2.8,8.6,6,11.4,8.8c9.2,9.3,10.3,16.2,17.5,17.8
		c1.1,0.2,3.8,0.8,5.5-0.5c2.8-2.2-0.2-6.9,2-10.2c2.9-4.3,13.8-4.9,21-0.3c6.4,4.1,9.4,12,8.8,18.6c-1,10.2-10.4,14.2-8.1,21.5
		c0.7,2.2,2.5,5,4.9,5.3c3.8,0.4,5.5-6.3,11.4-7.4c2.7-0.5,6.4,0.1,8.7,2.3c4,3.9,0.6,10.6-0.9,29.3c-0.5,6.2-0.5,10,1.1,10.6
		c2.4,0.8,4.8-7.1,11.1-8.1c2-0.3,4.2,0.1,6.3,1.1c2.6,1.2,5.1,3.2,7,5.7c1.4,1.7,2.5,3.6,3.3,5.5c0.1,0.3,0.2,0.5,0.3,0.8
		C443.6,438.6,442.9,442.6,442.5,444.5z"/>
	<linearGradient id="SVGID_57_" gradientUnits="userSpaceOnUse" x1="285.2412" y1="571.4903" x2="343.554" y2="571.4903">
		<stop  offset="1.396648e-02" style="stop-color:#2D6833"/>
		<stop  offset="0.9464" style="stop-color:#C6A251"/>
	</linearGradient>
	<path class="st56" d="M343.5,594.7c0,0.5-0.1,1-0.2,1.5c-0.3,1.9-0.8,3.6-1.5,5.1c-0.4,0.8-0.9,1.6-1.5,2.3
		c-0.1,0.2-0.3,0.3-0.4,0.5c-2.4,2.5-5.9,3.7-9.1,4.2c-0.6,0.1-1.3,0.2-1.9,0.3c-0.1,0-0.1,0-0.1,0c-0.8,0.1-1.5,0.1-2.3,0.1
		c-0.3,0-0.6,0-0.9,0h-0.1c-1.8,0-3.3-0.1-3.9-0.2c-4.8-0.4-8.9-1.9-12.1-3.7c-0.4-0.2-0.8-0.5-1.2-0.7c-0.5-0.3-1-0.6-1.5-0.9
		c-1.2-0.8-2.3-1.7-3.2-2.4c-0.7-0.6-1.3-1.1-1.8-1.6c-1.2-1-2.3-2.2-3.4-3.4c-2.1-2.5-4-5.2-5.5-8.1c-1.2-2.3-2.2-4.8-3.1-7.3
		c-0.9-2.5-1.6-5.1-2.2-7.7c-1.4-6.1-2-12.2-2.3-17.8c-0.2-4-0.2-7.7,0-10.9c0.1-2.9,0.3-5.4,0.5-7.1c0.1-1.4,0.3-2.4,0.3-2.7
		c7.2,0.9,19.9,3.5,31.7,12.7c3,2.3,5.8,5,8.4,7.8c5.7,6.3,10.4,13.7,13.4,20.9c1.5,3.6,2.7,7.2,3.3,10.6c0,0.3,0.1,0.5,0.1,0.8
		c0.1,0.3,0.1,0.6,0.2,0.9c0.1,0.4,0.1,0.8,0.2,1.3c0,0.4,0.1,0.8,0.1,1.2C343.6,591.9,343.6,593.3,343.5,594.7z"/>
	<linearGradient id="SVGID_58_" gradientUnits="userSpaceOnUse" x1="316.8484" y1="568.9531" x2="364.6472" y2="568.9531">
		<stop  offset="1.396648e-02" style="stop-color:#2D6833"/>
		<stop  offset="0.9464" style="stop-color:#C6A251"/>
	</linearGradient>
	<path class="st57" d="M364.6,574.9c0,0.6,0,1.2-0.1,1.8c-0.1,1.6-0.2,3.3-0.4,4.9c-0.3,2.3-0.6,4.7-1.1,6.9c0,0.1,0,0.3-0.1,0.4
		c-1.7,7.9-4.5,14.9-8.1,20c-3.7,0.1-7.2,0-11-0.2c-3.8-0.2-7.8-0.3-12.7-0.2c-0.7,0-1.5,0-2.3,0.1c-0.1,0-0.1,0-0.1,0
		c-0.8,0.1-1.5,0.1-2.3,0.1c0,0,0,0,0,0c0,0,0,0,0,0c-0.8-0.8-1.6-1.7-2.2-2.5h0c-1.4-1.8-2.5-3.6-3.4-5.4c-0.2-0.4-0.3-0.7-0.5-1.1
		c-0.4-0.9-0.8-1.8-1-2.6c-1-2.9-1.5-5.6-1.8-7.5c0-0.3-0.1-0.5-0.1-0.7c-1.8-11.7,2.8-23.7,8.9-33.8c8.5-14.1,19.9-24.6,21.1-25.8
		c4.4,4.8,11.4,13.6,15,26.2c0.4,1.3,0.7,2.6,1,4c0.2,0.8,0.3,1.6,0.4,2.4c0.2,1.3,0.4,2.7,0.6,4c0,0.3,0.1,0.6,0.1,0.9h0
		c0,0.4,0.1,0.7,0.1,1.1c0,0.7,0.1,1.3,0.1,2C364.7,571.3,364.7,573.1,364.6,574.9z"/>
	<linearGradient id="SVGID_59_" gradientUnits="userSpaceOnUse" x1="341.2848" y1="578.6282" x2="405.7347" y2="578.6282">
		<stop  offset="1.396648e-02" style="stop-color:#2D6833"/>
		<stop  offset="0.9464" style="stop-color:#C6A251"/>
	</linearGradient>
	<path class="st58" d="M400.5,582.2c-2.9,6.6-7.1,12.8-12,18.2c-3.1,1.4-6.2,2.6-9.4,3.6c-10.6,3.5-17.8,4.6-24.3,4.8
		c-3.7,0.1-7.2,0-11-0.2c-0.8-1.9-1.3-3.8-1.6-5.3c-0.2-0.8-0.3-1.5-0.4-2.1c-0.1-0.3-0.1-0.5-0.1-0.7c-0.2-1.5-0.4-2.9-0.4-4.3
		c0-0.9,0-1.8,0.1-2.7c0.1-0.8,0.2-1.5,0.3-2.2c0.1-0.4,0.1-0.8,0.2-1.2c0.1-0.6,0.2-1.2,0.4-1.7c0.1-0.4,0.2-0.8,0.3-1.1
		c0.1-0.4,0.2-0.8,0.3-1.1c0.5-1.6,1.1-3,1.7-4.3c0.5-1.1,1-2.1,1.4-2.9c0.2-0.4,0.4-0.7,0.6-1.1c2.2-3.9,5.2-7.4,8.6-10.4
		c0.9-0.8,1.9-1.6,2.9-2.3c1.8-1.3,3.7-2.6,5.6-3.7c1.3-0.8,2.6-1.5,4-2.2c3.2-1.6,6.4-3,9.6-4.2c0.6-0.2,1.1-0.4,1.7-0.6
		c13-4.6,24.8-6,26.3-6.2C406.1,555.6,406.6,568.5,400.5,582.2z"/>
	<g>
		<linearGradient id="SVGID_60_" gradientUnits="userSpaceOnUse" x1="301.5135" y1="607.8983" x2="331.14" y2="607.8983">
			<stop  offset="0.3609" style="stop-color:#C89789"/>
			<stop  offset="1" style="stop-color:#3E2962"/>
		</linearGradient>
		<path class="st59" d="M331.1,608.4c-0.7,0-1.5,0-2.3,0.1c-0.1,0-0.1,0-0.1,0c-0.8,0.1-1.5,0.1-2.3,0.1c-0.3,0-0.6,0-0.9,0h-0.1
			c-5.4,0.3-11.8,1-19.7,2.4c-1.4-0.5-2.6-1.3-3.5-2.3c-0.3-0.4-1.3-1.4-0.4-2.3c1.1-1.1,4.5-1.5,7.5-1.6c2.6-0.1,4.9,0,5.6,0
			c2.4,0.1,5.6,0.4,9.2,1.3h0c2.1,0.5,4.3,1.2,6.6,2.2C330.8,608.3,331,608.3,331.1,608.4z"/>
		
			<linearGradient id="SVGID_61_" gradientUnits="userSpaceOnUse" x1="574.794" y1="190.8025" x2="594.8664" y2="190.8025" gradientTransform="matrix(-0.4635 0.8212 -0.8084 -0.4563 764.9138 206.5948)">
			<stop  offset="0.3609" style="stop-color:#C89789"/>
			<stop  offset="1" style="stop-color:#3E2962"/>
		</linearGradient>
		<path class="st60" d="M355.1,597.6c0,0-18.9,11.6-28.8,5.5c-0.5-0.3-1.9-1.1-1.5-2.2c0.8-2.4,10-3.9,11.3-4.1
			C340.1,596.2,346.9,595.6,355.1,597.6z"/>
		
			<linearGradient id="SVGID_62_" gradientUnits="userSpaceOnUse" x1="569.1074" y1="-65.3759" x2="588.7049" y2="-65.3759" gradientTransform="matrix(-0.3853 0.6827 -0.5695 -0.3214 537.7742 174.5972)">
			<stop  offset="0.3609" style="stop-color:#C89789"/>
			<stop  offset="1" style="stop-color:#3E2962"/>
		</linearGradient>
		<path class="st61" d="M363.5,588.5c0,0-14.9,9.9-21.6,5.4c-0.3-0.2-1.3-0.8-0.9-1.7c0.8-1.9,7.7-3.5,8.7-3.7
			C352.6,587.9,357.6,587.2,363.5,588.5z"/>
		
			<linearGradient id="SVGID_63_" gradientUnits="userSpaceOnUse" x1="790.8008" y1="7.1941" x2="806.8295" y2="7.1941" gradientTransform="matrix(-0.129 0.7733 -0.645 -0.1076 466.6831 -35.7613)">
			<stop  offset="0.3609" style="stop-color:#C89789"/>
			<stop  offset="1" style="stop-color:#3E2962"/>
		</linearGradient>
		<path class="st62" d="M368.5,576.4c0,0-8.2,12.7-16.9,9.8c-0.4-0.1-1.6-0.5-1.8-1.4c-0.3-2,5.1-5,5.9-5.4
			C358.1,578.1,362.4,576.3,368.5,576.4z"/>
		
			<linearGradient id="SVGID_64_" gradientUnits="userSpaceOnUse" x1="679.5922" y1="-50.4154" x2="696.9124" y2="-50.4154" gradientTransform="matrix(-0.2366 0.7474 -0.6234 -0.1974 502.5419 45.5696)">
			<stop  offset="0.3609" style="stop-color:#C89789"/>
			<stop  offset="1" style="stop-color:#3E2962"/>
		</linearGradient>
		<path class="st63" d="M381.6,566.1c0,0-11.1,11.7-19.1,8.1c-0.4-0.2-1.5-0.7-1.5-1.5c0.1-2,6.3-4.4,7.2-4.8
			C370.8,566.9,375.5,565.5,381.6,566.1z"/>
		
			<linearGradient id="SVGID_65_" gradientUnits="userSpaceOnUse" x1="1164.5035" y1="497.0784" x2="1180.647" y2="497.0784" gradientTransform="matrix(0.4452 0.6453 -0.5382 0.3713 74.8808 -352.8695)">
			<stop  offset="0.3609" style="stop-color:#C89789"/>
			<stop  offset="1" style="stop-color:#3E2962"/>
		</linearGradient>
		<path class="st64" d="M330.4,580c0,0,8.7,13.3-0.3,14.8c-0.4,0.1-1.7,0.3-2.8-0.3c-2.5-1.4-2.1-6-2.1-6.7
			C325.4,585.8,326.2,582.6,330.4,580z"/>
		
			<linearGradient id="SVGID_66_" gradientUnits="userSpaceOnUse" x1="662.6168" y1="-61.1335" x2="679.9371" y2="-61.1335" gradientTransform="matrix(-0.2366 0.7474 -0.6234 -0.1974 502.5419 45.5696)">
			<stop  offset="0.3609" style="stop-color:#C89789"/>
			<stop  offset="1" style="stop-color:#3E2962"/>
		</linearGradient>
		<path class="st65" d="M392.3,555.5c0,0-11.1,11.7-19.1,8.1c-0.4-0.2-1.5-0.7-1.5-1.5c0.1-2,6.3-4.4,7.2-4.8
			C381.5,556.3,386.2,555,392.3,555.5z"/>
		
			<linearGradient id="SVGID_67_" gradientUnits="userSpaceOnUse" x1="644.5054" y1="-75.5601" x2="661.8257" y2="-75.5601" gradientTransform="matrix(-0.2366 0.7474 -0.6234 -0.1974 502.5419 45.5696)">
			<stop  offset="0.3609" style="stop-color:#C89789"/>
			<stop  offset="1" style="stop-color:#3E2962"/>
		</linearGradient>
		<path class="st66" d="M405.5,544.8c0,0-11.1,11.7-19.1,8.1c-0.4-0.2-1.5-0.7-1.5-1.5c0.1-2,6.3-4.4,7.2-4.8
			C394.8,545.6,399.4,544.3,405.5,544.8z"/>
		
			<linearGradient id="SVGID_68_" gradientUnits="userSpaceOnUse" x1="195.8237" y1="1617.1627" x2="213.7916" y2="1617.1627" gradientTransform="matrix(-0.634 0.4611 0.3846 0.5288 -116.318 -400.513)">
			<stop  offset="0.3609" style="stop-color:#C89789"/>
			<stop  offset="1" style="stop-color:#3E2962"/>
		</linearGradient>
		<path class="st67" d="M378.6,541c0,0-14.3,10.3-6.4,14c0.4,0.2,1.4,0.7,2.8,0.4c3-0.7,4.7-5.1,5-5.8
			C380.7,547.7,381.3,544.5,378.6,541z"/>
		
			<linearGradient id="SVGID_69_" gradientUnits="userSpaceOnUse" x1="217.3238" y1="1619.5975" x2="235.2916" y2="1619.5975" gradientTransform="matrix(-0.634 0.4611 0.3846 0.5288 -116.318 -400.513)">
			<stop  offset="0.3609" style="stop-color:#C89789"/>
			<stop  offset="1" style="stop-color:#3E2962"/>
		</linearGradient>
		<path class="st68" d="M365.9,552.2c0,0-14.3,10.3-6.4,14c0.4,0.2,1.4,0.7,2.8,0.4c3-0.7,4.7-5.1,5-5.8
			C368,558.9,368.6,555.7,365.9,552.2z"/>
		
			<linearGradient id="SVGID_70_" gradientUnits="userSpaceOnUse" x1="239.1612" y1="1623.2665" x2="257.1291" y2="1623.2665" gradientTransform="matrix(-0.634 0.4611 0.3846 0.5288 -116.318 -400.513)">
			<stop  offset="0.3609" style="stop-color:#C89789"/>
			<stop  offset="1" style="stop-color:#3E2962"/>
		</linearGradient>
		<path class="st69" d="M353.5,564.2c0,0-14.3,10.3-6.4,14c0.4,0.2,1.4,0.7,2.8,0.4c3-0.7,4.7-5.1,5-5.8
			C355.5,571,356.2,567.7,353.5,564.2z"/>
		
			<linearGradient id="SVGID_71_" gradientUnits="userSpaceOnUse" x1="457.3833" y1="1829.8651" x2="473.0333" y2="1829.8651" gradientTransform="matrix(-0.4299 0.5723 0.4387 0.3295 -261.8935 -287.505)">
			<stop  offset="0.3609" style="stop-color:#C89789"/>
			<stop  offset="1" style="stop-color:#3E2962"/>
		</linearGradient>
		<path class="st70" d="M340.4,574.4c0,0-8.1,11.4-0.3,13.2c0.4,0.1,1.4,0.4,2.4-0.2c2.2-1.1,2.1-5.2,2-5.9
			C344.5,579.7,343.8,576.9,340.4,574.4z"/>
		
			<linearGradient id="SVGID_72_" gradientUnits="userSpaceOnUse" x1="1413.4691" y1="610.931" x2="1427.6652" y2="610.931" gradientTransform="matrix(0.3193 0.4628 -0.7716 0.5324 332.8718 -387.0031)">
			<stop  offset="0.3609" style="stop-color:#C89789"/>
			<stop  offset="1" style="stop-color:#3E2962"/>
		</linearGradient>
		<path class="st71" d="M320.5,587.6c0,0,3.3,10.8-8.5,14.1c-0.6,0.2-2.2,0.6-3.2,0.3c-2.3-0.8,0.7-5.3,1.2-5.9
			C311.3,594.1,314.1,590.9,320.5,587.6z"/>
		
			<linearGradient id="SVGID_73_" gradientUnits="userSpaceOnUse" x1="1403.7196" y1="627.5822" x2="1417.9156" y2="627.5822" gradientTransform="matrix(0.3193 0.4628 -0.7716 0.5324 332.8718 -387.0031)">
			<stop  offset="0.3609" style="stop-color:#C89789"/>
			<stop  offset="1" style="stop-color:#3E2962"/>
		</linearGradient>
		<path class="st72" d="M304.5,592c0,0,3.3,10.8-8.5,14.1c-0.6,0.2-2.2,0.6-3.2,0.3c-2.3-0.8,0.7-5.3,1.2-5.9
			C295.3,598.5,298.1,595.3,304.5,592z"/>
		
			<linearGradient id="SVGID_74_" gradientUnits="userSpaceOnUse" x1="1518.8123" y1="334.8206" x2="1533.5944" y2="334.8206" gradientTransform="matrix(0.2841 0.4118 -0.5592 0.3858 145.9509 -217.1865)">
			<stop  offset="0.3609" style="stop-color:#C89789"/>
			<stop  offset="1" style="stop-color:#3E2962"/>
		</linearGradient>
		<path class="st73" d="M395.5,533.9c0,0,3.9,9.2-4.9,11.4c-0.4,0.1-1.6,0.4-2.4,0.1c-1.9-0.8-0.1-4.4,0.2-4.9
			C389.2,538.9,391,536.4,395.5,533.9z"/>
		
			<linearGradient id="SVGID_75_" gradientUnits="userSpaceOnUse" x1="171.1913" y1="1043.5194" x2="72.7505" y2="1043.5194" gradientTransform="matrix(0.3796 -0.9252 0.9252 0.3796 -673.5891 294.6821)">
			<stop  offset="0.3609" style="stop-color:#C89789"/>
			<stop  offset="1" style="stop-color:#3E2962"/>
		</linearGradient>
		<path class="st74" d="M287.1,610.2c1.4,0,3.5-0.2,5.9-0.7c6.2-1.4,6.2-3.7,12-4.9c3.2-0.7,4.6-0.2,8.6-1.3
			c1.4-0.4,1.7-0.6,4.5-1.6c3.8-1.4,7-2.4,9.8-3.3c5.9-1.9,6.6-1.9,8.2-2.9c1.9-1.2,1.4-1.5,3.9-3.7c3.3-2.8,4.5-2.6,6.8-4.9
			c1.6-1.6,1.1-1.9,3.1-4.5c1.6-2.1,2.9-3.1,4.4-4.7c1.8-1.8,4.1-4.3,6.5-7.8c2.2-1.2,5.4-3.2,8.2-6.1c2.4-2.5,1.8-2.7,4.2-4.8
			c2-1.8,3-2.2,9.1-6.7c1.2-0.9,1.7-1.3,2.4-1.9c2.1-1.8,3.5-3.5,4.4-4.6c-0.8,0.6-2.1,1.5-3.5,2.6c-3.7,3-4.3,4-7.2,6.1
			c-3.3,2.4-3.5,1.7-5.9,3.6c-3.1,2.5-2.9,3.8-5.6,6.3c-1.3,1.2-3.4,2.9-7,4.6c-2.3,3.5-4.6,6.1-6.4,7.9c-1.8,1.8-2.6,2.4-4.2,4.3
			c-3,3.4-2.4,3.9-4.5,5.6c-2.3,1.9-3.5,1.9-6.8,4.3c-1.8,1.3-3,2.5-3.8,3.3c-0.7,0.3-11.4,4.4-17.5,6.4c-1.5,0.5-3,0.9-4.7,1.3
			c-2.9,0.7-5.2,1.1-5.7,1.2C303.8,603.7,298.5,605.2,287.1,610.2z"/>
	</g>
	
		<linearGradient id="SVGID_76_" gradientUnits="userSpaceOnUse" x1="278.189" y1="357.2099" x2="336.3975" y2="323.6032" gradientTransform="matrix(-1.0059 -1.5704 -1.5588 0.9984 1313.2644 369.9895)">
		<stop  offset="0.3609" style="stop-color:#C89789"/>
		<stop  offset="1" style="stop-color:#4981BA"/>
	</linearGradient>
	<path class="st75" d="M496.6,178.1c-0.3-1.7-1.3-5.4-4.3-8.9c-2.5-2.9-5.4-4.4-6.9-5.1c-1.5,0.3-3.8,1-6.1,2.7
		c-4.4,3.3-5.8,8-6.1,9.5c1.7,9.5,3.4,19,5.1,28.6c-2,1.7-3.3,1.8-4,1.6c-4.3-1-0.4-12-6.7-23.8c0,0-5.9-11-4-14.9
		c0,0,0.1-0.2,0-0.3c-0.4-0.6-5.9,1.8-9.8,5.1c-1.8,1.5-4.5,4.2-6.6,8.9c4.8,8.5,9.6,16.9,14.4,25.4c0.9,2.9,1.9,5.8,2.8,8.7
		c-1.9-0.4-3.9-0.8-5.8-1.2c-2.6-4.8-5.2-9.7-7.8-14.5l-8.2-11.3c-1.2,0.7-5,3.2-7,8.2c-2,5.1-0.8,9.7-0.4,11
		c3.8,4.1,8.2,8.5,13.4,12.8c3.6,3.1,7.2,5.8,10.5,8.1c0.1,1.8,0.1,3.6,0.2,5.5l-21.4-11.6l-5.3-8.2c-1.1,0.7-6.1,4.2-7.2,10.7
		c-0.1,0.3-1.2,7.3,3.1,12.5c8.2,9.9,28.2,3.1,30.2,8.8c0.3,1,0.3,2.7-2.5,5.8c-4.1-0.8-8.1-1.6-12.2-2.4c-4.8,1.2-9.5,2.4-14.3,3.6
		c-4.1,11.2-2,15.9-0.3,17.9c1.6,2,3.3,2.1,16.8,6.4c8.1,2.6,9.8,3.3,11.4,4.1c5.5,2.7,9.5,5.9,12,8.2c3.8-1.1,7.6-2.3,11.4-3.4
		l13.2-1.5c7.2-1.1,14.4-2.1,21.6-3.2c0.5-0.2,4.3-1.4,6-5.5c1.8-4.4-0.4-8.2-0.7-8.6c-5.7,0.1-11.3,0.1-17,0.2c0,0-18.4-6.2-18-7.5
		c0-0.1,0.2-0.2,0.2-0.2c2.9-0.9,15-0.3,19.3-0.5c0.1,0,15.5-3.6,15.3-3.5l0,0c2.7-2.2,2.6-3.8,2.6-4.2c-0.3-2.8-5.2-5.4-12.5-5.5
		c-8.2-1.3-16.4-2.6-24.6-3.9c6.5-2,12.9-4,19.4-6c5.4,1.8,10.9,3.6,16.3,5.4c0.3-2.1,0.6-7.6-2.5-13.3c-1.9-3.6-4.5-5.8-6.1-7
		c-3.8,0.3-8.6,1.1-14,2.9c-6,2-10.7,4.7-14,6.9c-1.2-2.7-2.4-5.4-3.6-8.2c3.4,0.2,7.7,0,12.7-1.1c8.9-2.1,15.2-6.3,18.7-9.2
		c1.2-1.3,2.4-2.7,3.5-4c-0.6-2.2-2-6-5-9.7c-3.2-3.9-6.7-6.1-8.8-7.2c-2.9,3.9-5.8,7.8-8.7,11.6c-3.4,2.1-6.9,4.2-10.3,6.2l12-21.2
		C496,185.3,496.3,181.7,496.6,178.1z"/>
	<g>
		<linearGradient id="SVGID_77_" gradientUnits="userSpaceOnUse" x1="169.1023" y1="557.835" x2="180.1647" y2="557.835">
			<stop  offset="0" style="stop-color:#4981BA"/>
			<stop  offset="0.4592" style="stop-color:#C498BD"/>
		</linearGradient>
		<path class="st76" d="M180.1,562.4c0,1.1-0.1,5.5-0.7,9.8c-0.3,2-0.6,3.9-1.1,5.6c-1.8,0.8-3.7,1.5-5.6,2.2
			c-2.1-2.3-3.1-5.8-3.5-9.7c-0.3-3.3-0.1-6.9,0.3-10.6c0.7-5.7,2.1-11.4,3.3-15.8v0c0.2-0.6,0.3-1.2,0.5-1.8
			c1.2-3.9,2.1-6.5,2.1-6.5c2.1,4.9,3.3,9.8,3.9,14.1C180.1,554.8,180.2,559.1,180.1,562.4z"/>
		
			<linearGradient id="SVGID_78_" gradientUnits="userSpaceOnUse" x1="502.888" y1="620.7247" x2="532.2049" y2="620.7247" gradientTransform="matrix(-0.8511 0.4059 0.3996 0.8378 382.4212 -203.1789)">
			<stop  offset="0" style="stop-color:#4981BA"/>
			<stop  offset="0.4592" style="stop-color:#C498BD"/>
		</linearGradient>
		<path class="st77" d="M194.7,504.7c0,0-18.7,26.4-10.9,41.4c0.4,0.7,1.4,2.8,3,2.4c3.6-0.9,6.7-14.1,7.1-16.1
			C195.2,526.6,196.8,516.8,194.7,504.7z"/>
		
			<linearGradient id="SVGID_79_" gradientUnits="userSpaceOnUse" x1="475.5373" y1="540.4576" x2="504.1606" y2="540.4576" gradientTransform="matrix(-0.7076 0.3375 0.2815 0.5902 398.7188 25.6237)">
			<stop  offset="0" style="stop-color:#4981BA"/>
			<stop  offset="0.4592" style="stop-color:#C498BD"/>
		</linearGradient>
		<path class="st78" d="M208.8,493.3c0,0-15.9,20.7-10.1,31c0.3,0.5,1.1,2,2.4,1.5c2.9-1,5.8-10.8,6.2-12.3
			C208.6,509.3,210.1,502,208.8,493.3z"/>
		
			<linearGradient id="SVGID_80_" gradientUnits="userSpaceOnUse" x1="524.5183" y1="536.3176" x2="547.9292" y2="536.3176" gradientTransform="matrix(-0.7803 7.548311e-02 6.296063e-02 0.6509 603.6889 111.0163)">
			<stop  offset="0" style="stop-color:#4981BA"/>
			<stop  offset="0.4592" style="stop-color:#C498BD"/>
		</linearGradient>
		<path class="st79" d="M227,487.3c0,0-19.4,10.6-16,23.6c0.2,0.6,0.6,2.4,1.9,2.7c2.9,0.7,7.8-7,8.5-8.1
			C223.4,502.1,226.4,496.1,227,487.3z"/>
		
			<linearGradient id="SVGID_81_" gradientUnits="userSpaceOnUse" x1="469.3659" y1="512.0612" x2="494.6632" y2="512.0612" gradientTransform="matrix(-0.7619 0.1847 0.154 0.6355 525.0172 69.6479)">
			<stop  offset="0" style="stop-color:#4981BA"/>
			<stop  offset="0.4592" style="stop-color:#C498BD"/>
		</linearGradient>
		<path class="st80" d="M243.3,469.2c0,0-18.2,14.9-13.8,27c0.2,0.6,0.8,2.3,2.1,2.3c3,0,7.1-8.7,7.7-10
			C241,484.8,243.5,478.1,243.3,469.2z"/>
		
			<linearGradient id="SVGID_82_" gradientUnits="userSpaceOnUse" x1="658.7267" y1="678.3098" x2="682.3051" y2="678.3098" gradientTransform="matrix(-0.6131 -0.4885 -0.4075 0.5114 893.0951 523.7036)">
			<stop  offset="0" style="stop-color:#4981BA"/>
			<stop  offset="0.4592" style="stop-color:#C498BD"/>
		</linearGradient>
		<path class="st81" d="M217.9,542.4c0,0-18.5-14.1-21.7-1c-0.2,0.6-0.6,2.4,0.2,4.1c1.8,3.8,8.6,3.7,9.6,3.7
			C208.9,549.1,213.6,548.2,217.9,542.4z"/>
		
			<linearGradient id="SVGID_83_" gradientUnits="userSpaceOnUse" x1="444.5724" y1="496.4068" x2="469.8697" y2="496.4068" gradientTransform="matrix(-0.7619 0.1847 0.154 0.6355 525.0172 69.6479)">
			<stop  offset="0" style="stop-color:#4981BA"/>
			<stop  offset="0.4592" style="stop-color:#C498BD"/>
		</linearGradient>
		<path class="st82" d="M259.7,454.7c0,0-18.2,14.9-13.8,27c0.2,0.6,0.8,2.3,2.1,2.3c3,0,7.1-8.7,7.7-10
			C257.5,470.2,259.9,463.6,259.7,454.7z"/>
		
			<linearGradient id="SVGID_84_" gradientUnits="userSpaceOnUse" x1="418.1198" y1="475.3358" x2="443.417" y2="475.3358" gradientTransform="matrix(-0.7619 0.1847 0.154 0.6355 525.0172 69.6479)">
			<stop  offset="0" style="stop-color:#4981BA"/>
			<stop  offset="0.4592" style="stop-color:#C498BD"/>
		</linearGradient>
		<path class="st83" d="M276.6,436.4c0,0-18.2,14.9-13.8,27c0.2,0.6,0.8,2.3,2.1,2.3c3,0,7.1-8.7,7.7-10
			C274.4,452,276.8,445.3,276.6,436.4z"/>
		
			<linearGradient id="SVGID_85_" gradientUnits="userSpaceOnUse" x1="294.7063" y1="1007.8201" x2="320.9493" y2="1007.8201" gradientTransform="matrix(-0.5036 0.6008 -0.5011 -0.4201 927.4736 717.7267)">
			<stop  offset="0" style="stop-color:#4981BA"/>
			<stop  offset="0.4592" style="stop-color:#C498BD"/>
		</linearGradient>
		<path class="st84" d="M279.5,476c0,0-16.4,19.7-21.1,8c-0.2-0.6-0.9-2.2-0.3-4.1c1.3-4.3,7.9-6.4,8.9-6.7
			C269.9,472.4,274.7,471.8,279.5,476z"/>
		
			<linearGradient id="SVGID_86_" gradientUnits="userSpaceOnUse" x1="326.1084" y1="1011.3762" x2="352.3514" y2="1011.3762" gradientTransform="matrix(-0.5036 0.6008 -0.5011 -0.4201 927.4736 717.7267)">
			<stop  offset="0" style="stop-color:#4981BA"/>
			<stop  offset="0.4592" style="stop-color:#C498BD"/>
		</linearGradient>
		<path class="st85" d="M261.9,493.4c0,0-16.4,19.7-21.1,8c-0.2-0.6-0.9-2.2-0.3-4.1c1.3-4.3,7.9-6.4,8.9-6.7
			C252.3,489.7,257.1,489.2,261.9,493.4z"/>
		
			<linearGradient id="SVGID_87_" gradientUnits="userSpaceOnUse" x1="358.0032" y1="1016.7348" x2="384.2462" y2="1016.7348" gradientTransform="matrix(-0.5036 0.6008 -0.5011 -0.4201 927.4736 717.7267)">
			<stop  offset="0" style="stop-color:#4981BA"/>
			<stop  offset="0.4592" style="stop-color:#C498BD"/>
		</linearGradient>
		<path class="st86" d="M243.2,510.3c0,0-16.4,19.7-21.1,8c-0.2-0.6-0.9-2.2-0.3-4.1c1.3-4.3,7.9-6.4,8.9-6.7
			C233.6,506.7,238.3,506.1,243.2,510.3z"/>
		
			<linearGradient id="SVGID_88_" gradientUnits="userSpaceOnUse" x1="428.6106" y1="1085.5392" x2="451.4683" y2="1085.5392" gradientTransform="matrix(-0.6006 0.3895 -0.2986 -0.4604 804.7197 855.1839)">
			<stop  offset="0" style="stop-color:#4981BA"/>
			<stop  offset="0.4592" style="stop-color:#C498BD"/>
		</linearGradient>
		<path class="st87" d="M227.1,528.4c0,0-17.4,10.6-19.2-0.9c-0.1-0.5-0.4-2.1,0.5-3.5c1.9-3.1,7.9-2.5,8.7-2.4
			C219.6,521.9,223.7,523.1,227.1,528.4z"/>
		
			<linearGradient id="SVGID_89_" gradientUnits="userSpaceOnUse" x1="708.5807" y1="745.1722" x2="729.3149" y2="745.1722" gradientTransform="matrix(-0.4398 -0.3504 -0.5842 0.7331 944.8942 268.6716)">
			<stop  offset="0" style="stop-color:#4981BA"/>
			<stop  offset="0.4592" style="stop-color:#C498BD"/>
		</linearGradient>
		<path class="st88" d="M205.8,556.1c0,0-15.4-5.8-21.3,11c-0.3,0.8-1.1,3.1-0.7,4.6c1,3.4,7.7-0.6,8.7-1.1
			C195.4,568.9,200.3,565.1,205.8,556.1z"/>
		<linearGradient id="SVGID_90_" gradientUnits="userSpaceOnUse" x1="175.6475" y1="593.957" x2="181.5378" y2="593.957">
			<stop  offset="0" style="stop-color:#4981BA"/>
			<stop  offset="0.4592" style="stop-color:#C498BD"/>
		</linearGradient>
		<path class="st89" d="M181.4,595c-2.3,1-5,1.6-5.6-0.4c-0.2-0.6-0.1-1.5,0-2.3c2.9-0.5,4.8-0.3,5.5,1
			C181.6,593.8,181.6,594.3,181.4,595z"/>
		
			<linearGradient id="SVGID_91_" gradientUnits="userSpaceOnUse" x1="725.2272" y1="455.6905" x2="746.8174" y2="455.6905" gradientTransform="matrix(-0.3913 -0.3117 -0.4234 0.5313 762.6221 443.4685)">
			<stop  offset="0" style="stop-color:#4981BA"/>
			<stop  offset="0.4592" style="stop-color:#C498BD"/>
		</linearGradient>
		<path class="st90" d="M291.6,452.1c0,0-13-6.6-17.1,5.9c-0.2,0.6-0.8,2.3-0.4,3.6c1,2.8,6.4,0.6,7.2,0.2
			C283.6,460.8,287.5,458.5,291.6,452.1z"/>
		<linearGradient id="SVGID_92_" gradientUnits="userSpaceOnUse" x1="174.51" y1="597.45" x2="169.53" y2="597.45">
			<stop  offset="0" style="stop-color:#4981BA"/>
			<stop  offset="0.4592" style="stop-color:#C498BD"/>
		</linearGradient>
		<path class="st91" d="M171.4,593.2c1.1-0.3,2.2-0.5,3.1-0.7c-1.4,2.9-3,6.1-5,9.9c0.2-2,0.6-5.1,1.7-8.5
			C171.3,593.7,171.3,593.5,171.4,593.2z"/>
		<linearGradient id="SVGID_93_" gradientUnits="userSpaceOnUse" x1="273.84" y1="518.76" x2="179.42" y2="518.76">
			<stop  offset="0" style="stop-color:#4981BA"/>
			<stop  offset="0.4592" style="stop-color:#C498BD"/>
		</linearGradient>
		<path class="st92" d="M273.8,460.2c-0.5,0.6-1.2,1.4-2,2.4c-0.6,0.8-1.3,1.6-2.1,2.5c-4.7,5.2-6.3,5.9-9.6,9.8
			c-3.8,4.5-2.8,5-5.9,8.3c-3.9,4.3-5.8,3.8-9.8,7.5c-1.9,1.8-4.6,4.7-7.3,9.7c-1,0.5-1.9,1.1-2.8,1.7c-3.9,2.5-7,4.9-9.3,6.8
			c-2.8,2.4-3.7,3.4-6.5,5.6c-0.1,0.1-0.2,0.1-0.3,0.2c-3.7,2.8-5.1,3.2-6.6,4.1c-0.6,0.4-1.3,1-2.1,1.8c-3,3.1-3.1,4.9-6.9,9.5
			c-2.1,2.5-4,4.1-5.2,5.2c-0.4,0.9-5.2,11.2-8.9,19.6c-0.8,1.9-1.5,3.6-2.2,5.2c-0.9,2.1-1.6,4.2-2.4,6.7c-1,3-1.6,5.5-2,6.9
			c-0.2,0.6-0.3,1-0.3,1.3c-0.1,0.5-0.3,1-0.5,1.7c-0.6,0.3-1.2,0.5-1.8,0.8c0-0.2,0.1-0.3,0.1-0.5c0.5-1.6,0.7-2.9,0.9-4.2
			c0.4-2.3,0.6-4.5,1.9-8.2c0.7-2,1-2.4,2.8-6.4c0.6-1.3,1.2-2.6,1.7-3.9c1.6-3.8,2.9-7.1,4.2-10.1c3.4-8.5,3.5-9.5,5.1-11.6
			c2-2.7,2.4-1.8,5.8-5.3c4.5-4.5,4.3-6.4,7.9-9.4c0.4-0.3,0.7-0.5,1-0.8c1.8-1.2,2.5-1,5.9-3.3c1.1-0.7,2-1.4,2.8-2.1c0,0,0,0,0,0
			c1.6-1.3,2.8-2.5,4.4-3.9c2.5-2.2,6-5,10.5-7.8c0.5-0.3,1-0.6,1.5-0.9c2-3.1,5.2-7.5,9.7-11.4c3.8-3.3,4.1-2.3,7.5-5.6
			c2.8-2.7,3.5-4.2,10.6-12.6c1.4-1.6,2.1-2.4,3-3.3c1.7-1.8,3.3-3.1,4.7-4.2C272.3,461.3,273.2,460.7,273.8,460.2z"/>
	</g>
	
		<linearGradient id="SVGID_94_" gradientUnits="userSpaceOnUse" x1="389.29" y1="421.0383" x2="450.71" y2="421.0383" gradientTransform="matrix(0.7183 0.1853 -0.1923 0.7455 213.1286 141.402)">
		<stop  offset="0" style="stop-color:#865CA0"/>
		<stop  offset="0.2687" style="stop-color:#8B56A3"/>
		<stop  offset="1" style="stop-color:#1F958C;stop-opacity:0.4"/>
	</linearGradient>
	<path class="st93" d="M418.4,502.5c5.1,1.6,14,5.3,21.4,13.4c12.7,13.9,17.2,36.8,8.9,43.1c-4.6,3.5-12.6,1.3-14.3,0.9
		c-7.2-2-11.2-6.9-13.2-9.4C408.1,534.5,417.7,504.4,418.4,502.5z"/>
	
		<linearGradient id="SVGID_95_" gradientUnits="userSpaceOnUse" x1="401.3926" y1="401.3391" x2="462.8126" y2="401.3391" gradientTransform="matrix(0.4254 0.1097 -0.1903 0.738 347.1198 179.3499)">
		<stop  offset="0" style="stop-color:#865CA0"/>
		<stop  offset="0.2687" style="stop-color:#8B56A3"/>
		<stop  offset="1" style="stop-color:#1F958C;stop-opacity:0.4"/>
	</linearGradient>
	<path class="st94" d="M447.9,494.9c3,1.1,8.1,3.7,11.9,10.9c6.5,12.2,7.1,33.8,1.3,40.7c-3.2,3.9-7.9,2.5-8.9,2.2
		c-4.2-1.2-6.3-5.6-7.3-7.8C438.5,526.8,447.3,496.9,447.9,494.9z"/>
</g>
<g id="Layer_3">
	<g>
		<g>
			<g>
				<defs>
					<path id="SVGID_96_" d="M189.4,336.7c-0.6-15.6-10.4-26.6-19.7-27.1c-4.4-0.2-10.7,1.8-15.3,6.4c-2.3,2.2-3.6,4.5-4.3,6.1
						c-8.3,6.6-16.7,13.3-25,19.9c9.5-4.1,19.1-8.2,28.6-12.3c1.6,3.7,3.2,7.3,4.9,11c-0.4,2.8-1,7.2-1.4,12.5
						c-1.4,16.9-2.3,28.3,2.7,37.8c5.2,10,12.2,9.2,17.2,16.1c6.2,8.7,6.9,26.7-18.6,67.7l26.3-39.8l-19.1,46.2l25.3-39.8
						l-11.5,41.4l17.6-41.6v41.6l10-33.2L209,484l7.1-29.9l7.4,29.9l2.3-35.5l11.7,32.9c0,0,1.3-48.8-10.7-69.4
						s-10.5-22.4-10.5-22.4l57.4-14.1l-48-1.3l56.4-18.4l-47.5,3.9c18.9-8.3,37.8-16.6,56.7-24.9c-15.2,1.5-30.5,3.1-45.7,4.6
						l47.7-27.6c-20,7.7-40,15.5-60,23.2c2.5-2.5,4.9-4.9,7.4-7.4c2.6-4.7,5.3-9.4,7.9-14l-28.6,25.5l27.8-38l-38,30.4l28.1-42.1
						l-41.9,41.9l20.9-49L189.4,336.7z"/>
				</defs>
				<clipPath id="SVGID_97_">
					<use xlink:href="#SVGID_96_"  style="overflow:visible;"/>
				</clipPath>
				<g class="st95">
				</g>
			</g>
		</g>
		<g>
			<g>
				<defs>
					<path id="SVGID_100_" d="M300.5,231.7l-39.8,36.5l41.6-20.8c2.4,1.5,5.7,4.1,8.3,8.2c3,4.7,1.8,6.2,5.1,10.8
						c2,2.7,4.8,6.7,9.9,8.9c2.2,0.9,3.7,1,4.3,2.3c1,2.3-2.2,5.9-4.5,8.1c-4.9,5-8.2,11.3-13.1,16.2c-5.1,5.1-12,13.5-19.2,27.7
						c12.1-9.8,24.2-19.5,36.3-29.3c-5.9,17.4-11.8,34.9-17.7,52.3c9.9-15.6,19.7-31.3,29.6-46.9c-4.2,14.7-8.3,29.3-12.5,44
						c8.8-13.8,17.5-27.7,26.3-41.5c-3.4,19-6.7,38.1-10.1,57.1l27.9-64.4c3.2,2.8,7.7,6.2,13.7,9.1c6.1,3,11.6,4.6,15.8,5.4
						c18.1,16.2,36.3,32.3,54.4,48.5c-10.4-16-20.8-32.1-31.2-48.1c5.7,5,13,10.5,22,15.8c8.5,5,16.6,8.5,23.4,11
						c-11.7-11.4-23.3-22.8-35-34.2c17.7,5.5,35.5,11,53.2,16.5c-17.5-9.5-35-19-52.6-28.4c19.5,4.2,39,8.4,58.5,12.6
						c-16.6-7-33.2-14-49.8-21c18.3,3.7,36.6,7.4,54.9,11.1c-17.6-6.9-35.3-13.9-52.9-20.8c-9.5-3.2-18.9-6.4-28.4-9.5
						c-7.1-10.3-14.7-17.2-20.2-21.6c-5.5-4.4-17-13.3-34.5-17.7c-6.5-1.6-12-2.1-16-2.3c-0.1-2-0.7-6.1-3.6-9.7
						c-4.3-5.4-10.7-6.2-14.1-6.6c-1.2-0.2-7-0.8-13.9,1.8c-2.6,1-10.6,4.1-14.4,12.2C301.1,227.5,300.7,229.9,300.5,231.7z"/>
				</defs>
				<clipPath id="SVGID_98_">
					<use xlink:href="#SVGID_100_"  style="overflow:visible;"/>
				</clipPath>
				<g class="st96">
				</g>
			</g>
		</g>
	</g>
</g>
</svg>
