<?xml version="1.0" encoding="utf-8"?>
<!-- Generator: Adobe Illustrator 23.1.0, SVG Export Plug-In . SVG Version: 6.00 Build 0)  -->
<svg version="1.1" xmlns="http://www.w3.org/2000/svg" xmlns:xlink="http://www.w3.org/1999/xlink" x="0px" y="0px"
	 viewBox="0 0 612 792" style="enable-background:new 0 0 612 792;" xml:space="preserve">
<style type="text/css">
	.st0{fill:url(#SVGID_1_);}
	.st1{fill:#7F657F;}
	.st2{fill:url(#SVGID_2_);}
	.st3{fill:url(#SVGID_3_);}
	.st4{fill:url(#SVGID_4_);}
	.st5{fill:url(#SVGID_5_);}
	.st6{fill:url(#SVGID_6_);}
	.st7{fill:url(#SVGID_7_);}
	.st8{fill:url(#SVGID_8_);}
	.st9{fill:url(#SVGID_9_);}
	.st10{fill:url(#SVGID_10_);}
	.st11{fill:url(#SVGID_11_);}
	.st12{fill:url(#SVGID_12_);}
	.st13{fill:url(#SVGID_13_);}
	.st14{fill:url(#SVGID_14_);}
	.st15{fill:url(#SVGID_15_);}
	.st16{fill:url(#SVGID_16_);}
	.st17{fill:url(#SVGID_17_);}
	.st18{fill:url(#SVGID_18_);}
	.st19{fill:url(#SVGID_19_);}
	.st20{fill:url(#SVGID_20_);}
	.st21{fill:url(#SVGID_21_);}
	.st22{fill:url(#SVGID_22_);}
	.st23{fill:url(#SVGID_23_);}
	.st24{fill:url(#SVGID_24_);}
	.st25{fill:url(#SVGID_25_);}
	.st26{fill:url(#SVGID_26_);}
	.st27{fill:url(#SVGID_27_);}
	.st28{fill:url(#SVGID_28_);}
	.st29{fill:url(#SVGID_29_);}
	.st30{fill:url(#SVGID_30_);}
	.st31{fill:url(#SVGID_31_);}
	.st32{fill:url(#SVGID_32_);}
	.st33{fill:url(#SVGID_33_);}
	.st34{fill:url(#SVGID_34_);}
	.st35{fill:url(#SVGID_35_);}
	.st36{fill:url(#SVGID_36_);}
	.st37{fill:url(#SVGID_37_);}
	.st38{fill:url(#SVGID_38_);}
	.st39{fill:url(#SVGID_39_);}
	.st40{fill:url(#SVGID_40_);}
	.st41{fill:url(#SVGID_41_);}
	.st42{fill:url(#SVGID_42_);}
	.st43{fill:url(#SVGID_43_);}
	.st44{fill:url(#SVGID_44_);}
	.st45{fill:url(#SVGID_45_);}
	.st46{fill:url(#SVGID_46_);}
	.st47{fill:url(#SVGID_47_);}
	.st48{fill:url(#SVGID_48_);}
	.st49{fill:url(#SVGID_49_);}
	.st50{fill:url(#SVGID_50_);}
	.st51{fill:url(#SVGID_51_);}
	.st52{fill:url(#SVGID_52_);}
	.st53{fill:url(#SVGID_53_);}
	.st54{fill:url(#SVGID_54_);}
	.st55{fill:url(#SVGID_55_);}
	.st56{fill:url(#SVGID_56_);}
	.st57{fill:url(#SVGID_57_);}
	.st58{fill:url(#SVGID_58_);}
	.st59{fill:url(#SVGID_59_);}
	.st60{fill:url(#SVGID_60_);}
	.st61{fill:url(#SVGID_61_);}
	.st62{fill:url(#SVGID_62_);}
	.st63{fill:url(#SVGID_63_);}
	.st64{fill:url(#SVGID_64_);}
	.st65{fill:#FFFFFF;}
	.st66{fill:#C498BD;}
	.st67{opacity:0.2;fill:#C498BD;}
	.st68{fill:url(#SVGID_65_);}
	.st69{fill:url(#SVGID_66_);}
	.st70{fill:url(#SVGID_67_);}
	.st71{fill:url(#SVGID_68_);}
	.st72{fill:url(#SVGID_69_);}
	.st73{fill:url(#SVGID_70_);}
	.st74{fill:url(#SVGID_71_);}
	.st75{fill:url(#SVGID_72_);}
	.st76{fill:url(#SVGID_73_);}
	.st77{fill:url(#SVGID_74_);}
	.st78{fill:url(#SVGID_75_);}
	.st79{fill:url(#SVGID_76_);}
	.st80{fill:url(#SVGID_77_);}
	.st81{fill:url(#SVGID_78_);}
	.st82{fill:url(#SVGID_79_);}
	.st83{fill:url(#SVGID_80_);}
	.st84{fill:url(#SVGID_81_);}
	.st85{fill:url(#SVGID_82_);}
	.st86{fill:url(#SVGID_83_);}
	.st87{fill:url(#SVGID_84_);}
</style>
<g id="Back">
	<radialGradient id="SVGID_1_" cx="311.6661" cy="434.7469" r="202.4974" gradientUnits="userSpaceOnUse">
		<stop  offset="0" style="stop-color:#C498BD"/>
		<stop  offset="1" style="stop-color:#49384A"/>
	</radialGradient>
	<path class="st0" d="M522.6,411.6c0,0.3,0,0.6,0,0.9c-0.8,12.9-16.4,22.1-27,25.5c-16.3,5.2-23.7-2.2-30.6,4.1
		c-5.8,5.3-3.5,13.3-4.6,39.3c-0.5,11-1.4,20-2,25.9c0.3,7.3,0.2,17.9-2.2,30.3c-3.2,16.8-8.3,43.7-30,59.2
		c-18.5,13.3-40.8,12.2-49.5,11.7c-3.3-0.2-6.1-0.5-8.7-0.9c-3.9-0.7-7.4-1.7-11.8-2.7c-2-0.5-4.3-1-6.8-1.6
		c-3.5-0.7-7.7-1.5-12.9-2.2c-1.2-0.2-2.4-0.3-3.7-0.5c-1.6-0.2-3.3-0.4-5-0.6c-1.5-0.2-3-0.3-4.4-0.4c-1.4-0.1-2.8-0.2-4.2-0.3
		c-3.8-0.2-7.4-0.2-11.1,0.1c-0.3,0-0.7,0.1-1,0.1c-3.5,0.4-7,1.1-10.7,2.3c-7.2,2.3-9.5,4.6-18.7,9.7c0,0-0.1,0-0.1,0.1
		c-16.3,9.1-28.3,15.8-41.7,16.7c-15.6,1.1-28.6-5.9-35.4-10.5c-2.3-1.5-3.8-2.7-4.6-3.3c-1.7-1.4-3.4-2.8-4.9-4.3
		c-2-1.9-3.9-4-5.6-6.1c-3.9-4.7-7.2-9.8-10.1-14.7v0c-0.4-0.7-0.8-1.4-1.2-2c-2.3-4.2-4.3-8.2-6.1-11.9c-0.4-0.8-0.7-1.5-1-2.2
		c-0.1-0.1-0.1-0.3-0.2-0.4c-3.2-6.8-5-11.7-6.9-15.4v0c-0.6-1.2-1.2-2.3-1.9-3.2v0c-1.4-2-3.1-3.6-5.6-4.7c-1.2-0.6-2.4-1-3.6-1.2
		c-6.4-1.3-12.5,1.7-24.4-1.8c-4.7-1.4-9.8-2.9-14.5-7.3c-7.6-7.2-11.5-19.7-7.7-30.1c2.2-6,6.2-9.3,13-14.8
		c4.2-3.4,11.1-9,21.3-11.1c7.6-1.6,8.2,0.6,14.5-0.7c7.2-1.5,14.2-6.1,18.9-11.4c4.3-4.9,6.7-10.5,5.5-14.8
		c-0.3-1.3-1.1-2.9-6.4-6.7c-0.8-0.6-1.7-1.2-2.7-1.8c-16.3-10.8-22.3-9.1-27.6-15.1c-3.1-3.5-2.3-5.5-3.8-32.7
		c-1.5-26.9-2.6-31.3-6.3-35.6c-4.7-5.4-9.3-5.9-12.9-13.1c-0.5-1-3.7-7.6-2.5-15.8c1.4-9.8,8.2-15.7,20.1-25.9
		c5.6-4.7,13.8-11.2,24.8-17.5c1-4.8,3-12.2,7.7-20.3c0.4-0.7,0.8-1.4,1.2-2.1c4.1-7,7.9-12.9,15-15.8c9.5-3.8,19.2-0.1,24.6,1.9
		c4.7,1.8,7.1,3.6,9.4,5.2c1.3,0.9,2.5,1.8,4,2.7c1,0.6,2.2,1.1,3.7,1.6c11,3.9,20.5-0.1,27.8-1.8c8.8-2.1,21.2-2.6,38.2,3.5
		c4.7,1.7,9.8,3.9,15.3,6.6c11.1,6,20.1,8.6,27.2,9.2c3.3,0.3,6.3,0.2,8.9-0.3c0.8-0.1,1.6-0.3,2.4-0.5c1.7-0.4,3.3-1,4.7-1.6
		c4.5-1.9,7-4.3,10.1-7.7c3.8-4,8.3-9.3,18.2-16.6c10.4-7.7,17.8-13,28.9-14.6c2.2-0.3,21.9-3,29.8,7.5c2,2.7,1,3.3,4.9,11.7
		c3.5,7.5,5.7,12.3,9.5,15.8c3,2.7,5.5,3.5,19.2,6.6c22,5,25.4,5.4,29.1,8.8c3,2.9,6.5,8.2,6.9,18.9c0.1,2.7,0,7-1.9,11.6
		c-4.6,11.4-14.6,12-18.3,20.9c-3.7,9,1.9,19.3,5.6,26.2c0,0,3.6,6.6,24,26.2C514.5,396,522.6,402.5,522.6,411.6z"/>
	<path class="st1" d="M646.7,503.9"/>
	<linearGradient id="SVGID_2_" gradientUnits="userSpaceOnUse" x1="106.7534" y1="552.1422" x2="145.9886" y2="620.0995">
		<stop  offset="6.766293e-07" style="stop-color:#644E65"/>
		<stop  offset="1" style="stop-color:#312232"/>
	</linearGradient>
	<path class="st2" d="M167.5,603.7c0,0-0.3,2.3-2.5,4.7c-2.2,2.4-5.1,3.7-7.8,4.4c-2.3,0.6-4.4,0.8-6,0.9
		c-8.8,0.6-20.4,1.5-34.3,2.4c-0.7,0.1-1.5,0.1-2.2,0.1c-3.7-1.8-9-4.8-14.3-10c-4.6-4.4-9.3-9-11-16.3c-1.9-8.3,1.2-15.4,3.3-20.2
		c4-8.9,10.1-14.6,14-17.6c2.6,0,6.4,0.2,10.8,1.3c8.3,2,12.3,5.5,21.1,10.7c13,7.5,15.4,6.4,19.2,9.4c0.4,0.3,0.8,0.7,1.3,1.1
		c1.5,1.5,3,3.3,4.4,5.8c1.2,2.2,2.2,4.8,2.9,8c0.2,0.9,0.4,1.8,0.5,2.8C167.5,594.8,167.7,598.9,167.5,603.7z"/>
	<linearGradient id="SVGID_3_" gradientUnits="userSpaceOnUse" x1="295.1981" y1="607.0172" x2="304.9087" y2="623.8364">
		<stop  offset="6.766293e-07" style="stop-color:#644E65"/>
		<stop  offset="1" style="stop-color:#312232"/>
	</linearGradient>
	<path class="st3" d="M324,604.7c-0.2,0.8-0.7,2.2-1.8,3.5c-0.1,0.1-0.1,0.2-0.2,0.3c-0.9,1.1-2,1.7-3,2.2c-1.4,0.6-2.7,0.8-3.2,0.9
		c-1.3,0.3-3.2,1-5.2,2.4c-3,2.2-3.9,4.5-5.1,6.8c-0.4,0.9-0.9,1.8-1.6,2.6c-6.4,8-22.2,5.3-28.3,1.5c-3.3-2,2-5.5,9.6-10.7
		c2.9-2,6.1-4.2,9.3-6.7c2.5-2,5.4-3.2,8.3-3.9c1.4-0.4,2.8-0.6,4.2-0.7c4.8-0.5,9.3,0.1,12.5,0.7c1.2,0.2,2.3,0.5,3,0.7
		C323.5,604.6,324,604.7,324,604.7z"/>
	<linearGradient id="SVGID_4_" gradientUnits="userSpaceOnUse" x1="330.0275" y1="606.0117" x2="343.903" y2="630.0448">
		<stop  offset="6.766293e-07" style="stop-color:#644E65"/>
		<stop  offset="1" style="stop-color:#312232"/>
	</linearGradient>
	<path class="st4" d="M351.8,624.3c-4.6,1-15.3-1.6-15.3-1.6s-4.3,2.1-10.9,2.3c-4.7,0.1-8.2-1.4-10.9-3c-1.2-0.7-2.2-1.4-3.1-2.1
		c-3-2.2,3.2-5.1,3.2-5.1l3.6-1.2l3.8-1.3l3.7-1.3c0,0,3.4-2.7,6.6-4.9c1.6-1.1,3.2-2.1,4.4-2.5c0.2-0.1,0.3-0.1,0.5-0.2
		c2.9-0.7,9.4,1.1,12.2,2c0.8,0.3,1.4,0.4,1.4,0.4s3.2,2.1,6.3,3.3c0.1,0,0.2,0.1,0.3,0.1c2,0.8,2.7,3,3.1,5.2
		c0.2,1.3,0.3,2.6,0.5,3.5C361.5,620.4,356.5,623.3,351.8,624.3z"/>
	<linearGradient id="SVGID_5_" gradientUnits="userSpaceOnUse" x1="116.6738" y1="497.0032" x2="116.6738" y2="465.4255">
		<stop  offset="6.766293e-07" style="stop-color:#644E65"/>
		<stop  offset="1" style="stop-color:#312232"/>
	</linearGradient>
	<path class="st5" d="M132.2,465.4l-11.2,6.1c0,0-5.4-3.7-12.6,1.4s-12.3,12.8-12.3,12.8l-2,6.1c0,0,1.5,8.5,9.4,3.7
		s13.4-14.3,13.4-14.3l15.3-5.2c0,0,10.2-4.8,6.1-7.1C134.2,466.4,132.2,465.4,132.2,465.4z"/>
	<linearGradient id="SVGID_6_" gradientUnits="userSpaceOnUse" x1="130.8082" y1="462.0848" x2="130.8082" y2="431.2463">
		<stop  offset="6.766293e-07" style="stop-color:#644E65"/>
		<stop  offset="1" style="stop-color:#312232"/>
	</linearGradient>
	<path class="st6" d="M138,457.6c0.7-3.6,0.9-3.7,1.1-4.9c0.3-1.9,1.2-7.6-1.7-11.3c-1.8-2.2-2.9-1.3-5.2-3.9
		c-2.7-3.1-2.5-6.1-4-6.3c-1.5-0.2-3,2.5-3.8,4c-1.7,3-2.1,5.9-2.2,7.7c0,1.7,0.2,4.8,1.7,8.2c3.3,7.3,11,12.2,13.1,10.7
		C137.4,461.5,137.3,461.2,138,457.6z"/>
	<linearGradient id="SVGID_7_" gradientUnits="userSpaceOnUse" x1="464.0827" y1="505.1823" x2="493.5819" y2="505.1823">
		<stop  offset="6.766293e-07" style="stop-color:#644E65"/>
		<stop  offset="1" style="stop-color:#312232"/>
	</linearGradient>
	<path class="st7" d="M483.6,481.9c-2.1,1.6-0.1,5.1-2.3,10.9c-0.9,2.3-1.8,4.7-4.1,6c-2.6,1.5-4.8,0.5-7.1,2.4
		c-1.3,1.1-2,2.5-2.3,3.6c-1.7,5.7-6.1,21.9-1.9,24.1c5.2,2.7,20.6-17.5,23-20.7c5.4-11.6,6.4-21.7,2-25.3
		C488.9,481.4,485.4,480.5,483.6,481.9z"/>
	<linearGradient id="SVGID_8_" gradientUnits="userSpaceOnUse" x1="464.0827" y1="471.2019" x2="506.8422" y2="471.2019">
		<stop  offset="6.766293e-07" style="stop-color:#644E65"/>
		<stop  offset="1" style="stop-color:#312232"/>
	</linearGradient>
	<path class="st8" d="M465.9,497.8c1,0.3,2.2-0.9,3.4-2.2c7.8-8.6,7.3-13.7,12-18.7c5-5.3,7.9-1.8,17.3-9.2c7.2-5.6,8-9.6,8.2-10.9
		c0.1-0.5,0.8-6.1-2.7-9.7c-4.4-4.4-12.2-2.3-18.9-0.5c-5.6,1.5-12.5,3.3-16.3,9.4c-1.5,2.4-2,4.9-3.1,9.9
		c-0.4,1.7-1.1,5.5-1.4,13.9C464,489.9,463.7,497.1,465.9,497.8z"/>
	<linearGradient id="SVGID_9_" gradientUnits="userSpaceOnUse" x1="137.8841" y1="306.0909" x2="137.8841" y2="267.8874">
		<stop  offset="6.766293e-07" style="stop-color:#644E65"/>
		<stop  offset="1" style="stop-color:#312232"/>
	</linearGradient>
	<path class="st9" d="M140.3,268.1c7.9-0.8,19.1,0.3,19.7,3.9c0.6,3.3-8.4,5.1-20.1,15.1C127.2,298,125.2,307,121.4,306
		c-5.2-1.3-9.2-19.2-1-29.5C125.9,269.7,134.8,268.7,140.3,268.1z"/>
	<linearGradient id="SVGID_10_" gradientUnits="userSpaceOnUse" x1="240.4424" y1="274.3023" x2="240.4424" y2="184.0632">
		<stop  offset="6.766293e-07" style="stop-color:#644E65"/>
		<stop  offset="1" style="stop-color:#312232"/>
	</linearGradient>
	<path class="st10" d="M344.1,265.3c-2.4,7.1-14.7,8.7-16.3,8.9c-3.2,0.4-9,0.6-18.9-4.1c-1-0.5-2-1-2.9-1.4
		c-10.6-5.6-12.8-10.9-17.5-14.7c-1.6-1.3-3.4-2.3-6-3.2c-0.1-0.1-0.3-0.1-0.4-0.1c-0.2-0.1-0.4-0.1-0.6-0.2
		c-0.3-0.1-0.5-0.1-0.8-0.2c-2.7-0.4-8.4,0.4-36.9,5.2c-15.7,2.7-17.8,3.1-21.4,1.8c-1.6-0.6-3-1.3-4.3-2.1c-1.4-0.9-2.7-2-3.8-3.1
		c-4.8-4.8-7.6-10.6-14.9-12.1c-4.8-1-8.7,0.6-16.5,3.8c-5.8,2.4-9.9,5.2-16.1,9c-3.8,2.4-8.4,5.2-14.7,8.6c-3.8,2.1-6.6,3.5-9,2.4
		c-1.6-0.8-2.8-2.5-5.3-16.4c-1.8-9.8-1.5-11-1.3-12c2.3-7.9,12.5-11.1,15.6-12c0,0,15.3-13.5,17.1-22.2c3.7-18,31.5-6.8,34.5-6.1
		c14.6,6.7,24.9,6,31.6,4.1c12.5-3.5,14.3-11.8,27.9-14.3c9-1.6,22.3-0.7,27.3,6.9c3.2,4.9,0.4,8.5,4.3,13.8c4,5.3,8.9,4.5,15.3,8.4
		c6.4,3.9,6.9,8,14.3,19.9C337.7,255,346.3,258.7,344.1,265.3z"/>
</g>
<g id="leaves">
	<linearGradient id="SVGID_11_" gradientUnits="userSpaceOnUse" x1="216.7191" y1="306.2107" x2="287.5712" y2="263.293">
		<stop  offset="0.4832" style="stop-color:#119A89"/>
		<stop  offset="0.9615" style="stop-color:#224193"/>
	</linearGradient>
	<path class="st11" d="M289.8,266.9c0,0.6-0.1,1.1-0.3,1.7c-1,3.6-4.3,5.4-4.6,5.5c-3.4,1.7-6,0.3-7.9,2.4c-0.9,0.9-1.4,2.4-1.2,3.8
		c0.6,3.8,6.8,4.1,10.4,7.9c1.6,1.7,3,4.4,3,9.4c0,1.9-0.2,4.1-0.8,6.7c-1.2,2-2.6,4-4.4,5.9c-0.3,0.3-0.5,0.5-0.8,0.8
		c-1.3,1.3-2.7,2.4-4.1,3.5h0c-3.3,2.3-6.7,4-10.1,5.2c-7.9,2.7-15.5,2.8-18.8,2.7c-9.4-0.7-16.2-3.6-20.1-5.6
		c0,0-11.4-5.9-20.5-22.2c-2.3-4.1-4.5-8.9-6.3-14.4c-0.4-1.2-1.2-4-0.4-7.2c1.1-4.6,5.3-9.2,9.3-9c1.7,0.1,3.1,1,4.2,2
		c1.5,1.3,2.5,2.7,3.3,2.3c0.7-0.4,0.7-2,0.2-4.6c1,0.6,2.2,1.1,3.7,1.6c11,3.9,20.5-0.1,27.8-1.8
		C260.3,261.3,272.7,260.8,289.8,266.9z"/>
	<linearGradient id="SVGID_12_" gradientUnits="userSpaceOnUse" x1="218.0959" y1="255.0042" x2="288.7888" y2="212.1829">
		<stop  offset="0.4832" style="stop-color:#119A89"/>
		<stop  offset="0.9615" style="stop-color:#224193"/>
	</linearGradient>
	<path class="st12" d="M292.5,233.5c0,1.3-0.2,2.7-0.7,4c-1.2,1.6-3.1,4.2-5.8,7c-2.3,2.5-3.9,4-5,5.3c-0.1,0.1-0.2,0.3-0.3,0.4
		c-2.7-0.4-8.4,0.4-36.9,5.2c-15.7,2.7-17.8,3.1-21.4,1.8c-1.6-0.6-3-1.3-4.3-2.1c-1.8-7.2-3.2-10.2-1.4-12.4
		c1.2-1.6,3.5-2.2,5.2-2.1c3.8,0.3,5.3,4.4,7.7,3.9c1.4-0.4,2.4-2.3,2.6-3.8c0.9-4.9-5.3-6.7-6.8-13.1c-0.9-4.1,0.3-9.4,4-12.5
		c4.1-3.5,10.9-3.9,13-1.4c1.6,1.9,0.1,5.2,2.1,6.3c1.2,0.8,2.8,0.2,3.5-0.1c4.3-1.6,4.4-6.1,9.4-12.7c1.5-2,3.3-4.3,6.4-6.5
		c2-1.4,6.6-4.6,12-3.7c1.2,0.2,3.6,0.6,5.3,2.5c2.2,2.5,2.4,6.5,0.6,10.4c-1.9,3.3-4.4,7.9-7.2,13.4c-1.9,3.7-3.5,7-2.7,7.6
		c1.2,0.9,5.8-5.7,12.6-5.6c0.9,0,3.7,0.1,5.8,2C291.7,228.9,292.5,231.1,292.5,233.5z"/>
	
		<linearGradient id="SVGID_13_" gradientUnits="userSpaceOnUse" x1="371.088" y1="327.6237" x2="456.3595" y2="275.9716" gradientTransform="matrix(1.3874 0.5904 0.7122 -1.6737 -572.4407 767.3586)">
		<stop  offset="0.4832" style="stop-color:#119A89"/>
		<stop  offset="0.9615" style="stop-color:#224193"/>
	</linearGradient>
	<path class="st13" d="M272.1,559.6c4.3-6.2,17-26.1,14.2-47.6c-0.4-3.4-1.2-6.5-2.2-9.3c-7.4-8.9-13.1-9.8-16.9-9
		c-6.3,1.4-11.3,8.5-15.3,6.4c-1.4-0.7-2.4-2.5-2.6-4.1c-0.5-3.7,2.8-5.7,3.7-10.8c0.1-0.5,0.9-5.6-1.7-9.3
		c-2.5-3.5-7.5-4.9-11.2-2.6c-0.9,0.6-1.6,1.2-2,1.8c-5.5,2.4-7.9,1.4-9,0.5c-2.3-1.8-2-5.3-3-12.9c-0.7-5.1-1.6-9.1-2.2-11.7
		c-2.7-4.4-6.9-6.5-10.8-5.4c-3.4,1-5.6,4.1-6.3,5.2c-5.3,7.8-2.5,17.8-4.3,18.6c-1.2,0.5-3.1-3.7-5.1-8.6c-3-7.2-5.4-13.4-7.1-17.9
		c-2.3-4.9-6.2-7.5-10.2-6.8c-3.1,0.6-5.2,3-6.4,4.2c-5,5.6-5.5,13.2-5.7,16.5c-0.3,5.1,0.5,8.8,1.3,12c2.4,10.5,6.6,13.8,4.8,20
		c-0.3,0.9-1,3.2-2.6,4.1c-2.6,1.4-4.5-2.7-7.5-2.2c-4,0.6-8.7,8.8-8.6,16c0.1,6.4,4.2,11.7,8.8,13.6c7.1,3,13.6-2.8,17.5,1.6
		c1.2,1.3,2.3,3.8,1.5,5.7c-1.2,3.1-6.4,1.9-9.5,6.1c-1.4,1.9-2.5,5-1.9,7.5c1,4.5,6.8,4.4,19.8,10.1c4.3,1.9,6.8,3.3,6.6,4.7
		c-0.4,2.1-6.6,1.1-9.8,5.6c-3.2,4.5-2,12.7,1.4,17.3c2.4,3.2,5.7,4.3,7.1,4.7c32.5,9.3,54.8-4.6,54.8-4.6
		C256.4,575.7,264.3,570,272.1,559.6z"/>
	
		<linearGradient id="SVGID_14_" gradientUnits="userSpaceOnUse" x1="404.9345" y1="462.8515" x2="490.2061" y2="411.1994" gradientTransform="matrix(0.6603 0.9178 1.0871 -0.7821 -359.5031 245.4333)">
		<stop  offset="0.4832" style="stop-color:#119A89"/>
		<stop  offset="0.9615" style="stop-color:#224193"/>
	</linearGradient>
	<path class="st14" d="M426.4,369.9c5.1-2.3,20.7-9.9,27.1-24.6c1-2.3,1.7-4.6,2.1-6.8c-1.3-8.6-4.6-11.4-7.4-12.3
		c-4.6-1.6-10.4,1-12.2-2c-0.6-1-0.6-2.5-0.1-3.7c1.1-2.5,3.9-2.5,6.5-5.4c0.2-0.3,2.7-3.2,2.4-6.6c-0.3-3.2-2.9-6.1-6.2-6.1
		c-0.8,0-1.5,0.2-2,0.3c-4.4-0.6-5.5-2.2-5.9-3.2c-0.8-2,0.8-4.1,3-9.3c1.5-3.5,2.4-6.4,3-8.3c-0.1-3.8-1.9-6.8-4.9-7.6
		c-2.5-0.7-5.1,0.4-6,0.8c-6.3,2.9-8.4,10.3-9.8,10.1c-0.9-0.2-0.5-3.6,0-7.5c0.8-5.8,1.6-10.6,2.2-14.2c0.4-4-1.1-7.2-4-8.3
		c-2.2-0.8-4.5-0.1-5.7,0.2c-5.3,1.6-8.5,6.2-9.9,8.2c-2.1,3.1-3,5.8-3.7,8.1c-2.4,7.6-1,11.4-4.5,14.5c-0.5,0.5-1.8,1.7-3.2,1.6
		c-2.2-0.2-1.8-3.5-4-4.3c-2.8-1.2-8.9,2.2-11.5,6.8c-2.4,4.1-1.8,9,0.4,12c3.4,4.7,9.7,3.5,10.5,7.9c0.2,1.3,0,3.3-1.2,4.2
		c-2,1.5-4.8-1.3-8.3,0.1c-1.6,0.6-3.5,2.2-4.1,4c-1.1,3.2,2.7,5.4,8.8,14.1c2,2.9,3.1,4.8,2.4,5.6c-1.1,1.2-4.6-1.9-8.3-0.3
		c-3.7,1.6-6.1,7.3-5.6,11.5c0.3,3,2,4.9,2.8,5.7c17.2,18.6,36.6,18.6,36.6,18.6C410.3,373.9,417.5,373.4,426.4,369.9z"/>
	
		<linearGradient id="SVGID_15_" gradientUnits="userSpaceOnUse" x1="514.2137" y1="362.8055" x2="549.5696" y2="341.3891" gradientTransform="matrix(-0.637 1.3666 1.6486 0.7684 160.798 -542.3231)">
		<stop  offset="0" style="stop-color:#A1B03A"/>
		<stop  offset="0.9464" style="stop-color:#1F5F1D"/>
	</linearGradient>
	<path class="st15" d="M379.7,477.4c2.5,1.9,10.6,7.4,19.5,6.6c1.4-0.1,2.7-0.4,3.9-0.8c3.8-2.9,4.3-5.3,4-6.9
		c-0.5-2.6-3.4-4.8-2.4-6.4c0.3-0.6,1.1-1,1.8-1c1.5-0.2,2.3,1.3,4.4,1.7c0.2,0,2.3,0.5,3.9-0.6c1.5-1,2.1-3.1,1.2-4.6
		c-0.2-0.4-0.5-0.7-0.7-0.9c-0.9-2.3-0.5-3.3-0.1-3.7c0.8-0.9,2.2-0.7,5.4-1.1c2.1-0.2,3.8-0.5,4.9-0.8c1.9-1.1,2.8-2.8,2.4-4.4
		c-0.4-1.4-1.6-2.4-2.1-2.7c-3.2-2.3-7.4-1.3-7.6-2c-0.2-0.5,1.6-1.2,3.6-2c3-1.2,5.6-2.1,7.5-2.7c2-0.9,3.2-2.5,3-4.2
		c-0.2-1.3-1.2-2.2-1.7-2.7c-2.2-2.2-5.4-2.5-6.8-2.6c-2.1-0.2-3.7,0.1-5,0.4c-4.4,0.9-5.8,2.5-8.3,1.7c-0.4-0.1-1.3-0.4-1.7-1.1
		c-0.5-1.1,1.2-1.8,1-3.1c-0.2-1.7-3.5-3.7-6.5-3.8c-2.7,0-4.9,1.6-5.7,3.4c-1.3,2.9,1,5.7-0.9,7.2c-0.6,0.5-1.6,0.9-2.4,0.6
		c-1.3-0.6-0.7-2.7-2.4-4c-0.8-0.6-2-1.1-3.1-0.9c-1.9,0.4-1.9,2.7-4.4,8.1c-0.8,1.8-1.5,2.8-2,2.7c-0.9-0.2-0.4-2.8-2.2-4.1
		c-1.8-1.4-5.2-1-7.2,0.4c-1.4,1-1.8,2.3-2,2.9c-4.3,13.3,1.1,22.8,1.1,22.8C373.2,470.7,375.5,474,379.7,477.4z"/>
</g>
<g id="Layer_5">
	<g>
		
			<linearGradient id="SVGID_16_" gradientUnits="userSpaceOnUse" x1="256.4911" y1="767.053" x2="291.1207" y2="767.053" gradientTransform="matrix(-0.6808 0.6524 0.6422 0.6702 104.9145 -203.8687)">
			<stop  offset="0" style="stop-color:#865CA0"/>
			<stop  offset="0.2687" style="stop-color:#8B56A3"/>
			<stop  offset="1" style="stop-color:#1F958C;stop-opacity:0.4"/>
		</linearGradient>
		<path class="st16" d="M411.2,465.4c0,0-12.7,34.5-2.3,44.8c0.5,0.5,1.9,2,3.3,0.8c3.2-2.7,3.6-16.8,3.6-18.9
			C416.1,486,415.6,475.9,411.2,465.4z"/>
		
			<linearGradient id="SVGID_17_" gradientUnits="userSpaceOnUse" x1="245.1252" y1="661.7271" x2="274.4421" y2="661.7271" gradientTransform="matrix(-0.8511 0.4059 0.3996 0.8378 382.4212 -203.1789)">
			<stop  offset="0" style="stop-color:#865CA0"/>
			<stop  offset="0.2687" style="stop-color:#8B56A3"/>
			<stop  offset="1" style="stop-color:#1F958C;stop-opacity:0.4"/>
		</linearGradient>
		<path class="st17" d="M430.4,434.4c0,0-18.7,26.4-10.9,41.4c0.4,0.7,1.4,2.8,3,2.4c3.6-0.9,6.7-14.1,7.1-16.1
			C431,456.4,432.5,446.5,430.4,434.4z"/>
		
			<linearGradient id="SVGID_18_" gradientUnits="userSpaceOnUse" x1="165.5026" y1="598.6618" x2="194.1259" y2="598.6618" gradientTransform="matrix(-0.7076 0.3375 0.2815 0.5902 398.7188 25.6237)">
			<stop  offset="0" style="stop-color:#865CA0"/>
			<stop  offset="0.2687" style="stop-color:#8B56A3"/>
			<stop  offset="1" style="stop-color:#1F958C;stop-opacity:0.4"/>
		</linearGradient>
		<path class="st18" d="M444.5,423.1c0,0-15.9,20.7-10.1,31c0.3,0.5,1.1,2,2.4,1.5c2.9-1,5.8-10.8,6.2-12.3
			C444.3,439,445.9,431.7,444.5,423.1z"/>
		
			<linearGradient id="SVGID_19_" gradientUnits="userSpaceOnUse" x1="216.5473" y1="464.0615" x2="239.9583" y2="464.0615" gradientTransform="matrix(-0.7803 7.548311e-02 6.296063e-02 0.6509 603.6889 111.0163)">
			<stop  offset="0" style="stop-color:#865CA0"/>
			<stop  offset="0.2687" style="stop-color:#8B56A3"/>
			<stop  offset="1" style="stop-color:#1F958C;stop-opacity:0.4"/>
		</linearGradient>
		<path class="st19" d="M462.7,417c0,0-19.4,10.6-16,23.6c0.2,0.6,0.6,2.4,1.9,2.7c2.9,0.7,7.8-7,8.5-8.1
			C459.2,431.9,462.2,425.9,462.7,417z"/>
		
			<linearGradient id="SVGID_20_" gradientUnits="userSpaceOnUse" x1="155.9756" y1="492.547" x2="181.2728" y2="492.547" gradientTransform="matrix(-0.7619 0.1847 0.154 0.6355 525.0172 69.6479)">
			<stop  offset="0" style="stop-color:#865CA0"/>
			<stop  offset="0.2687" style="stop-color:#8B56A3"/>
			<stop  offset="1" style="stop-color:#1F958C;stop-opacity:0.4"/>
		</linearGradient>
		<path class="st20" d="M479,399c0,0-18.2,14.9-13.8,27c0.2,0.6,0.8,2.3,2.1,2.3c3,0,7.1-8.7,7.7-10
			C476.8,414.5,479.2,407.9,479,399z"/>
		
			<linearGradient id="SVGID_21_" gradientUnits="userSpaceOnUse" x1="479.3842" y1="369.5746" x2="502.9626" y2="369.5746" gradientTransform="matrix(-0.6131 -0.4885 -0.4075 0.5114 893.0951 523.7036)">
			<stop  offset="0" style="stop-color:#865CA0"/>
			<stop  offset="0.2687" style="stop-color:#8B56A3"/>
			<stop  offset="1" style="stop-color:#1F958C;stop-opacity:0.4"/>
		</linearGradient>
		<path class="st21" d="M453.6,472.2c0,0-18.5-14.1-21.7-1c-0.2,0.6-0.6,2.4,0.2,4.1c1.8,3.8,8.6,3.7,9.6,3.7
			C444.7,478.8,449.4,477.9,453.6,472.2z"/>
		
			<linearGradient id="SVGID_22_" gradientUnits="userSpaceOnUse" x1="131.1821" y1="476.8925" x2="156.4793" y2="476.8925" gradientTransform="matrix(-0.7619 0.1847 0.154 0.6355 525.0172 69.6479)">
			<stop  offset="0" style="stop-color:#865CA0"/>
			<stop  offset="0.2687" style="stop-color:#8B56A3"/>
			<stop  offset="1" style="stop-color:#1F958C;stop-opacity:0.4"/>
		</linearGradient>
		<path class="st22" d="M495.5,384.4c0,0-18.2,14.9-13.8,27c0.2,0.6,0.8,2.3,2.1,2.3c3,0,7.1-8.7,7.7-10
			C493.3,400,495.7,393.3,495.5,384.4z"/>
		
			<linearGradient id="SVGID_23_" gradientUnits="userSpaceOnUse" x1="104.7294" y1="455.8216" x2="130.0267" y2="455.8216" gradientTransform="matrix(-0.7619 0.1847 0.154 0.6355 525.0172 69.6479)">
			<stop  offset="0" style="stop-color:#865CA0"/>
			<stop  offset="0.2687" style="stop-color:#8B56A3"/>
			<stop  offset="1" style="stop-color:#1F958C;stop-opacity:0.4"/>
		</linearGradient>
		<path class="st23" d="M512.4,366.2c0,0-18.2,14.9-13.8,27c0.2,0.6,0.8,2.3,2.1,2.3c3,0,7.1-8.7,7.7-10
			C510.2,381.7,512.6,375.1,512.4,366.2z"/>
		
			<linearGradient id="SVGID_24_" gradientUnits="userSpaceOnUse" x1="32.8108" y1="800.5491" x2="59.0538" y2="800.5491" gradientTransform="matrix(-0.5036 0.6008 -0.5011 -0.4201 927.4736 717.7267)">
			<stop  offset="0" style="stop-color:#865CA0"/>
			<stop  offset="0.2687" style="stop-color:#8B56A3"/>
			<stop  offset="1" style="stop-color:#1F958C;stop-opacity:0.4"/>
		</linearGradient>
		<path class="st24" d="M515.3,405.8c0,0-16.4,19.7-21.1,8c-0.2-0.6-0.9-2.2-0.3-4.1c1.3-4.3,7.9-6.4,8.9-6.7
			C505.7,402.1,510.4,401.5,515.3,405.8z"/>
		
			<linearGradient id="SVGID_25_" gradientUnits="userSpaceOnUse" x1="64.2129" y1="804.1053" x2="90.4559" y2="804.1053" gradientTransform="matrix(-0.5036 0.6008 -0.5011 -0.4201 927.4736 717.7267)">
			<stop  offset="0" style="stop-color:#865CA0"/>
			<stop  offset="0.2687" style="stop-color:#8B56A3"/>
			<stop  offset="1" style="stop-color:#1F958C;stop-opacity:0.4"/>
		</linearGradient>
		<path class="st25" d="M497.7,423.1c0,0-16.4,19.7-21.1,8c-0.2-0.6-0.9-2.2-0.3-4.1c1.3-4.3,7.9-6.4,8.9-6.7
			C488.1,419.5,492.8,418.9,497.7,423.1z"/>
		
			<linearGradient id="SVGID_26_" gradientUnits="userSpaceOnUse" x1="96.1077" y1="809.4639" x2="122.3507" y2="809.4639" gradientTransform="matrix(-0.5036 0.6008 -0.5011 -0.4201 927.4736 717.7267)">
			<stop  offset="0" style="stop-color:#865CA0"/>
			<stop  offset="0.2687" style="stop-color:#8B56A3"/>
			<stop  offset="1" style="stop-color:#1F958C;stop-opacity:0.4"/>
		</linearGradient>
		<path class="st26" d="M478.9,440.1c0,0-16.4,19.7-21.1,8c-0.2-0.6-0.9-2.2-0.3-4.1c1.3-4.3,7.9-6.4,8.9-6.7
			C469.3,436.4,474.1,435.8,478.9,440.1z"/>
		
			<linearGradient id="SVGID_27_" gradientUnits="userSpaceOnUse" x1="98.8594" y1="959.1813" x2="121.7171" y2="959.1813" gradientTransform="matrix(-0.6006 0.3895 -0.2986 -0.4604 804.7197 855.1839)">
			<stop  offset="0" style="stop-color:#865CA0"/>
			<stop  offset="0.2687" style="stop-color:#8B56A3"/>
			<stop  offset="1" style="stop-color:#1F958C;stop-opacity:0.4"/>
		</linearGradient>
		<path class="st27" d="M462.8,458.1c0,0-17.4,10.6-19.2-0.9c-0.1-0.5-0.4-2.1,0.5-3.5c1.9-3.1,7.9-2.5,8.7-2.4
			C455.4,451.6,459.5,452.8,462.8,458.1z"/>
		
			<linearGradient id="SVGID_28_" gradientUnits="userSpaceOnUse" x1="458.5473" y1="529.813" x2="479.2814" y2="529.813" gradientTransform="matrix(-0.4398 -0.3504 -0.5842 0.7331 944.8942 268.6716)">
			<stop  offset="0" style="stop-color:#865CA0"/>
			<stop  offset="0.2687" style="stop-color:#8B56A3"/>
			<stop  offset="1" style="stop-color:#1F958C;stop-opacity:0.4"/>
		</linearGradient>
		<path class="st28" d="M441.5,485.8c0,0-15.4-5.8-21.3,11c-0.3,0.8-1.1,3.1-0.7,4.6c1,3.4,7.7-0.6,8.7-1.1
			C431.2,498.6,436.1,494.8,441.5,485.8z"/>
		
			<linearGradient id="SVGID_29_" gradientUnits="userSpaceOnUse" x1="444.3076" y1="554.133" x2="465.0417" y2="554.133" gradientTransform="matrix(-0.4398 -0.3504 -0.5842 0.7331 944.8942 268.6716)">
			<stop  offset="0" style="stop-color:#865CA0"/>
			<stop  offset="0.2687" style="stop-color:#8B56A3"/>
			<stop  offset="1" style="stop-color:#1F958C;stop-opacity:0.4"/>
		</linearGradient>
		<path class="st29" d="M433.6,508.6c0,0-15.4-5.8-21.3,11c-0.3,0.8-1.1,3.1-0.7,4.6c1,3.4,7.7-0.6,8.7-1.1
			C423.2,521.4,428.1,517.6,433.6,508.6z"/>
		
			<linearGradient id="SVGID_30_" gradientUnits="userSpaceOnUse" x1="444.1817" y1="158.5304" x2="465.7719" y2="158.5304" gradientTransform="matrix(-0.3913 -0.3117 -0.4234 0.5313 762.6221 443.4685)">
			<stop  offset="0" style="stop-color:#865CA0"/>
			<stop  offset="0.2687" style="stop-color:#8B56A3"/>
			<stop  offset="1" style="stop-color:#1F958C;stop-opacity:0.4"/>
		</linearGradient>
		<path class="st30" d="M527.3,381.8c0,0-13-6.6-17.1,5.9c-0.2,0.6-0.8,2.3-0.4,3.6c1,2.8,6.4,0.6,7.2,0.2
			C519.4,390.6,523.3,388.2,527.3,381.8z"/>
		
			<linearGradient id="SVGID_31_" gradientUnits="userSpaceOnUse" x1="561.3478" y1="643.4014" x2="417.5692" y2="643.4014" gradientTransform="matrix(0.9491 -0.315 -0.315 -0.9491 195.5922 1225.8574)">
			<stop  offset="0" style="stop-color:#865CA0"/>
			<stop  offset="0.2687" style="stop-color:#8B56A3"/>
			<stop  offset="1" style="stop-color:#5B2B5E"/>
		</linearGradient>
		<path class="st31" d="M405.3,532.1c0.2-2,0.6-5.1,1.7-8.5c2.7-9,6-8.7,8.3-17c1.3-4.6,0.8-6.7,2.8-12.4c0.7-2,1-2.4,2.8-6.4
			c2.4-5.4,4.2-9.9,5.8-13.9c3.4-8.5,3.5-9.5,5.1-11.6c2-2.7,2.4-1.8,5.9-5.3c4.5-4.5,4.2-6.4,7.8-9.4c2.5-2.1,2.9-1.4,6.9-4.1
			c3.2-2.2,4.9-3.9,7.2-6c2.7-2.4,6.7-5.6,12.1-8.7c2-3.1,5.2-7.5,9.7-11.4c3.8-3.3,4.1-2.3,7.5-5.6c2.8-2.7,3.5-4.2,10.6-12.6
			c1.4-1.6,2.1-2.4,3-3.3c2.9-2.9,5.4-4.8,7.2-5.9c-0.9,1.1-2.3,2.9-4.1,4.8c-4.7,5.2-6.3,5.9-9.6,9.8c-3.8,4.5-2.8,5-5.9,8.3
			c-3.9,4.3-5.8,3.8-9.8,7.5c-1.9,1.8-4.6,4.7-7.3,9.7c-5.3,3-9.4,6.1-12.1,8.5c-2.8,2.4-3.7,3.5-6.7,5.7c-5.3,4-5.9,3.1-8.7,6
			c-3,3.1-3.1,4.9-6.9,9.5c-2.1,2.5-3.9,4.1-5.2,5.2c-0.5,1-7.6,16.2-11,24.8c-0.9,2.1-1.6,4.2-2.4,6.7c-1.3,4.2-2.1,7.5-2.3,8.2
			C416.5,508.5,413.7,516,405.3,532.1z"/>
	</g>
	<g>
		<linearGradient id="SVGID_32_" gradientUnits="userSpaceOnUse" x1="190.9" y1="615.5684" x2="224.9397" y2="615.5684">
			<stop  offset="0" style="stop-color:#865CA0"/>
			<stop  offset="0.2687" style="stop-color:#8B56A3"/>
			<stop  offset="1" style="stop-color:#1F958C;stop-opacity:0.4"/>
		</linearGradient>
		<path class="st32" d="M223.7,619.4c-5.1,4.5-15,1.9-23.2-1.6c-2.3-1.5-3.8-2.7-4.6-3.3c-1.7-1.4-3.4-2.8-4.9-4.3
			c7.6-1.6,14.4-0.8,18.8,0.1c1.7,0.3,13.2,2.6,15,6.1C225.5,617.9,224.1,619,223.7,619.4z"/>
		<linearGradient id="SVGID_33_" gradientUnits="userSpaceOnUse" x1="175.22" y1="597.4159" x2="199.1086" y2="597.4159">
			<stop  offset="0" style="stop-color:#865CA0"/>
			<stop  offset="0.2687" style="stop-color:#8B56A3"/>
			<stop  offset="1" style="stop-color:#1F958C;stop-opacity:0.4"/>
		</linearGradient>
		<path class="st33" d="M199.1,602c0.2,1.6-1.7,2.3-2.3,2.5c-3.5,1.5-7.5,1-11.5-0.5c-3.9-4.7-7.2-9.8-10.1-14.7
			c4.9,0.9,8.8,2.4,11.6,3.7C188.3,593.7,198.8,598.5,199.1,602z"/>
		<linearGradient id="SVGID_34_" gradientUnits="userSpaceOnUse" x1="167.99" y1="581.7073" x2="182.299" y2="581.7073">
			<stop  offset="0" style="stop-color:#865CA0"/>
			<stop  offset="0.2687" style="stop-color:#8B56A3"/>
			<stop  offset="1" style="stop-color:#1F958C;stop-opacity:0.4"/>
		</linearGradient>
		<path class="st34" d="M180.8,587.3c-2,0.9-4.3,0.8-6.7,0c-2.3-4.2-4.3-8.2-6.1-11.9c2,0.7,3.7,1.5,5,2.2c1.1,0.6,8.9,4.7,9.3,7.7
			C182.5,586.6,181.2,587.1,180.8,587.3z"/>
		<linearGradient id="SVGID_35_" gradientUnits="userSpaceOnUse" x1="159.84" y1="565.6175" x2="173.74" y2="565.6175">
			<stop  offset="0" style="stop-color:#865CA0"/>
			<stop  offset="0.2687" style="stop-color:#8B56A3"/>
			<stop  offset="1" style="stop-color:#1F958C;stop-opacity:0.4"/>
		</linearGradient>
		<path class="st35" d="M173.6,572.3c-0.4,1.2-1.9,1.4-2.5,1.4c-1.5,0.2-2.9,0-4.2-0.5c-0.1-0.1-0.1-0.3-0.2-0.4
			c-3.2-6.8-5-11.7-6.9-15.4c3.8,1.8,6.5,4.1,8.2,5.7C168.8,564,174.6,569.6,173.6,572.3z"/>
		<linearGradient id="SVGID_36_" gradientUnits="userSpaceOnUse" x1="140.95" y1="545.7539" x2="163.5149" y2="545.7539">
			<stop  offset="0" style="stop-color:#865CA0"/>
			<stop  offset="0.2687" style="stop-color:#8B56A3"/>
			<stop  offset="1" style="stop-color:#1F958C;stop-opacity:0.4"/>
		</linearGradient>
		<path class="st36" d="M163.5,552.4c-0.2,1.3-1.6,1.6-2.1,1.7c-1.2,0.3-2.3,0.3-3.4,0.1v0c-1.4-2-3.1-3.6-5.6-4.7
			c-1.2-0.6-2.4-1-3.6-1.2c-4.6-4.9-7.8-11.1-7.8-11.1c7.3,1,12.4,4.3,15.3,6.5C157.3,544.4,163.9,549.5,163.5,552.4z"/>
		
			<linearGradient id="SVGID_37_" gradientUnits="userSpaceOnUse" x1="678.9278" y1="763.0775" x2="700.7665" y2="763.0775" gradientTransform="matrix(-0.5707 0.5375 0.4483 0.476 248.4971 -150.9915)">
			<stop  offset="0" style="stop-color:#865CA0"/>
			<stop  offset="0.2687" style="stop-color:#8B56A3"/>
			<stop  offset="1" style="stop-color:#1F958C;stop-opacity:0.4"/>
		</linearGradient>
		<path class="st37" d="M197.8,571.5c0,0-13.7,15.7-3.4,20.6c0.5,0.2,1.9,0.9,3.4,0.4c3.3-1.2,4-7.7,4.1-8.7
			C202.2,581,202,576.3,197.8,571.5z"/>
		
			<linearGradient id="SVGID_38_" gradientUnits="userSpaceOnUse" x1="517.2119" y1="547.2264" x2="541.2447" y2="547.2264" gradientTransform="matrix(7.451464e-02 0.7804 0.6509 -6.215283e-02 -253.2612 148.8192)">
			<stop  offset="0" style="stop-color:#865CA0"/>
			<stop  offset="0.2687" style="stop-color:#8B56A3"/>
			<stop  offset="1" style="stop-color:#1F958C;stop-opacity:0.4"/>
		</linearGradient>
		<path class="st38" d="M131,519.4c0,0,10.1,19.5,20.4,16.9c0.5-0.1,1.9-0.5,2.1-1.7c0.4-2.8-6.3-7.9-7.2-8.7
			C143.4,523.7,138.3,520.5,131,519.4z"/>
		
			<linearGradient id="SVGID_39_" gradientUnits="userSpaceOnUse" x1="491.932" y1="530.2219" x2="515.9648" y2="530.2219" gradientTransform="matrix(7.451464e-02 0.7804 0.6509 -6.215283e-02 -253.2612 148.8192)">
			<stop  offset="0" style="stop-color:#865CA0"/>
			<stop  offset="0.2687" style="stop-color:#8B56A3"/>
			<stop  offset="1" style="stop-color:#1F958C;stop-opacity:0.4"/>
		</linearGradient>
		<path class="st39" d="M118.1,500.8c0,0,10.1,19.5,20.4,16.9c0.5-0.1,1.9-0.5,2.1-1.7c0.4-2.8-6.3-7.9-7.2-8.7
			C130.5,505,125.4,501.8,118.1,500.8z"/>
		
			<linearGradient id="SVGID_40_" gradientUnits="userSpaceOnUse" x1="377.0951" y1="1020.59" x2="401.5156" y2="1020.59" gradientTransform="matrix(0.5231 0.5839 -0.487 0.4363 445.4367 -157.4462)">
			<stop  offset="0" style="stop-color:#865CA0"/>
			<stop  offset="0.2687" style="stop-color:#8B56A3"/>
			<stop  offset="1" style="stop-color:#1F958C;stop-opacity:0.4"/>
		</linearGradient>
		<path class="st40" d="M150.8,503.5c0,0,14.2,18.4,4,21.3c-0.5,0.1-1.9,0.6-3.4-0.2c-3.4-1.8-4.3-8.5-4.4-9.5
			C146.6,512.1,146.7,507.5,150.8,503.5z"/>
		
			<linearGradient id="SVGID_41_" gradientUnits="userSpaceOnUse" x1="405.6696" y1="1026.3684" x2="430.0901" y2="1026.3684" gradientTransform="matrix(0.5231 0.5839 -0.487 0.4363 445.4367 -157.4462)">
			<stop  offset="0" style="stop-color:#865CA0"/>
			<stop  offset="0.2687" style="stop-color:#8B56A3"/>
			<stop  offset="1" style="stop-color:#1F958C;stop-opacity:0.4"/>
		</linearGradient>
		<path class="st41" d="M162.9,522.7c0,0,14.2,18.4,4,21.3c-0.5,0.1-1.9,0.6-3.4-0.2c-3.4-1.8-4.3-8.5-4.4-9.5
			C158.8,531.3,158.9,526.7,162.9,522.7z"/>
		
			<linearGradient id="SVGID_42_" gradientUnits="userSpaceOnUse" x1="434.7937" y1="1033.7885" x2="459.2142" y2="1033.7885" gradientTransform="matrix(0.5231 0.5839 -0.487 0.4363 445.4367 -157.4462)">
			<stop  offset="0" style="stop-color:#865CA0"/>
			<stop  offset="0.2687" style="stop-color:#8B56A3"/>
			<stop  offset="1" style="stop-color:#1F958C;stop-opacity:0.4"/>
		</linearGradient>
		<path class="st42" d="M174.5,542.9c0,0,14.2,18.4,4,21.3c-0.5,0.1-1.9,0.6-3.4-0.2c-3.4-1.8-4.3-8.5-4.4-9.5
			C170.4,551.6,170.5,547,174.5,542.9z"/>
		
			<linearGradient id="SVGID_43_" gradientUnits="userSpaceOnUse" x1="511.3036" y1="1075.9321" x2="533.4344" y2="1075.9321" gradientTransform="matrix(0.3002 0.6498 -0.4981 0.2301 564.0526 -16.4027)">
			<stop  offset="0" style="stop-color:#865CA0"/>
			<stop  offset="0.2687" style="stop-color:#8B56A3"/>
			<stop  offset="1" style="stop-color:#1F958C;stop-opacity:0.4"/>
		</linearGradient>
		<path class="st43" d="M187.4,560.8c0,0,6.6,18.1-3,18.3c-0.5,0-1.8,0.1-2.8-0.9c-2.3-2.2-1.1-7.8-0.9-8.7
			C181.2,567,182.7,563.2,187.4,560.8z"/>
		
			<linearGradient id="SVGID_44_" gradientUnits="userSpaceOnUse" x1="739.6022" y1="801.6486" x2="759.3075" y2="801.6486" gradientTransform="matrix(-0.4094 0.3855 0.6427 0.6824 3.4157 -238.5102)">
			<stop  offset="0" style="stop-color:#865CA0"/>
			<stop  offset="0.2687" style="stop-color:#8B56A3"/>
			<stop  offset="1" style="stop-color:#1F958C;stop-opacity:0.4"/>
		</linearGradient>
		<path class="st44" d="M207.5,585c0,0-6.6,13.9,6.5,21.9c0.6,0.4,2.4,1.5,3.7,1.3c2.9-0.5,0.4-7.5,0.1-8.5
			C216.8,596.6,214.3,591.4,207.5,585z"/>
		
			<linearGradient id="SVGID_45_" gradientUnits="userSpaceOnUse" x1="729.7411" y1="822.9374" x2="749.4464" y2="822.9374" gradientTransform="matrix(-0.4094 0.3855 0.6427 0.6824 3.4157 -238.5102)">
			<stop  offset="0" style="stop-color:#865CA0"/>
			<stop  offset="0.2687" style="stop-color:#8B56A3"/>
			<stop  offset="1" style="stop-color:#1F958C;stop-opacity:0.4"/>
		</linearGradient>
		<path class="st45" d="M225.2,595.7c0,0-6.6,13.9,6.5,21.9c0.6,0.4,2.4,1.5,3.7,1.3c2.9-0.5,0.4-7.5,0.1-8.5
			C234.5,607.3,232,602.1,225.2,595.7z"/>
		
			<linearGradient id="SVGID_46_" gradientUnits="userSpaceOnUse" x1="741.2786" y1="553.8228" x2="761.7021" y2="553.8228" gradientTransform="matrix(-0.3642 0.343 0.4658 0.4946 150.5335 -33.246)">
			<stop  offset="0" style="stop-color:#865CA0"/>
			<stop  offset="0.2687" style="stop-color:#8B56A3"/>
			<stop  offset="1" style="stop-color:#1F958C;stop-opacity:0.4"/>
		</linearGradient>
		<path class="st46" d="M132.6,488.7c0,0-6.9,11.5,2.8,17.1c0.5,0.3,1.8,1.1,2.9,0.8c2.4-0.6,1.2-6,1-6.8
			C138.8,497.4,137.4,493.4,132.6,488.7z"/>
		
			<linearGradient id="SVGID_47_" gradientUnits="userSpaceOnUse" x1="255.5445" y1="632.0066" x2="119.8121" y2="632.0066" gradientTransform="matrix(-0.1769 -0.9842 -0.9842 0.1769 844.3936 639.2223)">
			<stop  offset="0" style="stop-color:#865CA0"/>
			<stop  offset="0.2687" style="stop-color:#8B56A3"/>
			<stop  offset="1" style="stop-color:#5B2B5E"/>
		</linearGradient>
		<path class="st47" d="M241.1,625.9c-1.6-0.5-4.1-1.3-6.8-2.8c-7-3.8-6.4-6.9-12.9-10.3c-3.6-1.9-5.3-1.7-9.8-4.4
			c-1.6-1-1.8-1.3-4.9-3.6c-4.1-3-7.6-5.4-10.7-7.5c-6.5-4.4-7.3-4.6-8.9-6.4c-2-2.3-1.2-2.5-3.7-6.3c-3.2-4.9-4.7-4.9-6.7-8.8
			c-1.4-2.7-0.8-2.9-2.5-7.1c-1.4-3.3-2.6-5.2-4.1-7.7c-1.7-2.9-3.8-7.2-5.7-12.7c-2.3-2.4-5.5-6-8.2-10.8c-2.2-4.1-1.4-4.2-3.7-7.9
			c-1.9-3-3-3.9-9-11.9c-1.2-1.6-1.7-2.3-2.4-3.3c-2.1-3.2-3.3-5.8-4-7.7c0.8,1,2.1,2.6,3.4,4.6c3.7,5.2,4,6.8,6.9,10.6
			c3.2,4.2,3.7,3.4,6.1,6.8c3.1,4.4,2.4,6.1,5,10.4c1.2,2.1,3.3,5,7.1,8.3c1.8,5.5,3.9,9.8,5.5,12.8c1.6,3,2.4,4,3.9,7.2
			c2.6,5.6,1.8,6.1,3.9,9.1c2.2,3.3,3.7,3.6,6.9,7.9c1.8,2.3,2.9,4.3,3.6,5.7c0.8,0.6,12.3,9.5,19,14c1.6,1.1,3.3,2.1,5.2,3.2
			c3.3,1.9,5.9,3,6.4,3.3C223.1,612,229,615.7,241.1,625.9z"/>
	</g>
	<g>
		
			<linearGradient id="SVGID_48_" gradientUnits="userSpaceOnUse" x1="518.8928" y1="741.3989" x2="543.1811" y2="741.3989" gradientTransform="matrix(-0.8614 0.3836 0.3776 0.848 451.773 -513.816)">
			<stop  offset="0" style="stop-color:#865CA0"/>
			<stop  offset="0.2687" style="stop-color:#8B56A3"/>
			<stop  offset="1" style="stop-color:#1F958C;stop-opacity:0.4"/>
		</linearGradient>
		<path class="st48" d="M279.9,303c0,0-17.1,19.6-12.1,29.1c0.2,0.5,0.9,1.8,2.2,1.4c2.9-0.9,6.5-10.2,7-11.6
			C278.6,317.9,280.6,311.1,279.9,303z"/>
		
			<linearGradient id="SVGID_49_" gradientUnits="userSpaceOnUse" x1="509.3965" y1="726.9832" x2="530.3983" y2="726.9832" gradientTransform="matrix(-0.9382 9.407803e-02 9.261089e-02 0.9236 712.687 -419.2944)">
			<stop  offset="0" style="stop-color:#865CA0"/>
			<stop  offset="0.2687" style="stop-color:#8B56A3"/>
			<stop  offset="1" style="stop-color:#1F958C;stop-opacity:0.4"/>
		</linearGradient>
		<path class="st49" d="M300.8,287.5c0,0-19.5,12.6-17.4,24.6c0.1,0.6,0.4,2.3,1.6,2.4c2.8,0.3,8-7.6,8.8-8.8
			C296.1,302.2,299.5,296.1,300.8,287.5z"/>
		
			<linearGradient id="SVGID_50_" gradientUnits="userSpaceOnUse" x1="489.2282" y1="696.0943" x2="509.8283" y2="696.0943" gradientTransform="matrix(-0.78 7.821644e-02 6.524050e-02 0.6506 650.6265 -198.4669)">
			<stop  offset="0" style="stop-color:#865CA0"/>
			<stop  offset="0.2687" style="stop-color:#8B56A3"/>
			<stop  offset="1" style="stop-color:#1F958C;stop-opacity:0.4"/>
		</linearGradient>
		<path class="st50" d="M313.5,283.7c0,0-16.2,9.5-14.4,17.9c0.1,0.4,0.3,1.6,1.3,1.6c2.3,0.1,6.7-5.7,7.3-6.5
			C309.7,294.2,312.4,289.8,313.5,283.7z"/>
		
			<linearGradient id="SVGID_51_" gradientUnits="userSpaceOnUse" x1="497.1521" y1="690.3798" x2="514.6442" y2="690.3798" gradientTransform="matrix(-0.7598 -0.1929 -0.1609 0.6338 814.6274 -48.7728)">
			<stop  offset="0" style="stop-color:#865CA0"/>
			<stop  offset="0.2687" style="stop-color:#8B56A3"/>
			<stop  offset="1" style="stop-color:#1F958C;stop-opacity:0.4"/>
		</linearGradient>
		<path class="st51" d="M327.9,284.4c0,0-16.3,2-16.9,11.4c0,0.5-0.1,1.8,0.7,2.3c1.9,1.2,7.2-2.6,7.9-3.2
			C321.9,293.4,325.4,290.2,327.9,284.4z"/>
		
			<linearGradient id="SVGID_52_" gradientUnits="userSpaceOnUse" x1="467.655" y1="675.6225" x2="486.2578" y2="675.6225" gradientTransform="matrix(-0.7795 -8.394338e-02 -7.001722e-02 0.6501 754.5873 -114.3149)">
			<stop  offset="0" style="stop-color:#865CA0"/>
			<stop  offset="0.2687" style="stop-color:#8B56A3"/>
			<stop  offset="1" style="stop-color:#1F958C;stop-opacity:0.4"/>
		</linearGradient>
		<path class="st52" d="M343.7,276.8c0,0-16.5,5.1-16.1,14.3c0,0.4,0,1.7,1,2.1c2.1,0.8,7.1-3.9,7.8-4.6
			C338.5,286.5,341.8,282.7,343.7,276.8z"/>
		
			<linearGradient id="SVGID_53_" gradientUnits="userSpaceOnUse" x1="556.9598" y1="745.101" x2="574.8036" y2="745.101" gradientTransform="matrix(-0.4117 -0.6671 -0.5565 0.3434 947.3725 437.4837)">
			<stop  offset="0" style="stop-color:#865CA0"/>
			<stop  offset="0.2687" style="stop-color:#8B56A3"/>
			<stop  offset="1" style="stop-color:#1F958C;stop-opacity:0.4"/>
		</linearGradient>
		<path class="st53" d="M308.5,318.6c0,0-9.9-14.2-15.2-6.4c-0.3,0.4-1,1.4-0.8,2.8c0.4,3,5.2,4.7,6,5
			C300.6,320.7,304.2,321.3,308.5,318.6z"/>
		
			<linearGradient id="SVGID_54_" gradientUnits="userSpaceOnUse" x1="449.1835" y1="665.0948" x2="467.7863" y2="665.0948" gradientTransform="matrix(-0.7795 -8.394338e-02 -7.001722e-02 0.6501 754.5873 -114.3149)">
			<stop  offset="0" style="stop-color:#865CA0"/>
			<stop  offset="0.2687" style="stop-color:#8B56A3"/>
			<stop  offset="1" style="stop-color:#1F958C;stop-opacity:0.4"/>
		</linearGradient>
		<path class="st54" d="M358.9,271.5c0,0-16.5,5.1-16.1,14.3c0,0.4,0,1.7,1,2.1c2.1,0.8,7.1-3.9,7.8-4.6
			C353.7,281.2,356.9,277.5,358.9,271.5z"/>
		
			<linearGradient id="SVGID_55_" gradientUnits="userSpaceOnUse" x1="429.5385" y1="650.7642" x2="448.1413" y2="650.7642" gradientTransform="matrix(-0.7795 -8.394338e-02 -7.001722e-02 0.6501 754.5873 -114.3149)">
			<stop  offset="0" style="stop-color:#865CA0"/>
			<stop  offset="0.2687" style="stop-color:#8B56A3"/>
			<stop  offset="1" style="stop-color:#1F958C;stop-opacity:0.4"/>
		</linearGradient>
		<path class="st55" d="M375.2,263.8c0,0-16.5,5.1-16.1,14.3c0,0.4,0,1.7,1,2.1c2.1,0.8,7.1-3.9,7.8-4.6
			C370,273.5,373.2,269.8,375.2,263.8z"/>
		
			<linearGradient id="SVGID_56_" gradientUnits="userSpaceOnUse" x1="382.6425" y1="879.5165" x2="401.8176" y2="879.5165" gradientTransform="matrix(-0.6772 0.395 -0.3295 -0.5648 914.092 631.6982)">
			<stop  offset="0" style="stop-color:#865CA0"/>
			<stop  offset="0.2687" style="stop-color:#8B56A3"/>
			<stop  offset="1" style="stop-color:#1F958C;stop-opacity:0.4"/>
		</linearGradient>
		<path class="st56" d="M368,290.9c0,0-16.3,8.8-16.9-0.3c0-0.4-0.1-1.7,0.7-2.8c1.9-2.5,7.2-2.1,7.9-2.1
			C362,285.9,365.5,286.8,368,290.9z"/>
		
			<linearGradient id="SVGID_57_" gradientUnits="userSpaceOnUse" x1="405.3543" y1="883.207" x2="424.5295" y2="883.207" gradientTransform="matrix(-0.6772 0.395 -0.3295 -0.5648 914.092 631.6982)">
			<stop  offset="0" style="stop-color:#865CA0"/>
			<stop  offset="0.2687" style="stop-color:#8B56A3"/>
			<stop  offset="1" style="stop-color:#1F958C;stop-opacity:0.4"/>
		</linearGradient>
		<path class="st57" d="M351.4,297.7c0,0-16.3,8.8-16.9-0.3c0-0.4-0.1-1.7,0.7-2.8c1.9-2.5,7.2-2.1,7.9-2.1
			C345.4,292.8,348.9,293.6,351.4,297.7z"/>
		
			<linearGradient id="SVGID_58_" gradientUnits="userSpaceOnUse" x1="428.46" y1="888.2521" x2="447.6352" y2="888.2521" gradientTransform="matrix(-0.6772 0.395 -0.3295 -0.5648 914.092 631.6982)">
			<stop  offset="0" style="stop-color:#865CA0"/>
			<stop  offset="0.2687" style="stop-color:#8B56A3"/>
			<stop  offset="1" style="stop-color:#1F958C;stop-opacity:0.4"/>
		</linearGradient>
		<path class="st58" d="M334.1,304c0,0-16.3,8.8-16.9-0.3c0-0.4-0.1-1.7,0.7-2.8c1.9-2.5,7.2-2.1,7.9-2.1
			C328.1,299.1,331.6,299.9,334.1,304z"/>
		
			<linearGradient id="SVGID_59_" gradientUnits="userSpaceOnUse" x1="459.8239" y1="913.6927" x2="476.9999" y2="913.6927" gradientTransform="matrix(-0.6969 0.1634 -0.1253 -0.5342 752.0767 719.528)">
			<stop  offset="0" style="stop-color:#865CA0"/>
			<stop  offset="0.2687" style="stop-color:#8B56A3"/>
			<stop  offset="1" style="stop-color:#1F958C;stop-opacity:0.4"/>
		</linearGradient>
		<path class="st59" d="M318.4,311.8c0,0-14.9,2.5-13.5-5.6c0.1-0.4,0.2-1.5,1.1-2.2c2.1-1.6,6.2,0.4,6.8,0.7
			C314.6,305.5,317.3,307.4,318.4,311.8z"/>
		
			<linearGradient id="SVGID_60_" gradientUnits="userSpaceOnUse" x1="567.6938" y1="784.7441" x2="583.5179" y2="784.7441" gradientTransform="matrix(-0.2953 -0.4785 -0.7977 0.4923 1082.3879 215.0084)">
			<stop  offset="0" style="stop-color:#865CA0"/>
			<stop  offset="0.2687" style="stop-color:#8B56A3"/>
			<stop  offset="1" style="stop-color:#1F958C;stop-opacity:0.4"/>
		</linearGradient>
		<path class="st60" d="M296.7,324.5c0,0-9.6-7.9-17.8,1.7c-0.4,0.5-1.5,1.8-1.6,2.9c-0.1,2.5,5.6,1.7,6.5,1.5
			C286.4,330.3,290.7,329,296.7,324.5z"/>
		
			<linearGradient id="SVGID_61_" gradientUnits="userSpaceOnUse" x1="558.211" y1="802.0273" x2="574.0351" y2="802.0273" gradientTransform="matrix(-0.2953 -0.4785 -0.7977 0.4923 1082.3879 215.0084)">
			<stop  offset="0" style="stop-color:#865CA0"/>
			<stop  offset="0.2687" style="stop-color:#8B56A3"/>
			<stop  offset="1" style="stop-color:#1F958C;stop-opacity:0.4"/>
		</linearGradient>
		<path class="st61" d="M285.8,337.6c0,0-9.6-7.9-17.8,1.7c-0.4,0.5-1.5,1.8-1.6,2.9c-0.1,2.5,5.6,1.7,6.5,1.5
			C275.4,343.3,279.8,342.1,285.8,337.6z"/>
		
			<linearGradient id="SVGID_62_" gradientUnits="userSpaceOnUse" x1="560.3458" y1="567.4626" x2="576.811" y2="567.4626" gradientTransform="matrix(-0.2627 -0.4257 -0.5781 0.3568 851.7323 317.8434)">
			<stop  offset="0" style="stop-color:#865CA0"/>
			<stop  offset="0.2687" style="stop-color:#8B56A3"/>
			<stop  offset="1" style="stop-color:#1F958C;stop-opacity:0.4"/>
		</linearGradient>
		<path class="st62" d="M382.2,278.1c0,0-7.7-7.8-13.5-0.6c-0.3,0.3-1.1,1.3-1.1,2.3c0,2.1,4.4,2,5,2
			C374.5,281.9,377.8,281.3,382.2,278.1z"/>
		
			<linearGradient id="SVGID_63_" gradientUnits="userSpaceOnUse" x1="299.7091" y1="556.2678" x2="193.872" y2="556.2678" gradientTransform="matrix(0.9997 2.460658e-02 2.460658e-02 -0.9997 53.4699 862.2995)">
			<stop  offset="0" style="stop-color:#865CA0"/>
			<stop  offset="0.2687" style="stop-color:#8B56A3"/>
			<stop  offset="1" style="stop-color:#5B2B5E"/>
		</linearGradient>
		<path class="st63" d="M260.1,345.7c0.6-1.3,1.6-3.2,3.2-5.2c4-5.2,6.3-4.2,9.9-9.1c2-2.7,2.1-4.2,4.9-7.5c1-1.2,1.3-1.3,3.5-3.5
			c3-2.9,5.3-5.5,7.4-7.7c4.4-4.7,4.7-5.4,6.3-6.4c2-1.3,2.1-0.6,5.4-2c4.2-1.8,4.5-3.1,7.8-4.1c2.3-0.7,2.4-0.2,5.8-0.9
			c2.8-0.6,4.4-1.3,6.5-2.1c2.5-0.9,6.1-1.9,10.6-2.6c2.2-1.5,5.5-3.6,9.5-5c3.5-1.2,3.4-0.5,6.6-1.8c2.6-1.1,3.4-1.9,10.5-5.5
			c1.4-0.7,2-1,2.9-1.4c2.7-1.2,5-1.8,6.5-2c-0.9,0.5-2.3,1.3-4.1,2.1c-4.6,2.2-5.9,2.2-9.2,4c-3.7,2-3.2,2.6-6.1,4
			c-3.8,1.8-5,1-8.7,2.4c-1.8,0.7-4.4,1.9-7.5,4.5c-4.5,0.6-8.1,1.6-10.6,2.4c-2.6,0.9-3.5,1.3-6.1,2c-4.7,1.2-4.9,0.5-7.6,1.7
			c-2.9,1.3-3.3,2.5-7.2,4.5c-2.1,1.1-3.8,1.7-4.9,2.1c-0.6,0.6-9.2,8.7-13.7,13.5c-1.1,1.2-2.1,2.4-3.3,3.8
			c-1.9,2.4-3.2,4.4-3.5,4.8C273.6,333,269.8,337.2,260.1,345.7z"/>
	</g>
	
		<linearGradient id="SVGID_64_" gradientUnits="userSpaceOnUse" x1="228.5232" y1="355.0753" x2="286.6601" y2="355.0753" gradientTransform="matrix(-1 0 0 1 394.0256 0)">
		<stop  offset="0.4832" style="stop-color:#119A89"/>
		<stop  offset="0.9615" style="stop-color:#224193"/>
	</linearGradient>
	<path class="st64" d="M158.2,397c-5.6-1.7-13.8-5-21.6-11.9c-1.2-1.1-3.4-3.1-9.6-10.6c-4.3-5.3-18-22.1-16.8-23.3
		c0.9-0.9,10.5,7,43.8,39.3c-2.9-3.6-6.4-8.2-10.3-13.7c-22.5-31.2-37.7-62.7-36.1-63.6c1.2-0.7,12.7,15.3,50.9,75.3
		c-5.8-12.1-11.6-24.2-17.4-36.3c-3-7-6-14.1-9-21.1c7.3,9,12.9,17,17,23.2c5.6,8.6,2.6,5,9.6,16.3c2.4,3.9,5.8,9.2,6.8,16.3
		c0.4,2.8,0.3,5.1-1.1,7C162.3,396.5,159.2,396.9,158.2,397z"/>
</g>
<g id="web">
	<g>
		<path class="st65" d="M379.2,325.6v151.1c0,8.3-6.8,15.1-15.1,15.1h-202c-8.3,0-15.1-6.8-15.1-15.1V325.6
			c0-8.3,6.8-15.1,15.1-15.1h202C372.4,310.5,379.2,317.3,379.2,325.6z"/>
		<path class="st66" d="M359.3,345.6h-192c-4.8,0-8.7-3.9-8.7-8.7v0c0-4.8,3.9-8.7,8.7-8.7h192c4.8,0,8.7,3.9,8.7,8.7v0
			C367.9,341.7,364,345.6,359.3,345.6z"/>
		<path class="st1" d="M278.9,341.5h-75.6c-2.2,0-3.9-1.8-3.9-3.9l0,0c0-2.2,1.8-3.9,3.9-3.9h75.6c2.2,0,3.9,1.8,3.9,3.9l0,0
			C282.8,339.7,281.1,341.5,278.9,341.5z"/>
		<path class="st1" d="M193.1,341.5H170c-2.2,0-3.9-1.8-3.9-3.9l0,0c0-2.2,1.8-3.9,3.9-3.9h23.1c2.2,0,3.9,1.8,3.9,3.9l0,0
			C197,339.7,195.3,341.5,193.1,341.5z"/>
		<path class="st1" d="M160.9,322.5h-1.7c-2.2,0-3.9-1.8-3.9-3.9v0c0-2.2,1.8-3.9,3.9-3.9h1.7c2.2,0,3.9,1.8,3.9,3.9v0
			C164.8,320.8,163,322.5,160.9,322.5z"/>
		<path class="st1" d="M172.3,322.5h-1.7c-2.2,0-3.9-1.8-3.9-3.9v0c0-2.2,1.8-3.9,3.9-3.9h1.7c2.2,0,3.9,1.8,3.9,3.9v0
			C176.3,320.8,174.5,322.5,172.3,322.5z"/>
		<path class="st1" d="M183.8,322.5h-1.7c-2.2,0-3.9-1.8-3.9-3.9v0c0-2.2,1.8-3.9,3.9-3.9h1.7c2.2,0,3.9,1.8,3.9,3.9v0
			C187.7,320.8,186,322.5,183.8,322.5z"/>
		<path class="st1" d="M220,443.9h-34.8c-4.4,0-8-3.6-8-8v0c0-4.4,3.6-8,8-8H220c4.4,0,8,3.6,8,8v0C228,440.3,224.4,443.9,220,443.9
			z"/>
		<path class="st66" d="M239.4,391.8h-73.5c-2.3,0-4.2-1.9-4.2-4.2l0,0c0-2.3,1.9-4.2,4.2-4.2h73.5c2.3,0,4.2,1.9,4.2,4.2l0,0
			C243.6,389.9,241.7,391.8,239.4,391.8z"/>
		<path class="st66" d="M239.4,404.4h-73.5c-2.3,0-4.2-1.9-4.2-4.2l0,0c0-2.3,1.9-4.2,4.2-4.2h73.5c2.3,0,4.2,1.9,4.2,4.2l0,0
			C243.6,402.5,241.7,404.4,239.4,404.4z"/>
		<path class="st66" d="M219.2,417.2H186c-2.3,0-4.2-1.9-4.2-4.2l0,0c0-2.3,1.9-4.2,4.2-4.2h33.2c2.3,0,4.2,1.9,4.2,4.2l0,0
			C223.4,415.3,221.5,417.2,219.2,417.2z"/>
		<path class="st67" d="M379.2,325.6v151.1c0,8.3-6.8,15.1-15.1,15.1H229l74.6-146.2l8.9-17.4l9-17.7h42.5
			C372.4,310.5,379.2,317.3,379.2,325.6z"/>
	</g>
</g>
<g id="Layer_6">
	
		<linearGradient id="SVGID_65_" gradientUnits="userSpaceOnUse" x1="231.6042" y1="562.9639" x2="302.3651" y2="522.1101" gradientTransform="matrix(0.5364 -1.7862 1.7729 0.5324 -728.5139 558.3818)">
		<stop  offset="1.396648e-02" style="stop-color:#2D6833"/>
		<stop  offset="0.9464" style="stop-color:#C6A251"/>
	</linearGradient>
	<path class="st68" d="M333.2,320.6c-0.2-2.1-0.3-6.7,2.1-11.8c2-4.3,4.8-6.9,6.4-8.3c1.9-0.1,4.8,0,8,1.2c6.3,2.4,9.4,7.4,10.4,9.1
		c1.2,11.7,2.3,23.4,3.5,35.1c2.9,1.4,4.4,1,5.2,0.5c4.7-2.7-3.5-14.2-0.1-30.1c0,0,3.2-14.8-0.3-18.7c0,0-0.2-0.2-0.1-0.3
		c0.2-0.8,7.5,0.2,13.2,2.7c2.6,1.1,6.6,3.4,10.6,8.2c-2.8,11.5-5.6,23-8.4,34.5c-0.1,3.7-0.2,7.4-0.4,11.1c2.1-1.1,4.3-2.2,6.4-3.3
		c1.4-6.5,2.9-13,4.3-19.5L400,315c1.6,0.4,6.9,2,10.9,7.3c4.1,5.3,4.2,11,4.2,12.7c-3.1,6-6.8,12.6-11.4,19.5
		c-3.2,4.8-6.4,9.1-9.6,13c0.5,2.2,1.1,4.3,1.6,6.5l21.2-20.7l3.4-11.4c1.5,0.5,8.5,2.9,12,10.1c0.2,0.3,3.8,8.2,0.6,15.6
		c-6.3,14.3-32,13-32.3,20.4c-0.1,1.2,0.5,3.2,4.9,5.9c4.5-2.3,8.9-4.6,13.4-6.9c6-0.2,12-0.4,17.9-0.6c8.6,11.7,7.6,17.9,6.3,20.8
		c-1.2,2.9-3.1,3.5-17.5,13.1c-8.6,5.7-10.3,7.2-12,8.6c-5.6,4.9-9.1,10-11.3,13.6c-4.8-0.1-9.7-0.1-14.5-0.2l-16,2.7
		c-8.8,1.2-17.6,2.3-26.3,3.5c-0.7,0-5.5-0.2-8.8-4.4c-3.5-4.5-2.2-9.8-2.1-10.3c6.6-1.8,13.3-3.6,19.9-5.5c0,0,19.4-13.4,18.6-14.8
		c-0.1-0.1-0.3-0.1-0.3-0.1c-3.7,0-17.7,4.6-22.7,5.9c-0.1,0-19.3,1-19,1l0,0c-3.9-1.6-4.4-3.5-4.5-4.1c-0.6-3.3,4.3-8,12.8-10.6
		c9.2-4.3,18.3-8.5,27.5-12.8c-8.2-0.2-16.5-0.4-24.7-0.6c-5.8,3.9-11.5,7.8-17.3,11.7c-1-2.4-3.3-8.7-1.5-16.4
		c1.1-4.8,3.3-8.3,4.8-10.2c4.5-0.9,10.5-1.6,17.4-1.2c7.7,0.4,14,1.9,18.7,3.4c0.5-3.6,1-7.2,1.5-10.7c-3.9,1.3-9,2.6-15.2,2.9
		c-11.1,0.5-19.8-2.4-24.9-4.5c-1.8-1.2-3.6-2.3-5.5-3.5c0-2.8,0.3-7.6,2.6-13c2.4-5.7,5.8-9.4,7.8-11.3c4.7,3.6,9.4,7.1,14.1,10.7
		c4.7,1.3,9.4,2.6,14.1,3.9l-21.1-20.9C336.3,328.8,334.8,324.7,333.2,320.6z"/>
	
		<linearGradient id="SVGID_66_" gradientUnits="userSpaceOnUse" x1="313.8834" y1="425.0746" x2="375.3034" y2="425.0746" gradientTransform="matrix(0.8834 0.4657 -0.5 0.9486 235.9032 -64.2391)">
		<stop  offset="0.4832" style="stop-color:#119A89"/>
		<stop  offset="0.9615" style="stop-color:#224193"/>
	</linearGradient>
	<path class="st69" d="M317.5,453.5c6.2,3.7,16.7,11.3,23.7,24.5c12,22.6,10.4,54.8-2.6,60.8c-7.3,3.4-17.1-2-19.1-3.1
		c-8.8-4.8-12.5-12.7-14.3-16.6C293.4,493.6,316,455.9,317.5,453.5z"/>
	
		<linearGradient id="SVGID_67_" gradientUnits="userSpaceOnUse" x1="348.7498" y1="403.8121" x2="410.1698" y2="403.8121" gradientTransform="matrix(0.2482 0.9243 -0.9817 0.2636 676.2748 36.0954)">
		<stop  offset="0.4832" style="stop-color:#119A89"/>
		<stop  offset="0.9615" style="stop-color:#224193"/>
	</linearGradient>
	<path class="st70" d="M399.3,456.2c1.4,6.8,3,19.1-1.7,32.6c-7.9,23.1-31.3,42.9-43.9,37.7c-7.1-2.9-9.7-13.3-10.2-15.5
		c-2.3-9.3,0.7-17,2.3-20.8C355.9,465.3,396.7,456.8,399.3,456.2z"/>
	
		<linearGradient id="SVGID_68_" gradientUnits="userSpaceOnUse" x1="380.967" y1="398.4594" x2="442.387" y2="398.4594" gradientTransform="matrix(-0.7388 0.6084 -0.6461 -0.7847 933.6932 602.2693)">
		<stop  offset="0.4832" style="stop-color:#119A89"/>
		<stop  offset="0.9615" style="stop-color:#224193"/>
	</linearGradient>
	<path class="st71" d="M416.3,547.8c-5.6,4.1-16.2,10.6-30.4,12c-24.3,2.4-52-10.8-52.4-24.4c-0.2-7.6,8.1-14.3,9.9-15.7
		c7.5-6,15.8-6.4,19.9-6.6C390.1,511.9,414.7,545.5,416.3,547.8z"/>
	<linearGradient id="SVGID_69_" gradientUnits="userSpaceOnUse" x1="166.84" y1="228.055" x2="214.35" y2="228.055">
		<stop  offset="0" style="stop-color:#A1B03A"/>
		<stop  offset="0.9464" style="stop-color:#1F5F1D"/>
	</linearGradient>
	<path class="st72" d="M183,243.7c-5.8,2.4-9.9,5.2-16.1,9c0.6-7.8,2.2-15.5,4.8-22.3c5.9-15.2,16.1-23.3,22.2-27.2
		c1.3,2.1,15,25,20.5,48.7c-4.8-4.8-7.6-10.6-14.9-12.1C194.6,238.9,190.7,240.5,183,243.7z"/>
	<linearGradient id="SVGID_70_" gradientUnits="userSpaceOnUse" x1="166.95" y1="279.0284" x2="216.6021" y2="279.0284">
		<stop  offset="0" style="stop-color:#A1B03A"/>
		<stop  offset="0.9464" style="stop-color:#1F5F1D"/>
	</linearGradient>
	<path class="st73" d="M214.6,283.5c-0.9,2.7-2.2,6.9-5,10.9c-1.9,2.8-4.6,5.6-8.2,7.7c-2,1.2-11.8,6.7-19.9,1.9
		c-7.9-4.7-13.2-18.5-14.6-34.4c4.1-7,7.9-12.9,15-15.8c9.5-3.8,19.2-0.1,24.6,1.9c4.7,1.8,7.1,3.6,9.4,5.2c0.2,1.6,0.4,3.3,0.5,4.9
		C216.9,272.1,216.4,278.1,214.6,283.5z"/>
	<linearGradient id="SVGID_71_" gradientUnits="userSpaceOnUse" x1="101.2804" y1="590.3149" x2="157.19" y2="590.3149">
		<stop  offset="0" style="stop-color:#A1B03A"/>
		<stop  offset="0.9464" style="stop-color:#1F5F1D"/>
	</linearGradient>
	<path class="st74" d="M157.2,612.8c-2.3,0.6-4.4,0.8-6,0.9c-8.8,0.6-20.4,1.5-34.3,2.4c-6.2-7.3-11.3-16-13.8-24.6
		c-3.5-12.2-0.9-21.8,1-27c2.6,1.1,43.2,18.3,51.2,41.1C155.9,607.3,156.8,609.9,157.2,612.8z"/>
	<linearGradient id="SVGID_72_" gradientUnits="userSpaceOnUse" x1="279.0797" y1="242.8164" x2="318.88" y2="242.8164">
		<stop  offset="0" style="stop-color:#A1B03A"/>
		<stop  offset="0.9464" style="stop-color:#1F5F1D"/>
	</linearGradient>
	<path class="st75" d="M318.9,236.9c-0.4,0.5-3.9,4.4-8.8,8.4c-5.4,4.4-12.5,8.9-19.1,8.8c-0.7,0-1.5,0-2.5-0.2
		c-1.6-1.3-3.4-2.3-6-3.2c-0.1-0.1-0.3-0.1-0.4-0.1c-0.2-0.1-0.4-0.1-0.6-0.2c-0.2-0.2-0.3-0.4-0.5-0.6c-1.1-1.4-2.4-3.6-1.9-6
		c0.9-4,6.5-8,13.3-10.3c4.3-1.5,9.1-2.3,13.4-2C312.3,232.1,316.7,235,318.9,236.9z"/>
	<linearGradient id="SVGID_73_" gradientUnits="userSpaceOnUse" x1="282.58" y1="255.8407" x2="330.63" y2="255.8407">
		<stop  offset="0" style="stop-color:#A1B03A"/>
		<stop  offset="0.9464" style="stop-color:#1F5F1D"/>
	</linearGradient>
	<path class="st76" d="M330.6,263.7c-1.1,0.4-13,4.7-24.6,4.9c-10.6-5.6-12.8-10.9-17.5-14.7c-1.6-1.3-3.4-2.3-6-3.2
		c0.2-1.3,0.6-2.7,1.6-3.8c4-4.7,15.6-5,25.9-1.6c3.5,1.1,6.8,2.6,9.6,4.6C326.4,254.4,329.3,260.3,330.6,263.7z"/>
	<linearGradient id="SVGID_74_" gradientUnits="userSpaceOnUse" x1="388.2901" y1="556.9893" x2="446.4269" y2="556.9893">
		<stop  offset="0" style="stop-color:#4981BA"/>
		<stop  offset="0.4592" style="stop-color:#C498BD"/>
	</linearGradient>
	<path class="st77" d="M395.6,598.9c5.6-1.7,13.8-5,21.6-11.9c1.2-1.1,3.4-3.1,9.6-10.6c4.3-5.3,18-22.1,16.8-23.3
		c-0.9-0.9-10.5,7-43.8,39.3c2.9-3.6,6.4-8.2,10.3-13.7c22.5-31.2,37.7-62.7,36.1-63.6c-1.2-0.7-12.7,15.3-50.9,75.3
		c5.8-12.1,11.6-24.2,17.4-36.3c3-7,6-14.1,9-21.1c-7.3,9-12.9,17-17,23.2c-5.6,8.6-2.6,5-9.6,16.3c-2.4,3.9-5.8,9.2-6.8,16.3
		c-0.4,2.8-0.3,5.1,1.1,7C391.5,598.4,394.6,598.8,395.6,598.9z"/>
	
		<linearGradient id="SVGID_75_" gradientUnits="userSpaceOnUse" x1="445.7759" y1="266.9635" x2="492.2291" y2="266.9635" gradientTransform="matrix(1.264 -0.3533 0.3728 1.3337 -226.0167 105.3396)">
		<stop  offset="0" style="stop-color:#4981BA"/>
		<stop  offset="0.4592" style="stop-color:#C498BD"/>
	</linearGradient>
	<path class="st78" d="M470.6,395.5c4.6-5.4,10.8-15.2,14.4-32.6c0.6-2.8,1.5-8,3-26.5c1-13,4.4-54.6,2.5-56.8
		c-1.5-1.7-6.3,18.5-19.7,100.2c0.6-8.9,1.3-20.2,1.9-33.5c3.2-76.1-1.1-150.8-3.3-152.4c-1.6-1.2-3.3,37.9-4.4,182.8
		c-1.7-28.7-3.4-57.3-5.1-86c-1.4-16.6-2.7-33.2-4.1-49.8c-1.8,22.2-2.4,41.7-2.6,56.6c-0.3,20.7,0.5,11.9,0.5,39.2
		c0,9.4-0.1,22.1,3.4,38.5c1.3,6.3,2.9,11.5,5.5,15.4C466.1,395.6,469.5,395.6,470.6,395.5z"/>
	
		<linearGradient id="SVGID_76_" gradientUnits="userSpaceOnUse" x1="278.1156" y1="430.5051" x2="324.5688" y2="430.5051" gradientTransform="matrix(1.264 -0.3533 0.2615 0.9356 -197.2894 208.1191)">
		<stop  offset="0" style="stop-color:#A1B03A"/>
		<stop  offset="0.9464" style="stop-color:#1F5F1D"/>
	</linearGradient>
	<path class="st79" d="M292.6,576.3c4.9-4.3,11.7-11.8,16.6-24.7c0.8-2,2.1-5.9,5-19.4c2-9.5,8.5-39.8,6.8-41.3
		c-1.3-1.1-7.6,13.9-27,74c1.3-6.5,2.9-14.7,4.5-24.3c9-55.3,10.6-108.9,8.6-109.9c-1.5-0.8-6.1,27.7-18.4,132.5
		c0.5-20.6,1.1-41.2,1.6-61.8c0-11.9-0.1-23.8-0.1-35.7c-3.5,16.2-5.6,30.3-7,41.2c-1.9,15-0.4,8.6-2.5,28.3
		c-0.7,6.8-1.8,16,0.3,27.5c0.8,4.5,1.9,8.1,4.2,10.7C288.2,576.7,291.5,576.4,292.6,576.3z"/>
	<linearGradient id="SVGID_77_" gradientUnits="userSpaceOnUse" x1="357.6554" y1="612.564" x2="359.7337" y2="611.3641">
		<stop  offset="1.396648e-02" style="stop-color:#2D6833"/>
		<stop  offset="0.9464" style="stop-color:#C6A251"/>
	</linearGradient>
	<path class="st80" d="M360.7,614.5c-1.1,0-1.9-0.2-2.1-0.3c-0.4-1.7-0.9-3.4-1.3-5.1c0.1,0,0.2,0.1,0.3,0.1
		C359.5,610,360.3,612.3,360.7,614.5z"/>
	<linearGradient id="SVGID_78_" gradientUnits="userSpaceOnUse" x1="340.8893" y1="612.2375" x2="350.4087" y2="606.7414">
		<stop  offset="1.396648e-02" style="stop-color:#2D6833"/>
		<stop  offset="0.9464" style="stop-color:#C6A251"/>
	</linearGradient>
	<path class="st81" d="M349.6,605.4c0.1,3,0.4,10.9,0.4,10.9c-0.5,1.2-1.1,1.9-1.6,2.3c-0.5,0.4-0.9,0.5-1,0.5
		c-2.1,0.3-5-2.8-6.6-8.2c-1.1-2.5-2.3-5-3.4-7.6C340.4,602.7,346.8,604.5,349.6,605.4z"/>
	<linearGradient id="SVGID_79_" gradientUnits="userSpaceOnUse" x1="321.4445" y1="606.8275" x2="324.28" y2="605.1903">
		<stop  offset="1.396648e-02" style="stop-color:#2D6833"/>
		<stop  offset="0.9464" style="stop-color:#C6A251"/>
	</linearGradient>
	<path class="st82" d="M324,604.7c-0.2,0.8-0.7,2.2-1.8,3.5c0-0.5,0-0.9,0.1-1.4c0-0.9,0.1-1.7,0.2-2.5
		C323.5,604.6,324,604.7,324,604.7z"/>
	<linearGradient id="SVGID_80_" gradientUnits="userSpaceOnUse" x1="324.2196" y1="620.0016" x2="336.5245" y2="612.8974">
		<stop  offset="1.396648e-02" style="stop-color:#2D6833"/>
		<stop  offset="0.9464" style="stop-color:#C6A251"/>
	</linearGradient>
	<path class="st83" d="M332.5,609.1c2.4,3.7,4.8,7.3,7.2,11c-1.5,0.6-5.5,2-10.3,0.8c-3-0.7-5.2-2.2-6.4-3.1
		c-0.3-1.6-0.5-3.5-0.7-5.6l3.7-1.3c0,0,3.4-2.7,6.6-4.9C332.6,607.1,332.5,608.1,332.5,609.1z"/>
	<linearGradient id="SVGID_81_" gradientUnits="userSpaceOnUse" x1="311.6127" y1="620.2166" x2="319.6574" y2="615.572">
		<stop  offset="1.396648e-02" style="stop-color:#2D6833"/>
		<stop  offset="0.9464" style="stop-color:#C6A251"/>
	</linearGradient>
	<path class="st84" d="M314.9,614.8l3.6-1.2c-0.6,2.3-1.3,4.3-2,5.7c-0.6,0.9-1.2,1.8-1.8,2.7c-1.2-0.7-2.2-1.4-3.1-2.1
		C308.7,617.7,314.9,614.8,314.9,614.8z"/>
	<linearGradient id="SVGID_82_" gradientUnits="userSpaceOnUse" x1="299.0841" y1="616.053" x2="319.8334" y2="604.0735">
		<stop  offset="1.396648e-02" style="stop-color:#2D6833"/>
		<stop  offset="0.9464" style="stop-color:#C6A251"/>
	</linearGradient>
	<path class="st85" d="M319.1,610.7c-1.4,0.6-2.7,0.8-3.2,0.9c-1.3,0.3-3.2,1-5.2,2.4c-3,2.2-3.9,4.5-5.1,6.8
		c-3.4-1.5-5.6-3.6-6.7-4.9c2.3-2.9,4.6-5.9,6.9-8.8c0.4-1.4,0.8-2.8,1.2-4.2c4.8-0.5,9.3,0.1,12.5,0.7v0
		C319.7,606.2,319.5,608.6,319.1,610.7z"/>
	<linearGradient id="SVGID_83_" gradientUnits="userSpaceOnUse" x1="285.614" y1="614.67" x2="303.3708" y2="604.4182">
		<stop  offset="1.396648e-02" style="stop-color:#2D6833"/>
		<stop  offset="0.9464" style="stop-color:#C6A251"/>
	</linearGradient>
	<path class="st86" d="M294.7,607.5c2.5-2,5.4-3.2,8.3-3.9l-7.8,7.7c-2.6,1-5.2,1.9-7.8,2.9c-0.5,0-1.1,0.1-1.9,0
		C288.3,612.3,291.5,610,294.7,607.5z"/>
	<linearGradient id="SVGID_84_" gradientUnits="userSpaceOnUse" x1="277.924" y1="614.368" x2="361.5231" y2="566.1021">
		<stop  offset="1.396648e-02" style="stop-color:#2D6833"/>
		<stop  offset="0.9464" style="stop-color:#C6A251"/>
	</linearGradient>
	<path class="st87" d="M368,607.5c0,0,0,0.1,0,0.2c-3.9-0.7-7.4-1.7-11.8-2.7c-0.3-1.1-0.6-2.2-0.9-3.3c0,0-8.3-12.4-9.2-11.9
		c-0.1,0-0.1,0.2-0.1,0.2c0,2.1,2.3,9.7,3.3,13.4c-3.5-0.7-7.7-1.5-12.9-2.2c-1.1-2.6-2.3-5.1-3.4-7.6c-0.1,2.4-0.2,4.8-0.3,7.1
		c-1.6-0.2-3.3-0.4-5-0.6c-1.5-0.2-3-0.3-4.4-0.4c0.4-1.7,0.8-3.3,1.3-4.6c-2.3-0.3-4.5-0.7-6.8-1c0.5,1.5,1,3.3,1.3,5.3
		c-3.8-0.2-7.4-0.2-11.1,0.1c0.1-0.4,0.2-0.8,0.4-1.2l-1.4,1.4c-3.5,0.4-7,1.1-10.7,2.3c-7.2,2.3-9.5,4.6-18.7,9.7
		c-1.5-1.1-2.5-2.2-3-2.9c-0.1-1.2,0-3,0.8-5.1c1.5-4,4.8-5.9,5.8-6.5c7.4-0.6,14.8-1.3,22.2-1.9c0.9-1.8,0.7-2.8,0.4-3.3
		c-1.6-3-9,2.1-19-0.2c0,0-9.3-2.1-11.8,0c0,0-0.1,0.1-0.2,0.1c-0.5-0.2,0.2-4.8,1.8-8.3c0.8-1.6,2.2-4.1,5.3-6.6
		c7.2,1.9,14.5,3.7,21.7,5.6c2.3,0.1,4.7,0.2,7,0.3c-0.7-1.4-1.3-2.7-2-4.1c-4.1-1-8.2-1.9-12.3-2.9l-0.8-0.3l-9.2-3.5
		c0.3-1,1.3-4.3,4.7-6.8c1.9-1.4,3.9-2,5.4-2.3c0.1,0,0.2,0,0.3,0c1.1-0.2,1.9-0.2,2.4-0.2c1.6,0.9,3.3,1.8,5.1,2.8
		c2.3,1.3,4.7,2.8,7.1,4.5c3,2.1,5.7,4.1,8.1,6.2c1.4-0.3,2.7-0.6,4.1-1l-12.9-13.5l-3.4-1.1l-3.7-1.2c0.3-0.9,1.9-5.4,6.5-7.5
		c0.1,0,0.6-0.3,1.4-0.5c1.8-0.6,5.2-1.2,8.4,0.3c9,4.1,7.9,20.3,12.6,20.6c0.8,0,2-0.3,3.8-3c-1.4-2.8-2.8-5.7-4.2-8.5
		c-0.1-3.8-0.1-7.6-0.2-11.3c3.7-2.7,6.6-3.8,8.7-4.2c2.1-0.4,3.5,0,4.5,0.4c1.5,0.6,2,1.5,5.2,6.6v0c0.8,1.2,1.7,2.7,2.9,4.5
		c3.5,5.5,4.4,6.6,5.3,7.6c3.1,3.6,6.3,5.9,8.5,7.2c-0.1,3-0.2,6.1-0.2,9.1l1.5,10.1C366.7,596.4,367.3,601.9,368,607.5z"/>
</g>
</svg>
