<?xml version="1.0" encoding="utf-8"?>
<!-- Generator: Adobe Illustrator 23.1.0, SVG Export Plug-In . SVG Version: 6.00 Build 0)  -->
<svg version="1.1" xmlns="http://www.w3.org/2000/svg" xmlns:xlink="http://www.w3.org/1999/xlink" x="0px" y="0px"
	 viewBox="0 0 612 792" style="enable-background:new 0 0 612 792;" xml:space="preserve">
<style type="text/css">
	.st0{fill:url(#SVGID_1_);}
	.st1{fill:url(#SVGID_2_);}
	.st2{fill:url(#SVGID_3_);}
	.st3{fill:url(#SVGID_4_);}
	.st4{fill:url(#SVGID_5_);}
	.st5{fill:url(#SVGID_6_);}
	.st6{fill:url(#SVGID_7_);}
	.st7{fill:url(#SVGID_8_);}
	.st8{fill:url(#SVGID_9_);}
	.st9{fill:url(#SVGID_10_);}
	.st10{fill:url(#SVGID_11_);}
	.st11{fill:url(#SVGID_12_);}
	.st12{fill:url(#SVGID_13_);}
	.st13{fill:url(#SVGID_14_);}
	.st14{fill:url(#SVGID_15_);}
	.st15{fill:url(#SVGID_16_);}
	.st16{fill:url(#SVGID_17_);}
	.st17{fill:url(#SVGID_18_);}
	.st18{fill:url(#SVGID_19_);}
	.st19{fill:url(#SVGID_20_);}
	.st20{fill:url(#SVGID_21_);}
	.st21{fill:url(#SVGID_22_);}
	.st22{fill:url(#SVGID_23_);}
	.st23{fill:url(#SVGID_24_);}
	.st24{fill:url(#SVGID_25_);}
	.st25{fill:url(#SVGID_26_);}
	.st26{fill:url(#SVGID_27_);}
	.st27{fill:url(#SVGID_28_);}
	.st28{fill:url(#SVGID_29_);}
	.st29{fill:url(#SVGID_30_);}
	.st30{fill:url(#SVGID_31_);}
	.st31{fill:url(#SVGID_32_);}
	.st32{fill:url(#SVGID_33_);}
	.st33{fill:url(#SVGID_34_);}
	.st34{fill:url(#SVGID_35_);}
	.st35{fill:url(#SVGID_36_);}
	.st36{fill:url(#SVGID_37_);}
	.st37{fill:url(#SVGID_38_);}
	.st38{fill:url(#SVGID_39_);}
	.st39{fill:url(#SVGID_40_);}
	.st40{fill:url(#SVGID_41_);}
	.st41{fill:url(#SVGID_42_);}
	.st42{fill:url(#SVGID_43_);}
	.st43{fill:url(#SVGID_44_);}
	.st44{fill:url(#SVGID_45_);}
	.st45{fill:url(#SVGID_46_);}
	.st46{fill:url(#SVGID_47_);}
	.st47{fill:url(#SVGID_48_);}
	.st48{fill:url(#SVGID_49_);}
	.st49{fill:url(#SVGID_50_);}
	.st50{fill:url(#SVGID_51_);}
	.st51{fill:url(#SVGID_52_);}
	.st52{fill:url(#SVGID_53_);}
	.st53{fill:url(#SVGID_54_);}
	.st54{fill:url(#SVGID_55_);}
	.st55{fill:url(#SVGID_56_);}
	.st56{fill:url(#SVGID_57_);}
	.st57{fill:#FFFFFF;}
	.st58{fill:url(#SVGID_58_);}
	.st59{fill:url(#SVGID_59_);}
	.st60{fill:url(#SVGID_60_);}
	.st61{fill:url(#SVGID_61_);}
	.st62{fill:url(#SVGID_62_);}
	.st63{fill:url(#SVGID_63_);}
	.st64{fill:url(#SVGID_64_);}
	.st65{fill:#E3E8E6;}
	.st66{fill:url(#SVGID_65_);}
	.st67{opacity:0.21;fill:url(#SVGID_66_);}
	.st68{fill:#A5AFAB;}
	.st69{fill:url(#SVGID_67_);}
	.st70{fill:url(#SVGID_68_);}
	.st71{fill:url(#SVGID_69_);}
	.st72{fill:url(#SVGID_70_);}
	.st73{fill:url(#SVGID_71_);}
	.st74{fill:url(#SVGID_72_);}
	.st75{fill:url(#SVGID_73_);}
	.st76{fill:url(#SVGID_74_);}
	.st77{fill:url(#SVGID_75_);}
	.st78{fill:url(#SVGID_76_);}
	.st79{fill:url(#SVGID_77_);}
	.st80{fill:url(#SVGID_78_);}
	.st81{fill:url(#SVGID_79_);}
	.st82{fill:url(#SVGID_80_);}
	.st83{fill:url(#SVGID_81_);}
	.st84{fill:url(#SVGID_82_);}
	.st85{fill:url(#SVGID_83_);}
	.st86{fill:url(#SVGID_84_);}
	.st87{fill:url(#SVGID_85_);}
	.st88{fill:url(#SVGID_86_);}
	.st89{fill:url(#SVGID_87_);}
	.st90{fill:url(#SVGID_88_);}
	.st91{fill:url(#SVGID_89_);}
	.st92{fill:url(#SVGID_90_);}
	.st93{fill:url(#SVGID_91_);}
</style>
<g id="Layer_3">
	<radialGradient id="SVGID_1_" cx="314.7389" cy="362.5858" r="216.4403" gradientUnits="userSpaceOnUse">
		<stop  offset="0.348" style="stop-color:#FED8BA"/>
		<stop  offset="0.6207" style="stop-color:#F1C2AC"/>
		<stop  offset="1" style="stop-color:#CA6875"/>
	</radialGradient>
	<path class="st0" d="M481.1,331.1c-25,11.5-56.3,47-76.8,72.7c-2.8,3.5-5.3,6.8-7.7,9.8l0,0c-5.6,7.3-9.8,13-12,16.2v0
		c-1.2,1.7-1.9,2.7-1.9,2.7l-46.4,25.2L306.5,474l-16.2,8.8c0,0-2.9,2.6-8,6.7c-0.7,0.6-1.5,1.2-2.3,1.8c-5.9,4.6-14,10.8-23.8,17.3
		c-7.9,5.3-16.9,10.8-26.5,16c-10.5,5.6-21.8,10.8-33.4,14.9c-9.4,3.3-19,5.8-28.7,7.2c-61.3,8.9-42.8-89.4-84.9-131.5
		c-16.1-16.1-14-33-5.9-50.5c2.1-4.6,4.7-9.3,7.5-14c1-1.8,2.1-3.6,3.2-5.4c2.3-3.8,4.7-7.6,7.1-11.4c1.3-2.2,2.7-4.3,4-6.5
		c2.7-4.5,5.3-9.1,7.5-13.7c6.3-12.8,10.2-25.7,7.8-38.9c-8.9-50.3,59.4-19.9,77.9-76.1c18.5-56.2,157.7,20.4,157.7,20.4
		s37,26.2,44.7,42.8c7.7,16.6,50.4-30,80.9-62.6c10.2-10.9,19.2-12.3,27.6-8.2c0.5,0.2,1,0.5,1.5,0.8c0.9,0.5,1.9,1.1,2.8,1.7
		c2.4,1.6,4.7,3.7,7,6c0.5,0.5,1,1,1.4,1.5c0.3,0.4,0.7,0.7,1,1.1c8.9,9.8,17.5,23.4,26.9,35.5c1.1,1.4,2.2,2.8,3.3,4.2
		c1.7,2.1,3.5,4.2,5.3,6.1C578.8,277,522,312.3,481.1,331.1z"/>
	<linearGradient id="SVGID_2_" gradientUnits="userSpaceOnUse" x1="407.8746" y1="414.7045" x2="493.306" y2="562.676">
		<stop  offset="0.1022" style="stop-color:#FED8BA"/>
		<stop  offset="0.5888" style="stop-color:#CA6875"/>
	</linearGradient>
	<path class="st1" d="M509.2,502.5c-0.8,16.9,21.8,22.9,20.4,33.9c-1.9,15.4-49.1,26.7-86.4,18.7c-11.6-2.5-20.5-6.5-23.5-7.9
		c-9.4-4.4-20.2-9.4-28.8-17.5c-3.1-2.9-5.9-6.2-8.2-9.9c-1.8-2.9-3.6-6.5-8-9.3c-0.8-0.5-3.4-2.1-8.4-2.7c-2.7-0.3-6-0.4-10.1,0.1
		c-14.3,1.8-15.7,7.9-27.2,8.7c-7.7,0.5-18.8-1.6-20.4-7c-1.5-5.1,5.3-13,16.8-18.8c0.2-0.1,0.4-0.2,0.6-0.3
		c6.1-7.1,16.2-17,31-23.9c0.8-0.4,1.7-0.8,2.5-1.1c2.1-0.9,4.1-1.7,6-2.3c12.6-4,20-2,30-5.2c2-0.6,4.1-1.5,6.3-2.6
		c0.6-0.3,1.2-0.6,1.7-0.9c6.5-3.7,10.2-8,13.3-13.1c0.3-0.5,0.7-1.1,1-1.7c1.7-2.9,3.2-6.2,5-9.7c4.3-8.5,9.9-18.7,22-31.2
		c4.8-4.9,20.2-20,44.5-29.7c11.7-4.6,28.9-10,41.8-3.1c3.8,2,7,6.2,9.1,13.9c6.1,22.4,16.2,31.6,16.3,43.9
		c0.1,6.9-2.8,11.3-7.4,20.2c-7.6,14.8-14.2,18-29.4,39.2C509.7,497.5,509.3,500.9,509.2,502.5z"/>
	<linearGradient id="SVGID_3_" gradientUnits="userSpaceOnUse" x1="282.1497" y1="504.1693" x2="282.1497" y2="541.3135">
		<stop  offset="0" style="stop-color:#FED8BA"/>
		<stop  offset="0.7101" style="stop-color:#CA6875"/>
	</linearGradient>
	<path class="st2" d="M308.4,534.4c-1.3,1.3-3.4,3-8.5,4.6c-4.8,1.5-12.6,3.9-21.1,1c-5.5-1.8-4.6-3.6-9.4-4.8
		c-8.7-2.1-15.1,2.5-17-0.1c-0.9-1.2,0-3.1,1.6-7c1.8-4.4,4.1-7.4,5.1-8.8c0.5-0.7,1.1-1.4,1.6-2.1c3.5-4.5,7.4-8.9,13.6-11.3
		c3.3-1.3,5.6-2.3,8.3-1.5c4,1.2,4.1,4.9,9.7,9.6c0.7,0.6,1.6,1.2,2.8,2c1.4,0.9,3.3,1.9,5.8,3.3c8.3,4.7,10.8,5.2,11.3,7.7
		C312.7,530,309.8,533,308.4,534.4z"/>
	<linearGradient id="SVGID_4_" gradientUnits="userSpaceOnUse" x1="339.8328" y1="203.9755" x2="346.5363" y2="192.3645">
		<stop  offset="0.1022" style="stop-color:#FED8BA"/>
		<stop  offset="0.5888" style="stop-color:#CA6875"/>
	</linearGradient>
	<path class="st3" d="M333.3,194.3c0,0,15.6-4.8,15.8,0.8c0.1,4.4,3.6,4.7,4.1,6.6c0.1,0.6-0.1,1.1-0.4,1.9
		c-0.7,1.7-2.6,4.6-4.5,4.5c-1.7-0.1-1.5-2.4-4.2-4c-2.4-1.5-3.4-0.1-6.6-1.5c0,0-4-1.8-5.2-5.6c-0.1-0.5-0.4-1.4,0-2
		C332.5,194.5,333,194.4,333.3,194.3z"/>
	<linearGradient id="SVGID_5_" gradientUnits="userSpaceOnUse" x1="380.3546" y1="232.7607" x2="389.8701" y2="216.2793">
		<stop  offset="0.1022" style="stop-color:#FED8BA"/>
		<stop  offset="0.5888" style="stop-color:#CA6875"/>
	</linearGradient>
	<path class="st4" d="M392.4,218.8c0.1,0.3,0.3,0.7-0.1,1.5c-2.6,6.8-2.4,7.7,1.7,11.7c4.1,4,8.2,7.8,4.3,7.8
		c-3.9,0-7.3,0.5-9.9-3.4c-2.6-3.8-15.3-9.7-15.8-11.4c-1.3-5.1-7.2-5.6-6.7-7.7c0.3-1.1,1.2-1.8,1.5-2.1
		C373,211.1,391,214.2,392.4,218.8z"/>
	<linearGradient id="SVGID_6_" gradientUnits="userSpaceOnUse" x1="515.1791" y1="327.7637" x2="534.2209" y2="327.7637">
		<stop  offset="0" style="stop-color:#FED8BA"/>
		<stop  offset="0.3341" style="stop-color:#CA6875"/>
	</linearGradient>
	<path class="st5" d="M530.9,341.6c0,0-18.9,0.2-15.3-8.3c2.9-6.7-0.4-8.8,0.4-11.8c0.3-1,0.8-1.6,1.7-2.7c1.9-2.3,5.7-5.8,7.6-4.7
		c1.6,1-0.1,4.3,1.4,7.9c1.4,3.3,3.3,1.7,5.6,5.3c0,0,2.8,4.5,1.5,10.8c-0.2,0.8-0.5,2.3-1.4,3.1
		C531.8,341.6,531.3,341.7,530.9,341.6z"/>
	<linearGradient id="SVGID_7_" gradientUnits="userSpaceOnUse" x1="105.6256" y1="302.6388" x2="66.5812" y2="302.6388">
		<stop  offset="0" style="stop-color:#FED8BA"/>
		<stop  offset="0.7101" style="stop-color:#CA6875"/>
	</linearGradient>
	<path class="st6" d="M104.7,304.2c-0.6,1.1-1.5,2.1-2.9,3c-1.5,1-2.8,2-3.8,3c-3.4,3.2-4.6,6.3-5.4,8.9c-0.8,2.8-1.2,5.1-3.1,6.8
		c-1.2,1.2-2.6,1.6-4.7,2.2c-0.2,0.1-0.5,0.1-0.8,0.2c-2,0.6-4.6,1.2-7.3,1.4c-4.2,0.4-8.3,0.1-9.8-2.1c-0.1-0.1-0.1-0.2-0.2-0.4
		c-0.3-0.6-0.4-1.2-0.3-1.8c0.4-2.5,3.5-5.3,5-9.8c0,0,0,0,0,0c0.3-0.9,0.5-1.9,0.7-2.9c1-7-3.9-6.6-4.1-15c0,0-0.3-10.6,8.2-19.3
		c0.6-0.6,1.5-1.5,2.6-2.3c0.8-0.5,1.8-1,2.7-1.1c1.4-0.2,2.4,0.5,2.9,0.9c0,0,0.8,0.6,2.2,1.6c2.6,1.9,7.1,5.5,11.1,9.5
		c1.8,1.9,3.6,4,4.9,6C105.4,297.1,106.6,301,104.7,304.2z"/>
</g>
<g id="Layer_4">
	
		<linearGradient id="SVGID_8_" gradientUnits="userSpaceOnUse" x1="335.0084" y1="345.3733" x2="420.2799" y2="293.7212" gradientTransform="matrix(1.4393 0.6125 0.8788 -2.0651 -640.636 866.1025)">
		<stop  offset="0.4832" style="stop-color:#119A89"/>
		<stop  offset="0.9615" style="stop-color:#224193"/>
	</linearGradient>
	<path class="st7" d="M239.4,497.5c5-7.8,19.9-32.6,18.5-58.4c-0.2-4.1-0.8-7.8-1.7-11.1c-7.3-10.2-13.3-10.9-17.4-9.6
		c-6.9,2.2-12.7,11-16.8,8.7c-1.5-0.8-2.4-2.8-2.5-4.8c-0.3-4.4,3.4-7,4.8-13.2c0.1-0.6,1.4-6.8-1.1-11.1c-2.4-4.1-7.7-5.4-11.8-2.4
		c-1,0.7-1.8,1.6-2.3,2.3c-6,3.3-8.5,2.2-9.6,1.2c-2.3-2-1.7-6.3-2.3-15.3c-0.4-6.1-1.1-10.9-1.6-13.9c-2.6-5.1-6.9-7.3-11.1-5.7
		c-3.7,1.4-6.3,5.4-7.1,6.7c-6.2,9.8-4,21.7-5.9,22.6c-1.3,0.7-3-4.3-4.9-10c-2.7-8.5-4.8-15.7-6.3-21.1c-2.1-5.7-6.1-8.6-10.5-7.4
		c-3.3,0.9-5.8,4-7.1,5.6c-5.7,7.1-6.8,16.3-7.2,20.3c-0.7,6.2-0.1,10.6,0.5,14.4c1.9,12.4,6.1,16.2,3.7,23.7c-0.4,1.1-1.3,4-3,5.1
		c-2.9,1.8-4.6-2.9-7.9-2.1c-4.3,1-10,11.2-10.3,19.9c-0.3,7.8,3.6,13.7,8.4,15.7c7.4,3.1,14.7-4.4,18.6,0.7
		c1.2,1.5,2.2,4.4,1.2,6.8c-1.6,3.8-7,2.8-10.6,8c-1.6,2.3-3,6.2-2.6,9.2c0.8,5.3,6.9,4.8,20.4,10.7c4.4,2,7.1,3.5,6.7,5.2
		c-0.6,2.6-7.1,1.8-10.8,7.4c-3.7,5.6-3,15.4,0.3,20.7c2.4,3.7,5.8,4.7,7.3,5.1c34.1,8.9,58.8-9.4,58.8-9.4
		C221.4,518,230.3,510.5,239.4,497.5z"/>
	
		<linearGradient id="SVGID_9_" gradientUnits="userSpaceOnUse" x1="455.2563" y1="446.0484" x2="548.3381" y2="446.0484" gradientTransform="matrix(-1.1379 -0.2323 -0.2968 1.4543 1165.7969 -43.0513)">
		<stop  offset="0" style="stop-color:#4981BA"/>
		<stop  offset="0.4592" style="stop-color:#C498BD"/>
	</linearGradient>
	<path class="st8" d="M413.5,465.7c-2.3,5.7-9.1,23.7-3.8,40.4c0.8,2.6,1.9,5,3,7c6.9,5.8,11.3,5.6,14.1,4.3
		c4.6-2.2,7.3-8.7,10.7-7.7c1.2,0.4,2.2,1.5,2.6,2.9c0.9,2.9-1.3,5-1.3,9.2c0,0.4,0.1,4.6,2.6,7.1c2.4,2.4,6.4,2.6,8.9,0.2
		c0.6-0.6,1-1.3,1.3-1.8c3.8-2.9,5.8-2.4,6.7-1.9c2,1.1,2.3,3.9,4.1,9.7c1.3,3.9,2.5,7,3.4,8.9c2.7,3,6.1,4,9,2.4
		c2.4-1.4,3.6-4.3,4-5.2c2.9-7.1-0.7-14.6,0.6-15.5c0.8-0.6,2.9,2.4,5.1,6c3.4,5.2,6.1,9.7,8,13c2.4,3.5,5.8,4.9,8.8,3.6
		c2.2-1,3.5-3.3,4.2-4.5c3-5.3,2.2-11.5,1.9-14.1c-0.5-4.1-1.7-6.9-2.7-9.4c-3.4-7.9-7-9.9-6.5-15.1c0.1-0.8,0.3-2.7,1.4-3.7
		c1.8-1.5,3.8,1.4,6,0.5c3-1.2,5.3-8.5,4.2-14.2c-1-5.1-4.9-8.6-8.6-9.3c-5.8-1.1-9.9,4.6-13.5,1.7c-1.1-0.9-2.3-2.6-2-4.3
		c0.5-2.7,4.6-2.6,6.3-6.4c0.8-1.7,1.2-4.4,0.4-6.3c-1.4-3.4-5.8-2.3-16.5-4.6c-3.5-0.8-5.7-1.4-5.7-2.6c0-1.8,4.9-2,6.6-6.1
		c1.8-4.1-0.3-10.4-3.6-13.5c-2.3-2.2-4.9-2.4-6.1-2.5c-26-1.8-40.9,13-40.9,13C423.1,450.2,417.9,456.2,413.5,465.7z"/>
	<g>
		
			<linearGradient id="SVGID_10_" gradientUnits="userSpaceOnUse" x1="83.6585" y1="623.0779" x2="118.2882" y2="623.0779" gradientTransform="matrix(-0.6808 0.6524 0.6422 0.6702 104.9145 -203.8687)">
			<stop  offset="2.717173e-07" style="stop-color:#DA565C"/>
			<stop  offset="0.9567" style="stop-color:#A1474C"/>
		</linearGradient>
		<path class="st9" d="M436.5,256.2c0,0-12.7,34.5-2.3,44.8c0.5,0.5,1.9,2,3.3,0.8c3.2-2.7,3.6-16.8,3.6-18.9
			C441.3,276.7,440.8,266.6,436.5,256.2z"/>
		
			<linearGradient id="SVGID_11_" gradientUnits="userSpaceOnUse" x1="125.4648" y1="469.9512" x2="154.7817" y2="469.9512" gradientTransform="matrix(-0.8511 0.4059 0.3996 0.8378 382.4212 -203.1789)">
			<stop  offset="2.717173e-07" style="stop-color:#DA565C"/>
			<stop  offset="0.9567" style="stop-color:#A1474C"/>
		</linearGradient>
		<path class="st10" d="M455.6,225.2c0,0-18.7,26.4-10.9,41.4c0.4,0.7,1.4,2.8,3,2.4c3.6-0.9,6.7-14.1,7.1-16.1
			C456.2,247.1,457.8,237.3,455.6,225.2z"/>
		
			<linearGradient id="SVGID_12_" gradientUnits="userSpaceOnUse" x1="21.5762" y1="326.43" x2="50.1995" y2="326.43" gradientTransform="matrix(-0.7076 0.3375 0.2815 0.5902 398.7188 25.6237)">
			<stop  offset="2.717173e-07" style="stop-color:#DA565C"/>
			<stop  offset="0.9567" style="stop-color:#A1474C"/>
		</linearGradient>
		<path class="st11" d="M469.7,213.8c0,0-15.9,20.7-10.1,31c0.3,0.5,1.1,2,2.4,1.5c2.9-1,5.8-10.8,6.2-12.3
			C469.5,229.7,471.1,222.5,469.7,213.8z"/>
		
			<linearGradient id="SVGID_13_" gradientUnits="userSpaceOnUse" x1="158.836" y1="149.2641" x2="182.2469" y2="149.2641" gradientTransform="matrix(-0.7803 7.548311e-02 6.296063e-02 0.6509 603.6889 111.0163)">
			<stop  offset="2.717173e-07" style="stop-color:#DA565C"/>
			<stop  offset="0.9567" style="stop-color:#A1474C"/>
		</linearGradient>
		<path class="st12" d="M487.9,207.7c0,0-19.4,10.6-16,23.6c0.2,0.6,0.6,2.4,1.9,2.7c2.9,0.7,7.8-7,8.5-8.1
			C484.4,222.6,487.4,216.6,487.9,207.7z"/>
		
			<linearGradient id="SVGID_14_" gradientUnits="userSpaceOnUse" x1="61.8453" y1="190.6381" x2="87.1426" y2="190.6381" gradientTransform="matrix(-0.7619 0.1847 0.154 0.6355 525.0172 69.6479)">
			<stop  offset="2.717173e-07" style="stop-color:#DA565C"/>
			<stop  offset="0.9567" style="stop-color:#A1474C"/>
		</linearGradient>
		<path class="st13" d="M504.2,189.7c0,0-18.2,14.9-13.8,27c0.2,0.6,0.8,2.3,2.1,2.3c3,0,7.1-8.7,7.7-10
			C502,205.2,504.4,198.6,504.2,189.7z"/>
		
			<linearGradient id="SVGID_15_" gradientUnits="userSpaceOnUse" x1="620.5593" y1="95.2798" x2="644.1377" y2="95.2798" gradientTransform="matrix(-0.6131 -0.4885 -0.4075 0.5114 893.0951 523.7036)">
			<stop  offset="2.717173e-07" style="stop-color:#DA565C"/>
			<stop  offset="0.9567" style="stop-color:#A1474C"/>
		</linearGradient>
		<path class="st14" d="M478.8,262.9c0,0-18.5-14.1-21.7-1c-0.2,0.6-0.6,2.4,0.2,4.1c1.8,3.8,8.6,3.7,9.6,3.7
			C469.9,269.6,474.6,268.6,478.8,262.9z"/>
		
			<linearGradient id="SVGID_16_" gradientUnits="userSpaceOnUse" x1="37.0518" y1="174.9837" x2="62.3491" y2="174.9837" gradientTransform="matrix(-0.7619 0.1847 0.154 0.6355 525.0172 69.6479)">
			<stop  offset="2.717173e-07" style="stop-color:#DA565C"/>
			<stop  offset="0.9567" style="stop-color:#A1474C"/>
		</linearGradient>
		<path class="st15" d="M520.7,175.2c0,0-18.2,14.9-13.8,27c0.2,0.6,0.8,2.3,2.1,2.3c3,0,7.1-8.7,7.7-10
			C518.5,190.7,520.9,184.1,520.7,175.2z"/>
		
			<linearGradient id="SVGID_17_" gradientUnits="userSpaceOnUse" x1="10.5992" y1="153.9127" x2="35.8964" y2="153.9127" gradientTransform="matrix(-0.7619 0.1847 0.154 0.6355 525.0172 69.6479)">
			<stop  offset="2.717173e-07" style="stop-color:#DA565C"/>
			<stop  offset="0.9567" style="stop-color:#A1474C"/>
		</linearGradient>
		<path class="st16" d="M537.6,156.9c0,0-18.2,14.9-13.8,27c0.2,0.6,0.8,2.3,2.1,2.3c3,0,7.1-8.7,7.7-10
			C535.4,172.4,537.8,165.8,537.6,156.9z"/>
		
			<linearGradient id="SVGID_18_" gradientUnits="userSpaceOnUse" x1="-192.3984" y1="976.5703" x2="-166.1553" y2="976.5703" gradientTransform="matrix(-0.5036 0.6008 -0.5011 -0.4201 927.4736 717.7267)">
			<stop  offset="2.717173e-07" style="stop-color:#DA565C"/>
			<stop  offset="0.9567" style="stop-color:#A1474C"/>
		</linearGradient>
		<path class="st17" d="M540.5,196.5c0,0-16.4,19.7-21.1,8c-0.2-0.6-0.9-2.2-0.3-4.1c1.3-4.3,7.9-6.4,8.9-6.7
			C530.9,192.9,535.6,192.3,540.5,196.5z"/>
		
			<linearGradient id="SVGID_19_" gradientUnits="userSpaceOnUse" x1="-160.9963" y1="980.1265" x2="-134.7532" y2="980.1265" gradientTransform="matrix(-0.5036 0.6008 -0.5011 -0.4201 927.4736 717.7267)">
			<stop  offset="2.717173e-07" style="stop-color:#DA565C"/>
			<stop  offset="0.9567" style="stop-color:#A1474C"/>
		</linearGradient>
		<path class="st18" d="M522.9,213.9c0,0-16.4,19.7-21.1,8c-0.2-0.6-0.9-2.2-0.3-4.1c1.3-4.3,7.9-6.4,8.9-6.7
			C513.3,210.2,518,209.6,522.9,213.9z"/>
		
			<linearGradient id="SVGID_20_" gradientUnits="userSpaceOnUse" x1="-129.1015" y1="985.485" x2="-102.8584" y2="985.485" gradientTransform="matrix(-0.5036 0.6008 -0.5011 -0.4201 927.4736 717.7267)">
			<stop  offset="2.717173e-07" style="stop-color:#DA565C"/>
			<stop  offset="0.9567" style="stop-color:#A1474C"/>
		</linearGradient>
		<path class="st19" d="M504.2,230.8c0,0-16.4,19.7-21.1,8c-0.2-0.6-0.9-2.2-0.3-4.1c1.3-4.3,7.9-6.4,8.9-6.7
			C494.5,227.1,499.3,226.5,504.2,230.8z"/>
		
			<linearGradient id="SVGID_21_" gradientUnits="userSpaceOnUse" x1="-89.758" y1="1254.1134" x2="-66.9003" y2="1254.1134" gradientTransform="matrix(-0.6006 0.3895 -0.2986 -0.4604 804.7197 855.1839)">
			<stop  offset="2.717173e-07" style="stop-color:#DA565C"/>
			<stop  offset="0.9567" style="stop-color:#A1474C"/>
		</linearGradient>
		<path class="st20" d="M488,248.9c0,0-17.4,10.6-19.2-0.9c-0.1-0.5-0.4-2.1,0.5-3.5c1.9-3.1,7.9-2.5,8.7-2.4
			C480.6,242.4,484.7,243.6,488,248.9z"/>
		
			<linearGradient id="SVGID_22_" gradientUnits="userSpaceOnUse" x1="655.3692" y1="338.4777" x2="676.1033" y2="338.4777" gradientTransform="matrix(-0.4398 -0.3504 -0.5842 0.7331 944.8942 268.6716)">
			<stop  offset="2.717173e-07" style="stop-color:#DA565C"/>
			<stop  offset="0.9567" style="stop-color:#A1474C"/>
		</linearGradient>
		<path class="st21" d="M466.7,276.5c0,0-15.4-5.8-21.3,11c-0.3,0.8-1.1,3.1-0.7,4.6c1,3.4,7.7-0.6,8.7-1.1
			C456.4,289.3,461.3,285.6,466.7,276.5z"/>
		
			<linearGradient id="SVGID_23_" gradientUnits="userSpaceOnUse" x1="641.1295" y1="362.7977" x2="661.8636" y2="362.7977" gradientTransform="matrix(-0.4398 -0.3504 -0.5842 0.7331 944.8942 268.6716)">
			<stop  offset="2.717173e-07" style="stop-color:#DA565C"/>
			<stop  offset="0.9567" style="stop-color:#A1474C"/>
		</linearGradient>
		<path class="st22" d="M458.8,299.4c0,0-15.4-5.8-21.3,11c-0.3,0.8-1.1,3.1-0.7,4.6c1,3.4,7.7-0.6,8.7-1.1
			C448.4,312.1,453.3,308.4,458.8,299.4z"/>
		
			<linearGradient id="SVGID_24_" gradientUnits="userSpaceOnUse" x1="665.4157" y1="-105.4807" x2="687.0059" y2="-105.4807" gradientTransform="matrix(-0.3913 -0.3117 -0.4234 0.5313 762.6221 443.4685)">
			<stop  offset="2.717173e-07" style="stop-color:#DA565C"/>
			<stop  offset="0.9567" style="stop-color:#A1474C"/>
		</linearGradient>
		<path class="st23" d="M552.5,172.6c0,0-13-6.6-17.1,5.9c-0.2,0.6-0.8,2.3-0.4,3.6c1,2.8,6.4,0.6,7.2,0.2
			C544.6,181.3,548.5,179,552.5,172.6z"/>
		
			<linearGradient id="SVGID_25_" gradientUnits="userSpaceOnUse" x1="651.1924" y1="834.0515" x2="507.4139" y2="834.0515" gradientTransform="matrix(0.9491 -0.315 -0.315 -0.9491 195.5922 1225.8574)">
			<stop  offset="2.717173e-07" style="stop-color:#DA565C"/>
			<stop  offset="0.9567" style="stop-color:#A1474C"/>
		</linearGradient>
		<path class="st24" d="M430.5,322.9c0.2-2,0.6-5.1,1.7-8.5c2.7-9,6-8.7,8.3-17c1.3-4.6,0.8-6.7,2.8-12.4c0.7-2,1-2.4,2.8-6.4
			c2.4-5.4,4.2-9.9,5.8-13.9c3.4-8.5,3.5-9.5,5.1-11.6c2-2.7,2.4-1.8,5.9-5.3c4.5-4.5,4.2-6.4,7.8-9.4c2.5-2.1,2.9-1.4,6.9-4.1
			c3.2-2.2,4.9-3.9,7.2-6c2.7-2.4,6.7-5.6,12.1-8.7c2-3.1,5.2-7.5,9.7-11.4c3.8-3.3,4.1-2.3,7.5-5.6c2.8-2.7,3.5-4.2,10.6-12.6
			c1.4-1.6,2.1-2.4,3-3.3c2.9-2.9,5.4-4.8,7.2-5.9c-0.9,1.1-2.3,2.9-4.1,4.8c-4.7,5.2-6.3,5.9-9.6,9.8c-3.8,4.5-2.8,5-5.9,8.3
			c-3.9,4.3-5.8,3.8-9.8,7.5c-1.9,1.8-4.6,4.7-7.3,9.7c-5.3,3-9.4,6.1-12.1,8.5c-2.8,2.4-3.7,3.5-6.7,5.7c-5.3,4-5.9,3.1-8.7,6
			c-3,3.1-3.1,4.9-6.9,9.5c-2.1,2.5-3.9,4.1-5.2,5.2c-0.5,1-7.6,16.2-11,24.8c-0.9,2.1-1.6,4.2-2.4,6.7c-1.3,4.2-2.1,7.5-2.3,8.2
			C441.7,299.3,438.9,306.8,430.5,322.9z"/>
	</g>
	
		<linearGradient id="SVGID_26_" gradientUnits="userSpaceOnUse" x1="101.3543" y1="645.7166" x2="162.7743" y2="645.7166" gradientTransform="matrix(0.9554 5.599128e-02 -5.946553e-02 1.0147 133.4885 -402.4974)">
		<stop  offset="0.4832" style="stop-color:#119A89"/>
		<stop  offset="0.9615" style="stop-color:#224193"/>
	</linearGradient>
	<path class="st25" d="M194.1,224.5c6.9,0.8,19.1,3.2,30.4,11.9c19.5,14.8,30.8,43.2,21.9,53.5c-5,5.8-15.7,5-17.9,4.8
		c-9.6-0.7-15.9-6.1-19.1-8.7C188.9,268.5,193.7,227.1,194.1,224.5z"/>
	
		<linearGradient id="SVGID_27_" gradientUnits="userSpaceOnUse" x1="130.6609" y1="631.2216" x2="192.0809" y2="631.2216" gradientTransform="matrix(1.2097 0.2597 -0.3729 1.7368 283.6797 -915.2224)">
		<stop  offset="0.4832" style="stop-color:#119A89"/>
		<stop  offset="0.9615" style="stop-color:#224193"/>
	</linearGradient>
	<path class="st26" d="M219,157c8.6,2.6,23.5,8.8,35.6,25.6c20.7,28.7,26.9,79.7,12.5,95.9c-8.1,9.1-21.6,5.9-24.4,5.2
		c-12.1-2.9-18.7-13.2-21.9-18.3C199.6,232,217.8,161.5,219,157z"/>
	
		<linearGradient id="SVGID_28_" gradientUnits="userSpaceOnUse" x1="143.9395" y1="623.9816" x2="205.3594" y2="623.9816" gradientTransform="matrix(0.4667 0.8638 -1.1083 0.5988 893.6948 -299.4225)">
		<stop  offset="0.4832" style="stop-color:#119A89"/>
		<stop  offset="0.9615" style="stop-color:#224193"/>
	</linearGradient>
	<path class="st27" d="M306.5,178.7c2.9,6.5,7.1,18.6,4.2,34c-4.9,26.3-28.9,54.4-44.7,53.3c-8.9-0.6-13.9-10.4-15-12.4
		c-4.5-8.8-2.3-17.7-1.2-22.1C256.9,202.5,303.4,180.1,306.5,178.7z"/>
	<linearGradient id="SVGID_29_" gradientUnits="userSpaceOnUse" x1="448.9837" y1="296.4592" x2="551.2047" y2="252.3663">
		<stop  offset="0.1525" style="stop-color:#CCA5CD"/>
		<stop  offset="0.9615" style="stop-color:#224193;stop-opacity:0.8"/>
	</linearGradient>
	<path class="st28" d="M533.3,268.1c0,0.6-0.2,2,0.7,2.8c1.5,1.3,3.9-0.6,5.9,0.2c2.7,1.1,3.8,6.6,1.8,10.6c-1.8,3.6-6,5.7-9.7,5.9
		c-5.8,0.3-8.8-4.2-12.7-2.5c-1.2,0.5-2.6,1.7-2.6,2.9c0.1,2,4,2.3,5.1,5.2c0.5,1.3,0.4,3.3-0.6,4.6c-1.9,2.3-5.9,1.1-16.5,1.8
		c-3.5,0.2-5.7,0.5-5.9,1.4c-0.3,1.3,4.3,1.9,5.4,5c1.1,3.1-1.9,7.5-5.5,9.4c-2.6,1.3-5.1,1.3-6.2,1.2c-22.1-0.9-34-10.3-36.7-12.6
		c-0.4-0.3-0.6-0.5-0.6-0.5c-1.2-1.2-2.7-2.9-4.2-5c-1-1.5-2.1-3.1-3.1-5c-0.7-1.4-1.4-2.9-2.1-4.6c-0.1-0.3-0.2-0.8-0.4-1.2
		c-0.1-0.3-0.2-0.7-0.3-1c-0.3-1.1-0.6-2.4-0.8-3.9c-0.8-4.3-1.1-10.1,0.7-15.9c0.7-2.5,1.8-4.9,3.4-7.3c1.2-1.8,2.6-3.4,4-4.8
		c0.8-0.4,1.6-0.7,2.4-1c0.9-0.3,1.7-0.6,2.5-0.9c2-0.6,3.7-0.8,5.1-0.8c1.9,0,3.3,0.4,4.3,0.9c4.1,2,5.7,6.9,9.1,6.5
		c1.2-0.1,2.3-0.9,2.9-1.8c1-1.5,0.2-2.9,0-4.8c0-0.6,0-1.2,0.2-1.9c0.1-0.3,0.8-3.3,3.6-4.9c0.8-0.4,1.7-0.7,2.6-0.9
		c2.2-0.4,4.6,0.1,6,1.5c0.5,0.5,0.8,1,0.9,1.4c3.2,2.4,5.2,2.3,6.2,2c2.1-0.6,2.8-2.6,5.5-6.6c1.8-2.7,3.5-4.8,4.7-6.1
		c3.1-1.9,6.5-2.3,9-0.9c2.1,1.2,2.8,3.4,3.1,4.1c1.7,5.4-2.9,10.5-1.9,11.2c0.7,0.5,3.1-1.5,5.9-3.8c4-3.5,7.3-6.4,9.7-8.6
		c2.9-2.3,6.4-3,9-1.8c0.1,0.1,0.2,0.1,0.3,0.2c1.1,1.4,2.2,2.8,3.3,4.2c1.5,3.9,0,7.8-0.7,9.5c-1.1,2.9-2.7,4.8-4,6.5
		C537.5,263.3,533.7,264.3,533.3,268.1z"/>
	<g>
		
			<linearGradient id="SVGID_30_" gradientUnits="userSpaceOnUse" x1="112.7603" y1="782.4329" x2="135.355" y2="782.4329" gradientTransform="matrix(-0.2025 0.9209 -0.9066 -0.1994 1261.7358 475.0828)">
			<stop  offset="0" style="stop-color:#865CA0"/>
			<stop  offset="0.2687" style="stop-color:#8B56A3"/>
			<stop  offset="1" style="stop-color:#1F958C;stop-opacity:0.4"/>
		</linearGradient>
		<path class="st29" d="M540.3,425.3c0,0-14.9,18.8-24.2,16.5c-0.4-0.1-1.7-0.4-1.6-1.6c0.4-2.7,8.1-7.7,9.3-8.4
			C527.2,429.6,533,426.4,540.3,425.3z"/>
		
			<linearGradient id="SVGID_31_" gradientUnits="userSpaceOnUse" x1="113.2546" y1="637.1326" x2="132.3829" y2="637.1326" gradientTransform="matrix(9.654427e-02 0.938 -0.9234 9.503863e-02 1116.6699 238.5108)">
			<stop  offset="0" style="stop-color:#865CA0"/>
			<stop  offset="0.2687" style="stop-color:#8B56A3"/>
			<stop  offset="1" style="stop-color:#1F958C;stop-opacity:0.4"/>
		</linearGradient>
		<path class="st30" d="M551.1,404.1c0,0-8.3,19.4-19.4,20.1c-0.5,0-2.1,0.2-2.4-0.9c-0.7-2.3,5.6-8.5,6.6-9.4
			C538.6,411.2,543.6,407,551.1,404.1z"/>
		
			<linearGradient id="SVGID_32_" gradientUnits="userSpaceOnUse" x1="14.6955" y1="568.6586" x2="33.3712" y2="568.6586" gradientTransform="matrix(8.026692e-02 0.7798 -0.6505 6.695068e-02 912.8366 343.7166)">
			<stop  offset="0" style="stop-color:#865CA0"/>
			<stop  offset="0.2687" style="stop-color:#8B56A3"/>
			<stop  offset="1" style="stop-color:#1F958C;stop-opacity:0.4"/>
		</linearGradient>
		<path class="st31" d="M552.6,392.4c0,0-6.1,15.9-13.9,16.1c-0.4,0-1.5,0.1-1.7-0.8c-0.5-2,4.1-6.9,4.7-7.7
			C543.8,397.9,547.3,394.6,552.6,392.4z"/>
		
			<linearGradient id="SVGID_33_" gradientUnits="userSpaceOnUse" x1="89.6815" y1="376.2633" x2="104.9563" y2="376.2633" gradientTransform="matrix(0.3418 0.7055 -0.5885 0.2851 733.217 213.1737)">
			<stop  offset="0" style="stop-color:#865CA0"/>
			<stop  offset="0.2687" style="stop-color:#8B56A3"/>
			<stop  offset="1" style="stop-color:#1F958C;stop-opacity:0.4"/>
		</linearGradient>
		<path class="st32" d="M549.8,380.2c0,0,0.6,14.4-7.7,16.9c-0.4,0.1-1.6,0.5-2.2-0.1c-1.4-1.4,1.2-6.7,1.6-7.5
			C542.7,387.2,545,383.5,549.8,380.2z"/>
		
			<linearGradient id="SVGID_34_" gradientUnits="userSpaceOnUse" x1="29.7362" y1="434.0507" x2="46.2417" y2="434.0507" gradientTransform="matrix(0.239 0.7466 -0.6228 0.1993 809.4952 258.805)">
			<stop  offset="0" style="stop-color:#865CA0"/>
			<stop  offset="0.2687" style="stop-color:#8B56A3"/>
			<stop  offset="1" style="stop-color:#1F958C;stop-opacity:0.4"/>
		</linearGradient>
		<path class="st33" d="M554.3,365c0,0-2.1,15.2-10.4,16.8c-0.4,0.1-1.5,0.3-2-0.4c-1-1.7,2.4-6.9,2.9-7.7
			C546.4,371.5,549.2,367.9,554.3,365z"/>
		
			<linearGradient id="SVGID_35_" gradientUnits="userSpaceOnUse" x1="447.4178" y1="175.2004" x2="462.8018" y2="175.2004" gradientTransform="matrix(0.7363 0.2691 -0.2245 0.6142 230.1986 180.9385)">
			<stop  offset="0" style="stop-color:#865CA0"/>
			<stop  offset="0.2687" style="stop-color:#8B56A3"/>
			<stop  offset="1" style="stop-color:#1F958C;stop-opacity:0.4"/>
		</linearGradient>
		<path class="st34" d="M522.1,404c0,0,14.1,5.5,7.9,11.7c-0.3,0.3-1.1,1.2-2.3,1.3c-2.7,0.3-5-3.5-5.3-4.1
			C521.5,411.2,520.4,408.3,522.1,404z"/>
		
			<linearGradient id="SVGID_36_" gradientUnits="userSpaceOnUse" x1="13.5592" y1="423.8368" x2="30.0648" y2="423.8368" gradientTransform="matrix(0.239 0.7466 -0.6228 0.1993 809.4952 258.805)">
			<stop  offset="0" style="stop-color:#865CA0"/>
			<stop  offset="0.2687" style="stop-color:#8B56A3"/>
			<stop  offset="1" style="stop-color:#1F958C;stop-opacity:0.4"/>
		</linearGradient>
		<path class="st35" d="M556.8,350.9c0,0-2.1,15.2-10.4,16.8c-0.4,0.1-1.5,0.3-2-0.4c-1-1.7,2.4-6.9,2.9-7.7
			C548.9,357.4,551.7,353.8,556.8,350.9z"/>
		
			<linearGradient id="SVGID_37_" gradientUnits="userSpaceOnUse" x1="-3.7002" y1="410.0887" x2="12.8054" y2="410.0887" gradientTransform="matrix(0.239 0.7466 -0.6228 0.1993 809.4952 258.805)">
			<stop  offset="0" style="stop-color:#865CA0"/>
			<stop  offset="0.2687" style="stop-color:#8B56A3"/>
			<stop  offset="1" style="stop-color:#1F958C;stop-opacity:0.4"/>
		</linearGradient>
		<path class="st36" d="M561.2,335.2c0,0-2.1,15.2-10.4,16.8c-0.4,0.1-1.5,0.3-2-0.4c-1-1.7,2.4-6.9,2.9-7.7
			C553.3,341.7,556.2,338.1,561.2,335.2z"/>
		
			<linearGradient id="SVGID_38_" gradientUnits="userSpaceOnUse" x1="-86.3491" y1="765.5825" x2="-69.2264" y2="765.5825" gradientTransform="matrix(-0.2507 0.7428 0.6196 0.2091 46.6461 252.5999)">
			<stop  offset="0" style="stop-color:#865CA0"/>
			<stop  offset="0.2687" style="stop-color:#8B56A3"/>
			<stop  offset="1" style="stop-color:#1F958C;stop-opacity:0.4"/>
		</linearGradient>
		<path class="st37" d="M538.2,347.1c0,0-5.4,15.8,2.7,14.5c0.4-0.1,1.5-0.2,2.4-1.2c2-2.2,0.9-6.6,0.7-7.2
			C543.5,351.2,542.2,348.3,538.2,347.1z"/>
		
			<linearGradient id="SVGID_39_" gradientUnits="userSpaceOnUse" x1="-65.8603" y1="767.9027" x2="-48.7376" y2="767.9027" gradientTransform="matrix(-0.2507 0.7428 0.6196 0.2091 46.6461 252.5999)">
			<stop  offset="0" style="stop-color:#865CA0"/>
			<stop  offset="0.2687" style="stop-color:#8B56A3"/>
			<stop  offset="1" style="stop-color:#1F958C;stop-opacity:0.4"/>
		</linearGradient>
		<path class="st38" d="M534.5,362.8c0,0-5.4,15.8,2.7,14.5c0.4-0.1,1.5-0.2,2.4-1.2c2-2.2,0.9-6.6,0.7-7.2
			C539.8,366.9,538.5,364,534.5,362.8z"/>
		
			<linearGradient id="SVGID_40_" gradientUnits="userSpaceOnUse" x1="-45.0501" y1="771.399" x2="-27.9274" y2="771.399" gradientTransform="matrix(-0.2507 0.7428 0.6196 0.2091 46.6461 252.5999)">
			<stop  offset="0" style="stop-color:#865CA0"/>
			<stop  offset="0.2687" style="stop-color:#8B56A3"/>
			<stop  offset="1" style="stop-color:#1F958C;stop-opacity:0.4"/>
		</linearGradient>
		<path class="st39" d="M531.4,379c0,0-5.4,15.8,2.7,14.5c0.4-0.1,1.5-0.2,2.4-1.2c2-2.2,0.9-6.6,0.7-7.2
			C536.7,383.1,535.4,380.2,531.4,379z"/>
		
			<linearGradient id="SVGID_41_" gradientUnits="userSpaceOnUse" x1="-69.4419" y1="978.8607" x2="-54.528" y2="978.8607" gradientTransform="matrix(-1.990070e-02 0.7155 0.5485 1.525480e-02 -6.804 428.9691)">
			<stop  offset="0" style="stop-color:#865CA0"/>
			<stop  offset="0.2687" style="stop-color:#8B56A3"/>
			<stop  offset="1" style="stop-color:#1F958C;stop-opacity:0.4"/>
		</linearGradient>
		<path class="st40" d="M526.8,394.1c0,0,0,13.3,7,10.4c0.3-0.1,1.3-0.5,1.8-1.4c1.1-2.1-1.3-5.2-1.6-5.7
			C533,396,530.9,394.1,526.8,394.1z"/>
		
			<linearGradient id="SVGID_42_" gradientUnits="userSpaceOnUse" x1="413.7058" y1="385.6053" x2="427.2342" y2="385.6053" gradientTransform="matrix(0.5281 0.193 -0.3218 0.8804 420.9732 3.937)">
			<stop  offset="0" style="stop-color:#865CA0"/>
			<stop  offset="0.2687" style="stop-color:#8B56A3"/>
			<stop  offset="1" style="stop-color:#1F958C;stop-opacity:0.4"/>
		</linearGradient>
		<path class="st41" d="M518.6,415.4c0,0,8.5,6.6,1.1,15.6c-0.4,0.4-1.4,1.7-2.3,2c-2.2,0.6-2.3-4.5-2.3-5.3
			C515,425.5,515.5,421.5,518.6,415.4z"/>
		
			<linearGradient id="SVGID_43_" gradientUnits="userSpaceOnUse" x1="404.4149" y1="401.4733" x2="417.9433" y2="401.4733" gradientTransform="matrix(0.5281 0.193 -0.3218 0.8804 420.9732 3.937)">
			<stop  offset="0" style="stop-color:#865CA0"/>
			<stop  offset="0.2687" style="stop-color:#8B56A3"/>
			<stop  offset="1" style="stop-color:#1F958C;stop-opacity:0.4"/>
		</linearGradient>
		<path class="st42" d="M508.6,427.5c0,0,8.5,6.6,1.1,15.6c-0.4,0.4-1.4,1.7-2.3,2c-2.2,0.6-2.3-4.5-2.3-5.3
			C505,437.7,505.5,433.6,508.6,427.5z"/>
		
			<linearGradient id="SVGID_44_" gradientUnits="userSpaceOnUse" x1="395.1765" y1="30.4815" x2="409.2633" y2="30.4815" gradientTransform="matrix(0.4699 0.1717 -0.2332 0.6381 366.6296 250.562)">
			<stop  offset="0" style="stop-color:#865CA0"/>
			<stop  offset="0.2687" style="stop-color:#8B56A3"/>
			<stop  offset="1" style="stop-color:#1F958C;stop-opacity:0.4"/>
		</linearGradient>
		<path class="st43" d="M547.4,332.2c0,0,8.1,5,2.5,11.5c-0.3,0.3-1,1.2-1.9,1.4c-1.9,0.4-2.5-3.4-2.6-3.9
			C545.2,339.6,545.2,336.7,547.4,332.2z"/>
		
			<linearGradient id="SVGID_45_" gradientUnits="userSpaceOnUse" x1="651.6901" y1="687.0037" x2="557.8796" y2="687.0037" gradientTransform="matrix(-0.2252 -0.9743 0.9743 -0.2252 -6.1523 1142.0153)">
			<stop  offset="0" style="stop-color:#865CA0"/>
			<stop  offset="0.2687" style="stop-color:#8B56A3"/>
			<stop  offset="1" style="stop-color:#5B2B5E"/>
		</linearGradient>
		<path class="st44" d="M505.2,451.3c1-0.8,2.6-2.1,4.2-3.8c4.1-4.5,2.8-6.3,6.7-10.4c2.1-2.3,3.4-2.7,5.9-5.8
			c0.9-1.1,1-1.4,2.6-3.7c2.2-3.2,4.1-5.7,5.8-8c3.6-4.8,4.1-5.2,4.8-6.8c0.8-2,0.2-1.9,1-5.1c1-4,2.1-4.5,2.5-7.6
			c0.3-2.1-0.2-2.1-0.1-5.2c0.1-2.5,0.5-4,0.9-6.1c0.4-2.3,0.8-5.7,0.7-9.7c1.1-2.2,2.4-5.5,3-9.3c0.5-3.2-0.1-3.1,0.6-6.1
			c0.6-2.5,1.1-3.3,3.4-10.2c0.4-1.3,0.6-2,0.8-2.8c0.7-2.6,0.8-4.7,0.9-6c-0.3,0.9-0.8,2.3-1.3,3.9c-1.3,4.4-1.1,5.5-2.2,8.7
			c-1.2,3.6-1.8,3.3-2.6,6.1c-1.1,3.7-0.2,4.5-0.8,8c-0.3,1.7-1.1,4.2-2.9,7.4c0.1,4-0.2,7.3-0.6,9.7c-0.4,2.4-0.7,3.3-0.9,5.7
			c-0.4,4.3,0.3,4.3-0.4,6.9c-0.7,2.7-1.7,3.4-2.9,7.1c-0.7,2-1,3.6-1.1,4.7c-0.4,0.6-6.4,9.7-10.1,14.6c-0.9,1.2-1.8,2.3-2.9,3.6
			c-1.9,2.2-3.4,3.7-3.8,4C514.5,437,511.3,441.1,505.2,451.3z"/>
	</g>
	
		<linearGradient id="SVGID_46_" gradientUnits="userSpaceOnUse" x1="230.5895" y1="626.0098" x2="264.6461" y2="606.3472" gradientTransform="matrix(0.9918 1.5793 -1.5676 0.9845 1225.7505 -529.6684)">
		<stop  offset="0.4832" style="stop-color:#119A89"/>
		<stop  offset="0.9615" style="stop-color:#224193"/>
	</linearGradient>
	<path class="st45" d="M537.2,468.1c0.8,0.6,2.5,2,3.6,4.5c0.9,2.1,1,3.9,1,4.9c-0.5,0.7-1.5,1.8-3,2.5c-2.9,1.5-5.7,1.1-6.6,0.9
		c-4.6-3.3-9.2-6.6-13.8-9.8c-1.4,0.6-1.8,1.3-1.9,1.7c-0.5,2.5,6.3,3.2,10.9,9.5c0,0,4.4,5.8,6.9,5.8c0,0,0.1,0,0.1,0
		c0.2,0.3-2.5,2.7-5.2,3.9c-1.2,0.6-3.3,1.3-6.3,1.3c-3.3-4.7-6.6-9.3-9.9-14c-1.3-1.2-2.6-2.4-3.9-3.6c-0.3,1.1-0.6,2.2-0.8,3.4
		c1.9,2.6,3.8,5.2,5.7,7.8l3.9,7.2c-0.7,0.5-2.9,1.9-6.1,1.7c-3.2-0.2-5.3-2-5.9-2.5c-1.2-3-2.4-6.5-3.4-10.3
		c-0.7-2.7-1.3-5.2-1.7-7.6c-1-0.5-1.9-1-2.9-1.5l0.8,14.2l3,4.9c-0.7,0.4-3.7,2.2-7.5,1.2c-0.2,0-4.2-1.2-5.8-4.7
		c-3.2-6.8,5.4-15.7,2.9-18.2c-0.4-0.4-1.3-0.8-3.7-0.1c-0.6,2.4-1.2,4.7-1.7,7.1c-1.8,2.2-3.6,4.5-5.5,6.7
		c-6.9-0.6-8.9-2.9-9.5-4.3c-0.6-1.4-0.3-2.2,0.8-10.5c0.6-4.9,0.7-6,0.7-7.1c0-3.6-0.8-6.5-1.4-8.4c1.6-1.7,3.1-3.5,4.7-5.2
		l4.1-6.6c2.4-3.6,4.7-7.1,7.1-10.7c0.2-0.2,1.8-1.9,4.4-1.8c2.8,0.1,4.2,2.3,4.4,2.5c-1.4,3-2.9,6-4.3,8.9c0,0-1.3,11.3-0.5,11.4
		c0.1,0,0.1-0.1,0.2-0.1c1.2-1.3,3.9-7.9,5.1-10.1c0,0,5.8-7.3,5.7-7.2l0,0c1.8-0.9,2.7-0.5,2.9-0.3c1.4,0.8,1.5,4.1-0.2,8
		c-1.4,4.7-2.7,9.3-4.1,14c2.7-2.9,5.4-5.8,8-8.8c0.4-3.3,0.8-6.7,1.2-10c1.2,0.4,4.2,1.6,6.4,4.6c1.4,1.9,2,3.8,2.2,5
		c-1.1,1.9-2.7,4.3-5.1,6.7c-2.6,2.7-5.1,4.5-7.2,5.7c1.1,1.3,2.3,2.6,3.4,3.9c0.8-1.8,1.9-4.1,3.8-6.4c3.3-4.2,7.1-6.4,9.5-7.6
		c1-0.3,2-0.6,3-0.9c1,0.9,2.7,2.5,3.9,5.1c1.3,2.7,1.6,5.1,1.6,6.4c-2.8,0.6-5.6,1.1-8.3,1.7c-2,1.3-3.9,2.6-5.9,3.9l14.2-1
		C533.2,466.6,535.2,467.3,537.2,468.1z"/>
	
		<linearGradient id="SVGID_47_" gradientUnits="userSpaceOnUse" x1="623.5358" y1="441.9519" x2="724.3938" y2="398.5483" gradientTransform="matrix(-1.1295 6.287323e-02 -5.966369e-02 -1.0718 927.841 779.424)">
		<stop  offset="0.1525" style="stop-color:#CCA5CD"/>
		<stop  offset="0.9615" style="stop-color:#224193"/>
	</linearGradient>
	<path class="st46" d="M81.4,388.5c-1.5-4.7-5.6-19.7,2.8-32.4c1.3-2,2.8-3.8,4.4-5.3c8.3-3.9,13-3.3,15.7-1.9
		c4.5,2.2,6.3,7.6,10,7.2c1.3-0.2,2.6-1,3.2-2c1.5-2.2-0.6-4.1,0.2-7.4c0.1-0.3,0.9-3.6,4-5.4c3-1.6,7.3-1.4,9.5,0.8
		c0.5,0.5,0.8,1.1,1,1.5c3.5,2.6,5.7,2.5,6.8,2.2c2.3-0.6,3.1-2.9,6.1-7.3c2-3,3.9-5.3,5.1-6.7c3.4-2.1,7.2-2.6,9.9-1
		c2.4,1.3,3.1,3.7,3.4,4.5c1.9,5.9-3.2,11.5-2,12.4c0.8,0.5,3.5-1.7,6.5-4.2c4.5-3.8,8.1-7.1,10.7-9.5c3.2-2.5,7-3.3,9.9-2
		c2.2,1,3.2,3,3.7,4c2.3,4.5,0.4,9.3-0.4,11.4c-1.2,3.2-3,5.3-4.5,7.1c-4.9,5.9-9.1,7.1-9.5,11.3c-0.1,0.6-0.2,2.2,0.8,3.1
		c1.6,1.4,4.2-0.7,6.5,0.2c2.9,1.2,4.2,7.3,2,11.7c-2,3.9-6.6,6.3-10.7,6.5c-6.4,0.3-9.7-4.6-14-2.7c-1.3,0.6-2.9,1.8-2.9,3.2
		c0.1,2.2,4.4,2.5,5.6,5.7c0.5,1.4,0.5,3.6-0.7,5c-2.1,2.6-6.5,1.3-18.2,2c-3.9,0.2-6.3,0.6-6.5,1.5c-0.3,1.4,4.8,2.1,6,5.5
		c1.2,3.4-2.1,8.2-6.1,10.3c-2.8,1.5-5.6,1.4-6.9,1.4c-27.9-1.2-41.1-14.5-41.1-14.5C88.9,401.8,84.5,396.6,81.4,388.5z"/>
	<linearGradient id="SVGID_48_" gradientUnits="userSpaceOnUse" x1="248.91" y1="494.05" x2="280.01" y2="494.05">
		<stop  offset="0.4832" style="stop-color:#119A89"/>
		<stop  offset="0.9615" style="stop-color:#224193"/>
	</linearGradient>
	<path class="st47" d="M280,491.3c-5.9,4.6-14,10.8-23.8,17.3c-2.4-5.7-4.1-11.7-5.2-16.8c-1.3-5.9-1.9-10.5-2-11.8
		c0-0.1,0-0.2,0-0.2c0.1,0,0.1,0,0.1,0c2-0.2,4.6-0.3,7.7,0.1c4.2,0.5,9.2,1.8,14.3,4.7C274.2,486.3,277.2,488.6,280,491.3z"/>
	<linearGradient id="SVGID_49_" gradientUnits="userSpaceOnUse" x1="260.7" y1="517.464" x2="295.4201" y2="517.464">
		<stop  offset="0.4832" style="stop-color:#119A89"/>
		<stop  offset="0.9615" style="stop-color:#224193"/>
	</linearGradient>
	<path class="st48" d="M294.6,524c-2.3,5.4-9.5,6.4-11,6.6c-6.5,0.9-11.6-2.4-14.1-4c-3.5-2.3-6.4-5.5-8.8-9.3
		c3.5-4.5,7.4-8.9,13.6-11.3c3.3-1.3,5.6-2.3,8.3-1.5c4,1.2,4.1,4.9,9.7,9.6c0.7,0.6,1.6,1.2,2.8,2
		C295.6,519.1,295.5,521.8,294.6,524z"/>
	
		<linearGradient id="SVGID_50_" gradientUnits="userSpaceOnUse" x1="233.6814" y1="459.2874" x2="304.4424" y2="418.4336" gradientTransform="matrix(0.1701 -1.8572 1.8434 0.1688 -664.3199 738.3058)">
		<stop  offset="0.3609" style="stop-color:#C89789"/>
		<stop  offset="1" style="stop-color:#4981BA"/>
	</linearGradient>
	<path class="st49" d="M138,272.6c-0.6-2-1.6-6.5-0.3-12c1.1-4.6,3.3-7.8,4.7-9.4c1.8-0.5,4.7-1,8.1-0.5c6.6,1.1,10.7,5.4,12,6.8
		c3.5,11.2,7,22.5,10.4,33.7c3.1,0.8,4.5,0.1,5.2-0.5c4-3.5-6.2-13.2-6.1-29.4c0,0,0.2-15.1-4-18.3c0,0-0.2-0.1-0.2-0.3
		c0.1-0.8,7.4-1.3,13.5,0c2.7,0.6,7.2,2.1,12,5.9c-0.5,11.8-0.9,23.7-1.4,35.5c0.6,3.6,1.2,7.3,1.8,10.9c1.9-1.5,3.8-3,5.6-4.5
		c0.1-6.7,0.2-13.3,0.4-20l2.5-16.8c1.7,0.1,7.2,0.6,12.1,4.9c5.1,4.4,6.3,9.9,6.6,11.6c-1.8,6.5-4.1,13.7-7.3,21.3
		c-2.2,5.3-4.5,10.2-6.8,14.7c1,2,1.9,4,2.9,6l16.6-24.5l1.1-11.9c1.6,0.2,8.9,1.1,13.8,7.5c0.2,0.3,5.4,7.2,3.6,15.2
		c-3.3,15.2-28.7,19.1-27.6,26.4c0.2,1.2,1.2,3.1,6,4.8c3.9-3.1,7.9-6.3,11.8-9.4c5.8-1.4,11.6-2.8,17.5-4.1
		c10.7,9.8,11,16,10.4,19.1c-0.6,3.1-2.4,4.1-14.6,16.4c-7.2,7.3-8.7,9.1-10,10.8c-4.5,5.9-6.9,11.7-8.3,15.5
		c-4.7,0.9-9.5,1.8-14.2,2.7l-15.1,5.8c-8.4,2.9-16.7,5.8-25.1,8.7c-0.7,0.1-5.5,0.9-9.5-2.5c-4.4-3.7-4.1-9.1-4.1-9.7
		c6.1-3.1,12.3-6.2,18.4-9.3c0,0,16.4-17,15.3-18.2c-0.1-0.1-0.3-0.1-0.4-0.1c-3.6,0.7-16.4,8-21.1,10.3c-0.1,0-18.7,4.8-18.5,4.8
		l0,0c-4.1-0.8-5-2.6-5.2-3.1c-1.2-3.1,2.6-8.7,10.4-12.9c8.1-6,16.3-12,24.4-18c-8.1,1.5-16.2,2.9-24.3,4.4
		c-4.9,5-9.7,9.9-14.6,14.9c-1.4-2.1-4.9-7.8-4.8-15.7c0.1-4.9,1.6-8.8,2.7-11c4.3-1.8,9.9-3.6,16.8-4.7c7.6-1.2,14.1-0.9,19-0.4
		c-0.2-3.6-0.4-7.2-0.7-10.8c-3.5,2.1-8.3,4.3-14.3,5.9c-10.7,2.7-19.9,1.6-25.3,0.6c-2-0.8-4-1.5-6-2.3c-0.6-2.8-1.2-7.5-0.1-13.3
		c1.2-6,3.8-10.3,5.4-12.7c5.3,2.6,10.6,5.1,15.9,7.7c4.9,0.3,9.7,0.6,14.6,1l-24.8-16.2C142.8,280,140.4,276.3,138,272.6z"/>
	
		<linearGradient id="SVGID_51_" gradientUnits="userSpaceOnUse" x1="352.7064" y1="629.2612" x2="393.3224" y2="629.2612" gradientTransform="matrix(0.9691 -0.157 0.2014 1.2436 -278.0122 -348.9224)">
		<stop  offset="2.717173e-07" style="stop-color:#DA565C"/>
		<stop  offset="0.9567" style="stop-color:#A1474C"/>
	</linearGradient>
	<path class="st50" d="M186.2,350.7c4.7-0.4,13.1-0.4,22.1,4.8c15.4,8.8,27.7,29.9,23.6,39.5c-2.3,5.4-9.5,6.4-11,6.6
		c-6.5,0.9-11.6-2.4-14.1-4C190.3,386.8,186.5,352.9,186.2,350.7z"/>
	
		<linearGradient id="SVGID_52_" gradientUnits="userSpaceOnUse" x1="373.1375" y1="611.2575" x2="413.7535" y2="611.2575" gradientTransform="matrix(0.9691 -0.157 0.2014 1.2436 -278.0122 -348.9224)">
		<stop  offset="2.717173e-07" style="stop-color:#DA565C"/>
		<stop  offset="0.9567" style="stop-color:#A1474C"/>
	</linearGradient>
	<path class="st51" d="M202.4,325.1c4.7-0.4,13.1-0.4,22.1,4.8c15.4,8.8,27.7,29.9,23.6,39.5c-2.3,5.4-9.5,6.4-11,6.6
		c-6.5,0.9-11.6-2.4-14.1-4C206.5,361.2,202.6,327.3,202.4,325.1z"/>
	
		<linearGradient id="SVGID_53_" gradientUnits="userSpaceOnUse" x1="387.2165" y1="592.452" x2="427.8325" y2="592.452" gradientTransform="matrix(0.9691 -0.157 0.2014 1.2436 -278.0122 -348.9224)">
		<stop  offset="2.717173e-07" style="stop-color:#DA565C"/>
		<stop  offset="0.9567" style="stop-color:#A1474C"/>
	</linearGradient>
	<path class="st52" d="M212.3,299.5c4.7-0.4,13.1-0.4,22.1,4.8c15.4,8.8,27.7,29.9,23.6,39.5c-2.3,5.4-9.5,6.4-11,6.6
		c-6.5,0.9-11.6-2.4-14.1-4C216.4,335.6,212.5,301.7,212.3,299.5z"/>
	
		<linearGradient id="SVGID_54_" gradientUnits="userSpaceOnUse" x1="342.8881" y1="651.1741" x2="383.5041" y2="651.1741" gradientTransform="matrix(0.9691 -0.157 0.2014 1.2436 -278.0122 -348.9224)">
		<stop  offset="2.717173e-07" style="stop-color:#DA565C"/>
		<stop  offset="0.9567" style="stop-color:#A1474C"/>
	</linearGradient>
	<path class="st53" d="M181.1,379.5c4.7-0.4,13.1-0.4,22.1,4.8c15.4,8.8,27.7,29.9,23.6,39.5c-2.3,5.4-9.5,6.4-11,6.6
		c-6.5,0.9-11.6-2.4-14.1-4C185.2,415.6,181.4,381.7,181.1,379.5z"/>
	
		<linearGradient id="SVGID_55_" gradientUnits="userSpaceOnUse" x1="677.0613" y1="696.2623" x2="717.6772" y2="696.2623" gradientTransform="matrix(-0.7126 -0.1154 -0.2424 1.4963 1172.6758 -560.2916)">
		<stop  offset="2.717173e-07" style="stop-color:#DA565C"/>
		<stop  offset="0.9567" style="stop-color:#A1474C"/>
	</linearGradient>
	<path class="st54" d="M526.8,370.2c-3.5-0.2-9.8,0.5-16.9,7.3c-12.1,11.6-22.9,37.6-20.5,48.8c1.3,6.3,6.6,6.9,7.7,7.1
		c4.8,0.6,8.8-3.7,10.8-5.8C521,413.6,526.4,372.9,526.8,370.2z"/>
	<linearGradient id="SVGID_56_" gradientUnits="userSpaceOnUse" x1="223.5351" y1="441.4805" x2="254.6351" y2="441.4805">
		<stop  offset="0.4832" style="stop-color:#119A89"/>
		<stop  offset="0.9615" style="stop-color:#224193"/>
	</linearGradient>
	<path class="st55" d="M254.6,438.7c-5.9,4.6-14,10.8-23.8,17.3c-2.4-5.7-4.1-11.7-5.2-16.8c-1.3-5.9-1.9-10.5-2-11.8
		c0-0.1,0-0.2,0-0.2c0.1,0,0.1,0,0.1,0c2-0.2,4.6-0.3,7.7,0.1c4.2,0.5,9.2,1.8,14.3,4.7C248.8,433.7,251.9,436.1,254.6,438.7z"/>
	<linearGradient id="SVGID_57_" gradientUnits="userSpaceOnUse" x1="275.98" y1="476.14" x2="306.46" y2="476.14">
		<stop  offset="0.4832" style="stop-color:#119A89"/>
		<stop  offset="0.9615" style="stop-color:#224193"/>
	</linearGradient>
	<path class="st56" d="M306.5,474l-16.2,8.8c0,0-2.9,2.6-8,6.7c-1.9-5-3.3-10-4.3-14.4c-1.3-5.9-1.9-10.5-2-11.8c0-0.1,0-0.2,0-0.2
		c0.1,0,0.1,0,0.1,0c2-0.2,4.6-0.3,7.7,0.1c4.2,0.5,9.1,1.8,14.3,4.7C301,469.5,303.8,471.6,306.5,474z"/>
</g>
<g id="Layer_1">
	<g>
		<path class="st57" d="M221.4,261.6v189c0,10.4,8.5,18.8,18.8,18.8h252.7c10.4,0,18.8-8.5,18.8-18.8v-189
			c0-10.4-8.5-18.8-18.8-18.8H240.3C229.9,242.8,221.4,251.2,221.4,261.6z"/>
		<linearGradient id="SVGID_58_" gradientUnits="userSpaceOnUse" x1="233.6753" y1="443.9167" x2="383.8291" y2="443.9167">
			<stop  offset="0.4832" style="stop-color:#119A89"/>
			<stop  offset="0.9615" style="stop-color:#224193"/>
		</linearGradient>
		<path class="st58" d="M242.4,454.8h132.8c4.8,0,8.7-3.9,8.7-8.7v-4.3c0-4.8-3.9-8.7-8.7-8.7H242.4c-4.8,0-8.7,3.9-8.7,8.7v4.3
			C233.7,450.9,237.6,454.8,242.4,454.8z"/>
		<linearGradient id="SVGID_59_" gradientUnits="userSpaceOnUse" x1="238.1452" y1="274.6995" x2="342.4426" y2="274.6995">
			<stop  offset="0.4832" style="stop-color:#119A89"/>
			<stop  offset="0.9615" style="stop-color:#224193"/>
		</linearGradient>
		<path class="st59" d="M242.1,279.6h96.5c2.2,0,3.9-1.8,3.9-3.9v-2c0-2.2-1.8-3.9-3.9-3.9h-96.5c-2.2,0-3.9,1.8-3.9,3.9v2
			C238.1,277.8,239.9,279.6,242.1,279.6z"/>
		<linearGradient id="SVGID_60_" gradientUnits="userSpaceOnUse" x1="489.5232" y1="252.8822" x2="501.4429" y2="252.8822">
			<stop  offset="0.4832" style="stop-color:#119A89"/>
			<stop  offset="0.9615" style="stop-color:#224193"/>
		</linearGradient>
		<path class="st60" d="M493.4,257.8h4.1c2.2,0,3.9-1.8,3.9-3.9v-2c0-2.2-1.8-3.9-3.9-3.9h-4.1c-2.2,0-3.9,1.8-3.9,3.9v2
			C489.5,256,491.3,257.8,493.4,257.8z"/>
		<linearGradient id="SVGID_61_" gradientUnits="userSpaceOnUse" x1="475.1823" y1="252.8822" x2="487.102" y2="252.8822">
			<stop  offset="0.4832" style="stop-color:#119A89"/>
			<stop  offset="0.9615" style="stop-color:#224193"/>
		</linearGradient>
		<path class="st61" d="M479.1,257.8h4.1c2.2,0,3.9-1.8,3.9-3.9v-2c0-2.2-1.8-3.9-3.9-3.9h-4.1c-2.2,0-3.9,1.8-3.9,3.9v2
			C475.2,256,476.9,257.8,479.1,257.8z"/>
		<linearGradient id="SVGID_62_" gradientUnits="userSpaceOnUse" x1="460.8414" y1="252.8822" x2="472.7611" y2="252.8822">
			<stop  offset="0.4832" style="stop-color:#119A89"/>
			<stop  offset="0.9615" style="stop-color:#224193"/>
		</linearGradient>
		<path class="st62" d="M464.8,257.8h4.1c2.2,0,3.9-1.8,3.9-3.9v-2c0-2.2-1.8-3.9-3.9-3.9h-4.1c-2.2,0-3.9,1.8-3.9,3.9v2
			C460.8,256,462.6,257.8,464.8,257.8z"/>
		<linearGradient id="SVGID_63_" gradientUnits="userSpaceOnUse" x1="442.2169" y1="443.9167" x2="460.2028" y2="443.9167">
			<stop  offset="0.4832" style="stop-color:#119A89"/>
			<stop  offset="0.9615" style="stop-color:#224193"/>
		</linearGradient>
		<path class="st63" d="M458.2,441.3v-5.2c0-2-1.6-3.6-3.6-3.6c-2,0-3.6,1.6-3.6,3.6v4.2h-3.9c-2.7,0-4.9,2.2-4.9,4.9v5.2
			c0,2.7,2.2,4.9,4.9,4.9h8.2c2.7,0,4.9-2.2,4.9-4.9v-5.2C460.2,443.6,459.4,442.2,458.2,441.3z"/>
		<linearGradient id="SVGID_64_" gradientUnits="userSpaceOnUse" x1="470.5462" y1="443.9167" x2="488.5322" y2="443.9167">
			<stop  offset="0.4832" style="stop-color:#119A89"/>
			<stop  offset="0.9615" style="stop-color:#224193"/>
		</linearGradient>
		<path class="st64" d="M486.5,446.5v5.2c0,2-1.6,3.6-3.6,3.6s-3.6-1.6-3.6-3.6v-4.2h-3.9c-2.7,0-4.9-2.2-4.9-4.9v-5.2
			c0-2.7,2.2-4.9,4.9-4.9h8.2c2.7,0,4.9,2.2,4.9,4.9v5.2C488.5,444.2,487.7,445.6,486.5,446.5z"/>
		<path class="st65" d="M235.5,295.4v120.1c0,6.6,5.8,12,12.8,12h171.5c7,0,12.8-5.4,12.8-12V295.4c0-6.6-5.8-12-12.8-12H248.3
			C241.3,283.4,235.5,288.8,235.5,295.4z"/>
		<linearGradient id="SVGID_65_" gradientUnits="userSpaceOnUse" x1="312.1049" y1="355.4898" x2="348.2072" y2="355.4898">
			<stop  offset="0.4832" style="stop-color:#119A89"/>
			<stop  offset="0.9615" style="stop-color:#224193"/>
		</linearGradient>
		<path class="st66" d="M345.1,350.2l-23.8-13.8c-4.1-2.4-9.2,0.6-9.2,5.3v27.5c0,4.7,5.1,7.7,9.2,5.3l23.8-13.8
			C349.2,358.4,349.2,352.5,345.1,350.2z"/>
		<linearGradient id="SVGID_66_" gradientUnits="userSpaceOnUse" x1="221.4366" y1="356.1151" x2="409.1873" y2="356.1151">
			<stop  offset="0.4832" style="stop-color:#119A89"/>
			<stop  offset="0.9615" style="stop-color:#224193"/>
		</linearGradient>
		<path class="st67" d="M221.4,261.6v189c0,10.4,8.5,18.8,18.8,18.8h168.9l-93.4-182.8l-11.1-21.7l-11.3-22.1h-53.2
			C229.9,242.8,221.4,251.2,221.4,261.6z"/>
		<path class="st68" d="M447.4,286.6v32c0,1.8,1.5,3.2,3.4,3.2h45.7c1.9,0,3.4-1.4,3.4-3.2v-32c0-1.8-1.5-3.2-3.4-3.2h-45.7
			C448.9,283.4,447.4,284.9,447.4,286.6z"/>
		<path class="st68" d="M447.4,344.7v32c0,1.8,1.5,3.2,3.4,3.2h45.7c1.9,0,3.4-1.4,3.4-3.2v-32c0-1.8-1.5-3.2-3.4-3.2h-45.7
			C448.9,341.5,447.4,342.9,447.4,344.7z"/>
		<linearGradient id="SVGID_67_" gradientUnits="userSpaceOnUse" x1="445.6491" y1="331.1083" x2="499.8731" y2="331.1083">
			<stop  offset="0.4832" style="stop-color:#119A89"/>
			<stop  offset="0.9615" style="stop-color:#224193"/>
		</linearGradient>
		<path class="st69" d="M449.6,336H496c2.2,0,3.9-1.8,3.9-3.9v-2c0-2.2-1.8-3.9-3.9-3.9h-46.4c-2.2,0-3.9,1.8-3.9,3.9v2
			C445.6,334.2,447.4,336,449.6,336z"/>
		<linearGradient id="SVGID_68_" gradientUnits="userSpaceOnUse" x1="446.5504" y1="390.2479" x2="500.7744" y2="390.2479">
			<stop  offset="0.4832" style="stop-color:#119A89"/>
			<stop  offset="0.9615" style="stop-color:#224193"/>
		</linearGradient>
		<path class="st70" d="M450.5,395.1h46.4c2.2,0,3.9-1.8,3.9-3.9v-2c0-2.2-1.8-3.9-3.9-3.9h-46.4c-2.2,0-3.9,1.8-3.9,3.9v2
			C446.6,393.4,448.3,395.1,450.5,395.1z"/>
	</g>
</g>
<g id="Layer_5">
	<linearGradient id="SVGID_69_" gradientUnits="userSpaceOnUse" x1="191.0594" y1="434.703" x2="279.9605" y2="434.703">
		<stop  offset="0" style="stop-color:#4981BA"/>
		<stop  offset="0.4592" style="stop-color:#C498BD"/>
	</linearGradient>
	<path class="st71" d="M256.8,479.8c-0.8,1.6-1.5,3-2,4.2c-1.4,2.9-2.6,5.4-3.8,7.7c-6.5,13.1-9.3,17.3-10.9,19.7
		c-3.4,5-6.9,9.3-10.4,13c-10.5,5.6-21.8,10.8-33.4,14.9c-0.7-0.7-1.4-1.6-2-2.7c-0.9-1.4-1.5-3-2-4.7c-1-3.6-1.2-7.8-1.1-12.5
		c0.5-17.9,5.4-31.3,8.9-41.3c10.2-28.9,5.6-19.7,13.7-41.6c0.8-2,1.6-4.2,2.4-6.4c1-2.7,2.1-5.4,3.3-8.3c1.7-4.3,3.5-8.7,5.5-13.4
		c1.4-3.4,2.9-6.8,4.5-10.4c1.1-2.4,2.2-4.9,3.3-7.4c2-4.4,4.1-8.9,6.3-13.5c-3.6,16-7.2,32.1-10.8,48.1c-0.4,1.8-0.8,3.5-1.2,5.3
		c-8,30.6-15.9,61.2-23.8,91.8c15.8-43.3,28.4-77.6,38.5-104.5c25.7-68.3,35-89.1,36.5-87.9c2,1.5-7.9,41.8-25.7,93.5
		c-7.4,21.4-16.1,44.8-25.9,68.1c-5.4,12.8-10.3,23.8-14.4,32.7c-0.4,0.8-0.7,1.6-1.1,2.4c0.6-0.9,1.1-1.8,1.7-2.7
		c19.7-32,34-54.5,44.2-69.9c15.8-24,21.8-30.9,22.8-29.7C281.8,426.9,264.7,463.2,256.8,479.8z"/>
	<linearGradient id="SVGID_70_" gradientUnits="userSpaceOnUse" x1="319.3605" y1="489.795" x2="426.5948" y2="427.8833">
		<stop  offset="0.1525" style="stop-color:#CCA5CD"/>
		<stop  offset="0.9615" style="stop-color:#224193"/>
	</linearGradient>
	<path class="st72" d="M444,494.5c-1.2,2.9-3.1,3.5-17.5,13.1c-6.8,4.5-9.3,6.4-10.9,7.7c-0.4,0.3-0.8,0.6-1.1,0.9
		c-5.5,4.9-9.1,10-11.3,13.6c-4.1,0-8.2-0.1-12.3-0.1c-3.1-2.9-5.9-6.2-8.2-9.9c-1.8-2.9-3.6-6.5-8-9.3c-0.8-0.5-3.4-2.1-8.4-2.7
		c4.3-3.2,8-6.3,7.6-6.9c-0.1-0.1-0.3-0.1-0.3-0.1c-3.7,0-17.7,4.6-22.7,5.9c-0.1,0-19,1-19,1c-1.9-0.8-3-1.7-3.6-2.5
		c-0.6-0.7-0.8-1.4-0.8-1.6c-0.6-3.3,4.3-8,12.8-10.6c9.2-4.3,18.3-8.5,27.5-12.8c-8.2-0.2-16.5-0.4-24.7-0.6
		c-5.8,3.9-11.5,7.8-17.3,11.7c-0.1-0.2-0.2-0.4-0.3-0.6c-1.1-2.7-2.9-8.6-1.3-15.7c1.1-4.8,3.3-8.3,4.8-10.2
		c4.5-0.9,10.5-1.6,17.4-1.2c5,0.2,9.5,1,13.2,1.9c2,0.5,3.9,1,5.5,1.5c0.2-1.3,0.4-2.5,0.5-3.8c0.3-2.3,0.7-4.6,1-7
		c-3.9,1.3-9,2.6-15.2,2.9c-5.7,0.3-10.8-0.3-15.1-1.3c-4-0.9-7.3-2.1-9.8-3.1c-1.8-1.2-3.6-2.3-5.5-3.5c0-2.8,0.3-7.6,2.6-13
		c2.4-5.7,5.8-9.4,7.8-11.3c4.7,3.6,9.4,7.1,14.1,10.7c4.7,1.3,9.4,2.6,14.1,3.9l-21.1-20.8c-1.6-4.1-3.2-8.2-4.7-12.4
		c-0.2-2.1-0.3-6.7,2.1-11.8c2-4.3,4.8-7,6.4-8.3c1.9-0.1,4.8,0,8,1.2c6.3,2.4,9.4,7.4,10.3,9.1c1.2,11.7,2.4,23.4,3.5,35.1
		c2.9,1.4,4.4,1,5.3,0.5c4.7-2.7-3.5-14.2-0.1-30.1c0,0,3.2-14.8-0.3-18.7c0,0-0.2-0.2-0.1-0.3c0.3-0.8,7.5,0.2,13.2,2.7
		c2.6,1.2,6.6,3.4,10.6,8.2c-2.8,11.4-5.5,22.8-8.3,34.2c0,0,0,0,0,0c0,0.1-0.1,0.2-0.1,0.3c-0.1,3.7-0.3,7.4-0.4,11.1
		c2.1-1.1,4.3-2.2,6.4-3.3c1.4-6.5,2.9-13,4.3-19.5l1.8-4.8l0,0l4.1-11.1c0.7,0.2,2,0.6,3.6,1.3c2.2,1.1,5,2.9,7.3,5.9
		c4.1,5.3,4.2,11,4.2,12.7c-3,6.1-6.8,12.6-11.4,19.5c-3.2,4.8-6.4,9.1-9.6,13c0.3,1,0.5,2,0.8,3c0.3,1.1,0.6,2.3,0.9,3.5l7.2-7
		l13.3-13.1l0.7-0.7l0.3-1l3.1-10.4c0.4,0.1,1,0.3,1.9,0.7c2.8,1.2,7.5,3.9,10.2,9.4c0,0.1,0.4,0.9,0.8,2.1c0.9,2.9,2,8.3-0.3,13.5
		c-3.6,8.1-13.4,11.2-21.4,13.7c-6,1.9-10.8,3.5-11,6.6c-0.1,1.2,0.5,3.2,4.9,5.9c1-0.5,1.9-1,2.9-1.5c3.5-1.8,7-3.6,10.5-5.4
		c6-0.2,12-0.4,17.9-0.6C446.2,485.4,445.2,491.6,444,494.5z"/>
	<linearGradient id="SVGID_71_" gradientUnits="userSpaceOnUse" x1="97.97" y1="289.765" x2="104.73" y2="289.765">
		<stop  offset="0" style="stop-color:#4981BA"/>
		<stop  offset="0.4592" style="stop-color:#C498BD"/>
	</linearGradient>
	<path class="st73" d="M98,310.2c0-0.6,0-1.2-0.1-1.7c0-7.1,0-14.2,0-21.3c0-6,0-12,0-18c2,8.6,3.6,16.6,4.9,24
		c0.7,3.8,1.3,7.5,1.9,11c-0.6,1.1-1.5,2.1-2.9,3C100.3,308.2,99.1,309.3,98,310.2z"/>
	<linearGradient id="SVGID_72_" gradientUnits="userSpaceOnUse" x1="77.2186" y1="279.163" x2="92.66" y2="279.163">
		<stop  offset="0" style="stop-color:#4981BA"/>
		<stop  offset="0.4592" style="stop-color:#C498BD"/>
	</linearGradient>
	<path class="st74" d="M79,276.3c-2.2-27-2.3-45.6-1-46.2c1.1-0.5,3.6,11.3,8.8,47.6c1.6,11.3,3.5,25,5.8,41.5
		c-0.8,2.8-1.2,5.1-3.1,6.8c-1.2,1.2-2.6,1.6-4.7,2.2C82.2,309.4,80.3,291.6,79,276.3z"/>
	<linearGradient id="SVGID_73_" gradientUnits="userSpaceOnUse" x1="61.7297" y1="312.8992" x2="76.89" y2="312.8992">
		<stop  offset="0" style="stop-color:#4981BA"/>
		<stop  offset="0.4592" style="stop-color:#C498BD"/>
	</linearGradient>
	<path class="st75" d="M76.9,329.9c-4.2,0.4-8.3,0.1-9.8-2.1c-0.2-0.7-0.3-1.5-0.5-2.2c-2.9-13.3-5.9-28.8-4.6-29.8
		c0.8-0.6,3.5,4.2,9.6,20c0,0,0,0,0,0C73.2,319.8,74.9,324.4,76.9,329.9z"/>
	<linearGradient id="SVGID_74_" gradientUnits="userSpaceOnUse" x1="76.77" y1="352.2113" x2="110.4745" y2="352.2113">
		<stop  offset="0" style="stop-color:#4981BA"/>
		<stop  offset="0.4592" style="stop-color:#C498BD"/>
	</linearGradient>
	<path class="st76" d="M109.1,376.3c-1,4.9-2.2,8.8-4.9,11.6c-3.4,3.5-7.3,3.1-8.6,2.9c-4.8-4-11-10.5-16.3-20.7
		c-0.9-1.7-1.7-3.5-2.5-5.5c2.1-4.6,4.7-9.3,7.5-14c0.4,1.2,0.9,2.5,1.3,3.7c2.5,7.1,5.3,15.1,8.3,23.9c-1.6-7.1-3.4-16.3-5.3-26.9
		c0-0.1,0-0.2,0-0.3c-0.3-2-0.7-3.9-1-5.8c2.3-3.8,4.7-7.6,7.1-11.4c0.6,4.6,1.2,9.4,1.9,14.4c1.1,8.8,2.4,18.2,3.6,28.3
		c-0.3-9.5-0.6-19-0.9-28.6c-0.2-6.9-0.4-13.8-0.7-20.6c2.7-4.5,5.3-9.1,7.5-13.7c0.1,0.4,0.1,0.8,0.2,1.2c2.3,16.5,0.5,9.4,3,31.2
		c0.3,2.4,0.6,5.1,0.8,8.1C110.7,360.3,110.7,367.7,109.1,376.3z"/>
	<g>
		
			<linearGradient id="SVGID_75_" gradientUnits="userSpaceOnUse" x1="480.4518" y1="504.3376" x2="515.0815" y2="504.3376" gradientTransform="matrix(-0.1481 0.9312 0.9167 0.1458 -248.1617 -32.6322)">
			<stop  offset="2.717173e-07" style="stop-color:#DA565C"/>
			<stop  offset="0.9567" style="stop-color:#A1474C"/>
		</linearGradient>
		<path class="st77" d="M126.4,485.7c0,0,10.8,35.1,25.3,37.1c0.7,0.1,2.7,0.4,3.1-1.4c0.9-4.1-7.3-15.5-8.5-17.2
			C142.7,499.1,136.2,491.3,126.4,485.7z"/>
		
			<linearGradient id="SVGID_76_" gradientUnits="userSpaceOnUse" x1="538.8976" y1="483.6223" x2="568.2145" y2="483.6223" gradientTransform="matrix(-0.4327 0.8378 0.8247 0.4259 -26.6661 -199.8152)">
			<stop  offset="2.717173e-07" style="stop-color:#DA565C"/>
			<stop  offset="0.9567" style="stop-color:#A1474C"/>
		</linearGradient>
		<path class="st78" d="M122.9,449.4c0,0,1,32.3,16.3,39.5c0.7,0.3,2.9,1.4,3.9,0.1c2.3-2.9-3.2-15.3-4.1-17.1
			C136.7,466.5,132,457.7,122.9,449.4z"/>
		
			<linearGradient id="SVGID_77_" gradientUnits="userSpaceOnUse" x1="518.8493" y1="345.8365" x2="547.4726" y2="345.8365" gradientTransform="matrix(-0.3597 0.6965 0.581 0.3001 124.612 -27.3878)">
			<stop  offset="2.717173e-07" style="stop-color:#DA565C"/>
			<stop  offset="0.9567" style="stop-color:#A1474C"/>
		</linearGradient>
		<path class="st79" d="M127.3,431.8c0,0-0.2,26.1,10.7,30.8c0.5,0.2,2,0.9,2.8-0.2c1.7-2.5-1.9-12.1-2.5-13.6
			C136.8,444.6,133.6,437.9,127.3,431.8z"/>
		
			<linearGradient id="SVGID_78_" gradientUnits="userSpaceOnUse" x1="620.6731" y1="371.1378" x2="644.084" y2="371.1378" gradientTransform="matrix(-0.576 0.5318 0.4436 0.4805 339.5172 -83.2483)">
			<stop  offset="2.717173e-07" style="stop-color:#DA565C"/>
			<stop  offset="0.9567" style="stop-color:#A1474C"/>
		</linearGradient>
		<path class="st80" d="M138.2,416c0,0-9,20.2,1.5,28.5c0.5,0.4,1.9,1.6,3.2,1c2.8-1.2,2-10.2,1.8-11.6
			C144.3,430,143.1,423.4,138.2,416z"/>
		
			<linearGradient id="SVGID_79_" gradientUnits="userSpaceOnUse" x1="545.1498" y1="332.287" x2="570.4471" y2="332.287" gradientTransform="matrix(-0.4954 0.6076 0.5068 0.4132 251.8384 -68.6536)">
			<stop  offset="2.717173e-07" style="stop-color:#DA565C"/>
			<stop  offset="0.9567" style="stop-color:#A1474C"/>
		</linearGradient>
		<path class="st81" d="M140.2,391.8c0,0-5.5,22.9,5.3,29.8c0.5,0.3,2,1.3,3.1,0.5c2.4-1.8,0.4-11.2,0.1-12.6
			C147.8,405.5,145.8,398.7,140.2,391.8z"/>
		
			<linearGradient id="SVGID_80_" gradientUnits="userSpaceOnUse" x1="823.6434" y1="639.8204" x2="847.2217" y2="639.8204" gradientTransform="matrix(-0.7837 -1.860530e-02 -1.551864e-02 0.6537 819.515 70.5986)">
			<stop  offset="2.717173e-07" style="stop-color:#DA565C"/>
			<stop  offset="0.9567" style="stop-color:#A1474C"/>
		</linearGradient>
		<path class="st82" d="M164.2,465.4c0,0-23.2,0-17.9,12.3c0.3,0.6,1,2.3,2.6,3.2c3.8,1.9,9.1-2.2,9.9-2.9
			C161.1,476.2,164.3,472.5,164.2,465.4z"/>
		
			<linearGradient id="SVGID_81_" gradientUnits="userSpaceOnUse" x1="520.3563" y1="316.6326" x2="545.6536" y2="316.6326" gradientTransform="matrix(-0.4954 0.6076 0.5068 0.4132 251.8384 -68.6536)">
			<stop  offset="2.717173e-07" style="stop-color:#DA565C"/>
			<stop  offset="0.9567" style="stop-color:#A1474C"/>
		</linearGradient>
		<path class="st83" d="M144.6,370.2c0,0-5.5,22.9,5.3,29.8c0.5,0.3,2,1.3,3.1,0.5c2.4-1.8,0.4-11.2,0.1-12.6
			C152.2,383.9,150.1,377.2,144.6,370.2z"/>
		
			<linearGradient id="SVGID_82_" gradientUnits="userSpaceOnUse" x1="493.9037" y1="295.5617" x2="519.2009" y2="295.5617" gradientTransform="matrix(-0.4954 0.6076 0.5068 0.4132 251.8384 -68.6536)">
			<stop  offset="2.717173e-07" style="stop-color:#DA565C"/>
			<stop  offset="0.9567" style="stop-color:#A1474C"/>
		</linearGradient>
		<path class="st84" d="M147,345.4c0,0-5.5,22.9,5.3,29.8c0.5,0.3,2,1.3,3.1,0.5c2.4-1.8,0.4-11.2,0.1-12.6
			C154.6,359.2,152.6,352.4,147,345.4z"/>
		
			<linearGradient id="SVGID_83_" gradientUnits="userSpaceOnUse" x1="266.7122" y1="1206.4336" x2="292.9552" y2="1206.4336" gradientTransform="matrix(-3.808413e-02 0.783 -0.6531 -3.176609e-02 964.1758 204.3899)">
			<stop  offset="2.717173e-07" style="stop-color:#DA565C"/>
			<stop  offset="0.9567" style="stop-color:#A1474C"/>
		</linearGradient>
		<path class="st85" d="M173.2,375.3c0,0-1.1,25.6-12,19.1c-0.5-0.3-2-1.2-2.7-3c-1.6-4.2,2.5-9.9,3.1-10.7
			C163.4,378.1,166.8,374.8,173.2,375.3z"/>
		
			<linearGradient id="SVGID_84_" gradientUnits="userSpaceOnUse" x1="298.1143" y1="1209.9897" x2="324.3573" y2="1209.9897" gradientTransform="matrix(-3.808413e-02 0.783 -0.6531 -3.176609e-02 964.1758 204.3899)">
			<stop  offset="2.717173e-07" style="stop-color:#DA565C"/>
			<stop  offset="0.9567" style="stop-color:#A1474C"/>
		</linearGradient>
		<path class="st86" d="M169.7,399.7c0,0-1.1,25.6-12,19.1c-0.5-0.3-2-1.2-2.7-3c-1.6-4.2,2.5-9.9,3.1-10.7
			C159.9,402.6,163.3,399.3,169.7,399.7z"/>
		
			<linearGradient id="SVGID_85_" gradientUnits="userSpaceOnUse" x1="330.0091" y1="1215.3484" x2="356.2521" y2="1215.3484" gradientTransform="matrix(-3.808413e-02 0.783 -0.6531 -3.176609e-02 964.1758 204.3899)">
			<stop  offset="2.717173e-07" style="stop-color:#DA565C"/>
			<stop  offset="0.9567" style="stop-color:#A1474C"/>
		</linearGradient>
		<path class="st87" d="M165,424.5c0,0-1.1,25.6-12,19.1c-0.5-0.3-2-1.2-2.7-3c-1.6-4.2,2.5-9.9,3.1-10.7
			C155.1,427.4,158.6,424.1,165,424.5z"/>
		
			<linearGradient id="SVGID_86_" gradientUnits="userSpaceOnUse" x1="452.5302" y1="1323.5447" x2="475.3879" y2="1323.5447" gradientTransform="matrix(-0.243 0.6733 -0.5161 -0.1863 949.4653 388.0924)">
			<stop  offset="2.717173e-07" style="stop-color:#DA565C"/>
			<stop  offset="0.9567" style="stop-color:#A1474C"/>
		</linearGradient>
		<path class="st88" d="M163.1,448.7c0,0-7.4,19-15.8,10.9c-0.4-0.4-1.6-1.5-1.7-3.1c-0.4-3.6,4.8-6.7,5.5-7.2
			C153.3,448,157.3,446.5,163.1,448.7z"/>
		
			<linearGradient id="SVGID_87_" gradientUnits="userSpaceOnUse" x1="938.5023" y1="718.3238" x2="959.2364" y2="718.3238" gradientTransform="matrix(-0.5622 -1.334477e-02 -2.224756e-02 0.9372 706.6331 -163.8841)">
			<stop  offset="2.717173e-07" style="stop-color:#DA565C"/>
			<stop  offset="0.9567" style="stop-color:#A1474C"/>
		</linearGradient>
		<path class="st89" d="M162.8,483.6c0,0-15.8,4.6-10.3,21.7c0.3,0.8,1,3.2,2.2,4.1c2.8,2.1,5.8-5.1,6.3-6.2
			C162.3,500,164,494.1,162.8,483.6z"/>
		
			<linearGradient id="SVGID_88_" gradientUnits="userSpaceOnUse" x1="924.2626" y1="742.6437" x2="944.9967" y2="742.6437" gradientTransform="matrix(-0.5622 -1.334477e-02 -2.224756e-02 0.9372 706.6331 -163.8841)">
			<stop  offset="2.717173e-07" style="stop-color:#DA565C"/>
			<stop  offset="0.9567" style="stop-color:#A1474C"/>
		</linearGradient>
		<path class="st90" d="M170.3,506.6c0,0-15.8,4.6-10.3,21.7c0.3,0.8,1,3.2,2.2,4.1c2.8,2.1,5.8-5.1,6.3-6.2
			C169.8,523,171.4,517.1,170.3,506.6z"/>
		
			<linearGradient id="SVGID_89_" gradientUnits="userSpaceOnUse" x1="983.6662" y1="418.644" x2="1005.2563" y2="418.644" gradientTransform="matrix(-0.5001 -1.187235e-02 -1.612330e-02 0.6792 667.076 85.5399)">
			<stop  offset="2.717173e-07" style="stop-color:#DA565C"/>
			<stop  offset="0.9567" style="stop-color:#A1474C"/>
		</linearGradient>
		<path class="st91" d="M168.4,348.9c0,0-14.3,2.6-10,15c0.2,0.6,0.8,2.3,1.9,3c2.5,1.6,5.4-3.4,5.8-4.1
			C167.3,360.7,169,356.5,168.4,348.9z"/>
		
			<linearGradient id="SVGID_90_" gradientUnits="userSpaceOnUse" x1="265.9474" y1="773.0319" x2="122.1688" y2="773.0319" gradientTransform="matrix(0.5657 -0.8246 -0.8246 -0.5657 688.2424 1051.5664)">
			<stop  offset="2.717173e-07" style="stop-color:#DA565C"/>
			<stop  offset="0.9567" style="stop-color:#A1474C"/>
		</linearGradient>
		<path class="st92" d="M162,542.4c-1-1.7-2.6-4.4-3.8-7.8c-3.3-8.8-0.5-10.6-3.7-18.6c-1.8-4.5-3.4-5.8-5.2-11.5
			c-0.7-2-0.7-2.5-1.7-6.8c-1.3-5.8-2.6-10.5-3.8-14.6c-2.4-8.8-3-9.7-3-12.3c-0.1-3.3,0.8-2.9,1.4-7.8c0.8-6.3-0.5-7.6,0.6-12.2
			c0.7-3.2,1.5-2.8,3-7.4c1.2-3.6,1.5-6.1,2.1-9.1c0.7-3.6,2-8.5,4.4-14.2c-0.3-3.7-0.4-9.1,0.8-14.9c1.1-4.9,1.8-4.3,2.6-9
			c0.6-3.8,0.2-5.4,0.9-16.4c0.1-2.1,0.2-3.1,0.4-4.4c0.5-4.1,1.4-7.1,2.1-9c0,1.5-0.1,3.7-0.4,6.3c-0.6,7-1.5,8.5-1.7,13.6
			c-0.3,5.9,0.8,5.7,0.3,10.2c-0.5,5.8-2.3,6.5-3.3,11.9c-0.5,2.6-0.8,6.5,0,12.2c-2.4,5.6-3.7,10.6-4.5,14.1
			c-0.8,3.6-0.8,5-1.9,8.6c-1.8,6.4-2.8,6-3.3,10c-0.5,4.3,0.5,5.8,0.2,11.8c-0.2,3.2-0.6,5.7-1,7.3c0.2,1.1,3.7,17.5,6.2,26.4
			c0.6,2.2,1.2,4.3,2.1,6.8c1.5,4.2,2.8,7.2,3.1,7.9C156.6,516.8,158.9,524.5,162,542.4z"/>
	</g>
	
		<linearGradient id="SVGID_91_" gradientUnits="userSpaceOnUse" x1="181.3207" y1="624.1112" x2="215.3773" y2="604.4486" gradientTransform="matrix(1.2695 1.3662 -1.356 1.2601 914.5759 -798.8646)">
		<stop  offset="2.717173e-07" style="stop-color:#DA565C"/>
		<stop  offset="0.9567" style="stop-color:#A1474C"/>
	</linearGradient>
	<path class="st93" d="M364.6,240.3c0.9,0.4,2.9,1.5,4.4,3.7c1.3,1.9,1.7,3.7,1.9,4.7c-0.4,0.8-1.1,2-2.4,3.1
		c-2.5,2-5.4,2.1-6.3,2.1c-5.1-2.4-10.3-4.7-15.4-7.1c-1.3,0.9-1.5,1.6-1.5,2c0,2.6,6.7,2,12.5,7.3c0,0,5.4,4.9,7.8,4.4
		c0,0,0.1,0,0.1,0c0.3,0.3-1.9,3.1-4.3,4.8c-1.1,0.8-3,1.9-6,2.4c-4.1-4-8.2-7.9-12.3-11.9c-1.5-0.9-3-1.9-4.5-2.8
		c-0.1,1.2-0.1,2.3-0.2,3.5c2.4,2.2,4.7,4.4,7.1,6.6l5.2,6.3c-0.6,0.6-2.5,2.4-5.7,2.8c-3.2,0.4-5.6-0.9-6.3-1.4
		c-1.8-2.7-3.6-5.9-5.3-9.5c-1.2-2.5-2.2-4.9-3.1-7.2c-1-0.3-2-0.6-3.1-0.9l3.5,13.8l3.9,4.2c-0.6,0.5-3.3,2.8-7.1,2.5
		c-0.2,0-4.3-0.4-6.6-3.6c-4.4-6.1,2.4-16.4-0.6-18.4c-0.5-0.3-1.5-0.6-3.7,0.6c-0.1,2.4-0.3,4.8-0.4,7.3c-1.4,2.5-2.8,5.1-4.1,7.6
		c-6.9,0.7-9.3-1.2-10.2-2.4c-0.9-1.2-0.7-2.2-1.2-10.5c-0.3-4.9-0.5-6-0.7-7.1c-0.7-3.5-2-6.2-2.9-8c1.2-2,2.4-4,3.6-6l2.8-7.3
		c1.7-3.9,3.3-7.9,5-11.8c0.2-0.3,1.4-2.2,4-2.6c2.7-0.4,4.6,1.4,4.8,1.6c-0.9,3.2-1.7,6.4-2.6,9.6c0,0,0.8,11.3,1.6,11.3
		c0.1,0,0.1-0.1,0.1-0.1c0.9-1.5,2.4-8.5,3.1-10.8c0,0,4.3-8.3,4.2-8.2l0,0c1.6-1.2,2.5-0.9,2.8-0.9c1.5,0.6,2.3,3.7,1.3,7.9
		c-0.5,4.8-0.9,9.7-1.4,14.5c2.1-3.4,4.2-6.7,6.3-10.1c-0.2-3.3-0.4-6.7-0.7-10c1.2,0.2,4.4,0.7,7.2,3.3c1.7,1.6,2.6,3.4,3.1,4.5
		c-0.7,2.1-1.9,4.7-3.7,7.5c-2,3.1-4.2,5.4-6,6.9c1.4,1.1,2.7,2.2,4.1,3.2c0.4-1.9,1.1-4.4,2.5-7c2.5-4.7,5.8-7.7,7.9-9.2
		c0.9-0.5,1.8-0.9,2.8-1.4c1.2,0.7,3.1,2,4.8,4.3c1.8,2.4,2.5,4.7,2.8,6c-2.6,1.1-5.2,2.2-7.9,3.2c-1.7,1.6-3.4,3.3-5,4.9l13.8-3.7
		C360.4,239.6,362.5,239.9,364.6,240.3z"/>
</g>
</svg>
