<svg xmlns="http://www.w3.org/2000/svg" xmlns:xlink="http://www.w3.org/1999/xlink" viewBox="0 0 438.31 481.86"><defs><style>
            #Layer_2 {
                animation: pulse 3s ease-in-out alternate infinite;
                transform-origin: center;
            }
            @keyframes pulse {
                from {
                    transform: scale(1);
                }
                to {
                    transform: scale(1.1);
                }
            }
        </style><style>.cls-1{fill:url(#radial-gradient);}.cls-2{fill:url(#linear-gradient);}.cls-3{fill:url(#linear-gradient-2);}.cls-4{fill:url(#linear-gradient-3);}.cls-5{fill:url(#linear-gradient-4);}.cls-6{fill:url(#linear-gradient-5);}.cls-7{fill:url(#linear-gradient-6);}.cls-8{fill:url(#linear-gradient-7);}.cls-9{fill:url(#linear-gradient-8);}.cls-10{fill:url(#linear-gradient-9);}.cls-11{fill:url(#linear-gradient-10);}.cls-12{fill:url(#linear-gradient-11);}.cls-13{fill:url(#linear-gradient-12);}.cls-14{fill:url(#linear-gradient-13);}.cls-15{fill:url(#linear-gradient-14);}.cls-16{fill:url(#linear-gradient-15);}.cls-17{fill:url(#linear-gradient-16);}.cls-18{fill:url(#linear-gradient-17);}.cls-19{fill:url(#linear-gradient-18);}.cls-20{fill:url(#linear-gradient-19);}.cls-21{fill:url(#linear-gradient-20);}.cls-22{fill:url(#linear-gradient-21);}.cls-23{fill:url(#linear-gradient-22);}.cls-24{fill:url(#linear-gradient-23);}.cls-25{fill:url(#linear-gradient-24);}.cls-26{fill:url(#linear-gradient-25);}.cls-27{fill:url(#linear-gradient-26);}.cls-28{fill:url(#linear-gradient-27);}.cls-29{fill:url(#linear-gradient-28);}.cls-30{fill:url(#linear-gradient-29);}.cls-31{fill:url(#linear-gradient-30);}.cls-32{fill:url(#linear-gradient-31);}.cls-33{fill:url(#linear-gradient-32);}.cls-34{fill:url(#linear-gradient-33);}.cls-35{fill:url(#linear-gradient-34);}.cls-36{fill:url(#linear-gradient-35);}.cls-37{fill:url(#linear-gradient-36);}.cls-38{fill:url(#linear-gradient-37);}.cls-39{fill:url(#linear-gradient-38);}.cls-40{fill:url(#linear-gradient-39);}.cls-41{fill:url(#linear-gradient-40);}.cls-42{fill:url(#linear-gradient-41);}.cls-43{fill:url(#linear-gradient-42);}.cls-44{fill:url(#linear-gradient-43);}.cls-45{fill:url(#linear-gradient-44);}.cls-46{fill:url(#linear-gradient-45);}.cls-47{fill:url(#linear-gradient-46);}.cls-48{fill:url(#linear-gradient-47);}.cls-49{fill:url(#linear-gradient-48);}.cls-50{fill:url(#linear-gradient-49);}.cls-51{fill:url(#linear-gradient-50);}.cls-52{fill:url(#linear-gradient-51);}.cls-53{fill:url(#linear-gradient-52);}.cls-54{fill:url(#linear-gradient-53);}.cls-55{fill:url(#linear-gradient-54);}.cls-56{fill:url(#linear-gradient-55);}.cls-57{fill:url(#linear-gradient-56);}.cls-58{fill:url(#linear-gradient-57);}.cls-59{fill:url(#linear-gradient-58);}.cls-60{fill:url(#linear-gradient-59);}.cls-61{fill:url(#linear-gradient-60);}.cls-62{fill:url(#linear-gradient-61);}.cls-63{fill:#fff;}.cls-64{fill:#00a79d;}.cls-65{fill:#94d3cd;}.cls-66{fill:url(#linear-gradient-62);}.cls-67{fill:url(#linear-gradient-63);}.cls-68{fill:url(#linear-gradient-64);}.cls-69{fill:url(#linear-gradient-65);}.cls-70{fill:url(#linear-gradient-66);}.cls-71{fill:url(#linear-gradient-67);}.cls-72{fill:url(#linear-gradient-68);}.cls-73{fill:url(#linear-gradient-69);}.cls-74{fill:url(#linear-gradient-70);}.cls-75{fill:url(#linear-gradient-71);}</style><radialGradient id="radial-gradient" cx="250.89" cy="304" r="220.91" gradientUnits="userSpaceOnUse"><stop offset="0" stop-color="#da565c"/><stop offset="0.96" stop-color="#70455c"/></radialGradient><linearGradient id="linear-gradient" x1="377.46" y1="271.1" x2="481.63" y2="271.1" gradientUnits="userSpaceOnUse"><stop offset="0.22" stop-color="#8b5167"/><stop offset="1" stop-color="#563044"/></linearGradient><linearGradient id="linear-gradient-2" x1="403.38" y1="150.96" x2="451.82" y2="150.96" xlink:href="#linear-gradient"/><linearGradient id="linear-gradient-3" x1="315.5" y1="386.04" x2="400.77" y2="334.39" gradientTransform="matrix(1.39, 0.59, 0.71, -1.67, -483.8, 521.82)" gradientUnits="userSpaceOnUse"><stop offset="0.36" stop-color="#c89789"/><stop offset="1" stop-color="#3e2962"/></linearGradient><linearGradient id="linear-gradient-4" x1="398.31" y1="644.52" x2="432.94" y2="644.52" gradientTransform="matrix(-0.68, 0.65, 0.64, 0.67, 98.24, -209.43)" gradientUnits="userSpaceOnUse"><stop offset="0" stop-color="#865ca0"/><stop offset="0.27" stop-color="#8b56a3"/><stop offset="1" stop-color="#1f958c" stop-opacity="0.4"/></linearGradient><linearGradient id="linear-gradient-5" x1="384.21" y1="599.04" x2="413.52" y2="599.04" gradientTransform="matrix(-0.85, 0.41, 0.4, 0.84, 343.91, -202.28)" xlink:href="#linear-gradient-4"/><linearGradient id="linear-gradient-6" x1="341.44" y1="552.16" x2="370.06" y2="552.16" gradientTransform="matrix(-0.71, 0.34, 0.28, 0.59, 354.38, -1.47)" xlink:href="#linear-gradient-4"/><linearGradient id="linear-gradient-7" x1="363.74" y1="503.78" x2="387.15" y2="503.78" gradientTransform="matrix(-0.78, 0.08, 0.06, 0.65, 534.12, 78.88)" xlink:href="#linear-gradient-4"/><linearGradient id="linear-gradient-8" x1="317.84" y1="498.79" x2="343.14" y2="498.79" gradientTransform="matrix(-0.76, 0.18, 0.15, 0.64, 465.45, 40.62)" xlink:href="#linear-gradient-4"/><linearGradient id="linear-gradient-9" x1="491.33" y1="527.93" x2="514.91" y2="527.93" gradientTransform="matrix(-0.61, -0.49, -0.41, 0.51, 783.02, 453.39)" xlink:href="#linear-gradient-4"/><linearGradient id="linear-gradient-10" x1="293.05" y1="483.14" x2="318.35" y2="483.14" gradientTransform="matrix(-0.76, 0.18, 0.15, 0.64, 465.45, 40.62)" xlink:href="#linear-gradient-4"/><linearGradient id="linear-gradient-11" x1="266.6" y1="462.07" x2="291.89" y2="462.07" gradientTransform="matrix(-0.76, 0.18, 0.15, 0.64, 465.45, 40.62)" xlink:href="#linear-gradient-4"/><linearGradient id="linear-gradient-12" x1="207.98" y1="758.29" x2="234.22" y2="758.29" gradientTransform="matrix(-0.5, 0.6, -0.5, -0.42, 812.59, 599.57)" xlink:href="#linear-gradient-4"/><linearGradient id="linear-gradient-13" x1="239.38" y1="761.85" x2="265.62" y2="761.85" gradientTransform="matrix(-0.5, 0.6, -0.5, -0.42, 812.59, 599.57)" xlink:href="#linear-gradient-4"/><linearGradient id="linear-gradient-14" x1="271.28" y1="767.21" x2="297.52" y2="767.21" gradientTransform="matrix(-0.5, 0.6, -0.5, -0.42, 812.59, 599.57)" xlink:href="#linear-gradient-4"/><linearGradient id="linear-gradient-15" x1="300.08" y1="833.83" x2="322.93" y2="833.83" gradientTransform="matrix(-0.6, 0.39, -0.3, -0.46, 706.21, 723.93)" xlink:href="#linear-gradient-4"/><linearGradient id="linear-gradient-16" x1="492.02" y1="609.65" x2="512.76" y2="609.65" gradientTransform="matrix(-0.44, -0.35, -0.58, 0.73, 824.32, 226.7)" xlink:href="#linear-gradient-4"/><linearGradient id="linear-gradient-17" x1="477.78" y1="633.97" x2="498.52" y2="633.97" gradientTransform="matrix(-0.44, -0.35, -0.58, 0.73, 824.32, 226.7)" xlink:href="#linear-gradient-4"/><linearGradient id="linear-gradient-18" x1="487.1" y1="307.15" x2="508.69" y2="307.15" gradientTransform="matrix(-0.39, -0.31, -0.42, 0.53, 660.4, 382.71)" xlink:href="#linear-gradient-4"/><linearGradient id="linear-gradient-19" x1="353.09" y1="485.33" x2="209.31" y2="485.33" gradientTransform="matrix(0.95, -0.32, -0.32, -0.95, 161.52, 1015.06)" gradientUnits="userSpaceOnUse"><stop offset="0" stop-color="#865ca0"/><stop offset="0.27" stop-color="#8b56a3"/><stop offset="1" stop-color="#5b2b5e"/></linearGradient><linearGradient id="linear-gradient-20" x1="146.19" y1="463.9" x2="180.82" y2="463.9" gradientTransform="matrix(-0.68, 0.65, 0.64, 0.67, 98.24, -209.43)" gradientUnits="userSpaceOnUse"><stop offset="0" stop-color="#da565c"/><stop offset="0.96" stop-color="#a1474c"/></linearGradient><linearGradient id="linear-gradient-21" x1="200.57" y1="347.21" x2="229.89" y2="347.21" gradientTransform="matrix(-0.85, 0.41, 0.4, 0.84, 343.91, -202.28)" xlink:href="#linear-gradient-20"/><linearGradient id="linear-gradient-22" x1="120.56" y1="194.67" x2="149.19" y2="194.67" gradientTransform="matrix(-0.71, 0.34, 0.28, 0.59, 354.38, -1.47)" xlink:href="#linear-gradient-20"/><linearGradient id="linear-gradient-23" x1="258" y1="77.34" x2="281.41" y2="77.34" gradientTransform="matrix(-0.78, 0.08, 0.06, 0.65, 534.12, 78.88)" xlink:href="#linear-gradient-20"/><linearGradient id="linear-gradient-24" x1="163.04" y1="94.47" x2="188.33" y2="94.47" gradientTransform="matrix(-0.76, 0.18, 0.15, 0.64, 465.45, 40.62)" xlink:href="#linear-gradient-20"/><linearGradient id="linear-gradient-25" x1="662.77" y1="133.36" x2="686.35" y2="133.36" gradientTransform="matrix(-0.61, -0.49, -0.41, 0.51, 783.02, 453.39)" xlink:href="#linear-gradient-20"/><linearGradient id="linear-gradient-26" x1="138.24" y1="78.81" x2="163.54" y2="78.81" gradientTransform="matrix(-0.76, 0.18, 0.15, 0.64, 465.45, 40.62)" xlink:href="#linear-gradient-20"/><linearGradient id="linear-gradient-27" x1="111.79" y1="57.74" x2="137.09" y2="57.74" gradientTransform="matrix(-0.76, 0.18, 0.15, 0.64, 465.45, 40.62)" xlink:href="#linear-gradient-20"/><linearGradient id="linear-gradient-28" x1="-116.76" y1="973.57" x2="-90.52" y2="973.57" gradientTransform="matrix(-0.5, 0.6, -0.5, -0.42, 812.59, 599.57)" xlink:href="#linear-gradient-20"/><linearGradient id="linear-gradient-29" x1="-85.36" y1="977.13" x2="-59.12" y2="977.13" gradientTransform="matrix(-0.5, 0.6, -0.5, -0.42, 812.59, 599.57)" xlink:href="#linear-gradient-20"/><linearGradient id="linear-gradient-30" x1="-53.46" y1="982.49" x2="-27.22" y2="982.49" gradientTransform="matrix(-0.5, 0.6, -0.5, -0.42, 812.59, 599.57)" xlink:href="#linear-gradient-20"/><linearGradient id="linear-gradient-31" x1="17.77" y1="1215.21" x2="40.63" y2="1215.21" gradientTransform="matrix(-0.6, 0.39, -0.3, -0.46, 706.21, 723.93)" xlink:href="#linear-gradient-20"/><linearGradient id="linear-gradient-32" x1="731.04" y1="334.42" x2="751.77" y2="334.42" gradientTransform="matrix(-0.44, -0.35, -0.58, 0.73, 824.32, 226.7)" xlink:href="#linear-gradient-20"/><linearGradient id="linear-gradient-33" x1="716.8" y1="358.74" x2="737.53" y2="358.74" gradientTransform="matrix(-0.44, -0.35, -0.58, 0.73, 824.32, 226.7)" xlink:href="#linear-gradient-20"/><linearGradient id="linear-gradient-34" x1="755.76" y1="-72.62" x2="777.35" y2="-72.62" gradientTransform="matrix(-0.39, -0.31, -0.42, 0.53, 660.4, 382.71)" xlink:href="#linear-gradient-20"/><linearGradient id="linear-gradient-35" x1="495.87" y1="738.8" x2="352.09" y2="738.8" gradientTransform="matrix(0.95, -0.32, -0.32, -0.95, 161.52, 1015.06)" xlink:href="#linear-gradient-20"/><linearGradient id="linear-gradient-36" x1="320.53" y1="416.88" x2="355.16" y2="416.88" gradientTransform="matrix(-0.13, 0.93, 0.92, 0.13, -241.85, -2.5)" xlink:href="#linear-gradient-4"/><linearGradient id="linear-gradient-37" x1="380.63" y1="358.11" x2="409.95" y2="358.11" gradientTransform="matrix(-0.42, 0.84, 0.83, 0.41, -43.84, -148.11)" xlink:href="#linear-gradient-4"/><linearGradient id="linear-gradient-38" x1="337.14" y1="210.15" x2="365.76" y2="210.15" gradientTransform="matrix(-0.35, 0.7, 0.59, 0.29, 88.02, 3.71)" xlink:href="#linear-gradient-4"/><linearGradient id="linear-gradient-39" x1="457.14" y1="180.58" x2="480.55" y2="180.58" gradientTransform="matrix(-0.57, 0.54, 0.45, 0.47, 279.13, -43.61)" xlink:href="#linear-gradient-4"/><linearGradient id="linear-gradient-40" x1="372.33" y1="163.04" x2="397.62" y2="163.04" gradientTransform="matrix(-0.49, 0.61, 0.51, 0.41, 201.46, -31.5)" xlink:href="#linear-gradient-4"/><linearGradient id="linear-gradient-41" x1="745.95" y1="373.61" x2="769.53" y2="373.61" gradientTransform="matrix(-0.78, -0.01, -0.01, 0.65, 705.83, 98.3)" xlink:href="#linear-gradient-4"/><linearGradient id="linear-gradient-42" x1="347.53" y1="147.39" x2="372.83" y2="147.39" gradientTransform="matrix(-0.49, 0.61, 0.51, 0.41, 201.46, -31.5)" xlink:href="#linear-gradient-4"/><linearGradient id="linear-gradient-43" x1="321.08" y1="126.31" x2="346.38" y2="126.31" gradientTransform="matrix(-0.49, 0.61, 0.51, 0.41, 201.46, -31.5)" xlink:href="#linear-gradient-4"/><linearGradient id="linear-gradient-44" x1="85.63" y1="1067.29" x2="111.87" y2="1067.29" gradientTransform="matrix(-0.03, 0.78, -0.65, -0.02, 819.11, 195.3)" xlink:href="#linear-gradient-4"/><linearGradient id="linear-gradient-45" x1="117.03" y1="1070.85" x2="143.28" y2="1070.85" gradientTransform="matrix(-0.03, 0.78, -0.65, -0.02, 819.11, 195.3)" xlink:href="#linear-gradient-4"/><linearGradient id="linear-gradient-46" x1="148.93" y1="1076.2" x2="175.17" y2="1076.2" gradientTransform="matrix(-0.03, 0.78, -0.65, -0.02, 819.11, 195.3)" xlink:href="#linear-gradient-4"/><linearGradient id="linear-gradient-47" x1="254.79" y1="1237.15" x2="277.65" y2="1237.15" gradientTransform="matrix(-0.23, 0.68, -0.52, -0.18, 811.83, 358.79)" xlink:href="#linear-gradient-4"/><linearGradient id="linear-gradient-48" x1="847" y1="502" x2="867.73" y2="502" gradientTransform="matrix(-0.56, -0.01, -0.01, 0.94, 598.83, -105.77)" xlink:href="#linear-gradient-4"/><linearGradient id="linear-gradient-49" x1="832.76" y1="526.32" x2="853.49" y2="526.32" gradientTransform="matrix(-0.56, -0.01, -0.01, 0.94, 598.83, -105.77)" xlink:href="#linear-gradient-4"/><linearGradient id="linear-gradient-50" x1="886.11" y1="158.61" x2="907.7" y2="158.61" gradientTransform="matrix(-0.5, 0, -0.01, 0.68, 565.69, 118.09)" xlink:href="#linear-gradient-4"/><linearGradient id="linear-gradient-51" x1="328.65" y1="707.66" x2="184.88" y2="707.66" gradientTransform="matrix(0.55, -0.83, -0.83, -0.55, 561.8, 923.53)" xlink:href="#linear-gradient-19"/><linearGradient id="linear-gradient-52" x1="442" y1="151.85" x2="458.28" y2="151.85" gradientTransform="matrix(1, 0, 0, 1, 0, 0)" xlink:href="#linear-gradient-20"/><linearGradient id="linear-gradient-53" x1="430.34" y1="172.18" x2="433.81" y2="172.18" gradientTransform="matrix(1, 0, 0, 1, 0, 0)" xlink:href="#linear-gradient-20"/><linearGradient id="linear-gradient-54" x1="403.15" y1="251.64" x2="458.32" y2="251.64" gradientTransform="matrix(1, 0, 0, 1, 0, 0)" xlink:href="#linear-gradient-20"/><linearGradient id="linear-gradient-55" x1="355.35" y1="323.73" x2="401.81" y2="323.73" gradientTransform="matrix(0.99, -0.86, 0.91, 1.04, -312.45, 407.37)" gradientUnits="userSpaceOnUse"><stop offset="0" stop-color="#4981ba"/><stop offset="0.46" stop-color="#c498bd"/></linearGradient><linearGradient id="linear-gradient-56" x1="405.92" y1="42.73" x2="452.38" y2="42.73" gradientTransform="matrix(1.3, 0.17, -0.12, 0.9, -370.07, 7.56)" xlink:href="#linear-gradient-55"/><linearGradient id="linear-gradient-57" x1="103.86" y1="472.2" x2="174.62" y2="431.35" gradientTransform="matrix(0.54, -1.79, 1.77, 0.53, -568.78, 434.84)" gradientUnits="userSpaceOnUse"><stop offset="0.36" stop-color="#c89789"/><stop offset="1" stop-color="#4981ba"/></linearGradient><linearGradient id="linear-gradient-58" x1="234.68" y1="337.38" x2="272.66" y2="315.45" gradientTransform="matrix(1.81, -0.46, 0.46, 1.79, -155.71, -182.14)" xlink:href="#linear-gradient-57"/><linearGradient id="linear-gradient-59" x1="370.82" y1="195.8" x2="401.32" y2="195.8" gradientUnits="userSpaceOnUse"><stop offset="0.48" stop-color="#119a89"/><stop offset="0.96" stop-color="#224193"/></linearGradient><linearGradient id="linear-gradient-60" x1="382.46" y1="166.69" x2="410.2" y2="166.69" xlink:href="#linear-gradient-59"/><linearGradient id="linear-gradient-61" x1="369.47" y1="236.01" x2="393.21" y2="236.01" xlink:href="#linear-gradient-59"/><linearGradient id="linear-gradient-62" x1="139.31" y1="255.52" x2="144.65" y2="294.53" gradientTransform="matrix(1, 0, 0, 1, 0, 0)" xlink:href="#linear-gradient-20"/><linearGradient id="linear-gradient-63" x1="303.57" y1="277.31" x2="388.81" y2="225.61" gradientTransform="matrix(0.18, 1.99, 2.09, -0.19, -394.75, -289.8)" xlink:href="#linear-gradient-3"/><linearGradient id="linear-gradient-64" x1="272.94" y1="539.87" x2="334.36" y2="539.87" gradientTransform="matrix(0.25, 0.92, -0.98, 0.26, 544.8, 0.96)" xlink:href="#linear-gradient-59"/><linearGradient id="linear-gradient-65" x1="278.09" y1="514.95" x2="339.51" y2="514.95" gradientTransform="matrix(-0.41, 0.86, -0.92, -0.44, 713.08, 391.93)" xlink:href="#linear-gradient-59"/><linearGradient id="linear-gradient-66" x1="311.93" y1="512.54" x2="373.35" y2="512.54" gradientTransform="matrix(-0.78, 0.6, -0.63, -0.83, 704.83, 689.98)" xlink:href="#linear-gradient-59"/><linearGradient id="linear-gradient-67" x1="348.36" y1="195.16" x2="441.45" y2="195.16" gradientTransform="matrix(0.66, 0.95, 1.22, -0.85, -320.02, 225.16)" xlink:href="#linear-gradient-20"/><linearGradient id="linear-gradient-68" x1="366.86" y1="491.92" x2="428.04" y2="491.92" xlink:href="#linear-gradient-59"/><linearGradient id="linear-gradient-69" x1="406.42" y1="465.8" x2="453.76" y2="465.8" xlink:href="#linear-gradient-59"/><linearGradient id="linear-gradient-70" x1="318.84" y1="503.42" x2="375.95" y2="503.42" xlink:href="#linear-gradient-59"/><linearGradient id="linear-gradient-71" x1="75.86" y1="410.78" x2="113.84" y2="388.85" gradientTransform="matrix(1.81, -0.46, 0.46, 1.79, -155.71, -182.14)" xlink:href="#linear-gradient-57"/></defs><title>basicux</title><g id="Layer_4" data-name="Layer 4"><path class="cls-1" d="M444.18,501.44c-.39.76-.71,1.36-.95,1.79,0,0-6,3.24-15.19,7-11.29,4.68-27.29,10.2-42.5,11.49h0A68.49,68.49,0,0,1,376,522a46.37,46.37,0,0,1-11.35-1.87c-11.51-3.51-27.49-5-42.85-5.53-4.76-.16-9.45-.22-13.93-.22-18.94,0-34.12,1.15-34.12,1.15s-22.46,21.27-48.51,25.71c-7.53,1.28-18.81-.74-41.36-4.77-30.52-5.46-34.79-9.91-36.77-13.25-8.7-14.69,11.58-35.69-28.95-33.22-25.26,1.54-37.9-2-44.89-5.43-16.44-8.08-27.73-32.69-24.71-52.95,3.48-23.32,24.11-28.75,30.64-62.13,2.28-11.67,1-17.61.68-19.23-3.64-16-15.86-17.91-21.45-34-.87-2.53-5.93-17.95,1.24-30.15,4.64-7.92,11.64-9.72,33.49-18.54,8.63-3.48,21.19-8.71,36.42-15.65,31.52-15.79,67.36-37,63.81-52.16-.66-2.83-2.47-4.49-3.89-5.89-18.38-18-40.48-59-31.41-83.49,1.91-5.14,8.11-17.39,32.43-25.78,7.63-2.33,51.64-15.56,85.78-17.88a71.06,71.06,0,0,1,32.33,4.93C319.49,76.12,323,81.23,324,82.72c5.37,8.32,1,13.64,4.34,19.91,7,13.05,31.77.68,54.13,14.56,16.5,10.24,22.41,29,24.61,37,.16.56.29,1.06.41,1.51,2.13,8,4.59,17.18.51,27.57a32.93,32.93,0,0,1-3.31,6.34,33.58,33.58,0,0,1-3.37,4.27A41.56,41.56,0,0,1,389.11,203c-3.11,3-6.92,7.54-6.13,12.26a7.73,7.73,0,0,0,.33,1.26h0a8.86,8.86,0,0,0,3.18,3.92c1.91,1.5,4.12,2.77,5.41,5,3.68,6.39-.66,19.55-10.21,31.15a64.72,64.72,0,0,1-17.62,15.06c-22.63,13-41.93,3.42-50.55,17.62-3.71,6.12-1.95,10.9-8.68,22.21-5,8.35-8.25,9.67-11.49,14.81-7.58,12.06-6.38,31.63,1.28,43.15a21.32,21.32,0,0,0,4.13,4.7c4.1,3.41,9.74,5.17,19.56,7.38,2.3.52,4.83,1.07,7.63,1.66l1.58.34,2.2.47c3.54.75,7.45,1.59,11.8,2.56l3.49.79q2.66.6,5.52,1.28c4.16,1,8.66,2.06,13.53,3.29q3.68.93,7,1.8l.89.23c27.6,7.29,37,11.8,45.22,16.86,11.33,7,24.48,15.15,31.66,30.64a52.54,52.54,0,0,1,4.31,14.62C456.07,476.14,447.61,494.79,444.18,501.44Z" transform="translate(-48.02 -59.72)"/><path class="cls-2" d="M467.62,286.21c-1.85,8-2.92,12.68-2.68,19.4.63,17.61,9.56,27.84,4.61,33.92-2,2.48-5.21,3-7.42,3.19-18.65,1.78-54.3,24.66-66.86,13.81-.32-.28-.3-.32-3.95-7.34-12.39-23.83-13.21-25-13.7-28.51-.66-4.78.76-3.23,3.83-23,2.51-16.16,1.41-16.31,3.32-20.17,4.27-8.69,9.57-7.5,19.48-19.58,3.64-4.43,6.45-7.86,7.88-11.57h0a14.66,14.66,0,0,0,1-4.68,3.87,3.87,0,0,0,0-.48c.18-7.36-4.91-9.86-7.21-17.64-1.6-5.41-2-13.91,4.76-26.55,0,0,5.51-15,18-14.23a16,16,0,0,1,2.11.27l.4.08c2.51.5,5.6,1.22,9,2.12,2.15.57,4.43,1.22,6.76,1.93,14.72,4.5,31.46,11.59,32.18,19,2.09,21.6,3.39,41.12,1.7,46.3C477,264.26,471.6,268.92,467.62,286.21Z" transform="translate(-48.02 -59.72)"/><path class="cls-3" d="M449.06,177.61a5.88,5.88,0,0,1-1.74,1.36c-1.72.86-2.94.22-5.32-.48a25.38,25.38,0,0,0-7.19-1.05c-1,0-1.89,0-2.7.05-.62,0-1.2,0-1.77,0a13.64,13.64,0,0,1-4.34-.61,15.93,15.93,0,0,1-5.49-2.81c-6.42-5.6.92-16.27-5.36-25.53-2.06-3-3.46-2.8-7.41-8.17-4.26-5.81-4.46-8.6-4.34-10.21.05-.67.31-4.08,2.81-6.13,3.62-3,9.34-1,12.77.19,2.25.78,10.41,3.6,14.93,11.68,3.87,6.92.41,9.35,4.09,15.83,2.69,4.75,6.16,6.31,9,8.26a9.84,9.84,0,0,1,4.32,5.53,6.25,6.25,0,0,1,.16.62C452.44,170.24,451.38,175.05,449.06,177.61Z" transform="translate(-48.02 -59.72)"/></g><g id="Layer_6" data-name="Layer 6"><path class="cls-4" d="M325.24,183.5c4.28-6.21,17-26.08,14.21-47.64a44.93,44.93,0,0,0-2.2-9.33c-7.41-8.94-13.08-9.84-16.91-9C314,119,309,126,305,123.91a5.61,5.61,0,0,1-2.63-4.15c-.49-3.69,2.83-5.65,3.75-10.77.09-.51.93-5.6-1.69-9.3-2.5-3.52-7.54-4.93-11.23-2.63a8.45,8.45,0,0,0-2,1.79c-5.46,2.41-7.88,1.36-9,.47-2.27-1.82-2-5.33-3-12.88A103.86,103.86,0,0,0,277,74.76c-2.71-4.39-6.85-6.5-10.79-5.35-3.41,1-5.6,4.13-6.32,5.18-5.32,7.81-2.52,17.84-4.31,18.56-1.19.48-3.06-3.73-5.12-8.61-3-7.23-5.42-13.38-7.12-17.92-2.28-4.87-6.24-7.54-10.25-6.78-3.07.59-5.24,3-6.35,4.25-5,5.6-5.47,13.23-5.67,16.52a38.8,38.8,0,0,0,1.27,12c2.43,10.48,6.6,13.82,4.79,20-.27.91-1,3.23-2.58,4.08C221.93,118,220,114,217,114.47c-4,.62-8.74,8.83-8.6,16a15.1,15.1,0,0,0,8.76,13.57c7.12,3,13.57-2.84,17.5,1.64,1.17,1.33,2.32,3.8,1.55,5.71-1.25,3.1-6.39,1.91-9.48,6.06-1.38,1.86-2.5,5-1.94,7.5,1,4.5,6.76,4.36,19.78,10.06,4.29,1.87,6.84,3.28,6.58,4.69-.4,2.12-6.61,1.11-9.79,5.55s-2,12.68,1.44,17.27a13,13,0,0,0,7.11,4.66c32.52,9.3,54.77-4.58,54.77-4.58A77.19,77.19,0,0,0,325.24,183.5Z" transform="translate(-48.02 -59.72)"/><path class="cls-5" d="M229.31,470.24s-12.66,34.51-2.29,44.81c.5.49,1.92,2,3.33.78,3.22-2.7,3.58-16.8,3.63-18.9A65.42,65.42,0,0,0,229.31,470.24Z" transform="translate(-48.02 -59.72)"/><path class="cls-6" d="M248.49,439.23s-18.73,26.36-10.88,41.38c.37.72,1.44,2.85,3,2.43,3.58-.93,6.66-14.14,7.12-16.1A69.23,69.23,0,0,0,248.49,439.23Z" transform="translate(-48.02 -59.72)"/><path class="cls-7" d="M262.59,427.89s-15.94,20.67-10.06,31c.28.49,1.08,1.95,2.36,1.53,2.92-1,5.81-10.83,6.24-12.29A46.62,46.62,0,0,0,262.59,427.89Z" transform="translate(-48.02 -59.72)"/><path class="cls-8" d="M280.8,421.82s-19.35,10.65-16,23.59c.16.62.59,2.43,1.89,2.74,2.95.7,7.75-7,8.46-8.11A38.42,38.42,0,0,0,280.8,421.82Z" transform="translate(-48.02 -59.72)"/><path class="cls-9" d="M297.09,403.79s-18.23,14.94-13.79,27c.21.57.8,2.27,2.11,2.28,3,0,7.07-8.67,7.68-10A42.76,42.76,0,0,0,297.09,403.79Z" transform="translate(-48.02 -59.72)"/><path class="cls-10" d="M271.7,477S253.2,462.9,250,476a6.15,6.15,0,0,0,.18,4.1c1.82,3.81,8.58,3.69,9.58,3.67C262.73,483.67,267.46,482.72,271.7,477Z" transform="translate(-48.02 -59.72)"/><path class="cls-11" d="M313.57,389.26s-18.23,14.94-13.79,27c.21.57.8,2.27,2.11,2.28,3,0,7.07-8.66,7.68-10A42.72,42.72,0,0,0,313.57,389.26Z" transform="translate(-48.02 -59.72)"/><path class="cls-12" d="M330.48,371s-18.23,14.95-13.79,27c.21.58.8,2.27,2.11,2.28,3,0,7.07-8.66,7.67-9.95A42.62,42.62,0,0,0,330.48,371Z" transform="translate(-48.02 -59.72)"/><path class="cls-13" d="M333.36,410.6s-16.39,19.74-21.1,8a5.9,5.9,0,0,1-.33-4.06c1.31-4.33,7.94-6.38,8.93-6.69A12.42,12.42,0,0,1,333.36,410.6Z" transform="translate(-48.02 -59.72)"/><path class="cls-14" d="M315.76,428s-16.38,19.74-21.1,8a6,6,0,0,1-.33-4.06c1.31-4.32,7.95-6.38,8.93-6.68A12.4,12.4,0,0,1,315.76,428Z" transform="translate(-48.02 -59.72)"/><path class="cls-15" d="M297,444.89s-16.38,19.74-21.1,8a6.06,6.06,0,0,1-.33-4.07c1.31-4.32,7.95-6.38,8.94-6.68A12.38,12.38,0,0,1,297,444.89Z" transform="translate(-48.02 -59.72)"/><path class="cls-16" d="M280.9,462.94s-17.39,10.61-19.22-.87a5.12,5.12,0,0,1,.46-3.5c1.89-3.14,7.85-2.49,8.74-2.39C273.48,456.46,277.59,457.66,280.9,462.94Z" transform="translate(-48.02 -59.72)"/><path class="cls-17" d="M259.6,490.62s-15.37-5.84-21.35,11c-.28.8-1.14,3.13-.7,4.62,1,3.38,7.73-.56,8.74-1.15C249.22,503.41,254.14,499.64,259.6,490.62Z" transform="translate(-48.02 -59.72)"/><path class="cls-18" d="M251.65,513.44s-15.36-5.84-21.34,11c-.29.8-1.14,3.13-.71,4.62,1,3.38,7.74-.56,8.74-1.15C241.28,526.23,246.19,522.46,251.65,513.44Z" transform="translate(-48.02 -59.72)"/><path class="cls-19" d="M345.4,386.66s-13-6.61-17.07,5.92a6.33,6.33,0,0,0-.35,3.56c1,2.79,6.36.56,7.16.23C337.48,395.39,341.35,393.06,345.4,386.66Z" transform="translate(-48.02 -59.72)"/><path class="cls-20" d="M223.37,536.94a46.69,46.69,0,0,1,1.67-8.5c2.7-9,6-8.69,8.35-17,1.29-4.63.81-6.66,2.81-12.36.72-2,1-2.38,2.8-6.42,2.41-5.4,4.22-9.92,5.84-13.95,3.39-8.45,3.49-9.49,5.06-11.63,2-2.69,2.37-1.83,5.86-5.35,4.46-4.49,4.25-6.35,7.85-9.36,2.54-2.13,2.86-1.38,6.86-4.08a61.69,61.69,0,0,0,7.22-6,73.09,73.09,0,0,1,12.08-8.69,53,53,0,0,1,9.67-11.36c3.82-3.29,4.08-2.32,7.49-5.63,2.78-2.7,3.46-4.17,10.63-12.57,1.39-1.63,2.06-2.39,3-3.31a41.15,41.15,0,0,1,7.16-5.92c-.93,1.14-2.35,2.85-4.13,4.81-4.71,5.16-6.33,5.85-9.64,9.81-3.77,4.51-2.82,5-5.87,8.3-4,4.31-5.79,3.81-9.8,7.48a37.16,37.16,0,0,0-7.34,9.7,78.08,78.08,0,0,0-12.15,8.51c-2.84,2.42-3.7,3.49-6.72,5.74-5.31,4-5.89,3.08-8.67,6-3,3.12-3.06,4.91-6.95,9.49a43.48,43.48,0,0,1-5.19,5.19c-.49,1-7.59,16.19-11.05,24.8-.85,2.11-1.63,4.21-2.43,6.69-1.35,4.19-2.09,7.46-2.26,8.19C234.55,513.34,231.75,520.87,223.37,536.94Z" transform="translate(-48.02 -59.72)"/><path class="cls-21" d="M285,184.71s-12.67,34.51-2.29,44.8c.49.49,1.91,2,3.33.79,3.21-2.71,3.57-16.8,3.62-18.9A65.35,65.35,0,0,0,285,184.71Z" transform="translate(-48.02 -59.72)"/><path class="cls-22" d="M304.15,153.69s-18.72,26.36-10.87,41.39c.37.71,1.43,2.84,3,2.43,3.58-.94,6.66-14.15,7.12-16.11A69.22,69.22,0,0,0,304.15,153.69Z" transform="translate(-48.02 -59.72)"/><path class="cls-23" d="M318.25,142.35s-15.93,20.68-10.05,31c.28.49,1.07,2,2.36,1.53,2.92-1,5.81-10.82,6.24-12.29A46.64,46.64,0,0,0,318.25,142.35Z" transform="translate(-48.02 -59.72)"/><path class="cls-24" d="M336.47,136.29s-19.35,10.65-16,23.58c.16.62.6,2.43,1.89,2.74,2.95.7,7.75-7,8.47-8.11A38.37,38.37,0,0,0,336.47,136.29Z" transform="translate(-48.02 -59.72)"/><path class="cls-25" d="M352.75,118.25s-18.23,14.94-13.78,27c.21.57.8,2.27,2.11,2.28,3,0,7.06-8.66,7.67-10A42.59,42.59,0,0,0,352.75,118.25Z" transform="translate(-48.02 -59.72)"/><path class="cls-26" d="M327.36,191.45s-18.49-14.08-21.66-1a6.12,6.12,0,0,0,.18,4.09c1.81,3.81,8.57,3.7,9.58,3.68C318.4,198.14,323.13,197.18,327.36,191.45Z" transform="translate(-48.02 -59.72)"/><path class="cls-27" d="M369.23,103.72s-18.23,15-13.79,27c.22.58.8,2.27,2.12,2.28,3,0,7.06-8.66,7.67-10A42.64,42.64,0,0,0,369.23,103.72Z" transform="translate(-48.02 -59.72)"/><path class="cls-28" d="M386.14,85.45s-18.23,14.94-13.79,27c.21.57.8,2.27,2.11,2.28,3,0,7.07-8.67,7.68-10A42.59,42.59,0,0,0,386.14,85.45Z" transform="translate(-48.02 -59.72)"/><path class="cls-29" d="M389,125.07s-16.38,19.74-21.1,8a6.05,6.05,0,0,1-.33-4.07c1.31-4.32,8-6.38,8.94-6.68A12.38,12.38,0,0,1,389,125.07Z" transform="translate(-48.02 -59.72)"/><path class="cls-30" d="M371.43,142.44s-16.39,19.74-21.1,8a5.93,5.93,0,0,1-.33-4.07c1.31-4.32,7.94-6.38,8.93-6.68A12.4,12.4,0,0,1,371.43,142.44Z" transform="translate(-48.02 -59.72)"/><path class="cls-31" d="M352.68,159.35s-16.39,19.74-21.1,8a5.93,5.93,0,0,1-.33-4.07c1.31-4.32,7.94-6.37,8.93-6.68A12.42,12.42,0,0,1,352.68,159.35Z" transform="translate(-48.02 -59.72)"/><path class="cls-32" d="M336.56,177.4s-17.38,10.62-19.21-.87a5.13,5.13,0,0,1,.46-3.5c1.89-3.13,7.85-2.49,8.74-2.39C329.14,170.92,333.25,172.13,336.56,177.4Z" transform="translate(-48.02 -59.72)"/><path class="cls-33" d="M315.26,205.09s-15.36-5.85-21.34,11c-.29.8-1.14,3.14-.71,4.62,1,3.39,7.74-.56,8.74-1.14C304.89,217.87,309.8,214.1,315.26,205.09Z" transform="translate(-48.02 -59.72)"/><path class="cls-34" d="M307.32,227.91s-15.37-5.85-21.35,11c-.28.8-1.13,3.14-.7,4.62,1,3.39,7.73-.56,8.74-1.14C296.94,240.69,301.86,236.92,307.32,227.91Z" transform="translate(-48.02 -59.72)"/><path class="cls-35" d="M401.07,101.12s-13-6.6-17.07,5.92a6.23,6.23,0,0,0-.36,3.56c1,2.8,6.36.56,7.16.23C393.14,109.86,397,107.52,401.07,101.12Z" transform="translate(-48.02 -59.72)"/><path class="cls-36" d="M279,251.4a46,46,0,0,1,1.67-8.5c2.7-9,6-8.68,8.34-17,1.29-4.63.81-6.65,2.82-12.35.71-2,1-2.38,2.8-6.43,2.41-5.4,4.22-9.92,5.83-14,3.39-8.45,3.5-9.49,5.07-11.63,2-2.69,2.37-1.83,5.85-5.34,4.46-4.5,4.25-6.35,7.85-9.36,2.55-2.14,2.87-1.38,6.87-4.09a61.36,61.36,0,0,0,7.22-6A73.42,73.42,0,0,1,345.43,148a52.61,52.61,0,0,1,9.68-11.37c3.82-3.29,4.07-2.31,7.49-5.63,2.78-2.7,3.45-4.17,10.63-12.57,1.39-1.63,2-2.38,2.95-3.3a42.08,42.08,0,0,1,7.16-5.93c-.93,1.15-2.35,2.86-4.13,4.81-4.71,5.16-6.32,5.85-9.63,9.81-3.77,4.51-2.83,5-5.88,8.31-3.94,4.3-5.79,3.8-9.8,7.47a37.38,37.38,0,0,0-7.34,9.7,79.1,79.1,0,0,0-12.14,8.51c-2.84,2.42-3.71,3.5-6.72,5.75-5.31,4-5.9,3.07-8.68,6-3,3.11-3,4.91-6.94,9.48a43.4,43.4,0,0,1-5.2,5.19c-.49,1-7.58,16.19-11.05,24.8-.85,2.12-1.63,4.21-2.43,6.69-1.35,4.19-2.09,7.47-2.26,8.19C290.22,227.8,287.42,235.34,279,251.4Z" transform="translate(-48.02 -59.72)"/><path class="cls-37" d="M81.21,349.61s11.27,35,25.78,36.72c.69.08,2.73.37,3.11-1.43.87-4.11-7.53-15.44-8.78-17.13A65.31,65.31,0,0,0,81.21,349.61Z" transform="translate(-48.02 -59.72)"/><path class="cls-38" d="M77.24,313.36s1.46,32.3,16.9,39.31c.73.34,2.88,1.36,3.87.06,2.24-2.94-3.46-15.24-4.31-17.07A69.26,69.26,0,0,0,77.24,313.36Z" transform="translate(-48.02 -59.72)"/><path class="cls-39" d="M81.36,295.74s.18,26.11,11.16,30.62c.52.21,2,.88,2.8-.25,1.71-2.56-2.08-12.11-2.65-13.53A46.69,46.69,0,0,0,81.36,295.74Z" transform="translate(-48.02 -59.72)"/><path class="cls-40" d="M92,279.75s-8.7,20.31,1.9,28.44c.51.39,2,1.55,3.18,1,2.75-1.27,1.82-10.27,1.68-11.61A38.48,38.48,0,0,0,92,279.75Z" transform="translate(-48.02 -59.72)"/><path class="cls-41" d="M93.72,255.51s-5.17,23,5.75,29.76c.52.32,2,1.3,3.06.5,2.37-1.82.24-11.18-.08-12.57A42.59,42.59,0,0,0,93.72,255.51Z" transform="translate(-48.02 -59.72)"/><path class="cls-42" d="M118.77,328.83s-23.24.29-17.71,12.52a6.1,6.1,0,0,0,2.66,3.12c3.78,1.88,9-2.37,9.81-3C115.82,339.62,119,336,118.77,328.83Z" transform="translate(-48.02 -59.72)"/><path class="cls-43" d="M97.76,233.92s-5.16,23,5.75,29.76c.52.32,2,1.29,3.07.5,2.36-1.82.23-11.18-.08-12.58A42.67,42.67,0,0,0,97.76,233.92Z" transform="translate(-48.02 -59.72)"/><path class="cls-44" d="M99.84,209.11s-5.17,23,5.75,29.76c.52.32,2,1.29,3.06.49,2.37-1.81.24-11.17-.08-12.57A42.62,42.62,0,0,0,99.84,209.11Z" transform="translate(-48.02 -59.72)"/><path class="cls-45" d="M126.5,238.56s-.76,25.64-11.73,19.27a6,6,0,0,1-2.76-3c-1.63-4.22,2.34-9.92,2.93-10.77A12.4,12.4,0,0,1,126.5,238.56Z" transform="translate(-48.02 -59.72)"/><path class="cls-46" d="M123.33,263.08s-.77,25.64-11.73,19.27a6,6,0,0,1-2.76-3c-1.63-4.21,2.33-9.92,2.92-10.77A12.42,12.42,0,0,1,123.33,263.08Z" transform="translate(-48.02 -59.72)"/><path class="cls-47" d="M119,288s-.76,25.64-11.72,19.27a6,6,0,0,1-2.77-3c-1.62-4.22,2.34-9.92,2.93-10.77A12.4,12.4,0,0,1,119,288Z" transform="translate(-48.02 -59.72)"/><path class="cls-48" d="M117.37,312.1s-7.17,19.07-15.68,11.14a5.17,5.17,0,0,1-1.79-3c-.44-3.64,4.66-6.8,5.42-7.27C107.53,311.56,111.51,310,117.37,312.1Z" transform="translate(-48.02 -59.72)"/><path class="cls-49" d="M117.63,347s-15.71,4.85-10,21.82c.27.81,1,3.17,2.29,4.08,2.86,2.06,5.75-5.2,6.18-6.28C117.32,363.49,118.88,357.49,117.63,347Z" transform="translate(-48.02 -59.72)"/><path class="cls-50" d="M125.41,369.9s-15.7,4.85-10,21.82c.27.81,1,3.18,2.29,4.08,2.86,2.06,5.75-5.2,6.18-6.28C125.11,386.36,126.66,380.37,125.41,369.9Z" transform="translate(-48.02 -59.72)"/><path class="cls-51" d="M121.25,212.27s-14.29,2.78-9.81,15.18a6.18,6.18,0,0,0,1.91,3c2.5,1.6,5.36-3.47,5.78-4.23C120.38,224,122,219.82,121.25,212.27Z" transform="translate(-48.02 -59.72)"/><path class="cls-52" d="M117.59,405.83a46,46,0,0,1-3.91-7.73c-3.4-8.73-.61-10.55-3.92-18.57-1.83-4.44-3.46-5.74-5.38-11.47-.69-2-.69-2.48-1.76-6.78-1.42-5.74-2.77-10.42-4-14.59-2.53-8.75-3.09-9.63-3.17-12.28-.1-3.34.74-2.9,1.32-7.82.75-6.29-.56-7.62.43-12.21.69-3.25,1.41-2.85,2.89-7.44a61.9,61.9,0,0,0,2-9.17,72.85,72.85,0,0,1,4.17-14.28,53,53,0,0,1,.62-14.91c1-4.94,1.79-4.33,2.44-9,.53-3.84.16-5.42.64-16.46.09-2.14.15-3.14.29-4.42a41.8,41.8,0,0,1,2-9.08c0,1.48-.09,3.7-.3,6.34-.53,7-1.38,8.5-1.55,13.66-.19,5.88.84,5.66.49,10.16-.46,5.82-2.23,6.56-3.13,11.93a37.33,37.33,0,0,0,.19,12.16A77.89,77.89,0,0,0,103.65,298c-.75,3.65-.77,5-1.76,8.66-1.75,6.39-2.76,6.06-3.17,10-.44,4.3.62,5.75.37,11.75a42.92,42.92,0,0,1-.91,7.29c.26,1.12,4,17.42,6.57,26.34.63,2.2,1.3,4.33,2.2,6.77,1.52,4.14,3,7.17,3.26,7.85C111.87,380.34,114.3,388,117.59,405.83Z" transform="translate(-48.02 -59.72)"/><path class="cls-53" d="M442,178.49c1.84-6.91,3.49-13,5-18.45,7.45-27.3,10.54-36.47,11.18-35.68.78,1-1.7,17.3-6.7,41.83-.74,3.63-1.53,7.45-2.38,11.42a5.88,5.88,0,0,1-1.74,1.36C445.6,179.83,444.38,179.19,442,178.49Z" transform="translate(-48.02 -59.72)"/><path class="cls-54" d="M432.11,177.49c-.62,0-1.2,0-1.77,0q1.65-5.25,3.47-10.73Q433,172.15,432.11,177.49Z" transform="translate(-48.02 -59.72)"/><path class="cls-55" d="M442.36,267.18c-5.83,17.62-8,22.46-9.2,25-7.62,16.14-16,24.13-21.7,28.3-1.09-.17-4.4-1-6.54-6.62-1.66-4.37-1.91-9.78-1.72-16.24.49-16.68,3.6-29,5.83-38.16,1.42-5.81,2.39-9.95,3.1-13.08h0c.42-1.88.74-3.39,1-4.68,1.34-6.42,1.3-7.46,4.67-20.49,2.78-10.71,6.37-23.77,10.89-38.41a16,16,0,0,1,2.11.27l.4.08q-2.62,16.53-5.26,33.05-7.69,42.38-15.41,84.75c12.9-51.19,22.55-88.72,29.67-115.68,2.15.57,4.43,1.22,6.76,1.93-5.6,25.32-13.05,55.69-21.81,86-3.7,12.79-7.07,23.6-9.79,32.06,32.34-76.15,41.84-94.64,42.85-92.68C459.58,215.16,446.46,254.8,442.36,267.18Z" transform="translate(-48.02 -59.72)"/><path class="cls-56" d="M403.46,506.65c1.82-6.87,3.22-18.33-1.08-35.65-.68-2.73-2.06-7.85-8.68-25.19-4.65-12.18-19.55-51.18-22.25-52.35-2-.88,2.31,19.45,25.4,98.89-3.24-8.27-7.47-18.78-12.69-31-29.86-70.05-65.9-135.58-68.53-136.14-2-.41,13.36,35.65,74.76,166.9l-41.64-75.4q-12.57-21.62-25.13-43.22c7.95,20.83,15.75,38.67,22,52.25,8.65,18.82,5.62,10.52,17.38,35.19,4.06,8.51,9.44,20,19.61,33.26,3.93,5.12,7.55,9.15,11.6,11.49C399.43,508.66,402.51,507.2,403.46,506.65Z" transform="translate(-48.02 -59.72)"/><path class="cls-57" d="M152.2,180A58.68,58.68,0,0,0,177,165.17c1.49-1.45,4.21-4.23,12.06-14.64,5.52-7.31,23.19-30.73,22.16-32.61-.77-1.42-12.34,9-53.34,52.89,3.7-5,8.3-11.43,13.48-19.07C201,108,223,62.91,221.62,61.31c-1.07-1.2-16.32,21.28-68,106l25.29-52q6.81-15.24,13.63-30.48c-9.44,12.51-16.84,23.74-22.26,32.45-7.52,12.07-3.66,7.16-13.22,23.2-3.3,5.54-7.84,13-10.3,23.6-1,4.11-1.35,7.62-.23,10.68A8.14,8.14,0,0,0,152.2,180Z" transform="translate(-48.02 -59.72)"/><path class="cls-58" d="M263.48,376.89a23.52,23.52,0,0,1,2.07-11.81,23.24,23.24,0,0,1,6.43-8.26,19.35,19.35,0,0,1,8,1.17,20.33,20.33,0,0,1,10.35,9.07q1.75,17.56,3.52,35.12c2.88,1.35,4.4,1,5.25.53,4.66-2.65-3.49-14.21-.09-30.06,0,0,3.18-14.8-.29-18.73,0,0-.16-.17-.12-.29.25-.77,7.54.19,13.2,2.73a30,30,0,0,1,10.63,8.16L314.08,399q-.19,5.54-.37,11.08l6.42-3.3q2.16-9.76,4.33-19.55l5.83-15.93a20.39,20.39,0,0,1,10.9,7.25,20.63,20.63,0,0,1,4.18,12.7A183.22,183.22,0,0,1,334,410.74c-3.21,4.79-6.44,9.13-9.59,13,.54,2.15,1.09,4.3,1.63,6.45l21.17-20.73,3.42-11.4c1.51.47,8.53,2.88,12,10.07.15.32,3.82,8.15.56,15.58-6.27,14.27-32,13-32.33,20.37-.06,1.22.54,3.24,4.88,5.94l13.42-6.91,17.94-.58c8.56,11.7,7.6,17.88,6.34,20.8s-3.13,3.5-17.52,13.14c-8.56,5.73-10.34,7.15-11.95,8.59a59,59,0,0,0-11.26,13.57l-14.48-.17-16,2.66-26.35,3.52a11.94,11.94,0,0,1-8.8-4.38A12.27,12.27,0,0,1,265.06,490l19.9-5.46s19.45-13.37,18.58-14.78c-.07-.12-.25-.13-.34-.13-3.67,0-17.7,4.62-22.69,5.87-.09,0-19.3,1-19.05,1h0c-3.87-1.64-4.35-3.54-4.45-4.07-.59-3.32,4.27-8,12.8-10.58l27.48-12.75-24.71-.58-17.29,11.71a27.07,27.07,0,0,1-1.54-16.37,26.58,26.58,0,0,1,4.8-10.25,73.36,73.36,0,0,1,36.12,2.15l1.5-10.74a55.56,55.56,0,0,1-15.18,2.9,56.5,56.5,0,0,1-24.88-4.49l-5.46-3.47a33.28,33.28,0,0,1,10.44-24.36l14.06,10.68,14.14,3.86-21.06-20.85Z" transform="translate(-48.02 -59.72)"/><path class="cls-59" d="M463.38,252.05A12.43,12.43,0,0,1,475,250.39a10.25,10.25,0,0,1,1.69,4,10.91,10.91,0,0,1-1.3,7.27L460.19,273c.17,1.7.75,2.31,1.2,2.56,2.52,1.41,5.57-5.54,13.8-8.37,0,0,7.68-2.64,8.53-5.33a.17.17,0,0,1,.09-.13c.43-.1,2,3.52,2.41,6.83a16.11,16.11,0,0,1-.81,7.14l-18.19,5.71-5.19,2.9,3.29,2L475.51,283l8.94-1.73a11,11,0,0,1-.32,7,11.13,11.13,0,0,1-4.67,5.44,99.26,99.26,0,0,1-12.09.16c-3.1-.15-6-.43-8.65-.79l-2.52,2.53,15.4,4,6.19-1.59a10.93,10.93,0,0,1-1.3,8.32c-.1.16-2.69,4-7,4.57-8.3,1.08-14.84-11.07-18.33-9.21-.57.31-1.34,1.15-1.37,3.89l6.89,4.25,5.24,8.09c-3,7.17-6.11,8.44-7.8,8.68s-2.48-.47-10.9-4.41A57.26,57.26,0,0,0,436,319a31.68,31.68,0,0,0-9.36-1.41l-3.93-6.71-5.65-6.6-8.92-11.14a6.41,6.41,0,0,1-.43-5.26,6.57,6.57,0,0,1,4.17-3.81l8,7.63s11.54,5.24,11.95,4.45a.21.21,0,0,0,0-.19c-1-1.7-7-6.86-9-8.81,0,0-5.81-8.59-5.74-8.48h0c-.32-2.23.42-3,.64-3.17,1.36-1.19,4.85-.25,8.41,2.95l13.48,9.1L433,276.07l-10.18-4.71a14.58,14.58,0,0,1,7.1-5.24,14.11,14.11,0,0,1,6-.63,39.17,39.17,0,0,1,9,17.2l5.35-2.29A30,30,0,0,1,440,261.54l.09-3.47a18.05,18.05,0,0,1,6.71-2.42,17.83,17.83,0,0,1,7.38.47l-1,9.42c.72,2.53,1.43,5,2.15,7.57L459,257.65Z" transform="translate(-48.02 -59.72)"/><path class="cls-60" d="M401.32,193.92A41.56,41.56,0,0,1,389.11,203c-3.11,3-6.92,7.54-6.13,12.26a7.73,7.73,0,0,0,.33,1.26l-.89-.71c-14-11.2-11.5-38.87-11.32-40.67a41.62,41.62,0,0,1,20.51,7.37c.77.55,1.51,1.13,2.24,1.74l.21.18.25.2a46.24,46.24,0,0,1,6.78,7.28C401.19,192.56,401.27,193.25,401.32,193.92Z" transform="translate(-48.02 -59.72)"/><path class="cls-61" d="M408,183.31a32.93,32.93,0,0,1-3.31,6.34,22.59,22.59,0,0,1-10.38-5.05l-.25-.2-.21-.18c-13.73-11.3-11.29-38.7-11.11-40.49a41.65,41.65,0,0,1,20.51,7.37,40.56,40.56,0,0,1,3.83,3.13c.16.56.29,1.06.41,1.51C409.62,163.7,412.08,172.92,408,183.31Z" transform="translate(-48.02 -59.72)"/><path class="cls-62" d="M381.7,256.59l-.38-.3-.25-.2-.21-.18c-13.73-11.3-11.29-38.7-11.11-40.49a42.65,42.65,0,0,1,16.75,5c1.91,1.5,4.12,2.77,5.41,5C395.59,231.83,391.25,245,381.7,256.59Z" transform="translate(-48.02 -59.72)"/></g><g id="Layer_2" data-name="Layer 2"><rect class="cls-63" x="84.23" y="75.35" width="70.98" height="130.21" rx="10.72"/><rect class="cls-63" x="165.17" y="75.35" width="70.98" height="130.21" rx="10.72"/><rect class="cls-63" x="246.11" y="75.35" width="70.98" height="130.21" rx="10.72"/><rect class="cls-63" x="165.17" y="214.24" width="70.98" height="130.21" rx="10.72"/><rect class="cls-63" x="246.11" y="214.24" width="70.98" height="130.21" rx="10.72"/><rect class="cls-63" x="327.81" y="214.24" width="70.98" height="130.21" rx="10.72"/><rect class="cls-64" x="94.3" y="183.27" width="50.85" height="16.09" rx="8.04"/><rect class="cls-64" x="256.17" y="85.09" width="50.85" height="16.09" rx="8.04"/><rect class="cls-64" x="256.55" y="321.77" width="50.85" height="16.09" rx="8.04"/><rect class="cls-64" x="337.87" y="321.77" width="50.85" height="16.09" rx="8.04"/><rect class="cls-64" x="94.3" y="80.75" width="50.85" height="47.4" rx="8.04"/><rect class="cls-64" x="256.55" y="151.95" width="50.85" height="47.4" rx="8.04"/><rect class="cls-64" x="175.23" y="80.75" width="50.85" height="55.91" rx="8.04"/><rect class="cls-64" x="175.23" y="140.45" width="50.85" height="40.77" rx="8.04"/><rect class="cls-64" x="175.23" y="223.43" width="50.85" height="114.43" rx="8.04"/><rect class="cls-64" x="256.17" y="259.3" width="50.85" height="55.91" rx="8.04"/><rect class="cls-64" x="251.36" y="219.99" width="30.62" height="34.09" rx="8.04"/><rect class="cls-64" x="347.99" y="247.75" width="30.62" height="34.09" rx="8.04"/><rect class="cls-65" x="99.23" y="140.45" width="40.98" height="8.43" rx="4.21"/><rect class="cls-65" x="93.86" y="151.5" width="51.72" height="8.43" rx="4.21"/><rect class="cls-65" x="174.8" y="189.79" width="51.72" height="8.43" rx="4.21"/><rect class="cls-65" x="256.12" y="104.5" width="51.72" height="8.43" rx="4.21"/><rect class="cls-65" x="256.12" y="116.24" width="51.72" height="8.43" rx="4.21"/><rect class="cls-65" x="256.12" y="128.22" width="51.72" height="8.43" rx="4.21"/><rect class="cls-65" x="285.27" y="219.99" width="27.05" height="8.43" rx="4.21"/><rect class="cls-65" x="285.27" y="230.82" width="27.05" height="8.43" rx="4.21"/><rect class="cls-65" x="349.77" y="287.26" width="27.05" height="8.43" rx="4.21"/></g><g id="Layer_3" data-name="Layer 3"><path class="cls-66" d="M134.41,330.75C139.33,326.48,146.15,319,151,306c.77-2,2.11-5.89,5-19.38,2-9.48,8.52-39.83,6.8-41.28-1.3-1.1-7.59,13.9-27,74,1.31-6.46,2.88-14.69,4.45-24.35,9-55.27,10.58-108.93,8.61-109.94-1.48-.77-6.14,27.68-18.41,132.55q.81-30.9,1.63-61.79Q132,238,132,220.11c-3.47,16.2-5.6,30.33-7,41.15-1.89,15-.39,8.58-2.51,28.34-.73,6.82-1.81,16,.33,27.55.83,4.46,1.93,8.1,4.22,10.68A8.09,8.09,0,0,0,134.41,330.75Z" transform="translate(-48.02 -59.72)"/><path class="cls-67" d="M168.52,449.8c8.65,1.23,35.77,4,56-12.39a53.7,53.7,0,0,0,8.19-8.28c4.9-14.14,2.65-21.35-.35-25.32-5-6.58-14.86-8.09-15-14.13a7.48,7.48,0,0,1,2.72-5.62c3.45-2.83,7.29-.13,13-2.17.56-.21,6.17-2.33,8.45-7.66,2.17-5.09.78-11.86-3.6-14.78a9.25,9.25,0,0,0-2.93-1.28c-5.47-4.94-5.76-8.42-5.48-10.26.58-3.78,4.29-5.55,11.35-11.37a125.1,125.1,0,0,0,10.54-9.76c2.92-5.86,2.75-12-.61-15.94-2.91-3.39-7.29-4-8.75-4.25-10.85-1.48-19.42,7.93-21.15,6.26-1.15-1.11,2.07-5.87,5.85-11.26,5.6-8,10.49-14.53,14.13-19.3,3.64-5.64,4.13-11.91,1.13-16.16-2.3-3.25-5.95-4.32-7.83-4.86-8.45-2.47-16.4,1.64-19.84,3.42a43.5,43.5,0,0,0-11.43,8.82c-9.23,9.26-10.28,16.2-17.49,17.8-1.06.24-3.79.85-5.55-.53-2.81-2.2.21-6.89-2-10.18-2.87-4.33-13.79-4.88-21-.32-6.44,4.09-9.46,12-8.83,18.57,1,10.16,10.43,14.19,8.1,21.55-.7,2.18-2.55,5-4.91,5.29-3.82.43-5.49-6.34-11.4-7.43-2.64-.49-6.42.11-8.65,2.31-4,3.92-.64,10.58.86,29.35.49,6.17.5,10-1.08,10.58-2.36.83-4.81-7.08-11-8.1s-13.93,5.38-16.64,12.23a19.47,19.47,0,0,0-.75,11.19c8.72,43.85,35.13,61.49,35.13,61.49A84,84,0,0,0,168.52,449.8Z" transform="translate(-48.02 -59.72)"/><path class="cls-68" d="M115.46,386.9a62.47,62.47,0,0,1-1.65,32.64c-7.86,23.12-31.32,42.88-43.88,37.65-7.05-2.93-9.66-13.31-10.2-15.48-2.35-9.34.74-17,2.27-20.84C72,395.93,112.8,387.43,115.46,386.9Z" transform="translate(-48.02 -59.72)"/><path class="cls-69" d="M156.66,421a62.34,62.34,0,0,1-22.49,23.7c-21,12.44-51.68,12.19-57.82,0-3.45-6.82,1.33-16.39,2.33-18.4C83,417.75,90.32,413.92,94,412,117.78,399.59,154.29,419.68,156.66,421Z" transform="translate(-48.02 -59.72)"/><path class="cls-70" d="M156.72,476.92A64.32,64.32,0,0,1,125,488c-25.1,1.5-53.06-13.16-53-27.17,0-7.86,8.94-14.38,10.8-15.75,8-5.87,16.52-5.92,20.75-5.94C131.22,439,155.18,474.58,156.72,476.92Z" transform="translate(-48.02 -59.72)"/><path class="cls-71" d="M198.84,487.08c5.61-2.49,22.9-10.85,30.65-26.54a36.93,36.93,0,0,0,2.68-7.18c-1-9-4.35-11.88-7.29-12.83-4.86-1.57-11.3,1.22-13.06-1.83a4.34,4.34,0,0,1,.09-3.86c1.31-2.69,4.41-2.69,7.29-5.78.28-.31,3.11-3.42,3-7a6.35,6.35,0,0,0-6.31-6.26,7.16,7.16,0,0,0-2.14.4c-4.71-.55-5.86-2.23-6.2-3.27-.71-2.14,1.06-4.39,3.73-9.91a86.7,86.7,0,0,0,3.69-8.79c.14-4.05-1.68-7.14-4.82-7.94-2.72-.68-5.57.56-6.52,1-7,3.15-9.6,11.05-11.12,10.82-1-.15-.38-3.75.42-7.87,1.18-6.1,2.32-11.21,3.21-15,.64-4.2-.81-7.59-3.82-8.68-2.31-.83-4.83-.06-6.13.34-5.83,1.78-9.52,6.75-11.12,8.9a32.24,32.24,0,0,0-4.5,8.63c-3,8.07-1.73,12-5.67,15.41-.58.51-2.08,1.8-3.53,1.73-2.33-.11-1.8-3.6-4.05-4.49-2.95-1.18-9.75,2.47-12.85,7.4-2.78,4.41-2.41,9.54-.19,12.67,3.43,4.85,10.31,3.5,10.94,8.11.19,1.36-.14,3.49-1.51,4.47-2.2,1.6-5.11-1.26-9,.31a8.79,8.79,0,0,0-4.63,4.3c-1.33,3.45,2.57,5.65,8.72,14.71,2,3,3.11,4.95,2.3,5.8-1.21,1.27-4.9-1.89-9-.16s-7,7.77-6.72,12.25a9.61,9.61,0,0,0,2.67,6c17.56,19.28,38.56,18.79,38.56,18.79A64.84,64.84,0,0,0,198.84,487.08Z" transform="translate(-48.02 -59.72)"/><path class="cls-72" d="M428,510.27c-11.29,4.68-27.29,10.2-42.5,11.49h0c-15.29-13.27-18.14-39.72-18.59-52.54a1.93,1.93,0,0,1,0-.24c-.13-3.76,0-6.3,0-6.91,1.92.06,4.23.2,6.84.54l.39.05c.87.12,1.78.25,2.71.42a63.92,63.92,0,0,1,9,2.24c1.17.38,2.37.81,3.58,1.3a59.72,59.72,0,0,1,9.75,4.95q2,1.28,3.95,2.74C415.92,483.85,425.5,498.49,428,510.27Z" transform="translate(-48.02 -59.72)"/><path class="cls-73" d="M444.18,501.44c-9.9-.48-16.56-5.83-19.86-8.47-21.57-17.3-17.75-60-17.47-62.81a64.36,64.36,0,0,1,31.66,11.38,68.61,68.61,0,0,1,14.65,14.52C456.07,476.14,447.61,494.79,444.18,501.44Z" transform="translate(-48.02 -59.72)"/><path class="cls-74" d="M376,522a46.37,46.37,0,0,1-11.35-1.87c-11.51-3.51-27.49-5-42.85-5.53a123.18,123.18,0,0,1-2.86-29.66,66.73,66.73,0,0,1,21.19,4,58.8,58.8,0,0,1,11.08,5.46A72,72,0,0,1,376,522Z" transform="translate(-48.02 -59.72)"/><path class="cls-75" d="M210.18,457.18a12.51,12.51,0,0,1,11.58-1.66,10.47,10.47,0,0,1,1.69,4,10.92,10.92,0,0,1-1.3,7.28L207,478.17c.18,1.69.76,2.3,1.21,2.56,2.51,1.4,5.57-5.55,13.8-8.37,0,0,7.68-2.64,8.52-5.33,0,0,0-.12.1-.13.43-.1,2,3.51,2.41,6.82a16.15,16.15,0,0,1-.81,7.15L214,486.58l-5.19,2.9,3.29,2,10.19-3.42,8.93-1.74a10.87,10.87,0,0,1-5,12.46,97.32,97.32,0,0,1-12.1.17c-3.09-.15-6-.43-8.64-.8L203,500.72l15.4,4,6.19-1.58a10.93,10.93,0,0,1-1.3,8.32c-.1.16-2.69,4-7,4.57-8.29,1.07-14.84-11.08-18.32-9.21-.58.3-1.34,1.14-1.38,3.88l6.9,4.26q2.61,4,5.24,8.09c-3,7.17-6.11,8.44-7.81,8.67s-2.48-.47-10.89-4.41a56.92,56.92,0,0,0-7.26-3.11,31.75,31.75,0,0,0-9.36-1.42l-3.93-6.7-5.65-6.61-8.92-11.13a6.42,6.42,0,0,1-.43-5.26,6.6,6.6,0,0,1,4.17-3.82l8,7.64s11.54,5.23,12,4.44c0-.06,0-.15,0-.19-1-1.69-7-6.85-9-8.8,0,0-5.81-8.6-5.74-8.48h0c-.32-2.23.42-3,.64-3.18,1.36-1.19,4.85-.25,8.41,3l13.48,9.09q-3.3-5.76-6.58-11.52l-10.18-4.7a14.58,14.58,0,0,1,7.1-5.25,14.42,14.42,0,0,1,6-.63,39.31,39.31,0,0,1,9,17.2l5.35-2.29a29.9,29.9,0,0,1-5.54-6.17,30.32,30.32,0,0,1-4.83-12.68c0-1.16.06-2.32.08-3.47a17.94,17.94,0,0,1,14.1-2l-1,9.43c.72,2.52,1.43,5,2.15,7.57l3.74-15.46Z" transform="translate(-48.02 -59.72)"/></g></svg>