<svg xmlns="http://www.w3.org/2000/svg" xmlns:xlink="http://www.w3.org/1999/xlink" viewBox="0 0 438.55 444.5"><defs><style>
            #web {
                animation: pulse 3s ease-in-out alternate infinite;
                transform-origin: center;
                animation-delay: 1s;
            }
            @keyframes pulse {
                from {
                    transform: scale(1);
                }
                to {
                    transform: scale(1.1);
                }
            }
        </style><style>.cls-1{fill:url(#radial-gradient);}.cls-2{fill:#7f657f;}.cls-3{fill:url(#linear-gradient);}.cls-4{fill:url(#linear-gradient-2);}.cls-5{fill:url(#linear-gradient-3);}.cls-6{fill:url(#linear-gradient-4);}.cls-7{fill:url(#linear-gradient-5);}.cls-8{fill:url(#linear-gradient-6);}.cls-9{fill:url(#linear-gradient-7);}.cls-10{fill:url(#linear-gradient-8);}.cls-11{fill:url(#linear-gradient-9);}.cls-12{fill:url(#linear-gradient-10);}.cls-13{fill:url(#linear-gradient-11);}.cls-14{fill:url(#linear-gradient-12);}.cls-15{fill:url(#linear-gradient-13);}.cls-16{fill:url(#linear-gradient-14);}.cls-17{fill:url(#linear-gradient-15);}.cls-18{fill:url(#linear-gradient-16);}.cls-19{fill:url(#linear-gradient-17);}.cls-20{fill:url(#linear-gradient-18);}.cls-21{fill:url(#linear-gradient-19);}.cls-22{fill:url(#linear-gradient-20);}.cls-23{fill:url(#linear-gradient-21);}.cls-24{fill:url(#linear-gradient-22);}.cls-25{fill:url(#linear-gradient-23);}.cls-26{fill:url(#linear-gradient-24);}.cls-27{fill:url(#linear-gradient-25);}.cls-28{fill:url(#linear-gradient-26);}.cls-29{fill:url(#linear-gradient-27);}.cls-30{fill:url(#linear-gradient-28);}.cls-31{fill:url(#linear-gradient-29);}.cls-32{fill:url(#linear-gradient-30);}.cls-33{fill:url(#linear-gradient-31);}.cls-34{fill:url(#linear-gradient-32);}.cls-35{fill:url(#linear-gradient-33);}.cls-36{fill:url(#linear-gradient-34);}.cls-37{fill:url(#linear-gradient-35);}.cls-38{fill:url(#linear-gradient-36);}.cls-39{fill:url(#linear-gradient-37);}.cls-40{fill:url(#linear-gradient-38);}.cls-41{fill:url(#linear-gradient-39);}.cls-42{fill:url(#linear-gradient-40);}.cls-43{fill:url(#linear-gradient-41);}.cls-44{fill:url(#linear-gradient-42);}.cls-45{fill:url(#linear-gradient-43);}.cls-46{fill:url(#linear-gradient-44);}.cls-47{fill:url(#linear-gradient-45);}.cls-48{fill:url(#linear-gradient-46);}.cls-49{fill:url(#linear-gradient-47);}.cls-50{fill:url(#linear-gradient-48);}.cls-51{fill:url(#linear-gradient-49);}.cls-52{fill:url(#linear-gradient-50);}.cls-53{fill:url(#linear-gradient-51);}.cls-54{fill:url(#linear-gradient-52);}.cls-55{fill:url(#linear-gradient-53);}.cls-56{fill:url(#linear-gradient-54);}.cls-57{fill:url(#linear-gradient-55);}.cls-58{fill:url(#linear-gradient-56);}.cls-59{fill:url(#linear-gradient-57);}.cls-60{fill:url(#linear-gradient-58);}.cls-61{fill:url(#linear-gradient-59);}.cls-62{fill:url(#linear-gradient-60);}.cls-63{fill:url(#linear-gradient-61);}.cls-64{fill:url(#linear-gradient-62);}.cls-65{fill:url(#linear-gradient-63);}.cls-66{fill:#fff;}.cls-67,.cls-68{fill:#c498bd;}.cls-68{opacity:0.2;}.cls-69{fill:url(#linear-gradient-64);}.cls-70{fill:url(#linear-gradient-65);}.cls-71{fill:url(#linear-gradient-66);}.cls-72{fill:url(#linear-gradient-67);}.cls-73{fill:url(#linear-gradient-68);}.cls-74{fill:url(#linear-gradient-69);}.cls-75{fill:url(#linear-gradient-70);}.cls-76{fill:url(#linear-gradient-71);}.cls-77{fill:url(#linear-gradient-72);}.cls-78{fill:url(#linear-gradient-73);}.cls-79{fill:url(#linear-gradient-74);}.cls-80{fill:url(#linear-gradient-75);}.cls-81{fill:url(#linear-gradient-76);}.cls-82{fill:url(#linear-gradient-77);}.cls-83{fill:url(#linear-gradient-78);}.cls-84{fill:url(#linear-gradient-79);}.cls-85{fill:url(#linear-gradient-80);}.cls-86{fill:url(#linear-gradient-81);}.cls-87{fill:url(#linear-gradient-82);}.cls-88{fill:url(#linear-gradient-83);}</style><radialGradient id="radial-gradient" cx="256.75" cy="284.47" r="202.5" gradientUnits="userSpaceOnUse"><stop offset="0" stop-color="#c498bd"/><stop offset="1" stop-color="#49384a"/></radialGradient><linearGradient id="linear-gradient" x1="51.84" y1="401.87" x2="91.07" y2="469.82" gradientUnits="userSpaceOnUse"><stop offset="0" stop-color="#644e65"/><stop offset="1" stop-color="#312232"/></linearGradient><linearGradient id="linear-gradient-2" x1="240.28" y1="456.74" x2="249.99" y2="473.56" xlink:href="#linear-gradient"/><linearGradient id="linear-gradient-3" x1="275.11" y1="455.74" x2="288.99" y2="479.77" xlink:href="#linear-gradient"/><linearGradient id="linear-gradient-4" x1="61.76" y1="346.73" x2="61.76" y2="315.15" xlink:href="#linear-gradient"/><linearGradient id="linear-gradient-5" x1="75.89" y1="311.81" x2="75.89" y2="280.97" xlink:href="#linear-gradient"/><linearGradient id="linear-gradient-6" x1="409.17" y1="354.91" x2="438.67" y2="354.91" xlink:href="#linear-gradient"/><linearGradient id="linear-gradient-7" x1="409.17" y1="320.93" x2="451.93" y2="320.93" xlink:href="#linear-gradient"/><linearGradient id="linear-gradient-8" x1="82.97" y1="155.81" x2="82.97" y2="117.61" xlink:href="#linear-gradient"/><linearGradient id="linear-gradient-9" x1="185.53" y1="124.03" x2="185.53" y2="33.79" xlink:href="#linear-gradient"/><linearGradient id="linear-gradient-10" x1="161.8" y1="155.93" x2="232.66" y2="113.02" gradientUnits="userSpaceOnUse"><stop offset="0.48" stop-color="#119a89"/><stop offset="0.96" stop-color="#224193"/></linearGradient><linearGradient id="linear-gradient-11" x1="163.18" y1="104.73" x2="233.87" y2="61.91" xlink:href="#linear-gradient-10"/><linearGradient id="linear-gradient-12" x1="316.17" y1="177.35" x2="401.44" y2="125.7" gradientTransform="matrix(1.39, 0.59, 0.71, -1.67, -444.14, 397.99)" xlink:href="#linear-gradient-10"/><linearGradient id="linear-gradient-13" x1="350.02" y1="312.57" x2="435.29" y2="260.92" gradientTransform="matrix(0.66, 0.92, 1.09, -0.78, -214.8, 28.03)" xlink:href="#linear-gradient-10"/><linearGradient id="linear-gradient-14" x1="459.3" y1="212.53" x2="494.65" y2="191.11" gradientTransform="matrix(-0.64, 1.37, 1.65, 0.77, 318.65, -502.08)" gradientUnits="userSpaceOnUse"><stop offset="0" stop-color="#a1b03a"/><stop offset="0.95" stop-color="#1f5f1d"/></linearGradient><linearGradient id="linear-gradient-15" x1="201.58" y1="616.78" x2="236.21" y2="616.78" gradientTransform="matrix(-0.68, 0.65, 0.64, 0.67, 109.12, -217.6)" gradientUnits="userSpaceOnUse"><stop offset="0" stop-color="#865ca0"/><stop offset="0.27" stop-color="#8b56a3"/><stop offset="1" stop-color="#1f958c" stop-opacity="0.4"/></linearGradient><linearGradient id="linear-gradient-16" x1="190.21" y1="511.45" x2="219.53" y2="511.45" gradientTransform="matrix(-0.85, 0.41, 0.4, 0.84, 340.82, -205.26)" xlink:href="#linear-gradient-15"/><linearGradient id="linear-gradient-17" x1="110.59" y1="448.39" x2="139.21" y2="448.39" gradientTransform="matrix(-0.71, 0.34, 0.28, 0.59, 347.25, -17.43)" xlink:href="#linear-gradient-15"/><linearGradient id="linear-gradient-18" x1="161.63" y1="313.78" x2="185.04" y2="313.78" gradientTransform="matrix(-0.78, 0.08, 0.06, 0.65, 515.38, 62.69)" xlink:href="#linear-gradient-15"/><linearGradient id="linear-gradient-19" x1="101.06" y1="342.27" x2="126.36" y2="342.27" gradientTransform="matrix(-0.76, 0.18, 0.15, 0.64, 451.41, 25.01)" xlink:href="#linear-gradient-15"/><linearGradient id="linear-gradient-20" x1="424.47" y1="219.3" x2="448.05" y2="219.3" gradientTransform="matrix(-0.61, -0.49, -0.41, 0.51, 743.27, 423.45)" xlink:href="#linear-gradient-15"/><linearGradient id="linear-gradient-21" x1="76.27" y1="326.62" x2="101.56" y2="326.62" gradientTransform="matrix(-0.76, 0.18, 0.15, 0.64, 451.41, 25.01)" xlink:href="#linear-gradient-15"/><linearGradient id="linear-gradient-22" x1="49.81" y1="305.54" x2="75.11" y2="305.54" gradientTransform="matrix(-0.76, 0.18, 0.15, 0.64, 451.41, 25.01)" xlink:href="#linear-gradient-15"/><linearGradient id="linear-gradient-23" x1="-22.1" y1="650.27" x2="4.14" y2="650.27" gradientTransform="matrix(-0.5, 0.6, -0.5, -0.42, 769.6, 537.32)" xlink:href="#linear-gradient-15"/><linearGradient id="linear-gradient-24" x1="9.3" y1="653.83" x2="35.54" y2="653.83" gradientTransform="matrix(-0.5, 0.6, -0.5, -0.42, 769.6, 537.32)" xlink:href="#linear-gradient-15"/><linearGradient id="linear-gradient-25" x1="41.19" y1="659.19" x2="67.44" y2="659.19" gradientTransform="matrix(-0.5, 0.6, -0.5, -0.42, 769.6, 537.32)" xlink:href="#linear-gradient-15"/><linearGradient id="linear-gradient-26" x1="43.94" y1="808.9" x2="66.8" y2="808.9" gradientTransform="matrix(-0.6, 0.39, -0.3, -0.46, 671.95, 657.12)" xlink:href="#linear-gradient-15"/><linearGradient id="linear-gradient-27" x1="403.63" y1="379.54" x2="424.37" y2="379.54" gradientTransform="matrix(-0.44, -0.35, -0.58, 0.73, 778.04, 209.33)" xlink:href="#linear-gradient-15"/><linearGradient id="linear-gradient-28" x1="389.39" y1="403.86" x2="410.13" y2="403.86" gradientTransform="matrix(-0.44, -0.35, -0.58, 0.73, 778.04, 209.33)" xlink:href="#linear-gradient-15"/><linearGradient id="linear-gradient-29" x1="389.27" y1="8.25" x2="410.86" y2="8.25" gradientTransform="matrix(-0.39, -0.31, -0.42, 0.53, 622.6, 355.92)" xlink:href="#linear-gradient-15"/><linearGradient id="linear-gradient-30" x1="506.43" y1="493.12" x2="362.65" y2="493.12" gradientTransform="matrix(0.95, -0.32, -0.32, -0.95, 145.46, 915.66)" gradientUnits="userSpaceOnUse"><stop offset="0" stop-color="#865ca0"/><stop offset="0.27" stop-color="#8b56a3"/><stop offset="1" stop-color="#5b2b5e"/></linearGradient><linearGradient id="linear-gradient-31" x1="135.99" y1="465.29" x2="170.02" y2="465.29" gradientTransform="matrix(1, 0, 0, 1, 0, 0)" xlink:href="#linear-gradient-15"/><linearGradient id="linear-gradient-32" x1="120.31" y1="447.14" x2="144.19" y2="447.14" gradientTransform="matrix(1, 0, 0, 1, 0, 0)" xlink:href="#linear-gradient-15"/><linearGradient id="linear-gradient-33" x1="113.08" y1="431.43" x2="127.38" y2="431.43" gradientTransform="matrix(1, 0, 0, 1, 0, 0)" xlink:href="#linear-gradient-15"/><linearGradient id="linear-gradient-34" x1="104.93" y1="415.34" x2="118.83" y2="415.34" gradientTransform="matrix(1, 0, 0, 1, 0, 0)" xlink:href="#linear-gradient-15"/><linearGradient id="linear-gradient-35" x1="86.04" y1="395.48" x2="108.6" y2="395.48" gradientTransform="matrix(1, 0, 0, 1, 0, 0)" xlink:href="#linear-gradient-15"/><linearGradient id="linear-gradient-36" x1="624.01" y1="612.8" x2="645.85" y2="612.8" gradientTransform="matrix(-0.57, 0.54, 0.45, 0.48, 229.61, -200.22)" xlink:href="#linear-gradient-15"/><linearGradient id="linear-gradient-37" x1="462.3" y1="396.95" x2="486.33" y2="396.95" gradientTransform="matrix(0.07, 0.78, 0.65, -0.06, -206.26, 32.06)" xlink:href="#linear-gradient-15"/><linearGradient id="linear-gradient-38" x1="437.02" y1="379.95" x2="461.05" y2="379.95" gradientTransform="matrix(0.07, 0.78, 0.65, -0.06, -206.26, 32.06)" xlink:href="#linear-gradient-15"/><linearGradient id="linear-gradient-39" x1="322.18" y1="870.31" x2="346.6" y2="870.31" gradientTransform="matrix(0.52, 0.58, -0.49, 0.44, 346.06, -210.09)" xlink:href="#linear-gradient-15"/><linearGradient id="linear-gradient-40" x1="350.75" y1="876.09" x2="375.18" y2="876.09" gradientTransform="matrix(0.52, 0.58, -0.49, 0.44, 346.06, -210.09)" xlink:href="#linear-gradient-15"/><linearGradient id="linear-gradient-41" x1="379.88" y1="883.51" x2="404.3" y2="883.51" gradientTransform="matrix(0.52, 0.58, -0.49, 0.44, 346.06, -210.09)" xlink:href="#linear-gradient-15"/><linearGradient id="linear-gradient-42" x1="456.39" y1="925.66" x2="478.52" y2="925.66" gradientTransform="matrix(0.3, 0.65, -0.5, 0.23, 450.77, -96.41)" xlink:href="#linear-gradient-15"/><linearGradient id="linear-gradient-43" x1="684.69" y1="651.37" x2="704.39" y2="651.37" gradientTransform="matrix(-0.41, 0.39, 0.64, 0.68, 22.6, -265.06)" xlink:href="#linear-gradient-15"/><linearGradient id="linear-gradient-44" x1="674.83" y1="672.66" x2="694.53" y2="672.66" gradientTransform="matrix(-0.41, 0.39, 0.64, 0.68, 22.6, -265.06)" xlink:href="#linear-gradient-15"/><linearGradient id="linear-gradient-45" x1="686.36" y1="403.55" x2="706.79" y2="403.55" gradientTransform="matrix(-0.36, 0.34, 0.47, 0.49, 145.61, -90.37)" xlink:href="#linear-gradient-15"/><linearGradient id="linear-gradient-46" x1="200.63" y1="481.73" x2="64.9" y2="481.73" gradientTransform="matrix(-0.18, -0.98, -0.98, 0.18, 631.86, 461.49)" xlink:href="#linear-gradient-30"/><linearGradient id="linear-gradient-47" x1="463.98" y1="591.12" x2="488.27" y2="591.12" gradientTransform="matrix(-0.86, 0.38, 0.38, 0.85, 406.3, -515.6)" xlink:href="#linear-gradient-15"/><linearGradient id="linear-gradient-48" x1="454.48" y1="576.71" x2="475.48" y2="576.71" gradientTransform="matrix(-0.94, 0.09, 0.09, 0.92, 620.17, -425.61)" xlink:href="#linear-gradient-15"/><linearGradient id="linear-gradient-49" x1="434.31" y1="545.82" x2="454.91" y2="545.82" gradientTransform="matrix(-0.78, 0.08, 0.07, 0.65, 562.68, -246.67)" xlink:href="#linear-gradient-15"/><linearGradient id="linear-gradient-50" x1="442.24" y1="540.1" x2="459.73" y2="540.1" gradientTransform="matrix(-0.76, -0.19, -0.16, 0.63, 693.8, -114.4)" xlink:href="#linear-gradient-15"/><linearGradient id="linear-gradient-51" x1="412.74" y1="525.35" x2="431.34" y2="525.35" gradientTransform="matrix(-0.78, -0.08, -0.07, 0.65, 646.35, -171.5)" xlink:href="#linear-gradient-15"/><linearGradient id="linear-gradient-52" x1="502.04" y1="594.82" x2="519.89" y2="594.82" gradientTransform="matrix(-0.41, -0.67, -0.56, 0.34, 786.22, 302.18)" xlink:href="#linear-gradient-15"/><linearGradient id="linear-gradient-53" x1="394.27" y1="514.82" x2="412.87" y2="514.82" gradientTransform="matrix(-0.78, -0.08, -0.07, 0.65, 646.35, -171.5)" xlink:href="#linear-gradient-15"/><linearGradient id="linear-gradient-54" x1="374.62" y1="500.49" x2="393.23" y2="500.49" gradientTransform="matrix(-0.78, -0.08, -0.07, 0.65, 646.35, -171.5)" xlink:href="#linear-gradient-15"/><linearGradient id="linear-gradient-55" x1="327.73" y1="729.24" x2="346.9" y2="729.24" gradientTransform="matrix(-0.68, 0.4, -0.33, -0.56, 772.48, 418.23)" xlink:href="#linear-gradient-15"/><linearGradient id="linear-gradient-56" x1="350.44" y1="732.93" x2="369.61" y2="732.93" gradientTransform="matrix(-0.68, 0.4, -0.33, -0.56, 772.48, 418.23)" xlink:href="#linear-gradient-15"/><linearGradient id="linear-gradient-57" x1="373.55" y1="737.98" x2="392.72" y2="737.98" gradientTransform="matrix(-0.68, 0.4, -0.33, -0.56, 772.48, 418.23)" xlink:href="#linear-gradient-15"/><linearGradient id="linear-gradient-58" x1="404.91" y1="763.42" x2="422.08" y2="763.42" gradientTransform="matrix(-0.7, 0.16, -0.13, -0.53, 640.07, 497.94)" xlink:href="#linear-gradient-15"/><linearGradient id="linear-gradient-59" x1="512.78" y1="634.47" x2="528.6" y2="634.47" gradientTransform="matrix(-0.3, -0.48, -0.8, 0.49, 891.38, 112.44)" xlink:href="#linear-gradient-15"/><linearGradient id="linear-gradient-60" x1="503.3" y1="651.75" x2="519.12" y2="651.75" gradientTransform="matrix(-0.3, -0.48, -0.8, 0.49, 891.38, 112.44)" xlink:href="#linear-gradient-15"/><linearGradient id="linear-gradient-61" x1="505.43" y1="417.19" x2="521.9" y2="417.19" gradientTransform="matrix(-0.26, -0.43, -0.58, 0.36, 695.51, 197.81)" xlink:href="#linear-gradient-15"/><linearGradient id="linear-gradient-62" x1="244.79" y1="405.99" x2="138.96" y2="405.99" gradientTransform="matrix(1, 0.02, 0.02, -1, 57.15, 563.14)" xlink:href="#linear-gradient-30"/><linearGradient id="linear-gradient-63" x1="173.61" y1="204.8" x2="231.75" y2="204.8" gradientTransform="matrix(-1, 0, 0, 1, 284.2, 0)" xlink:href="#linear-gradient-10"/><linearGradient id="linear-gradient-64" x1="176.69" y1="412.69" x2="247.45" y2="371.83" gradientTransform="matrix(0.54, -1.79, 1.77, 0.53, -487.55, 390.02)" gradientUnits="userSpaceOnUse"><stop offset="0.01" stop-color="#2d6833"/><stop offset="0.95" stop-color="#c6a251"/></linearGradient><linearGradient id="linear-gradient-65" x1="258.97" y1="274.8" x2="320.39" y2="274.8" gradientTransform="matrix(0.88, 0.47, -0.5, 0.95, 154.36, -46.4)" xlink:href="#linear-gradient-10"/><linearGradient id="linear-gradient-66" x1="293.83" y1="253.54" x2="355.25" y2="253.54" gradientTransform="matrix(0.25, 0.92, -0.98, 0.26, 487.46, -23.81)" xlink:href="#linear-gradient-10"/><linearGradient id="linear-gradient-67" x1="326.05" y1="248.18" x2="387.47" y2="248.18" gradientTransform="matrix(-0.74, 0.61, -0.65, -0.78, 741.11, 367.48)" xlink:href="#linear-gradient-10"/><linearGradient id="linear-gradient-68" x1="111.93" y1="77.78" x2="159.44" y2="77.78" gradientTransform="matrix(1, 0, 0, 1, 0, 0)" xlink:href="#linear-gradient-14"/><linearGradient id="linear-gradient-69" x1="112.04" y1="128.75" x2="161.69" y2="128.75" gradientTransform="matrix(1, 0, 0, 1, 0, 0)" xlink:href="#linear-gradient-14"/><linearGradient id="linear-gradient-70" x1="46.37" y1="440.04" x2="102.28" y2="440.04" gradientTransform="matrix(1, 0, 0, 1, 0, 0)" xlink:href="#linear-gradient-14"/><linearGradient id="linear-gradient-71" x1="224.16" y1="92.54" x2="263.97" y2="92.54" gradientTransform="matrix(1, 0, 0, 1, 0, 0)" xlink:href="#linear-gradient-14"/><linearGradient id="linear-gradient-72" x1="227.67" y1="105.56" x2="275.72" y2="105.56" gradientTransform="matrix(1, 0, 0, 1, 0, 0)" xlink:href="#linear-gradient-14"/><linearGradient id="linear-gradient-73" x1="333.38" y1="406.71" x2="391.51" y2="406.71" gradientUnits="userSpaceOnUse"><stop offset="0" stop-color="#4981ba"/><stop offset="0.46" stop-color="#c498bd"/></linearGradient><linearGradient id="linear-gradient-74" x1="390.86" y1="116.69" x2="437.31" y2="116.69" gradientTransform="matrix(1.26, -0.35, 0.37, 1.33, -155.5, 136.08)" xlink:href="#linear-gradient-73"/><linearGradient id="linear-gradient-75" x1="223.2" y1="280.23" x2="269.65" y2="280.23" gradientTransform="matrix(1.26, -0.35, 0.26, 0.94, -143.49, 179.04)" xlink:href="#linear-gradient-14"/><linearGradient id="linear-gradient-76" x1="302.74" y1="462.29" x2="304.82" y2="461.09" gradientTransform="matrix(1, 0, 0, 1, 0, 0)" xlink:href="#linear-gradient-64"/><linearGradient id="linear-gradient-77" x1="285.97" y1="461.96" x2="295.49" y2="456.46" gradientTransform="matrix(1, 0, 0, 1, 0, 0)" xlink:href="#linear-gradient-64"/><linearGradient id="linear-gradient-78" x1="266.53" y1="456.55" x2="269.37" y2="454.91" gradientTransform="matrix(1, 0, 0, 1, 0, 0)" xlink:href="#linear-gradient-64"/><linearGradient id="linear-gradient-79" x1="269.3" y1="469.73" x2="281.61" y2="462.62" gradientTransform="matrix(1, 0, 0, 1, 0, 0)" xlink:href="#linear-gradient-64"/><linearGradient id="linear-gradient-80" x1="256.7" y1="469.94" x2="264.74" y2="465.3" gradientTransform="matrix(1, 0, 0, 1, 0, 0)" xlink:href="#linear-gradient-64"/><linearGradient id="linear-gradient-81" x1="244.17" y1="465.78" x2="264.92" y2="453.8" gradientTransform="matrix(1, 0, 0, 1, 0, 0)" xlink:href="#linear-gradient-64"/><linearGradient id="linear-gradient-82" x1="230.7" y1="464.39" x2="248.46" y2="454.14" gradientTransform="matrix(1, 0, 0, 1, 0, 0)" xlink:href="#linear-gradient-64"/><linearGradient id="linear-gradient-83" x1="223.01" y1="464.09" x2="306.61" y2="415.83" gradientTransform="matrix(1, 0, 0, 1, 0, 0)" xlink:href="#linear-gradient-64"/></defs><title>basicweb</title><g id="Back"><path class="cls-1" d="M467.7,261.36c0,.3,0,.61,0,.92-.76,12.87-16.38,22.09-27,25.46-16.35,5.2-23.74-2.21-30.64,4.09-5.83,5.32-3.45,13.25-4.6,39.32-.48,11-1.37,20-2,25.87a132.63,132.63,0,0,1-2.21,30.3c-3.2,16.75-8.34,43.7-30,59.23-18.53,13.31-40.76,12.19-49.53,11.74a68.14,68.14,0,0,1-8.65-.94c-3.94-.69-7.42-1.65-11.78-2.72-2-.5-4.28-1-6.85-1.56-3.54-.74-7.7-1.49-12.86-2.21-1.17-.17-2.4-.33-3.68-.49-1.59-.2-3.26-.4-5-.59-1.5-.16-3-.31-4.42-.44s-2.83-.23-4.21-.3a71.89,71.89,0,0,0-11.09.14c-.34,0-.67.06-1,.11a54.77,54.77,0,0,0-10.7,2.3c-7.19,2.3-9.47,4.57-18.66,9.7l-.13.07c-16.25,9.06-28.27,15.76-41.7,16.68-15.56,1.07-28.63-5.92-35.43-10.46-2.26-1.51-3.83-2.74-4.57-3.33q-2.59-2.06-4.95-4.34a73.27,73.27,0,0,1-5.61-6.11,105.41,105.41,0,0,1-10.07-14.72h0c-.4-.68-.79-1.37-1.16-2.05-2.34-4.19-4.33-8.24-6.07-11.86L112,423c-.06-.14-.13-.29-.2-.43-3.22-6.76-5-11.73-6.9-15.44h0a25.57,25.57,0,0,0-1.87-3.19h0a13.65,13.65,0,0,0-5.6-4.71A15,15,0,0,0,93.85,398c-6.44-1.28-12.45,1.7-24.4-1.83-4.68-1.39-9.79-2.9-14.47-7.32-7.59-7.19-11.5-19.66-7.69-30.11,2.2-6,6.19-9.28,13-14.83,4.17-3.41,11.11-9,21.28-11.06,7.64-1.58,8.21.64,14.46-.68,7.2-1.52,14.17-6.09,18.85-11.41,4.33-4.91,6.71-10.45,5.53-14.84-.35-1.3-1.11-2.9-6.4-6.65-.78-.57-1.67-1.17-2.66-1.83C95,286.61,89,288.35,83.75,282.29c-3.08-3.54-2.25-5.52-3.75-32.68-1.48-26.91-2.64-31.33-6.29-35.57-4.65-5.4-9.31-5.86-12.94-13.11a28.17,28.17,0,0,1-2.55-15.83c1.39-9.75,8.17-15.7,20.08-25.87a167.35,167.35,0,0,1,24.85-17.53,69.28,69.28,0,0,1,7.66-20.26q.61-1.08,1.23-2.13c4.06-7,7.92-12.9,15-15.78,9.47-3.83,19.23-.12,24.58,1.91a35.91,35.91,0,0,1,9.42,5.22,37.87,37.87,0,0,0,4,2.67,24.58,24.58,0,0,0,3.66,1.62c11,3.86,20.46-.11,27.81-1.85,8.75-2.07,21.17-2.55,38.24,3.51a128,128,0,0,1,15.29,6.65c11.13,6,20.05,8.56,27.22,9.19a36.9,36.9,0,0,0,8.92-.25c.82-.13,1.61-.29,2.37-.47a29.55,29.55,0,0,0,4.71-1.56c4.48-1.92,7-4.33,10.13-7.65A115.59,115.59,0,0,1,321.71,106c10.43-7.69,17.81-13,28.93-14.63,2.15-.32,21.88-3,29.79,7.49,2.05,2.7,1,3.26,4.94,11.74,3.46,7.49,5.67,12.26,9.53,15.83,3,2.74,5.54,3.5,19.23,6.64,22,5,25.44,5.36,29.11,8.85,3,2.88,6.53,8.21,6.88,18.9a27.56,27.56,0,0,1-1.86,11.62c-4.6,11.41-14.58,12-18.3,20.88s1.86,19.28,5.62,26.22c0,0,3.58,6.6,24,26.23C459.58,245.72,467.7,252.23,467.7,261.36Z" transform="translate(-33.87 -33.79)"/><path class="cls-2" d="M591.83,353.62" transform="translate(-33.87 -33.79)"/><path class="cls-3" d="M112.6,453.44a9.63,9.63,0,0,1-2.52,4.69,15.6,15.6,0,0,1-7.8,4.41,31.72,31.72,0,0,1-6,.86c-8.85.58-20.39,1.5-34.33,2.41l-2.18.14a53.5,53.5,0,0,1-14.33-10c-4.56-4.43-9.26-9-11-16.33-1.92-8.34,1.2-15.37,3.32-20.17a45.47,45.47,0,0,1,14-17.62,45.29,45.29,0,0,1,10.78,1.3c8.28,2,12.25,5.54,21.14,10.7,13,7.52,15.44,6.39,19.16,9.35.4.32.82.69,1.27,1.12a23.48,23.48,0,0,1,4.37,5.84,31.47,31.47,0,0,1,2.93,8c.21.89.39,1.83.54,2.81A61.09,61.09,0,0,1,112.6,453.44Z" transform="translate(-33.87 -33.79)"/><path class="cls-4" d="M269.11,454.46a8.92,8.92,0,0,1-1.76,3.5l-.2.25a9,9,0,0,1-3,2.2,10.16,10.16,0,0,1-3.15.86,15.91,15.91,0,0,0-5.17,2.4c-3,2.18-3.89,4.53-5.06,6.83a14.78,14.78,0,0,1-1.61,2.6c-6.39,8-22.24,5.26-28.33,1.53-3.33-2,2-5.52,9.59-10.68,2.9-2,6.12-4.2,9.3-6.68a22.08,22.08,0,0,1,8.25-3.93,27.48,27.48,0,0,1,4.16-.73,42.08,42.08,0,0,1,12.49.71c1.22.24,2.25.5,3,.7C268.58,454.28,269.11,454.46,269.11,454.46Z" transform="translate(-33.87 -33.79)"/><path class="cls-5" d="M296.94,474c-4.59,1-15.32-1.62-15.32-1.62a28,28,0,0,1-10.89,2.3,19.39,19.39,0,0,1-10.91-3c-1.16-.7-2.17-1.44-3.06-2.1-3-2.21,3.24-5.1,3.24-5.1l3.58-1.24L267.4,462l3.67-1.27s3.38-2.67,6.62-4.86a28.16,28.16,0,0,1,4.36-2.55,3.67,3.67,0,0,1,.53-.16c2.92-.66,9.35,1.15,12.15,2,.84.26,1.36.44,1.36.44a41.8,41.8,0,0,0,6.29,3.3l.26.11c2,.75,2.72,3,3.1,5.2.22,1.29.32,2.56.48,3.48C306.64,470.12,301.54,473,296.94,474Z" transform="translate(-33.87 -33.79)"/><path class="cls-6" d="M77.28,315.15,66,321.28s-5.44-3.75-12.59,1.36A56.12,56.12,0,0,0,41.19,335.4l-2,6.13s1.53,8.51,9.36,3.75S62,330.94,62,330.94l15.32-5.24s10.21-4.76,6.12-7.15S77.28,315.15,77.28,315.15Z" transform="translate(-33.87 -33.79)"/><path class="cls-7" d="M83.11,307.34c.73-3.62.88-3.66,1.08-4.91.31-1.93,1.23-7.59-1.72-11.3-1.75-2.21-2.93-1.28-5.2-3.87-2.72-3.12-2.46-6.09-4-6.28s-3,2.51-3.83,4a18.41,18.41,0,0,0-2.24,7.66,20.14,20.14,0,0,0,1.73,8.17c3.27,7.29,11,12.17,13.08,10.72C82.44,311.27,82.38,310.91,83.11,307.34Z" transform="translate(-33.87 -33.79)"/><path class="cls-8" d="M428.66,331.64c-2.12,1.64-.08,5.1-2.3,10.85-.9,2.33-1.8,4.67-4.08,6-2.58,1.51-4.82.52-7.15,2.43a7.41,7.41,0,0,0-2.3,3.57c-1.65,5.65-6.11,21.91-1.92,24.13,5.18,2.74,20.62-17.54,23-20.68,5.4-11.61,6.42-21.68,2.05-25.28C434,331.08,430.45,330.26,428.66,331.64Z" transform="translate(-33.87 -33.79)"/><path class="cls-9" d="M411,347.48c1,.29,2.23-.92,3.35-2.16,7.77-8.6,7.31-13.73,12-18.65,5-5.3,7.86-1.83,17.27-9.18,7.17-5.61,8-9.56,8.19-10.9.08-.51.83-6.13-2.7-9.65-4.4-4.39-12.22-2.3-18.9-.51-5.56,1.48-12.48,3.33-16.34,9.44-1.51,2.4-2,4.9-3.09,9.9a79.3,79.3,0,0,0-1.38,13.85C409.05,339.6,408.79,346.83,411,347.48Z" transform="translate(-33.87 -33.79)"/><path class="cls-10" d="M85.36,117.87c7.9-.84,19,.32,19.75,3.92.64,3.34-8.45,5.08-20.09,15.06-12.73,10.92-14.69,19.85-18.55,18.89-5.18-1.27-9.17-19.17-1-29.46C71,119.41,79.87,118.46,85.36,117.87Z" transform="translate(-33.87 -33.79)"/><path class="cls-11" d="M289.19,115c-2.42,7.06-14.71,8.66-16.25,8.86-3.23.42-9,.56-18.95-4.07-1-.48-2-1-2.87-1.43-10.55-5.57-12.79-10.89-17.49-14.65a18.76,18.76,0,0,0-6-3.19c-.14-.06-.28-.1-.43-.15l-.56-.16a5.76,5.76,0,0,0-.81-.17c-2.73-.42-8.38.35-36.93,5.18-15.67,2.65-17.75,3.06-21.43,1.75a19.68,19.68,0,0,1-4.26-2.11,23.6,23.6,0,0,1-3.81-3.12c-4.77-4.77-7.56-10.6-14.92-12.1-4.85-1-8.73.63-16.47,3.85-5.75,2.4-9.94,5.18-16.12,9-3.83,2.38-8.43,5.18-14.65,8.56-3.84,2.09-6.59,3.47-9,2.36-1.62-.75-2.82-2.51-5.32-16.4-1.76-9.82-1.55-11-1.27-12C84,77.12,94.23,73.88,97.28,73c0,0,15.32-13.53,17.11-22.21,3.7-18,31.5-6.8,34.47-6.13,14.64,6.65,24.88,6,31.56,4.07,12.47-3.54,14.26-11.78,27.93-14.29,9-1.64,22.31-.65,27.31,6.9,3.22,4.86.39,8.49,4.34,13.79s8.94,4.54,15.32,8.42,6.94,8,14.3,19.92C282.74,104.7,291.43,108.46,289.19,115Z" transform="translate(-33.87 -33.79)"/></g><g id="leaves"><path class="cls-12" d="M234.84,116.61a8.23,8.23,0,0,1-.27,1.71,9.58,9.58,0,0,1-4.62,5.52c-3.36,1.74-6,.3-7.87,2.37a4.83,4.83,0,0,0-1.24,3.79c.56,3.84,6.82,4.06,10.43,7.88,1.58,1.67,3,4.44,3,9.38a34.83,34.83,0,0,1-.76,6.74,33,33,0,0,1-4.42,5.9l-.75.77a33.57,33.57,0,0,1-4.07,3.47h0a38.16,38.16,0,0,1-10.14,5.17A55,55,0,0,1,195.36,172a52.18,52.18,0,0,1-20.11-5.64s-11.37-5.91-20.51-22.21a80.66,80.66,0,0,1-6.26-14.36,12.86,12.86,0,0,1-.44-7.2c1.13-4.57,5.34-9.23,9.34-9.05a6.86,6.86,0,0,1,4.18,2c1.49,1.32,2.53,2.73,3.33,2.32s.7-2,.24-4.57a24.58,24.58,0,0,0,3.66,1.62c11,3.86,20.46-.11,27.81-1.85C205.35,111,217.77,110.55,234.84,116.61Z" transform="translate(-33.87 -33.79)"/><path class="cls-13" d="M237.57,83.27a12.54,12.54,0,0,1-.7,4,78.17,78.17,0,0,1-5.75,7c-2.26,2.45-3.93,4-5,5.26-.11.14-.21.27-.3.41-2.73-.42-8.38.35-36.93,5.18-15.67,2.65-17.75,3.06-21.43,1.75a19.68,19.68,0,0,1-4.26-2.11c-1.85-7.17-3.18-10.17-1.45-12.42A6.37,6.37,0,0,1,167,90.29c3.76.25,5.34,4.44,7.68,3.88,1.44-.35,2.36-2.3,2.61-3.75.86-4.87-5.33-6.72-6.76-13.13a13.12,13.12,0,0,1,4-12.51c4.09-3.45,10.9-3.92,13-1.38,1.63,1.94.13,5.16,2.06,6.35,1.2.75,2.84.15,3.48-.08,4.34-1.57,4.43-6.07,9.41-12.67a27.21,27.21,0,0,1,6.39-6.49c2-1.39,6.59-4.62,12-3.68a8.63,8.63,0,0,1,5.25,2.51c2.21,2.48,2.41,6.52.61,10.39-1.88,3.32-4.38,7.87-7.21,13.38-1.92,3.72-3.52,7-2.72,7.62,1.2.93,5.76-5.71,12.61-5.59a8.71,8.71,0,0,1,5.78,2A8.18,8.18,0,0,1,237.57,83.27Z" transform="translate(-33.87 -33.79)"/><path class="cls-14" d="M217.21,409.36c4.27-6.21,16.95-26.08,14.2-47.65a45,45,0,0,0-2.2-9.32c-7.4-8.94-13.08-9.84-16.91-9-6.33,1.42-11.3,8.48-15.34,6.36a5.61,5.61,0,0,1-2.63-4.15c-.49-3.69,2.83-5.66,3.75-10.77.09-.51.93-5.6-1.69-9.3-2.5-3.53-7.54-4.93-11.22-2.63a8.52,8.52,0,0,0-2,1.79c-5.46,2.41-7.88,1.36-9,.47-2.27-1.82-2-5.33-3-12.88a106.68,106.68,0,0,0-2.24-11.68c-2.71-4.39-6.86-6.51-10.8-5.35-3.41,1-5.6,4.13-6.31,5.18-5.32,7.81-2.52,17.84-4.31,18.56-1.2.48-3.07-3.74-5.13-8.62-3-7.22-5.42-13.37-7.12-17.92C133,287.61,129,284.94,125,285.7c-3.08.59-5.24,3-6.36,4.25-5,5.6-5.47,13.22-5.67,16.52a38.84,38.84,0,0,0,1.27,12c2.43,10.48,6.61,13.82,4.79,19.95-.27.91-1,3.23-2.57,4.08-2.59,1.36-4.48-2.67-7.54-2.2-4,.63-8.74,8.83-8.6,16a15.11,15.11,0,0,0,8.77,13.57c7.12,2.95,13.56-2.85,17.5,1.64,1.16,1.33,2.31,3.8,1.54,5.71-1.24,3.1-6.39,1.91-9.48,6.06-1.38,1.85-2.5,5-1.94,7.5,1,4.5,6.76,4.36,19.78,10.05,4.29,1.88,6.85,3.29,6.58,4.7-.4,2.12-6.61,1.11-9.79,5.55s-2,12.68,1.44,17.26a13,13,0,0,0,7.11,4.67c32.52,9.3,54.77-4.58,54.77-4.58A77.34,77.34,0,0,0,217.21,409.36Z" transform="translate(-33.87 -33.79)"/><path class="cls-15" d="M371.53,219.63c5.07-2.26,20.67-9.89,27.08-24.64a33.17,33.17,0,0,0,2.13-6.78c-1.34-8.56-4.61-11.36-7.37-12.31-4.58-1.58-10.41.95-12.18-2a4.19,4.19,0,0,1-.11-3.66c1.08-2.53,3.95-2.48,6.46-5.36.25-.29,2.72-3.18,2.45-6.56-.26-3.21-2.94-6.08-6.16-6.06a6.11,6.11,0,0,0-2,.34c-4.39-.61-5.53-2.23-5.9-3.22-.76-2.05.77-4.15,3-9.34a78.52,78.52,0,0,0,3-8.29c-.07-3.84-1.91-6.81-4.85-7.62a9.31,9.31,0,0,0-6,.81c-6.34,2.87-8.35,10.33-9.77,10.08-.94-.16-.54-3.57,0-7.46.8-5.77,1.61-10.61,2.25-14.16.39-4-1.12-7.21-4-8.3a8.8,8.8,0,0,0-5.65.2c-5.31,1.59-8.49,6.24-9.86,8.25a28.46,28.46,0,0,0-3.75,8.12c-2.41,7.6-1,11.35-4.5,14.53-.51.46-1.83,1.67-3.18,1.57-2.16-.15-1.84-3.45-4-4.34-2.79-1.18-8.91,2.17-11.54,6.79a11.33,11.33,0,0,0,.45,12c3.41,4.66,9.71,3.51,10.52,7.89.24,1.3,0,3.32-1.17,4.23-2,1.47-4.8-1.3-8.33.12a7.4,7.4,0,0,0-4.08,4c-1.06,3.25,2.66,5.41,8.8,14.13,2,2.86,3.11,4.76,2.41,5.55-1.06,1.19-4.63-1.89-8.33-.32s-6.08,7.26-5.62,11.51a9.92,9.92,0,0,0,2.76,5.75c17.2,18.64,36.62,18.55,36.62,18.55A56.49,56.49,0,0,0,371.53,219.63Z" transform="translate(-33.87 -33.79)"/><path class="cls-16" d="M324.76,327.15c2.51,1.85,10.56,7.39,19.54,6.55a18.6,18.6,0,0,0,3.89-.78c3.81-2.94,4.26-5.28,4-6.88-.5-2.65-3.35-4.8-2.42-6.45a2.34,2.34,0,0,1,1.76-1c1.53-.15,2.3,1.26,4.41,1.71a5.65,5.65,0,0,0,3.88-.57,3.57,3.57,0,0,0,1.24-4.62,3.61,3.61,0,0,0-.71-.86c-.92-2.29-.45-3.28-.07-3.73.79-.91,2.24-.74,5.38-1.06a42.74,42.74,0,0,0,4.87-.76c1.86-1.07,2.79-2.75,2.37-4.4a5.16,5.16,0,0,0-2.06-2.69c-3.16-2.32-7.35-1.3-7.63-2.05-.18-.5,1.59-1.22,3.64-2,3-1.16,5.62-2.06,7.53-2.7,2.05-.87,3.21-2.48,3-4.15a5,5,0,0,0-1.67-2.69c-2.25-2.16-5.4-2.46-6.77-2.58a16.14,16.14,0,0,0-5,.35c-4.38.86-5.83,2.55-8.34,1.71a2.88,2.88,0,0,1-1.66-1.13c-.52-1.09,1.18-1.81,1-3.09-.2-1.67-3.54-3.74-6.52-3.79a6.3,6.3,0,0,0-5.75,3.45c-1.32,2.9,1,5.66-.92,7.22a2.53,2.53,0,0,1-2.39.56c-1.26-.56-.7-2.67-2.38-4a4.24,4.24,0,0,0-3.08-.91c-1.88.35-1.9,2.74-4.44,8.06-.84,1.75-1.46,2.79-2,2.66-.87-.2-.37-2.76-2.16-4.14s-5.23-1-7.18.36a5.36,5.36,0,0,0-2,2.88c-4.31,13.34,1.13,22.76,1.13,22.76A32.22,32.22,0,0,0,324.76,327.15Z" transform="translate(-33.87 -33.79)"/></g><g id="Layer_5" data-name="Layer 5"><path class="cls-17" d="M356.32,315.14s-12.66,34.5-2.29,44.8c.5.49,1.92,2,3.33.78,3.22-2.7,3.58-16.8,3.63-18.89A65.22,65.22,0,0,0,356.32,315.14Z" transform="translate(-33.87 -33.79)"/><path class="cls-18" d="M375.5,284.12s-18.72,26.36-10.88,41.39c.38.71,1.44,2.84,3,2.43,3.58-.94,6.66-14.15,7.12-16.11A69.22,69.22,0,0,0,375.5,284.12Z" transform="translate(-33.87 -33.79)"/><path class="cls-19" d="M389.6,272.78s-15.93,20.68-10.05,31c.28.49,1.07,2,2.35,1.53,2.92-1,5.82-10.82,6.25-12.29A46.79,46.79,0,0,0,389.6,272.78Z" transform="translate(-33.87 -33.79)"/><path class="cls-20" d="M407.82,266.72s-19.36,10.65-16,23.58c.16.62.59,2.43,1.89,2.74,2.95.7,7.75-7,8.47-8.11A38.42,38.42,0,0,0,407.82,266.72Z" transform="translate(-33.87 -33.79)"/><path class="cls-21" d="M424.1,248.68s-18.23,14.94-13.79,27c.22.57.8,2.27,2.11,2.28,3,0,7.07-8.67,7.68-10A42.59,42.59,0,0,0,424.1,248.68Z" transform="translate(-33.87 -33.79)"/><path class="cls-22" d="M398.71,321.87s-18.49-14.07-21.66-1a6.12,6.12,0,0,0,.18,4.09c1.81,3.81,8.57,3.69,9.57,3.68C389.74,328.57,394.47,327.61,398.71,321.87Z" transform="translate(-33.87 -33.79)"/><path class="cls-23" d="M440.58,234.15s-18.23,14.94-13.79,27c.21.58.8,2.27,2.11,2.28,3,0,7.07-8.66,7.68-10A42.59,42.59,0,0,0,440.58,234.15Z" transform="translate(-33.87 -33.79)"/><path class="cls-24" d="M457.49,215.88s-18.23,14.94-13.79,27c.21.57.8,2.27,2.11,2.28,3,0,7.07-8.67,7.68-10A42.76,42.76,0,0,0,457.49,215.88Z" transform="translate(-33.87 -33.79)"/><path class="cls-25" d="M460.37,255.5s-16.38,19.74-21.1,8a6,6,0,0,1-.33-4.06c1.31-4.32,7.95-6.38,8.93-6.68A12.4,12.4,0,0,1,460.37,255.5Z" transform="translate(-33.87 -33.79)"/><path class="cls-26" d="M442.78,272.87s-16.39,19.74-21.11,8a6.05,6.05,0,0,1-.33-4.07c1.31-4.32,8-6.38,8.94-6.68A12.4,12.4,0,0,1,442.78,272.87Z" transform="translate(-33.87 -33.79)"/><path class="cls-27" d="M424,289.78s-16.39,19.74-21.11,8a6,6,0,0,1-.32-4.07c1.31-4.32,7.94-6.38,8.93-6.68A12.4,12.4,0,0,1,424,289.78Z" transform="translate(-33.87 -33.79)"/><path class="cls-28" d="M407.91,307.83s-17.39,10.62-19.22-.87a5.21,5.21,0,0,1,.47-3.5c1.89-3.14,7.85-2.49,8.74-2.39C400.49,301.35,404.6,302.55,407.91,307.83Z" transform="translate(-33.87 -33.79)"/><path class="cls-29" d="M386.61,335.52s-15.36-5.85-21.34,11c-.29.8-1.14,3.13-.71,4.62,1,3.39,7.73-.56,8.74-1.15C376.24,348.3,381.15,344.53,386.61,335.52Z" transform="translate(-33.87 -33.79)"/><path class="cls-30" d="M378.66,358.34s-15.36-5.85-21.34,11c-.28.8-1.14,3.13-.7,4.62,1,3.39,7.73-.56,8.74-1.15C368.29,371.12,373.21,367.35,378.66,358.34Z" transform="translate(-33.87 -33.79)"/><path class="cls-31" d="M472.41,231.55s-13-6.61-17.07,5.92A6.33,6.33,0,0,0,455,241c1,2.79,6.36.56,7.16.23C464.49,240.29,468.36,238,472.41,231.55Z" transform="translate(-33.87 -33.79)"/><path class="cls-32" d="M350.38,381.83a46.16,46.16,0,0,1,1.68-8.5c2.7-9,6-8.69,8.34-17,1.29-4.63.81-6.66,2.82-12.35.71-2,1-2.38,2.79-6.43,2.41-5.4,4.23-9.92,5.84-13.95,3.39-8.45,3.5-9.49,5.07-11.63,2-2.69,2.36-1.83,5.85-5.34,4.46-4.5,4.25-6.36,7.85-9.37,2.55-2.13,2.87-1.38,6.86-4.08a60.71,60.71,0,0,0,7.23-6,73,73,0,0,1,12.07-8.68,52.61,52.61,0,0,1,9.68-11.37c3.82-3.29,4.07-2.32,7.48-5.63,2.78-2.7,3.46-4.17,10.64-12.57,1.39-1.63,2.05-2.38,2.95-3.3a41.59,41.59,0,0,1,7.16-5.93c-.93,1.15-2.35,2.86-4.13,4.81-4.71,5.16-6.32,5.85-9.64,9.81-3.77,4.51-2.82,5-5.87,8.31-3.94,4.3-5.79,3.8-9.8,7.47a37.16,37.16,0,0,0-7.34,9.7,78.6,78.6,0,0,0-12.14,8.51c-2.84,2.42-3.71,3.49-6.73,5.75-5.3,4-5.89,3.07-8.67,6-3,3.11-3.05,4.91-6.94,9.48a43.4,43.4,0,0,1-5.2,5.19c-.49,1-7.58,16.19-11.05,24.8-.85,2.12-1.63,4.21-2.43,6.69-1.35,4.19-2.09,7.47-2.26,8.19C361.57,358.23,358.76,365.76,350.38,381.83Z" transform="translate(-33.87 -33.79)"/><path class="cls-33" d="M168.75,469.16c-5.11,4.51-15.05,1.88-23.24-1.58-2.26-1.51-3.83-2.74-4.57-3.33q-2.59-2.06-4.95-4.34a47.59,47.59,0,0,1,18.77.11c1.71.34,13.19,2.62,15,6.07C170.59,467.6,169.21,468.76,168.75,469.16Z" transform="translate(-33.87 -33.79)"/><path class="cls-34" d="M144.19,451.77c.15,1.56-1.71,2.28-2.34,2.54-3.54,1.46-7.53,1-11.47-.51a105.41,105.41,0,0,1-10.07-14.72,50.1,50.1,0,0,1,11.55,3.68C133.41,443.46,143.84,448.22,144.19,451.77Z" transform="translate(-33.87 -33.79)"/><path class="cls-35" d="M125.84,437.06a8.9,8.9,0,0,1-6.69,0c-2.34-4.19-4.33-8.24-6.07-11.86a36.69,36.69,0,0,1,5,2.21c1.15.61,8.87,4.73,9.32,7.65C127.56,436.31,126.27,436.86,125.84,437.06Z" transform="translate(-33.87 -33.79)"/><path class="cls-36" d="M118.73,422.06c-.4,1.2-1.94,1.37-2.46,1.43A8.62,8.62,0,0,1,112,423c-.06-.14-.13-.29-.2-.43-3.22-6.76-5-11.73-6.9-15.44a29.89,29.89,0,0,1,8.16,5.74C113.94,413.69,119.65,419.34,118.73,422.06Z" transform="translate(-33.87 -33.79)"/><path class="cls-37" d="M108.59,402.09c-.16,1.25-1.61,1.58-2.11,1.71a8.24,8.24,0,0,1-3.42.11h0a13.65,13.65,0,0,0-5.6-4.71A15,15,0,0,0,93.85,398,56.12,56.12,0,0,1,86,386.91a32.32,32.32,0,0,1,15.32,6.48C102.34,394.15,109,399.24,108.59,402.09Z" transform="translate(-33.87 -33.79)"/><path class="cls-38" d="M142.88,421.24S129.2,437,139.5,441.8a4.36,4.36,0,0,0,3.36.39c3.33-1.21,4-7.69,4.13-8.65A15.6,15.6,0,0,0,142.88,421.24Z" transform="translate(-33.87 -33.79)"/><path class="cls-39" d="M76.1,369.17s10.07,19.48,20.44,16.88c.49-.12,1.95-.45,2.11-1.7.37-2.85-6.25-8-7.24-8.71A32.34,32.34,0,0,0,76.1,369.17Z" transform="translate(-33.87 -33.79)"/><path class="cls-40" d="M63.14,350.5S73.22,370,83.58,367.38c.5-.12,2-.45,2.12-1.7.36-2.85-6.26-7.95-7.24-8.71A32.23,32.23,0,0,0,63.14,350.5Z" transform="translate(-33.87 -33.79)"/><path class="cls-41" d="M95.86,353.18s14.21,18.37,4,21.26a4.26,4.26,0,0,1-3.36-.24c-3.38-1.85-4.28-8.47-4.42-9.46A13.2,13.2,0,0,1,95.86,353.18Z" transform="translate(-33.87 -33.79)"/><path class="cls-42" d="M108,372.38s14.21,18.38,4,21.27a4.26,4.26,0,0,1-3.36-.24c-3.38-1.85-4.28-8.47-4.41-9.46A13.19,13.19,0,0,1,108,372.38Z" transform="translate(-33.87 -33.79)"/><path class="cls-43" d="M119.62,392.63s14.21,18.37,4,21.26a4.26,4.26,0,0,1-3.36-.24c-3.38-1.85-4.28-8.47-4.41-9.46A13.2,13.2,0,0,1,119.62,392.63Z" transform="translate(-33.87 -33.79)"/><path class="cls-44" d="M132.48,410.51s6.64,18.08-3,18.25a3.8,3.8,0,0,1-2.81-.92c-2.34-2.24-1.11-7.85-.93-8.68A12.39,12.39,0,0,1,132.48,410.51Z" transform="translate(-33.87 -33.79)"/><path class="cls-45" d="M152.61,434.67s-6.58,13.89,6.5,21.92c.62.38,2.43,1.52,3.7,1.31,2.88-.48.45-7.47.09-8.51C161.84,446.34,159.34,441.13,152.61,434.67Z" transform="translate(-33.87 -33.79)"/><path class="cls-46" d="M170.33,445.4s-6.58,13.88,6.5,21.91c.62.39,2.43,1.52,3.7,1.31,2.88-.47.45-7.47.09-8.51C179.56,457.07,177.06,451.85,170.33,445.4Z" transform="translate(-33.87 -33.79)"/><path class="cls-47" d="M77.7,338.38s-6.92,11.5,2.84,17.13a4.62,4.62,0,0,0,2.87.83c2.4-.56,1.2-6,1-6.81C83.91,347.16,82.46,343.14,77.7,338.38Z" transform="translate(-33.87 -33.79)"/><path class="cls-48" d="M186.21,475.66a34.73,34.73,0,0,1-6.75-2.77c-7-3.81-6.39-6.94-13-10.31-3.63-1.87-5.34-1.69-9.76-4.39-1.57-1-1.83-1.27-4.93-3.56-4.13-3-7.61-5.39-10.71-7.49-6.52-4.4-7.35-4.64-8.92-6.44-2-2.25-1.21-2.51-3.68-6.33-3.15-4.88-4.69-4.93-6.73-8.78-1.44-2.73-.79-2.94-2.53-7.13a62.27,62.27,0,0,0-4-7.73A75,75,0,0,1,109.52,398a49.49,49.49,0,0,1-8.15-10.81c-2.24-4.1-1.42-4.21-3.72-7.93-1.88-3-3-3.88-9-11.89-1.17-1.55-1.71-2.29-2.35-3.27a42.74,42.74,0,0,1-4-7.66c.83,1,2.06,2.63,3.45,4.61,3.66,5.21,4,6.84,6.89,10.55,3.24,4.23,3.74,3.39,6.1,6.76,3,4.36,2.43,6.05,5,10.39a33.71,33.71,0,0,0,7.06,8.35,81.05,81.05,0,0,0,5.53,12.78c1.65,3,2.42,4,3.91,7.21,2.61,5.62,1.82,6.06,3.85,9.11,2.19,3.29,3.66,3.59,6.94,7.94a42.1,42.1,0,0,1,3.63,5.68c.79.61,12.34,9.47,19,14,1.63,1.1,3.25,2.14,5.18,3.24,3.27,1.86,5.86,3,6.43,3.28C168.23,461.73,174.06,465.44,186.21,475.66Z" transform="translate(-33.87 -33.79)"/><path class="cls-49" d="M225,152.72s-17.08,19.56-12.09,29.13c.24.45.91,1.81,2.19,1.39,2.92-.94,6.47-10.2,7-11.58A43.24,43.24,0,0,0,225,152.72Z" transform="translate(-33.87 -33.79)"/><path class="cls-50" d="M245.9,137.2s-19.49,12.55-17.41,24.59c.1.57.36,2.26,1.58,2.41,2.77.32,8.05-7.63,8.83-8.82A44.87,44.87,0,0,0,245.9,137.2Z" transform="translate(-33.87 -33.79)"/><path class="cls-51" d="M258.6,133.39s-16.18,9.52-14.4,17.91c.09.4.31,1.58,1.32,1.64,2.31.13,6.67-5.65,7.32-6.51A30.41,30.41,0,0,0,258.6,133.39Z" transform="translate(-33.87 -33.79)"/><path class="cls-52" d="M273,134.17s-16.28,2-16.92,11.43c0,.45-.14,1.77.71,2.31,1.94,1.25,7.16-2.58,7.93-3.15A25.24,25.24,0,0,0,273,134.17Z" transform="translate(-33.87 -33.79)"/><path class="cls-53" d="M288.81,126.5s-16.48,5.1-16.12,14.27c0,.44,0,1.72,1,2.07,2.12.8,7.06-3.89,7.79-4.58A27.84,27.84,0,0,0,288.81,126.5Z" transform="translate(-33.87 -33.79)"/><path class="cls-54" d="M253.63,168.37s-9.89-14.22-15.2-6.4a4,4,0,0,0-.82,2.77c.4,3,5.25,4.71,6,5A11.23,11.23,0,0,0,253.63,168.37Z" transform="translate(-33.87 -33.79)"/><path class="cls-55" d="M304,121.2s-16.48,5.11-16.13,14.28c0,.43,0,1.71,1,2.06,2.12.81,7.06-3.88,7.8-4.58A27.84,27.84,0,0,0,304,121.2Z" transform="translate(-33.87 -33.79)"/><path class="cls-56" d="M320.26,113.53s-16.48,5.11-16.12,14.28c0,.43,0,1.71,1,2.07,2.12.8,7.06-3.89,7.79-4.59A27.78,27.78,0,0,0,320.26,113.53Z" transform="translate(-33.87 -33.79)"/><path class="cls-57" d="M313.07,140.58s-16.28,8.78-16.9-.27a3.93,3.93,0,0,1,.72-2.79c1.94-2.52,7.15-2.13,7.92-2.08A10.1,10.1,0,0,1,313.07,140.58Z" transform="translate(-33.87 -33.79)"/><path class="cls-58" d="M296.48,147.47s-16.29,8.78-16.9-.28a3.94,3.94,0,0,1,.71-2.78c1.94-2.52,7.15-2.14,7.93-2.08A10.09,10.09,0,0,1,296.48,147.47Z" transform="translate(-33.87 -33.79)"/><path class="cls-59" d="M279.17,153.75s-16.29,8.77-16.9-.28a3.94,3.94,0,0,1,.71-2.78c1.95-2.53,7.16-2.14,7.93-2.08A10.09,10.09,0,0,1,279.17,153.75Z" transform="translate(-33.87 -33.79)"/><path class="cls-60" d="M263.47,161.48s-14.87,2.45-13.49-5.65a3.35,3.35,0,0,1,1.14-2.2c2.08-1.58,6.18.42,6.79.72A10.35,10.35,0,0,1,263.47,161.48Z" transform="translate(-33.87 -33.79)"/><path class="cls-61" d="M241.83,174.23s-9.59-7.93-17.79,1.68a5.91,5.91,0,0,0-1.58,2.89c-.09,2.5,5.65,1.66,6.5,1.54C231.45,180,235.83,178.77,241.83,174.23Z" transform="translate(-33.87 -33.79)"/><path class="cls-62" d="M230.84,187.28s-9.59-7.93-17.78,1.68c-.39.46-1.55,1.78-1.58,2.88-.09,2.51,5.64,1.67,6.49,1.55C220.47,193,224.85,191.82,230.84,187.28Z" transform="translate(-33.87 -33.79)"/><path class="cls-63" d="M327.24,127.87s-7.7-7.8-13.55-.57a4.09,4.09,0,0,0-1.08,2.26c.05,2.12,4.4,2.05,5.05,2C319.56,131.58,322.86,131.05,327.24,127.87Z" transform="translate(-33.87 -33.79)"/><path class="cls-64" d="M205.2,195.41a29.91,29.91,0,0,1,3.18-5.2c4-5.24,6.31-4.18,9.92-9.11,2-2.73,2.13-4.2,4.89-7.45,1-1.16,1.26-1.32,3.49-3.53,3-3,5.33-5.47,7.42-7.72,4.39-4.71,4.7-5.37,6.32-6.38,2-1.26,2.12-.58,5.42-2,4.23-1.81,4.51-3.09,7.78-4.14,2.31-.74,2.37-.16,5.85-.9a45.23,45.23,0,0,0,6.54-2.07,54.1,54.1,0,0,1,10.63-2.58,37.45,37.45,0,0,1,9.55-5c3.49-1.18,3.45-.46,6.65-1.76,2.61-1.06,3.44-1.86,10.51-5.54,1.37-.71,2-1,2.88-1.41a30.53,30.53,0,0,1,6.49-2c-.93.52-2.34,1.28-4.07,2.11-4.56,2.18-5.87,2.21-9.16,4-3.74,2-3.17,2.56-6.12,4-3.82,1.81-5,1-8.73,2.37a25.88,25.88,0,0,0-7.49,4.51,57.78,57.78,0,0,0-10.65,2.44c-2.58.86-3.45,1.34-6.13,2-4.7,1.22-4.92.48-7.57,1.67-2.86,1.27-3.32,2.45-7.16,4.46a31.17,31.17,0,0,1-4.92,2.07c-.59.56-9.18,8.74-13.66,13.54-1.1,1.18-2.15,2.37-3.29,3.8-1.94,2.43-3.23,4.4-3.52,4.84C218.68,182.7,214.92,187,205.2,195.41Z" transform="translate(-33.87 -33.79)"/><path class="cls-65" d="M103.24,246.68a58.1,58.1,0,0,1-21.58-11.87c-1.22-1.08-3.44-3.13-9.55-10.63-4.3-5.27-18-22.14-16.85-23.28.91-.86,10.54,7,43.77,39.27-2.87-3.6-6.41-8.21-10.34-13.66C66.21,195.33,51,163.86,52.56,162.94c1.16-.7,12.75,15.34,50.93,75.32Q94.82,220.13,86.13,202q-4.51-10.58-9-21.14a273.34,273.34,0,0,1,17,23.18c5.58,8.56,2.56,5,9.57,16.34,2.42,3.91,5.77,9.17,6.77,16.34.38,2.78.31,5.11-1.13,7C107.4,246.19,104.27,246.59,103.24,246.68Z" transform="translate(-33.87 -33.79)"/></g><g id="web"><path class="cls-66" d="M324.26,175.32V326.46a15.11,15.11,0,0,1-15.06,15.07h-202a15.11,15.11,0,0,1-15.06-15.07V175.32a15.11,15.11,0,0,1,15.06-15.07h202A15.11,15.11,0,0,1,324.26,175.32Z" transform="translate(-33.87 -33.79)"/><rect class="cls-67" x="69.79" y="144.17" width="209.36" height="17.36" rx="8.68"/><rect class="cls-2" x="110.65" y="149.62" width="83.4" height="7.83" rx="3.91"/><rect class="cls-2" x="77.28" y="149.62" width="30.98" height="7.83" rx="3.91"/><rect class="cls-2" x="66.48" y="130.64" width="9.53" height="7.83" rx="3.91"/><rect class="cls-2" x="77.94" y="130.64" width="9.53" height="7.83" rx="3.91"/><rect class="cls-2" x="89.41" y="130.64" width="9.53" height="7.83" rx="3.91"/><rect class="cls-2" x="88.41" y="243.75" width="50.85" height="16.09" rx="8.04"/><rect class="cls-67" x="72.86" y="199.32" width="81.96" height="8.43" rx="4.21"/><rect class="cls-67" x="72.86" y="211.94" width="81.96" height="8.43" rx="4.21"/><rect class="cls-67" x="93.03" y="224.72" width="41.62" height="8.43" rx="4.21"/><path class="cls-68" d="M324.26,175.32V326.46a15.11,15.11,0,0,1-15.06,15.07H174.12l74.65-146.21L257.64,178l9-17.7H309.2A15.11,15.11,0,0,1,324.26,175.32Z" transform="translate(-33.87 -33.79)"/></g><g id="Layer_6" data-name="Layer 6"><path class="cls-69" d="M278.26,170.3a23.52,23.52,0,0,1,2.07-11.81,23.13,23.13,0,0,1,6.43-8.26,19.31,19.31,0,0,1,8,1.17,20.46,20.46,0,0,1,10.36,9.07q1.75,17.57,3.52,35.12c2.87,1.35,4.4,1,5.24.53,4.67-2.65-3.49-14.21-.08-30.06,0,0,3.18-14.8-.3-18.73,0,0-.15-.17-.12-.28.25-.78,7.54.18,13.21,2.72a29.91,29.91,0,0,1,10.62,8.16l-8.39,34.52-.36,11.08,6.41-3.3q2.18-9.76,4.34-19.55l5.82-15.92A20.2,20.2,0,0,1,356,172a20.62,20.62,0,0,1,4.19,12.69,183.94,183.94,0,0,1-11.37,19.45c-3.21,4.79-6.44,9.13-9.59,13l1.62,6.46L362,202.9l3.42-11.4c1.5.47,8.53,2.88,12,10.07.16.32,3.83,8.15.56,15.58-6.27,14.27-31.95,13-32.32,20.37-.07,1.22.54,3.24,4.87,5.94L364,236.55l17.94-.57c8.56,11.69,7.59,17.87,6.34,20.79s-3.14,3.5-17.52,13.14c-8.56,5.73-10.34,7.15-12,8.59a59,59,0,0,0-11.26,13.57L333,291.9l-16,2.66-26.34,3.52a11.94,11.94,0,0,1-8.8-4.38,12.26,12.26,0,0,1-2.09-10.32l19.9-5.46s19.45-13.36,18.59-14.78c-.07-.12-.26-.12-.34-.12-3.67,0-17.7,4.61-22.69,5.86-.09,0-19.31,1-19.05,1h0c-3.87-1.63-4.36-3.54-4.45-4.07-.59-3.32,4.27-8,12.8-10.58l27.48-12.75-24.71-.58L270.07,253.6a27.07,27.07,0,0,1-1.54-16.37,26.3,26.3,0,0,1,4.8-10.24,73.19,73.19,0,0,1,36.12,2.14l1.5-10.74a55.57,55.57,0,0,1-15.19,2.9,56.65,56.65,0,0,1-24.87-4.48l-5.46-3.48A33.27,33.27,0,0,1,275.86,189l14.07,10.68,14.13,3.86L283,182.66Z" transform="translate(-33.87 -33.79)"/><path class="cls-70" d="M262.61,303.19a64.61,64.61,0,0,1,23.74,24.51c12,22.55,10.39,54.8-2.58,60.82-7.27,3.38-17.07-2-19.12-3.12-8.81-4.83-12.48-12.7-14.3-16.59C238.45,343.3,261.11,305.63,262.61,303.19Z" transform="translate(-33.87 -33.79)"/><path class="cls-71" d="M344.4,306a62.43,62.43,0,0,1-1.65,32.63c-7.86,23.12-31.32,42.88-43.88,37.66-7.05-2.94-9.66-13.31-10.2-15.49-2.35-9.34.74-17,2.27-20.84C300.94,315,341.74,306.49,344.4,306Z" transform="translate(-33.87 -33.79)"/><path class="cls-72" d="M361.35,397.48a62.43,62.43,0,0,1-30.39,12c-24.31,2.41-52-10.76-52.44-24.36-.25-7.63,8.12-14.3,9.87-15.7,7.53-6,15.82-6.37,19.92-6.56C335.14,361.64,359.77,395.27,361.35,397.48Z" transform="translate(-33.87 -33.79)"/><path class="cls-73" d="M128.05,93.46c-5.75,2.4-9.94,5.18-16.12,9a79.13,79.13,0,0,1,4.81-22.26A55.73,55.73,0,0,1,139,53.05c1.28,2.11,15,25,20.47,48.66-4.77-4.77-7.56-10.6-14.92-12.1C139.67,88.63,135.79,90.24,128.05,93.46Z" transform="translate(-33.87 -33.79)"/><path class="cls-74" d="M159.73,133.24a41.66,41.66,0,0,1-5,10.94,24.39,24.39,0,0,1-8.17,7.65c-2,1.15-11.78,6.66-19.88,1.88-7.94-4.68-13.2-18.54-14.65-34.4,4.06-7,7.92-12.9,15-15.78,9.47-3.83,19.23-.12,24.58,1.91a35.91,35.91,0,0,1,9.42,5.22q.33,2.48.48,4.92A47.63,47.63,0,0,1,159.73,133.24Z" transform="translate(-33.87 -33.79)"/><path class="cls-75" d="M102.28,462.54a31.72,31.72,0,0,1-6,.86c-8.85.58-20.39,1.5-34.33,2.41-6.16-7.26-11.34-16-13.82-24.56a41.82,41.82,0,0,1,1-27c2.65,1.1,43.21,18.27,51.24,41.09A34.89,34.89,0,0,1,102.28,462.54Z" transform="translate(-33.87 -33.79)"/><path class="cls-76" d="M264,86.64A79.49,79.49,0,0,1,255.21,95c-5.42,4.43-12.55,8.93-19.09,8.8a20.56,20.56,0,0,1-2.49-.15,18.76,18.76,0,0,0-6-3.19c-.14-.06-.28-.1-.43-.15l-.56-.16c-.16-.17-.33-.37-.51-.58-1.12-1.37-2.42-3.55-1.87-6,.88-4,6.5-8,13.27-10.33a34.38,34.38,0,0,1,13.35-2A22.72,22.72,0,0,1,264,86.64Z" transform="translate(-33.87 -33.79)"/><path class="cls-77" d="M275.72,113.45c-1.09.4-13,4.67-24.6,4.88-10.55-5.57-12.79-10.89-17.49-14.65a18.76,18.76,0,0,0-6-3.19,7.2,7.2,0,0,1,1.6-3.82c3.95-4.65,15.58-5,25.94-1.64a37.7,37.7,0,0,1,9.59,4.57A29.21,29.21,0,0,1,275.72,113.45Z" transform="translate(-33.87 -33.79)"/><path class="cls-78" d="M340.72,448.6a58.3,58.3,0,0,0,21.58-11.88c1.22-1.07,3.44-3.13,9.56-10.63,4.29-5.26,18.05-22.14,16.84-23.28-.91-.86-10.54,7-43.76,39.28,2.86-3.61,6.41-8.21,10.34-13.66,22.47-31.19,37.67-62.66,36.12-63.58-1.16-.69-12.74,15.35-50.93,75.32q8.68-18.12,17.36-36.26l9-21.13a271.74,271.74,0,0,0-17,23.18c-5.58,8.55-2.55,5-9.57,16.34-2.42,3.91-5.77,9.17-6.77,16.34-.38,2.77-.31,5.11,1.13,7A8.55,8.55,0,0,0,340.72,448.6Z" transform="translate(-33.87 -33.79)"/><path class="cls-79" d="M415.65,245.21c4.6-5.42,10.79-15.16,14.37-32.65.56-2.75,1.52-8,3-26.47,1-13,4.38-54.61,2.45-56.83-1.45-1.66-6.29,18.55-19.65,100.2.64-8.87,1.35-20.17,1.91-33.47,3.21-76.08-1.12-150.75-3.26-152.38-1.6-1.23-3.28,37.92-4.36,182.83l-5.13-86-4.08-49.83c-1.78,22.22-2.42,41.68-2.63,56.63-.29,20.71.54,11.92.54,39.25,0,9.43-.1,22.13,3.38,38.46,1.35,6.31,2.88,11.51,5.53,15.36C411.14,245.29,414.55,245.3,415.65,245.21Z" transform="translate(-33.87 -33.79)"/><path class="cls-80" d="M237.7,426c4.92-4.28,11.73-11.8,16.58-24.72.77-2,2.11-5.89,5-19.38,2-9.48,8.52-39.83,6.8-41.28-1.3-1.1-7.59,13.9-27,74,1.31-6.46,2.87-14.69,4.45-24.35,9-55.27,10.58-108.93,8.61-109.94-1.48-.76-6.14,27.68-18.41,132.55q.81-30.9,1.63-61.78-.06-17.86-.13-35.72c-3.47,16.21-5.6,30.33-7,41.15-1.88,15-.38,8.58-2.5,28.34-.73,6.82-1.81,16,.33,27.55.83,4.46,1.92,8.1,4.22,10.68A8.13,8.13,0,0,0,237.7,426Z" transform="translate(-33.87 -33.79)"/><path class="cls-81" d="M305.74,464.18a7.71,7.71,0,0,1-2.05-.26c-.44-1.68-.87-3.37-1.31-5.05l.26.11C304.62,459.73,305.36,462,305.74,464.18Z" transform="translate(-33.87 -33.79)"/><path class="cls-82" d="M294.73,455.13c.11,3,.4,10.94.41,10.94a5.89,5.89,0,0,1-1.58,2.28,2.23,2.23,0,0,1-1,.5c-2.1.34-5-2.76-6.56-8.17l-3.39-7.57C285.5,452.45,291.93,454.26,294.73,455.13Z" transform="translate(-33.87 -33.79)"/><path class="cls-83" d="M269.11,454.46a8.92,8.92,0,0,1-1.76,3.5c0-.46,0-.93.07-1.41.05-.87.13-1.72.23-2.53C268.58,454.28,269.11,454.46,269.11,454.46Z" transform="translate(-33.87 -33.79)"/><path class="cls-84" d="M277.58,458.82q3.62,5.51,7.24,11a17.07,17.07,0,0,1-10.35.83,16.78,16.78,0,0,1-6.42-3.12,44.27,44.27,0,0,1-.65-5.59l3.67-1.27s3.38-2.67,6.62-4.86C277.65,456.82,277.62,457.82,277.58,458.82Z" transform="translate(-33.87 -33.79)"/><path class="cls-85" d="M260,464.51l3.58-1.24a35.43,35.43,0,0,1-2,5.72l-1.78,2.72c-1.16-.7-2.17-1.44-3.06-2.1C253.76,467.4,260,464.51,260,464.51Z" transform="translate(-33.87 -33.79)"/><path class="cls-86" d="M264.18,460.41a10.16,10.16,0,0,1-3.15.86,15.91,15.91,0,0,0-5.17,2.4c-3,2.18-3.89,4.53-5.06,6.83a20.89,20.89,0,0,1-6.72-4.89q3.43-4.39,6.86-8.78l1.22-4.22a42.08,42.08,0,0,1,12.49.71h0A35.07,35.07,0,0,1,264.18,460.41Z" transform="translate(-33.87 -33.79)"/><path class="cls-87" d="M239.75,457.27a22.08,22.08,0,0,1,8.25-3.93l-7.84,7.71-7.84,2.88a15.67,15.67,0,0,1-1.87,0C233.35,462,236.57,459.75,239.75,457.27Z" transform="translate(-33.87 -33.79)"/><path class="cls-88" d="M313.07,457.18a1.23,1.23,0,0,1,0,.17c-3.94-.69-7.42-1.65-11.78-2.72-.29-1.1-.57-2.21-.86-3.31,0,0-8.26-12.39-9.17-11.86-.07.05-.07.16-.08.21-.05,2.11,2.28,9.68,3.26,13.4-3.54-.74-7.7-1.49-12.86-2.21-1.14-2.55-2.27-5.09-3.41-7.63l-.27,7.14c-1.59-.2-3.26-.4-5-.59-1.5-.16-3-.31-4.42-.44.39-1.72.84-3.26,1.28-4.58l-6.77-1a36.08,36.08,0,0,1,1.28,5.31,71.89,71.89,0,0,0-11.09.14l.36-1.24-1.37,1.35a54.77,54.77,0,0,0-10.7,2.3c-7.19,2.3-9.47,4.57-18.66,9.7a14.55,14.55,0,0,1-3-2.89,12.28,12.28,0,0,1,.8-5.06,12.88,12.88,0,0,1,5.82-6.46L248.54,445c.88-1.81.68-2.78.38-3.31-1.63-3-9,2.08-19-.21,0,0-9.32-2.13-11.83,0,0,0-.11.09-.18.07-.49-.17.18-4.76,1.83-8.31A19,19,0,0,1,225,426.6l21.71,5.6,7,.33q-1-2-2-4.08l-12.3-2.9-.84-.32-9.16-3.5a12.72,12.72,0,0,1,10.11-9.15l.25,0a13.18,13.18,0,0,1,2.36-.16q2.46,1.28,5.08,2.82c2.29,1.35,4.67,2.85,7.1,4.53,3,2.06,5.7,4.14,8.13,6.16l4.09-1-12.9-13.54-3.44-1.08-3.73-1.18a12.92,12.92,0,0,1,6.47-7.5,10.87,10.87,0,0,1,1.43-.52,12.2,12.2,0,0,1,8.4.3c8.95,4.08,7.94,20.28,12.58,20.58.77,0,2.05-.31,3.79-3q-2.13-4.26-4.24-8.53l-.21-11.32c3.74-2.66,6.59-3.82,8.72-4.2a7.27,7.27,0,0,1,4.46.38c1.45.64,2,1.55,5.23,6.65h0c.79,1.24,1.74,2.72,2.9,4.51,3.55,5.45,4.43,6.58,5.32,7.61a37.33,37.33,0,0,0,8.47,7.23l-.24,9.13,1.54,10.11Q312.08,448.86,313.07,457.18Z" transform="translate(-33.87 -33.79)"/></g></svg>