<svg xmlns="http://www.w3.org/2000/svg" xmlns:xlink="http://www.w3.org/1999/xlink" viewBox="0 0 499.49 400.81"><defs><style>.cls-1{fill:url(#radial-gradient);}.cls-2{fill:url(#linear-gradient);}.cls-3{fill:url(#linear-gradient-2);}.cls-4{fill:url(#linear-gradient-3);}.cls-5{fill:url(#linear-gradient-4);}.cls-6{fill:url(#linear-gradient-5);}.cls-7{fill:url(#linear-gradient-6);}.cls-8{fill:url(#linear-gradient-7);}.cls-9{fill:url(#linear-gradient-8);}.cls-10{fill:url(#linear-gradient-9);}.cls-11{fill:url(#linear-gradient-10);}.cls-12{fill:url(#linear-gradient-11);}.cls-13{fill:url(#linear-gradient-12);}.cls-14{fill:url(#linear-gradient-13);}.cls-15{fill:url(#linear-gradient-14);}.cls-16{fill:url(#linear-gradient-15);}.cls-17{fill:url(#linear-gradient-16);}.cls-18{fill:url(#linear-gradient-17);}.cls-19{fill:url(#linear-gradient-18);}.cls-20{fill:url(#linear-gradient-19);}.cls-21{fill:url(#linear-gradient-20);}.cls-22{fill:url(#linear-gradient-21);}.cls-23{fill:url(#linear-gradient-22);}.cls-24{fill:url(#linear-gradient-23);}.cls-25{fill:url(#linear-gradient-24);}.cls-26{fill:url(#linear-gradient-25);}.cls-27{fill:url(#linear-gradient-26);}.cls-28{fill:url(#linear-gradient-27);}.cls-29{fill:url(#linear-gradient-28);}.cls-30{fill:url(#linear-gradient-29);}.cls-31{fill:url(#linear-gradient-30);}.cls-32{fill:url(#linear-gradient-31);}.cls-33{fill:url(#linear-gradient-32);}.cls-34{fill:url(#linear-gradient-33);}.cls-35{fill:url(#linear-gradient-34);}.cls-36{fill:url(#linear-gradient-35);}.cls-37{fill:url(#linear-gradient-36);}.cls-38{fill:url(#linear-gradient-37);}.cls-39{fill:url(#linear-gradient-38);}.cls-40{fill:url(#linear-gradient-39);}.cls-41{fill:url(#linear-gradient-40);}.cls-42{fill:url(#linear-gradient-41);}.cls-43{fill:url(#linear-gradient-42);}.cls-44{fill:url(#linear-gradient-43);}.cls-45{fill:url(#linear-gradient-44);}.cls-46{fill:url(#linear-gradient-45);}.cls-47{fill:url(#linear-gradient-46);}.cls-48{fill:url(#linear-gradient-47);}.cls-49{fill:url(#linear-gradient-48);}.cls-50{fill:url(#linear-gradient-49);}.cls-51{fill:url(#linear-gradient-50);}.cls-52{fill:url(#linear-gradient-51);}.cls-53{fill:url(#linear-gradient-52);}.cls-54{fill:url(#linear-gradient-53);}.cls-55{fill:url(#linear-gradient-54);}.cls-56{fill:url(#linear-gradient-55);}.cls-57{fill:url(#linear-gradient-56);}.cls-58{fill:#fff;}.cls-59{fill:url(#linear-gradient-57);}.cls-60{fill:url(#linear-gradient-58);}.cls-61{fill:url(#linear-gradient-59);}.cls-62{fill:url(#linear-gradient-60);}.cls-63{fill:url(#linear-gradient-61);}.cls-64{fill:url(#linear-gradient-62);}.cls-65{fill:url(#linear-gradient-63);}.cls-66{fill:#e3e8e6;}.cls-67{fill:url(#linear-gradient-64);}.cls-68{opacity:0.21;fill:url(#linear-gradient-65);}.cls-69{fill:#a5afab;}.cls-70{fill:url(#linear-gradient-66);}.cls-71{fill:url(#linear-gradient-67);}.cls-72{fill:url(#linear-gradient-68);}.cls-73{fill:url(#linear-gradient-69);}.cls-74{fill:url(#linear-gradient-70);}.cls-75{fill:url(#linear-gradient-71);}.cls-76{fill:url(#linear-gradient-72);}.cls-77{fill:url(#linear-gradient-73);}.cls-78{fill:url(#linear-gradient-74);}.cls-79{fill:url(#linear-gradient-75);}.cls-80{fill:url(#linear-gradient-76);}.cls-81{fill:url(#linear-gradient-77);}.cls-82{fill:url(#linear-gradient-78);}.cls-83{fill:url(#linear-gradient-79);}.cls-84{fill:url(#linear-gradient-80);}.cls-85{fill:url(#linear-gradient-81);}.cls-86{fill:url(#linear-gradient-82);}.cls-87{fill:url(#linear-gradient-83);}.cls-88{fill:url(#linear-gradient-84);}.cls-89{fill:url(#linear-gradient-85);}.cls-90{fill:url(#linear-gradient-86);}.cls-91{fill:url(#linear-gradient-87);}.cls-92{fill:url(#linear-gradient-88);}.cls-93{fill:url(#linear-gradient-89);}.cls-94{fill:url(#linear-gradient-90);}</style><radialGradient id="radial-gradient" cx="295.06" cy="308.05" r="216.44" gradientUnits="userSpaceOnUse"><stop offset="0.35" stop-color="#fed8ba"/><stop offset="0.62" stop-color="#f1c2ac"/><stop offset="1" stop-color="#ca6875"/></radialGradient><linearGradient id="linear-gradient" x1="388.19" y1="360.17" x2="473.63" y2="508.14" gradientUnits="userSpaceOnUse"><stop offset="0.1" stop-color="#fed8ba"/><stop offset="0.59" stop-color="#ca6875"/></linearGradient><linearGradient id="linear-gradient-2" x1="262.47" y1="449.64" x2="262.47" y2="486.78" gradientUnits="userSpaceOnUse"><stop offset="0" stop-color="#fed8ba"/><stop offset="0.71" stop-color="#ca6875"/></linearGradient><linearGradient id="linear-gradient-3" x1="320.15" y1="149.44" x2="326.86" y2="137.83" xlink:href="#linear-gradient"/><linearGradient id="linear-gradient-4" x1="360.67" y1="178.23" x2="370.19" y2="161.75" xlink:href="#linear-gradient"/><linearGradient id="linear-gradient-5" x1="495.5" y1="273.23" x2="514.54" y2="273.23" gradientUnits="userSpaceOnUse"><stop offset="0" stop-color="#fed8ba"/><stop offset="0.33" stop-color="#ca6875"/></linearGradient><linearGradient id="linear-gradient-6" x1="85.94" y1="248.11" x2="46.9" y2="248.11" xlink:href="#linear-gradient-2"/><linearGradient id="linear-gradient-7" x1="315.33" y1="290.84" x2="400.6" y2="239.19" gradientTransform="matrix(1.44, 0.61, 0.88, -2.07, -584.07, 711.01)" gradientUnits="userSpaceOnUse"><stop offset="0.48" stop-color="#119a89"/><stop offset="0.96" stop-color="#224193"/></linearGradient><linearGradient id="linear-gradient-8" x1="435.58" y1="391.52" x2="528.66" y2="391.52" gradientTransform="matrix(-1.14, -0.23, -0.3, 1.45, 1107.53, -22.85)" gradientUnits="userSpaceOnUse"><stop offset="0" stop-color="#4981ba"/><stop offset="0.46" stop-color="#c498bd"/></linearGradient><linearGradient id="linear-gradient-9" x1="63.98" y1="568.55" x2="98.61" y2="568.55" gradientTransform="matrix(-0.68, 0.65, 0.64, 0.67, 106.85, -209.01)" gradientUnits="userSpaceOnUse"><stop offset="0" stop-color="#da565c"/><stop offset="0.96" stop-color="#a1474c"/></linearGradient><linearGradient id="linear-gradient-10" x1="105.78" y1="415.42" x2="135.1" y2="415.42" gradientTransform="matrix(-0.85, 0.41, 0.4, 0.84, 367.78, -204.03)" xlink:href="#linear-gradient-9"/><linearGradient id="linear-gradient-11" x1="1.9" y1="271.9" x2="30.52" y2="271.9" gradientTransform="matrix(-0.71, 0.34, 0.28, 0.59, 380.46, 9.92)" xlink:href="#linear-gradient-9"/><linearGradient id="linear-gradient-12" x1="139.16" y1="94.73" x2="162.57" y2="94.73" gradientTransform="matrix(-0.78, 0.08, 0.06, 0.65, 572.08, 93.46)" xlink:href="#linear-gradient-9"/><linearGradient id="linear-gradient-13" x1="42.16" y1="136.11" x2="67.46" y2="136.11" gradientTransform="matrix(-0.76, 0.18, 0.15, 0.64, 498.74, 53.41)" xlink:href="#linear-gradient-9"/><linearGradient id="linear-gradient-14" x1="600.88" y1="40.75" x2="624.46" y2="40.75" gradientTransform="matrix(-0.61, -0.49, -0.41, 0.51, 839.13, 487.45)" xlink:href="#linear-gradient-9"/><linearGradient id="linear-gradient-15" x1="17.37" y1="120.45" x2="42.67" y2="120.45" gradientTransform="matrix(-0.76, 0.18, 0.15, 0.64, 498.74, 53.41)" xlink:href="#linear-gradient-9"/><linearGradient id="linear-gradient-16" x1="-9.08" y1="99.38" x2="16.22" y2="99.38" gradientTransform="matrix(-0.76, 0.18, 0.15, 0.64, 498.74, 53.41)" xlink:href="#linear-gradient-9"/><linearGradient id="linear-gradient-17" x1="-212.08" y1="922.04" x2="-185.84" y2="922.04" gradientTransform="matrix(-0.5, 0.6, -0.5, -0.42, 870.55, 652.11)" xlink:href="#linear-gradient-9"/><linearGradient id="linear-gradient-18" x1="-180.68" y1="925.59" x2="-154.43" y2="925.59" gradientTransform="matrix(-0.5, 0.6, -0.5, -0.42, 870.55, 652.11)" xlink:href="#linear-gradient-9"/><linearGradient id="linear-gradient-19" x1="-148.78" y1="930.95" x2="-122.54" y2="930.95" gradientTransform="matrix(-0.5, 0.6, -0.5, -0.42, 870.55, 652.11)" xlink:href="#linear-gradient-9"/><linearGradient id="linear-gradient-20" x1="-109.44" y1="1199.58" x2="-86.58" y2="1199.58" gradientTransform="matrix(-0.6, 0.39, -0.3, -0.46, 756.94, 783.21)" xlink:href="#linear-gradient-9"/><linearGradient id="linear-gradient-21" x1="635.69" y1="283.95" x2="656.42" y2="283.95" gradientTransform="matrix(-0.44, -0.35, -0.58, 0.73, 884.7, 247.22)" xlink:href="#linear-gradient-9"/><linearGradient id="linear-gradient-22" x1="621.45" y1="308.27" x2="642.18" y2="308.27" gradientTransform="matrix(-0.44, -0.35, -0.58, 0.73, 884.7, 247.22)" xlink:href="#linear-gradient-9"/><linearGradient id="linear-gradient-23" x1="645.73" y1="-160.01" x2="667.33" y2="-160.01" gradientTransform="matrix(-0.39, -0.31, -0.42, 0.53, 712.15, 411.78)" xlink:href="#linear-gradient-9"/><linearGradient id="linear-gradient-24" x1="631.51" y1="779.52" x2="487.73" y2="779.52" gradientTransform="matrix(0.95, -0.32, -0.32, -0.95, 177.41, 1113.37)" xlink:href="#linear-gradient-9"/><linearGradient id="linear-gradient-25" x1="81.67" y1="591.18" x2="143.09" y2="591.18" gradientTransform="matrix(0.96, 0.06, -0.06, 1.01, 129.37, -400.59)" xlink:href="#linear-gradient-7"/><linearGradient id="linear-gradient-26" x1="110.98" y1="576.69" x2="172.4" y2="576.69" gradientTransform="matrix(1.21, 0.26, -0.37, 1.74, 267.47, -869.93)" xlink:href="#linear-gradient-7"/><linearGradient id="linear-gradient-27" x1="124.26" y1="569.45" x2="185.68" y2="569.45" gradientTransform="matrix(0.47, 0.86, -1.11, 0.6, 822.76, -304.3)" xlink:href="#linear-gradient-7"/><linearGradient id="linear-gradient-28" x1="429.3" y1="241.93" x2="531.52" y2="197.83" gradientUnits="userSpaceOnUse"><stop offset="0.15" stop-color="#cca5cd"/><stop offset="0.96" stop-color="#224193" stop-opacity="0.8"/></linearGradient><linearGradient id="linear-gradient-29" x1="93.08" y1="727.9" x2="115.67" y2="727.9" gradientTransform="matrix(-0.2, 0.92, -0.91, -0.2, 1188.63, 427.8)" gradientUnits="userSpaceOnUse"><stop offset="0" stop-color="#865ca0"/><stop offset="0.27" stop-color="#8b56a3"/><stop offset="1" stop-color="#1f958c" stop-opacity="0.4"/></linearGradient><linearGradient id="linear-gradient-30" x1="93.57" y1="582.6" x2="112.7" y2="582.6" gradientTransform="matrix(0.1, 0.94, -0.92, 0.1, 1048.54, 207.62)" xlink:href="#linear-gradient-29"/><linearGradient id="linear-gradient-31" x1="-4.99" y1="514.13" x2="13.69" y2="514.13" gradientTransform="matrix(0.08, 0.78, -0.65, 0.07, 859.26, 308.18)" xlink:href="#linear-gradient-29"/><linearGradient id="linear-gradient-32" x1="70" y1="321.73" x2="85.28" y2="321.73" gradientTransform="matrix(0.34, 0.71, -0.59, 0.29, 688.17, 188.07)" xlink:href="#linear-gradient-29"/><linearGradient id="linear-gradient-33" x1="10.06" y1="379.52" x2="26.56" y2="379.52" gradientTransform="matrix(0.24, 0.75, -0.62, 0.2, 760.56, 229.84)" xlink:href="#linear-gradient-29"/><linearGradient id="linear-gradient-34" x1="427.74" y1="120.67" x2="443.12" y2="120.67" gradientTransform="matrix(0.74, 0.27, -0.22, 0.61, 212.77, 165.19)" xlink:href="#linear-gradient-29"/><linearGradient id="linear-gradient-35" x1="-6.12" y1="369.3" x2="10.38" y2="369.3" gradientTransform="matrix(0.24, 0.75, -0.62, 0.2, 760.56, 229.84)" xlink:href="#linear-gradient-29"/><linearGradient id="linear-gradient-36" x1="-23.38" y1="355.56" x2="-6.88" y2="355.56" gradientTransform="matrix(0.24, 0.75, -0.62, 0.2, 760.56, 229.84)" xlink:href="#linear-gradient-29"/><linearGradient id="linear-gradient-37" x1="-106.03" y1="711.05" x2="-88.91" y2="711.05" gradientTransform="matrix(-0.25, 0.74, 0.62, 0.21, 55.82, 224.09)" xlink:href="#linear-gradient-29"/><linearGradient id="linear-gradient-38" x1="-85.54" y1="713.37" x2="-68.42" y2="713.37" gradientTransform="matrix(-0.25, 0.74, 0.62, 0.21, 55.82, 224.09)" xlink:href="#linear-gradient-29"/><linearGradient id="linear-gradient-39" x1="-64.73" y1="716.87" x2="-47.61" y2="716.87" gradientTransform="matrix(-0.25, 0.74, 0.62, 0.21, 55.82, 224.09)" xlink:href="#linear-gradient-29"/><linearGradient id="linear-gradient-40" x1="-89.12" y1="924.33" x2="-74.21" y2="924.33" gradientTransform="matrix(-0.02, 0.72, 0.55, 0.02, 3.03, 389.35)" xlink:href="#linear-gradient-29"/><linearGradient id="linear-gradient-41" x1="394.02" y1="331.07" x2="407.55" y2="331.07" gradientTransform="matrix(0.53, 0.19, -0.32, 0.88, 394.14, 1.22)" xlink:href="#linear-gradient-29"/><linearGradient id="linear-gradient-42" x1="384.73" y1="346.94" x2="398.26" y2="346.94" gradientTransform="matrix(0.53, 0.19, -0.32, 0.88, 394.14, 1.22)" xlink:href="#linear-gradient-29"/><linearGradient id="linear-gradient-43" x1="375.5" y1="-24.05" x2="389.58" y2="-24.05" gradientTransform="matrix(0.47, 0.17, -0.23, 0.64, 343.48, 234.21)" xlink:href="#linear-gradient-29"/><linearGradient id="linear-gradient-44" x1="632.01" y1="632.47" x2="538.2" y2="632.47" gradientTransform="translate(22.87 1056.03) rotate(-103.01)" gradientUnits="userSpaceOnUse"><stop offset="0" stop-color="#865ca0"/><stop offset="0.27" stop-color="#8b56a3"/><stop offset="1" stop-color="#5b2b5e"/></linearGradient><linearGradient id="linear-gradient-45" x1="210.91" y1="571.48" x2="244.97" y2="551.82" gradientTransform="matrix(0.99, 1.58, -1.57, 0.98, 1140.1, -499.43)" xlink:href="#linear-gradient-7"/><linearGradient id="linear-gradient-46" x1="603.85" y1="387.42" x2="704.71" y2="344.02" gradientTransform="matrix(-1.13, 0.06, -0.06, -1.07, 882.68, 667.68)" gradientUnits="userSpaceOnUse"><stop offset="0.15" stop-color="#cca5cd"/><stop offset="0.96" stop-color="#224193"/></linearGradient><linearGradient id="linear-gradient-47" x1="229.23" y1="439.52" x2="260.33" y2="439.52" gradientTransform="matrix(1, 0, 0, 1, 0, 0)" xlink:href="#linear-gradient-7"/><linearGradient id="linear-gradient-48" x1="241.02" y1="462.93" x2="275.74" y2="462.93" gradientTransform="matrix(1, 0, 0, 1, 0, 0)" xlink:href="#linear-gradient-7"/><linearGradient id="linear-gradient-49" x1="214" y1="404.76" x2="284.76" y2="363.9" gradientTransform="matrix(0.17, -1.86, 1.84, 0.17, -580.13, 656.43)" gradientUnits="userSpaceOnUse"><stop offset="0.36" stop-color="#c89789"/><stop offset="1" stop-color="#4981ba"/></linearGradient><linearGradient id="linear-gradient-50" x1="333.03" y1="574.73" x2="373.64" y2="574.73" gradientTransform="matrix(0.97, -0.16, 0.2, 1.24, -267.63, -338.73)" xlink:href="#linear-gradient-9"/><linearGradient id="linear-gradient-51" x1="353.46" y1="556.73" x2="394.07" y2="556.73" gradientTransform="matrix(0.97, -0.16, 0.2, 1.24, -267.63, -338.73)" xlink:href="#linear-gradient-9"/><linearGradient id="linear-gradient-52" x1="367.54" y1="537.92" x2="408.15" y2="537.92" gradientTransform="matrix(0.97, -0.16, 0.2, 1.24, -267.63, -338.73)" xlink:href="#linear-gradient-9"/><linearGradient id="linear-gradient-53" x1="323.21" y1="596.64" x2="363.82" y2="596.64" gradientTransform="matrix(0.97, -0.16, 0.2, 1.24, -267.63, -338.73)" xlink:href="#linear-gradient-9"/><linearGradient id="linear-gradient-54" x1="657.38" y1="641.73" x2="698" y2="641.73" gradientTransform="matrix(-0.71, -0.12, -0.24, 1.5, 1125.75, -535.5)" xlink:href="#linear-gradient-9"/><linearGradient id="linear-gradient-55" x1="203.85" y1="386.95" x2="234.95" y2="386.95" gradientTransform="matrix(1, 0, 0, 1, 0, 0)" xlink:href="#linear-gradient-7"/><linearGradient id="linear-gradient-56" x1="256.3" y1="421.61" x2="286.78" y2="421.61" gradientTransform="matrix(1, 0, 0, 1, 0, 0)" xlink:href="#linear-gradient-7"/><linearGradient id="linear-gradient-57" x1="213.99" y1="389.38" x2="364.15" y2="389.38" gradientTransform="translate(578.14 778.77) rotate(180)" xlink:href="#linear-gradient-7"/><linearGradient id="linear-gradient-58" x1="218.46" y1="220.17" x2="322.76" y2="220.17" gradientTransform="translate(541.23 440.34) rotate(180)" xlink:href="#linear-gradient-7"/><linearGradient id="linear-gradient-59" x1="469.84" y1="198.35" x2="481.76" y2="198.35" gradientTransform="translate(951.6 396.7) rotate(-180)" xlink:href="#linear-gradient-7"/><linearGradient id="linear-gradient-60" x1="455.5" y1="198.35" x2="467.42" y2="198.35" gradientTransform="translate(922.92 396.7) rotate(-180)" xlink:href="#linear-gradient-7"/><linearGradient id="linear-gradient-61" x1="441.16" y1="198.35" x2="453.08" y2="198.35" gradientTransform="translate(894.24 396.7) rotate(-180)" xlink:href="#linear-gradient-7"/><linearGradient id="linear-gradient-62" x1="422.54" y1="389.38" x2="440.52" y2="389.38" gradientTransform="matrix(1, 0, 0, 1, 0, 0)" xlink:href="#linear-gradient-7"/><linearGradient id="linear-gradient-63" x1="450.87" y1="389.38" x2="468.85" y2="389.38" gradientTransform="matrix(1, 0, 0, 1, 0, 0)" xlink:href="#linear-gradient-7"/><linearGradient id="linear-gradient-64" x1="292.42" y1="300.96" x2="328.53" y2="300.96" gradientTransform="matrix(1, 0, 0, 1, 0, 0)" xlink:href="#linear-gradient-7"/><linearGradient id="linear-gradient-65" x1="201.76" y1="301.58" x2="389.51" y2="301.58" gradientTransform="matrix(1, 0, 0, 1, 0, 0)" xlink:href="#linear-gradient-7"/><linearGradient id="linear-gradient-66" x1="425.97" y1="276.58" x2="480.19" y2="276.58" gradientTransform="translate(906.16 553.15) rotate(180)" xlink:href="#linear-gradient-7"/><linearGradient id="linear-gradient-67" x1="426.87" y1="335.72" x2="481.09" y2="335.72" gradientTransform="translate(907.96 671.43) rotate(180)" xlink:href="#linear-gradient-7"/><linearGradient id="linear-gradient-68" x1="171.38" y1="380.17" x2="260.28" y2="380.17" gradientTransform="matrix(1, 0, 0, 1, 0, 0)" xlink:href="#linear-gradient-8"/><linearGradient id="linear-gradient-69" x1="299.68" y1="435.26" x2="406.91" y2="373.35" gradientTransform="matrix(1, 0, 0, 1, 0, 0)" xlink:href="#linear-gradient-46"/><linearGradient id="linear-gradient-70" x1="78.29" y1="235.23" x2="85.05" y2="235.23" gradientTransform="matrix(1, 0, 0, 1, 0, 0)" xlink:href="#linear-gradient-8"/><linearGradient id="linear-gradient-71" x1="57.54" y1="224.63" x2="72.98" y2="224.63" gradientTransform="matrix(1, 0, 0, 1, 0, 0)" xlink:href="#linear-gradient-8"/><linearGradient id="linear-gradient-72" x1="42.05" y1="258.37" x2="57.21" y2="258.37" gradientTransform="matrix(1, 0, 0, 1, 0, 0)" xlink:href="#linear-gradient-8"/><linearGradient id="linear-gradient-73" x1="57.09" y1="297.68" x2="90.79" y2="297.68" gradientTransform="matrix(1, 0, 0, 1, 0, 0)" xlink:href="#linear-gradient-8"/><linearGradient id="linear-gradient-74" x1="460.77" y1="449.81" x2="495.4" y2="449.81" gradientTransform="matrix(-0.15, 0.93, 0.92, 0.15, -220.77, -60.89)" xlink:href="#linear-gradient-9"/><linearGradient id="linear-gradient-75" x1="519.22" y1="429.09" x2="548.53" y2="429.09" gradientTransform="matrix(-0.43, 0.84, 0.82, 0.43, -9.89, -214.63)" xlink:href="#linear-gradient-9"/><linearGradient id="linear-gradient-76" x1="499.17" y1="291.3" x2="527.79" y2="291.3" gradientTransform="matrix(-0.36, 0.7, 0.58, 0.3, 129.53, -51.85)" xlink:href="#linear-gradient-9"/><linearGradient id="linear-gradient-77" x1="600.99" y1="316.61" x2="624.4" y2="316.61" gradientTransform="matrix(-0.58, 0.53, 0.44, 0.48, 332.69, -101.11)" xlink:href="#linear-gradient-9"/><linearGradient id="linear-gradient-78" x1="525.47" y1="277.76" x2="550.77" y2="277.76" gradientTransform="matrix(-0.5, 0.61, 0.51, 0.41, 250.05, -88.7)" xlink:href="#linear-gradient-9"/><linearGradient id="linear-gradient-79" x1="803.96" y1="585.29" x2="827.54" y2="585.29" gradientTransform="matrix(-0.78, -0.02, -0.02, 0.65, 783.56, 51.35)" xlink:href="#linear-gradient-9"/><linearGradient id="linear-gradient-80" x1="500.68" y1="262.1" x2="525.97" y2="262.1" gradientTransform="matrix(-0.5, 0.61, 0.51, 0.41, 250.05, -88.7)" xlink:href="#linear-gradient-9"/><linearGradient id="linear-gradient-81" x1="474.22" y1="241.03" x2="499.52" y2="241.03" gradientTransform="matrix(-0.5, 0.61, 0.51, 0.41, 250.05, -88.7)" xlink:href="#linear-gradient-9"/><linearGradient id="linear-gradient-82" x1="247.03" y1="1151.9" x2="273.27" y2="1151.9" gradientTransform="matrix(-0.04, 0.78, -0.65, -0.03, 908.13, 163.54)" xlink:href="#linear-gradient-9"/><linearGradient id="linear-gradient-83" x1="278.43" y1="1155.46" x2="304.68" y2="1155.46" gradientTransform="matrix(-0.04, 0.78, -0.65, -0.03, 908.13, 163.54)" xlink:href="#linear-gradient-9"/><linearGradient id="linear-gradient-84" x1="310.33" y1="1160.82" x2="336.57" y2="1160.82" gradientTransform="matrix(-0.04, 0.78, -0.65, -0.03, 908.13, 163.54)" xlink:href="#linear-gradient-9"/><linearGradient id="linear-gradient-85" x1="432.85" y1="1269.01" x2="455.71" y2="1269.01" gradientTransform="matrix(-0.24, 0.67, -0.52, -0.19, 896.86, 336.65)" xlink:href="#linear-gradient-9"/><linearGradient id="linear-gradient-86" x1="918.82" y1="663.79" x2="939.56" y2="663.79" gradientTransform="matrix(-0.56, -0.01, -0.02, 0.94, 674.68, -167.57)" xlink:href="#linear-gradient-9"/><linearGradient id="linear-gradient-87" x1="904.58" y1="688.11" x2="925.32" y2="688.11" gradientTransform="matrix(-0.56, -0.01, -0.02, 0.94, 674.68, -167.57)" xlink:href="#linear-gradient-9"/><linearGradient id="linear-gradient-88" x1="963.99" y1="364.11" x2="985.58" y2="364.11" gradientTransform="matrix(-0.5, -0.01, -0.02, 0.68, 636.67, 67.81)" xlink:href="#linear-gradient-9"/><linearGradient id="linear-gradient-89" x1="246.27" y1="718.5" x2="102.49" y2="718.5" gradientTransform="matrix(0.57, -0.82, -0.82, -0.57, 634.73, 949.96)" xlink:href="#linear-gradient-9"/><linearGradient id="linear-gradient-90" x1="161.64" y1="569.58" x2="195.7" y2="549.92" gradientTransform="matrix(1.27, 1.37, -1.36, 1.26, 845.93, -757.79)" xlink:href="#linear-gradient-9"/></defs><title>basiccontent</title><g id="Layer_3" data-name="Layer 3"><path class="cls-1" d="M461.46,276.58c-25,11.55-56.29,47-76.77,72.73-2.77,3.47-5.34,6.77-7.66,9.8h0c-5.57,7.26-9.77,13-12,16.2h0c-1.24,1.71-1.9,2.66-1.9,2.66l-46.39,25.2-29.91,16.25-16.17,8.78s-2.87,2.57-8,6.68l-2.29,1.83c-5.89,4.64-14,10.77-23.83,17.27-7.91,5.26-16.88,10.78-26.54,15.95a236.56,236.56,0,0,1-33.4,14.89,154.63,154.63,0,0,1-28.67,7.23C86.59,501,105.11,402.68,63,360.53c-16.06-16.06-14-33-5.87-50.51,2.15-4.63,4.74-9.31,7.53-14,1-1.79,2.14-3.58,3.24-5.38,2.32-3.77,4.71-7.56,7.07-11.37,1.33-2.16,2.66-4.33,4-6.51,2.7-4.54,5.27-9.11,7.54-13.7,6.27-12.75,10.15-25.72,7.82-38.86-8.94-50.33,59.39-19.92,77.91-76.11S329.88,164.5,329.88,164.5s37,26.18,44.7,42.78,50.44-30,80.92-62.58c10.19-10.89,19.16-12.28,27.58-8.23.49.23,1,.49,1.46.77a28.81,28.81,0,0,1,2.77,1.74,50.91,50.91,0,0,1,7,6.05c.48.49,1,1,1.44,1.52.34.35.66.7,1,1.06,8.87,9.78,17.53,23.44,26.91,35.55,1.11,1.43,2.22,2.83,3.35,4.21,1.74,2.11,3.5,4.15,5.29,6.09C559.12,222.42,502.29,257.72,461.46,276.58Z" transform="translate(-42.05 -102.37)"/><path class="cls-2" d="M489.52,448c-.76,16.92,21.8,22.86,20.43,33.85-1.92,15.4-49.08,26.71-86.37,18.66a115,115,0,0,1-23.46-7.87c-9.41-4.39-20.2-9.41-28.82-17.49a49.72,49.72,0,0,1-8.22-9.91c-1.84-2.94-3.63-6.53-8-9.25a20.07,20.07,0,0,0-8.38-2.7,39.53,39.53,0,0,0-10.11.1c-14.25,1.8-15.71,7.94-27.16,8.66-7.74.49-18.83-1.57-20.44-7-1.5-5.1,5.29-13,16.84-18.84l.65-.32a93.21,93.21,0,0,1,31-23.94c.84-.39,1.65-.76,2.45-1.1,2.14-.91,4.14-1.65,6-2.26,12.56-4,20-2,30-5.18a42.86,42.86,0,0,0,6.3-2.62q.9-.46,1.74-.93a34.51,34.51,0,0,0,13.34-13.07c.33-.54.65-1.1,1-1.66,1.67-2.95,3.21-6.18,5-9.7a115.73,115.73,0,0,1,22-31.17,130.34,130.34,0,0,1,44.5-29.69c11.7-4.65,29-10,41.83-3.14,3.84,2,7,6.24,9.14,13.92,6.13,22.39,16.17,31.64,16.3,43.86.08,6.92-2.83,11.35-7.36,20.19-7.59,14.79-14.21,18.05-29.38,39.15C490,443,489.59,446.33,489.52,448Z" transform="translate(-42.05 -102.37)"/><path class="cls-3" d="M288.76,479.85c-1.28,1.3-3.41,3-8.47,4.56-4.77,1.48-12.56,3.9-21.11,1-5.46-1.82-4.58-3.57-9.44-4.77-8.66-2.15-15.13,2.51-17-.09-.85-1.21-.05-3.14,1.56-7a39.34,39.34,0,0,1,5.09-8.78l1.6-2.1c3.55-4.54,7.4-8.85,13.56-11.33,3.27-1.33,5.59-2.26,8.25-1.47,4,1.18,4.13,4.85,9.72,9.59a24.13,24.13,0,0,0,2.83,2c1.41.87,3.25,1.91,5.76,3.34,8.28,4.71,10.78,5.22,11.29,7.66C293.05,475.5,290.07,478.52,288.76,479.85Z" transform="translate(-42.05 -102.37)"/><path class="cls-4" d="M313.6,139.79s15.64-4.78,15.8.8c.13,4.41,3.63,4.75,4.09,6.57a3,3,0,0,1-.42,1.89c-.7,1.72-2.57,4.61-4.55,4.47-1.71-.12-1.54-2.38-4.15-4-2.4-1.48-3.41-.1-6.62-1.51,0,0-4.05-1.78-5.24-5.56a2.37,2.37,0,0,1,.05-2A1.81,1.81,0,0,1,313.6,139.79Z" transform="translate(-42.05 -102.37)"/><path class="cls-5" d="M372.71,164.27a2,2,0,0,1,0,1.53c-2.59,6.77-2.37,7.69,1.73,11.69s8.2,7.85,4.31,7.85-7.33.46-9.92-3.39-15.33-9.69-15.76-11.38c-1.29-5-7.24-5.56-6.69-7.69a4.18,4.18,0,0,1,1.51-2.07C353.34,156.55,371.36,159.62,372.71,164.27Z" transform="translate(-42.05 -102.37)"/><path class="cls-6" d="M511.26,287.11s-18.94.22-15.3-8.33c2.88-6.74-.4-8.83.39-11.81a7,7,0,0,1,1.7-2.68c1.87-2.29,5.72-5.83,7.6-4.73,1.64.95-.07,4.31,1.45,7.92,1.39,3.33,3.34,1.69,5.6,5.28a15.39,15.39,0,0,1,1.46,10.79,5.66,5.66,0,0,1-1.42,3.05A2,2,0,0,1,511.26,287.11Z" transform="translate(-42.05 -102.37)"/><path class="cls-7" d="M85.05,249.69a9,9,0,0,1-2.89,3,29.63,29.63,0,0,0-3.82,3A19,19,0,0,0,73,264.65c-.82,2.75-1.2,5.1-3.06,6.84-1.24,1.15-2.57,1.57-4.7,2.2l-.76.22a41.16,41.16,0,0,1-7.25,1.43c-4.16.43-8.29.1-9.78-2.06a2.5,2.5,0,0,1-.21-.35,2.86,2.86,0,0,1-.27-1.85c.43-2.46,3.49-5.29,5-9.8h0a15.78,15.78,0,0,0,.68-2.9c1-7-3.88-6.58-4.08-15a29,29,0,0,1,8.19-19.25,16.59,16.59,0,0,1,2.63-2.28,6.3,6.3,0,0,1,2.74-1.07,3.83,3.83,0,0,1,2.93.87s.85.57,2.2,1.57a92.88,92.88,0,0,1,11.07,9.53,41.35,41.35,0,0,1,4.89,6C85.71,242.55,86.89,246.45,85.05,249.69Z" transform="translate(-42.05 -102.37)"/></g><g id="Layer_4" data-name="Layer 4"><path class="cls-8" d="M219.67,443c5-7.77,20-32.59,18.54-58.35a56.18,56.18,0,0,0-1.69-11.08c-7.27-10.23-13.26-10.91-17.41-9.61-6.87,2.16-12.67,11-16.83,8.74-1.47-.79-2.39-2.78-2.52-4.8-.26-4.41,3.43-7,4.77-13.23.13-.62,1.39-6.81-1.15-11.08a8,8,0,0,0-11.8-2.37,11.69,11.69,0,0,0-2.28,2.3c-6,3.28-8.5,2.19-9.62,1.2-2.3-2-1.72-6.28-2.28-15.3a137.35,137.35,0,0,0-1.57-13.9c-2.59-5.09-6.86-7.34-11.15-5.68-3.71,1.45-6.27,5.38-7.11,6.69-6.23,9.78-3.95,21.65-5.91,22.65-1.31.66-3-4.28-4.86-10-2.74-8.48-4.84-15.72-6.33-21.07-2.09-5.69-6.13-8.62-10.46-7.42-3.33.92-5.81,4-7.09,5.56-5.74,7.09-6.77,16.3-7.22,20.28a51.26,51.26,0,0,0,.5,14.38c1.86,12.45,6.08,16.18,3.7,23.69-.35,1.1-1.25,3.95-3,5.09-2.86,1.82-4.59-2.91-7.89-2.12-4.33,1-10,11.25-10.31,19.9-.32,7.76,3.61,13.75,8.39,15.72,7.39,3.05,14.68-4.38,18.57.74,1.15,1.52,2.2,4.4,1.24,6.76-1.55,3.82-7,2.75-10.55,8-1.6,2.34-3,6.18-2.6,9.17.75,5.35,6.91,4.77,20.41,10.71,4.44,1.95,7.07,3.46,6.69,5.18-.58,2.58-7.14,1.81-10.84,7.37s-3,15.41.31,20.69a11.66,11.66,0,0,0,7.26,5.11c34.06,8.89,58.79-9.39,58.79-9.39A104.52,104.52,0,0,0,219.67,443Z" transform="translate(-42.05 -102.37)"/><path class="cls-9" d="M393.82,411.2c-2.34,5.67-9.06,23.66-3.85,40.35a37.2,37.2,0,0,0,3,7.05c6.91,5.85,11.34,5.59,14.12,4.25,4.6-2.22,7.34-8.69,10.72-7.69a4.31,4.31,0,0,1,2.59,2.85c.91,2.85-1.32,5-1.27,9.22,0,.42.1,4.61,2.63,7.11a6.35,6.35,0,0,0,8.89.17,7.13,7.13,0,0,0,1.27-1.77c3.79-2.85,5.78-2.43,6.75-1.91,2,1.06,2.26,3.91,4.14,9.74a87.7,87.7,0,0,0,3.4,8.91c2.69,3,6.14,4,9,2.41,2.44-1.37,3.65-4.25,4-5.2,2.9-7.13-.68-14.64.57-15.52.84-.58,2.87,2.45,5.14,6,3.35,5.23,6.05,9.72,8,13.05,2.43,3.48,5.82,4.93,8.75,3.63,2.25-1,3.54-3.29,4.21-4.47,3-5.31,2.22-11.46,1.9-14.12a32.45,32.45,0,0,0-2.71-9.35c-3.37-7.93-7-9.87-6.53-15.06.07-.77.25-2.74,1.35-3.69,1.77-1.53,3.79,1.36,6,.46,3-1.19,5.34-8.53,4.19-14.23-1-5.11-4.85-8.57-8.62-9.3-5.83-1.13-9.87,4.59-13.51,1.69-1.08-.86-2.31-2.62-2-4.28.49-2.68,4.57-2.62,6.31-6.44a8.73,8.73,0,0,0,.38-6.31c-1.42-3.41-5.76-2.31-16.46-4.62-3.53-.75-5.67-1.44-5.67-2.6,0-1.76,4.85-2,6.61-6.1s-.32-10.44-3.6-13.5a9.55,9.55,0,0,0-6.07-2.49c-26-1.84-40.87,13-40.87,13A65.15,65.15,0,0,0,393.82,411.2Z" transform="translate(-42.05 -102.37)"/><path class="cls-10" d="M416.77,201.63s-12.66,34.51-2.29,44.81c.5.49,1.92,2,3.33.78,3.22-2.7,3.58-16.8,3.63-18.9A65.25,65.25,0,0,0,416.77,201.63Z" transform="translate(-42.05 -102.37)"/><path class="cls-11" d="M436,170.62S417.22,197,425.07,212c.37.72,1.44,2.85,3,2.43,3.58-.93,6.66-14.14,7.12-16.1A69.23,69.23,0,0,0,436,170.62Z" transform="translate(-42.05 -102.37)"/><path class="cls-12" d="M450.05,159.28S434.11,180,440,190.27c.28.49,1.08,2,2.36,1.53,2.92-1,5.81-10.83,6.24-12.29A46.61,46.61,0,0,0,450.05,159.28Z" transform="translate(-42.05 -102.37)"/><path class="cls-13" d="M468.26,153.22s-19.35,10.64-16,23.58c.16.62.59,2.43,1.89,2.74,3,.7,7.75-7,8.47-8.11A38.43,38.43,0,0,0,468.26,153.22Z" transform="translate(-42.05 -102.37)"/><path class="cls-14" d="M484.55,135.18s-18.23,14.94-13.79,27c.21.57.8,2.27,2.11,2.28,3,0,7.07-8.67,7.68-10A42.72,42.72,0,0,0,484.55,135.18Z" transform="translate(-42.05 -102.37)"/><path class="cls-15" d="M459.16,208.37s-18.5-14.08-21.67-1a6.12,6.12,0,0,0,.18,4.09c1.82,3.81,8.58,3.69,9.58,3.68C450.19,215.06,454.92,214.11,459.16,208.37Z" transform="translate(-42.05 -102.37)"/><path class="cls-16" d="M501,120.65s-18.23,14.94-13.79,27c.21.57.8,2.27,2.11,2.28,3,0,7.07-8.66,7.68-10A42.72,42.72,0,0,0,501,120.65Z" transform="translate(-42.05 -102.37)"/><path class="cls-17" d="M517.94,102.37s-18.23,14.95-13.79,27c.21.57.8,2.27,2.11,2.28,3,0,7.07-8.67,7.67-10A42.62,42.62,0,0,0,517.94,102.37Z" transform="translate(-42.05 -102.37)"/><path class="cls-18" d="M520.82,142s-16.39,19.73-21.1,8a5.9,5.9,0,0,1-.33-4.06c1.31-4.32,7.94-6.38,8.93-6.69A12.41,12.41,0,0,1,520.82,142Z" transform="translate(-42.05 -102.37)"/><path class="cls-19" d="M503.22,159.37s-16.38,19.74-21.1,8a6.06,6.06,0,0,1-.33-4.07c1.31-4.32,7.95-6.38,8.94-6.68A12.38,12.38,0,0,1,503.22,159.37Z" transform="translate(-42.05 -102.37)"/><path class="cls-20" d="M484.47,176.28s-16.38,19.74-21.1,8a6.05,6.05,0,0,1-.33-4.07c1.31-4.32,7.95-6.38,8.94-6.68A12.38,12.38,0,0,1,484.47,176.28Z" transform="translate(-42.05 -102.37)"/><path class="cls-21" d="M468.36,194.33S451,205,449.14,193.46a5.12,5.12,0,0,1,.46-3.5c1.89-3.14,7.86-2.49,8.74-2.39C460.94,187.85,465.05,189.05,468.36,194.33Z" transform="translate(-42.05 -102.37)"/><path class="cls-22" d="M447.06,222s-15.37-5.85-21.35,11c-.28.8-1.14,3.13-.7,4.62,1,3.38,7.73-.56,8.74-1.15C436.68,234.8,441.6,231,447.06,222Z" transform="translate(-42.05 -102.37)"/><path class="cls-23" d="M439.11,244.84s-15.36-5.85-21.34,11c-.29.8-1.14,3.13-.71,4.62,1,3.38,7.74-.56,8.74-1.15C428.74,257.62,433.65,253.85,439.11,244.84Z" transform="translate(-42.05 -102.37)"/><path class="cls-24" d="M532.86,118.05s-13-6.61-17.07,5.92a6.33,6.33,0,0,0-.35,3.56c1,2.79,6.36.56,7.16.23C524.94,126.78,528.81,124.45,532.86,118.05Z" transform="translate(-42.05 -102.37)"/><path class="cls-25" d="M410.83,268.33a46.69,46.69,0,0,1,1.67-8.5c2.7-9,6-8.69,8.35-17,1.29-4.63.81-6.66,2.81-12.35.72-2,1-2.38,2.8-6.43,2.41-5.4,4.22-9.92,5.84-13.95,3.39-8.45,3.5-9.49,5.06-11.63,2-2.69,2.37-1.83,5.86-5.34,4.46-4.5,4.25-6.36,7.85-9.37,2.54-2.13,2.86-1.38,6.86-4.08a61.69,61.69,0,0,0,7.22-6A73.13,73.13,0,0,1,477.23,165a52.81,52.81,0,0,1,9.67-11.37c3.82-3.29,4.08-2.32,7.49-5.63,2.78-2.7,3.46-4.17,10.63-12.57,1.39-1.63,2.06-2.39,3-3.31a41.15,41.15,0,0,1,7.16-5.92c-.93,1.15-2.35,2.85-4.13,4.81-4.71,5.16-6.33,5.85-9.64,9.81-3.77,4.51-2.82,5-5.87,8.31-3.95,4.3-5.79,3.8-9.8,7.47a37.16,37.16,0,0,0-7.34,9.7,78.08,78.08,0,0,0-12.15,8.51c-2.84,2.42-3.7,3.49-6.72,5.74-5.31,4-5.89,3.08-8.67,6-3,3.12-3.06,4.92-6.95,9.49a43.48,43.48,0,0,1-5.19,5.19c-.49,1-7.59,16.19-11.05,24.8-.85,2.11-1.63,4.21-2.43,6.69-1.35,4.19-2.09,7.46-2.26,8.19C422,244.73,419.21,252.26,410.83,268.33Z" transform="translate(-42.05 -102.37)"/><path class="cls-26" d="M174.4,169.92a62.4,62.4,0,0,1,30.45,11.86c19.46,14.75,30.82,43.24,21.9,53.51-5,5.77-15.68,5-17.92,4.8-9.6-.71-15.93-6.07-19.06-8.72C169.26,214,174.06,172.61,174.4,169.92Z" transform="translate(-42.05 -102.37)"/><path class="cls-27" d="M199.36,102.42A66.82,66.82,0,0,1,235,128c20.66,28.73,26.91,79.71,12.46,95.88-8.11,9.07-21.57,5.87-24.39,5.2-12.11-2.88-18.67-13.19-21.91-18.29C179.87,177.45,198.13,107,199.36,102.42Z" transform="translate(-42.05 -102.37)"/><path class="cls-28" d="M286.78,124.13a56.43,56.43,0,0,1,4.2,34c-4.93,26.32-28.87,54.42-44.67,53.28-8.87-.64-13.9-10.4-14.95-12.45-4.53-8.78-2.33-17.7-1.25-22.11C237.22,147.94,283.74,125.56,286.78,124.13Z" transform="translate(-42.05 -102.37)"/><path class="cls-29" d="M513.64,213.59a3.29,3.29,0,0,0,.73,2.78c1.46,1.26,3.85-.63,5.87.22,2.65,1.12,3.81,6.61,1.82,10.6-1.79,3.58-6,5.72-9.72,5.9-5.78.28-8.78-4.2-12.72-2.45-1.17.52-2.63,1.67-2.59,2.89.06,2,4,2.3,5.06,5.21a4.93,4.93,0,0,1-.61,4.56c-1.89,2.32-5.89,1.14-16.53,1.81-3.51.23-5.67.52-5.86,1.36-.28,1.26,4.35,1.89,5.41,5s-1.92,7.47-5.55,9.37a12.25,12.25,0,0,1-6.22,1.24c-22.12-.93-34.05-10.26-36.69-12.58-.37-.33-.56-.52-.56-.52a39.71,39.71,0,0,1-4.24-5,41.28,41.28,0,0,1-3.11-5.05,44.73,44.73,0,0,1-2.07-4.59c-.11-.35-.24-.76-.37-1.22s-.19-.67-.3-1c-.28-1.09-.58-2.4-.83-3.87a35.17,35.17,0,0,1,.67-15.89,26.92,26.92,0,0,1,3.39-7.32,28.3,28.3,0,0,1,4-4.79c.83-.39,1.62-.74,2.38-1s1.68-.62,2.45-.85a17.87,17.87,0,0,1,5.07-.82,9.53,9.53,0,0,1,4.33.94c4.08,2,5.7,6.91,9.1,6.5a4.35,4.35,0,0,0,2.94-1.81c1-1.5.18-2.87.05-4.79a6.65,6.65,0,0,1,.15-1.94,7.93,7.93,0,0,1,3.64-4.87,7.8,7.8,0,0,1,2.57-.86,7,7,0,0,1,6,1.55,4.42,4.42,0,0,1,.94,1.39c3.2,2.39,5.18,2.27,6.19,2,2.07-.58,2.78-2.59,5.49-6.61a64.34,64.34,0,0,1,4.65-6.1c3.06-1.92,6.52-2.31,9-.91a7,7,0,0,1,3.07,4.11c1.68,5.39-2.93,10.45-1.86,11.2.71.49,3.13-1.5,5.86-3.83,4-3.45,7.33-6.43,9.72-8.64,2.88-2.28,6.36-3,9-1.81a3.59,3.59,0,0,1,.34.17c1.11,1.43,2.22,2.83,3.35,4.21,1.49,3.85,0,7.77-.71,9.53a22.19,22.19,0,0,1-4,6.47C517.78,208.76,514,209.82,513.64,213.59Z" transform="translate(-42.05 -102.37)"/><path class="cls-30" d="M520.61,370.77s-14.93,18.78-24.18,16.5c-.44-.11-1.75-.4-1.57-1.59.41-2.71,8.14-7.7,9.29-8.44A42.65,42.65,0,0,1,520.61,370.77Z" transform="translate(-42.05 -102.37)"/><path class="cls-31" d="M531.37,349.55s-8.32,19.39-19.36,20.12c-.52,0-2.07.17-2.37-.85-.7-2.31,5.61-8.51,6.55-9.44A45.41,45.41,0,0,1,531.37,349.55Z" transform="translate(-42.05 -102.37)"/><path class="cls-32" d="M532.9,337.85s-6.11,15.9-13.85,16.12c-.37,0-1.45.07-1.65-.79-.46-1.95,4.05-6.91,4.72-7.65A30.44,30.44,0,0,1,532.9,337.85Z" transform="translate(-42.05 -102.37)"/><path class="cls-33" d="M530.09,325.64s.64,14.4-7.7,16.93c-.4.12-1.56.49-2.17-.12-1.39-1.41,1.25-6.69,1.64-7.48A25,25,0,0,1,530.09,325.64Z" transform="translate(-42.05 -102.37)"/><path class="cls-34" d="M534.61,310.44s-2.14,15.23-10.36,16.85c-.39.08-1.53.33-2-.4-1-1.65,2.42-6.88,2.94-7.66A27.82,27.82,0,0,1,534.61,310.44Z" transform="translate(-42.05 -102.37)"/><path class="cls-35" d="M502.46,349.45s14.12,5.52,7.93,11.72a4.09,4.09,0,0,1-2.34,1.29c-2.74.28-5-3.52-5.31-4.09C501.77,356.72,500.7,353.76,502.46,349.45Z" transform="translate(-42.05 -102.37)"/><path class="cls-36" d="M537.1,296.33s-2.13,15.23-10.35,16.85c-.39.07-1.54.32-2-.41-1-1.65,2.43-6.88,2.94-7.65A27.72,27.72,0,0,1,537.1,296.33Z" transform="translate(-42.05 -102.37)"/><path class="cls-37" d="M541.54,280.7s-2.14,15.23-10.36,16.85c-.39.08-1.53.32-2-.4-1-1.66,2.42-6.88,2.94-7.66A27.72,27.72,0,0,1,541.54,280.7Z" transform="translate(-42.05 -102.37)"/><path class="cls-38" d="M518.49,292.55s-5.43,15.83,2.73,14.46a3.88,3.88,0,0,0,2.37-1.19c2-2.2.86-6.6.69-7.25A8.1,8.1,0,0,0,518.49,292.55Z" transform="translate(-42.05 -102.37)"/><path class="cls-39" d="M514.79,308.26s-5.43,15.83,2.73,14.46a3.91,3.91,0,0,0,2.37-1.2c2-2.2.86-6.59.69-7.25A8.07,8.07,0,0,0,514.79,308.26Z" transform="translate(-42.05 -102.37)"/><path class="cls-40" d="M511.73,324.44s-5.43,15.84,2.73,14.47a4,4,0,0,0,2.38-1.2c2-2.2.85-6.59.69-7.25A8.1,8.1,0,0,0,511.73,324.44Z" transform="translate(-42.05 -102.37)"/><path class="cls-41" d="M507.15,339.55s0,13.3,7,10.41a3.31,3.31,0,0,0,1.8-1.44c1.1-2.12-1.28-5.22-1.64-5.68A8.63,8.63,0,0,0,507.15,339.55Z" transform="translate(-42.05 -102.37)"/><path class="cls-42" d="M499,360.83s8.47,6.57,1.11,15.63a5.86,5.86,0,0,1-2.34,2c-2.22.6-2.32-4.5-2.33-5.26C495.37,370.94,495.8,366.93,499,360.83Z" transform="translate(-42.05 -102.37)"/><path class="cls-43" d="M489,373s8.48,6.58,1.11,15.63a5.91,5.91,0,0,1-2.33,2c-2.22.6-2.32-4.5-2.33-5.26C485.36,383.12,485.78,379.1,489,373Z" transform="translate(-42.05 -102.37)"/><path class="cls-44" d="M527.74,277.71s8.08,5,2.49,11.52a4,4,0,0,1-1.86,1.4c-1.89.41-2.47-3.35-2.56-3.91C525.56,285.09,525.55,282.14,527.74,277.71Z" transform="translate(-42.05 -102.37)"/><path class="cls-45" d="M485.47,396.74a30.61,30.61,0,0,0,4.17-3.82c4.08-4.55,2.79-6.31,6.66-10.44,2.14-2.29,3.43-2.71,5.92-5.76.89-1.09,1-1.36,2.63-3.75,2.19-3.17,4.09-5.72,5.79-8,3.56-4.76,4.1-5.17,4.76-6.77.83-2,.21-1.94,1-5.07,1-4,2.09-4.53,2.55-7.56.32-2.14-.21-2.06-.06-5.21a40.53,40.53,0,0,1,.88-6.06,47.9,47.9,0,0,0,.74-9.67,34.35,34.35,0,0,0,3-9.25c.54-3.25-.09-3.06.6-6.09.55-2.46,1.14-3.34,3.39-10.19.43-1.33.63-1.95.83-2.77a26.35,26.35,0,0,0,.87-6c-.32.91-.79,2.28-1.27,3.94-1.28,4.37-1.12,5.5-2.2,8.7-1.23,3.63-1.81,3.26-2.63,6.09-1.06,3.66-.15,4.52-.83,8a24.46,24.46,0,0,1-2.91,7.38,51.09,51.09,0,0,1-.62,9.66c-.38,2.4-.69,3.25-.91,5.69-.41,4.3.29,4.33-.38,6.86-.72,2.73-1.7,3.37-2.92,7.09a28.05,28.05,0,0,0-1.13,4.66C513,359,507,368.13,503.37,373c-.89,1.19-1.79,2.34-2.9,3.62-1.88,2.18-3.45,3.7-3.8,4C494.82,382.49,491.57,386.61,485.47,396.74Z" transform="translate(-42.05 -102.37)"/><path class="cls-46" d="M517.49,413.52a11.19,11.19,0,0,1,4.59,9.44,9.39,9.39,0,0,1-3,2.54,9.83,9.83,0,0,1-6.57.88l-13.84-9.85c-1.4.62-1.76,1.28-1.86,1.73-.51,2.53,6.26,3.24,10.92,9.49,0,0,4.36,5.84,6.88,5.83,0,0,.12,0,.15.05.2.33-2.46,2.67-5.17,3.92a14.42,14.42,0,0,1-6.33,1.26l-9.85-14-3.9-3.64c-.27,1.12-.55,2.24-.83,3.37l5.71,7.76,3.92,7.16a9.75,9.75,0,0,1-6.08,1.65,10,10,0,0,1-5.92-2.5,90.24,90.24,0,0,1-3.45-10.29c-.72-2.68-1.27-5.22-1.68-7.6l-2.86-1.45.81,14.24,3,4.85a9.84,9.84,0,0,1-7.46,1.17c-.17-.05-4.17-1.2-5.82-4.74-3.19-6.79,5.4-15.7,2.85-18.16-.42-.41-1.34-.83-3.69-.12q-.88,3.52-1.75,7l-5.47,6.69c-6.95-.6-8.89-2.91-9.55-4.29s-.27-2.25.79-10.51a51.29,51.29,0,0,0,.67-7.05,28.48,28.48,0,0,0-1.35-8.38l4.65-5.19,4.1-6.64,7.07-10.66a5.72,5.72,0,0,1,4.37-1.8,5.89,5.89,0,0,1,4.4,2.52l-4.32,8.94s-1.32,11.28-.53,11.41c.06,0,.12-.05.15-.08,1.17-1.32,3.93-7.88,5.06-10.08,0,0,5.75-7.31,5.67-7.22h0c1.82-.88,2.66-.46,2.89-.32,1.39.84,1.54,4.07-.22,8q-2,7-4.09,14l8-8.78,1.23-10a13,13,0,0,1,6.43,4.63,12.86,12.86,0,0,1,2.19,5,35.32,35.32,0,0,1-12.22,12.41l3.41,3.94a26.86,26.86,0,0,1,13.27-14l3-.88a16.22,16.22,0,0,1,3.9,5.07,16,16,0,0,1,1.62,6.43l-8.33,1.71-5.87,3.9,14.22-1Z" transform="translate(-42.05 -102.37)"/><path class="cls-47" d="M61.72,334c-1.51-4.73-5.57-19.67,2.83-32.38A30.8,30.8,0,0,1,69,296.34c8.33-3.93,13-3.29,15.71-1.94,4.5,2.22,6.3,7.63,10,7.18a4.83,4.83,0,0,0,3.24-2c1.45-2.17-.56-4.09.22-7.44a8.74,8.74,0,0,1,4-5.37c3-1.65,7.28-1.44,9.46.76a5,5,0,0,1,1,1.53c3.53,2.64,5.71,2.51,6.82,2.2,2.29-.65,3.07-2.87,6.06-7.31a69.78,69.78,0,0,1,5.14-6.72c3.37-2.13,7.2-2.56,9.92-1a7.76,7.76,0,0,1,3.39,4.54c1.85,5.94-3.23,11.53-2.05,12.35.78.55,3.46-1.65,6.47-4.22,4.45-3.81,8.08-7.1,10.72-9.54,3.18-2.51,7-3.32,9.91-2a7.94,7.94,0,0,1,3.69,4c2.26,4.52.4,9.32-.4,11.39a24.81,24.81,0,0,1-4.47,7.14c-4.94,5.95-9.14,7.12-9.51,11.29-.06.61-.2,2.19.81,3.06,1.6,1.38,4.24-.7,6.47.24,2.93,1.24,4.21,7.3,2,11.71-2,3.94-6.61,6.3-10.73,6.5-6.38.31-9.68-4.63-14-2.7-1.29.57-2.9,1.85-2.85,3.19.06,2.17,4.4,2.53,5.58,5.75a5.4,5.4,0,0,1-.67,5c-2.09,2.57-6.5,1.26-18.25,2-3.87.25-6.26.57-6.46,1.5-.31,1.39,4.8,2.09,6,5.5s-2.13,8.24-6.13,10.34a13.45,13.45,0,0,1-6.87,1.37c-27.9-1.18-41.11-14.45-41.11-14.46A46.17,46.17,0,0,1,61.72,334Z" transform="translate(-42.05 -102.37)"/><path class="cls-48" d="M260.33,436.73c-5.89,4.64-14,10.77-23.83,17.27a99.24,99.24,0,0,1-5.21-16.78,114,114,0,0,1-2-11.78c0-.1,0-.18,0-.24h.14a38.62,38.62,0,0,1,7.7.09A37,37,0,0,1,251.36,430,47.75,47.75,0,0,1,260.33,436.73Z" transform="translate(-42.05 -102.37)"/><path class="cls-49" d="M274.93,469.44c-2.32,5.4-9.51,6.42-11,6.63-6.46.92-11.56-2.39-14.08-4a30.55,30.55,0,0,1-8.81-9.32c3.55-4.54,7.4-8.85,13.56-11.33,3.27-1.33,5.59-2.26,8.25-1.47,4,1.18,4.13,4.85,9.72,9.59a24.13,24.13,0,0,0,2.83,2A13.78,13.78,0,0,1,274.93,469.44Z" transform="translate(-42.05 -102.37)"/><path class="cls-50" d="M118.35,218a23.2,23.2,0,0,1,4.33-21.36,19.23,19.23,0,0,1,8.1-.46,20.37,20.37,0,0,1,12,6.84q5.22,16.84,10.43,33.71c3.1.75,4.53.11,5.25-.52,4.05-3.53-6.24-13.23-6.06-29.44,0,0,.17-15.14-4-18.3,0,0-.19-.14-.17-.26.09-.81,7.42-1.32,13.48,0a30,30,0,0,1,12,5.89l-1.36,35.5q.93,5.46,1.85,10.92l5.63-4.5.36-20,2.54-16.77a20.31,20.31,0,0,1,12.12,4.93,20.61,20.61,0,0,1,6.63,11.61,183.75,183.75,0,0,1-7.27,21.33c-2.19,5.33-4.5,10.22-6.8,14.67q1.44,3,2.87,6l16.62-24.53L208,221.46c1.57.17,8.93,1.13,13.79,7.48.22.29,5.37,7.23,3.65,15.16-3.31,15.23-28.72,19.12-27.63,26.4.18,1.2,1.18,3.07,6,4.85l11.78-9.44L233,261.77c10.72,9.75,11,16,10.35,19.12s-2.37,4.05-14.55,16.36c-7.24,7.32-8.71,9.06-10,10.79a59,59,0,0,0-8.33,15.55l-14.23,2.71-15.13,5.79L156,340.78a12,12,0,0,1-9.5-2.54,12.23,12.23,0,0,1-4.09-9.7l18.41-9.31s16.4-17,15.27-18.19c-.09-.1-.27-.06-.35-.05-3.61.69-16.43,8.05-21.07,10.26-.09,0-18.72,4.83-18.47,4.77h0c-4.12-.83-5-2.6-5.18-3.11-1.24-3.13,2.59-8.67,10.44-12.91l24.39-18-24.33,4.35L126.9,301.3a27,27,0,0,1-4.77-15.74,26.37,26.37,0,0,1,2.67-11,73.08,73.08,0,0,1,35.82-5.09c-.22-3.6-.45-7.21-.67-10.82a55.87,55.87,0,0,1-14.3,5.87,56.6,56.6,0,0,1-25.27.55l-6-2.32a33.3,33.3,0,0,1,5.38-25.95l15.91,7.67,14.62,1-24.79-16.24Z" transform="translate(-42.05 -102.37)"/><path class="cls-51" d="M166.54,296.15a37.38,37.38,0,0,1,22.14,4.76c15.36,8.8,27.71,29.86,23.57,39.48-2.33,5.39-9.52,6.42-11,6.63-6.46.92-11.56-2.39-14.08-4C170.64,332.28,166.77,298.36,166.54,296.15Z" transform="translate(-42.05 -102.37)"/><path class="cls-52" d="M182.72,270.55a37.37,37.37,0,0,1,22.13,4.77c15.37,8.79,27.72,29.85,23.57,39.47-2.33,5.4-9.52,6.42-11,6.63-6.47.92-11.56-2.39-14.08-4C186.82,306.68,183,272.76,182.72,270.55Z" transform="translate(-42.05 -102.37)"/><path class="cls-53" d="M192.57,245a37.3,37.3,0,0,1,22.14,4.76c15.36,8.79,27.71,29.85,23.57,39.47-2.33,5.4-9.52,6.42-11,6.64-6.46.92-11.56-2.39-14.08-4C196.67,281.09,192.8,247.17,192.57,245Z" transform="translate(-42.05 -102.37)"/><path class="cls-54" d="M161.44,324.94a37.45,37.45,0,0,1,22.14,4.76c15.36,8.8,27.71,29.86,23.56,39.48-2.32,5.4-9.51,6.42-11,6.63-6.46.92-11.56-2.39-14.08-4C165.54,361.07,161.67,327.15,161.44,324.94Z" transform="translate(-42.05 -102.37)"/><path class="cls-55" d="M507.07,315.68c-3.46-.16-9.79.51-16.89,7.31-12.13,11.61-22.91,37.61-20.53,48.76a8.62,8.62,0,0,0,7.75,7.09c4.76.61,8.81-3.7,10.82-5.84C501.34,359,506.73,318.33,507.07,315.68Z" transform="translate(-42.05 -102.37)"/><path class="cls-56" d="M235,384.16c-5.89,4.64-14,10.77-23.83,17.27a99.24,99.24,0,0,1-5.21-16.78,114,114,0,0,1-2-11.78c0-.1,0-.18,0-.24H204a38.62,38.62,0,0,1,7.7.09A37,37,0,0,1,226,377.4,47.75,47.75,0,0,1,235,384.16Z" transform="translate(-42.05 -102.37)"/><path class="cls-57" d="M286.78,419.44l-16.17,8.78s-2.87,2.57-8,6.68a103,103,0,0,1-4.26-14.4,114,114,0,0,1-2-11.78c0-.1,0-.18,0-.24h.14a38.62,38.62,0,0,1,7.7.09,37,37,0,0,1,14.29,4.69A47,47,0,0,1,286.78,419.44Z" transform="translate(-42.05 -102.37)"/></g><g id="Layer_1" data-name="Layer 1"><path class="cls-58" d="M201.76,207.08v189a18.89,18.89,0,0,0,18.83,18.85H473.25a18.9,18.9,0,0,0,18.84-18.85v-189a18.9,18.9,0,0,0-18.84-18.84H220.59A18.89,18.89,0,0,0,201.76,207.08Z" transform="translate(-42.05 -102.37)"/><rect class="cls-59" x="213.99" y="378.53" width="150.15" height="21.71" rx="8.68" transform="translate(536.09 676.4) rotate(-180)"/><rect class="cls-60" x="218.46" y="215.27" width="104.3" height="9.79" rx="3.91" transform="translate(499.18 337.96) rotate(-180)"/><rect class="cls-61" x="469.84" y="193.45" width="11.92" height="9.79" rx="3.91" transform="translate(909.56 294.33) rotate(180)"/><rect class="cls-62" x="455.5" y="193.45" width="11.92" height="9.79" rx="3.91" transform="translate(880.87 294.33) rotate(180)"/><rect class="cls-63" x="441.16" y="193.45" width="11.92" height="9.79" rx="3.91" transform="translate(852.19 294.33) rotate(180)"/><path class="cls-64" d="M438.5,386.77v-5.19a3.59,3.59,0,1,0-7.18,0v4.24h-3.89a4.9,4.9,0,0,0-4.89,4.89v5.18a4.9,4.9,0,0,0,4.89,4.89h8.2a4.9,4.9,0,0,0,4.89-4.89v-5.18A4.87,4.87,0,0,0,438.5,386.77Z" transform="translate(-42.05 -102.37)"/><path class="cls-65" d="M466.83,392v5.19a3.59,3.59,0,1,1-7.18,0V393h-3.89a4.9,4.9,0,0,1-4.89-4.89v-5.18a4.9,4.9,0,0,1,4.89-4.89H464a4.9,4.9,0,0,1,4.89,4.89v5.18A4.87,4.87,0,0,1,466.83,392Z" transform="translate(-42.05 -102.37)"/><path class="cls-66" d="M215.83,240.89V361c0,6.59,5.75,12,12.78,12h171.5c7,0,12.78-5.39,12.78-12V240.89c0-6.59-5.75-12-12.78-12H228.61C221.58,228.91,215.83,234.3,215.83,240.89Z" transform="translate(-42.05 -102.37)"/><path class="cls-67" d="M325.46,295.65l-23.84-13.77a6.13,6.13,0,0,0-9.2,5.31v27.54a6.13,6.13,0,0,0,9.2,5.3l23.84-13.77A6.12,6.12,0,0,0,325.46,295.65Z" transform="translate(-42.05 -102.37)"/><path class="cls-68" d="M201.76,207.08v189a18.89,18.89,0,0,0,18.83,18.85H389.51L296.16,232.09l-11.1-21.72-11.3-22.13H220.59A18.89,18.89,0,0,0,201.76,207.08Z" transform="translate(-42.05 -102.37)"/><path class="cls-69" d="M427.73,232.11v32a3.32,3.32,0,0,0,3.41,3.19h45.69a3.31,3.31,0,0,0,3.4-3.19v-32a3.31,3.31,0,0,0-3.4-3.2H431.14A3.32,3.32,0,0,0,427.73,232.11Z" transform="translate(-42.05 -102.37)"/><path class="cls-69" d="M427.73,290.14v32a3.32,3.32,0,0,0,3.41,3.19h45.69a3.31,3.31,0,0,0,3.4-3.19v-32a3.31,3.31,0,0,0-3.4-3.19H431.14A3.32,3.32,0,0,0,427.73,290.14Z" transform="translate(-42.05 -102.37)"/><rect class="cls-70" x="425.97" y="271.68" width="54.22" height="9.79" rx="3.91" transform="translate(864.11 450.78) rotate(-180)"/><rect class="cls-71" x="426.87" y="330.82" width="54.22" height="9.79" rx="3.91" transform="translate(865.91 569.06) rotate(-180)"/></g><g id="Layer_5" data-name="Layer 5"><path class="cls-72" d="M237.07,425.28l-2,4.23c-1.37,2.87-2.62,5.42-3.75,7.71-6.5,13.1-9.27,17.33-10.9,19.71A108.28,108.28,0,0,1,210,470a236.56,236.56,0,0,1-33.4,14.89,15.18,15.18,0,0,1-2.05-2.65,18.5,18.5,0,0,1-2-4.69A42.07,42.07,0,0,1,171.42,465c.52-17.89,5.41-31.3,8.92-41.26,10.18-28.88,5.57-19.74,13.74-41.57.76-2,1.57-4.16,2.41-6.36,1-2.66,2.11-5.43,3.26-8.31q2.55-6.37,5.5-13.38c1.42-3.36,2.91-6.83,4.47-10.38,1.08-2.44,2.19-4.91,3.34-7.43q3-6.57,6.31-13.51-5.43,24-10.84,48.11l-1.2,5.3Q195.4,422.06,183.5,468c15.75-43.26,28.42-77.57,38.54-104.49,25.67-68.26,35-89.06,36.47-87.92,2,1.49-7.89,41.8-25.67,93.5-7.36,21.4-16.07,44.75-25.86,68.12-5.36,12.8-10.29,23.79-14.4,32.66l-1.1,2.36,1.65-2.67c19.73-31.95,34-54.46,44.21-69.91,15.83-24,21.75-30.93,22.77-29.71C262.17,372.36,245,408.63,237.07,425.28Z" transform="translate(-42.05 -102.37)"/><path class="cls-73" d="M424.28,440c-1.23,2.87-3.13,3.5-17.51,13.14-6.8,4.55-9.32,6.38-10.88,7.66-.41.34-.75.63-1.08.93a59,59,0,0,0-11.25,13.57l-12.26-.14a49.72,49.72,0,0,1-8.22-9.91c-1.84-2.94-3.63-6.53-8-9.25a20.07,20.07,0,0,0-8.38-2.7c4.25-3.19,8-6.29,7.63-6.93-.07-.12-.25-.12-.33-.12-3.67,0-17.7,4.61-22.69,5.86-.09,0-19.05,1-19.05,1a9.13,9.13,0,0,1-3.64-2.45,3.47,3.47,0,0,1-.81-1.62c-.6-3.32,4.26-8,12.79-10.58l27.49-12.75-24.72-.58L306.1,436.83c-.08-.18-.16-.39-.25-.63a27.08,27.08,0,0,1-1.29-15.74,26.59,26.59,0,0,1,4.8-10.24,73.2,73.2,0,0,1,30.63.62c2,.47,3.86,1,5.49,1.52.18-1.26.35-2.52.53-3.78.32-2.32.65-4.64,1-7a55.54,55.54,0,0,1-30.29,1.57,58.08,58.08,0,0,1-9.77-3.15l-5.46-3.48A33.33,33.33,0,0,1,311.9,372.2L326,382.88l14.14,3.86L319,365.89l-4.74-12.36a23.21,23.21,0,0,1,8.49-20.07,19.33,19.33,0,0,1,8,1.17,20.37,20.37,0,0,1,10.35,9.07q1.76,17.57,3.52,35.12c2.88,1.35,4.41,1,5.25.53,4.66-2.65-3.49-14.21-.08-30.06,0,0,3.18-14.8-.3-18.73,0,0-.16-.17-.12-.28.25-.78,7.54.18,13.2,2.72a30,30,0,0,1,10.63,8.16q-4.15,17.08-8.3,34.16v0c0,.11-.05.23-.08.34-.12,3.69-.25,7.38-.37,11.08l6.42-3.3q2.16-9.76,4.33-19.55l1.75-4.79h0L381.1,348a19.77,19.77,0,0,1,3.59,1.33,20.17,20.17,0,0,1,7.31,5.93,20.59,20.59,0,0,1,4.18,12.69,182.23,182.23,0,0,1-11.37,19.45c-3.2,4.79-6.44,9.13-9.58,13l.75,3,.87,3.47,7.17-7,13.34-13.07.66-.65.3-1,3.12-10.39a19.65,19.65,0,0,1,1.86.69,19.87,19.87,0,0,1,10.17,9.38,16.28,16.28,0,0,1,.81,2.1c.92,2.88,2,8.28-.25,13.48-3.57,8.13-13.44,11.22-21.35,13.74-6,1.9-10.82,3.46-11,6.63-.06,1.22.55,3.24,4.88,5.94l2.89-1.49c3.52-1.8,7-3.61,10.53-5.42l17.94-.57C426.5,430.9,425.54,437.08,424.28,440Z" transform="translate(-42.05 -102.37)"/><path class="cls-74" d="M78.34,255.71c0-.57,0-1.15,0-1.72q0-10.65,0-21.28c0-6,0-12,0-18,2,8.56,3.57,16.59,4.89,24,.7,3.85,1.31,7.52,1.86,11a9,9,0,0,1-2.89,3A29.63,29.63,0,0,0,78.34,255.71Z" transform="translate(-42.05 -102.37)"/><path class="cls-75" d="M59.36,221.81c-2.19-27-2.26-45.64-1-46.22,1.06-.48,3.59,11.3,8.85,47.59,1.64,11.31,3.54,25,5.75,41.47-.82,2.75-1.2,5.1-3.06,6.84-1.24,1.15-2.57,1.57-4.7,2.2C62.5,254.91,60.59,237,59.36,221.81Z" transform="translate(-42.05 -102.37)"/><path class="cls-76" d="M57.21,275.34c-4.16.43-8.29.1-9.78-2.06-.16-.72-.32-1.46-.48-2.2-2.88-13.25-5.92-28.76-4.57-29.79.83-.64,3.47,4.2,9.56,20h0C53.47,265.24,55.22,269.9,57.21,275.34Z" transform="translate(-42.05 -102.37)"/><path class="cls-77" d="M89.38,321.72c-.95,4.87-2.21,8.82-4.88,11.57a9.57,9.57,0,0,1-8.6,2.91,66.84,66.84,0,0,1-16.26-20.73c-.89-1.71-1.74-3.52-2.55-5.45,2.15-4.63,4.74-9.31,7.53-14,.43,1.21.86,2.45,1.31,3.72,2.5,7.14,5.26,15.09,8.29,23.91-1.56-7.15-3.43-16.25-5.31-26.92a2.34,2.34,0,0,1,0-.26c-.35-1.95-.68-3.89-1-5.83,2.32-3.77,4.71-7.56,7.07-11.37q.9,6.93,1.89,14.42,1.71,13.21,3.64,28.26-.45-14.28-.91-28.55l-.66-20.64c2.7-4.54,5.27-9.11,7.54-13.7.06.41.11.82.17,1.22,2.27,16.54.5,9.43,3.05,31.22.28,2.42.61,5.11.84,8.06A80.42,80.42,0,0,1,89.38,321.72Z" transform="translate(-42.05 -102.37)"/><path class="cls-78" d="M106.72,431.13s10.77,35.15,25.26,37.08c.69.09,2.72.42,3.13-1.39.92-4.09-7.31-15.54-8.54-17.24A65.22,65.22,0,0,0,106.72,431.13Z" transform="translate(-42.05 -102.37)"/><path class="cls-79" d="M103.26,394.83s1,32.32,16.34,39.55c.73.34,2.86,1.4,3.87.12,2.28-2.91-3.24-15.3-4.07-17.14A69.18,69.18,0,0,0,103.26,394.83Z" transform="translate(-42.05 -102.37)"/><path class="cls-80" d="M107.63,377.28s-.19,26.1,10.73,30.76c.52.23,2,.91,2.8-.2,1.74-2.54-1.92-12.14-2.46-13.57A46.57,46.57,0,0,0,107.63,377.28Z" transform="translate(-42.05 -102.37)"/><path class="cls-81" d="M118.48,361.44s-9,20.18,1.5,28.46c.5.4,1.94,1.58,3.16,1,2.78-1.22,2-10.24,1.85-11.58A38.48,38.48,0,0,0,118.48,361.44Z" transform="translate(-42.05 -102.37)"/><path class="cls-82" d="M120.55,337.22s-5.49,22.93,5.33,29.84c.51.33,2,1.32,3.06.54,2.39-1.78.39-11.17.1-12.57A42.65,42.65,0,0,0,120.55,337.22Z" transform="translate(-42.05 -102.37)"/><path class="cls-83" d="M144.56,410.88s-23.24,0-17.88,12.28a6.14,6.14,0,0,0,2.62,3.15c3.75,1.94,9.06-2.24,9.85-2.86C141.46,421.63,144.66,418,144.56,410.88Z" transform="translate(-42.05 -102.37)"/><path class="cls-84" d="M124.9,315.69s-5.49,22.92,5.33,29.84c.51.33,2,1.32,3.06.54,2.39-1.79.39-11.18.09-12.57A42.6,42.6,0,0,0,124.9,315.69Z" transform="translate(-42.05 -102.37)"/><path class="cls-85" d="M127.32,290.91s-5.49,22.92,5.33,29.84c.52.33,2,1.32,3.06.54,2.39-1.79.39-11.18.1-12.57A42.65,42.65,0,0,0,127.32,290.91Z" transform="translate(-42.05 -102.37)"/><path class="cls-86" d="M153.57,320.73s-1.13,25.63-12,19.1a5.93,5.93,0,0,1-2.72-3c-1.57-4.23,2.48-9.88,3.08-10.72A12.4,12.4,0,0,1,153.57,320.73Z" transform="translate(-42.05 -102.37)"/><path class="cls-87" d="M150.05,345.21s-1.13,25.63-12,19.1a6,6,0,0,1-2.72-3c-1.57-4.24,2.48-9.88,3.08-10.72A12.4,12.4,0,0,1,150.05,345.21Z" transform="translate(-42.05 -102.37)"/><path class="cls-88" d="M145.33,370s-1.12,25.63-12,19.1a5.93,5.93,0,0,1-2.72-3c-1.57-4.23,2.47-9.88,3.08-10.72A12.39,12.39,0,0,1,145.33,370Z" transform="translate(-42.05 -102.37)"/><path class="cls-89" d="M143.41,394.13s-7.44,19-15.84,10.93a5.13,5.13,0,0,1-1.75-3.07c-.39-3.64,4.75-6.73,5.52-7.19C133.58,393.46,137.58,391.93,143.41,394.13Z" transform="translate(-42.05 -102.37)"/><path class="cls-90" d="M143.17,429.07s-15.77,4.63-10.34,21.68c.26.81,1,3.18,2.23,4.11,2.83,2.1,5.82-5.12,6.27-6.2C142.63,445.52,144.27,439.55,143.17,429.07Z" transform="translate(-42.05 -102.37)"/><path class="cls-91" d="M150.63,452.05s-15.77,4.63-10.34,21.68c.26.81,1,3.18,2.23,4.11,2.83,2.1,5.83-5.12,6.27-6.2C150.1,468.5,151.73,462.53,150.63,452.05Z" transform="translate(-42.05 -102.37)"/><path class="cls-92" d="M148.69,294.38s-14.33,2.58-10,15a6.22,6.22,0,0,0,1.86,3c2.48,1.63,5.41-3.4,5.85-4.15C147.65,306.13,149.32,301.93,148.69,294.38Z" transform="translate(-42.05 -102.37)"/><path class="cls-93" d="M142.3,487.86a46.45,46.45,0,0,1-3.8-7.79c-3.27-8.77-.46-10.55-3.65-18.61-1.78-4.47-3.38-5.8-5.23-11.55-.65-2-.65-2.49-1.65-6.81-1.35-5.76-2.63-10.45-3.78-14.64-2.41-8.78-3-9.67-3-12.33-.06-3.33.78-2.88,1.43-7.79.84-6.28-.45-7.63.6-12.2.74-3.24,1.45-2.84,3-7.41a61.2,61.2,0,0,0,2.13-9.14,73.54,73.54,0,0,1,4.37-14.21,53,53,0,0,1,.84-14.9c1.05-4.94,1.85-4.31,2.56-9,.59-3.84.24-5.42.87-16.45.13-2.13.2-3.14.36-4.41a41.61,41.61,0,0,1,2.12-9.05c0,1.47-.14,3.69-.38,6.33-.64,6.95-1.5,8.48-1.74,13.64-.28,5.87.75,5.67.34,10.16-.54,5.82-2.32,6.53-3.29,11.88a37.23,37.23,0,0,0,0,12.17,77.64,77.64,0,0,0-4.53,14.12c-.8,3.64-.84,5-1.88,8.64-1.84,6.36-2.84,6-3.31,10-.5,4.29.54,5.75.2,11.75a43.89,43.89,0,0,1-1,7.27c.24,1.13,3.74,17.48,6.19,26.44.6,2.2,1.24,4.34,2.1,6.8,1.46,4.15,2.85,7.21,3.15,7.89C137,462.29,139.27,470,142.3,487.86Z" transform="translate(-42.05 -102.37)"/><path class="cls-94" d="M344.94,185.73a11.15,11.15,0,0,1,6.26,8.41,9.23,9.23,0,0,1-2.44,3.06,9.81,9.81,0,0,1-6.29,2.08L327,192.2c-1.27.86-1.5,1.58-1.5,2.05,0,2.58,6.75,2,12.5,7.28,0,0,5.37,4.92,7.85,4.44a.13.13,0,0,1,.14,0c.27.29-1.91,3.08-4.34,4.82a14.56,14.56,0,0,1-6,2.42l-12.29-11.89-4.51-2.85c-.06,1.16-.13,2.31-.19,3.47l7.06,6.56,5.2,6.3a9.75,9.75,0,0,1-12,1.4,89.62,89.62,0,0,1-5.3-9.45c-1.21-2.5-2.23-4.9-3.08-7.16l-3.08-.89L311,212.56l3.9,4.19a9.79,9.79,0,0,1-7.11,2.54c-.17,0-4.32-.4-6.6-3.56-4.4-6.07,2.37-16.43-.59-18.38-.49-.32-1.48-.56-3.66.58q-.19,3.63-.4,7.25l-4.12,7.59c-6.94.71-9.27-1.19-10.18-2.43s-.69-2.15-1.19-10.47a50.05,50.05,0,0,0-.66-7.05,28.39,28.39,0,0,0-2.89-8l3.6-6,2.78-7.28,5-11.8a5.81,5.81,0,0,1,4-2.58,5.92,5.92,0,0,1,4.8,1.64l-2.58,9.6s.81,11.32,1.61,11.31c.07,0,.11-.08.13-.11.91-1.51,2.4-8.47,3.09-10.85l4.23-8.15h0c1.62-1.21,2.53-1,2.77-.86,1.53.57,2.28,3.72,1.28,7.89q-.7,7.26-1.4,14.52L313,172.08l-.65-10a13,13,0,0,1,7.17,3.35,12.73,12.73,0,0,1,3.08,4.48,35.2,35.2,0,0,1-9.68,14.48l4.09,3.23a26.82,26.82,0,0,1,10.41-16.24l2.78-1.42a16,16,0,0,1,7.57,10.26l-7.86,3.24-5,4.93,13.78-3.67Z" transform="translate(-42.05 -102.37)"/></g></svg>