<svg id="Layer_1" data-name="Layer 1" xmlns="http://www.w3.org/2000/svg" xmlns:xlink="http://www.w3.org/1999/xlink" viewBox="0 0 499.51 400.84"><defs><style>
            #Content {
                animation: pulse 3s ease-in-out alternate infinite;
                transform-origin: center;
            }
            @keyframes pulse {
                from {
                    transform: scale(1);
                }
                to {
                    transform: scale(1.1);
                }
            }
        </style><style>.cls-1{fill:url(#radial-gradient);}.cls-2{fill:url(#linear-gradient);}.cls-3{fill:url(#linear-gradient-2);}.cls-4{fill:url(#linear-gradient-3);}.cls-5{fill:url(#linear-gradient-4);}.cls-6{fill:url(#linear-gradient-5);}.cls-7{fill:url(#linear-gradient-6);}.cls-8{fill:url(#linear-gradient-7);}.cls-9{fill:url(#linear-gradient-8);}.cls-10{fill:url(#linear-gradient-9);}.cls-11{fill:url(#linear-gradient-10);}.cls-12{fill:url(#linear-gradient-11);}.cls-13{fill:url(#linear-gradient-12);}.cls-14{fill:url(#linear-gradient-13);}.cls-15{fill:url(#linear-gradient-14);}.cls-16{fill:url(#linear-gradient-15);}.cls-17{fill:url(#linear-gradient-16);}.cls-18{fill:url(#linear-gradient-17);}.cls-19{fill:url(#linear-gradient-18);}.cls-20{fill:url(#linear-gradient-19);}.cls-21{fill:url(#linear-gradient-20);}.cls-22{fill:url(#linear-gradient-21);}.cls-23{fill:url(#linear-gradient-22);}.cls-24{fill:url(#linear-gradient-23);}.cls-25{fill:url(#linear-gradient-24);}.cls-26{fill:url(#linear-gradient-25);}.cls-27{fill:url(#linear-gradient-26);}.cls-28{fill:url(#linear-gradient-27);}.cls-29{fill:url(#linear-gradient-28);}.cls-30{fill:url(#linear-gradient-29);}.cls-31{fill:url(#linear-gradient-30);}.cls-32{fill:url(#linear-gradient-31);}.cls-33{fill:url(#linear-gradient-32);}.cls-34{fill:url(#linear-gradient-33);}.cls-35{fill:url(#linear-gradient-34);}.cls-36{fill:url(#linear-gradient-35);}.cls-37{fill:url(#linear-gradient-36);}.cls-38{fill:url(#linear-gradient-37);}.cls-39{fill:url(#linear-gradient-38);}.cls-40{fill:url(#linear-gradient-39);}.cls-41{fill:url(#linear-gradient-40);}.cls-42{fill:url(#linear-gradient-41);}.cls-43{fill:url(#linear-gradient-42);}.cls-44{fill:url(#linear-gradient-43);}.cls-45{fill:url(#linear-gradient-44);}.cls-46{fill:url(#linear-gradient-45);}.cls-47{fill:url(#linear-gradient-46);}.cls-48{fill:url(#linear-gradient-47);}.cls-49{fill:url(#linear-gradient-48);}.cls-50{fill:url(#linear-gradient-49);}.cls-51{fill:url(#linear-gradient-50);}.cls-52{fill:url(#linear-gradient-51);}.cls-53{fill:url(#linear-gradient-52);}.cls-54{fill:url(#linear-gradient-53);}.cls-55{fill:url(#linear-gradient-54);}.cls-56{fill:url(#linear-gradient-55);}.cls-57{fill:url(#linear-gradient-56);}.cls-58{fill:#fff;}.cls-59{fill:url(#linear-gradient-57);}.cls-60{fill:url(#linear-gradient-58);}.cls-61{fill:url(#linear-gradient-59);}.cls-62{fill:url(#linear-gradient-60);}.cls-63{fill:url(#linear-gradient-61);}.cls-64{fill:url(#linear-gradient-62);}.cls-65{fill:url(#linear-gradient-63);}.cls-66{fill:#e3e8e6;}.cls-67{fill:url(#linear-gradient-64);}.cls-68{opacity:0.21;isolation:isolate;fill:url(#linear-gradient-65);}.cls-69{fill:#a5afab;}.cls-70{fill:url(#linear-gradient-66);}.cls-71{fill:url(#linear-gradient-67);}.cls-72{fill:url(#linear-gradient-68);}.cls-73{fill:url(#linear-gradient-69);}.cls-74{fill:url(#linear-gradient-70);}.cls-75{fill:url(#linear-gradient-71);}.cls-76{fill:url(#linear-gradient-72);}.cls-77{fill:url(#linear-gradient-73);}.cls-78{fill:url(#linear-gradient-74);}.cls-79{fill:url(#linear-gradient-75);}.cls-80{fill:url(#linear-gradient-76);}.cls-81{fill:url(#linear-gradient-77);}.cls-82{fill:url(#linear-gradient-78);}.cls-83{fill:url(#linear-gradient-79);}.cls-84{fill:url(#linear-gradient-80);}.cls-85{fill:url(#linear-gradient-81);}.cls-86{fill:url(#linear-gradient-82);}.cls-87{fill:url(#linear-gradient-83);}.cls-88{fill:url(#linear-gradient-84);}.cls-89{fill:url(#linear-gradient-85);}.cls-90{fill:url(#linear-gradient-86);}.cls-91{fill:url(#linear-gradient-87);}.cls-92{fill:url(#linear-gradient-88);}.cls-93{fill:url(#linear-gradient-89);}.cls-94{fill:url(#linear-gradient-90);}</style><radialGradient id="radial-gradient" cx="295.05" cy="267.92" r="216.45" gradientTransform="matrix(1, 0, 0, -1, 0, 576)" gradientUnits="userSpaceOnUse"><stop offset="0.35" stop-color="#fed8ba"/><stop offset="0.62" stop-color="#f1c2ac"/><stop offset="1" stop-color="#ca6875"/></radialGradient><linearGradient id="linear-gradient" x1="387.98" y1="215.78" x2="473.45" y2="67.74" gradientTransform="matrix(1, 0, 0, -1, 0, 576)" gradientUnits="userSpaceOnUse"><stop offset="0.1" stop-color="#fed8ba"/><stop offset="0.59" stop-color="#ca6875"/></linearGradient><linearGradient id="linear-gradient-2" x1="262.54" y1="126.36" x2="262.54" y2="89.22" gradientTransform="matrix(1, 0, 0, -1, 0, 576)" gradientUnits="userSpaceOnUse"><stop offset="0" stop-color="#fed8ba"/><stop offset="0.71" stop-color="#ca6875"/></linearGradient><linearGradient id="linear-gradient-3" x1="320.2" y1="426.53" x2="326.9" y2="438.14" xlink:href="#linear-gradient"/><linearGradient id="linear-gradient-4" x1="360.56" y1="397.82" x2="370.08" y2="414.31" xlink:href="#linear-gradient"/><linearGradient id="linear-gradient-5" x1="495.5" y1="302.75" x2="514.54" y2="302.75" gradientTransform="matrix(1, 0, 0, -1, 0, 576)" gradientUnits="userSpaceOnUse"><stop offset="0" stop-color="#fed8ba"/><stop offset="0.33" stop-color="#ca6875"/></linearGradient><linearGradient id="linear-gradient-6" x1="85.93" y1="328.09" x2="46.88" y2="328.09" xlink:href="#linear-gradient-2"/><linearGradient id="linear-gradient-7" x1="338.64" y1="435.82" x2="423.95" y2="487.5" gradientTransform="matrix(1.44, 0.61, -0.88, 2.07, 20.98, -804.01)" gradientUnits="userSpaceOnUse"><stop offset="0.48" stop-color="#119a89"/><stop offset="0.96" stop-color="#224193"/></linearGradient><linearGradient id="linear-gradient-8" x1="400.39" y1="222.37" x2="493.47" y2="222.37" gradientTransform="matrix(-1.14, -0.23, 0.3, -1.45, 885.28, 861.8)" gradientUnits="userSpaceOnUse"><stop offset="0" stop-color="#4981ba"/><stop offset="0.46" stop-color="#c498bd"/></linearGradient><linearGradient id="linear-gradient-9" x1="127.3" y1="24.75" x2="161.94" y2="24.75" gradientTransform="matrix(-0.68, 0.65, -0.64, -0.67, 530.99, 147.28)" gradientUnits="userSpaceOnUse"><stop offset="0" stop-color="#da565c"/><stop offset="0.96" stop-color="#a1474c"/></linearGradient><linearGradient id="linear-gradient-10" x1="137.48" y1="159.39" x2="166.82" y2="159.39" gradientTransform="matrix(-0.85, 0.41, -0.4, -0.84, 624.45, 264.67)" xlink:href="#linear-gradient-9"/><linearGradient id="linear-gradient-11" x1="41.84" y1="257.12" x2="70.46" y2="257.12" gradientTransform="matrix(-0.71, 0.34, -0.28, -0.59, 557.64, 308.65)" xlink:href="#linear-gradient-9"/><linearGradient id="linear-gradient-12" x1="131.99" y1="423.6" x2="155.41" y2="423.6" gradientTransform="matrix(-0.78, 0.08, -0.06, -0.65, 599.13, 431.36)" xlink:href="#linear-gradient-9"/><linearGradient id="linear-gradient-13" x1="54.45" y1="384.1" x2="79.76" y2="384.1" gradientTransform="matrix(-0.76, 0.18, -0.15, -0.64, 588.22, 381.75)" xlink:href="#linear-gradient-9"/><linearGradient id="linear-gradient-14" x1="497.04" y1="522.65" x2="520.63" y2="522.65" gradientTransform="matrix(-0.61, -0.49, 0.41, -0.51, 545.88, 724.85)" xlink:href="#linear-gradient-9"/><linearGradient id="linear-gradient-15" x1="29.67" y1="399.86" x2="54.98" y2="399.86" gradientTransform="matrix(-0.76, 0.18, -0.15, -0.64, 588.22, 381.75)" xlink:href="#linear-gradient-9"/><linearGradient id="linear-gradient-16" x1="3.21" y1="420.82" x2="28.51" y2="420.82" gradientTransform="matrix(-0.76, 0.18, -0.15, -0.64, 588.22, 381.75)" xlink:href="#linear-gradient-9"/><linearGradient id="linear-gradient-17" x1="-122.88" y1="-121.39" x2="-96.62" y2="-121.39" gradientTransform="matrix(-0.5, 0.6, 0.5, 0.42, 514.27, 262.17)" xlink:href="#linear-gradient-9"/><linearGradient id="linear-gradient-18" x1="-91.48" y1="-124.92" x2="-65.22" y2="-124.92" gradientTransform="matrix(-0.5, 0.6, 0.5, 0.42, 514.27, 262.17)" xlink:href="#linear-gradient-9"/><linearGradient id="linear-gradient-19" x1="-59.59" y1="-130.23" x2="-33.33" y2="-130.23" gradientTransform="matrix(-0.5, 0.6, 0.5, 0.42, 514.27, 262.17)" xlink:href="#linear-gradient-9"/><linearGradient id="linear-gradient-20" x1="-46.89" y1="-341.44" x2="-24.03" y2="-341.44" gradientTransform="matrix(-0.6, 0.39, 0.3, 0.46, 538.29, 363.81)" xlink:href="#linear-gradient-9"/><linearGradient id="linear-gradient-21" x1="494.48" y1="316.02" x2="515.21" y2="316.02" gradientTransform="matrix(-0.44, -0.35, 0.58, -0.73, 472.15, 637.51)" xlink:href="#linear-gradient-9"/><linearGradient id="linear-gradient-22" x1="480.24" y1="291.67" x2="500.97" y2="291.67" gradientTransform="matrix(-0.44, -0.35, 0.58, -0.73, 472.15, 637.51)" xlink:href="#linear-gradient-9"/><linearGradient id="linear-gradient-23" x1="488.11" y1="728.03" x2="509.7" y2="728.03" gradientTransform="matrix(-0.39, -0.31, 0.42, -0.53, 410.03, 664.38)" xlink:href="#linear-gradient-9"/><linearGradient id="linear-gradient-24" x1="597.07" y1="9.82" x2="453.22" y2="9.82" gradientTransform="translate(-38.51 353.35) rotate(-18.36)" xlink:href="#linear-gradient-9"/><linearGradient id="linear-gradient-25" x1="88.68" y1="-12.76" x2="150.1" y2="-12.76" gradientTransform="matrix(0.96, 0.06, 0.06, -1.01, 88.29, 185.97)" xlink:href="#linear-gradient-7"/><linearGradient id="linear-gradient-26" x1="127.42" y1="48.93" x2="188.88" y2="48.93" gradientTransform="matrix(1.21, 0.26, 0.37, -1.74, 14.29, 212.38)" xlink:href="#linear-gradient-7"/><linearGradient id="linear-gradient-27" x1="216.38" y1="80.05" x2="277.8" y2="80.05" gradientTransform="matrix(0.47, 0.86, 1.11, -0.6, 59.88, 5.05)" xlink:href="#linear-gradient-7"/><linearGradient id="linear-gradient-28" x1="429.38" y1="333.98" x2="531.6" y2="378.08" gradientTransform="matrix(1, 0, 0, -1, 0, 576)" gradientUnits="userSpaceOnUse"><stop offset="0.15" stop-color="#cca5cd"/><stop offset="0.96" stop-color="#224193" stop-opacity="0.8"/></linearGradient><linearGradient id="linear-gradient-29" x1="193.9" y1="-9.45" x2="216.5" y2="-9.45" gradientTransform="matrix(-0.2, 0.92, 0.91, 0.2, 557.7, 191.7)" gradientUnits="userSpaceOnUse"><stop offset="0" stop-color="#865ca0"/><stop offset="0.27" stop-color="#8b56a3"/><stop offset="1" stop-color="#1f958c" stop-opacity="0.4"/></linearGradient><linearGradient id="linear-gradient-30" x1="199.48" y1="99.16" x2="218.61" y2="99.16" gradientTransform="matrix(0.1, 0.94, 0.92, -0.1, 408.8, 173.07)" xlink:href="#linear-gradient-29"/><linearGradient id="linear-gradient-31" x1="124.24" y1="166.62" x2="142.91" y2="166.62" gradientTransform="matrix(0.08, 0.78, 0.65, -0.07, 406.04, 253)" xlink:href="#linear-gradient-29"/><linearGradient id="linear-gradient-32" x1="189.99" y1="302.68" x2="205.26" y2="302.68" gradientTransform="matrix(0.34, 0.71, 0.59, -0.29, 279.71, 281.43)" xlink:href="#linear-gradient-29"/><linearGradient id="linear-gradient-33" x1="135.77" y1="267.22" x2="152.27" y2="267.22" gradientTransform="matrix(0.24, 0.75, 0.62, -0.2, 327.71, 264.88)" xlink:href="#linear-gradient-29"/><linearGradient id="linear-gradient-34" x1="476.82" y1="412.89" x2="492.2" y2="412.89" gradientTransform="matrix(0.74, 0.27, 0.22, -0.61, 56.84, 479.73)" xlink:href="#linear-gradient-29"/><linearGradient id="linear-gradient-35" x1="119.58" y1="277.44" x2="136.09" y2="277.44" gradientTransform="matrix(0.24, 0.75, 0.62, -0.2, 327.71, 264.88)" xlink:href="#linear-gradient-29"/><linearGradient id="linear-gradient-36" x1="102.34" y1="291.12" x2="118.85" y2="291.12" gradientTransform="matrix(0.24, 0.75, 0.62, -0.2, 327.71, 264.88)" xlink:href="#linear-gradient-29"/><linearGradient id="linear-gradient-37" x1="11.83" y1="-92.94" x2="28.95" y2="-92.94" gradientTransform="matrix(-0.25, 0.74, -0.62, -0.21, 468.37, 265.8)" xlink:href="#linear-gradient-29"/><linearGradient id="linear-gradient-38" x1="32.32" y1="-95.26" x2="49.44" y2="-95.26" gradientTransform="matrix(-0.25, 0.74, -0.62, -0.21, 468.37, 265.8)" xlink:href="#linear-gradient-29"/><linearGradient id="linear-gradient-39" x1="53.13" y1="-98.64" x2="70.25" y2="-98.64" gradientTransform="matrix(-0.25, 0.74, -0.62, -0.21, 468.37, 265.8)" xlink:href="#linear-gradient-29"/><linearGradient id="linear-gradient-40" x1="52.35" y1="-262.28" x2="67.27" y2="-262.28" gradientTransform="matrix(-0.02, 0.72, -0.55, -0.02, 369.03, 298.23)" xlink:href="#linear-gradient-29"/><linearGradient id="linear-gradient-41" x1="466" y1="248.02" x2="479.53" y2="248.02" gradientTransform="matrix(0.53, 0.19, 0.32, -0.88, 169.78, 497.15)" xlink:href="#linear-gradient-29"/><linearGradient id="linear-gradient-42" x1="456.71" y1="232.13" x2="470.24" y2="232.13" gradientTransform="matrix(0.53, 0.19, 0.32, -0.88, 169.78, 497.15)" xlink:href="#linear-gradient-29"/><linearGradient id="linear-gradient-43" x1="457.49" y1="563.26" x2="471.59" y2="563.26" gradientTransform="matrix(0.47, 0.17, 0.23, -0.64, 179.2, 564.21)" xlink:href="#linear-gradient-29"/><linearGradient id="linear-gradient-44" x1="515.76" y1="67.02" x2="421.94" y2="67.02" gradientTransform="matrix(-0.23, -0.97, -0.97, 0.23, 678.26, 785.22)" gradientUnits="userSpaceOnUse"><stop offset="0" stop-color="#865ca0"/><stop offset="0.27" stop-color="#8b56a3"/><stop offset="1" stop-color="#5b2b5e"/></linearGradient><linearGradient id="linear-gradient-45" x1="253.53" y1="85.6" x2="287.58" y2="105.26" gradientTransform="matrix(0.99, 1.58, 1.57, -0.98, 67.79, 80.18)" xlink:href="#linear-gradient-7"/><linearGradient id="linear-gradient-46" x1="592.23" y1="397.47" x2="693.09" y2="440.87" gradientTransform="matrix(-1.13, 0.06, 0.06, 1.07, 822.7, -172.86)" gradientUnits="userSpaceOnUse"><stop offset="0.15" stop-color="#cca5cd"/><stop offset="0.96" stop-color="#224193"/></linearGradient><linearGradient id="linear-gradient-47" x1="229.23" y1="136.49" x2="260.33" y2="136.49" gradientTransform="matrix(1, 0, 0, -1, 0, 576)" xlink:href="#linear-gradient-7"/><linearGradient id="linear-gradient-48" x1="241" y1="113.12" x2="275.72" y2="113.12" gradientTransform="matrix(1, 0, 0, -1, 0, 576)" xlink:href="#linear-gradient-7"/><linearGradient id="linear-gradient-49" x1="147.73" y1="269.15" x2="218.49" y2="310" gradientTransform="matrix(0.17, -1.86, -1.84, -0.17, 673.29, 647.17)" gradientUnits="userSpaceOnUse"><stop offset="0.36" stop-color="#c89789"/><stop offset="1" stop-color="#4981ba"/></linearGradient><linearGradient id="linear-gradient-50" x1="315.52" y1="23.55" x2="356.13" y2="23.55" gradientTransform="matrix(0.97, -0.16, -0.2, -1.24, -130.15, 402.48)" xlink:href="#linear-gradient-9"/><linearGradient id="linear-gradient-51" x1="335.93" y1="41.47" x2="376.53" y2="41.47" gradientTransform="matrix(0.97, -0.16, -0.2, -1.24, -130.15, 402.48)" xlink:href="#linear-gradient-9"/><linearGradient id="linear-gradient-52" x1="350" y1="60.27" x2="390.6" y2="60.27" gradientTransform="matrix(0.97, -0.16, -0.2, -1.24, -130.15, 402.48)" xlink:href="#linear-gradient-9"/><linearGradient id="linear-gradient-53" x1="305.7" y1="1.63" x2="346.31" y2="1.63" gradientTransform="matrix(0.97, -0.16, -0.2, -1.24, -130.15, 402.48)" xlink:href="#linear-gradient-9"/><linearGradient id="linear-gradient-54" x1="612.11" y1="-27.1" x2="652.73" y2="-27.1" gradientTransform="matrix(-0.71, -0.12, 0.24, -1.5, 944.54, 378.93)" xlink:href="#linear-gradient-9"/><linearGradient id="linear-gradient-55" x1="203.85" y1="188.99" x2="234.95" y2="188.99" gradientTransform="matrix(1, 0, 0, -1, 0, 576)" xlink:href="#linear-gradient-7"/><linearGradient id="linear-gradient-56" x1="256.3" y1="154.39" x2="286.8" y2="154.39" gradientTransform="matrix(1, 0, 0, -1, 0, 576)" xlink:href="#linear-gradient-7"/><linearGradient id="linear-gradient-57" x1="214" y1="186.65" x2="364.2" y2="186.65" gradientTransform="matrix(1, 0, 0, -1, 0, 576)" xlink:href="#linear-gradient-7"/><linearGradient id="linear-gradient-58" x1="218.5" y1="355.8" x2="322.8" y2="355.8" gradientTransform="matrix(1, 0, 0, -1, 0, 576)" xlink:href="#linear-gradient-7"/><linearGradient id="linear-gradient-59" x1="469.84" y1="377.7" x2="481.76" y2="377.7" gradientTransform="matrix(1, 0, 0, -1, 0, 576)" xlink:href="#linear-gradient-7"/><linearGradient id="linear-gradient-60" x1="455.5" y1="377.7" x2="467.42" y2="377.7" gradientTransform="matrix(1, 0, 0, -1, 0, 576)" xlink:href="#linear-gradient-7"/><linearGradient id="linear-gradient-61" x1="441.16" y1="377.7" x2="453.08" y2="377.7" gradientTransform="matrix(1, 0, 0, -1, 0, 576)" xlink:href="#linear-gradient-7"/><linearGradient id="linear-gradient-62" x1="422.54" y1="186.6" x2="440.54" y2="186.6" gradientTransform="matrix(1, 0, 0, -1, 0, 576)" xlink:href="#linear-gradient-7"/><linearGradient id="linear-gradient-63" x1="450.87" y1="186.6" x2="468.85" y2="186.6" gradientTransform="matrix(1, 0, 0, -1, 0, 576)" xlink:href="#linear-gradient-7"/><linearGradient id="linear-gradient-64" x1="292.42" y1="275.05" x2="328.53" y2="275.05" gradientTransform="matrix(1, 0, 0, -1, 0, 576)" xlink:href="#linear-gradient-7"/><linearGradient id="linear-gradient-65" x1="201.8" y1="274.4" x2="389.5" y2="274.4" gradientTransform="matrix(1, 0, 0, -1, 0, 576)" xlink:href="#linear-gradient-7"/><linearGradient id="linear-gradient-66" x1="426" y1="299.4" x2="480.2" y2="299.4" gradientTransform="matrix(1, 0, 0, -1, 0, 576)" xlink:href="#linear-gradient-7"/><linearGradient id="linear-gradient-67" x1="426.9" y1="240.3" x2="481.1" y2="240.3" gradientTransform="matrix(1, 0, 0, -1, 0, 576)" xlink:href="#linear-gradient-7"/><linearGradient id="linear-gradient-68" x1="171.38" y1="195.92" x2="260.26" y2="195.92" gradientTransform="matrix(1, 0, 0, -1, 0, 576)" xlink:href="#linear-gradient-8"/><linearGradient id="linear-gradient-69" x1="299.61" y1="140.74" x2="406.91" y2="202.69" gradientTransform="matrix(1, 0, 0, -1, 0, 576)" xlink:href="#linear-gradient-46"/><linearGradient id="linear-gradient-70" x1="78.29" y1="340.8" x2="85.05" y2="340.8" gradientTransform="matrix(1, 0, 0, -1, 0, 576)" xlink:href="#linear-gradient-8"/><linearGradient id="linear-gradient-71" x1="57.54" y1="351.36" x2="72.98" y2="351.36" gradientTransform="matrix(1, 0, 0, -1, 0, 576)" xlink:href="#linear-gradient-8"/><linearGradient id="linear-gradient-72" x1="42.05" y1="317.7" x2="57.21" y2="317.7" gradientTransform="matrix(1, 0, 0, -1, 0, 576)" xlink:href="#linear-gradient-8"/><linearGradient id="linear-gradient-73" x1="57.1" y1="278.34" x2="90.8" y2="278.34" gradientTransform="matrix(1, 0, 0, -1, 0, 576)" xlink:href="#linear-gradient-8"/><linearGradient id="linear-gradient-74" x1="563.37" y1="206.36" x2="598.01" y2="206.36" gradientTransform="matrix(-0.15, 0.93, -0.92, -0.15, 395.92, -60.78)" xlink:href="#linear-gradient-9"/><linearGradient id="linear-gradient-75" x1="607.6" y1="192.87" x2="636.9" y2="192.87" gradientTransform="matrix(-0.43, 0.84, -0.82, -0.43, 541.31, -23.77)" xlink:href="#linear-gradient-9"/><linearGradient id="linear-gradient-76" x1="607.31" y1="304.74" x2="635.93" y2="304.74" gradientTransform="matrix(-0.36, 0.7, -0.58, -0.3, 514.7, 51.69)" xlink:href="#linear-gradient-9"/><linearGradient id="linear-gradient-77" x1="677.01" y1="236.77" x2="700.42" y2="236.77" gradientTransform="matrix(-0.58, 0.53, -0.44, -0.48, 621.93, 124.33)" xlink:href="#linear-gradient-9"/><linearGradient id="linear-gradient-78" x1="615.99" y1="291.27" x2="641.27" y2="291.27" gradientTransform="matrix(-0.5, 0.61, -0.51, -0.41, 583.24, 91.4)" xlink:href="#linear-gradient-9"/><linearGradient id="linear-gradient-79" x1="780.2" y1="-66.17" x2="803.79" y2="-66.17" gradientTransform="matrix(-0.78, -0.02, 0.02, -0.65, 756.9, 390.31)" xlink:href="#linear-gradient-9"/><linearGradient id="linear-gradient-80" x1="591.19" y1="306.84" x2="616.47" y2="306.84" gradientTransform="matrix(-0.5, 0.61, -0.51, -0.41, 583.24, 91.4)" xlink:href="#linear-gradient-9"/><linearGradient id="linear-gradient-81" x1="564.73" y1="327.96" x2="590.02" y2="327.96" gradientTransform="matrix(-0.5, 0.61, -0.51, -0.41, 583.24, 91.4)" xlink:href="#linear-gradient-9"/><linearGradient id="linear-gradient-82" x1="375.08" y1="-446.12" x2="401.31" y2="-446.12" gradientTransform="matrix(-0.04, 0.78, 0.65, 0.03, 452.07, 40.86)" xlink:href="#linear-gradient-9"/><linearGradient id="linear-gradient-83" x1="406.48" y1="-449.8" x2="432.72" y2="-449.8" gradientTransform="matrix(-0.04, 0.78, 0.65, 0.03, 452.07, 40.86)" xlink:href="#linear-gradient-9"/><linearGradient id="linear-gradient-84" x1="438.38" y1="-455.14" x2="464.61" y2="-455.14" gradientTransform="matrix(-0.04, 0.78, 0.65, 0.03, 452.07, 40.86)" xlink:href="#linear-gradient-9"/><linearGradient id="linear-gradient-85" x1="561.5" y1="-502.78" x2="584.35" y2="-502.78" gradientTransform="matrix(-0.24, 0.67, 0.52, 0.19, 532.66, 107.28)" xlink:href="#linear-gradient-9"/><linearGradient id="linear-gradient-86" x1="889.26" y1="-94.74" x2="910" y2="-94.74" gradientTransform="matrix(-0.56, -0.01, 0.02, -0.94, 645.4, 365.35)" xlink:href="#linear-gradient-9"/><linearGradient id="linear-gradient-87" x1="875.02" y1="-118.98" x2="895.74" y2="-118.98" gradientTransform="matrix(-0.56, -0.01, 0.02, -0.94, 645.4, 365.35)" xlink:href="#linear-gradient-9"/><linearGradient id="linear-gradient-88" x1="931.88" y1="161.33" x2="953.47" y2="161.33" gradientTransform="matrix(-0.5, -0.01, 0.02, -0.68, 612.14, 424.28)" xlink:href="#linear-gradient-9"/><linearGradient id="linear-gradient-89" x1="153.3" y1="34.09" x2="9.52" y2="34.09" gradientTransform="matrix(0.57, -0.82, 0.82, 0.57, 66.79, 447.6)" xlink:href="#linear-gradient-9"/><linearGradient id="linear-gradient-90" x1="198.27" y1="78.4" x2="232.33" y2="98.06" gradientTransform="matrix(1.27, 1.37, 1.36, -1.26, -79.15, 8.41)" xlink:href="#linear-gradient-9"/></defs><title>basiccontent</title><g id="Layer_3" data-name="Layer 3"><path class="cls-1" d="M461.5,276.6c-25,11.5-56.3,47-76.8,72.7-2.8,3.5-5.3,6.8-7.7,9.8h0c-5.6,7.3-9.8,13-12,16.2h0l-1.9,2.7-46.4,25.2-29.9,16.3-16.2,8.8s-2.9,2.6-8,6.7c-.7.6-1.5,1.2-2.3,1.8-5.9,4.6-14,10.8-23.8,17.3-7.9,5.3-16.9,10.8-26.5,16A245.57,245.57,0,0,1,176.6,485a152.68,152.68,0,0,1-28.7,7.2C86.6,501,105.1,402.7,63,360.5c-16.1-16.1-14-33-5.9-50.5a147.61,147.61,0,0,1,7.5-14c1-1.8,2.1-3.6,3.2-5.4,2.3-3.8,4.7-7.6,7.1-11.4,1.3-2.2,2.7-4.3,4-6.5,2.7-4.5,5.3-9.1,7.5-13.7,6.3-12.8,10.2-25.7,7.8-38.9-8.9-50.3,59.4-19.9,77.9-76.1s157.7,20.4,157.7,20.4,37,26.2,44.7,42.8,50.4-30,80.9-62.6c10.2-10.9,19.2-12.3,27.6-8.2a10.93,10.93,0,0,1,1.5.8c.9.5,1.9,1.1,2.8,1.7a47.56,47.56,0,0,1,7,6,19.2,19.2,0,0,1,1.4,1.5c.3.4.7.7,1,1.1,8.9,9.8,17.5,23.4,26.9,35.5l3.3,4.2c1.7,2.1,3.5,4.2,5.3,6.1C559.1,222.4,502.3,257.7,461.5,276.6Z" transform="translate(-41.99 -102.4)"/><path class="cls-2" d="M489.5,448c-.8,16.9,21.8,22.9,20.4,33.9-1.9,15.4-49.1,26.7-86.4,18.7a113.06,113.06,0,0,1-23.5-7.9c-9.4-4.4-20.2-9.4-28.8-17.5a49.11,49.11,0,0,1-8.2-9.9c-1.8-2.9-3.6-6.5-8-9.3a19.53,19.53,0,0,0-8.4-2.7,42.94,42.94,0,0,0-10.1.1c-14.3,1.8-15.7,7.9-27.2,8.7-7.7.5-18.8-1.6-20.4-7-1.5-5.1,5.3-13,16.8-18.8l.6-.3a92.85,92.85,0,0,1,31-23.9,27.18,27.18,0,0,1,2.5-1.1c2.1-.9,4.1-1.7,6-2.3,12.6-4,20-2,30-5.2a40.13,40.13,0,0,0,6.3-2.6c.6-.3,1.2-.6,1.7-.9a34.86,34.86,0,0,0,13.3-13.1c.3-.5.7-1.1,1-1.7,1.7-2.9,3.2-6.2,5-9.7a117.4,117.4,0,0,1,22-31.2,131.33,131.33,0,0,1,44.5-29.7c11.7-4.6,28.9-10,41.8-3.1,3.8,2,7,6.2,9.1,13.9,6.1,22.4,16.2,31.6,16.3,43.9.1,6.9-2.8,11.3-7.4,20.2-7.6,14.8-14.2,18-29.4,39.2C490,443,489.6,446.3,489.5,448Z" transform="translate(-41.99 -102.4)"/><path class="cls-3" d="M288.8,479.8c-1.3,1.3-3.4,3-8.5,4.6-4.8,1.5-12.6,3.9-21.1,1-5.5-1.8-4.6-3.6-9.4-4.8-8.7-2.1-15.1,2.5-17-.1-.9-1.2,0-3.1,1.6-7a40.56,40.56,0,0,1,5.1-8.8c.5-.7,1.1-1.4,1.6-2.1,3.5-4.5,7.4-8.9,13.6-11.3,3.3-1.3,5.6-2.3,8.3-1.5,4,1.2,4.1,4.9,9.7,9.6a30.49,30.49,0,0,0,2.8,2c1.4.9,3.3,1.9,5.8,3.3,8.3,4.7,10.8,5.2,11.3,7.7C293,475.5,290.1,478.5,288.8,479.8Z" transform="translate(-41.99 -102.4)"/><path class="cls-4" d="M313.6,139.8s15.6-4.8,15.8.8c.1,4.4,3.6,4.7,4.1,6.6a3.61,3.61,0,0,1-.4,1.9c-.7,1.7-2.6,4.6-4.5,4.5-1.7-.1-1.5-2.4-4.2-4-2.4-1.5-3.4-.1-6.6-1.5,0,0-4-1.8-5.2-5.6-.1-.5-.4-1.4,0-2A1.55,1.55,0,0,1,313.6,139.8Z" transform="translate(-41.99 -102.4)"/><path class="cls-5" d="M372.7,164.3a1.6,1.6,0,0,1-.1,1.5c-2.6,6.8-2.4,7.7,1.7,11.7s8.2,7.8,4.3,7.8-7.3.5-9.9-3.4-15.3-9.7-15.8-11.4c-1.3-5.1-7.2-5.6-6.7-7.7a4.7,4.7,0,0,1,1.5-2.1C353.3,156.6,371.4,159.6,372.7,164.3Z" transform="translate(-41.99 -102.4)"/><path class="cls-6" d="M511.3,287.1s-18.9.2-15.3-8.3c2.9-6.7-.4-8.8.4-11.8a7.49,7.49,0,0,1,1.7-2.7c1.9-2.3,5.7-5.8,7.6-4.7,1.6,1-.1,4.3,1.4,7.9,1.4,3.3,3.3,1.7,5.6,5.3a15.77,15.77,0,0,1,1.5,10.8,6.14,6.14,0,0,1-1.4,3.1A2.57,2.57,0,0,1,511.3,287.1Z" transform="translate(-41.99 -102.4)"/><path class="cls-7" d="M85,249.7a8.22,8.22,0,0,1-2.9,3,25.18,25.18,0,0,0-3.8,3,18.93,18.93,0,0,0-5.4,8.9c-.8,2.8-1.2,5.1-3.1,6.8-1.2,1.2-2.6,1.6-4.7,2.2-.2.1-.5.1-.8.2a35.36,35.36,0,0,1-7.2,1.4c-4.2.4-8.3.1-9.8-2.1-.1-.1-.1-.2-.2-.4a2.89,2.89,0,0,1-.3-1.8c.4-2.5,3.5-5.3,5-9.8h0a24.6,24.6,0,0,0,.7-2.9c1-7-3.9-6.6-4.1-15a28.85,28.85,0,0,1,8.2-19.3,21.9,21.9,0,0,1,2.6-2.3,7,7,0,0,1,2.7-1.1,3.72,3.72,0,0,1,2.9.9s.8.6,2.2,1.6a102.37,102.37,0,0,1,11.1,9.5,44.46,44.46,0,0,1,4.9,6C85.7,242.5,86.9,246.4,85,249.7Z" transform="translate(-41.99 -102.4)"/></g><g id="Layer_4" data-name="Layer 4"><path class="cls-8" d="M219.7,443c5-7.8,19.9-32.6,18.5-58.4a51.74,51.74,0,0,0-1.7-11.1c-7.3-10.2-13.3-10.9-17.4-9.6-6.9,2.2-12.7,11-16.8,8.7-1.5-.8-2.4-2.8-2.5-4.8-.3-4.4,3.4-7,4.8-13.2.1-.6,1.4-6.8-1.1-11.1a8,8,0,0,0-11.8-2.4,10,10,0,0,0-2.3,2.3c-6,3.3-8.5,2.2-9.6,1.2-2.3-2-1.7-6.3-2.3-15.3-.4-6.1-1.1-10.9-1.6-13.9-2.6-5.1-6.9-7.3-11.1-5.7-3.7,1.4-6.3,5.4-7.1,6.7-6.2,9.8-4,21.7-5.9,22.6-1.3.7-3-4.3-4.9-10-2.7-8.5-4.8-15.7-6.3-21.1-2.1-5.7-6.1-8.6-10.5-7.4-3.3.9-5.8,4-7.1,5.6-5.7,7.1-6.8,16.3-7.2,20.3a49.57,49.57,0,0,0,.5,14.4c1.9,12.4,6.1,16.2,3.7,23.7-.4,1.1-1.3,4-3,5.1-2.9,1.8-4.6-2.9-7.9-2.1-4.3,1-10,11.2-10.3,19.9-.3,7.8,3.6,13.7,8.4,15.7,7.4,3.1,14.7-4.4,18.6.7a7.26,7.26,0,0,1,1.2,6.8c-1.6,3.8-7,2.8-10.6,8-1.6,2.3-3,6.2-2.6,9.2.8,5.3,6.9,4.8,20.4,10.7,4.4,2,7.1,3.5,6.7,5.2-.6,2.6-7.1,1.8-10.8,7.4s-3,15.4.3,20.7a11.93,11.93,0,0,0,7.3,5.1c34.1,8.9,58.8-9.4,58.8-9.4A109,109,0,0,0,219.7,443Z" transform="translate(-41.99 -102.4)"/><path class="cls-9" d="M393.8,411.2c-2.3,5.7-9.1,23.7-3.8,40.4a37.78,37.78,0,0,0,3,7c6.9,5.8,11.3,5.6,14.1,4.3,4.6-2.2,7.3-8.7,10.7-7.7a4.23,4.23,0,0,1,2.6,2.9c.9,2.9-1.3,5-1.3,9.2,0,.4.1,4.6,2.6,7.1a6.4,6.4,0,0,0,8.9.2,8.87,8.87,0,0,0,1.3-1.8c3.8-2.9,5.8-2.4,6.7-1.9,2,1.1,2.3,3.9,4.1,9.7a86.81,86.81,0,0,0,3.4,8.9c2.7,3,6.1,4,9,2.4,2.4-1.4,3.6-4.3,4-5.2,2.9-7.1-.7-14.6.6-15.5.8-.6,2.9,2.4,5.1,6,3.4,5.2,6.1,9.7,8,13,2.4,3.5,5.8,4.9,8.8,3.6,2.2-1,3.5-3.3,4.2-4.5,3-5.3,2.2-11.5,1.9-14.1a34.35,34.35,0,0,0-2.7-9.4c-3.4-7.9-7-9.9-6.5-15.1.1-.8.3-2.7,1.4-3.7,1.8-1.5,3.8,1.4,6,.5,3-1.2,5.3-8.5,4.2-14.2-1-5.1-4.9-8.6-8.6-9.3-5.8-1.1-9.9,4.6-13.5,1.7-1.1-.9-2.3-2.6-2-4.3.5-2.7,4.6-2.6,6.3-6.4a8.55,8.55,0,0,0,.4-6.3c-1.4-3.4-5.8-2.3-16.5-4.6-3.5-.8-5.7-1.4-5.7-2.6,0-1.8,4.9-2,6.6-6.1s-.3-10.4-3.6-13.5a9.4,9.4,0,0,0-6.1-2.5c-26-1.8-40.9,13-40.9,13A70.13,70.13,0,0,0,393.8,411.2Z" transform="translate(-41.99 -102.4)"/><path class="cls-10" d="M416.8,201.6s-12.7,34.5-2.3,44.8c.5.5,1.9,2,3.3.8,3.2-2.7,3.6-16.8,3.6-18.9A65.75,65.75,0,0,0,416.8,201.6Z" transform="translate(-41.99 -102.4)"/><path class="cls-11" d="M436,170.6S417.3,197,425.1,212c.4.7,1.4,2.8,3,2.4,3.6-.9,6.7-14.1,7.1-16.1A70.07,70.07,0,0,0,436,170.6Z" transform="translate(-41.99 -102.4)"/><path class="cls-12" d="M450,159.3s-15.9,20.7-10.1,31c.3.5,1.1,2,2.4,1.5,2.9-1,5.8-10.8,6.2-12.3A43.57,43.57,0,0,0,450,159.3Z" transform="translate(-41.99 -102.4)"/><path class="cls-13" d="M468.3,153.2s-19.4,10.6-16,23.6c.2.6.6,2.4,1.9,2.7,2.9.7,7.8-7,8.5-8.1A39.56,39.56,0,0,0,468.3,153.2Z" transform="translate(-41.99 -102.4)"/><path class="cls-14" d="M484.5,135.2s-18.2,14.9-13.8,27c.2.6.8,2.3,2.1,2.3,3,0,7.1-8.7,7.7-10A41.24,41.24,0,0,0,484.5,135.2Z" transform="translate(-41.99 -102.4)"/><path class="cls-15" d="M459.2,208.4s-18.5-14.1-21.7-1a5.87,5.87,0,0,0,.2,4.1c1.8,3.8,8.6,3.7,9.6,3.7C450.2,215.1,454.9,214.1,459.2,208.4Z" transform="translate(-41.99 -102.4)"/><path class="cls-16" d="M501,120.6s-18.2,14.9-13.8,27c.2.6.8,2.3,2.1,2.3,3,0,7.1-8.7,7.7-10A41.88,41.88,0,0,0,501,120.6Z" transform="translate(-41.99 -102.4)"/><path class="cls-17" d="M517.9,102.4s-18.2,14.9-13.8,27c.2.6.8,2.3,2.1,2.3,3,0,7.1-8.7,7.7-10A42.54,42.54,0,0,0,517.9,102.4Z" transform="translate(-41.99 -102.4)"/><path class="cls-18" d="M520.8,142s-16.4,19.7-21.1,8a6.17,6.17,0,0,1-.3-4.1c1.3-4.3,7.9-6.4,8.9-6.7A12.3,12.3,0,0,1,520.8,142Z" transform="translate(-41.99 -102.4)"/><path class="cls-19" d="M503.2,159.4s-16.4,19.7-21.1,8a6.17,6.17,0,0,1-.3-4.1c1.3-4.3,7.9-6.4,8.9-6.7A12.3,12.3,0,0,1,503.2,159.4Z" transform="translate(-41.99 -102.4)"/><path class="cls-20" d="M484.5,176.3s-16.4,19.7-21.1,8a6.17,6.17,0,0,1-.3-4.1c1.3-4.3,7.9-6.4,8.9-6.7A12.33,12.33,0,0,1,484.5,176.3Z" transform="translate(-41.99 -102.4)"/><path class="cls-21" d="M468.4,194.3s-17.4,10.6-19.2-.9a4.78,4.78,0,0,1,.5-3.5c1.9-3.1,7.9-2.5,8.7-2.4C460.9,187.8,465,189.1,468.4,194.3Z" transform="translate(-41.99 -102.4)"/><path class="cls-22" d="M447.1,222s-15.4-5.8-21.3,11c-.3.8-1.1,3.1-.7,4.6,1,3.4,7.7-.6,8.7-1.1C436.7,234.8,441.6,231,447.1,222Z" transform="translate(-41.99 -102.4)"/><path class="cls-23" d="M439.1,244.8s-15.4-5.8-21.3,11c-.3.8-1.1,3.1-.7,4.6,1,3.4,7.7-.6,8.7-1.1C428.7,257.6,433.7,253.9,439.1,244.8Z" transform="translate(-41.99 -102.4)"/><path class="cls-24" d="M532.9,118s-13-6.6-17.1,5.9a6.51,6.51,0,0,0-.4,3.6c1,2.8,6.4.6,7.2.2C524.9,126.8,528.8,124.5,532.9,118Z" transform="translate(-41.99 -102.4)"/><path class="cls-25" d="M410.8,268.3a40.58,40.58,0,0,1,1.7-8.5c2.7-9,6-8.7,8.3-17,1.3-4.6.8-6.7,2.8-12.4.7-2,1-2.4,2.8-6.4,2.4-5.4,4.2-9.9,5.8-13.9,3.4-8.5,3.5-9.5,5.1-11.6,2-2.7,2.4-1.8,5.9-5.3,4.5-4.5,4.2-6.4,7.8-9.4,2.5-2.1,2.9-1.4,6.9-4.1a58.52,58.52,0,0,0,7.2-6,72.39,72.39,0,0,1,12.1-8.7,53.49,53.49,0,0,1,9.7-11.4c3.8-3.3,4.1-2.3,7.5-5.6,2.8-2.7,3.5-4.2,10.6-12.6,1.4-1.6,2.1-2.4,3-3.3a40.62,40.62,0,0,1,7.2-5.9c-.9,1.1-2.3,2.9-4.1,4.8-4.7,5.2-6.3,5.9-9.6,9.8-3.8,4.5-2.8,5-5.9,8.3-3.9,4.3-5.8,3.8-9.8,7.5a37.14,37.14,0,0,0-7.3,9.7,71.68,71.68,0,0,0-12.1,8.5c-2.8,2.4-3.7,3.5-6.7,5.7-5.3,4-5.9,3.1-8.7,6-3,3.1-3.1,4.9-6.9,9.5a41.5,41.5,0,0,1-5.2,5.2c-.5,1-7.6,16.2-11,24.8-.9,2.1-1.6,4.2-2.4,6.7-1.3,4.2-2.1,7.5-2.3,8.2C422,244.7,419.2,252.3,410.8,268.3Z" transform="translate(-41.99 -102.4)"/><path class="cls-26" d="M174.4,169.9c6.9.8,19.1,3.2,30.4,11.9,19.5,14.8,30.8,43.2,21.9,53.5-5,5.8-15.7,5-17.9,4.8-9.6-.7-15.9-6.1-19.1-8.7C169.3,214,174.1,172.6,174.4,169.9Z" transform="translate(-41.99 -102.4)"/><path class="cls-27" d="M199.4,102.4A67,67,0,0,1,235,128c20.7,28.7,26.9,79.7,12.5,95.9-8.1,9.1-21.6,5.9-24.4,5.2-12.1-2.9-18.7-13.2-21.9-18.3C179.9,177.5,198.1,107,199.4,102.4Z" transform="translate(-41.99 -102.4)"/><path class="cls-28" d="M286.8,124.1a56.69,56.69,0,0,1,4.2,34c-4.9,26.3-28.9,54.4-44.7,53.3-8.9-.6-13.9-10.4-15-12.4-4.5-8.8-2.3-17.7-1.2-22.1C237.2,147.9,283.7,125.6,286.8,124.1Z" transform="translate(-41.99 -102.4)"/><path class="cls-29" d="M513.6,213.6c0,.6-.2,2,.7,2.8,1.5,1.3,3.9-.6,5.9.2,2.7,1.1,3.8,6.6,1.8,10.6-1.8,3.6-6,5.7-9.7,5.9-5.8.3-8.8-4.2-12.7-2.5-1.2.5-2.6,1.7-2.6,2.9.1,2,4,2.3,5.1,5.2a5.1,5.1,0,0,1-.6,4.6c-1.9,2.3-5.9,1.1-16.5,1.8-3.5.2-5.7.5-5.9,1.4-.3,1.3,4.3,1.9,5.4,5s-1.9,7.5-5.5,9.4a11.9,11.9,0,0,1-6.2,1.2c-22.1-.9-34-10.3-36.7-12.6a6.12,6.12,0,0,1-.6-.5,40.36,40.36,0,0,1-4.2-5,54.67,54.67,0,0,1-3.1-5c-.7-1.4-1.4-2.9-2.1-4.6a8.4,8.4,0,0,0-.4-1.2c-.1-.3-.2-.7-.3-1a29.51,29.51,0,0,1-.8-3.9,33.64,33.64,0,0,1,.7-15.9,25.34,25.34,0,0,1,3.4-7.3,31.82,31.82,0,0,1,4-4.8,24.43,24.43,0,0,1,2.4-1c.9-.3,1.7-.6,2.5-.9a17.69,17.69,0,0,1,5.1-.8,9.51,9.51,0,0,1,4.3.9c4.1,2,5.7,6.9,9.1,6.5a4.08,4.08,0,0,0,2.9-1.8c1-1.5.2-2.9,0-4.8a6.48,6.48,0,0,1,.2-1.9,8.15,8.15,0,0,1,3.6-4.9,11.42,11.42,0,0,1,2.6-.9,6.93,6.93,0,0,1,6,1.5,3.26,3.26,0,0,1,.9,1.4c3.2,2.4,5.2,2.3,6.2,2,2.1-.6,2.8-2.6,5.5-6.6a51.13,51.13,0,0,1,4.7-6.1c3.1-1.9,6.5-2.3,9-.9a7.63,7.63,0,0,1,3.1,4.1c1.7,5.4-2.9,10.5-1.9,11.2.7.5,3.1-1.5,5.9-3.8,4-3.5,7.3-6.4,9.7-8.6,2.9-2.3,6.4-3,9-1.8.1.1.2.1.3.2l3.3,4.2c1.5,3.9,0,7.8-.7,9.5a24.25,24.25,0,0,1-4,6.5C517.8,208.8,514,209.8,513.6,213.6Z" transform="translate(-41.99 -102.4)"/><path class="cls-30" d="M520.6,370.8s-14.9,18.8-24.2,16.5c-.4-.1-1.7-.4-1.6-1.6.4-2.7,8.1-7.7,9.3-8.4A42.42,42.42,0,0,1,520.6,370.8Z" transform="translate(-41.99 -102.4)"/><path class="cls-31" d="M531.4,349.6S523.1,369,512,369.7c-.5,0-2.1.2-2.4-.9-.7-2.3,5.6-8.5,6.6-9.4A44,44,0,0,1,531.4,349.6Z" transform="translate(-41.99 -102.4)"/><path class="cls-32" d="M532.9,337.8s-6.1,15.9-13.9,16.1c-.4,0-1.5.1-1.7-.8-.5-2,4.1-6.9,4.7-7.7A34.81,34.81,0,0,1,532.9,337.8Z" transform="translate(-41.99 -102.4)"/><path class="cls-33" d="M530.1,325.6s.6,14.4-7.7,16.9c-.4.1-1.6.5-2.2-.1-1.4-1.4,1.2-6.7,1.6-7.5A26.75,26.75,0,0,1,530.1,325.6Z" transform="translate(-41.99 -102.4)"/><path class="cls-34" d="M534.6,310.4s-2.1,15.2-10.4,16.8c-.4.1-1.5.3-2-.4-1-1.7,2.4-6.9,2.9-7.7A33.09,33.09,0,0,1,534.6,310.4Z" transform="translate(-41.99 -102.4)"/><path class="cls-35" d="M502.5,349.5s14.1,5.5,7.9,11.7a3.75,3.75,0,0,1-2.3,1.3c-2.7.3-5-3.5-5.3-4.1C501.8,356.7,500.7,353.8,502.5,349.5Z" transform="translate(-41.99 -102.4)"/><path class="cls-36" d="M537.1,296.3s-2.1,15.2-10.4,16.8c-.4.1-1.5.3-2-.4-1-1.7,2.4-6.9,2.9-7.7A30.49,30.49,0,0,1,537.1,296.3Z" transform="translate(-41.99 -102.4)"/><path class="cls-37" d="M541.5,280.7s-2.1,15.2-10.4,16.8c-.4.1-1.5.3-2-.4-1-1.7,2.4-6.9,2.9-7.7A30.49,30.49,0,0,1,541.5,280.7Z" transform="translate(-41.99 -102.4)"/><path class="cls-38" d="M518.5,292.6s-5.4,15.8,2.7,14.5a4,4,0,0,0,2.4-1.2c2-2.2.9-6.6.7-7.2A8.05,8.05,0,0,0,518.5,292.6Z" transform="translate(-41.99 -102.4)"/><path class="cls-39" d="M514.8,308.3s-5.4,15.8,2.7,14.5a4,4,0,0,0,2.4-1.2c2-2.2.9-6.6.7-7.2A8.05,8.05,0,0,0,514.8,308.3Z" transform="translate(-41.99 -102.4)"/><path class="cls-40" d="M511.7,324.4s-5.4,15.8,2.7,14.5a4,4,0,0,0,2.4-1.2c2-2.2.9-6.6.7-7.2A8,8,0,0,0,511.7,324.4Z" transform="translate(-41.99 -102.4)"/><path class="cls-41" d="M507.2,339.6s0,13.3,7,10.4a3.36,3.36,0,0,0,1.8-1.4c1.1-2.1-1.3-5.2-1.6-5.7A8.61,8.61,0,0,0,507.2,339.6Z" transform="translate(-41.99 -102.4)"/><path class="cls-42" d="M499,360.8s8.5,6.6,1.1,15.6c-.4.4-1.4,1.7-2.3,2-2.2.6-2.3-4.5-2.3-5.3C495.4,370.9,495.8,366.9,499,360.8Z" transform="translate(-41.99 -102.4)"/><path class="cls-43" d="M489,373s8.5,6.6,1.1,15.6c-.4.4-1.4,1.7-2.3,2-2.2.6-2.3-4.5-2.3-5.3C485.4,383.1,485.8,379.1,489,373Z" transform="translate(-41.99 -102.4)"/><path class="cls-44" d="M527.7,277.7s8.1,5,2.5,11.5a4.26,4.26,0,0,1-1.9,1.4c-1.9.4-2.5-3.4-2.6-3.9A16.46,16.46,0,0,1,527.7,277.7Z" transform="translate(-41.99 -102.4)"/><path class="cls-45" d="M485.5,396.7a39.65,39.65,0,0,0,4.2-3.8c4.1-4.5,2.8-6.3,6.7-10.4,2.1-2.3,3.4-2.7,5.9-5.8.9-1.1,1-1.4,2.6-3.7,2.2-3.2,4.1-5.7,5.8-8,3.6-4.8,4.1-5.2,4.8-6.8.8-2,.2-1.9,1-5.1,1-4,2.1-4.5,2.5-7.6.3-2.1-.2-2.1-.1-5.2a35.68,35.68,0,0,1,.9-6.1,50.05,50.05,0,0,0,.7-9.7,32.74,32.74,0,0,0,3-9.3c.5-3.2-.1-3.1.6-6.1.6-2.5,1.1-3.3,3.4-10.2.4-1.3.6-2,.8-2.8a29.83,29.83,0,0,0,.9-6c-.3.9-.8,2.3-1.3,3.9-1.3,4.4-1.1,5.5-2.2,8.7-1.2,3.6-1.8,3.3-2.6,6.1-1.1,3.7-.2,4.5-.8,8a24.13,24.13,0,0,1-2.9,7.4,52,52,0,0,1-.6,9.7,56.22,56.22,0,0,0-.9,5.7c-.4,4.3.3,4.3-.4,6.9s-1.7,3.4-2.9,7.1a20.05,20.05,0,0,0-1.1,4.7c-.4.6-6.4,9.7-10.1,14.6-.9,1.2-1.8,2.3-2.9,3.6a41,41,0,0,1-3.8,4C494.8,382.5,491.6,386.6,485.5,396.7Z" transform="translate(-41.99 -102.4)"/><path class="cls-46" d="M517.5,413.5a11.27,11.27,0,0,1,3.6,4.5,12.28,12.28,0,0,1,1,4.9,7.89,7.89,0,0,1-3,2.5,10.11,10.11,0,0,1-6.6.9c-4.6-3.3-9.2-6.6-13.8-9.8-1.4.6-1.8,1.3-1.9,1.7-.5,2.5,6.3,3.2,10.9,9.5,0,0,4.4,5.8,6.9,5.8h.1c.2.3-2.5,2.7-5.2,3.9a14.16,14.16,0,0,1-6.3,1.3c-3.3-4.7-6.6-9.3-9.9-14l-3.9-3.6a33.83,33.83,0,0,0-.8,3.4l5.7,7.8,3.9,7.2a9.54,9.54,0,0,1-6.1,1.7,10.13,10.13,0,0,1-5.9-2.5,88.87,88.87,0,0,1-3.4-10.3c-.7-2.7-1.3-5.2-1.7-7.6-1-.5-1.9-1-2.9-1.5l.8,14.2,3,4.9a9.87,9.87,0,0,1-7.5,1.2,9.43,9.43,0,0,1-5.8-4.7c-3.2-6.8,5.4-15.7,2.9-18.2-.4-.4-1.3-.8-3.7-.1-.6,2.4-1.2,4.7-1.7,7.1-1.8,2.2-3.6,4.5-5.5,6.7-6.9-.6-8.9-2.9-9.5-4.3s-.3-2.2.8-10.5a63.38,63.38,0,0,0,.7-7.1,27.38,27.38,0,0,0-1.4-8.4c1.6-1.7,3.1-3.5,4.7-5.2l4.1-6.6c2.4-3.6,4.7-7.1,7.1-10.7a5.61,5.61,0,0,1,8.8.7c-1.4,3-2.9,6-4.3,8.9,0,0-1.3,11.3-.5,11.4.1,0,.1-.1.2-.1,1.2-1.3,3.9-7.9,5.1-10.1,0,0,5.8-7.3,5.7-7.2h0c1.8-.9,2.7-.5,2.9-.3,1.4.8,1.5,4.1-.2,8-1.4,4.7-2.7,9.3-4.1,14,2.7-2.9,5.4-5.8,8-8.8.4-3.3.8-6.7,1.2-10a13.2,13.2,0,0,1,6.4,4.6,12.05,12.05,0,0,1,2.2,5,35.22,35.22,0,0,1-12.3,12.4c1.1,1.3,2.3,2.6,3.4,3.9a26.61,26.61,0,0,1,3.8-6.4A27.36,27.36,0,0,1,503,396l3-.9a16.07,16.07,0,0,1,5.5,11.5c-2.8.6-5.6,1.1-8.3,1.7-2,1.3-3.9,2.6-5.9,3.9l14.2-1C513.5,412.1,515.5,412.8,517.5,413.5Z" transform="translate(-41.99 -102.4)"/><path class="cls-47" d="M61.7,334c-1.5-4.7-5.6-19.7,2.8-32.4a28.84,28.84,0,0,1,4.4-5.3c8.3-3.9,13-3.3,15.7-1.9,4.5,2.2,6.3,7.6,10,7.2a4.72,4.72,0,0,0,3.2-2c1.5-2.2-.6-4.1.2-7.4a9.17,9.17,0,0,1,4-5.4c3-1.6,7.3-1.4,9.5.8a5.56,5.56,0,0,1,1,1.5c3.5,2.6,5.7,2.5,6.8,2.2,2.3-.6,3.1-2.9,6.1-7.3a69.39,69.39,0,0,1,5.1-6.7c3.4-2.1,7.2-2.6,9.9-1a7.62,7.62,0,0,1,3.4,4.5c1.9,5.9-3.2,11.5-2,12.4.8.5,3.5-1.7,6.5-4.2,4.5-3.8,8.1-7.1,10.7-9.5,3.2-2.5,7-3.3,9.9-2a8,8,0,0,1,3.7,4c2.3,4.5.4,9.3-.4,11.4a23.48,23.48,0,0,1-4.5,7.1c-4.9,5.9-9.1,7.1-9.5,11.3a3.58,3.58,0,0,0,.8,3.1c1.6,1.4,4.2-.7,6.5.2,2.9,1.2,4.2,7.3,2,11.7-2,3.9-6.6,6.3-10.7,6.5-6.4.3-9.7-4.6-14-2.7-1.3.6-2.9,1.8-2.9,3.2.1,2.2,4.4,2.5,5.6,5.7a5.36,5.36,0,0,1-.7,5c-2.1,2.6-6.5,1.3-18.2,2-3.9.2-6.3.6-6.5,1.5-.3,1.4,4.8,2.1,6,5.5s-2.1,8.2-6.1,10.3a13.84,13.84,0,0,1-6.9,1.4C85.2,363.5,72,350.2,72,350.2A48.46,48.46,0,0,1,61.7,334Z" transform="translate(-41.99 -102.4)"/><path class="cls-48" d="M260.3,436.7c-5.9,4.6-14,10.8-23.8,17.3a96.89,96.89,0,0,1-5.2-16.8,105.16,105.16,0,0,1-2-11.8v-.2h.1a33.47,33.47,0,0,1,7.7.1,37.92,37.92,0,0,1,14.3,4.7A50.61,50.61,0,0,1,260.3,436.7Z" transform="translate(-41.99 -102.4)"/><path class="cls-49" d="M274.9,469.4c-2.3,5.4-9.5,6.4-11,6.6-6.5.9-11.6-2.4-14.1-4a30.19,30.19,0,0,1-8.8-9.3c3.5-4.5,7.4-8.9,13.6-11.3,3.3-1.3,5.6-2.3,8.3-1.5,4,1.2,4.1,4.9,9.7,9.6a30.49,30.49,0,0,0,2.8,2A12.87,12.87,0,0,1,274.9,469.4Z" transform="translate(-41.99 -102.4)"/><path class="cls-50" d="M118.3,218a23.46,23.46,0,0,1-.3-12,22.43,22.43,0,0,1,4.7-9.4,19.83,19.83,0,0,1,8.1-.5,21.37,21.37,0,0,1,12,6.8c3.5,11.2,7,22.5,10.4,33.7,3.1.8,4.5.1,5.2-.5,4-3.5-6.2-13.2-6.1-29.4,0,0,.2-15.1-4-18.3a.37.37,0,0,1-.2-.3c.1-.8,7.4-1.3,13.5,0a30,30,0,0,1,12,5.9c-.5,11.8-.9,23.7-1.4,35.5.6,3.6,1.2,7.3,1.8,10.9,1.9-1.5,3.8-3,5.6-4.5.1-6.7.2-13.3.4-20l2.5-16.8a20.11,20.11,0,0,1,18.7,16.5,174.38,174.38,0,0,1-7.3,21.3c-2.2,5.3-4.5,10.2-6.8,14.7,1,2,1.9,4,2.9,6l16.6-24.5,1.1-11.9c1.6.2,8.9,1.1,13.8,7.5.2.3,5.4,7.2,3.6,15.2-3.3,15.2-28.7,19.1-27.6,26.4.2,1.2,1.2,3.1,6,4.8l11.8-9.4c5.8-1.4,11.6-2.8,17.5-4.1,10.7,9.8,11,16,10.4,19.1s-2.4,4.1-14.6,16.4c-7.2,7.3-8.7,9.1-10,10.8a58.33,58.33,0,0,0-8.3,15.5l-14.2,2.7L181,331.9c-8.4,2.9-16.7,5.8-25.1,8.7a12,12,0,0,1-9.5-2.5,12.27,12.27,0,0,1-4.1-9.7c6.1-3.1,12.3-6.2,18.4-9.3,0,0,16.4-17,15.3-18.2a.6.6,0,0,0-.4-.1c-3.6.7-16.4,8-21.1,10.3-.1,0-18.7,4.8-18.5,4.8h0c-4.1-.8-5-2.6-5.2-3.1-1.2-3.1,2.6-8.7,10.4-12.9,8.1-6,16.3-12,24.4-18-8.1,1.5-16.2,2.9-24.3,4.4l-14.6,14.9a27.79,27.79,0,0,1-4.8-15.7,26.14,26.14,0,0,1,2.7-11,72.59,72.59,0,0,1,35.8-5.1c-.2-3.6-.4-7.2-.7-10.8a56,56,0,0,1-14.3,5.9,58.93,58.93,0,0,1-25.3.6c-2-.8-4-1.5-6-2.3a33.6,33.6,0,0,1-.1-13.3,35,35,0,0,1,5.4-12.7c5.3,2.6,10.6,5.1,15.9,7.7,4.9.3,9.7.6,14.6,1l-24.8-16.2C123.1,225.5,120.7,221.8,118.3,218Z" transform="translate(-41.99 -102.4)"/><path class="cls-51" d="M166.5,296.1a37.1,37.1,0,0,1,22.1,4.8c15.4,8.8,27.7,29.9,23.6,39.5-2.3,5.4-9.5,6.4-11,6.6-6.5.9-11.6-2.4-14.1-4C170.6,332.3,166.8,298.4,166.5,296.1Z" transform="translate(-41.99 -102.4)"/><path class="cls-52" d="M182.7,270.6a37.1,37.1,0,0,1,22.1,4.8c15.4,8.8,27.7,29.9,23.6,39.5-2.3,5.4-9.5,6.4-11,6.6-6.5.9-11.6-2.4-14.1-4C186.8,306.7,182.9,272.8,182.7,270.6Z" transform="translate(-41.99 -102.4)"/><path class="cls-53" d="M192.6,245a37.1,37.1,0,0,1,22.1,4.8c15.4,8.8,27.7,29.9,23.6,39.5-2.3,5.4-9.5,6.4-11,6.6-6.5.9-11.6-2.4-14.1-4C196.7,281.1,192.8,247.2,192.6,245Z" transform="translate(-41.99 -102.4)"/><path class="cls-54" d="M161.4,324.9a37.1,37.1,0,0,1,22.1,4.8c15.4,8.8,27.7,29.9,23.6,39.5-2.3,5.4-9.5,6.4-11,6.6-6.5.9-11.6-2.4-14.1-4C165.5,361.1,161.7,327.2,161.4,324.9Z" transform="translate(-41.99 -102.4)"/><path class="cls-55" d="M507.1,315.7c-3.5-.2-9.8.5-16.9,7.3-12.1,11.6-22.9,37.6-20.5,48.8a8.58,8.58,0,0,0,7.7,7.1c4.8.6,8.8-3.7,10.8-5.8C501.3,359,506.7,318.3,507.1,315.7Z" transform="translate(-41.99 -102.4)"/><path class="cls-56" d="M235,384.2c-5.9,4.6-14,10.8-23.8,17.3a96.89,96.89,0,0,1-5.2-16.8,105.16,105.16,0,0,1-2-11.8v-.2h.1a33.47,33.47,0,0,1,7.7.1,37.92,37.92,0,0,1,14.3,4.7A45.14,45.14,0,0,1,235,384.2Z" transform="translate(-41.99 -102.4)"/><path class="cls-57" d="M286.8,419.4l-16.2,8.8s-2.9,2.6-8,6.7a108.94,108.94,0,0,1-4.3-14.4,105.16,105.16,0,0,1-2-11.8v-.2h.1a33.47,33.47,0,0,1,7.7.1,38.48,38.48,0,0,1,14.3,4.7A40.87,40.87,0,0,1,286.8,419.4Z" transform="translate(-41.99 -102.4)"/></g><g id="Content"><g id="Content-2" data-name="Content"><path class="cls-58" d="M201.8,207.1v189a18.84,18.84,0,0,0,18.8,18.8H473.3a18.84,18.84,0,0,0,18.8-18.8v-189a18.84,18.84,0,0,0-18.8-18.8H220.6A18.71,18.71,0,0,0,201.8,207.1Z" transform="translate(-41.99 -102.4)"/><path class="cls-59" d="M222.7,400.2H355.5a8.71,8.71,0,0,0,8.7-8.7v-4.3a8.71,8.71,0,0,0-8.7-8.7H222.7a8.71,8.71,0,0,0-8.7,8.7v4.3A8.71,8.71,0,0,0,222.7,400.2Z" transform="translate(-41.99 -102.4)"/><path class="cls-60" d="M222.4,225.1h96.5a3.9,3.9,0,0,0,3.9-3.9v-2a3.9,3.9,0,0,0-3.9-3.9H222.4a3.9,3.9,0,0,0-3.9,3.9v2A3.9,3.9,0,0,0,222.4,225.1Z" transform="translate(-41.99 -102.4)"/><path class="cls-61" d="M473.8,203.2h4.1a3.9,3.9,0,0,0,3.9-3.9v-2a3.9,3.9,0,0,0-3.9-3.9h-4.1a3.9,3.9,0,0,0-3.9,3.9v2A3.78,3.78,0,0,0,473.8,203.2Z" transform="translate(-41.99 -102.4)"/><path class="cls-62" d="M459.4,203.2h4.1a3.9,3.9,0,0,0,3.9-3.9v-2a3.9,3.9,0,0,0-3.9-3.9h-4.1a3.9,3.9,0,0,0-3.9,3.9v2A3.9,3.9,0,0,0,459.4,203.2Z" transform="translate(-41.99 -102.4)"/><path class="cls-63" d="M445.1,203.2h4.1a3.9,3.9,0,0,0,3.9-3.9v-2a3.9,3.9,0,0,0-3.9-3.9h-4.1a3.9,3.9,0,0,0-3.9,3.9v2A3.84,3.84,0,0,0,445.1,203.2Z" transform="translate(-41.99 -102.4)"/><path class="cls-64" d="M438.5,386.8v-5.2a3.6,3.6,0,0,0-7.2,0v4.2h-3.9a4.91,4.91,0,0,0-4.9,4.9v5.2a4.91,4.91,0,0,0,4.9,4.9h8.2a4.91,4.91,0,0,0,4.9-4.9v-5.2A4.88,4.88,0,0,0,438.5,386.8Z" transform="translate(-41.99 -102.4)"/><path class="cls-65" d="M466.8,392v5.2a3.6,3.6,0,0,1-7.2,0V393h-3.9a4.91,4.91,0,0,1-4.9-4.9v-5.2a4.91,4.91,0,0,1,4.9-4.9h8.2a4.91,4.91,0,0,1,4.9,4.9v5.2A4.61,4.61,0,0,1,466.8,392Z" transform="translate(-41.99 -102.4)"/><path class="cls-66" d="M215.8,240.9V361c0,6.6,5.8,12,12.8,12H400.1c7,0,12.8-5.4,12.8-12V240.9c0-6.6-5.8-12-12.8-12H228.6C221.6,228.9,215.8,234.3,215.8,240.9Z" transform="translate(-41.99 -102.4)"/><path class="cls-67" d="M325.5,295.7l-23.8-13.8a6.12,6.12,0,0,0-9.2,5.3v27.5a6.12,6.12,0,0,0,9.2,5.3l23.8-13.8A6.09,6.09,0,0,0,325.5,295.7Z" transform="translate(-41.99 -102.4)"/><path class="cls-68" d="M201.8,207.1v189a18.84,18.84,0,0,0,18.8,18.8H389.5L296.1,232.1,285,210.4l-11.3-22.1H220.5A18.69,18.69,0,0,0,201.8,207.1Z" transform="translate(-41.99 -102.4)"/><path class="cls-69" d="M427.7,232.1v32a3.27,3.27,0,0,0,3.4,3.2h45.7a3.27,3.27,0,0,0,3.4-3.2v-32a3.27,3.27,0,0,0-3.4-3.2H431.1A3.4,3.4,0,0,0,427.7,232.1Z" transform="translate(-41.99 -102.4)"/><path class="cls-69" d="M427.7,290.1v32a3.27,3.27,0,0,0,3.4,3.2h45.7a3.27,3.27,0,0,0,3.4-3.2v-32a3.27,3.27,0,0,0-3.4-3.2H431.1A3.48,3.48,0,0,0,427.7,290.1Z" transform="translate(-41.99 -102.4)"/><path class="cls-70" d="M429.9,281.5h46.4a3.9,3.9,0,0,0,3.9-3.9v-2a3.9,3.9,0,0,0-3.9-3.9H429.9a3.9,3.9,0,0,0-3.9,3.9v2A3.9,3.9,0,0,0,429.9,281.5Z" transform="translate(-41.99 -102.4)"/><path class="cls-71" d="M430.8,340.6h46.4a3.9,3.9,0,0,0,3.9-3.9v-2a3.9,3.9,0,0,0-3.9-3.9H430.8a3.9,3.9,0,0,0-3.9,3.9v2A3.9,3.9,0,0,0,430.8,340.6Z" transform="translate(-41.99 -102.4)"/></g></g><g id="Layer_5" data-name="Layer 5"><path class="cls-72" d="M237.1,425.3c-.8,1.6-1.5,3-2,4.2-1.4,2.9-2.6,5.4-3.8,7.7-6.5,13.1-9.3,17.3-10.9,19.7a103.76,103.76,0,0,1-10.4,13,245.57,245.57,0,0,1-33.4,14.9,11.84,11.84,0,0,1-2-2.7,18,18,0,0,1-2-4.7,44.09,44.09,0,0,1-1.1-12.5c.5-17.9,5.4-31.3,8.9-41.3,10.2-28.9,5.6-19.7,13.7-41.6.8-2,1.6-4.2,2.4-6.4,1-2.7,2.1-5.4,3.3-8.3,1.7-4.3,3.5-8.7,5.5-13.4,1.4-3.4,2.9-6.8,4.5-10.4,1.1-2.4,2.2-4.9,3.3-7.4q3-6.6,6.3-13.5c-3.6,16-7.2,32.1-10.8,48.1-.4,1.8-.8,3.5-1.2,5.3q-12,45.9-23.8,91.8c15.8-43.3,28.4-77.6,38.5-104.5,25.7-68.3,35-89.1,36.5-87.9,2,1.5-7.9,41.8-25.7,93.5-7.4,21.4-16.1,44.8-25.9,68.1-5.4,12.8-10.3,23.8-14.4,32.7-.4.8-.7,1.6-1.1,2.4.6-.9,1.1-1.8,1.7-2.7,19.7-32,34-54.5,44.2-69.9,15.8-24,21.8-30.9,22.8-29.7C262.2,372.4,245,408.6,237.1,425.3Z" transform="translate(-41.99 -102.4)"/><path class="cls-73" d="M424.3,440c-1.2,2.9-3.1,3.5-17.5,13.1-6.8,4.5-9.3,6.4-10.9,7.7a10.63,10.63,0,0,0-1.1.9,60.31,60.31,0,0,0-11.3,13.6c-4.1,0-8.2-.1-12.3-.1a49.11,49.11,0,0,1-8.2-9.9c-1.8-2.9-3.6-6.5-8-9.3a19.53,19.53,0,0,0-8.4-2.7c4.3-3.2,8-6.3,7.6-6.9a.49.49,0,0,0-.3-.1c-3.7,0-17.7,4.6-22.7,5.9l-19,1a8.5,8.5,0,0,1-3.6-2.5,3.17,3.17,0,0,1-.8-1.6c-.6-3.3,4.3-8,12.8-10.6,9.2-4.3,18.3-8.5,27.5-12.8l-24.7-.6c-5.8,3.9-11.5,7.8-17.3,11.7l-.3-.6a26.64,26.64,0,0,1-1.3-15.7,26.14,26.14,0,0,1,4.8-10.2,69,69,0,0,1,17.4-1.2,67.38,67.38,0,0,1,13.2,1.9c2,.5,3.9,1,5.5,1.5.2-1.3.4-2.5.5-3.8.3-2.3.7-4.6,1-7a56.18,56.18,0,0,1-15.2,2.9,54.15,54.15,0,0,1-15.1-1.3,63.73,63.73,0,0,1-9.8-3.1c-1.8-1.2-3.6-2.3-5.5-3.5a32.94,32.94,0,0,1,2.6-13,33.56,33.56,0,0,1,7.8-11.3c4.7,3.6,9.4,7.1,14.1,10.7l14.1,3.9L319,365.9c-1.6-4.1-3.2-8.2-4.7-12.4a22.89,22.89,0,0,1,2.1-11.8,23.62,23.62,0,0,1,6.4-8.3,19.8,19.8,0,0,1,8,1.2,20,20,0,0,1,10.3,9.1c1.2,11.7,2.4,23.4,3.5,35.1,2.9,1.4,4.4,1,5.3.5,4.7-2.7-3.5-14.2-.1-30.1,0,0,3.2-14.8-.3-18.7,0,0-.2-.2-.1-.3.3-.8,7.5.2,13.2,2.7a29.44,29.44,0,0,1,10.6,8.2c-2.8,11.4-5.5,22.8-8.3,34.2h0c0,.1-.1.2-.1.3-.1,3.7-.3,7.4-.4,11.1,2.1-1.1,4.3-2.2,6.4-3.3,1.4-6.5,2.9-13,4.3-19.5l1.8-4.8h0L381,348a28.53,28.53,0,0,1,3.6,1.3,20.21,20.21,0,0,1,11.5,18.6,173.74,173.74,0,0,1-11.4,19.5c-3.2,4.8-6.4,9.1-9.6,13,.3,1,.5,2,.8,3s.6,2.3.9,3.5l7.2-7,13.3-13.1.7-.7.3-1,3.1-10.4a12,12,0,0,1,1.9.7,20,20,0,0,1,10.2,9.4c0,.1.4.9.8,2.1.9,2.9,2,8.3-.3,13.5-3.6,8.1-13.4,11.2-21.4,13.7-6,1.9-10.8,3.5-11,6.6-.1,1.2.5,3.2,4.9,5.9,1-.5,1.9-1,2.9-1.5l10.5-5.4,17.9-.6C426.5,430.9,425.5,437.1,424.3,440Z" transform="translate(-41.99 -102.4)"/><path class="cls-74" d="M78.3,255.7a9.15,9.15,0,0,0-.1-1.7V214.7c2,8.6,3.6,16.6,4.9,24,.7,3.8,1.3,7.5,1.9,11a8.22,8.22,0,0,1-2.9,3A31.5,31.5,0,0,0,78.3,255.7Z" transform="translate(-41.99 -102.4)"/><path class="cls-75" d="M59.4,221.8c-2.2-27-2.3-45.6-1-46.2,1.1-.5,3.6,11.3,8.8,47.6,1.6,11.3,3.5,25,5.8,41.5-.8,2.8-1.2,5.1-3.1,6.8-1.2,1.2-2.6,1.6-4.7,2.2C62.5,254.9,60.6,237,59.4,221.8Z" transform="translate(-41.99 -102.4)"/><path class="cls-76" d="M57.2,275.3c-4.2.4-8.3.1-9.8-2.1-.2-.7-.3-1.5-.5-2.2-2.9-13.3-5.9-28.8-4.6-29.8.8-.6,3.5,4.2,9.6,20h0C53.5,265.2,55.2,269.9,57.2,275.3Z" transform="translate(-41.99 -102.4)"/><path class="cls-77" d="M89.4,321.7c-1,4.9-2.2,8.8-4.9,11.6a9.62,9.62,0,0,1-8.6,2.9,66.42,66.42,0,0,1-16.3-20.7,56.54,56.54,0,0,1-2.5-5.5,147.61,147.61,0,0,1,7.5-14c.4,1.2.9,2.5,1.3,3.7,2.5,7.1,5.3,15.1,8.3,23.9-1.6-7.1-3.4-16.3-5.3-26.9v-.3c-.3-2-.7-3.9-1-5.8,2.3-3.8,4.7-7.6,7.1-11.4.6,4.6,1.2,9.4,1.9,14.4,1.1,8.8,2.4,18.2,3.6,28.3-.3-9.5-.6-19-.9-28.6-.2-6.9-.4-13.8-.7-20.6,2.7-4.5,5.3-9.1,7.5-13.7.1.4.1.8.2,1.2,2.3,16.5.5,9.4,3,31.2.3,2.4.6,5.1.8,8.1A78.36,78.36,0,0,1,89.4,321.7Z" transform="translate(-41.99 -102.4)"/><path class="cls-78" d="M106.7,431.1s10.8,35.1,25.3,37.1c.7.1,2.7.4,3.1-1.4.9-4.1-7.3-15.5-8.5-17.2A65.8,65.8,0,0,0,106.7,431.1Z" transform="translate(-41.99 -102.4)"/><path class="cls-79" d="M103.3,394.8s1,32.3,16.3,39.5c.7.3,2.9,1.4,3.9.1,2.3-2.9-3.2-15.3-4.1-17.1A70.18,70.18,0,0,0,103.3,394.8Z" transform="translate(-41.99 -102.4)"/><path class="cls-80" d="M107.6,377.3s-.2,26.1,10.7,30.8c.5.2,2,.9,2.8-.2,1.7-2.5-1.9-12.1-2.5-13.6A45.07,45.07,0,0,0,107.6,377.3Z" transform="translate(-41.99 -102.4)"/><path class="cls-81" d="M118.5,361.4s-9,20.2,1.5,28.5c.5.4,1.9,1.6,3.2,1,2.8-1.2,2-10.2,1.8-11.6A39.38,39.38,0,0,0,118.5,361.4Z" transform="translate(-41.99 -102.4)"/><path class="cls-82" d="M120.5,337.2s-5.5,22.9,5.3,29.8c.5.3,2,1.3,3.1.5,2.4-1.8.4-11.2.1-12.6A41.63,41.63,0,0,0,120.5,337.2Z" transform="translate(-41.99 -102.4)"/><path class="cls-83" d="M144.6,410.9s-23.2,0-17.9,12.3a6.82,6.82,0,0,0,2.6,3.2c3.8,1.9,9.1-2.2,9.9-2.9C141.5,421.6,144.7,418,144.6,410.9Z" transform="translate(-41.99 -102.4)"/><path class="cls-84" d="M124.9,315.7s-5.5,22.9,5.3,29.8c.5.3,2,1.3,3.1.5,2.4-1.8.4-11.2.1-12.6A42.89,42.89,0,0,0,124.9,315.7Z" transform="translate(-41.99 -102.4)"/><path class="cls-85" d="M127.3,290.9s-5.5,22.9,5.3,29.8c.5.3,2,1.3,3.1.5,2.4-1.8.4-11.2.1-12.6A42.89,42.89,0,0,0,127.3,290.9Z" transform="translate(-41.99 -102.4)"/><path class="cls-86" d="M153.6,320.7s-1.1,25.6-12,19.1a6.19,6.19,0,0,1-2.7-3c-1.6-4.2,2.5-9.9,3.1-10.7C143.7,323.6,147.1,320.3,153.6,320.7Z" transform="translate(-41.99 -102.4)"/><path class="cls-87" d="M150,345.2s-1.1,25.6-12,19.1a6.19,6.19,0,0,1-2.7-3c-1.6-4.2,2.5-9.9,3.1-10.7A12.29,12.29,0,0,1,150,345.2Z" transform="translate(-41.99 -102.4)"/><path class="cls-88" d="M145.3,370s-1.1,25.6-12,19.1a6.19,6.19,0,0,1-2.7-3c-1.6-4.2,2.5-9.9,3.1-10.7A12.49,12.49,0,0,1,145.3,370Z" transform="translate(-41.99 -102.4)"/><path class="cls-89" d="M143.4,394.1s-7.4,19-15.8,10.9a5,5,0,0,1-1.7-3.1c-.4-3.6,4.8-6.7,5.5-7.2C133.6,393.5,137.6,391.9,143.4,394.1Z" transform="translate(-41.99 -102.4)"/><path class="cls-90" d="M143.2,429.1s-15.8,4.6-10.3,21.7c.3.8,1,3.2,2.2,4.1,2.8,2.1,5.8-5.1,6.3-6.2C142.6,445.5,144.3,439.5,143.2,429.1Z" transform="translate(-41.99 -102.4)"/><path class="cls-91" d="M150.6,452s-15.8,4.6-10.3,21.7c.3.8,1,3.2,2.2,4.1,2.8,2.1,5.8-5.1,6.3-6.2C150.1,468.5,151.7,462.5,150.6,452Z" transform="translate(-41.99 -102.4)"/><path class="cls-92" d="M148.7,294.4s-14.3,2.6-10,15a6,6,0,0,0,1.9,3c2.5,1.6,5.4-3.4,5.8-4.1C147.7,306.1,149.3,301.9,148.7,294.4Z" transform="translate(-41.99 -102.4)"/><path class="cls-93" d="M142.3,487.9a43.68,43.68,0,0,1-3.8-7.8c-3.3-8.8-.5-10.6-3.7-18.6-1.8-4.5-3.4-5.8-5.2-11.5a57.71,57.71,0,0,1-1.7-6.8c-1.3-5.8-2.6-10.5-3.8-14.6-2.4-8.8-3-9.7-3-12.3-.1-3.3.8-2.9,1.4-7.8.8-6.3-.5-7.6.6-12.2.7-3.2,1.5-2.8,3-7.4a64.52,64.52,0,0,0,2.1-9.1,72.52,72.52,0,0,1,4.4-14.2,53.2,53.2,0,0,1,.8-14.9c1.1-4.9,1.8-4.3,2.6-9,.6-3.8.2-5.4.9-16.4a37.18,37.18,0,0,1,.4-4.4,39.93,39.93,0,0,1,2.1-9,56.86,56.86,0,0,1-.4,6.3c-.6,7-1.5,8.5-1.7,13.6-.3,5.9.8,5.7.3,10.2-.5,5.8-2.3,6.5-3.3,11.9a37,37,0,0,0,0,12.2,81.3,81.3,0,0,0-4.5,14.1c-.8,3.6-.8,5-1.9,8.6-1.8,6.4-2.8,6-3.3,10-.5,4.3.5,5.8.2,11.8a42.56,42.56,0,0,1-1,7.3c.2,1.1,3.7,17.5,6.2,26.4.6,2.2,1.2,4.3,2.1,6.8,1.5,4.2,2.8,7.2,3.1,7.9C136.9,462.3,139.3,470,142.3,487.9Z" transform="translate(-41.99 -102.4)"/><path class="cls-94" d="M344.9,185.7a10.82,10.82,0,0,1,4.4,3.7,12.26,12.26,0,0,1,1.9,4.7,9.59,9.59,0,0,1-2.4,3.1,10.23,10.23,0,0,1-6.3,2.1c-5.1-2.4-10.3-4.7-15.4-7.1-1.3.9-1.5,1.6-1.5,2,0,2.6,6.7,2,12.5,7.3,0,0,5.4,4.9,7.8,4.4h.1c.3.3-1.9,3.1-4.3,4.8a13.82,13.82,0,0,1-6,2.4c-4.1-4-8.2-7.9-12.3-11.9-1.5-.9-3-1.9-4.5-2.8-.1,1.2-.1,2.3-.2,3.5,2.4,2.2,4.7,4.4,7.1,6.6l5.2,6.3a9.71,9.71,0,0,1-5.7,2.8,9.41,9.41,0,0,1-6.3-1.4,74.93,74.93,0,0,1-5.3-9.5c-1.2-2.5-2.2-4.9-3.1-7.2-1-.3-2-.6-3.1-.9l3.5,13.8,3.9,4.2a10,10,0,0,1-7.1,2.5,9.68,9.68,0,0,1-6.6-3.6c-4.4-6.1,2.4-16.4-.6-18.4-.5-.3-1.5-.6-3.7.6-.1,2.4-.3,4.8-.4,7.3-1.4,2.5-2.8,5.1-4.1,7.6-6.9.7-9.3-1.2-10.2-2.4s-.7-2.2-1.2-10.5a52.28,52.28,0,0,0-.7-7.1,31,31,0,0,0-2.9-8l3.6-6,2.8-7.3c1.7-3.9,3.3-7.9,5-11.8a5.82,5.82,0,0,1,4-2.6,5.93,5.93,0,0,1,4.8,1.6c-.9,3.2-1.7,6.4-2.6,9.6,0,0,.8,11.3,1.6,11.3a.1.1,0,0,0,.1-.1c.9-1.5,2.4-8.5,3.1-10.8,0,0,4.3-8.3,4.2-8.2h0a3.42,3.42,0,0,1,2.8-.9c1.5.6,2.3,3.7,1.3,7.9-.5,4.8-.9,9.7-1.4,14.5,2.1-3.4,4.2-6.7,6.3-10.1-.2-3.3-.4-6.7-.7-10a13.37,13.37,0,0,1,7.2,3.3,14,14,0,0,1,3.1,4.5,34.23,34.23,0,0,1-3.7,7.5,30.8,30.8,0,0,1-6,6.9c1.4,1.1,2.7,2.2,4.1,3.2a26,26,0,0,1,2.5-7,27.11,27.11,0,0,1,7.9-9.2c.9-.5,1.8-.9,2.8-1.4a16.29,16.29,0,0,1,7.6,10.3c-2.6,1.1-5.2,2.2-7.9,3.2-1.7,1.6-3.4,3.3-5,4.9l13.8-3.7A26.72,26.72,0,0,0,344.9,185.7Z" transform="translate(-41.99 -102.4)"/></g></svg>