<?xml version="1.0" encoding="utf-8"?>
<!-- Generator: Adobe Illustrator 23.1.0, SVG Export Plug-In . SVG Version: 6.00 Build 0)  -->
<svg version="1.1" xmlns="http://www.w3.org/2000/svg" xmlns:xlink="http://www.w3.org/1999/xlink" x="0px" y="0px"
	 viewBox="0 0 592.3 574.5" style="enable-background:new 0 0 592.3 574.5;" xml:space="preserve">
<style type="text/css">
	.st0{fill:url(#SVGID_1_);}
	.st1{fill:url(#SVGID_2_);}
	.st2{fill:url(#SVGID_3_);}
	.st3{fill:url(#SVGID_4_);}
	.st4{fill:url(#SVGID_5_);}
	.st5{fill:url(#SVGID_6_);}
	.st6{fill:url(#SVGID_7_);}
	.st7{fill:url(#SVGID_8_);}
	.st8{fill:url(#SVGID_9_);}
	.st9{fill:url(#SVGID_10_);}
	.st10{fill:url(#SVGID_11_);}
	.st11{fill:url(#SVGID_12_);}
	.st12{fill:url(#SVGID_13_);}
	.st13{fill:url(#SVGID_14_);}
	.st14{fill:url(#SVGID_15_);}
	.st15{fill:url(#SVGID_16_);}
	.st16{fill:url(#SVGID_17_);}
	.st17{fill:url(#SVGID_18_);}
	.st18{fill:url(#SVGID_19_);}
	.st19{fill:url(#SVGID_20_);}
	.st20{fill:url(#SVGID_21_);}
	.st21{fill:url(#SVGID_22_);}
	.st22{fill:url(#SVGID_23_);}
	.st23{fill:url(#SVGID_24_);}
	.st24{fill:url(#SVGID_25_);}
	.st25{fill:url(#SVGID_26_);}
	.st26{fill:url(#SVGID_27_);}
	.st27{fill:url(#SVGID_28_);}
	.st28{fill:url(#SVGID_29_);}
	.st29{fill:url(#SVGID_30_);}
	.st30{fill:url(#SVGID_31_);}
	.st31{fill:url(#SVGID_32_);}
	.st32{fill:url(#SVGID_33_);}
	.st33{fill:url(#SVGID_34_);}
	.st34{fill:url(#SVGID_35_);}
	.st35{fill:url(#SVGID_36_);}
	.st36{fill:url(#SVGID_37_);}
	.st37{fill:url(#SVGID_38_);}
	.st38{fill:url(#SVGID_39_);}
	.st39{fill:url(#SVGID_40_);}
	.st40{fill:url(#SVGID_41_);}
	.st41{fill:url(#SVGID_42_);}
	.st42{fill:url(#SVGID_43_);}
	.st43{fill:url(#SVGID_44_);}
	.st44{fill:url(#SVGID_45_);}
	.st45{fill:url(#SVGID_46_);}
	.st46{fill:url(#SVGID_47_);}
	.st47{fill:url(#SVGID_48_);}
	.st48{fill:url(#SVGID_49_);}
	.st49{fill:url(#SVGID_50_);}
	.st50{fill:url(#SVGID_51_);}
	.st51{fill:url(#SVGID_52_);}
	.st52{fill:url(#SVGID_53_);}
	.st53{fill:url(#SVGID_54_);}
	.st54{fill:url(#SVGID_55_);}
	.st55{fill:url(#SVGID_56_);}
	.st56{fill:url(#SVGID_57_);}
	.st57{fill:#FFFFFF;}
	.st58{fill:url(#SVGID_58_);}
	.st59{fill:url(#SVGID_59_);}
	.st60{fill:url(#SVGID_60_);}
	.st61{fill:url(#SVGID_61_);}
	.st62{fill:url(#SVGID_62_);}
	.st63{fill:url(#SVGID_63_);}
	.st64{fill:url(#SVGID_64_);}
	.st65{fill:#E3E8E6;}
	.st66{fill:url(#SVGID_65_);}
	.st67{opacity:0.21;fill:url(#SVGID_66_);}
	.st68{fill:#A5AFAB;}
	.st69{fill:url(#SVGID_67_);}
	.st70{fill:url(#SVGID_68_);}
	.st71{fill:url(#SVGID_69_);}
	.st72{fill:url(#SVGID_70_);}
	.st73{fill:url(#SVGID_71_);}
	.st74{fill:url(#SVGID_72_);}
	.st75{fill:url(#SVGID_73_);}
	.st76{fill:url(#SVGID_74_);}
	.st77{fill:url(#SVGID_75_);}
	.st78{fill:url(#SVGID_76_);}
	.st79{fill:url(#SVGID_77_);}
	.st80{fill:url(#SVGID_78_);}
	.st81{fill:url(#SVGID_79_);}
	.st82{fill:url(#SVGID_80_);}
	.st83{fill:url(#SVGID_81_);}
	.st84{fill:url(#SVGID_82_);}
	.st85{fill:url(#SVGID_83_);}
	.st86{fill:url(#SVGID_84_);}
	.st87{fill:url(#SVGID_85_);}
	.st88{fill:url(#SVGID_86_);}
	.st89{fill:url(#SVGID_87_);}
	.st90{fill:url(#SVGID_88_);}
	.st91{fill:url(#SVGID_89_);}
	.st92{fill:url(#SVGID_90_);}
	.st93{fill:url(#SVGID_91_);}
</style>
<g id="Layer_3">
	<radialGradient id="SVGID_1_" cx="295.0581" cy="308.054" r="216.4403" gradientUnits="userSpaceOnUse">
		<stop  offset="0.348" style="stop-color:#FED8BA"/>
		<stop  offset="0.6207" style="stop-color:#F1C2AC"/>
		<stop  offset="1" style="stop-color:#CA6875"/>
	</radialGradient>
	<path class="st0" d="M461.5,276.6c-25,11.5-56.3,47-76.8,72.7c-2.8,3.5-5.3,6.8-7.7,9.8l0,0c-5.6,7.3-9.8,13-12,16.2v0
		c-1.2,1.7-1.9,2.7-1.9,2.7l-46.4,25.2l-29.9,16.3l-16.2,8.8c0,0-2.9,2.6-8,6.7c-0.7,0.6-1.5,1.2-2.3,1.8
		c-5.9,4.6-14,10.8-23.8,17.3c-7.9,5.3-16.9,10.8-26.5,16c-10.5,5.6-21.8,10.8-33.4,14.9c-9.4,3.3-19,5.8-28.7,7.2
		C86.6,501,105.1,402.7,63,360.5c-16.1-16.1-14-33-5.9-50.5c2.1-4.6,4.7-9.3,7.5-14c1-1.8,2.1-3.6,3.2-5.4c2.3-3.8,4.7-7.6,7.1-11.4
		c1.3-2.2,2.7-4.3,4-6.5c2.7-4.5,5.3-9.1,7.5-13.7c6.3-12.8,10.2-25.7,7.8-38.9c-8.9-50.3,59.4-19.9,77.9-76.1
		c18.5-56.2,157.7,20.4,157.7,20.4s37,26.2,44.7,42.8c7.7,16.6,50.4-30,80.9-62.6c10.2-10.9,19.2-12.3,27.6-8.2
		c0.5,0.2,1,0.5,1.5,0.8c0.9,0.5,1.9,1.1,2.8,1.7c2.4,1.6,4.7,3.7,7,6c0.5,0.5,1,1,1.4,1.5c0.3,0.4,0.7,0.7,1,1.1
		c8.9,9.8,17.5,23.4,26.9,35.5c1.1,1.4,2.2,2.8,3.3,4.2c1.7,2.1,3.5,4.2,5.3,6.1C559.1,222.4,502.3,257.7,461.5,276.6z"/>
	<linearGradient id="SVGID_2_" gradientUnits="userSpaceOnUse" x1="388.1937" y1="360.1726" x2="473.6251" y2="508.1441">
		<stop  offset="0.1022" style="stop-color:#FED8BA"/>
		<stop  offset="0.5888" style="stop-color:#CA6875"/>
	</linearGradient>
	<path class="st1" d="M489.5,448c-0.8,16.9,21.8,22.9,20.4,33.9c-1.9,15.4-49.1,26.7-86.4,18.7c-11.6-2.5-20.5-6.5-23.5-7.9
		c-9.4-4.4-20.2-9.4-28.8-17.5c-3.1-2.9-5.9-6.2-8.2-9.9c-1.8-2.9-3.6-6.5-8-9.3c-0.8-0.5-3.4-2.1-8.4-2.7c-2.7-0.3-6-0.4-10.1,0.1
		c-14.3,1.8-15.7,7.9-27.2,8.7c-7.7,0.5-18.8-1.6-20.4-7c-1.5-5.1,5.3-13,16.8-18.8c0.2-0.1,0.4-0.2,0.6-0.3
		c6.1-7.1,16.2-17,31-23.9c0.8-0.4,1.7-0.8,2.5-1.1c2.1-0.9,4.1-1.7,6-2.3c12.6-4,20-2,30-5.2c2-0.6,4.1-1.5,6.3-2.6
		c0.6-0.3,1.2-0.6,1.7-0.9c6.5-3.7,10.2-8,13.3-13.1c0.3-0.5,0.7-1.1,1-1.7c1.7-2.9,3.2-6.2,5-9.7c4.3-8.5,9.9-18.7,22-31.2
		c4.8-4.9,20.2-20,44.5-29.7c11.7-4.6,28.9-10,41.8-3.1c3.8,2,7,6.2,9.1,13.9c6.1,22.4,16.2,31.6,16.3,43.9
		c0.1,6.9-2.8,11.3-7.4,20.2c-7.6,14.8-14.2,18-29.4,39.2C490,443,489.6,446.3,489.5,448z"/>
	<linearGradient id="SVGID_3_" gradientUnits="userSpaceOnUse" x1="262.4688" y1="449.6374" x2="262.4688" y2="486.7816">
		<stop  offset="0" style="stop-color:#FED8BA"/>
		<stop  offset="0.7101" style="stop-color:#CA6875"/>
	</linearGradient>
	<path class="st2" d="M288.8,479.8c-1.3,1.3-3.4,3-8.5,4.6c-4.8,1.5-12.6,3.9-21.1,1c-5.5-1.8-4.6-3.6-9.4-4.8
		c-8.7-2.1-15.1,2.5-17-0.1c-0.9-1.2,0-3.1,1.6-7c1.8-4.4,4.1-7.4,5.1-8.8c0.5-0.7,1.1-1.4,1.6-2.1c3.5-4.5,7.4-8.9,13.6-11.3
		c3.3-1.3,5.6-2.3,8.3-1.5c4,1.2,4.1,4.9,9.7,9.6c0.7,0.6,1.6,1.2,2.8,2c1.4,0.9,3.3,1.9,5.8,3.3c8.3,4.7,10.8,5.2,11.3,7.7
		C293,475.5,290.1,478.5,288.8,479.8z"/>
	<linearGradient id="SVGID_4_" gradientUnits="userSpaceOnUse" x1="320.1519" y1="149.4435" x2="326.8555" y2="137.8326">
		<stop  offset="0.1022" style="stop-color:#FED8BA"/>
		<stop  offset="0.5888" style="stop-color:#CA6875"/>
	</linearGradient>
	<path class="st3" d="M313.6,139.8c0,0,15.6-4.8,15.8,0.8c0.1,4.4,3.6,4.7,4.1,6.6c0.1,0.6-0.1,1.1-0.4,1.9
		c-0.7,1.7-2.6,4.6-4.5,4.5c-1.7-0.1-1.5-2.4-4.2-4c-2.4-1.5-3.4-0.1-6.6-1.5c0,0-4-1.8-5.2-5.6c-0.1-0.5-0.4-1.4,0-2
		C312.9,140,313.3,139.9,313.6,139.8z"/>
	<linearGradient id="SVGID_5_" gradientUnits="userSpaceOnUse" x1="360.6737" y1="178.2288" x2="370.1892" y2="161.7474">
		<stop  offset="0.1022" style="stop-color:#FED8BA"/>
		<stop  offset="0.5888" style="stop-color:#CA6875"/>
	</linearGradient>
	<path class="st4" d="M372.7,164.3c0.1,0.3,0.3,0.7-0.1,1.5c-2.6,6.8-2.4,7.7,1.7,11.7c4.1,4,8.2,7.8,4.3,7.8
		c-3.9,0-7.3,0.5-9.9-3.4c-2.6-3.8-15.3-9.7-15.8-11.4c-1.3-5.1-7.2-5.6-6.7-7.7c0.3-1.1,1.2-1.8,1.5-2.1
		C353.3,156.6,371.4,159.6,372.7,164.3z"/>
	<linearGradient id="SVGID_6_" gradientUnits="userSpaceOnUse" x1="495.4983" y1="273.2318" x2="514.54" y2="273.2318">
		<stop  offset="0" style="stop-color:#FED8BA"/>
		<stop  offset="0.3341" style="stop-color:#CA6875"/>
	</linearGradient>
	<path class="st5" d="M511.3,287.1c0,0-18.9,0.2-15.3-8.3c2.9-6.7-0.4-8.8,0.4-11.8c0.3-1,0.8-1.6,1.7-2.7c1.9-2.3,5.7-5.8,7.6-4.7
		c1.6,1-0.1,4.3,1.4,7.9c1.4,3.3,3.3,1.7,5.6,5.3c0,0,2.8,4.5,1.5,10.8c-0.2,0.8-0.5,2.3-1.4,3.1
		C512.2,287.1,511.6,287.1,511.3,287.1z"/>
	<linearGradient id="SVGID_7_" gradientUnits="userSpaceOnUse" x1="85.9448" y1="248.1069" x2="46.9003" y2="248.1069">
		<stop  offset="0" style="stop-color:#FED8BA"/>
		<stop  offset="0.7101" style="stop-color:#CA6875"/>
	</linearGradient>
	<path class="st6" d="M85,249.7c-0.6,1.1-1.5,2.1-2.9,3c-1.5,1-2.8,2-3.8,3c-3.4,3.2-4.6,6.3-5.4,8.9c-0.8,2.8-1.2,5.1-3.1,6.8
		c-1.2,1.2-2.6,1.6-4.7,2.2c-0.2,0.1-0.5,0.1-0.8,0.2c-2,0.6-4.6,1.2-7.2,1.4c-4.2,0.4-8.3,0.1-9.8-2.1c-0.1-0.1-0.1-0.2-0.2-0.4
		c-0.3-0.6-0.4-1.2-0.3-1.8c0.4-2.5,3.5-5.3,5-9.8c0,0,0,0,0,0c0.3-0.9,0.5-1.9,0.7-2.9c1-7-3.9-6.6-4.1-15c0,0-0.3-10.6,8.2-19.3
		c0.6-0.6,1.5-1.5,2.6-2.3c0.8-0.5,1.8-1,2.7-1.1c1.4-0.2,2.4,0.5,2.9,0.9c0,0,0.8,0.6,2.2,1.6c2.6,1.9,7.1,5.5,11.1,9.5
		c1.8,1.9,3.6,4,4.9,6C85.7,242.5,86.9,246.4,85,249.7z"/>
</g>
<g id="Layer_4">
	
		<linearGradient id="SVGID_8_" gradientUnits="userSpaceOnUse" x1="315.3275" y1="290.8414" x2="400.599" y2="239.1892" gradientTransform="matrix(1.4393 0.6125 0.8788 -2.0651 -584.07 711.0093)">
		<stop  offset="0.4832" style="stop-color:#119A89"/>
		<stop  offset="0.9615" style="stop-color:#224193"/>
	</linearGradient>
	<path class="st7" d="M219.7,443c5-7.8,19.9-32.6,18.5-58.4c-0.2-4.1-0.8-7.8-1.7-11.1c-7.3-10.2-13.3-10.9-17.4-9.6
		c-6.9,2.2-12.7,11-16.8,8.7c-1.5-0.8-2.4-2.8-2.5-4.8c-0.3-4.4,3.4-7,4.8-13.2c0.1-0.6,1.4-6.8-1.1-11.1c-2.4-4.1-7.7-5.4-11.8-2.4
		c-1,0.7-1.8,1.6-2.3,2.3c-6,3.3-8.5,2.2-9.6,1.2c-2.3-2-1.7-6.3-2.3-15.3c-0.4-6.1-1.1-10.9-1.6-13.9c-2.6-5.1-6.9-7.3-11.1-5.7
		c-3.7,1.4-6.3,5.4-7.1,6.7c-6.2,9.8-4,21.7-5.9,22.6c-1.3,0.7-3-4.3-4.9-10c-2.7-8.5-4.8-15.7-6.3-21.1c-2.1-5.7-6.1-8.6-10.5-7.4
		c-3.3,0.9-5.8,4-7.1,5.6c-5.7,7.1-6.8,16.3-7.2,20.3c-0.7,6.2-0.1,10.6,0.5,14.4c1.9,12.4,6.1,16.2,3.7,23.7c-0.4,1.1-1.3,4-3,5.1
		c-2.9,1.8-4.6-2.9-7.9-2.1c-4.3,1-10,11.2-10.3,19.9c-0.3,7.8,3.6,13.7,8.4,15.7c7.4,3.1,14.7-4.4,18.6,0.7
		c1.2,1.5,2.2,4.4,1.2,6.8c-1.6,3.8-7,2.8-10.6,8c-1.6,2.3-3,6.2-2.6,9.2c0.8,5.3,6.9,4.8,20.4,10.7c4.4,2,7.1,3.5,6.7,5.2
		c-0.6,2.6-7.1,1.8-10.8,7.4c-3.7,5.6-3,15.4,0.3,20.7c2.4,3.7,5.8,4.7,7.3,5.1c34.1,8.9,58.8-9.4,58.8-9.4
		C201.7,463.5,210.6,456,219.7,443z"/>
	
		<linearGradient id="SVGID_9_" gradientUnits="userSpaceOnUse" x1="435.5755" y1="391.5165" x2="528.6573" y2="391.5165" gradientTransform="matrix(-1.1379 -0.2323 -0.2968 1.4543 1107.5343 -22.8481)">
		<stop  offset="0" style="stop-color:#4981BA"/>
		<stop  offset="0.4592" style="stop-color:#C498BD"/>
	</linearGradient>
	<path class="st8" d="M393.8,411.2c-2.3,5.7-9.1,23.7-3.8,40.4c0.8,2.6,1.9,5,3,7c6.9,5.8,11.3,5.6,14.1,4.3
		c4.6-2.2,7.3-8.7,10.7-7.7c1.2,0.4,2.2,1.5,2.6,2.9c0.9,2.9-1.3,5-1.3,9.2c0,0.4,0.1,4.6,2.6,7.1c2.4,2.4,6.4,2.6,8.9,0.2
		c0.6-0.6,1-1.3,1.3-1.8c3.8-2.9,5.8-2.4,6.7-1.9c2,1.1,2.3,3.9,4.1,9.7c1.3,3.9,2.5,7,3.4,8.9c2.7,3,6.1,4,9,2.4
		c2.4-1.4,3.6-4.3,4-5.2c2.9-7.1-0.7-14.6,0.6-15.5c0.8-0.6,2.9,2.4,5.1,6c3.4,5.2,6.1,9.7,8,13c2.4,3.5,5.8,4.9,8.8,3.6
		c2.2-1,3.5-3.3,4.2-4.5c3-5.3,2.2-11.5,1.9-14.1c-0.5-4.1-1.7-6.9-2.7-9.4c-3.4-7.9-7-9.9-6.5-15.1c0.1-0.8,0.3-2.7,1.4-3.7
		c1.8-1.5,3.8,1.4,6,0.5c3-1.2,5.3-8.5,4.2-14.2c-1-5.1-4.9-8.6-8.6-9.3c-5.8-1.1-9.9,4.6-13.5,1.7c-1.1-0.9-2.3-2.6-2-4.3
		c0.5-2.7,4.6-2.6,6.3-6.4c0.8-1.7,1.2-4.4,0.4-6.3c-1.4-3.4-5.8-2.3-16.5-4.6c-3.5-0.8-5.7-1.4-5.7-2.6c0-1.8,4.9-2,6.6-6.1
		c1.8-4.1-0.3-10.4-3.6-13.5c-2.3-2.2-4.9-2.4-6.1-2.5c-26-1.8-40.9,13-40.9,13C403.4,395.7,398.3,401.6,393.8,411.2z"/>
	<g>
		
			<linearGradient id="SVGID_10_" gradientUnits="userSpaceOnUse" x1="63.9777" y1="568.546" x2="98.6074" y2="568.546" gradientTransform="matrix(-0.6808 0.6524 0.6422 0.6702 106.8538 -209.0126)">
			<stop  offset="2.717173e-07" style="stop-color:#DA565C"/>
			<stop  offset="0.9567" style="stop-color:#A1474C"/>
		</linearGradient>
		<path class="st9" d="M416.8,201.6c0,0-12.7,34.5-2.3,44.8c0.5,0.5,1.9,2,3.3,0.8c3.2-2.7,3.6-16.8,3.6-18.9
			C421.6,222.2,421.1,212.1,416.8,201.6z"/>
		
			<linearGradient id="SVGID_11_" gradientUnits="userSpaceOnUse" x1="105.7839" y1="415.4193" x2="135.1008" y2="415.4193" gradientTransform="matrix(-0.8511 0.4059 0.3996 0.8378 367.7798 -204.034)">
			<stop  offset="2.717173e-07" style="stop-color:#DA565C"/>
			<stop  offset="0.9567" style="stop-color:#A1474C"/>
		</linearGradient>
		<path class="st10" d="M436,170.6c0,0-18.7,26.4-10.9,41.4c0.4,0.7,1.4,2.8,3,2.4c3.6-0.9,6.7-14.1,7.1-16.1
			C436.5,192.6,438.1,182.7,436,170.6z"/>
		
			<linearGradient id="SVGID_12_" gradientUnits="userSpaceOnUse" x1="1.8953" y1="271.898" x2="30.5186" y2="271.898" gradientTransform="matrix(-0.7076 0.3375 0.2815 0.5902 380.4617 9.919)">
			<stop  offset="2.717173e-07" style="stop-color:#DA565C"/>
			<stop  offset="0.9567" style="stop-color:#A1474C"/>
		</linearGradient>
		<path class="st11" d="M450,159.3c0,0-15.9,20.7-10.1,31c0.3,0.5,1.1,2,2.4,1.5c2.9-1,5.8-10.8,6.2-12.3
			C449.9,175.2,451.4,167.9,450,159.3z"/>
		
			<linearGradient id="SVGID_13_" gradientUnits="userSpaceOnUse" x1="139.1552" y1="94.7322" x2="162.5661" y2="94.7322" gradientTransform="matrix(-0.7803 7.548311e-02 6.296063e-02 0.6509 572.0842 93.4628)">
			<stop  offset="2.717173e-07" style="stop-color:#DA565C"/>
			<stop  offset="0.9567" style="stop-color:#A1474C"/>
		</linearGradient>
		<path class="st12" d="M468.3,153.2c0,0-19.4,10.6-16,23.6c0.2,0.6,0.6,2.4,1.9,2.7c2.9,0.7,7.8-7,8.5-8.1
			C464.7,168.1,467.7,162.1,468.3,153.2z"/>
		
			<linearGradient id="SVGID_14_" gradientUnits="userSpaceOnUse" x1="42.1645" y1="136.1062" x2="67.4617" y2="136.1062" gradientTransform="matrix(-0.7619 0.1847 0.154 0.6355 498.7414 53.4055)">
			<stop  offset="2.717173e-07" style="stop-color:#DA565C"/>
			<stop  offset="0.9567" style="stop-color:#A1474C"/>
		</linearGradient>
		<path class="st13" d="M484.5,135.2c0,0-18.2,14.9-13.8,27c0.2,0.6,0.8,2.3,2.1,2.3c3,0,7.1-8.7,7.7-10
			C482.3,150.7,484.8,144.1,484.5,135.2z"/>
		
			<linearGradient id="SVGID_15_" gradientUnits="userSpaceOnUse" x1="600.8785" y1="40.7479" x2="624.4568" y2="40.7479" gradientTransform="matrix(-0.6131 -0.4885 -0.4075 0.5114 839.1263 487.445)">
			<stop  offset="2.717173e-07" style="stop-color:#DA565C"/>
			<stop  offset="0.9567" style="stop-color:#A1474C"/>
		</linearGradient>
		<path class="st14" d="M459.2,208.4c0,0-18.5-14.1-21.7-1c-0.2,0.6-0.6,2.4,0.2,4.1c1.8,3.8,8.6,3.7,9.6,3.7
			C450.2,215.1,454.9,214.1,459.2,208.4z"/>
		
			<linearGradient id="SVGID_16_" gradientUnits="userSpaceOnUse" x1="17.371" y1="120.4518" x2="42.6682" y2="120.4518" gradientTransform="matrix(-0.7619 0.1847 0.154 0.6355 498.7414 53.4055)">
			<stop  offset="2.717173e-07" style="stop-color:#DA565C"/>
			<stop  offset="0.9567" style="stop-color:#A1474C"/>
		</linearGradient>
		<path class="st15" d="M501,120.6c0,0-18.2,14.9-13.8,27c0.2,0.6,0.8,2.3,2.1,2.3c3,0,7.1-8.7,7.7-10
			C498.8,136.2,501.2,129.6,501,120.6z"/>
		
			<linearGradient id="SVGID_17_" gradientUnits="userSpaceOnUse" x1="-9.0817" y1="99.3808" x2="16.2155" y2="99.3808" gradientTransform="matrix(-0.7619 0.1847 0.154 0.6355 498.7414 53.4055)">
			<stop  offset="2.717173e-07" style="stop-color:#DA565C"/>
			<stop  offset="0.9567" style="stop-color:#A1474C"/>
		</linearGradient>
		<path class="st16" d="M517.9,102.4c0,0-18.2,14.9-13.8,27c0.2,0.6,0.8,2.3,2.1,2.3c3,0,7.1-8.7,7.7-10
			C515.7,117.9,518.1,111.3,517.9,102.4z"/>
		
			<linearGradient id="SVGID_18_" gradientUnits="userSpaceOnUse" x1="-212.0792" y1="922.0384" x2="-185.8362" y2="922.0384" gradientTransform="matrix(-0.5036 0.6008 -0.5011 -0.4201 870.5539 652.1115)">
			<stop  offset="2.717173e-07" style="stop-color:#DA565C"/>
			<stop  offset="0.9567" style="stop-color:#A1474C"/>
		</linearGradient>
		<path class="st17" d="M520.8,142c0,0-16.4,19.7-21.1,8c-0.2-0.6-0.9-2.2-0.3-4.1c1.3-4.3,7.9-6.4,8.9-6.7
			C511.2,138.3,516,137.7,520.8,142z"/>
		
			<linearGradient id="SVGID_19_" gradientUnits="userSpaceOnUse" x1="-180.6771" y1="925.5945" x2="-154.4341" y2="925.5945" gradientTransform="matrix(-0.5036 0.6008 -0.5011 -0.4201 870.5539 652.1115)">
			<stop  offset="2.717173e-07" style="stop-color:#DA565C"/>
			<stop  offset="0.9567" style="stop-color:#A1474C"/>
		</linearGradient>
		<path class="st18" d="M503.2,159.4c0,0-16.4,19.7-21.1,8c-0.2-0.6-0.9-2.2-0.3-4.1c1.3-4.3,7.9-6.4,8.9-6.7
			C493.6,155.7,498.4,155.1,503.2,159.4z"/>
		
			<linearGradient id="SVGID_20_" gradientUnits="userSpaceOnUse" x1="-148.7823" y1="930.9531" x2="-122.5393" y2="930.9531" gradientTransform="matrix(-0.5036 0.6008 -0.5011 -0.4201 870.5539 652.1115)">
			<stop  offset="2.717173e-07" style="stop-color:#DA565C"/>
			<stop  offset="0.9567" style="stop-color:#A1474C"/>
		</linearGradient>
		<path class="st19" d="M484.5,176.3c0,0-16.4,19.7-21.1,8c-0.2-0.6-0.9-2.2-0.3-4.1c1.3-4.3,7.9-6.4,8.9-6.7
			C474.9,172.6,479.6,172,484.5,176.3z"/>
		
			<linearGradient id="SVGID_21_" gradientUnits="userSpaceOnUse" x1="-109.4388" y1="1199.5814" x2="-86.5811" y2="1199.5814" gradientTransform="matrix(-0.6006 0.3895 -0.2986 -0.4604 756.9366 783.2137)">
			<stop  offset="2.717173e-07" style="stop-color:#DA565C"/>
			<stop  offset="0.9567" style="stop-color:#A1474C"/>
		</linearGradient>
		<path class="st20" d="M468.4,194.3c0,0-17.4,10.6-19.2-0.9c-0.1-0.5-0.4-2.1,0.5-3.5c1.9-3.1,7.9-2.5,8.7-2.4
			C460.9,187.8,465,189.1,468.4,194.3z"/>
		
			<linearGradient id="SVGID_22_" gradientUnits="userSpaceOnUse" x1="635.6884" y1="283.9458" x2="656.4225" y2="283.9458" gradientTransform="matrix(-0.4398 -0.3504 -0.5842 0.7331 884.7024 247.2232)">
			<stop  offset="2.717173e-07" style="stop-color:#DA565C"/>
			<stop  offset="0.9567" style="stop-color:#A1474C"/>
		</linearGradient>
		<path class="st21" d="M447.1,222c0,0-15.4-5.8-21.3,11c-0.3,0.8-1.1,3.1-0.7,4.6c1,3.4,7.7-0.6,8.7-1.1
			C436.7,234.8,441.6,231,447.1,222z"/>
		
			<linearGradient id="SVGID_23_" gradientUnits="userSpaceOnUse" x1="621.4486" y1="308.2657" x2="642.1828" y2="308.2657" gradientTransform="matrix(-0.4398 -0.3504 -0.5842 0.7331 884.7024 247.2232)">
			<stop  offset="2.717173e-07" style="stop-color:#DA565C"/>
			<stop  offset="0.9567" style="stop-color:#A1474C"/>
		</linearGradient>
		<path class="st22" d="M439.1,244.8c0,0-15.4-5.8-21.3,11c-0.3,0.8-1.1,3.1-0.7,4.6c1,3.4,7.7-0.6,8.7-1.1
			C428.7,257.6,433.7,253.9,439.1,244.8z"/>
		
			<linearGradient id="SVGID_24_" gradientUnits="userSpaceOnUse" x1="645.7349" y1="-160.0126" x2="667.325" y2="-160.0126" gradientTransform="matrix(-0.3913 -0.3117 -0.4234 0.5313 712.1545 411.7756)">
			<stop  offset="2.717173e-07" style="stop-color:#DA565C"/>
			<stop  offset="0.9567" style="stop-color:#A1474C"/>
		</linearGradient>
		<path class="st23" d="M532.9,118c0,0-13-6.6-17.1,5.9c-0.2,0.6-0.8,2.3-0.4,3.6c1,2.8,6.4,0.6,7.2,0.2
			C524.9,126.8,528.8,124.5,532.9,118z"/>
		
			<linearGradient id="SVGID_25_" gradientUnits="userSpaceOnUse" x1="631.5116" y1="779.5196" x2="487.7331" y2="779.5196" gradientTransform="matrix(0.9491 -0.315 -0.315 -0.9491 177.412 1113.3702)">
			<stop  offset="2.717173e-07" style="stop-color:#DA565C"/>
			<stop  offset="0.9567" style="stop-color:#A1474C"/>
		</linearGradient>
		<path class="st24" d="M410.8,268.3c0.2-2,0.6-5.1,1.7-8.5c2.7-9,6-8.7,8.3-17c1.3-4.6,0.8-6.7,2.8-12.4c0.7-2,1-2.4,2.8-6.4
			c2.4-5.4,4.2-9.9,5.8-13.9c3.4-8.5,3.5-9.5,5.1-11.6c2-2.7,2.4-1.8,5.9-5.3c4.5-4.5,4.2-6.4,7.8-9.4c2.5-2.1,2.9-1.4,6.9-4.1
			c3.2-2.2,4.9-3.9,7.2-6c2.7-2.4,6.7-5.6,12.1-8.7c2-3.1,5.2-7.5,9.7-11.4c3.8-3.3,4.1-2.3,7.5-5.6c2.8-2.7,3.5-4.2,10.6-12.6
			c1.4-1.6,2.1-2.4,3-3.3c2.9-2.9,5.4-4.8,7.2-5.9c-0.9,1.1-2.3,2.9-4.1,4.8c-4.7,5.2-6.3,5.9-9.6,9.8c-3.8,4.5-2.8,5-5.9,8.3
			c-3.9,4.3-5.8,3.8-9.8,7.5c-1.9,1.8-4.6,4.7-7.3,9.7c-5.3,3-9.4,6.1-12.1,8.5c-2.8,2.4-3.7,3.5-6.7,5.7c-5.3,4-5.9,3.1-8.7,6
			c-3,3.1-3.1,4.9-6.9,9.5c-2.1,2.5-3.9,4.1-5.2,5.2c-0.5,1-7.6,16.2-11,24.8c-0.9,2.1-1.6,4.2-2.4,6.7c-1.3,4.2-2.1,7.5-2.3,8.2
			C422,244.7,419.2,252.3,410.8,268.3z"/>
	</g>
	
		<linearGradient id="SVGID_26_" gradientUnits="userSpaceOnUse" x1="81.6734" y1="591.1847" x2="143.0934" y2="591.1847" gradientTransform="matrix(0.9554 5.599128e-02 -5.946553e-02 1.0147 129.3689 -400.592)">
		<stop  offset="0.4832" style="stop-color:#119A89"/>
		<stop  offset="0.9615" style="stop-color:#224193"/>
	</linearGradient>
	<path class="st25" d="M174.4,169.9c6.9,0.8,19.1,3.2,30.4,11.9c19.5,14.8,30.8,43.2,21.9,53.5c-5,5.8-15.7,5-17.9,4.8
		c-9.6-0.7-15.9-6.1-19.1-8.7C169.3,214,174.1,172.6,174.4,169.9z"/>
	
		<linearGradient id="SVGID_27_" gradientUnits="userSpaceOnUse" x1="110.98" y1="576.6898" x2="172.4" y2="576.6898" gradientTransform="matrix(1.2097 0.2597 -0.3729 1.7368 267.471 -869.9296)">
		<stop  offset="0.4832" style="stop-color:#119A89"/>
		<stop  offset="0.9615" style="stop-color:#224193"/>
	</linearGradient>
	<path class="st26" d="M199.4,102.4c8.6,2.6,23.5,8.8,35.6,25.6c20.7,28.7,26.9,79.7,12.5,95.9c-8.1,9.1-21.6,5.9-24.4,5.2
		c-12.1-2.9-18.7-13.2-21.9-18.3C179.9,177.5,198.1,107,199.4,102.4z"/>
	
		<linearGradient id="SVGID_28_" gradientUnits="userSpaceOnUse" x1="124.2586" y1="569.4496" x2="185.6786" y2="569.4496" gradientTransform="matrix(0.4667 0.8638 -1.1083 0.5988 822.7589 -304.2998)">
		<stop  offset="0.4832" style="stop-color:#119A89"/>
		<stop  offset="0.9615" style="stop-color:#224193"/>
	</linearGradient>
	<path class="st27" d="M286.8,124.1c2.9,6.5,7.1,18.6,4.2,34c-4.9,26.3-28.9,54.4-44.7,53.3c-8.9-0.6-13.9-10.4-15-12.4
		c-4.5-8.8-2.3-17.7-1.2-22.1C237.2,147.9,283.7,125.6,286.8,124.1z"/>
	<linearGradient id="SVGID_29_" gradientUnits="userSpaceOnUse" x1="429.3029" y1="241.9273" x2="531.5238" y2="197.8344">
		<stop  offset="0.1525" style="stop-color:#CCA5CD"/>
		<stop  offset="0.9615" style="stop-color:#224193;stop-opacity:0.8"/>
	</linearGradient>
	<path class="st28" d="M513.6,213.6c0,0.6-0.2,2,0.7,2.8c1.5,1.3,3.9-0.6,5.9,0.2c2.7,1.1,3.8,6.6,1.8,10.6c-1.8,3.6-6,5.7-9.7,5.9
		c-5.8,0.3-8.8-4.2-12.7-2.5c-1.2,0.5-2.6,1.7-2.6,2.9c0.1,2,4,2.3,5.1,5.2c0.5,1.3,0.4,3.3-0.6,4.6c-1.9,2.3-5.9,1.1-16.5,1.8
		c-3.5,0.2-5.7,0.5-5.9,1.4c-0.3,1.3,4.3,1.9,5.4,5c1.1,3.1-1.9,7.5-5.5,9.4c-2.6,1.3-5.1,1.3-6.2,1.2c-22.1-0.9-34-10.3-36.7-12.6
		c-0.4-0.3-0.6-0.5-0.6-0.5c-1.2-1.2-2.7-2.9-4.2-5c-1-1.5-2.1-3.1-3.1-5c-0.7-1.4-1.4-2.9-2.1-4.6c-0.1-0.3-0.2-0.8-0.4-1.2
		c-0.1-0.3-0.2-0.7-0.3-1c-0.3-1.1-0.6-2.4-0.8-3.9c-0.8-4.3-1.1-10.1,0.7-15.9c0.7-2.5,1.8-4.9,3.4-7.3c1.2-1.8,2.6-3.4,4-4.8
		c0.8-0.4,1.6-0.7,2.4-1c0.9-0.3,1.7-0.6,2.5-0.9c2-0.6,3.7-0.8,5.1-0.8c1.9,0,3.3,0.4,4.3,0.9c4.1,2,5.7,6.9,9.1,6.5
		c1.2-0.1,2.3-0.9,2.9-1.8c1-1.5,0.2-2.9,0-4.8c0-0.6,0-1.2,0.2-1.9c0.1-0.3,0.8-3.3,3.6-4.9c0.8-0.4,1.7-0.7,2.6-0.9
		c2.2-0.4,4.6,0.1,6,1.5c0.5,0.5,0.8,1,0.9,1.4c3.2,2.4,5.2,2.3,6.2,2c2.1-0.6,2.8-2.6,5.5-6.6c1.8-2.7,3.5-4.8,4.7-6.1
		c3.1-1.9,6.5-2.3,9-0.9c2.1,1.2,2.8,3.4,3.1,4.1c1.7,5.4-2.9,10.5-1.9,11.2c0.7,0.5,3.1-1.5,5.9-3.8c4-3.5,7.3-6.4,9.7-8.6
		c2.9-2.3,6.4-3,9-1.8c0.1,0.1,0.2,0.1,0.3,0.2c1.1,1.4,2.2,2.8,3.3,4.2c1.5,3.9,0,7.8-0.7,9.5c-1.1,2.9-2.7,4.8-4,6.5
		C517.8,208.8,514,209.8,513.6,213.6z"/>
	<g>
		
			<linearGradient id="SVGID_30_" gradientUnits="userSpaceOnUse" x1="93.0795" y1="727.901" x2="115.6742" y2="727.901" gradientTransform="matrix(-0.2025 0.9209 -0.9066 -0.1994 1188.6323 427.8045)">
			<stop  offset="0" style="stop-color:#865CA0"/>
			<stop  offset="0.2687" style="stop-color:#8B56A3"/>
			<stop  offset="1" style="stop-color:#1F958C;stop-opacity:0.4"/>
		</linearGradient>
		<path class="st29" d="M520.6,370.8c0,0-14.9,18.8-24.2,16.5c-0.4-0.1-1.7-0.4-1.6-1.6c0.4-2.7,8.1-7.7,9.3-8.4
			C507.5,375.1,513.3,371.9,520.6,370.8z"/>
		
			<linearGradient id="SVGID_31_" gradientUnits="userSpaceOnUse" x1="93.5738" y1="582.6006" x2="112.702" y2="582.6006" gradientTransform="matrix(9.654427e-02 0.938 -0.9234 9.503863e-02 1048.5369 207.6218)">
			<stop  offset="0" style="stop-color:#865CA0"/>
			<stop  offset="0.2687" style="stop-color:#8B56A3"/>
			<stop  offset="1" style="stop-color:#1F958C;stop-opacity:0.4"/>
		</linearGradient>
		<path class="st30" d="M531.4,349.6c0,0-8.3,19.4-19.4,20.1c-0.5,0-2.1,0.2-2.4-0.9c-0.7-2.3,5.6-8.5,6.6-9.4
			C518.9,356.7,523.9,352.5,531.4,349.6z"/>
		
			<linearGradient id="SVGID_32_" gradientUnits="userSpaceOnUse" x1="-4.9854" y1="514.1266" x2="13.6903" y2="514.1266" gradientTransform="matrix(8.026692e-02 0.7798 -0.6505 6.695068e-02 859.2645 308.1835)">
			<stop  offset="0" style="stop-color:#865CA0"/>
			<stop  offset="0.2687" style="stop-color:#8B56A3"/>
			<stop  offset="1" style="stop-color:#1F958C;stop-opacity:0.4"/>
		</linearGradient>
		<path class="st31" d="M532.9,337.8c0,0-6.1,15.9-13.9,16.1c-0.4,0-1.5,0.1-1.7-0.8c-0.5-2,4.1-6.9,4.7-7.7
			C524.1,343.4,527.6,340,532.9,337.8z"/>
		
			<linearGradient id="SVGID_33_" gradientUnits="userSpaceOnUse" x1="70.0007" y1="321.7314" x2="85.2755" y2="321.7314" gradientTransform="matrix(0.3418 0.7055 -0.5885 0.2851 688.1725 188.0741)">
			<stop  offset="0" style="stop-color:#865CA0"/>
			<stop  offset="0.2687" style="stop-color:#8B56A3"/>
			<stop  offset="1" style="stop-color:#1F958C;stop-opacity:0.4"/>
		</linearGradient>
		<path class="st32" d="M530.1,325.6c0,0,0.6,14.4-7.7,16.9c-0.4,0.1-1.6,0.5-2.2-0.1c-1.4-1.4,1.2-6.7,1.6-7.5
			C523,332.7,525.3,329,530.1,325.6z"/>
		
			<linearGradient id="SVGID_34_" gradientUnits="userSpaceOnUse" x1="10.0553" y1="379.5188" x2="26.5609" y2="379.5188" gradientTransform="matrix(0.239 0.7466 -0.6228 0.1993 760.5569 229.8383)">
			<stop  offset="0" style="stop-color:#865CA0"/>
			<stop  offset="0.2687" style="stop-color:#8B56A3"/>
			<stop  offset="1" style="stop-color:#1F958C;stop-opacity:0.4"/>
		</linearGradient>
		<path class="st33" d="M534.6,310.4c0,0-2.1,15.2-10.4,16.8c-0.4,0.1-1.5,0.3-2-0.4c-1-1.7,2.4-6.9,2.9-7.7
			C526.7,317,529.6,313.4,534.6,310.4z"/>
		
			<linearGradient id="SVGID_35_" gradientUnits="userSpaceOnUse" x1="427.7369" y1="120.6685" x2="443.121" y2="120.6685" gradientTransform="matrix(0.7363 0.2691 -0.2245 0.6142 212.7673 165.1946)">
			<stop  offset="0" style="stop-color:#865CA0"/>
			<stop  offset="0.2687" style="stop-color:#8B56A3"/>
			<stop  offset="1" style="stop-color:#1F958C;stop-opacity:0.4"/>
		</linearGradient>
		<path class="st34" d="M502.5,349.5c0,0,14.1,5.5,7.9,11.7c-0.3,0.3-1.1,1.2-2.3,1.3c-2.7,0.3-5-3.5-5.3-4.1
			C501.8,356.7,500.7,353.8,502.5,349.5z"/>
		
			<linearGradient id="SVGID_36_" gradientUnits="userSpaceOnUse" x1="-6.1216" y1="369.3048" x2="10.384" y2="369.3048" gradientTransform="matrix(0.239 0.7466 -0.6228 0.1993 760.5569 229.8383)">
			<stop  offset="0" style="stop-color:#865CA0"/>
			<stop  offset="0.2687" style="stop-color:#8B56A3"/>
			<stop  offset="1" style="stop-color:#1F958C;stop-opacity:0.4"/>
		</linearGradient>
		<path class="st35" d="M537.1,296.3c0,0-2.1,15.2-10.4,16.8c-0.4,0.1-1.5,0.3-2-0.4c-1-1.7,2.4-6.9,2.9-7.7
			C529.2,302.8,532.1,299.2,537.1,296.3z"/>
		
			<linearGradient id="SVGID_37_" gradientUnits="userSpaceOnUse" x1="-23.3811" y1="355.5568" x2="-6.8755" y2="355.5568" gradientTransform="matrix(0.239 0.7466 -0.6228 0.1993 760.5569 229.8383)">
			<stop  offset="0" style="stop-color:#865CA0"/>
			<stop  offset="0.2687" style="stop-color:#8B56A3"/>
			<stop  offset="1" style="stop-color:#1F958C;stop-opacity:0.4"/>
		</linearGradient>
		<path class="st36" d="M541.5,280.7c0,0-2.1,15.2-10.4,16.8c-0.4,0.1-1.5,0.3-2-0.4c-1-1.7,2.4-6.9,2.9-7.7
			C533.6,287.2,536.5,283.6,541.5,280.7z"/>
		
			<linearGradient id="SVGID_38_" gradientUnits="userSpaceOnUse" x1="-106.03" y1="711.0505" x2="-88.9073" y2="711.0505" gradientTransform="matrix(-0.2507 0.7428 0.6196 0.2091 55.8156 224.0917)">
			<stop  offset="0" style="stop-color:#865CA0"/>
			<stop  offset="0.2687" style="stop-color:#8B56A3"/>
			<stop  offset="1" style="stop-color:#1F958C;stop-opacity:0.4"/>
		</linearGradient>
		<path class="st37" d="M518.5,292.6c0,0-5.4,15.8,2.7,14.5c0.4-0.1,1.5-0.2,2.4-1.2c2-2.2,0.9-6.6,0.7-7.2
			C523.8,296.7,522.5,293.8,518.5,292.6z"/>
		
			<linearGradient id="SVGID_39_" gradientUnits="userSpaceOnUse" x1="-85.5412" y1="713.3708" x2="-68.4185" y2="713.3708" gradientTransform="matrix(-0.2507 0.7428 0.6196 0.2091 55.8156 224.0917)">
			<stop  offset="0" style="stop-color:#865CA0"/>
			<stop  offset="0.2687" style="stop-color:#8B56A3"/>
			<stop  offset="1" style="stop-color:#1F958C;stop-opacity:0.4"/>
		</linearGradient>
		<path class="st38" d="M514.8,308.3c0,0-5.4,15.8,2.7,14.5c0.4-0.1,1.5-0.2,2.4-1.2c2-2.2,0.9-6.6,0.7-7.2
			C520.1,312.4,518.8,309.5,514.8,308.3z"/>
		
			<linearGradient id="SVGID_40_" gradientUnits="userSpaceOnUse" x1="-64.7309" y1="716.8671" x2="-47.6082" y2="716.8671" gradientTransform="matrix(-0.2507 0.7428 0.6196 0.2091 55.8156 224.0917)">
			<stop  offset="0" style="stop-color:#865CA0"/>
			<stop  offset="0.2687" style="stop-color:#8B56A3"/>
			<stop  offset="1" style="stop-color:#1F958C;stop-opacity:0.4"/>
		</linearGradient>
		<path class="st39" d="M511.7,324.4c0,0-5.4,15.8,2.7,14.5c0.4-0.1,1.5-0.2,2.4-1.2c2-2.2,0.9-6.6,0.7-7.2
			C517,328.5,515.8,325.7,511.7,324.4z"/>
		
			<linearGradient id="SVGID_41_" gradientUnits="userSpaceOnUse" x1="-89.1228" y1="924.3288" x2="-74.2089" y2="924.3288" gradientTransform="matrix(-1.990070e-02 0.7155 0.5485 1.525480e-02 3.0344 389.3517)">
			<stop  offset="0" style="stop-color:#865CA0"/>
			<stop  offset="0.2687" style="stop-color:#8B56A3"/>
			<stop  offset="1" style="stop-color:#1F958C;stop-opacity:0.4"/>
		</linearGradient>
		<path class="st40" d="M507.2,339.6c0,0,0,13.3,7,10.4c0.3-0.1,1.3-0.5,1.8-1.4c1.1-2.1-1.3-5.2-1.6-5.7
			C513.3,341.5,511.2,339.6,507.2,339.6z"/>
		
			<linearGradient id="SVGID_42_" gradientUnits="userSpaceOnUse" x1="394.025" y1="331.0734" x2="407.5533" y2="331.0734" gradientTransform="matrix(0.5281 0.193 -0.3218 0.8804 394.1371 1.2169)">
			<stop  offset="0" style="stop-color:#865CA0"/>
			<stop  offset="0.2687" style="stop-color:#8B56A3"/>
			<stop  offset="1" style="stop-color:#1F958C;stop-opacity:0.4"/>
		</linearGradient>
		<path class="st41" d="M499,360.8c0,0,8.5,6.6,1.1,15.6c-0.4,0.4-1.4,1.7-2.3,2c-2.2,0.6-2.3-4.5-2.3-5.3
			C495.4,370.9,495.8,366.9,499,360.8z"/>
		
			<linearGradient id="SVGID_43_" gradientUnits="userSpaceOnUse" x1="384.7341" y1="346.9414" x2="398.2624" y2="346.9414" gradientTransform="matrix(0.5281 0.193 -0.3218 0.8804 394.1371 1.2169)">
			<stop  offset="0" style="stop-color:#865CA0"/>
			<stop  offset="0.2687" style="stop-color:#8B56A3"/>
			<stop  offset="1" style="stop-color:#1F958C;stop-opacity:0.4"/>
		</linearGradient>
		<path class="st42" d="M489,373c0,0,8.5,6.6,1.1,15.6c-0.4,0.4-1.4,1.7-2.3,2c-2.2,0.6-2.3-4.5-2.3-5.3
			C485.4,383.1,485.8,379.1,489,373z"/>
		
			<linearGradient id="SVGID_44_" gradientUnits="userSpaceOnUse" x1="375.4956" y1="-24.0505" x2="389.5825" y2="-24.0505" gradientTransform="matrix(0.4699 0.1717 -0.2332 0.6381 343.4775 234.2059)">
			<stop  offset="0" style="stop-color:#865CA0"/>
			<stop  offset="0.2687" style="stop-color:#8B56A3"/>
			<stop  offset="1" style="stop-color:#1F958C;stop-opacity:0.4"/>
		</linearGradient>
		<path class="st43" d="M527.7,277.7c0,0,8.1,5,2.5,11.5c-0.3,0.3-1,1.2-1.9,1.4c-1.9,0.4-2.5-3.4-2.6-3.9
			C525.6,285.1,525.5,282.1,527.7,277.7z"/>
		
			<linearGradient id="SVGID_45_" gradientUnits="userSpaceOnUse" x1="632.0093" y1="632.4717" x2="538.1987" y2="632.4717" gradientTransform="matrix(-0.2252 -0.9743 0.9743 -0.2252 22.8669 1056.0292)">
			<stop  offset="0" style="stop-color:#865CA0"/>
			<stop  offset="0.2687" style="stop-color:#8B56A3"/>
			<stop  offset="1" style="stop-color:#5B2B5E"/>
		</linearGradient>
		<path class="st44" d="M485.5,396.7c1-0.8,2.6-2.1,4.2-3.8c4.1-4.5,2.8-6.3,6.7-10.4c2.1-2.3,3.4-2.7,5.9-5.8
			c0.9-1.1,1-1.4,2.6-3.7c2.2-3.2,4.1-5.7,5.8-8c3.6-4.8,4.1-5.2,4.8-6.8c0.8-2,0.2-1.9,1-5.1c1-4,2.1-4.5,2.5-7.6
			c0.3-2.1-0.2-2.1-0.1-5.2c0.1-2.5,0.5-4,0.9-6.1c0.4-2.3,0.8-5.7,0.7-9.7c1.1-2.2,2.4-5.5,3-9.3c0.5-3.2-0.1-3.1,0.6-6.1
			c0.6-2.5,1.1-3.3,3.4-10.2c0.4-1.3,0.6-2,0.8-2.8c0.7-2.6,0.8-4.7,0.9-6c-0.3,0.9-0.8,2.3-1.3,3.9c-1.3,4.4-1.1,5.5-2.2,8.7
			c-1.2,3.6-1.8,3.3-2.6,6.1c-1.1,3.7-0.2,4.5-0.8,8c-0.3,1.7-1.1,4.2-2.9,7.4c0.1,4-0.2,7.3-0.6,9.7c-0.4,2.4-0.7,3.3-0.9,5.7
			c-0.4,4.3,0.3,4.3-0.4,6.9c-0.7,2.7-1.7,3.4-2.9,7.1c-0.7,2-1,3.6-1.1,4.7c-0.4,0.6-6.4,9.7-10.1,14.6c-0.9,1.2-1.8,2.3-2.9,3.6
			c-1.9,2.2-3.4,3.7-3.8,4C494.8,382.5,491.6,386.6,485.5,396.7z"/>
	</g>
	
		<linearGradient id="SVGID_46_" gradientUnits="userSpaceOnUse" x1="210.9087" y1="571.4779" x2="244.9652" y2="551.8154" gradientTransform="matrix(0.9918 1.5793 -1.5676 0.9845 1140.1033 -499.4329)">
		<stop  offset="0.4832" style="stop-color:#119A89"/>
		<stop  offset="0.9615" style="stop-color:#224193"/>
	</linearGradient>
	<path class="st45" d="M517.5,413.5c0.8,0.6,2.5,2,3.6,4.5c0.9,2.1,1,3.9,1,4.9c-0.5,0.7-1.5,1.8-3,2.5c-2.9,1.5-5.7,1.1-6.6,0.9
		c-4.6-3.3-9.2-6.6-13.8-9.8c-1.4,0.6-1.8,1.3-1.9,1.7c-0.5,2.5,6.3,3.2,10.9,9.5c0,0,4.4,5.8,6.9,5.8c0,0,0.1,0,0.1,0
		c0.2,0.3-2.5,2.7-5.2,3.9c-1.2,0.6-3.3,1.3-6.3,1.3c-3.3-4.7-6.6-9.3-9.9-14c-1.3-1.2-2.6-2.4-3.9-3.6c-0.3,1.1-0.6,2.2-0.8,3.4
		c1.9,2.6,3.8,5.2,5.7,7.8l3.9,7.2c-0.7,0.5-2.9,1.9-6.1,1.7c-3.2-0.2-5.3-2-5.9-2.5c-1.2-3-2.4-6.5-3.4-10.3
		c-0.7-2.7-1.3-5.2-1.7-7.6c-1-0.5-1.9-1-2.9-1.5l0.8,14.2l3,4.9c-0.7,0.4-3.7,2.2-7.5,1.2c-0.2,0-4.2-1.2-5.8-4.7
		c-3.2-6.8,5.4-15.7,2.9-18.2c-0.4-0.4-1.3-0.8-3.7-0.1c-0.6,2.4-1.2,4.7-1.7,7.1c-1.8,2.2-3.6,4.5-5.5,6.7
		c-6.9-0.6-8.9-2.9-9.5-4.3c-0.6-1.4-0.3-2.2,0.8-10.5c0.6-4.9,0.7-6,0.7-7.1c0-3.6-0.8-6.5-1.4-8.4c1.6-1.7,3.1-3.5,4.7-5.2
		l4.1-6.6c2.4-3.6,4.7-7.1,7.1-10.7c0.2-0.2,1.8-1.9,4.4-1.8c2.8,0.1,4.2,2.3,4.4,2.5c-1.4,3-2.9,6-4.3,8.9c0,0-1.3,11.3-0.5,11.4
		c0.1,0,0.1-0.1,0.2-0.1c1.2-1.3,3.9-7.9,5.1-10.1c0,0,5.8-7.3,5.7-7.2l0,0c1.8-0.9,2.7-0.5,2.9-0.3c1.4,0.8,1.5,4.1-0.2,8
		c-1.4,4.7-2.7,9.3-4.1,14c2.7-2.9,5.4-5.8,8-8.8c0.4-3.3,0.8-6.7,1.2-10c1.2,0.4,4.2,1.6,6.4,4.6c1.4,1.9,2,3.8,2.2,5
		c-1.1,1.9-2.7,4.3-5.1,6.7c-2.6,2.7-5.1,4.5-7.2,5.7c1.1,1.3,2.3,2.6,3.4,3.9c0.8-1.8,1.9-4.1,3.8-6.4c3.3-4.2,7.1-6.4,9.5-7.6
		c1-0.3,2-0.6,3-0.9c1,0.9,2.7,2.5,3.9,5.1c1.3,2.7,1.6,5.1,1.6,6.4c-2.8,0.6-5.6,1.1-8.3,1.7c-2,1.3-3.9,2.6-5.9,3.9l14.2-1
		C513.5,412.1,515.5,412.8,517.5,413.5z"/>
	
		<linearGradient id="SVGID_47_" gradientUnits="userSpaceOnUse" x1="603.8549" y1="387.42" x2="704.713" y2="344.0164" gradientTransform="matrix(-1.1295 6.287323e-02 -5.966369e-02 -1.0718 882.6774 667.6808)">
		<stop  offset="0.1525" style="stop-color:#CCA5CD"/>
		<stop  offset="0.9615" style="stop-color:#224193"/>
	</linearGradient>
	<path class="st46" d="M61.7,334c-1.5-4.7-5.6-19.7,2.8-32.4c1.3-2,2.8-3.8,4.4-5.3c8.3-3.9,13-3.3,15.7-1.9c4.5,2.2,6.3,7.6,10,7.2
		c1.3-0.2,2.6-1,3.2-2c1.5-2.2-0.6-4.1,0.2-7.4c0.1-0.3,0.9-3.6,4-5.4c3-1.6,7.3-1.4,9.5,0.8c0.5,0.5,0.8,1.1,1,1.5
		c3.5,2.6,5.7,2.5,6.8,2.2c2.3-0.6,3.1-2.9,6.1-7.3c2-3,3.9-5.3,5.1-6.7c3.4-2.1,7.2-2.6,9.9-1c2.4,1.3,3.1,3.7,3.4,4.5
		c1.9,5.9-3.2,11.5-2,12.4c0.8,0.5,3.5-1.7,6.5-4.2c4.5-3.8,8.1-7.1,10.7-9.5c3.2-2.5,7-3.3,9.9-2c2.2,1,3.2,3,3.7,4
		c2.3,4.5,0.4,9.3-0.4,11.4c-1.2,3.2-3,5.3-4.5,7.1c-4.9,5.9-9.1,7.1-9.5,11.3c-0.1,0.6-0.2,2.2,0.8,3.1c1.6,1.4,4.2-0.7,6.5,0.2
		c2.9,1.2,4.2,7.3,2,11.7c-2,3.9-6.6,6.3-10.7,6.5c-6.4,0.3-9.7-4.6-14-2.7c-1.3,0.6-2.9,1.8-2.9,3.2c0.1,2.2,4.4,2.5,5.6,5.7
		c0.5,1.4,0.5,3.6-0.7,5c-2.1,2.6-6.5,1.3-18.2,2c-3.9,0.2-6.3,0.6-6.5,1.5c-0.3,1.4,4.8,2.1,6,5.5c1.2,3.4-2.1,8.2-6.1,10.3
		c-2.8,1.5-5.6,1.4-6.9,1.4c-27.9-1.2-41.1-14.5-41.1-14.5C69.2,347.3,64.8,342,61.7,334z"/>
	<linearGradient id="SVGID_48_" gradientUnits="userSpaceOnUse" x1="229.2291" y1="439.5181" x2="260.3292" y2="439.5181">
		<stop  offset="0.4832" style="stop-color:#119A89"/>
		<stop  offset="0.9615" style="stop-color:#224193"/>
	</linearGradient>
	<path class="st47" d="M260.3,436.7c-5.9,4.6-14,10.8-23.8,17.3c-2.4-5.7-4.1-11.7-5.2-16.8c-1.3-5.9-1.9-10.5-2-11.8
		c0-0.1,0-0.2,0-0.2c0.1,0,0.1,0,0.1,0c2-0.2,4.6-0.3,7.7,0.1c4.2,0.5,9.2,1.8,14.3,4.7C254.5,431.8,257.5,434.1,260.3,436.7z"/>
	<linearGradient id="SVGID_49_" gradientUnits="userSpaceOnUse" x1="241.0192" y1="462.932" x2="275.7393" y2="462.932">
		<stop  offset="0.4832" style="stop-color:#119A89"/>
		<stop  offset="0.9615" style="stop-color:#224193"/>
	</linearGradient>
	<path class="st48" d="M274.9,469.4c-2.3,5.4-9.5,6.4-11,6.6c-6.5,0.9-11.6-2.4-14.1-4c-3.5-2.3-6.4-5.5-8.8-9.3
		c3.5-4.5,7.4-8.9,13.6-11.3c3.3-1.3,5.6-2.3,8.3-1.5c4,1.2,4.1,4.9,9.7,9.6c0.7,0.6,1.6,1.2,2.8,2
		C276,464.5,275.9,467.3,274.9,469.4z"/>
	
		<linearGradient id="SVGID_50_" gradientUnits="userSpaceOnUse" x1="214.0006" y1="404.7555" x2="284.7615" y2="363.9017" gradientTransform="matrix(0.1701 -1.8572 1.8434 0.1688 -580.1287 656.4305)">
		<stop  offset="0.3609" style="stop-color:#C89789"/>
		<stop  offset="1" style="stop-color:#4981BA"/>
	</linearGradient>
	<path class="st49" d="M118.3,218c-0.6-2-1.6-6.5-0.3-12c1.1-4.6,3.3-7.8,4.7-9.4c1.8-0.5,4.7-1,8.1-0.5c6.6,1.1,10.7,5.4,12,6.8
		c3.5,11.2,7,22.5,10.4,33.7c3.1,0.8,4.5,0.1,5.2-0.5c4-3.5-6.2-13.2-6.1-29.4c0,0,0.2-15.1-4-18.3c0,0-0.2-0.1-0.2-0.3
		c0.1-0.8,7.4-1.3,13.5,0c2.7,0.6,7.2,2.1,12,5.9c-0.5,11.8-0.9,23.7-1.4,35.5c0.6,3.6,1.2,7.3,1.8,10.9c1.9-1.5,3.8-3,5.6-4.5
		c0.1-6.7,0.2-13.3,0.4-20l2.5-16.8c1.7,0.1,7.2,0.6,12.1,4.9c5.1,4.4,6.3,9.9,6.6,11.6c-1.8,6.5-4.1,13.7-7.3,21.3
		c-2.2,5.3-4.5,10.2-6.8,14.7c1,2,1.9,4,2.9,6l16.6-24.5l1.1-11.9c1.6,0.2,8.9,1.1,13.8,7.5c0.2,0.3,5.4,7.2,3.6,15.2
		c-3.3,15.2-28.7,19.1-27.6,26.4c0.2,1.2,1.2,3.1,6,4.8c3.9-3.1,7.9-6.3,11.8-9.4c5.8-1.4,11.6-2.8,17.5-4.1
		c10.7,9.8,11,16,10.4,19.1c-0.6,3.1-2.4,4.1-14.6,16.4c-7.2,7.3-8.7,9.1-10,10.8c-4.5,5.9-6.9,11.7-8.3,15.5
		c-4.7,0.9-9.5,1.8-14.2,2.7l-15.1,5.8c-8.4,2.9-16.7,5.8-25.1,8.7c-0.7,0.1-5.5,0.9-9.5-2.5c-4.4-3.7-4.1-9.1-4.1-9.7
		c6.1-3.1,12.3-6.2,18.4-9.3c0,0,16.4-17,15.3-18.2c-0.1-0.1-0.3-0.1-0.4-0.1c-3.6,0.7-16.4,8-21.1,10.3c-0.1,0-18.7,4.8-18.5,4.8
		l0,0c-4.1-0.8-5-2.6-5.2-3.1c-1.2-3.1,2.6-8.7,10.4-12.9c8.1-6,16.3-12,24.4-18c-8.1,1.5-16.2,2.9-24.3,4.4
		c-4.9,5-9.7,9.9-14.6,14.9c-1.4-2.1-4.9-7.8-4.8-15.7c0.1-4.9,1.6-8.8,2.7-11c4.3-1.8,9.9-3.6,16.8-4.7c7.6-1.2,14.1-0.9,19-0.4
		c-0.2-3.6-0.4-7.2-0.7-10.8c-3.5,2.1-8.3,4.3-14.3,5.9c-10.7,2.7-19.9,1.6-25.3,0.6c-2-0.8-4-1.5-6-2.3c-0.6-2.8-1.2-7.5-0.1-13.3
		c1.2-6,3.8-10.3,5.4-12.7c5.3,2.6,10.6,5.1,15.9,7.7c4.9,0.3,9.7,0.6,14.6,1l-24.8-16.2C123.1,225.5,120.7,221.8,118.3,218z"/>
	
		<linearGradient id="SVGID_51_" gradientUnits="userSpaceOnUse" x1="333.0255" y1="574.7292" x2="373.6415" y2="574.7292" gradientTransform="matrix(0.9691 -0.157 0.2014 1.2436 -267.6344 -338.7308)">
		<stop  offset="2.717173e-07" style="stop-color:#DA565C"/>
		<stop  offset="0.9567" style="stop-color:#A1474C"/>
	</linearGradient>
	<path class="st50" d="M166.5,296.1c4.7-0.4,13.1-0.4,22.1,4.8c15.4,8.8,27.7,29.9,23.6,39.5c-2.3,5.4-9.5,6.4-11,6.6
		c-6.5,0.9-11.6-2.4-14.1-4C170.6,332.3,166.8,298.4,166.5,296.1z"/>
	
		<linearGradient id="SVGID_52_" gradientUnits="userSpaceOnUse" x1="353.4566" y1="556.7256" x2="394.0726" y2="556.7256" gradientTransform="matrix(0.9691 -0.157 0.2014 1.2436 -267.6344 -338.7308)">
		<stop  offset="2.717173e-07" style="stop-color:#DA565C"/>
		<stop  offset="0.9567" style="stop-color:#A1474C"/>
	</linearGradient>
	<path class="st51" d="M182.7,270.6c4.7-0.4,13.1-0.4,22.1,4.8c15.4,8.8,27.7,29.9,23.6,39.5c-2.3,5.4-9.5,6.4-11,6.6
		c-6.5,0.9-11.6-2.4-14.1-4C186.8,306.7,182.9,272.8,182.7,270.6z"/>
	
		<linearGradient id="SVGID_53_" gradientUnits="userSpaceOnUse" x1="367.5356" y1="537.92" x2="408.1516" y2="537.92" gradientTransform="matrix(0.9691 -0.157 0.2014 1.2436 -267.6344 -338.7308)">
		<stop  offset="2.717173e-07" style="stop-color:#DA565C"/>
		<stop  offset="0.9567" style="stop-color:#A1474C"/>
	</linearGradient>
	<path class="st52" d="M192.6,245c4.7-0.4,13.1-0.4,22.1,4.8c15.4,8.8,27.7,29.9,23.6,39.5c-2.3,5.4-9.5,6.4-11,6.6
		c-6.5,0.9-11.6-2.4-14.1-4C196.7,281.1,192.8,247.2,192.6,245z"/>
	
		<linearGradient id="SVGID_54_" gradientUnits="userSpaceOnUse" x1="323.2073" y1="596.6422" x2="363.8232" y2="596.6422" gradientTransform="matrix(0.9691 -0.157 0.2014 1.2436 -267.6344 -338.7308)">
		<stop  offset="2.717173e-07" style="stop-color:#DA565C"/>
		<stop  offset="0.9567" style="stop-color:#A1474C"/>
	</linearGradient>
	<path class="st53" d="M161.4,324.9c4.7-0.4,13.1-0.4,22.1,4.8c15.4,8.8,27.7,29.9,23.6,39.5c-2.3,5.4-9.5,6.4-11,6.6
		c-6.5,0.9-11.6-2.4-14.1-4C165.5,361.1,161.7,327.2,161.4,324.9z"/>
	
		<linearGradient id="SVGID_55_" gradientUnits="userSpaceOnUse" x1="657.3804" y1="641.7304" x2="697.9964" y2="641.7304" gradientTransform="matrix(-0.7126 -0.1154 -0.2424 1.4963 1125.7538 -535.5017)">
		<stop  offset="2.717173e-07" style="stop-color:#DA565C"/>
		<stop  offset="0.9567" style="stop-color:#A1474C"/>
	</linearGradient>
	<path class="st54" d="M507.1,315.7c-3.5-0.2-9.8,0.5-16.9,7.3c-12.1,11.6-22.9,37.6-20.5,48.8c1.3,6.3,6.6,6.9,7.7,7.1
		c4.8,0.6,8.8-3.7,10.8-5.8C501.3,359,506.7,318.3,507.1,315.7z"/>
	<linearGradient id="SVGID_56_" gradientUnits="userSpaceOnUse" x1="203.8542" y1="386.9486" x2="234.9543" y2="386.9486">
		<stop  offset="0.4832" style="stop-color:#119A89"/>
		<stop  offset="0.9615" style="stop-color:#224193"/>
	</linearGradient>
	<path class="st55" d="M235,384.2c-5.9,4.6-14,10.8-23.8,17.3c-2.4-5.7-4.1-11.7-5.2-16.8c-1.3-5.9-1.9-10.5-2-11.8
		c0-0.1,0-0.2,0-0.2c0.1,0,0.1,0,0.1,0c2-0.2,4.6-0.3,7.7,0.1c4.2,0.5,9.2,1.8,14.3,4.7C229.1,379.2,232.2,381.5,235,384.2z"/>
	<linearGradient id="SVGID_57_" gradientUnits="userSpaceOnUse" x1="256.2991" y1="421.6081" x2="286.7792" y2="421.6081">
		<stop  offset="0.4832" style="stop-color:#119A89"/>
		<stop  offset="0.9615" style="stop-color:#224193"/>
	</linearGradient>
	<path class="st56" d="M286.8,419.4l-16.2,8.8c0,0-2.9,2.6-8,6.7c-1.9-5-3.3-10-4.3-14.4c-1.3-5.9-1.9-10.5-2-11.8
		c0-0.1,0-0.2,0-0.2c0.1,0,0.1,0,0.1,0c2-0.2,4.6-0.3,7.7,0.1c4.2,0.5,9.1,1.8,14.3,4.7C281.4,414.9,284.2,417,286.8,419.4z"/>
</g>
<g id="Layer_1">
	<g>
		<path class="st57" d="M201.8,207.1v189c0,10.4,8.5,18.8,18.8,18.8h252.7c10.4,0,18.8-8.5,18.8-18.8v-189
			c0-10.4-8.5-18.8-18.8-18.8H220.6C210.2,188.2,201.8,196.7,201.8,207.1z"/>
		<linearGradient id="SVGID_58_" gradientUnits="userSpaceOnUse" x1="213.9944" y1="389.3848" x2="364.1483" y2="389.3848">
			<stop  offset="0.4832" style="stop-color:#119A89"/>
			<stop  offset="0.9615" style="stop-color:#224193"/>
		</linearGradient>
		<path class="st58" d="M222.7,400.2h132.8c4.8,0,8.7-3.9,8.7-8.7v-4.3c0-4.8-3.9-8.7-8.7-8.7H222.7c-4.8,0-8.7,3.9-8.7,8.7v4.3
			C214,396.3,217.9,400.2,222.7,400.2z"/>
		<linearGradient id="SVGID_59_" gradientUnits="userSpaceOnUse" x1="218.4643" y1="220.1676" x2="322.7617" y2="220.1676">
			<stop  offset="0.4832" style="stop-color:#119A89"/>
			<stop  offset="0.9615" style="stop-color:#224193"/>
		</linearGradient>
		<path class="st59" d="M222.4,225.1h96.5c2.2,0,3.9-1.8,3.9-3.9v-2c0-2.2-1.8-3.9-3.9-3.9h-96.5c-2.2,0-3.9,1.8-3.9,3.9v2
			C218.5,223.3,220.2,225.1,222.4,225.1z"/>
		<linearGradient id="SVGID_60_" gradientUnits="userSpaceOnUse" x1="469.8424" y1="198.3503" x2="481.7621" y2="198.3503">
			<stop  offset="0.4832" style="stop-color:#119A89"/>
			<stop  offset="0.9615" style="stop-color:#224193"/>
		</linearGradient>
		<path class="st60" d="M473.8,203.2h4.1c2.2,0,3.9-1.8,3.9-3.9v-2c0-2.2-1.8-3.9-3.9-3.9h-4.1c-2.2,0-3.9,1.8-3.9,3.9v2
			C469.8,201.5,471.6,203.2,473.8,203.2z"/>
		<linearGradient id="SVGID_61_" gradientUnits="userSpaceOnUse" x1="455.5015" y1="198.3503" x2="467.4212" y2="198.3503">
			<stop  offset="0.4832" style="stop-color:#119A89"/>
			<stop  offset="0.9615" style="stop-color:#224193"/>
		</linearGradient>
		<path class="st61" d="M459.4,203.2h4.1c2.2,0,3.9-1.8,3.9-3.9v-2c0-2.2-1.8-3.9-3.9-3.9h-4.1c-2.2,0-3.9,1.8-3.9,3.9v2
			C455.5,201.5,457.3,203.2,459.4,203.2z"/>
		<linearGradient id="SVGID_62_" gradientUnits="userSpaceOnUse" x1="441.1606" y1="198.3503" x2="453.0803" y2="198.3503">
			<stop  offset="0.4832" style="stop-color:#119A89"/>
			<stop  offset="0.9615" style="stop-color:#224193"/>
		</linearGradient>
		<path class="st62" d="M445.1,203.2h4.1c2.2,0,3.9-1.8,3.9-3.9v-2c0-2.2-1.8-3.9-3.9-3.9h-4.1c-2.2,0-3.9,1.8-3.9,3.9v2
			C441.2,201.5,442.9,203.2,445.1,203.2z"/>
		<linearGradient id="SVGID_63_" gradientUnits="userSpaceOnUse" x1="422.536" y1="389.3848" x2="440.522" y2="389.3848">
			<stop  offset="0.4832" style="stop-color:#119A89"/>
			<stop  offset="0.9615" style="stop-color:#224193"/>
		</linearGradient>
		<path class="st63" d="M438.5,386.8v-5.2c0-2-1.6-3.6-3.6-3.6s-3.6,1.6-3.6,3.6v4.2h-3.9c-2.7,0-4.9,2.2-4.9,4.9v5.2
			c0,2.7,2.2,4.9,4.9,4.9h8.2c2.7,0,4.9-2.2,4.9-4.9v-5.2C440.5,389.1,439.7,387.7,438.5,386.8z"/>
		<linearGradient id="SVGID_64_" gradientUnits="userSpaceOnUse" x1="450.8654" y1="389.3848" x2="468.8513" y2="389.3848">
			<stop  offset="0.4832" style="stop-color:#119A89"/>
			<stop  offset="0.9615" style="stop-color:#224193"/>
		</linearGradient>
		<path class="st64" d="M466.8,392v5.2c0,2-1.6,3.6-3.6,3.6c-2,0-3.6-1.6-3.6-3.6V393h-3.9c-2.7,0-4.9-2.2-4.9-4.9v-5.2
			c0-2.7,2.2-4.9,4.9-4.9h8.2c2.7,0,4.9,2.2,4.9,4.9v5.2C468.9,389.7,468,391.1,466.8,392z"/>
		<path class="st65" d="M215.8,240.9V361c0,6.6,5.8,12,12.8,12h171.5c7,0,12.8-5.4,12.8-12V240.9c0-6.6-5.8-12-12.8-12H228.6
			C221.6,228.9,215.8,234.3,215.8,240.9z"/>
		<linearGradient id="SVGID_65_" gradientUnits="userSpaceOnUse" x1="292.4241" y1="300.9579" x2="328.5264" y2="300.9579">
			<stop  offset="0.4832" style="stop-color:#119A89"/>
			<stop  offset="0.9615" style="stop-color:#224193"/>
		</linearGradient>
		<path class="st66" d="M325.5,295.7l-23.8-13.8c-4.1-2.4-9.2,0.6-9.2,5.3v27.5c0,4.7,5.1,7.7,9.2,5.3l23.8-13.8
			C329.5,303.9,329.5,298,325.5,295.7z"/>
		<linearGradient id="SVGID_66_" gradientUnits="userSpaceOnUse" x1="201.7558" y1="301.5832" x2="389.5064" y2="301.5832">
			<stop  offset="0.4832" style="stop-color:#119A89"/>
			<stop  offset="0.9615" style="stop-color:#224193"/>
		</linearGradient>
		<path class="st67" d="M201.8,207.1v189c0,10.4,8.5,18.8,18.8,18.8h168.9l-93.4-182.8l-11.1-21.7l-11.3-22.1h-53.2
			C210.2,188.2,201.8,196.7,201.8,207.1z"/>
		<path class="st68" d="M427.7,232.1v32c0,1.8,1.5,3.2,3.4,3.2h45.7c1.9,0,3.4-1.4,3.4-3.2v-32c0-1.8-1.5-3.2-3.4-3.2h-45.7
			C429.3,228.9,427.7,230.4,427.7,232.1z"/>
		<path class="st68" d="M427.7,290.1v32c0,1.8,1.5,3.2,3.4,3.2h45.7c1.9,0,3.4-1.4,3.4-3.2v-32c0-1.8-1.5-3.2-3.4-3.2h-45.7
			C429.3,287,427.7,288.4,427.7,290.1z"/>
		<linearGradient id="SVGID_67_" gradientUnits="userSpaceOnUse" x1="425.9683" y1="276.5764" x2="480.1923" y2="276.5764">
			<stop  offset="0.4832" style="stop-color:#119A89"/>
			<stop  offset="0.9615" style="stop-color:#224193"/>
		</linearGradient>
		<path class="st69" d="M429.9,281.5h46.4c2.2,0,3.9-1.8,3.9-3.9v-2c0-2.2-1.8-3.9-3.9-3.9h-46.4c-2.2,0-3.9,1.8-3.9,3.9v2
			C426,279.7,427.7,281.5,429.9,281.5z"/>
		<linearGradient id="SVGID_68_" gradientUnits="userSpaceOnUse" x1="426.8696" y1="335.716" x2="481.0936" y2="335.716">
			<stop  offset="0.4832" style="stop-color:#119A89"/>
			<stop  offset="0.9615" style="stop-color:#224193"/>
		</linearGradient>
		<path class="st70" d="M430.8,340.6h46.4c2.2,0,3.9-1.8,3.9-3.9v-2c0-2.2-1.8-3.9-3.9-3.9h-46.4c-2.2,0-3.9,1.8-3.9,3.9v2
			C426.9,338.8,428.6,340.6,430.8,340.6z"/>
	</g>
</g>
<g id="Layer_5">
	<linearGradient id="SVGID_69_" gradientUnits="userSpaceOnUse" x1="171.3786" y1="380.1711" x2="260.2796" y2="380.1711">
		<stop  offset="0" style="stop-color:#4981BA"/>
		<stop  offset="0.4592" style="stop-color:#C498BD"/>
	</linearGradient>
	<path class="st71" d="M237.1,425.3c-0.8,1.6-1.5,3-2,4.2c-1.4,2.9-2.6,5.4-3.8,7.7c-6.5,13.1-9.3,17.3-10.9,19.7
		c-3.4,5-6.9,9.3-10.4,13c-10.5,5.6-21.8,10.8-33.4,14.9c-0.7-0.7-1.4-1.6-2-2.7c-0.9-1.4-1.5-3-2-4.7c-1-3.6-1.2-7.8-1.1-12.5
		c0.5-17.9,5.4-31.3,8.9-41.3c10.2-28.9,5.6-19.7,13.7-41.6c0.8-2,1.6-4.2,2.4-6.4c1-2.7,2.1-5.4,3.3-8.3c1.7-4.3,3.5-8.7,5.5-13.4
		c1.4-3.4,2.9-6.8,4.5-10.4c1.1-2.4,2.2-4.9,3.3-7.4c2-4.4,4.1-8.9,6.3-13.5c-3.6,16-7.2,32.1-10.8,48.1c-0.4,1.8-0.8,3.5-1.2,5.3
		c-8,30.6-15.9,61.2-23.8,91.8c15.8-43.3,28.4-77.6,38.5-104.5c25.7-68.3,35-89.1,36.5-87.9c2,1.5-7.9,41.8-25.7,93.5
		c-7.4,21.4-16.1,44.8-25.9,68.1c-5.4,12.8-10.3,23.8-14.4,32.7c-0.4,0.8-0.7,1.6-1.1,2.4c0.6-0.9,1.1-1.8,1.7-2.7
		c19.7-32,34-54.5,44.2-69.9c15.8-24,21.8-30.9,22.8-29.7C262.2,372.4,245,408.6,237.1,425.3z"/>
	<linearGradient id="SVGID_70_" gradientUnits="userSpaceOnUse" x1="299.6797" y1="435.2631" x2="406.914" y2="373.3513">
		<stop  offset="0.1525" style="stop-color:#CCA5CD"/>
		<stop  offset="0.9615" style="stop-color:#224193"/>
	</linearGradient>
	<path class="st72" d="M424.3,440c-1.2,2.9-3.1,3.5-17.5,13.1c-6.8,4.5-9.3,6.4-10.9,7.7c-0.4,0.3-0.8,0.6-1.1,0.9
		c-5.5,4.9-9.1,10-11.3,13.6c-4.1,0-8.2-0.1-12.3-0.1c-3.1-2.9-5.9-6.2-8.2-9.9c-1.8-2.9-3.6-6.5-8-9.3c-0.8-0.5-3.4-2.1-8.4-2.7
		c4.3-3.2,8-6.3,7.6-6.9c-0.1-0.1-0.3-0.1-0.3-0.1c-3.7,0-17.7,4.6-22.7,5.9c-0.1,0-19,1-19,1c-1.9-0.8-3-1.7-3.6-2.5
		c-0.6-0.7-0.8-1.4-0.8-1.6c-0.6-3.3,4.3-8,12.8-10.6c9.2-4.3,18.3-8.5,27.5-12.8c-8.2-0.2-16.5-0.4-24.7-0.6
		c-5.8,3.9-11.5,7.8-17.3,11.7c-0.1-0.2-0.2-0.4-0.3-0.6c-1.1-2.7-2.9-8.6-1.3-15.7c1.1-4.8,3.3-8.3,4.8-10.2
		c4.5-0.9,10.5-1.6,17.4-1.2c5,0.2,9.5,1,13.2,1.9c2,0.5,3.9,1,5.5,1.5c0.2-1.3,0.4-2.5,0.5-3.8c0.3-2.3,0.7-4.6,1-7
		c-3.9,1.3-9,2.6-15.2,2.9c-5.7,0.3-10.8-0.3-15.1-1.3c-4-0.9-7.3-2.1-9.8-3.1c-1.8-1.2-3.6-2.3-5.5-3.5c0-2.8,0.3-7.6,2.6-13
		c2.4-5.7,5.8-9.4,7.8-11.3c4.7,3.6,9.4,7.1,14.1,10.7c4.7,1.3,9.4,2.6,14.1,3.9L319,365.9c-1.6-4.1-3.2-8.2-4.7-12.4
		c-0.2-2.1-0.3-6.7,2.1-11.8c2-4.3,4.8-7,6.4-8.3c1.9-0.1,4.8,0,8,1.2c6.3,2.4,9.4,7.4,10.3,9.1c1.2,11.7,2.4,23.4,3.5,35.1
		c2.9,1.4,4.4,1,5.3,0.5c4.7-2.7-3.5-14.2-0.1-30.1c0,0,3.2-14.8-0.3-18.7c0,0-0.2-0.2-0.1-0.3c0.3-0.8,7.5,0.2,13.2,2.7
		c2.6,1.2,6.6,3.4,10.6,8.2c-2.8,11.4-5.5,22.8-8.3,34.2c0,0,0,0,0,0c0,0.1-0.1,0.2-0.1,0.3c-0.1,3.7-0.3,7.4-0.4,11.1
		c2.1-1.1,4.3-2.2,6.4-3.3c1.4-6.5,2.9-13,4.3-19.5l1.8-4.8l0,0l4.1-11.1c0.7,0.2,2,0.6,3.6,1.3c2.2,1.1,5,2.9,7.3,5.9
		c4.1,5.3,4.2,11,4.2,12.7c-3,6.1-6.8,12.6-11.4,19.5c-3.2,4.8-6.4,9.1-9.6,13c0.3,1,0.5,2,0.8,3c0.3,1.1,0.6,2.3,0.9,3.5l7.2-7
		l13.3-13.1l0.7-0.7l0.3-1l3.1-10.4c0.4,0.1,1,0.3,1.9,0.7c2.8,1.2,7.5,3.9,10.2,9.4c0,0.1,0.4,0.9,0.8,2.1c0.9,2.9,2,8.3-0.3,13.5
		c-3.6,8.1-13.4,11.2-21.4,13.7c-6,1.9-10.8,3.5-11,6.6c-0.1,1.2,0.5,3.2,4.9,5.9c1-0.5,1.9-1,2.9-1.5c3.5-1.8,7-3.6,10.5-5.4
		c6-0.2,12-0.4,17.9-0.6C426.5,430.9,425.5,437.1,424.3,440z"/>
	<linearGradient id="SVGID_71_" gradientUnits="userSpaceOnUse" x1="78.2891" y1="235.2331" x2="85.0491" y2="235.2331">
		<stop  offset="0" style="stop-color:#4981BA"/>
		<stop  offset="0.4592" style="stop-color:#C498BD"/>
	</linearGradient>
	<path class="st73" d="M78.3,255.7c0-0.6,0-1.2-0.1-1.7c0-7.1,0-14.2,0-21.3c0-6,0-12,0-18c2,8.6,3.6,16.6,4.9,24
		c0.7,3.8,1.3,7.5,1.9,11c-0.6,1.1-1.5,2.1-2.9,3C80.6,253.7,79.4,254.7,78.3,255.7z"/>
	<linearGradient id="SVGID_72_" gradientUnits="userSpaceOnUse" x1="57.5378" y1="224.6311" x2="72.9791" y2="224.6311">
		<stop  offset="0" style="stop-color:#4981BA"/>
		<stop  offset="0.4592" style="stop-color:#C498BD"/>
	</linearGradient>
	<path class="st74" d="M59.4,221.8c-2.2-27-2.3-45.6-1-46.2c1.1-0.5,3.6,11.3,8.8,47.6c1.6,11.3,3.5,25,5.8,41.5
		c-0.8,2.8-1.2,5.1-3.1,6.8c-1.2,1.2-2.6,1.6-4.7,2.2C62.5,254.9,60.6,237,59.4,221.8z"/>
	<linearGradient id="SVGID_73_" gradientUnits="userSpaceOnUse" x1="42.0489" y1="258.3673" x2="57.2092" y2="258.3673">
		<stop  offset="0" style="stop-color:#4981BA"/>
		<stop  offset="0.4592" style="stop-color:#C498BD"/>
	</linearGradient>
	<path class="st75" d="M57.2,275.3c-4.2,0.4-8.3,0.1-9.8-2.1c-0.2-0.7-0.3-1.5-0.5-2.2c-2.9-13.3-5.9-28.8-4.6-29.8
		c0.8-0.6,3.5,4.2,9.6,20c0,0,0,0,0,0C53.5,265.2,55.2,269.9,57.2,275.3z"/>
	<linearGradient id="SVGID_74_" gradientUnits="userSpaceOnUse" x1="57.0892" y1="297.6794" x2="90.7937" y2="297.6794">
		<stop  offset="0" style="stop-color:#4981BA"/>
		<stop  offset="0.4592" style="stop-color:#C498BD"/>
	</linearGradient>
	<path class="st76" d="M89.4,321.7c-1,4.9-2.2,8.8-4.9,11.6c-3.4,3.5-7.3,3.1-8.6,2.9c-4.8-4-11-10.5-16.3-20.7
		c-0.9-1.7-1.7-3.5-2.5-5.5c2.1-4.6,4.7-9.3,7.5-14c0.4,1.2,0.9,2.5,1.3,3.7c2.5,7.1,5.3,15.1,8.3,23.9c-1.6-7.1-3.4-16.3-5.3-26.9
		c0-0.1,0-0.2,0-0.3c-0.3-2-0.7-3.9-1-5.8c2.3-3.8,4.7-7.6,7.1-11.4c0.6,4.6,1.2,9.4,1.9,14.4c1.1,8.8,2.4,18.2,3.6,28.3
		c-0.3-9.5-0.6-19-0.9-28.6c-0.2-6.9-0.4-13.8-0.7-20.6c2.7-4.5,5.3-9.1,7.5-13.7c0.1,0.4,0.1,0.8,0.2,1.2c2.3,16.5,0.5,9.4,3,31.2
		c0.3,2.4,0.6,5.1,0.8,8.1C91,305.8,91,313.2,89.4,321.7z"/>
	<g>
		
			<linearGradient id="SVGID_75_" gradientUnits="userSpaceOnUse" x1="460.771" y1="449.8057" x2="495.4006" y2="449.8057" gradientTransform="matrix(-0.1481 0.9312 0.9167 0.1458 -220.7672 -60.8865)">
			<stop  offset="2.717173e-07" style="stop-color:#DA565C"/>
			<stop  offset="0.9567" style="stop-color:#A1474C"/>
		</linearGradient>
		<path class="st77" d="M106.7,431.1c0,0,10.8,35.1,25.3,37.1c0.7,0.1,2.7,0.4,3.1-1.4c0.9-4.1-7.3-15.5-8.5-17.2
			C123,444.6,116.5,436.8,106.7,431.1z"/>
		
			<linearGradient id="SVGID_76_" gradientUnits="userSpaceOnUse" x1="519.2168" y1="429.0904" x2="548.5337" y2="429.0904" gradientTransform="matrix(-0.4327 0.8378 0.8247 0.4259 -9.8885 -214.6308)">
			<stop  offset="2.717173e-07" style="stop-color:#DA565C"/>
			<stop  offset="0.9567" style="stop-color:#A1474C"/>
		</linearGradient>
		<path class="st78" d="M103.3,394.8c0,0,1,32.3,16.3,39.5c0.7,0.3,2.9,1.4,3.9,0.1c2.3-2.9-3.2-15.3-4.1-17.1
			C117,412,112.3,403.2,103.3,394.8z"/>
		
			<linearGradient id="SVGID_77_" gradientUnits="userSpaceOnUse" x1="499.1685" y1="291.3046" x2="527.7917" y2="291.3046" gradientTransform="matrix(-0.3597 0.6965 0.581 0.3001 129.5336 -51.8482)">
			<stop  offset="2.717173e-07" style="stop-color:#DA565C"/>
			<stop  offset="0.9567" style="stop-color:#A1474C"/>
		</linearGradient>
		<path class="st79" d="M107.6,377.3c0,0-0.2,26.1,10.7,30.8c0.5,0.2,2,0.9,2.8-0.2c1.7-2.5-1.9-12.1-2.5-13.6
			C117.1,390.1,113.9,383.4,107.6,377.3z"/>
		
			<linearGradient id="SVGID_78_" gradientUnits="userSpaceOnUse" x1="600.9922" y1="316.6059" x2="624.4032" y2="316.6059" gradientTransform="matrix(-0.576 0.5318 0.4436 0.4805 332.6878 -101.1139)">
			<stop  offset="2.717173e-07" style="stop-color:#DA565C"/>
			<stop  offset="0.9567" style="stop-color:#A1474C"/>
		</linearGradient>
		<path class="st80" d="M118.5,361.4c0,0-9,20.2,1.5,28.5c0.5,0.4,1.9,1.6,3.2,1c2.8-1.2,2-10.2,1.8-11.6
			C124.6,375.4,123.4,368.9,118.5,361.4z"/>
		
			<linearGradient id="SVGID_79_" gradientUnits="userSpaceOnUse" x1="525.469" y1="277.7551" x2="550.7662" y2="277.7551" gradientTransform="matrix(-0.4954 0.6076 0.5068 0.4132 250.0468 -88.6956)">
			<stop  offset="2.717173e-07" style="stop-color:#DA565C"/>
			<stop  offset="0.9567" style="stop-color:#A1474C"/>
		</linearGradient>
		<path class="st81" d="M120.5,337.2c0,0-5.5,22.9,5.3,29.8c0.5,0.3,2,1.3,3.1,0.5c2.4-1.8,0.4-11.2,0.1-12.6
			C128.2,350.9,126.1,344.2,120.5,337.2z"/>
		
			<linearGradient id="SVGID_80_" gradientUnits="userSpaceOnUse" x1="803.9625" y1="585.2885" x2="827.5409" y2="585.2885" gradientTransform="matrix(-0.7837 -1.860530e-02 -1.551864e-02 0.6537 783.5632 51.3489)">
			<stop  offset="2.717173e-07" style="stop-color:#DA565C"/>
			<stop  offset="0.9567" style="stop-color:#A1474C"/>
		</linearGradient>
		<path class="st82" d="M144.6,410.9c0,0-23.2,0-17.9,12.3c0.3,0.6,1,2.3,2.6,3.2c3.8,1.9,9.1-2.2,9.9-2.9
			C141.5,421.6,144.7,418,144.6,410.9z"/>
		
			<linearGradient id="SVGID_81_" gradientUnits="userSpaceOnUse" x1="500.6755" y1="262.1007" x2="525.9727" y2="262.1007" gradientTransform="matrix(-0.4954 0.6076 0.5068 0.4132 250.0468 -88.6956)">
			<stop  offset="2.717173e-07" style="stop-color:#DA565C"/>
			<stop  offset="0.9567" style="stop-color:#A1474C"/>
		</linearGradient>
		<path class="st83" d="M124.9,315.7c0,0-5.5,22.9,5.3,29.8c0.5,0.3,2,1.3,3.1,0.5c2.4-1.8,0.4-11.2,0.1-12.6
			C132.5,329.4,130.5,322.7,124.9,315.7z"/>
		
			<linearGradient id="SVGID_82_" gradientUnits="userSpaceOnUse" x1="474.2228" y1="241.0298" x2="499.5201" y2="241.0298" gradientTransform="matrix(-0.4954 0.6076 0.5068 0.4132 250.0468 -88.6956)">
			<stop  offset="2.717173e-07" style="stop-color:#DA565C"/>
			<stop  offset="0.9567" style="stop-color:#A1474C"/>
		</linearGradient>
		<path class="st84" d="M127.3,290.9c0,0-5.5,22.9,5.3,29.8c0.5,0.3,2,1.3,3.1,0.5c2.4-1.8,0.4-11.2,0.1-12.6
			C134.9,304.6,132.9,297.9,127.3,290.9z"/>
		
			<linearGradient id="SVGID_83_" gradientUnits="userSpaceOnUse" x1="247.0313" y1="1151.9016" x2="273.2744" y2="1151.9016" gradientTransform="matrix(-3.808413e-02 0.783 -0.6531 -3.176609e-02 908.1292 163.5365)">
			<stop  offset="2.717173e-07" style="stop-color:#DA565C"/>
			<stop  offset="0.9567" style="stop-color:#A1474C"/>
		</linearGradient>
		<path class="st85" d="M153.6,320.7c0,0-1.1,25.6-12,19.1c-0.5-0.3-2-1.2-2.7-3c-1.6-4.2,2.5-9.9,3.1-10.7
			C143.7,323.6,147.1,320.3,153.6,320.7z"/>
		
			<linearGradient id="SVGID_84_" gradientUnits="userSpaceOnUse" x1="278.4334" y1="1155.4579" x2="304.6765" y2="1155.4579" gradientTransform="matrix(-3.808413e-02 0.783 -0.6531 -3.176609e-02 908.1292 163.5365)">
			<stop  offset="2.717173e-07" style="stop-color:#DA565C"/>
			<stop  offset="0.9567" style="stop-color:#A1474C"/>
		</linearGradient>
		<path class="st86" d="M150,345.2c0,0-1.1,25.6-12,19.1c-0.5-0.3-2-1.2-2.7-3c-1.6-4.2,2.5-9.9,3.1-10.7
			C140.2,348.1,143.6,344.7,150,345.2z"/>
		
			<linearGradient id="SVGID_85_" gradientUnits="userSpaceOnUse" x1="310.3282" y1="1160.8164" x2="336.5713" y2="1160.8164" gradientTransform="matrix(-3.808413e-02 0.783 -0.6531 -3.176609e-02 908.1292 163.5365)">
			<stop  offset="2.717173e-07" style="stop-color:#DA565C"/>
			<stop  offset="0.9567" style="stop-color:#A1474C"/>
		</linearGradient>
		<path class="st87" d="M145.3,370c0,0-1.1,25.6-12,19.1c-0.5-0.3-2-1.2-2.7-3c-1.6-4.2,2.5-9.9,3.1-10.7
			C135.5,372.9,138.9,369.6,145.3,370z"/>
		
			<linearGradient id="SVGID_86_" gradientUnits="userSpaceOnUse" x1="432.8494" y1="1269.0128" x2="455.7071" y2="1269.0128" gradientTransform="matrix(-0.243 0.6733 -0.5161 -0.1863 896.8564 336.6538)">
			<stop  offset="2.717173e-07" style="stop-color:#DA565C"/>
			<stop  offset="0.9567" style="stop-color:#A1474C"/>
		</linearGradient>
		<path class="st88" d="M143.4,394.1c0,0-7.4,19-15.8,10.9c-0.4-0.4-1.6-1.5-1.7-3.1c-0.4-3.6,4.8-6.7,5.5-7.2
			C133.6,393.5,137.6,391.9,143.4,394.1z"/>
		
			<linearGradient id="SVGID_87_" gradientUnits="userSpaceOnUse" x1="918.8214" y1="663.7919" x2="939.5555" y2="663.7919" gradientTransform="matrix(-0.5622 -1.334477e-02 -2.224756e-02 0.9372 674.6754 -167.5738)">
			<stop  offset="2.717173e-07" style="stop-color:#DA565C"/>
			<stop  offset="0.9567" style="stop-color:#A1474C"/>
		</linearGradient>
		<path class="st89" d="M143.2,429.1c0,0-15.8,4.6-10.3,21.7c0.3,0.8,1,3.2,2.2,4.1c2.8,2.1,5.8-5.1,6.3-6.2
			C142.6,445.5,144.3,439.5,143.2,429.1z"/>
		
			<linearGradient id="SVGID_88_" gradientUnits="userSpaceOnUse" x1="904.5817" y1="688.1118" x2="925.3159" y2="688.1118" gradientTransform="matrix(-0.5622 -1.334477e-02 -2.224756e-02 0.9372 674.6754 -167.5738)">
			<stop  offset="2.717173e-07" style="stop-color:#DA565C"/>
			<stop  offset="0.9567" style="stop-color:#A1474C"/>
		</linearGradient>
		<path class="st90" d="M150.6,452c0,0-15.8,4.6-10.3,21.7c0.3,0.8,1,3.2,2.2,4.1c2.8,2.1,5.8-5.1,6.3-6.2
			C150.1,468.5,151.7,462.5,150.6,452z"/>
		
			<linearGradient id="SVGID_89_" gradientUnits="userSpaceOnUse" x1="963.9854" y1="364.1121" x2="985.5755" y2="364.1121" gradientTransform="matrix(-0.5001 -1.187235e-02 -1.612330e-02 0.6792 636.6732 67.8112)">
			<stop  offset="2.717173e-07" style="stop-color:#DA565C"/>
			<stop  offset="0.9567" style="stop-color:#A1474C"/>
		</linearGradient>
		<path class="st91" d="M148.7,294.4c0,0-14.3,2.6-10,15c0.2,0.6,0.8,2.3,1.9,3c2.5,1.6,5.4-3.4,5.8-4.1
			C147.7,306.1,149.3,301.9,148.7,294.4z"/>
		
			<linearGradient id="SVGID_90_" gradientUnits="userSpaceOnUse" x1="246.2665" y1="718.5" x2="102.488" y2="718.5" gradientTransform="matrix(0.5657 -0.8246 -0.8246 -0.5657 634.7274 949.9568)">
			<stop  offset="2.717173e-07" style="stop-color:#DA565C"/>
			<stop  offset="0.9567" style="stop-color:#A1474C"/>
		</linearGradient>
		<path class="st92" d="M142.3,487.9c-1-1.7-2.6-4.4-3.8-7.8c-3.3-8.8-0.5-10.6-3.7-18.6c-1.8-4.5-3.4-5.8-5.2-11.5
			c-0.7-2-0.7-2.5-1.7-6.8c-1.3-5.8-2.6-10.5-3.8-14.6c-2.4-8.8-3-9.7-3-12.3c-0.1-3.3,0.8-2.9,1.4-7.8c0.8-6.3-0.5-7.6,0.6-12.2
			c0.7-3.2,1.5-2.8,3-7.4c1.2-3.6,1.5-6.1,2.1-9.1c0.7-3.6,2-8.5,4.4-14.2c-0.3-3.7-0.4-9.1,0.8-14.9c1.1-4.9,1.8-4.3,2.6-9
			c0.6-3.8,0.2-5.4,0.9-16.4c0.1-2.1,0.2-3.1,0.4-4.4c0.5-4.1,1.4-7.1,2.1-9c0,1.5-0.1,3.7-0.4,6.3c-0.6,7-1.5,8.5-1.7,13.6
			c-0.3,5.9,0.8,5.7,0.3,10.2c-0.5,5.8-2.3,6.5-3.3,11.9c-0.5,2.6-0.8,6.5,0,12.2c-2.4,5.6-3.7,10.6-4.5,14.1
			c-0.8,3.6-0.8,5-1.9,8.6c-1.8,6.4-2.8,6-3.3,10c-0.5,4.3,0.5,5.8,0.2,11.8c-0.2,3.2-0.6,5.7-1,7.3c0.2,1.1,3.7,17.5,6.2,26.4
			c0.6,2.2,1.2,4.3,2.1,6.8c1.5,4.2,2.8,7.2,3.1,7.9C136.9,462.3,139.3,470,142.3,487.9z"/>
	</g>
	
		<linearGradient id="SVGID_91_" gradientUnits="userSpaceOnUse" x1="161.6398" y1="569.5793" x2="195.6964" y2="549.9167" gradientTransform="matrix(1.2695 1.3662 -1.356 1.2601 845.9326 -757.7945)">
		<stop  offset="2.717173e-07" style="stop-color:#DA565C"/>
		<stop  offset="0.9567" style="stop-color:#A1474C"/>
	</linearGradient>
	<path class="st93" d="M344.9,185.7c0.9,0.4,2.9,1.5,4.4,3.7c1.3,1.9,1.7,3.7,1.9,4.7c-0.4,0.8-1.1,2-2.4,3.1
		c-2.5,2-5.4,2.1-6.3,2.1c-5.1-2.4-10.3-4.7-15.4-7.1c-1.3,0.9-1.5,1.6-1.5,2c0,2.6,6.7,2,12.5,7.3c0,0,5.4,4.9,7.8,4.4
		c0,0,0.1,0,0.1,0c0.3,0.3-1.9,3.1-4.3,4.8c-1.1,0.8-3,1.9-6,2.4c-4.1-4-8.2-7.9-12.3-11.9c-1.5-0.9-3-1.9-4.5-2.8
		c-0.1,1.2-0.1,2.3-0.2,3.5c2.4,2.2,4.7,4.4,7.1,6.6l5.2,6.3c-0.6,0.6-2.5,2.4-5.7,2.8c-3.2,0.4-5.6-0.9-6.3-1.4
		c-1.8-2.7-3.6-5.9-5.3-9.5c-1.2-2.5-2.2-4.9-3.1-7.2c-1-0.3-2-0.6-3.1-0.9l3.5,13.8l3.9,4.2c-0.6,0.5-3.3,2.8-7.1,2.5
		c-0.2,0-4.3-0.4-6.6-3.6c-4.4-6.1,2.4-16.4-0.6-18.4c-0.5-0.3-1.5-0.6-3.7,0.6c-0.1,2.4-0.3,4.8-0.4,7.3c-1.4,2.5-2.8,5.1-4.1,7.6
		c-6.9,0.7-9.3-1.2-10.2-2.4c-0.9-1.2-0.7-2.2-1.2-10.5c-0.3-4.9-0.5-6-0.7-7.1c-0.7-3.5-2-6.2-2.9-8c1.2-2,2.4-4,3.6-6l2.8-7.3
		c1.7-3.9,3.3-7.9,5-11.8c0.2-0.3,1.4-2.2,4-2.6c2.7-0.4,4.6,1.4,4.8,1.6c-0.9,3.2-1.7,6.4-2.6,9.6c0,0,0.8,11.3,1.6,11.3
		c0.1,0,0.1-0.1,0.1-0.1c0.9-1.5,2.4-8.5,3.1-10.8c0,0,4.3-8.3,4.2-8.2l0,0c1.6-1.2,2.5-0.9,2.8-0.9c1.5,0.6,2.3,3.7,1.3,7.9
		c-0.5,4.8-0.9,9.7-1.4,14.5c2.1-3.4,4.2-6.7,6.3-10.1c-0.2-3.3-0.4-6.7-0.7-10c1.2,0.2,4.4,0.7,7.2,3.3c1.7,1.6,2.6,3.4,3.1,4.5
		c-0.7,2.1-1.9,4.7-3.7,7.5c-2,3.1-4.2,5.4-6,6.9c1.4,1.1,2.7,2.2,4.1,3.2c0.4-1.9,1.1-4.4,2.5-7c2.5-4.7,5.8-7.7,7.9-9.2
		c0.9-0.5,1.8-0.9,2.8-1.4c1.2,0.7,3.1,2,4.8,4.3c1.8,2.4,2.5,4.7,2.8,6c-2.6,1.1-5.2,2.2-7.9,3.2c-1.7,1.6-3.4,3.3-5,4.9l13.8-3.7
		C340.7,185,342.8,185.4,344.9,185.7z"/>
</g>
</svg>
