<svg id="Layer_1" data-name="Layer 1" xmlns="http://www.w3.org/2000/svg" viewBox="0 0 383.66 730.8"><defs><style>.cls-1,.cls-6,.cls-9{fill:#fff;}.cls-1,.cls-10,.cls-13,.cls-3,.cls-5,.cls-7,.cls-8,.cls-9{stroke:#4d4d4d;stroke-miterlimit:10;}.cls-1,.cls-10,.cls-3,.cls-5,.cls-7,.cls-8,.cls-9{stroke-width:5px;}.cls-2{fill:#f5b065;}.cls-11,.cls-12,.cls-3{fill:#f8d5db;}.cls-4,.cls-5{fill:#4d4d4d;}.cls-7{fill:#c47b72;}.cls-13,.cls-8{fill:none;}.cls-10,.cls-13,.cls-8{stroke-linecap:round;}.cls-9{opacity:0.2;}.cls-10{fill:#f2f2f2;}.cls-11{opacity:0.7;}.cls-13{stroke-width:20px;}</style></defs><title>corgi</title><path class="cls-1" d="M534.6,266.65a82.87,82.87,0,0,0-5.68-17.86,390,390,0,0,0-11.36-138.64,204.18,204.18,0,0,0-86.91,88.27,161.62,161.62,0,0,0-57.72-.32,253.66,253.66,0,0,0-90.17-90.6,166.38,166.38,0,0,0-7.16,140.16,53.8,53.8,0,0,0-4.31,29.85L278,275a47.45,47.45,0,0,0-5.06,10.53,49.09,49.09,0,0,0-1,27l5.86-3v1.08a60.9,60.9,0,0,0-2.55,10.25,57.21,57.21,0,0,0,1.62,25.24l5.6-4.12a94.9,94.9,0,0,0,90.27,65.39l56.6-.06a94.88,94.88,0,0,0,90.45-66.56l5.58,6a40.93,40.93,0,0,0,2-28.38l7.11,3.38a91,91,0,0,0-6.53-34.42l7.53,4.05A75.14,75.14,0,0,0,534.6,266.65Z" transform="translate(-208.17 -34.6)"/><path class="cls-2" d="M379.53,214.82a60.07,60.07,0,0,1,4,28.08C382.39,254,378.62,257,366,282.22c-11.46,22.86-13.27,30.21-20,31.31-5.63.92-10.74-3.15-20.87-11.21a111,111,0,0,1-17.67-17.63A113,113,0,0,1,277.68,247a115.51,115.51,0,0,1-8.85-26.47c-7.54-33.07-2.16-61.8,2.32-77.82A163.79,163.79,0,0,1,284,110.63a235.42,235.42,0,0,1,95.57,104.19Z" transform="translate(-208.17 -34.6)"/><path class="cls-2" d="M379.53,214.82c2.5,5.34,4.38,15.26,4,28.08-.52,19.88-8,34-13.59,44.13-7.87,14.37-14.17,25.87-24,26.5-6.17.4-11.27-3.57-20.87-11.21a111,111,0,0,1-17.67-17.63A113,113,0,0,1,277.68,247a115.51,115.51,0,0,1-8.85-26.47c-7.54-33.07-2.16-61.8,2.32-77.82A163.79,163.79,0,0,1,284,110.63a235.42,235.42,0,0,1,95.57,104.19Z" transform="translate(-208.17 -34.6)"/><path class="cls-2" d="M420.22,217.28c-4.39,11.27-4.15,21.05-4,28.09a92.24,92.24,0,0,0,10.7,40.8c7.42,13.9,14.29,26.77,27.08,29.76,19.29,4.51,38.78-16.56,45.13-23.41,3.75-4.06.9-1.86,20.82-30.51a48.82,48.82,0,0,0,7.21-13.65c1-3,2-7.07,2.39-19.25.32-9.11.11-16.15,0-20.06-.3-8.31-.59-16.79-1.64-28.88-1.31-15.08-2.35-27.09-5.66-42.51a249.32,249.32,0,0,0-6.67-24.77c-10.23,6.1-32.31,20.09-50.5,39.37A214.22,214.22,0,0,0,450.88,169c-5.85,7.84-6.46,10-16,24.89C423.49,211.62,422.48,211.5,420.22,217.28Z" transform="translate(-208.17 -34.6)"/><path class="cls-3" d="M345.81,190c-6.9-3.82-13.18-5.47-15.25-3.2-1.8,2-.46,7.14.82,12,1.24,4.74,2.41,6.37,1.61,7.21s-2.81-.79-7.78-2.52c-4.55-1.58-6.83-2.37-8.27-1.47-2.24,1.4-2,5.82-1.59,12.84.08,1.38.3,4.37.26,8.54,0,4.49-.34,5.41-1.05,5.9-2.07,1.41-6.67-1.66-8.25-2.71-1.06-.71-2.08-1.53-3.79-2.9-3.18-2.55-3.89-3.41-4.81-3.2s-1.29,1.19-2.4,4.82c-1.32,4.28-1.92,6.82-2.58,8.92a40.92,40.92,0,0,1-3,7.13,170.83,170.83,0,0,1-8.1-72.2,167.84,167.84,0,0,1,8.78-38.51A138.78,138.78,0,0,1,345.81,190Z" transform="translate(-208.17 -34.6)"/><path class="cls-3" d="M451.38,199c6.89-3.84,13.17-5.5,15.24-3.23,1.81,2,.48,7.13-.79,12-1.23,4.74-2.4,6.37-1.6,7.22s2.81-.8,7.78-2.54c4.54-1.6,6.82-2.39,8.26-1.49,2.24,1.4,2,5.81,1.62,12.83-.08,1.39-.29,4.38-.24,8.55.05,4.49.35,5.41,1.06,5.89,2.08,1.41,6.67-1.66,8.25-2.72,1.05-.71,2.07-1.53,3.77-2.9,3.19-2.57,3.89-3.43,4.81-3.22s1.3,1.19,2.42,4.81c1.32,4.28,1.92,6.82,2.59,8.93a41.22,41.22,0,0,0,3,7.11,170.84,170.84,0,0,0,7.95-72.21,167.93,167.93,0,0,0-8.87-38.5A138.9,138.9,0,0,0,451.38,199Z" transform="translate(-208.17 -34.6)"/><path class="cls-4" d="M409.17,333.85l17.12-20.49a12.16,12.16,0,0,0-9.34-20l-34.29,0a12.16,12.16,0,0,0-9.3,20l17.17,20.46A12.17,12.17,0,0,0,409.17,333.85Z" transform="translate(-208.17 -34.6)"/><circle class="cls-5" cx="136.92" cy="235.61" r="19.66"/><circle class="cls-5" cx="250.04" cy="235.49" r="19.66"/><circle class="cls-6" cx="138.52" cy="226.78" r="10.43"/><ellipse class="cls-6" cx="456.6" cy="263.28" rx="8.82" ry="10.03" transform="translate(-208.44 -34.13) rotate(-0.06)"/><ellipse class="cls-6" cx="470.2" cy="266.49" rx="5.13" ry="3.23" transform="translate(-154.85 575.86) rotate(-69.07)"/><path class="cls-7" d="M426.61,359.78c0,17.83-11.1,32.3-24.84,32.32s-24.88-14.43-24.9-32.27q0-1.35.09-2.67c11.57-.88,21-13.37,22.82-29.54a7.18,7.18,0,0,1,.79-.06c1,16.58,11.57,29.61,24.41,29.59.51,0,1,0,1.54-.07Q426.61,358.42,426.61,359.78Z" transform="translate(-208.17 -34.6)"/><path class="cls-8" d="M400.49,333.53a17.39,17.39,0,0,0,.09,1.92c1,11.95,11.56,21.34,24.4,21.32.51,0,1,0,1.54,0,12.79-.76,22.92-10.88,22.9-23.24" transform="translate(-208.17 -34.6)"/><path class="cls-8" d="M351.17,333.58c0,12.85,11,23.26,24.5,23.24l1.29,0c11.57-.58,21-8.82,22.83-19.48a22.42,22.42,0,0,0,.32-3.78" transform="translate(-208.17 -34.6)"/><line class="cls-8" x1="192.74" y1="300.94" x2="192.78" y2="339.44"/><circle class="cls-9" cx="191.83" cy="191.83" r="189.33"/><path class="cls-10" d="M568.52,496.72c-16.93-26.27-34.56-51.86-55.54-76-4.31-5-6.69-5-16.48-5.49-56.73-2.67-120.49,5.09-175.69,5.29s7.81-.41-18.83.18c-7.71.17,4.45,0-1.64,0,.39,0,.39.24.69.31-2.27,1.87-4.17,2-6.15,4.5-18.94,23.51-40.77,44.49-57.15,70.35-13.5,21.3-8.86,31.23,6.32,49.69a8.51,8.51,0,0,0,3.56,2.21c23.65,8.86,32.21,4.73,49.41-12.78,3.13-3.19,5.13-7.27,8.24-10.48,1.79,51-16.63,100.52-12.17,149.19.17.18.11-.18.13.23.77,15.64-2.8,31.12-4.37,46.5-2.48,24.3,1.21,30.13,22.53,41.36a8.18,8.18,0,0,0,4,1.08c24.35-1.08,34.42-1.81,43.17-27.2,5.53-16.07,3.19-35.46,9-51.88,22.68,1.8,45.47,3.07,68.25,2.69,5.61,15.24,6.33,31.62,11.36,47,7.93,24.22,18.54,27.2,42.55,28.29a10.11,10.11,0,0,0,4.14-.93c20.36-9.1,28.11-16.62,26.16-39.57-1.24-14.56-3.78-27.77-3.68-42.13,0-.25,0-.15,0-.22,2.95-54.68-17.09-106.43-15.47-158.6,4.53,4.92,7.49,11.93,11.81,16.77,15.76,17.6,24.91,19.28,46.51,10.41a8.47,8.47,0,0,0,3.48-2.27C576.74,526.5,582.47,518.36,568.52,496.72Z" transform="translate(-208.17 -34.6)"/><polygon class="cls-11" points="308.95 62.73 243.11 46.35 252.78 24.68 308.95 62.73"/><polygon class="cls-11" points="240.8 34.94 214.15 42.56 226.04 11.48 240.8 34.94"/><circle class="cls-12" cx="63.36" cy="473.95" r="13.64"/><circle class="cls-12" cx="64.99" cy="499.62" r="6.42"/><circle class="cls-12" cx="46.53" cy="495.63" r="6.42"/><circle class="cls-12" cx="37.69" cy="480.4" r="6.42"/><rect class="cls-4" x="282.67" y="397.71" width="234.26" height="36.9" rx="18.45" transform="translate(-208.6 -34.19) rotate(-0.06)"/><circle class="cls-12" cx="324.89" cy="476.09" r="13.64"/><circle class="cls-12" cx="350.56" cy="474.46" r="6.42"/><circle class="cls-12" cx="346.57" cy="492.92" r="6.42"/><circle class="cls-12" cx="331.34" cy="501.76" r="6.42"/><path class="cls-4" d="M372.57,466.73a5.61,5.61,0,0,0-10.41-2.91l-15.73-7.68a5.62,5.62,0,1,0-10.78-2.2,5.57,5.57,0,0,0,1,3.21h-.21a5.62,5.62,0,1,0,5.11,7.94l15.72,7.68a5.61,5.61,0,1,0,9.45-.42l.22,0A5.62,5.62,0,0,0,372.57,466.73Z" transform="translate(-208.17 -34.6)"/><line class="cls-13" x1="191.63" y1="385.57" x2="192.62" y2="568.49"/></svg>
