<svg xmlns="http://www.w3.org/2000/svg" viewBox="0 0 82 82"><defs><style>.cls-1{fill:#fff;}</style></defs><title>Deviantart</title><g id="Layer_2" data-name="Layer 2"><g id="Icons"><path class="cls-1" d="M41,82A41,41,0,1,1,82,41,41,41,0,0,1,41,82ZM41,2A39,39,0,1,0,80,41,39.05,39.05,0,0,0,41,2Z"/><path class="cls-1" d="M36.15,37c8-2.31,14.64,2.41,14.64,2.41L45.3,40.93l-1.58-3a14.32,14.32,0,0,0-5,0l3.74,7.64,16.15-4.68s-5.86-9.26-23.33-6.27c-.1,0-.19,0-.29.06l-1.7-3.46-5,.57L30.32,36c-10.6,4.41-5.9,14.79-5.9,14.79l16.17-4.68Zm-7.36,8.38S27.23,42,31.77,39l2.41,5Z"/></g></g></svg>