<svg xmlns="http://www.w3.org/2000/svg" viewBox="0 0 360.96 95.5"><defs><style>.cls-1{fill:#fff;}</style></defs><title>Asset 5</title><g id="Layer_2" data-name="Layer 2"><g id="Layer_1-2" data-name="Layer 1"><path class="cls-1" d="M85.7,56,108,95.5H96.39L80.73,68,17.57,84.93l-6,10.57H0L11,76.27ZM18,63.92,54,0,80.48,47ZM54,20.63,38.71,47.75l26.61-7.13Z"/><path class="cls-1" d="M130,63.53l-3.94,9h-7.1L136.28,33.1h7.1l17.36,39.39h-7.1l-3.95-9Zm17-6.14-7.16-16.23-7.15,16.23Z"/><path class="cls-1" d="M198,38.26q5.7,5.16,5.69,14.34T198.2,67.13q-5.52,5.36-16.9,5.36H168.23V33.1h13.52Q192.34,33.1,198,38.26Zm-1,14.51q0-13.53-15.5-13.53h-6.64v27h7.38q7.16,0,11-3.41T197,52.77Z"/><path class="cls-1" d="M240,33.1v6.26h-21V49.78h18.88V55.7H218.93V66.23h21.7v6.26H212.29V33.1Z"/><path class="cls-1" d="M249.13,72.49V33.1h6.65V66.18h18v6.31Z"/><path class="cls-1" d="M281,33.1h6.65V72.49H281Z"/><path class="cls-1" d="M313.47,39.19v33.3h-6.65V39.19H294.88V33.1h30.54v6.09Z"/><path class="cls-1" d="M360.29,33.1v6.26h-21V49.78h18.88V55.7H339.27V66.23H361v6.26H332.63V33.1Z"/></g></g></svg>